<?xml version="1.0" encoding="UTF-8" standalone="no"?>
<!-- Created with Inkscape (http://www.inkscape.org/) -->
<svg id="svg3192" xmlns:rdf="http://www.w3.org/1999/02/22-rdf-syntax-ns#" xmlns="http://www.w3.org/2000/svg" viewBox="0 0 161.71 147.39" version="1.1" xmlns:cc="http://creativecommons.org/ns#" xmlns:dc="http://purl.org/dc/elements/1.1/">
 <metadata id="metadata3197">
  <rdf:RDF>
   <cc:Work rdf:about="">
    <dc:format>image/svg+xml</dc:format>
    <dc:type rdf:resource="http://purl.org/dc/dcmitype/StillImage"/>
    <dc:title/>
   </cc:Work>
  </rdf:RDF>
 </metadata>
 <g id="layer1" transform="translate(-203.78671,-99.282755)">
  <g id="g3811-1-8" transform="matrix(-0.9484902,0,0,0.9484902,532.37229,-9.2245965)">
   <g id="g3990" transform="matrix(0.94851012,-0.8974951,1.0168432,0.09341766,-188.01604,410.49532)">
    <g id="g4001">
     <g id="g4288">
      <path id="path4302" fill="#f2f2f2" d="m183.96,259.55c1.4636,4.6,5.6099,7.2984,12.637,8.2243,8.3654,1.1022,23.898,1.9874,42.372,2.4148,2.6251,0.0607,4.9137,0.12317,5.0858,0.13875,0.24441,0.0221,0.39585-0.0521,0.69204-0.33921,0.28048-0.27188,0.46128-0.36908,0.69463-0.37347,1.2844-0.0242,11.636-0.0268,12.553-0.003,0.2476,0.006,0.32971,0.0681,0.24205,0.18183-0.46956,0.60946-0.0682,0.62854,6.9012,0.32797,5.0744-0.21883,7.193-0.37417,7.7417-0.5676,1.4655-0.51666,3.7644-2.0174,5.3463-3.4901,3.9844-3.7093,5.8263-9.0032,9.6669-27.784,3.1737-15.52,6.9772-37.639,7.7856-45.277,0.31694-2.9945,0.35322-4.4266,0.17269-6.8175-0.31156-4.1262-1.053-5.8494-3.131-7.277-1.9175-1.3173-17.403-8.4035-33.229-15.206-9.7261-4.1805-27.371-11.699-28.443-12.121-3.1823-1.2498-6.081-1.0853-9.3578,0.53086-1.396,0.68854-2.5675,1.4978-3.9972,2.7614-1.4651,1.2948-2.6669,2.6132-4.5671,5.0101-4.1287,5.208-6.918,10.234-9.683,17.448-2.0176,5.2637-7.18,21.528-10.5,33.082-2.5609,8.911-6.6637,23.473-7.3763,26.18-2.1215,8.0604-2.7468,14.01-2.0956,19.939,0.14649,1.3333,0.34673,2.5658,0.49026,3.017zm104.57-38.093c0.87506-4.6424,1.6292-8.584,1.6759-8.7592,0.0479-0.17948,0.18178-0.40881,0.30689-0.52552,0.1756-0.1638,0.22859-0.14352,0.25363,0.0971,0.0308,0.29577-2.9381,16.205-3.2223,17.267-0.18753,0.70081-0.5345,1.0406-0.58335,0.57126-0.012-0.11524,0.69415-4.0078,1.5692-8.6502z"/>
      <path id="path4300" fill="#e7e7e7" d="m184.02,258.98c1.1724,4.163,4.541,6.9049,10.044,8.1758,5.4074,1.2488,21.039,2.2706,44.583,2.9144,5.6217,0.15373,5.7337,0.14865,6.1034-0.27639,0.26821-0.3084,0.4033-0.34203,1.3505-0.33618,0.57889,0.004,1.8375-0.004,2.7969-0.0176,3.6448-0.0505,9.4557-0.0327,9.5045,0.0291,0.0279,0.0354-0.001,0.22604-0.0644,0.42357-0.11044,0.34422,0.0372,0.35508,3.555,0.26223,5.5554-0.14669,10.144-0.43565,10.897-0.68617,1.4223-0.47323,3.0415-1.4748,4.9326-3.0512,0.90715-0.75617,1.0787-0.92998,1.7981-1.8222,1.0154-1.2593,1.3581-1.8015,2.1021-3.325,1.7718-3.6286,3.2226-8.8352,5.5944-20.078,2.9879-14.163,7.144-37.838,8.2035-46.73,0.50494-4.238,0.57648-6.3019,0.31041-8.9558-0.35535-3.5444-1.2127-5.295-3.235-6.6057-1.2178-0.78929-15.37-7.3937-22.909-10.691-9.6308-4.212-38.028-16.326-39.268-16.751-3.2332-1.1091-6.3937-0.65337-9.8788,1.4246-4.7316,2.8212-11.083,11.179-14.817,19.496-1.7012,3.7899-2.8336,6.8718-5.3437,14.544-3.5976,10.995-5.5921,17.689-11.542,38.732-3.9651,14.024-4.6334,16.874-5.1236,21.846-0.41083,4.1674-0.23314,9.2174,0.40393,11.48zm14.89-61.923c0.15952-0.007-0.0588,0.30453-0.40099,0.57276l-0.36691,0.28762,0.349-0.42858c0.19195-0.23572,0.38045-0.43004,0.4189-0.4318zm10.139-18.931c1.3948-4.2692,2.9215-8.6988,3.5758-10.375,3.9112-10.02,8.3374-15.091,13.517-15.487,1.0994-0.084,2.5489,0.10143,3.6382,0.46548,1.4266,0.47678,38.071,15.835,42.456,17.794,7.883,3.5218,19.521,8.9895,20.128,9.4562,2.392,1.8394,3.3389,5.526,2.9194,11.366-0.28103,3.9125-3.0475,21.411-5.2948,33.49-0.99226,5.3334-2.5148,13.132-2.5952,13.293-0.0323,0.0645-0.0811,0.11834-0.10851,0.11952-0.22198,0.01-4.6422-3.4122-4.6628-3.6095-0.0146-0.14066,2.1616-11.818,4.836-25.949,3.9419-20.828,4.8391-25.721,4.7385-25.843-0.15186-0.18358-63.71-26.679-63.997-26.678-0.46552,0.001-0.16753-0.99954-5.5044,18.482-2.0603,7.5208-3.7934,13.704-3.8515,13.741-0.102,0.0648-10.599-7.4838-10.619-7.6366-0.006-0.0415,0.36547-1.225,0.82448-2.6299zm75.078,53.379c0.27539-0.0127,0.42886-0.27664,0.70662-1.2154,0.30673-1.0367,0.264-1.3834-0.14819-1.2026-0.31961,0.14027-0.48032,0.44472-0.63915,1.2109-0.15037,0.72538-0.11755,1.2162,0.0807,1.2071zm0.54812-2.7921c0.41016-0.14007,0.57705-0.28831,0.59427-0.52785,0.009-0.1191,0.0767-0.31496,0.15142-0.43525,0.10317-0.16612,0.0394-0.20744-0.26536-0.17184-0.44608,0.0521-0.62108,0.27527-0.70747,0.90214-0.0356,0.2581,0.0116,0.30642,0.22714,0.2328zm0.35998-1.4896c0.29193,0.0415,0.2992,0.0364,0.4453-0.30904,0.19473-0.46045,0.18546-0.50812-0.12484-0.64192-0.30409-0.13113-0.52992,0.0342-0.59199,0.43332-0.0672,0.43238-0.0462,0.47249,0.27153,0.51764zm0.2131-1.4586c0.28309,0.0147,0.31767-0.008,0.43561-0.28449,0.087-0.20407,0.21552-0.36124,0.40052-0.48983,0.26385-0.18339,0.26575-0.18977,0.0602-0.20256-0.25615-0.0159-0.31055-0.33865-0.10317-0.61196,0.0922-0.12155,0.11966-0.25469,0.0707-0.34317-0.0523-0.0944-0.0274-0.1936,0.0716-0.28598,0.11208-0.10455,0.13486-0.28521,0.0874-0.69292-0.0648-0.55628-0.30958-0.80115-0.56381-0.56401-0.16148,0.15063-0.25738,0.7023-0.14385,0.82754,0.0439,0.0484-0.009,0.26474-0.11755,0.48205-0.11352,0.22696-0.18361,0.52461-0.16519,0.70157,0.0176,0.16906-0.0291,0.43992-0.10381,0.60193-0.27226,0.59051-0.25118,0.84504,0.0713,0.86183zm0.79515-4.0615c0.21028-0.01,0.22456-0.0251,0.42119-0.45636,0.11193-0.2455,0.25434-0.70039,0.31645-1.0109,0.0986-0.49272,0.0889-0.57774-0.0761-0.66846-0.42192-0.23195-0.86074,0.55609-0.87245,1.5667-0.005,0.4692,0.0346,0.57707,0.21096,0.56896zm0.43691-2.7397c0.11065,0.0722,0.25406,0.12947,0.3187,0.12717,0.19569-0.007,0.31475-0.468,0.20771-0.80429-0.0742-0.23305-0.0598-0.34298,0.0594-0.45419,0.24932-0.23257,0.27644-0.86068,0.0408-0.94627-0.11097-0.0403-0.24238-0.0354-0.29203,0.0109-0.23733,0.22139-0.59644,1.3786-0.55264,1.7808,0.009,0.085,0.10735,0.21363,0.21799,0.28588zm0.58426-2.6154c0.35354,0.037,0.45996-0.0899,0.52262-0.62321,0.0249-0.21177,0.10248-0.48698,0.17245-0.61156,0.22828-0.40648,0.18078-1.1262-0.0821-1.2447-0.13058-0.0588-0.28878-0.059-0.35156-0.00049-0.17636,0.1645-0.30023,0.82777-0.20604,1.1032,0.0612,0.17908,0.034,0.32684-0.0987,0.53583-0.30859,0.48582-0.29208,0.80578,0.0434,0.84091zm0.60543-3.0698c0.10907,0.0266,0.23297-0.0454,0.35503-0.20629,0.15318-0.20188,0.16733-0.30583,0.0774-0.56794-0.0876-0.25523-0.0762-0.35251,0.0559-0.4757,0.19142-0.17855,0.18736-0.46241-0.01-0.68288-0.16807-0.18798-0.4617,0.11186-0.62151,0.63468-0.15021,0.49136-0.067,1.247,0.14301,1.2981zm1.8834-4.2302c0.35728,0.34934,0.95745-0.22509,1.1792-1.1287,0.25486-1.0383-0.0957-2.0431-0.60097-1.7226-0.37017,0.23475-0.61694,0.62401-0.75678,1.1938-0.16827,0.68554-0.0921,1.3929,0.17851,1.6575zm0.66549-4.0235c0.35728,0.34935,0.95745-0.22509,1.1792-1.1287,0.25486-1.0384-0.0956-2.0431-0.60096-1.7226-0.37017,0.23475-0.61695,0.62401-0.75679,1.1938-0.16826,0.68553-0.0921,1.3929,0.17852,1.6575zm1.2504-7.4806c0.24652,0.36103,0.53663,0.36806,0.90762,0.022,0.6007-0.56034,0.90465-1.6242,0.78699-2.7545-0.11765-1.1303-0.56966-1.489-1.1704-0.92865-0.16247,0.15155-0.37196,0.43814-0.46554,0.63687-0.41931,0.89047-0.44962,2.4518-0.0587,3.0242z"/>
      <path id="path4298" fill="#cecfcf" d="m185.94,259c1.4244,5.2937,4.276,7.4827,11.131,8.5441,6.0952,0.94381,22.063,1.887,39.882,2.3558,7.4648,0.19639,7.4437,0.19682,7.7534-0.1593,0.33465-0.38479,0.94777-0.58659,1.3001-0.42788,0.12628,0.0569,1.2196,0.0835,2.4297,0.0591,4.5692-0.0921,10.03-0.0706,10.08,0.0397,0.0286,0.063-0.00088,0.23326-0.0655,0.37831-0.0943,0.2117-0.0569,0.27542,0.18979,0.32295,0.169,0.0326,3.2688-0.0685,6.8884-0.22453,4.239-0.18276,6.8294-0.36764,7.2788-0.51949,1.9553-0.66067,5.1676-2.9602,6.6674-4.7727,2.173-2.6262,3.7419-6.5856,5.4975-13.874,1.0458-4.3416,3.2623-14.761,4.1269-19.399,0.27914-1.4976,0.7309-3.8882,1.0039-5.3126,2.1056-10.985,4.6541-26.442,5.249-31.837,0.96238-8.7267,0.20454-12.98-2.671-14.99-1.7996-1.258-18.037-8.6753-34.039-15.549-16.351-7.024-27.62-11.795-28.6-12.109-1.4891-0.47742-2.2507-0.58058-3.6986-0.50096-2.0454,0.11246-3.9226,0.778-6.3985,2.2686-0.78127,0.47033-0.99294,0.64469-2.6076,2.1479-1.5803,1.4712-1.8614,1.7621-2.7904,2.8869-2.5094,3.0384-3.779,4.9485-5.0381,7.5794-2.1588,4.5108-3.8228,9.127-7.4044,20.541-2.1802,6.9477-3.1173,10.122-3.0906,10.468,0.0252,0.3278,0.0214,0.33412-0.55317,0.90039-0.37062,0.36528-0.79332,0.88084-1.1759,1.4343l-0.59735,0.86399-1.5935,5.2354c-0.98066,3.222-1.5821,5.3445-1.564,5.519,0.0217,0.20827,0.0965,0.24115,0.28163,0.12374,0.13864-0.0879,0.41085-0.20718,0.60491-0.26503,0.19404-0.0578,0.36614-0.11292,0.38243-0.12241,0.0163-0.009-0.76676,2.8026-1.7401,6.2491-3.8644,13.683-5.059,18.343-6.231,24.305-0.85515,4.35-1.3887,8.8604-1.421,12.012-0.0196,1.9098,0.23895,4.7342,0.53358,5.8292zm5.7133-13.411c0.20663-4.2241,0.98538-9.2715,2.1847-14.16,1.1342-4.6231,5.1565-19.622,7.5488-28.149,3.7191-13.256,8.6646-29.121,10.89-34.934,3.2147-8.3979,6.7258-13.402,10.822-15.425,2.0089-0.99191,4.3555-1.1384,6.6736-0.41654,1.2714,0.3959,37.722,15.656,42.567,17.821,7.9866,3.5684,19.517,8.9879,20.125,9.4592,1.7071,1.3226,2.6329,3.3684,2.964,6.5491,0.33377,3.2066,0.18799,4.9356-1.1668,13.839-1.821,11.967-3.3339,20.732-5.601,32.446-2.11,10.903-3.3392,16.425-4.5858,20.6-0.94831,3.1761-1.7413,5.3145-2.6255,7.08-0.81208,1.6215-1.2626,2.2676-2.2836,3.275-0.70259,0.69322-0.87101,0.81931-1.539,1.1522-1.3923,0.69386-2.046,0.76203-6.6291,0.69126-12.601-0.19456-28.236-0.76907-48.312-1.7752-16.009-0.80233-24.603-1.9698-26.816-3.6431-1.4433-1.0909-2.9219-3.8561-3.6418-6.811-0.2207-0.9058-0.63372-6.3753-0.57385-7.5994zm9.6755,10.408c17.678,1.2851,75.1,5.3418,75.474,5.332,0.45977-0.012,0.54245-0.0496,0.66622-0.30244,0.13457-0.27495,4.8055-24.822,5.0917-26.758,0.0752-0.50878,2.28-12.253,4.8996-26.099l4.7629-25.174-0.30462-0.15844c-0.16755-0.0871-14.585-6.1037-32.039-13.37-20.816-8.6662-31.795-13.155-31.91-13.047-0.23427,0.21853-0.51237,1.1962-5.0644,17.803-2.0999,7.661-3.9139,14.21-4.0312,14.553-0.31178,0.91283-18.396,66.862-18.379,67.024,0.008,0.0756,0.38289,0.1643,0.83338,0.19704zm1.5973-42.23c0.30871,0.67829,0.81599,0.99782,1.4801,0.93226,0.7286-0.0719,1.0504-0.34252,1.4856-1.2493,0.20088-0.41851,1.4528-4.5856,3.5841-11.93,1.8015-6.2076,3.3406-11.587,3.4203-11.953,0.0797-0.36676,0.12786-0.84235,0.10705-1.0569-0.11709-1.2069-2.0977-1.0332-3.2795,0.28768-0.79591,0.88953-1.0635,1.6052-2.8939,7.7413-2.8538,9.5664-4.0822,13.832-4.1892,14.546-0.12519,0.83575,0.006,2.0678,0.28554,2.6821zm0.58122-3.3202c0.16201-1.104,5.5784-19.392,6.0377-20.386,0.22661-0.49034,0.41454-0.78544,0.62552-0.98224,0.33343-0.31103,0.9914-0.52184,1.6376-0.5247,0.40703-0.002,0.42409,0.0237,0.49819,0.74475l0.0768,0.74661-3.3071,11.375c-1.8189,6.2561-3.379,11.527-3.4668,11.714-0.25178,0.5347-0.50929,0.7022-1.0289,0.6693-0.4653-0.0295-0.81588-0.42351-1.0329-1.161-0.10336-0.35123-0.12629-1.6081-0.0401-2.1956zm86.203-1.4829c0.53526,0.23948,1.1148-0.86821,1.0052-1.9212-0.07-0.67243-0.41893-0.93841-0.78417-0.59772-0.36523,0.34068-0.60194,1.153-0.53195,1.8254,0.0426,0.40915,0.13476,0.61476,0.31092,0.69357zm0.66549-4.0235c0.53526,0.23947,1.1148-0.86822,1.0052-1.9212-0.07-0.67243-0.41894-0.93841-0.78417-0.59772s-0.60194,1.153-0.53195,1.8254c0.0426,0.40915,0.13476,0.61476,0.31092,0.69358zm1.1989-7.4443c0.28135,0.32484,0.45614,0.30665,0.83936-0.0874,0.27498-0.28272,0.37234-0.46522,0.53783-1.0082,0.16269-0.53377,0.1852-0.82491,0.11554-1.4942-0.0697-0.66927-0.14344-0.8706-0.37862-1.0332-0.24083-0.16655-0.35303-0.15083-0.63939,0.0896-0.29798,0.25016-0.3782,0.37726-0.56498,0.89524-0.17777,0.49298-0.20702,0.76995-0.15948,1.5104,0.0385,0.59885,0.12324,0.98173,0.24974,1.1278zm-85.404-14.15c0.33572-1.2185,1.2186-3.7951,1.3389-3.9073,0.0593-0.0553-0.0647,0.43124-0.27559,1.0812-0.21085,0.64993-0.70801,2.2142-1.1048,3.4763-0.39679,1.262-0.74061,2.3124-0.76403,2.3343-0.0234,0.0219,0.0994-0.46361,0.27304-1.0788,0.17361-0.61519,0.41324-1.4727,0.53252-1.9057z"/>
      <path id="path4296" fill="#b8b9ba" d="m185.95,258.45c1.2738,5.3563,4.0402,7.6135,10.853,8.8552,5.2918,0.96442,21.684,1.9327,41.927,2.4766,5.4731,0.14705,5.7006,0.13846,6.0271-0.2277,0.32913-0.36903,1.0012-0.55031,1.2944-0.34911,0.11552,0.0793,1.0024,0.12279,1.9709,0.0967,1.9016-0.0513,8.7984-0.11741,9.9278-0.0952,0.62819,0.0124,0.68827,0.049,0.65646,0.40056-0.0345,0.38165,0.0506,0.38375,6.244,0.15464,3.4534-0.12775,6.6757-0.29787,7.1605-0.37802,0.86754-0.14343,2.5024-0.81439,2.9094-1.194,0.17948-0.16741,0.18664-0.20275,0.0525-0.25895-0.18081-0.0757-0.0923-0.29468,0.31129-0.76972,0.21561-0.25381,0.49671-0.39336,1.3602-0.67526,1.3863-0.45259,1.7624-0.72713,2.8582-2.0863,0.53434-0.66273,1.0064-1.344,1.3759-1.9858,0.8923-1.5498,2.1584-4.7331,2.6744-6.724,0.2286-0.8821,0.23573-0.89834-0.6831,1.5557-0.76055,2.0313-1.7422,4.0488-2.4874,5.1118-0.78245,1.1163-2.0335,2.26-2.9401,2.6878-0.76758,0.36218-2.3294,0.71688-2.9948,0.68013-0.2551-0.0141-2.5562-0.0564-5.1135-0.0941-11.348-0.16723-23.919-0.62564-44.26-1.6141-19.404-0.94287-27.518-2.0447-29.703-4.0335-1.1484-1.0451-2.3616-3.1836-3.0376-5.3544-0.46561-1.4952-0.98908-6.5163-0.8992-8.625,0.18256-4.2838,0.96204-9.4138,2.1899-14.413,1.1732-4.776,5.2425-19.95,7.5371-28.104,4.7328-16.819,9.7352-32.472,12.161-38.052,2.3921-5.5031,5.1597-9.5176,7.996-11.599,1.0108-0.74161,2.6151-1.5176,3.6821-1.7809,1.6848-0.41583,3.8098-0.2053,5.8291,0.57749,1.3591,0.5269,31.172,12.998,36.675,15.342,4.6597,1.9845,4.5734,1.9457,14.509,6.5105,3.8436,1.766,7.0456,3.2054,7.1155,3.1986,0.0699-0.007,0.0103-0.0707-0.1325-0.14224-1.6486-0.82555-13.871-6.4708-17.665-8.159-6.9437-3.0898-39.708-17.091-41.264-17.634-2.3812-0.83017-5.4204-0.70302-7.3979,0.3095-0.66942,0.34276-2.1032,1.3745-2.7416,1.9728-2.887,2.7058-5.9985,8.1659-8.365,14.679-3.6542,10.057-10.568,32.642-15.505,50.65-1.3699,4.997-3.4891,13-4.0012,15.11l-0.45028,1.8555-0.686,0.70949c-0.3773,0.39021-0.75856,0.7937-0.84723,0.89663-0.21781,0.25282-0.2009,0.0862,0.21638-2.1323,0.51717-2.7495,1.0505-5.006,2.2865-9.6746,6.1084-23.072,11.63-41.821,15.816-53.703,1.5499-4.3997,2.6829-6.8765,4.4893-9.8139,1.95-3.171,4.7311-6.8404,6.2943-8.3048,0.22244-0.20856,0.4665-0.47723,0.54233-0.59738,0.21639-0.34288-0.80311,0.39831-1.9973,1.4521-1.819,1.6051-3.7283,3.8183-5.5834,6.4719-0.99208,1.4191-1.1981,1.7728-2.2041,3.7828-2.1315,4.2591-4.2267,9.925-7.4504,20.148-2.1948,6.96-3.3515,10.919-3.3092,11.325l0.0402,0.38655-0.49244,0.3948c-0.58838,0.47173-1.4266,1.5196-1.8239,2.28-0.3087,0.59094-3.3044,10.457-3.2714,10.774,0.0154,0.1479,0.15295,0.15591,0.44469,0.0259,0.23233-0.10354,0.51738-0.22961,0.63345-0.28015,0.11608-0.0505,0.21536-0.0506,0.22062-0.0001,0.005,0.0505-0.89738,3.3096-2.0058,7.2423-2.5131,8.9164-2.7402,9.743-3.6957,13.45-2.5412,9.8592-3.6389,16.45-3.69,22.157-0.0147,1.6457,0.19127,4.1913,0.41549,5.1342zm7.8931,3.358c0.23038-0.32097,0.29872-0.37967,0.39097-0.33582,0.0615,0.0292,0.35852,0.18759,0.66009,0.35191,0.80675,0.43958,2.3582,0.83124,4.8333,1.2201,5.4878,0.86224,9.0458,1.1129,26.707,1.8814,4.4608,0.19412,10.83,0.47343,14.154,0.6207,6.6981,0.29677,10.097,0.41935,12.46,0.44935,1.4465,0.0184,4.1455,0.14226,4.8973,0.22481,0.98826,0.10852-2.8531,0.10817-6.8534-0.00062-2.5556-0.0695-5.5202-0.14883-6.5879-0.17629-1.0678-0.0275-2.9219-0.0923-4.1204-0.1441-4.6995-0.2031-11.504-0.45388-16.504-0.60826-16.412-0.5067-23.984-1.1033-28.062-2.2109-1.0419-0.28299-2.2189-0.71093-2.2402-0.81454-0.008-0.0378,0.11148-0.24387,0.26503-0.45781zm44.766-3.2373c20.895,1.4758,38.151,2.6762,38.346,2.6675,0.25815-0.0115,0.38497-0.0757,0.46471-0.23509,0.12635-0.25258,4.8836-25.268,5.0108-26.348,0.0464-0.39419,2.242-12.127,4.8792-26.073s4.7627-25.414,4.7233-25.486c-0.13151-0.2377-63.883-26.733-64.021-26.607-0.2147,0.19442-0.66879,1.7907-4.919,17.292-2.1977,8.0154-4.0515,14.697-4.1194,14.848-0.21658,0.48163-18.338,66.591-18.347,66.932-0.008,0.29807,3.3499,0.56417,37.982,3.0103zm-35.55-44.78c0.33453,0.59456,0.81754,0.87461,1.3984,0.81076,0.64262-0.0706,0.99656-0.36623,1.3702-1.1444,0.145-0.30196,1.7981-5.8276,3.6736-12.279l3.41-11.73-0.0718-0.74754c-0.0651-0.67802-0.10669-0.75754-0.44686-0.85505-0.20627-0.0591-0.6754-0.0382-1.0425,0.0466-1.1389,0.26303-2.0127,1.1693-2.6213,2.7187-0.49686,1.2651-5.87,19.454-6.021,20.382-0.11237,0.69054,0.0951,2.343,0.35128,2.7984zm0.37195-3.3027c0.11716-0.66246,2.225-7.9778,4.5366-15.744,1.5099-5.073,1.7514-5.619,2.6695-6.0366,0.47746-0.21714,1.3738-0.30465,1.5997-0.1562,0.23329,0.15334,0.30606,0.82744,0.16138,1.4951-0.22619,1.0439-6.5372,22.681-6.7375,23.099-0.11387,0.23781-0.28723,0.50718-0.38524,0.59861-0.20203,0.18844-0.95562,0.22891-1.2096,0.0649-0.50447-0.3257-0.84731-2.1191-0.6348-3.3206zm86.122-1.8015c0.24571,0.46905,0.70933,0.21719,0.99511-0.54058,0.22078-0.58543,0.11342-1.6168-0.17936-1.7232-0.43671-0.15866-0.90566,0.62276-0.92621,1.5434-0.006,0.26878,0.0437,0.59296,0.11046,0.7204zm0.66549-4.0235c0.2457,0.46905,0.70933,0.21718,0.9951-0.54059,0.22078-0.58543,0.11343-1.6168-0.17936-1.7232-0.43671-0.15867-0.90565,0.62275-0.92621,1.5434-0.006,0.26878,0.0437,0.59295,0.11047,0.7204zm-0.78998-26.824c0.1828,0.0277,0.18471,0.0246,0.0479-0.0776-0.0783-0.0585-0.1654-0.085-0.19348-0.0588-0.084,0.0784-0.0545,0.10602,0.14555,0.13633zm1.9869,19.195c0.0314,0.0292,0.13044,0.18816,0.22006,0.35328,0.0997,0.18366,0.27417,0.26302,0.44943,0.20443,0.26351-0.0881,0.30685-0.12853,0.54041-0.50407,0.3008-0.48367,0.50961-1.5158,0.44067-2.1781-0.0681-0.6545-0.43691-1.1566-0.76817-1.0458-0.3817,0.12763-0.64582,0.53575-0.83258,1.2865-0.14002,0.56285-0.17195,1.7704-0.0498,1.8838z"/>
      <path id="path4294" fill="#858585" d="m186.15,258.17c0.0733,0.15893,0.052-0.4423-0.0545-1.5442-0.32334-3.3441-0.1907-6.7356,0.43606-11.15,0.66032-4.6506,1.7681-9.6269,4.2991-19.312,0.45342-1.7351,0.80664-3.1539,0.78493-3.1528-0.0615,0.003-1.1454,3.9116-2.116,7.6308-2.3766,9.1065-3.5412,15.636-3.7651,21.111-0.0744,1.8192,0.19193,5.9328,0.41554,6.4178zm2.9237-2.1956c0.41914,1.6151,1.4204,3.7119,1.8266,3.8255,0.12059,0.0337,0.36456,0.26073,0.54216,0.50445,0.4083,0.56033,1.2988,1.5021,1.6354,1.7295,0.14145,0.0956,0.33202,0.10392,0.42352,0.0186,0.265-0.2472,0.67669-0.95795,0.65813-1.1362-0.009-0.0897-0.27062-0.49837-0.58064-0.90825-0.70715-0.93495-1.3806-2.114-1.6029-2.8064-0.0939-0.29253-0.3297-1.0057-0.52393-1.5848-0.76958-2.2944-1.0535-4.9758-0.95595-9.0283,0.076-3.1589,0.34434-5.5239,0.9735-8.5811,0.17367-0.84394,0.24007-1.3731,0.17189-1.37-0.1688,0.008-1.3756,1.2532-1.6646,1.7179-0.21809,0.35067-0.2956,0.70639-0.53638,2.4617-0.1548,1.1285-0.33684,2.6298-0.40453,3.3363-0.0677,0.70646-0.1827,1.446-0.25559,1.6433-0.40848,1.106-0.20205,8.2691,0.29332,10.178zm5.1579-45.397c0.59607-0.19957,1.0686-0.62263,1.2117-1.0848,0.0573-0.18503,0.23496-0.6068,0.39481-0.93728,0.34285-0.70874,3.0986-9.8386,3.1538-10.449,0.0544-0.60058-0.17856-0.56734-0.76421,0.10905-0.54365,0.62789-1.1528,1.5038-1.3769,1.98-0.21796,0.46311-3.1289,10.186-3.1099,10.387,0.008,0.0848,0.22876,0.0819,0.49062-0.006zm44.707,47.926c22.158,1.5793,38.267,2.6507,38.36,2.5511,0.11161-0.1203,0.89816-4.0761,2.6271-13.213,1.3573-7.1725,2.4582-13.148,2.4464-13.279-0.0117-0.13102,2.1486-11.715,4.8008-25.742s4.7953-25.552,4.7625-25.611c-0.0872-0.1571-63.843-26.689-63.933-26.605-0.11979,0.11174-0.65136,2.0102-4.8642,17.372-2.1811,7.9532-4.0294,14.588-4.1075,14.744-0.21677,0.43336-18.347,66.589-18.318,66.84,0.0178,0.15387,11.496,1.0374,38.226,2.9426zm-36.024-45.468c0.3269,1.1085,0.81811,1.5634,1.5845,1.4676,0.68287-0.0854,1.0754-0.48824,1.4616-1.5002,0.25482-0.66759,0.15946-0.64271-0.19368,0.0505-0.18143,0.35617-0.40371,0.71645-0.49396,0.80063-0.29248,0.27283-1.1706,0.19557-1.465-0.12891-0.39356-0.43371-0.64969-1.9678-0.49827-2.9843,0.0981-0.65841,2.2244-8.058,4.8358-16.828,1.1889-3.9929,1.5513-4.7821,2.4106-5.2488,0.46791-0.25415,1.5363-0.38094,1.7923-0.2127,0.23689,0.15569,0.31388,0.92671,0.16266,1.6289-0.0657,0.30491-0.0777,0.4891-0.0268,0.40934,0.20498-0.32128,0.35964-1.4865,0.25889-1.9506-0.13312-0.61329-0.56871-0.76542-1.4913-0.52084-1.0433,0.2766-1.6801,0.91369-2.3586,2.3598-0.35866,0.76438-5.7301,18.825-5.9968,20.163-0.18141,0.91032-0.17465,1.841,0.0181,2.4946zm2.0658-33.441c0.33597,0.16906,1.2311-1.2394,1.1097-1.746-0.0948-0.39564-0.47658-0.05-0.91674,0.82991-0.37444,0.74853-0.38896,0.8175-0.19294,0.91614zm43.606,89.505c1.2895-0.0332,2.0669-0.0884,1.7276-0.12278-0.93895-0.0951-3.9612-0.0339-4.0201,0.0814-0.0286,0.0559,1.0031,0.0745,2.2926,0.0414zm41.123-60.424c0.13469,0.16477,0.23282,0.155,0.44667-0.0445,0.2221-0.20717,0.29418-0.35504,0.38021-0.78,0.11104-0.54848-0.003-1.1778-0.23971-1.3225-0.17549-0.10731-0.53189,0.22911-0.6575,0.62064-0.1559,0.48596-0.11861,1.2952,0.0703,1.5264zm0.66549-4.0235c0.13469,0.16476,0.23282,0.15499,0.44666-0.0445,0.22211-0.20718,0.29418-0.35504,0.38021-0.78,0.11105-0.54849-0.003-1.1778-0.2397-1.3226-0.1755-0.10731-0.53189,0.22911-0.6575,0.62064-0.1559,0.48597-0.11862,1.2952,0.0703,1.5264zm1.339-7.3723c0.38696,0.46934,0.80362,0.17522,1.1183-0.78941,0.24885-0.76285,0.0701-2.2983-0.28816-2.4748-0.59403-0.29265-1.1677,0.87186-1.1061,2.2455,0.0229,0.51111,0.10385,0.80993,0.27599,1.0187z"/>
      <path id="path4292" fill="#6e6e6e" d="m189.1,255.58c0.49333,1.9768,1.5163,4.0942,1.9484,4.0331,0.14933-0.0211,0.44757,0.17918,0.66277,0.44512,0.60663,0.74968,1.1747,1.1883,1.3397,1.0344,0.0825-0.077,0.15595-0.083,0.16319-0.0134,0.0211,0.20236,0.59923,0.28591,0.66754,0.0965,0.0335-0.093-0.19089-0.52068-0.49875-0.95032-0.84107-1.1738-1.3225-2.0652-1.5112-2.7981-0.0933-0.36246-0.34674-1.1637-0.56318-1.7806-0.34845-0.99312-0.42822-1.4547-0.69628-4.0292-0.22924-2.2017-0.28813-3.2482-0.24259-4.3103,0.0331-0.77146,0.0374-1.6216,0.01-1.8892-0.1056-1.0145,0.29577-4.567,0.79191-7.0093,0.15253-0.75087,0.2523-1.3641,0.2217-1.3626-0.0306,0.001-0.0793,0.13589-0.10817,0.29883-0.11003,0.62036-0.69929,3.3694-0.87107,4.0638-0.16503,0.66703-0.20848,0.75273-0.5372,1.0594-0.19671,0.18349-0.37963,0.39453-0.40647,0.46897-0.0268,0.0745-0.10874,0.6347-0.18199,1.245-0.0872,0.72615-0.2013,1.2334-0.33028,1.4677-0.22799,0.4142-0.28103,1.0326-0.29877,3.4834-0.0118,1.6278,0.27146,5.7672,0.44115,6.4471zm5.1615-45.142c0.22342-0.0476,0.4652-0.14151,0.53728-0.20875,0.0721-0.0672,0.38839-0.6472,0.7029-1.2888,0.51019-1.0408,0.7214-1.667,1.9592-5.8089,1.2709-4.2526,1.4343-4.8854,1.3564-5.2508-0.0353-0.16543-0.74254,0.60745-1.3886,1.5174l-0.48508,0.68324-1.5472,5.1921c-0.85099,2.8556-1.5459,5.2054-1.5442,5.2216,0.002,0.0162,0.18588-0.009,0.4093-0.057zm44.642,47.972c21.004,1.4914,38.256,2.6634,38.339,2.6043,0.1011-0.0721,0.22691-0.50364,0.38326-1.3145,1.9083-9.8971,4.6953-24.903,4.666-25.124-0.0218-0.16454-0.70555-0.77297-1.6043-1.4277-21.616-15.745-61.31-44.53-61.401-44.526-0.0838,0.004-0.16703,0.0961-0.26208,0.29048-0.15159,0.31006-18.246,66.166-18.285,66.551-0.018,0.17649,9.4952,0.91102,38.164,2.9468zm-35.856-45.295c0.4188,1.2535,1.4432,1.6845,2.2388,0.94214,0.26371-0.24606,0.24413-0.25046-0.19263-0.0433-0.94501,0.44825-1.547,0.008-1.8185-1.3305-0.2604-1.2836-0.15676-1.8424,1.2265-6.6122,2.6971-9.3002,4.5774-15.486,4.9065-16.142,0.2429-0.48404,0.42375-0.74087,0.70917-1.0071,0.50734-0.47324,0.76391-0.58041,1.5133-0.63213,0.34539-0.0238,0.62443-0.0774,0.6201-0.1191-0.0208-0.19965-0.32237-0.21491-0.97885-0.0495-0.59961,0.15105-0.79765,0.25517-1.201,0.63138-0.4037,0.37658-0.55169,0.58006-0.90177,1.2399-0.35089,0.66141-0.66433,1.6134-1.9329,5.8703-2.4477,8.214-4.1441,14.033-4.2728,14.656-0.15822,0.76629-0.11863,1.9898,0.084,2.5964zm2.1102-33.674c0.17235-0.008,0.47617-0.38655,0.66766-0.83208,0.43002-1.0005,0.022-1.0488-0.48635-0.0576-0.28164,0.54923-0.35263,0.89754-0.18131,0.88967zm84.698,29.18c0.10335,0.0937,0.24223,0.11964,0.30862,0.0577,0.17421-0.1625,0.37506-1.0233,0.33302-1.4272-0.0421-0.4042-0.37072-0.77071-0.54518-0.60797-0.18019,0.16808-0.37531,1.0305-0.32683,1.4446,0.0233,0.19941,0.12702,0.4392,0.23037,0.53287zm0.66548-4.0235c0.10335,0.0937,0.24223,0.11963,0.30863,0.0577,0.1742-0.16249,0.37506-1.0233,0.33302-1.4272-0.0421-0.4042-0.37073-0.7707-0.54518-0.60797-0.1802,0.16809-0.37531,1.0305-0.32683,1.4446,0.0233,0.19942,0.12701,0.43921,0.23036,0.53288zm1.2539-7.3751c0.33211,0.47714,0.82748,0.0176,1.0398-0.96461,0.14268-0.66017-0.0476-1.9518-0.31602-2.1447-0.27925-0.20079-0.63865,0.1202-0.8358,0.74645-0.19732,0.62682-0.13159,2.0128,0.11206,2.3629z"/>
      <path id="path4290" fill="#0e0e0e" d="m189.26,255.48c0.27758,1.1171,0.67426,2.1616,1.177,3.0992,0.25025,0.46668,0.48496,0.86144,0.52159,0.87723,0.094,0.0405,0.46458-0.70197,0.6715-1.3456,0.17407-0.5414,0.17305-0.54811-0.28788-1.8906-0.91696-2.6707-1.1899-4.9947-1.0913-9.2911,0.0372-1.6204,0.0334-1.6526-0.19612-1.6615-0.29959-0.0115-0.84955,0.23767-1.0199,0.46221-0.3975,0.52388-0.22643,7.9328,0.22513,9.7501zm49.456,2.7814c20.832,1.4764,38.01,2.6972,38.175,2.7128,0.17528,0.0166,0.33605-0.0452,0.38784-0.14911,0.0487-0.0977,1.1925-6.0183,2.5418-13.157l2.4533-12.979-31.517-22.906c-17.334-12.598-31.566-22.876-31.625-22.839-0.10245,0.0636-18.338,66.347-18.306,66.541,0.008,0.0508,17.059,1.3004,37.891,2.7768z"/>
     </g>
     <path id="rect3877-4-9" fill="#000" d="m227.8,156.34,64.36,26.714-14.736,77.802-76.675-5.4205z"/>
     <g id="text3834-2-2" style="letter-spacing:0px;word-spacing:0px;" font-weight="normal" transform="matrix(0.41919862,0.07223422,-0.16754678,0.8499676,203.88333,16.775103)" font-size="78.20800018px" font-stretch="normal" line-height="125%" font-variant="normal" font-family="HGSKyokashotai" font-style="normal" fill="#f9f9f9">
      <g id="text3010-3-7" transform="matrix(-1,0,0,-1,389.37712,428.87594)" font-size="59.28982544px" font-family="&apos;Rounded-L M+ 1c light&apos;" line-height="125%">
       <path id="path3978" d="m129.19,197.41c-0.00002,0.0399-0.0193,0.0597-0.0579,0.0597l-11.207,9.1301c-0.27624,0.19786-0.56273,0.21776-0.85946,0.0597-0.29675-0.15798-0.44512-0.39562-0.44511-0.71289-0.00001-1.1857,0.43485-2.1145,1.3046-2.7864l10.198-8.2399c0.83109-0.63324,1.7008-0.94988,2.6091-0.94992,0.39563,0.00004,0.74152,0.13846,1.0377,0.41525,0.29611,0.27688,0.44418,0.63303,0.4442,1.0684v40.317c-0.00002,0.43425-0.14809,0.7898-0.4442,1.0666-0.29616,0.27684-0.64175,0.41525-1.0368,0.41525-0.39507,0-0.74097-0.13841-1.0377-0.41525-0.29675-0.27683-0.44512-0.63238-0.4451-1.0666v-38.301c-0.00002-0.0398-0.0199-0.0597-0.0597-0.0597z"/>
       <path id="path3980" d="m176.58,215.61c-0.00003-13.123-4.091-19.684-12.273-19.684-8.182,0.00004-12.273,6.5615-12.273,19.684,0,13.123,4.091,19.684,12.273,19.684s12.273-6.5614,12.273-19.684zm2.9656,0c-0.00003,14.822-5.0793,22.234-15.238,22.234-10.158,0-15.238-7.4112-15.238-22.234,0-14.822,5.0792-22.234,15.238-22.234,10.158,0.00005,15.238,7.4113,15.238,22.234z"/>
       <path id="path3982" d="m193.86,203.45,0,3.9716c-0.00002,0.47408-0.15804,0.86913-0.47406,1.1852-0.31605,0.31606-0.7114,0.47408-1.186,0.47405-0.47467,0.00003-0.87002-0.15799-1.186-0.47405-0.31605-0.31602-0.47407-0.71107-0.47406-1.1852v-3.9716c-0.00001-0.47524,0.15801-0.87089,0.47406-1.187,0.31603-0.31601,0.71138-0.47402,1.186-0.47405,0.47465,0.00003,0.87,0.15804,1.186,0.47405,0.31602,0.31607,0.47404,0.71172,0.47406,1.187zm0,23.122,0,3.9716c-0.00002,0.47527-0.15804,0.87092-0.47406,1.187-0.31605,0.31604-0.7114,0.47405-1.186,0.47405-0.47467,0-0.87002-0.15801-1.186-0.47405-0.31605-0.31604-0.47407-0.71169-0.47406-1.187v-3.9716c-0.00001-0.47405,0.15801-0.8691,0.47406-1.1852,0.31603-0.31603,0.71138-0.47405,1.186-0.47405,0.47465,0,0.87,0.15802,1.186,0.47405,0.31602,0.31605,0.47404,0.7111,0.47406,1.1852z"/>
       <path id="path3984" d="m229.25,196.55c2.2533,2.1146,3.3799,5.069,3.3799,8.8632-0.00003,3.7943-1.5513,7.816-4.6537,12.065-3.1025,4.249-8.7249,9.9314-16.867,17.047-0.0398,0.0386-0.0597,0.0778-0.0597,0.11761-0.00001,0.0398,0.0199,0.0597,0.0597,0.0597h20.573c0.35582,0.00001,0.6622,0.11852,0.91917,0.35555,0.2569,0.23703,0.38536,0.53347,0.3854,0.88931-0.00004,0.35584-0.1285,0.66223-0.3854,0.91916-0.25697,0.25694-0.56335,0.3854-0.91917,0.3854h-23.538c-0.35585,0-0.65229-0.12846-0.88931-0.3854-0.23703-0.25693-0.35555-0.56332-0.35554-0.91916-0.00001-0.8299,0.31603-1.5217,0.94811-2.0754,8.4196-7.2725,14.151-12.935,17.195-16.986,3.0434-4.0518,4.565-7.7966,4.5651-11.234-0.00003-3.0832-0.86943-5.4649-2.6082-7.1452s-4.2288-2.5204-7.47-2.5205c-3.5187,0.00004-6.9975,0.90956-10.437,2.7286-0.31605,0.15806-0.61248,0.1481-0.88931-0.0299-0.27684-0.17788-0.41526-0.42486-0.41526-0.74094,0-0.98788,0.45476-1.7195,1.3643-2.1948,3.3992-1.5802,6.9564-2.3702,10.672-2.3703,4.0325,0.00005,7.1748,1.0573,9.4269,3.1718z"/>
       <path id="path3986" d="m269.48,223.32c-0.00003,4.7032-1.2946,8.2999-3.8838,10.79-2.5892,2.4903-6.3543,3.7355-11.295,3.7355-3.1628,0-6.2062-0.61278-9.1301-1.8383-0.90953-0.39565-1.3643-1.0874-1.3643-2.0754,0-0.31604,0.13841-0.57297,0.41525-0.7708,0.27683-0.19782,0.55337-0.21772,0.82961-0.0597,3.1628,1.4632,6.246,2.1948,9.2496,2.1948,3.9915,0,7.0249-1.0081,9.1003-3.0244,2.0753-2.0162,3.113-5.0002,3.113-8.9519-0.00002-3.4004-0.93879-5.9899-2.8163-7.7686-1.8776-1.7786-4.6148-2.6679-8.2119-2.6679-2.7672,0.00002-5.2177,0.67191-7.3515,2.0156-0.90952,0.55369-1.7394,0.83053-2.4897,0.83051-0.35585,0.00002-0.66224-0.1384-0.91916-0.41526-0.25694-0.27681-0.3655-0.59255-0.32569-0.94721l1.1851-18.736c0.0398-0.47401,0.23763-0.86936,0.59348-1.186,0.35584-0.3166,0.77079-0.47492,1.2449-0.47496h19.031c0.35582,0.00004,0.65226,0.12851,0.88932,0.3854,0.237,0.25697,0.35551,0.56336,0.35554,0.91916-0.00003,0.35589-0.11854,0.65233-0.35554,0.88931-0.23706,0.23707-0.5335,0.35559-0.88932,0.35555h-17.786c-0.15803,0.00004-0.23704,0.099-0.23703,0.29674l-1.1272,15.89c-0.00001,0.0398,0.0199,0.0597,0.0597,0.0597,0.0398,0.00002,0.0597-0.01,0.0597-0.0299-0.00001-0.0199,0.0199-0.0298,0.0597-0.0299,2.4101-1.5416,5.1965-2.3124,8.3593-2.3124,4.3473,0.00003,7.707,1.1267,10.079,3.3799,2.3721,2.2533,3.5581,5.4354,3.5582,9.5463z"/>
      </g>
     </g>
    </g>
    <g id="g4081" transform="matrix(0.61279385,0.48578949,1.0338451,-0.28682827,19.28574,144.34687)">
     <path id="rect3877-4-9-1" opacity="0.61764706" d="m106.23,138.32,68.215,22.143-18.483,63.253-73-20.972z" fill="#000"/>
     <g id="text3834-2-2-1" style="letter-spacing:0px;word-spacing:0px;" font-weight="normal" transform="matrix(0.36106296,0.15581589,-0.2365284,0.91826912,110.90241,-43.443733)" font-stretch="normal" line-height="125%" font-size="78.20800018px" font-variant="normal" font-family="HGSKyokashotai" font-style="normal" fill="#f9f9f9">
      <g id="text3010-3-7-3" transform="matrix(-1,0,0,-1,389.37712,428.87594)" font-size="59.28982544px" font-family="&apos;Rounded-L M+ 1c light&apos;" line-height="125%">
       <path id="path3978-8" d="m129.19,197.41c-0.00002,0.0399-0.0193,0.0597-0.0579,0.0597l-11.207,9.1301c-0.27624,0.19786-0.56273,0.21776-0.85946,0.0597-0.29675-0.15798-0.44512-0.39562-0.44511-0.71289-0.00001-1.1857,0.43485-2.1145,1.3046-2.7864l10.198-8.2399c0.83109-0.63324,1.7008-0.94988,2.6091-0.94992,0.39563,0.00004,0.74152,0.13846,1.0377,0.41525,0.29611,0.27688,0.44418,0.63303,0.4442,1.0684v40.317c-0.00002,0.43425-0.14809,0.7898-0.4442,1.0666-0.29616,0.27684-0.64175,0.41525-1.0368,0.41525-0.39507,0-0.74097-0.13841-1.0377-0.41525-0.29675-0.27683-0.44512-0.63238-0.4451-1.0666v-38.301c-0.00002-0.0398-0.0199-0.0597-0.0597-0.0597z"/>
       <path id="path3980-7" d="m176.58,215.61c-0.00003-13.123-4.091-19.684-12.273-19.684-8.182,0.00004-12.273,6.5615-12.273,19.684,0,13.123,4.091,19.684,12.273,19.684s12.273-6.5614,12.273-19.684zm2.9656,0c-0.00003,14.822-5.0793,22.234-15.238,22.234-10.158,0-15.238-7.4112-15.238-22.234,0-14.822,5.0792-22.234,15.238-22.234,10.158,0.00005,15.238,7.4113,15.238,22.234z"/>
       <path id="path3982-4" d="m193.86,203.45,0,3.9716c-0.00002,0.47408-0.15804,0.86913-0.47406,1.1852-0.31605,0.31606-0.7114,0.47408-1.186,0.47405-0.47467,0.00003-0.87002-0.15799-1.186-0.47405-0.31605-0.31602-0.47407-0.71107-0.47406-1.1852v-3.9716c-0.00001-0.47524,0.15801-0.87089,0.47406-1.187,0.31603-0.31601,0.71138-0.47402,1.186-0.47405,0.47465,0.00003,0.87,0.15804,1.186,0.47405,0.31602,0.31607,0.47404,0.71172,0.47406,1.187zm0,23.122,0,3.9716c-0.00002,0.47527-0.15804,0.87092-0.47406,1.187-0.31605,0.31604-0.7114,0.47405-1.186,0.47405-0.47467,0-0.87002-0.15801-1.186-0.47405-0.31605-0.31604-0.47407-0.71169-0.47406-1.187v-3.9716c-0.00001-0.47405,0.15801-0.8691,0.47406-1.1852,0.31603-0.31603,0.71138-0.47405,1.186-0.47405,0.47465,0,0.87,0.15802,1.186,0.47405,0.31602,0.31605,0.47404,0.7111,0.47406,1.1852z"/>
       <path id="path3984-2" d="m229.25,196.55c2.2533,2.1146,3.3799,5.069,3.3799,8.8632-0.00003,3.7943-1.5513,7.816-4.6537,12.065-3.1025,4.249-8.7249,9.9314-16.867,17.047-0.0398,0.0386-0.0597,0.0778-0.0597,0.11761-0.00001,0.0398,0.0199,0.0597,0.0597,0.0597h20.573c0.35582,0.00001,0.6622,0.11852,0.91917,0.35555,0.2569,0.23703,0.38536,0.53347,0.3854,0.88931-0.00004,0.35584-0.1285,0.66223-0.3854,0.91916-0.25697,0.25694-0.56335,0.3854-0.91917,0.3854h-23.538c-0.35585,0-0.65229-0.12846-0.88931-0.3854-0.23703-0.25693-0.35555-0.56332-0.35554-0.91916-0.00001-0.8299,0.31603-1.5217,0.94811-2.0754,8.4196-7.2725,14.151-12.935,17.195-16.986,3.0434-4.0518,4.565-7.7966,4.5651-11.234-0.00003-3.0832-0.86943-5.4649-2.6082-7.1452s-4.2288-2.5204-7.47-2.5205c-3.5187,0.00004-6.9975,0.90956-10.437,2.7286-0.31605,0.15806-0.61248,0.1481-0.88931-0.0299-0.27684-0.17788-0.41526-0.42486-0.41526-0.74094,0-0.98788,0.45476-1.7195,1.3643-2.1948,3.3992-1.5802,6.9564-2.3702,10.672-2.3703,4.0325,0.00005,7.1748,1.0573,9.4269,3.1718z"/>
       <path id="path3986-7" d="m269.48,223.32c-0.00003,4.7032-1.2946,8.2999-3.8838,10.79-2.5892,2.4903-6.3543,3.7355-11.295,3.7355-3.1628,0-6.2062-0.61278-9.1301-1.8383-0.90953-0.39565-1.3643-1.0874-1.3643-2.0754,0-0.31604,0.13841-0.57297,0.41525-0.7708,0.27683-0.19782,0.55337-0.21772,0.82961-0.0597,3.1628,1.4632,6.246,2.1948,9.2496,2.1948,3.9915,0,7.0249-1.0081,9.1003-3.0244,2.0753-2.0162,3.113-5.0002,3.113-8.9519-0.00002-3.4004-0.93879-5.9899-2.8163-7.7686-1.8776-1.7786-4.6148-2.6679-8.2119-2.6679-2.7672,0.00002-5.2177,0.67191-7.3515,2.0156-0.90952,0.55369-1.7394,0.83053-2.4897,0.83051-0.35585,0.00002-0.66224-0.1384-0.91916-0.41526-0.25694-0.27681-0.3655-0.59255-0.32569-0.94721l1.1851-18.736c0.0398-0.47401,0.23763-0.86936,0.59348-1.186,0.35584-0.3166,0.77079-0.47492,1.2449-0.47496h19.031c0.35582,0.00004,0.65226,0.12851,0.88932,0.3854,0.237,0.25697,0.35551,0.56336,0.35554,0.91916-0.00003,0.35589-0.11854,0.65233-0.35554,0.88931-0.23706,0.23707-0.5335,0.35559-0.88932,0.35555h-17.786c-0.15803,0.00004-0.23704,0.099-0.23703,0.29674l-1.1272,15.89c-0.00001,0.0398,0.0199,0.0597,0.0597,0.0597,0.0398,0.00002,0.0597-0.01,0.0597-0.0299-0.00001-0.0199,0.0199-0.0298,0.0597-0.0299,2.4101-1.5416,5.1965-2.3124,8.3593-2.3124,4.3473,0.00003,7.707,1.1267,10.079,3.3799,2.3721,2.2533,3.5581,5.4354,3.5582,9.5463z"/>
      </g>
     </g>
    </g>
   </g>
  </g>
 </g>
</svg>
