<?xml version="1.0" encoding="UTF-8" standalone="no"?>
<!-- Created with Inkscape (http://www.inkscape.org/) -->
<svg id="svg2" xmlns:rdf="http://www.w3.org/1999/02/22-rdf-syntax-ns#" xmlns="http://www.w3.org/2000/svg" height="100%" viewBox="0 0 679.10268 171.19074" width="100%" version="1.1" xmlns:cc="http://creativecommons.org/ns#" xmlns:dc="http://purl.org/dc/elements/1.1/">
 <metadata id="metadata4">
  <rdf:RDF>
   <cc:Work rdf:about="">
    <dc:format>image/svg+xml</dc:format>
    <dc:type rdf:resource="http://purl.org/dc/dcmitype/StillImage"/>
    <dc:title/>
   </cc:Work>
  </rdf:RDF>
 </metadata>
 <g id="g3074" transform="translate(-5.1575088e-4,1.666691e-4)">
  <g id="g8" transform="matrix(2.343588,0,0,2.343588,-94.560354,-120.70156)">
   <g id="g10" style="letter-spacing:0px;word-spacing:0px;" line-height="125%" font-family="HGSKyokashotai" font-size="53.61953735px" font-style="normal" font-stretch="normal" font-variant="normal" font-weight="normal" fill="#000000">
    <path id="path12" d="m47.708,95.417,0-26.602,8.5053,0,0-2.3525-8.5053,0,0-1.4477c-0.07038-3.0198,0.38705-5.591,1.3723-7.7136,0.98524-2.1225,2.9205-3.2309,5.8059-3.3252,0.95633,0.0076,1.7581,0.09806,2.4053,0.27144,0.64718,0.17346,1.1926,0.38459,1.6362,0.63337l0.96514-2.2922c-0.46625-0.28271-1.1172-0.53154-1.9529-0.74648-0.83572-0.21485-1.7732-0.32795-2.8125-0.33931-1.3346,0.0026-2.5863,0.22374-3.755,0.66353-1.1687,0.43988-2.2093,1.0833-3.1216,1.9303-1.2278,1.1776-2.12,2.6831-2.6768,4.5166-0.55672,1.8335-0.83068,3.9875-0.82188,6.4619v1.3874h-4.4034v2.3525h4.4034v26.602z"/>
    <path id="path14" d="m105.08,95.417,2.8954,0-2.8954-40.656-3.4986,0-10.255,24.309c-1.1436,2.6717-2.1289,5.0645-2.9557,7.1782-0.82693,2.1138-1.5106,4.0239-2.0509,5.7305h-0.12064c-0.598-1.833-1.297-3.821-2.094-5.964-0.796-2.142-1.706-4.477-2.729-7.005l-9.772-24.249h-3.378l-3.2573,40.656h2.8954l1.4477-18.579c0.26892-3.4194,0.48507-6.805,0.64845-10.157,0.16336-3.3516,0.28903-6.2394,0.37701-8.6636h0.12064c0.66101,2.1502,1.4653,4.4852,2.4128,7.0048,0.94753,2.5197,2.0534,5.3523,3.3177,8.4977l8.8069,21.897h2.2319l9.4101-22.198c1.2868-3.0537,2.4229-5.8134,3.4081-8.2791,0.98521-2.4656,1.88-4.7729,2.6843-6.9219h0.12064c0.0138,2.2822,0.12185,5.1072,0.32422,8.4751,0.20229,3.368,0.41593,6.6152,0.64092,9.7419z"/>
    <path id="path16" d="m141.5,80.94c0.0578-0.22996,0.093-0.47878,0.10557-0.74648,0.0125-0.26766,0.0176-0.62205,0.0151-1.0632,0.0432-1.3807-0.251-3.1099-0.88248-5.1876-0.63154-2.0777-1.8596-3.941-3.6841-5.5898-1.8246-1.6488-4.5048-2.5201-8.0406-2.6139-4.1923,0.04904-7.6306,1.4741-10.315,4.2753-2.6843,2.8012-4.0717,6.6844-4.1622,11.65,0.0566,4.2715,1.4062,7.7324,4.0491,10.383,2.6428,2.6504,6.2395,4.0151,10.79,4.0943,3.0336-0.05278,5.3962-0.32423,7.0877-0.81434s2.7873-0.8822,3.2875-1.1763l-0.78418-2.3525c-0.89228,0.44487-2.0484,0.85204-3.4685,1.2215-1.4201,0.36947-3.3604,0.56551-5.821,0.58813-3.5188,0.000002-6.4192-1.0556-8.7013-3.1669-2.2822-2.1112-3.4634-5.2781-3.5439-9.5006zm-23.887-2.3525c0.2639-2.3613,1.2592-4.651,2.9859-6.8691,1.7267-2.218,4.411-3.4069,8.0529-3.5665,2.8578,0.07301,5.004,0.75144,6.4387,2.0353,1.4346,1.2839,2.3834,2.7353,2.8463,4.3543,0.46281,1.619,0.66537,2.9677,0.60768,4.046z"/>
    <path id="path18" d="m172.87,66.463-0.18096,5.3686-0.12065,0c-0.64596-1.4678-1.8725-2.83-3.6796-4.0868-1.8071-1.2567-4.3004-1.9252-7.4798-2.0057-3.8229,0.0415-7.1556,1.4213-9.9982,4.1395s-4.3356,6.526-4.4788,11.423c0.0591,3.7814,1.3283,7.0463,3.8078,9.7947,2.4794,2.7484,5.8147,4.1886,10.006,4.3205,3.0135-0.06409,5.4766-0.705,7.3894-1.9227,1.9126-1.2177,3.29-2.6277,4.132-4.23h0.12064v4.2225c-0.0616,4.3657-1.175,7.5175-3.3403,9.4553s-5.013,2.8879-8.543,2.8502c-2.105-0.0176-3.9573-0.28402-5.5571-0.79926-1.5998-0.51525-2.9846-1.1738-4.1546-1.9755l-1.0858,2.3525c1.312,0.96262,2.8954,1.6764,4.7503,2.1414,1.8549,0.46497,3.7097,0.6962,5.5646,0.6937,1.7945,0.0213,3.6645-0.2325,5.6099-0.76156,1.9453-0.52908,3.6946-1.4615,5.2479-2.7974,1.3735-1.1775,2.4568-2.8489,3.2498-5.0142,0.79294-2.1653,1.1976-4.9979,1.214-8.4977v-17.674c-0.001-1.1737,0.0163-2.3399,0.0528-3.4986,0.0364-1.1586,0.0993-2.3249,0.1885-3.4986zm-0.48257,16.468c-0.003,0.54919-0.0578,1.0946-0.16588,1.6362-0.10811,0.54164-0.25388,1.0418-0.43733,1.5005-0.82442,2.0308-2.1465,3.6846-3.9661,4.9614-1.8197,1.2768-3.8958,1.9353-6.2282,1.9755-4.0239-0.14075-6.9847-1.4276-8.8823-3.8606-1.8976-2.4329-2.8376-5.1675-2.82-8.2037,0.0591-3.9108,1.1624-7.0073,3.3101-9.2895,2.1477-2.2821,4.9853-3.4483,8.5128-3.4986,2.6101,0.04778,4.7942,0.72137,6.5524,2.0208,1.7581,1.2994,2.9922,2.9382,3.7022,4.9162,0.14952,0.44992,0.25759,0.92243,0.32423,1.4175,0.0666,0.49516,0.0993,1.028,0.098,1.5985z"/>
    <path id="path20" d="m206.2,95.417c-0.17848-1.1737-0.30415-2.34-0.37701-3.4986-0.0729-1.1587-0.1081-2.3249-0.10556-3.4986v-10.496c0.0473-1.5937-0.16796-3.3258-0.64566-5.1966-0.47776-1.8707-1.5017-3.4867-3.0719-4.848s-3.9704-2.0747-7.2006-2.1403c-1.4113-0.01631-2.947,0.18225-4.607,0.59567-1.6601,0.41348-3.3013,1.1398-4.9237,2.1791l0.96514,2.1112c1.2215-0.83944,2.5486-1.4527,3.9812-1.8398,1.4326-0.38703,2.8803-0.57805,4.3431-0.57305,2.532,0.04732,4.3848,0.62297,5.5585,1.727,1.1736,1.104,1.9183,2.3321,2.2341,3.6841,0.31573,1.352,0.45276,2.4237,0.41108,3.2149v0.66353c-6.7283-0.04522-11.685,0.88975-14.869,2.8049-3.1845,1.9152-4.7629,4.5392-4.7352,7.8719-0.0264,1.8624,0.68992,3.6268,2.1489,5.2932s3.8191,2.5561,7.0802,2.6692c2.6654-0.07666,4.8898-0.66228,6.673-1.7569s3.0575-2.2382,3.8229-3.4308h0.12064l0.48257,4.4638zm-3.4383-9.2895c-0.00002,0.24381-0.0302,0.51023-0.0905,0.79926-0.0603,0.28905-0.15083,0.58563-0.27145,0.88974-0.55799,1.3811-1.6287,2.6906-3.2121,3.9284s-3.7701,1.8989-6.5599,1.9831c-1.7418,0.0025-3.2197-0.50016-4.4336-1.508-1.214-1.0079-1.8473-2.536-1.9001-4.5844,0.0614-2.2069,0.9171-3.8788,2.567-5.0156s3.7254-1.8882,6.2265-2.2542c2.5011-0.36601,5.0591-0.49633,7.6742-0.39097z"/>
    <path id="path22" d="m215.86,95.417,2.9557,0,0-17.674c0.005-0.46244,0.0553-0.92491,0.1508-1.3874,0.0955-0.46244,0.20609-0.86458,0.33177-1.2064,0.69996-1.8963,1.924-3.5024,3.672-4.8182,1.748-1.3157,3.8015-2.0019,6.1603-2.0585,3.2825,0.09051,5.63,1.1612,7.0425,3.2121s2.1012,4.5392,2.066,7.4647v16.468h2.9557v-16.468c-0.0901-3.9421-0.86835-6.8621-2.3346-8.76-1.4664-1.8979-3.0801-3.1289-4.8413-3.693-1.7612-0.56409-3.1293-0.81654-4.1041-0.75736-2.678,0.04904-4.9828,0.68995-6.9143,1.9227-1.9316,1.2328-3.3466,2.7635-4.2451,4.592h-0.12065l-0.24128-5.7908h-2.7748c0.0892,1.1738,0.15206,2.34,0.18851,3.4986,0.0364,1.1587,0.054,2.3249,0.0528,3.4986z"/>
    <path id="path24" d="m275.81,80.94c0.0578-0.22996,0.093-0.47878,0.10556-0.74648,0.0125-0.26766,0.0176-0.62205,0.0151-1.0632,0.0432-1.3807-0.25099-3.1099-0.88248-5.1876-0.63154-2.0777-1.8596-3.941-3.6841-5.5898-1.8246-1.6488-4.5048-2.5201-8.0406-2.6139-4.1923,0.04904-7.6306,1.4741-10.315,4.2753-2.6843,2.8012-4.0717,6.6844-4.1622,11.65,0.0566,4.2715,1.4062,7.7324,4.0491,10.383,2.6428,2.6504,6.2395,4.0151,10.79,4.0943,3.0336-0.05278,5.3962-0.32423,7.0877-0.81434s2.7873-0.8822,3.2875-1.1763l-0.78417-2.3525c-0.89228,0.44487-2.0484,0.85204-3.4685,1.2215-1.4201,0.36947-3.3604,0.56551-5.821,0.58813-3.5188,0.000002-6.4192-1.0556-8.7013-3.1669-2.2822-2.1112-3.4634-5.2781-3.5439-9.5006zm-23.887-2.3525c0.2639-2.3613,1.2592-4.651,2.9859-6.8691,1.7267-2.218,4.411-3.4069,8.0529-3.5665,2.8578,0.07301,5.004,0.75144,6.4387,2.0353,1.4346,1.2839,2.3834,2.7353,2.8463,4.3543,0.46281,1.619,0.66537,2.9677,0.60768,4.046z"/>
   </g>
   <g id="g26" transform="matrix(0.83703555,0,0,0.83703555,58.056563,11.502425)">
    <path id="path28" stroke-linejoin="round" d="m284.24,52.961,28.199,0c6.4326,0,11.611,5.1786,11.611,11.611v28.199c0,6.4326-5.1786,11.611-11.611,11.611h-28.2c-6.4326,0-11.611-5.1786-11.611-11.611v-28.197c0-6.4326,5.1786-11.611,11.611-11.611z" stroke="#000000" stroke-miterlimit="4" stroke-width="1.96543276" fill="none"/>
    <g id="g30" style="letter-spacing:0px;word-spacing:0px;" line-height="125%" font-family="HGSKyokashotai" font-size="50.6968956px" font-style="normal" font-stretch="normal" font-variant="normal" font-weight="normal" fill="#000000">
     <path id="path32" d="m286.65,95.725c1.2226,0.86738,2.7697,1.5565,4.6411,2.0675,1.8714,0.51092,3.7464,0.77232,5.6249,0.78421,4.5614-0.11288,7.886-1.2274,9.9737-3.3436,2.0876-2.1162,3.1166-4.5567,3.0869-7.3216-0.0107-3.0453-0.93038-5.4098-2.759-7.0935s-4.5021-3.0643-8.0203-4.142c-3.081-0.96836-5.3029-2.1114-6.6658-3.4291s-2.0306-2.9883-2.0033-5.0118c-0.0535-1.6219,0.59528-3.1974,1.9463-4.7266s3.725-2.349,7.122-2.4596c1.8952,0.03687,3.4945,0.27689,4.7979,0.72005,1.3034,0.44323,2.2326,0.8686,2.7875,1.2761l1.0836-2.3384c-0.75216-0.50494-1.8572-0.94933-3.3151-1.3332-1.4579-0.38375-3.2046-0.58574-5.2399-0.60598-3.5907,0.05826-6.4614,0.99693-8.612,2.816-2.1506,1.8192-3.2533,4.1694-3.3079,7.0507-0.0321,2.4845,0.80203,4.5734,2.5023,6.2665,1.7003,1.6932,4.4593,3.1404,8.277,4.3417,3.1808,0.99691,5.4312,2.197,6.7513,3.6002,1.3201,1.4033,1.9593,3.1879,1.9178,5.354-0.0274,2.4061-0.91375,4.3381-2.6592,5.796-1.7455,1.4579-4.186,2.2065-7.3216,2.2457-1.8619-0.01188-3.599-0.27328-5.2114-0.78421-1.6124-0.51092-3.0501-1.2001-4.3131-2.0675z"/>
    </g>
   </g>
  </g>
  <g id="g34" style="letter-spacing:0px;word-spacing:0px;" line-height="125%" font-family="HGSKyokashotai" transform="translate(68.124626,54.25263)" font-stretch="normal" font-size="29.07247353px" font-variant="normal" font-weight="normal" font-style="normal" fill="#000000">
   <path id="path36" d="m152.81,92.863c0.30283,0.000021,0.45425,0.18929,0.45426,0.56782-0.00001,0.30286-0.15143,0.45428-0.45426,0.45426h-7.6088c-0.22713,0.00002-0.3407,0.15144-0.34069,0.45426v7.3817h7.041c0.30283,0.00001,0.45425,0.18928,0.45426,0.56782-0.00001,0.30285-0.15143,0.45427-0.45426,0.45426h-7.041v9.0851c-0.00001,0.45426-0.18928,0.68139-0.56783,0.68139s-0.56782-0.22713-0.56782-0.68139v-17.716c0-0.83278,0.30284-1.2492,0.90852-1.2492z"/>
   <path id="path38" d="m155.76,99.79c0-0.45424,0.18927-0.68137,0.56782-0.68139,0.37855,0.000015,0.56782,0.22714,0.56783,0.68139v1.7035c0.37854-0.60567,0.71923-1.0599,1.0221-1.3628,0.68139-0.68138,1.4006-1.0221,2.1577-1.0221,0.8328,0.000015,1.5142,0.265,2.0442,0.79495,0.37854,0.37856,0.45425,0.71925,0.22712,1.0221s-0.56782,0.26499-1.0221-0.11357c-0.45427-0.37853-0.90853-0.56781-1.3628-0.56782-0.52997,0.00001-1.0599,0.265-1.5899,0.79495-0.83281,0.83282-1.3249,1.7035-1.4763,2.612v8.1766c-0.00001,0.45426-0.18928,0.68139-0.56783,0.68139s-0.56782-0.22713-0.56782-0.68139z"/>
   <path id="path40" d="m169.39,100.02c-0.83281,0.00001-1.552,0.30285-2.1577,0.90852-1.0599,1.0599-1.5899,2.6877-1.5899,4.8833s0.52997,3.8233,1.5899,4.8833c0.60567,0.60568,1.3249,0.90852,2.1577,0.90851,0.8328,0.00001,1.552-0.30283,2.1577-0.90851,1.0599-1.0599,1.5899-2.6877,1.5899-4.8833-0.00001-2.1956-0.52998-3.8233-1.5899-4.8833-0.60569-0.60567-1.3249-0.90851-2.1577-0.90852zm0-1.0221c1.2114,0.000014,2.2334,0.41642,3.0662,1.2492,1.2113,1.2114,1.817,3.0662,1.817,5.5646-0.00001,2.4984-0.60569,4.3533-1.817,5.5647-0.83281,0.8328-1.8549,1.2492-3.0662,1.2492-1.2114,0-2.2334-0.4164-3.0662-1.2492-1.2114-1.2114-1.817-3.0662-1.817-5.5647,0-2.4984,0.60567-4.3533,1.817-5.5646,0.8328-0.83279,1.8549-1.2492,3.0662-1.2492z"/>
   <path id="path42" d="m176.77,99.79c0-0.45424,0.15141-0.68137,0.45425-0.68139,0.45426,0.000015,0.68139,0.22714,0.68139,0.68139v2.1577c0.30284-0.60567,0.71924-1.1735,1.2492-1.7035,0.75709-0.75708,1.6278-1.1356,2.612-1.1356,0.98422,0.000015,1.817,0.34071,2.4984,1.0221,0.8328,0.83281,1.2492,2.1956,1.2492,4.0883v7.6088c-0.00001,0.45426-0.15143,0.68139-0.45425,0.68139-0.45427,0-0.6814-0.22713-0.68139-0.68139v-7.7224c-0.00001-1.5899-0.30285-2.6877-0.90852-3.2934-0.45426-0.45424-1.0599-0.68137-1.817-0.68138-0.7571,0.00001-1.4763,0.3407-2.1577,1.0221-1.0599,1.06-1.5899,2.1199-1.5899,3.1798v7.4952c0,0.45426-0.22713,0.68139-0.68139,0.68139-0.30284,0-0.45425-0.22713-0.45425-0.68139z"/>
   <path id="path44" d="m190.06,99.109,0-2.9527c-0.00001-0.45424,0.18927-0.68137,0.56782-0.68139,0.37854,0.000018,0.56781,0.22715,0.56782,0.68139v2.9527h1.9306c0.30283,0.000015,0.45425,0.15143,0.45426,0.45426-0.00001,0.37856-0.15143,0.56784-0.45426,0.56783h-1.9306v11.697c-0.00001,0.45426-0.18928,0.68139-0.56782,0.68139-0.37855,0-0.56783-0.22713-0.56782-0.68139v-11.697h-1.9306c-0.30284,0.00001-0.45426-0.18926-0.45426-0.56783,0-0.30282,0.15142-0.45424,0.45426-0.45426z"/>
   <path id="path46" d="m197.21,94.68c0.15142,0.15144,0.22713,0.34071,0.22713,0.56782,0,0.30286-0.0757,0.52998-0.22713,0.68139-0.15142,0.15144-0.3407,0.22714-0.56782,0.22713-0.22713,0.000017-0.41641-0.07569-0.56782-0.22713-0.15142-0.1514-0.22713-0.37853-0.22713-0.68139,0-0.22711,0.0757-0.41638,0.22713-0.56782,0.15141-0.1514,0.34069-0.22711,0.56782-0.22713,0.22712,0.000019,0.4164,0.07573,0.56782,0.22713zm-1.1356,5.1104c-0.00001-0.45424,0.18927-0.68137,0.56782-0.68139,0.37854,0.000015,0.56782,0.22714,0.56782,0.68139v12.038c0,0.45426-0.18928,0.68139-0.56782,0.68139-0.37855,0-0.56783-0.22713-0.56782-0.68139z"/>
   <path id="path48" d="m204.26,99.109c1.0599,0.000015,2.0063,0.41642,2.8391,1.2492,1.0599,1.06,1.5899,2.5363,1.5899,4.429-0.00001,0.75711-0.37856,1.1356-1.1356,1.1356h-6.7003c0,2.2713,0.45425,3.8233,1.3628,4.6561,0.60567,0.60567,1.2871,0.90851,2.0442,0.90851,0.75709,0,1.4385-0.30284,2.0442-0.90851,0.45425-0.45426,0.8328-1.1735,1.1356-2.1577,0.15141-0.30283,0.37854-0.41639,0.68139-0.34069,0.37854,0.15142,0.4921,0.45426,0.34069,0.90851-0.30285,1.0599-0.7571,1.8549-1.3628,2.3849-0.7571,0.75709-1.7035,1.1356-2.8391,1.1356-1.0599,0-2.0063-0.4164-2.8391-1.2492-1.1356-1.1356-1.7035-3.0284-1.7035-5.6782-0.00001-2.4227,0.56782-4.2019,1.7035-5.3375,0.75709-0.75708,1.7035-1.1356,2.8391-1.1356zm-2.0442,1.9306c-0.83281,0.83282-1.2871,2.1199-1.3628,3.8612h6.3596c0.22712,0.00001,0.34069-0.15141,0.3407-0.45426-0.00001-1.4385-0.41641-2.5741-1.2492-3.4069-0.60569-0.60566-1.2492-0.9085-1.9306-0.90851-0.83281,0.00001-1.552,0.30285-2.1577,0.90851z"/>
   <path id="path50" d="m211.18,99.79c0-0.45424,0.18928-0.68137,0.56783-0.68139,0.37854,0.000015,0.56781,0.22714,0.56782,0.68139v1.7035c0.37854-0.60567,0.71923-1.0599,1.0221-1.3628,0.68138-0.68138,1.4006-1.0221,2.1577-1.0221,0.8328,0.000015,1.5142,0.265,2.0442,0.79495,0.37854,0.37856,0.45425,0.71925,0.22713,1.0221-0.22714,0.30285-0.56783,0.26499-1.0221-0.11357-0.45427-0.37853-0.90852-0.56781-1.3628-0.56782-0.52997,0.00001-1.0599,0.265-1.5899,0.79495-0.8328,0.83282-1.3249,1.7035-1.4763,2.612v8.1766c-0.00001,0.45426-0.18928,0.68139-0.56782,0.68139-0.37855,0-0.56783-0.22713-0.56783-0.68139z"/>
   <path id="path52" d="m231.17,92.863c0.60567,0.000021,0.98422,0.41642,1.1356,1.2492l4.429,17.148,4.3154-17.148c0.22712-0.83278,0.68137-1.2492,1.3628-1.2492,0.68137,0.000021,1.0221,0.45428,1.0221,1.3628v17.602c-0.00001,0.45426-0.15143,0.68139-0.45426,0.68139-0.45427,0-0.6814-0.22713-0.68138-0.68139v-17.148c-0.00002-0.22711-0.0379-0.26496-0.11357-0.11356l-4.3154,16.921c-0.15143,0.68139-0.52998,1.0221-1.1356,1.0221-0.60568,0-0.98423-0.34069-1.1356-1.0221l-4.3154-16.808c-0.0757-0.1514-0.11357-0.1514-0.11357,0v17.148c0,0.45426-0.18927,0.68139-0.56782,0.68139s-0.56782-0.22713-0.56782-0.68139v-17.375c0-1.0599,0.37854-1.5899,1.1356-1.5899z"/>
   <path id="path54" d="m250.48,99.109c1.0599,0.000015,2.0063,0.41642,2.8391,1.2492,1.0599,1.06,1.5899,2.5363,1.5899,4.429-0.00001,0.75711-0.37856,1.1356-1.1356,1.1356h-6.7003c0,2.2713,0.45425,3.8233,1.3628,4.6561,0.60567,0.60567,1.2871,0.90851,2.0442,0.90851,0.75709,0,1.4385-0.30284,2.0442-0.90851,0.45425-0.45426,0.83279-1.1735,1.1356-2.1577,0.15141-0.30283,0.37854-0.41639,0.68139-0.34069,0.37853,0.15142,0.4921,0.45426,0.34069,0.90851-0.30285,1.0599-0.75711,1.8549-1.3628,2.3849-0.75711,0.75709-1.7035,1.1356-2.8391,1.1356-1.0599,0-2.0063-0.4164-2.8391-1.2492-1.1356-1.1356-1.7035-3.0284-1.7035-5.6782,0-2.4227,0.56782-4.2019,1.7035-5.3375,0.75709-0.75708,1.7035-1.1356,2.8391-1.1356zm-2.0442,1.9306c-0.83281,0.83282-1.2871,2.1199-1.3628,3.8612h6.3596c0.22712,0.00001,0.34069-0.15141,0.34069-0.45426,0-1.4385-0.41641-2.5741-1.2492-3.4069-0.60569-0.60566-1.2492-0.9085-1.9306-0.90851-0.83281,0.00001-1.552,0.30285-2.1577,0.90851z"/>
   <path id="path56" d="m261.72,100.13c-0.68139,0.00001-1.3249,0.30285-1.9306,0.90851-1.1356,1.1356-1.7035,2.7634-1.7035,4.8833-0.00001,2.1199,0.4921,3.6719,1.4763,4.6561,0.60567,0.60567,1.3249,0.90851,2.1577,0.90851,0.75709,0,1.4763-0.34069,2.1577-1.0221,0.60566-0.60567,0.98421-1.2492,1.1356-1.9306v-5.224c-0.15143-0.8328-0.52998-1.552-1.1356-2.1577-0.6814-0.68137-1.4006-1.0221-2.1577-1.0221zm-0.22712-1.0221c1.2113,0.000015,2.1956,0.37856,2.9527,1.1356,0.22712,0.22714,0.41639,0.49212,0.56782,0.79495v-1.2492c-0.00001-0.45424,0.18927-0.68137,0.56782-0.68139,0.37854,0.000015,0.56781,0.22714,0.56782,0.68139v11.584c-0.00001,1.8927-0.45426,3.2934-1.3628,4.2019-0.90852,0.90851-1.9684,1.3628-3.1798,1.3628-1.4385,0-2.6877-0.52997-3.7476-1.5899-0.37855-0.37855-0.68139-0.7571-0.90852-1.1356-0.15142-0.30283-0.11356-0.56782,0.11357-0.79495,0.22712-0.22712,0.49211-0.18927,0.79495,0.11357,0.30283,0.45426,0.60567,0.8328,0.90851,1.1356,0.8328,0.83281,1.7792,1.2492,2.8391,1.2492,0.8328,0,1.552-0.30284,2.1577-0.90851,0.8328-0.83281,1.2492-2.0442,1.2492-3.6341v-0.90852c-0.15143,0.30284-0.37856,0.60568-0.68139,0.90852-0.7571,0.75709-1.7035,1.1356-2.8391,1.1356s-2.1199-0.4164-2.9527-1.2492c-1.0599-1.0599-1.5899-2.8391-1.5899-5.3375s0.64353-4.3912,1.9306-5.6782c0.75709-0.75708,1.6278-1.1356,2.612-1.1356z"/>
   <path id="path58" d="m272.85,100.13c-0.7571,0.00001-1.4763,0.3407-2.1577,1.0221-0.98422,0.98424-1.4763,2.4984-1.4763,4.5426,0,2.347,0.49211,4.0126,1.4763,4.9968,0.52997,0.52997,1.1356,0.79495,1.817,0.79495,0.8328,0,1.5899-0.34069,2.2713-1.0221,0.75709-0.75709,1.1735-1.4763,1.2492-2.1577v-5.224c-0.30285-0.75709-0.71925-1.4006-1.2492-1.9306-0.68139-0.68137-1.3249-1.0221-1.9306-1.0221zm-0.11357-1.0221c1.0599,0.000015,1.9306,0.37856,2.612,1.1356,0.22712,0.22714,0.45425,0.52998,0.68139,0.90851v-1.3628c-0.00001-0.45424,0.18926-0.68137,0.56782-0.68139,0.37854,0.000015,0.56781,0.22714,0.56782,0.68139v12.151c-0.00001,0.45426-0.18928,0.68138-0.56782,0.68138-0.37856,0-0.56783-0.22712-0.56782-0.68138v-1.4763c-0.0757,0.22713-0.26499,0.49212-0.56782,0.79495-0.90853,0.83281-1.9306,1.2492-3.0662,1.2492-0.98423,0-1.8549-0.37855-2.612-1.1356-1.1356-1.1356-1.7035-3.0284-1.7035-5.6782,0-2.2713,0.60568-4.0126,1.817-5.224,0.90851-0.9085,1.8549-1.3628,2.8391-1.3628z"/>
   <path id="path60" d="m280.23,99.79c0-0.45424,0.15142-0.68137,0.45426-0.68139,0.45425,0.000015,0.68138,0.22714,0.68138,0.68139v2.1577c0.30284-0.60567,0.71924-1.1735,1.2492-1.7035,0.75709-0.75708,1.6278-1.1356,2.612-1.1356,0.98422,0.000015,1.817,0.34071,2.4984,1.0221,0.83279,0.83281,1.2492,2.1956,1.2492,4.0883v7.6088c-0.00002,0.45426-0.15143,0.68139-0.45426,0.68139-0.45427,0-0.6814-0.22713-0.68139-0.68139v-7.7224c-0.00001-1.5899-0.30285-2.6877-0.90851-3.2934-0.45427-0.45424-1.0599-0.68137-1.817-0.68138-0.7571,0.00001-1.4763,0.3407-2.1577,1.0221-1.0599,1.06-1.5899,2.1199-1.5899,3.1798v7.4952c0,0.45426-0.22713,0.68139-0.68138,0.68139-0.30284,0-0.45426-0.22713-0.45426-0.68139z"/>
   <path id="path62" d="m295.45,99.109c1.0599,0.000015,2.0063,0.41642,2.8391,1.2492,1.0599,1.06,1.5899,2.5363,1.5899,4.429-0.00001,0.75711-0.37856,1.1356-1.1356,1.1356h-6.7003c-0.00001,2.2713,0.45425,3.8233,1.3628,4.6561,0.60567,0.60567,1.2871,0.90851,2.0442,0.90851,0.75709,0,1.4385-0.30284,2.0442-0.90851,0.45425-0.45426,0.8328-1.1735,1.1356-2.1577,0.15141-0.30283,0.37854-0.41639,0.68138-0.34069,0.37854,0.15142,0.49211,0.45426,0.3407,0.90851-0.30285,1.0599-0.75711,1.8549-1.3628,2.3849-0.75711,0.75709-1.7035,1.1356-2.8391,1.1356-1.0599,0-2.0063-0.4164-2.8391-1.2492-1.1356-1.1356-1.7035-3.0284-1.7035-5.6782,0-2.4227,0.56782-4.2019,1.7035-5.3375,0.75709-0.75708,1.7035-1.1356,2.8391-1.1356zm-2.0442,1.9306c-0.83281,0.83282-1.2871,2.1199-1.3628,3.8612h6.3596c0.22712,0.00001,0.34068-0.15141,0.34069-0.45426-0.00001-1.4385-0.41641-2.5741-1.2492-3.4069-0.60568-0.60566-1.2492-0.9085-1.9306-0.90851-0.83281,0.00001-1.552,0.30285-2.1577,0.90851z"/>
   <path id="path64" d="m316.68,92.863c1.5142,0.000021,2.7634,0.49213,3.7476,1.4763,0.68138,0.6814,1.1356,1.4764,1.3628,2.3849-0.00001,0.37856-0.11358,0.60569-0.3407,0.68139-0.30285,0.07573-0.56783-0.07569-0.79495-0.45426-0.30284-0.75708-0.71925-1.4006-1.2492-1.9306-0.75711-0.75708-1.6656-1.1356-2.7256-1.1356-1.1356,0.00002-2.0442,0.34071-2.7255,1.0221-0.7571,0.75711-1.1356,1.7413-1.1356,2.9527,0,0.98424,0.26498,1.7413,0.79495,2.2713,0.60568,0.60568,1.4006,1.0599,2.3849,1.3628,1.5142,0.45427,2.5741,0.79496,3.1798,1.0221,0.75708,0.30285,1.4006,0.71925,1.9306,1.2492,0.83279,0.83282,1.2492,1.9306,1.2492,3.2934-0.00001,1.7413-0.45427,3.0662-1.3628,3.9748-0.98424,0.98423-2.347,1.4763-4.0883,1.4763-1.5899,0-2.8391-0.45426-3.7476-1.3628-0.7571-0.7571-1.3249-1.8549-1.7035-3.2934-0.0757-0.52996,0.0378-0.8328,0.34069-0.90851,0.37855-0.0757,0.64353,0.11357,0.79495,0.56782,0.37855,1.2871,0.83281,2.1956,1.3628,2.7255,0.8328,0.83281,1.817,1.2492,2.9527,1.2492,1.3628,0,2.4227-0.37855,3.1798-1.1356,0.75709-0.7571,1.1356-1.8549,1.1356-3.2934-0.00002-0.98422-0.30285-1.7792-0.90852-2.3848-0.52998-0.52996-1.0221-0.87065-1.4763-1.0221-0.90852-0.37854-2.0063-0.75708-3.2934-1.1356-1.1356-0.37854-1.9684-0.8328-2.4984-1.3628-0.90851-0.9085-1.3628-2.0063-1.3628-3.2934,0-1.4385,0.45426-2.612,1.3628-3.5205,0.98422-0.9842,2.1956-1.4763,3.6341-1.4763z"/>
   <path id="path66" d="m329.18,100.02c-0.83281,0.00001-1.552,0.30285-2.1577,0.90852-1.0599,1.0599-1.5899,2.6877-1.5899,4.8833-0.00001,2.1956,0.52996,3.8233,1.5899,4.8833,0.60567,0.60568,1.3249,0.90852,2.1577,0.90851,0.8328,0.00001,1.552-0.30283,2.1577-0.90851,1.0599-1.0599,1.5899-2.6877,1.5899-4.8833-0.00001-2.1956-0.52997-3.8233-1.5899-4.8833-0.60568-0.60567-1.3249-0.90851-2.1577-0.90852zm0-1.0221c1.2113,0.000014,2.2334,0.41642,3.0662,1.2492,1.2113,1.2114,1.817,3.0662,1.817,5.5646-0.00001,2.4984-0.60569,4.3533-1.817,5.5647-0.83282,0.8328-1.8549,1.2492-3.0662,1.2492-1.2114,0-2.2334-0.4164-3.0662-1.2492-1.2114-1.2114-1.817-3.0662-1.817-5.5647,0-2.4984,0.60568-4.3533,1.817-5.5646,0.8328-0.83279,1.8549-1.2492,3.0662-1.2492z"/>
   <path id="path68" d="m340.53,92.863c0.60567,0.000021,1.1356,0.22715,1.5899,0.68139,0.22713,0.22715,0.4164,0.52999,0.56783,0.90852,0.22712,0.52998,0.15141,0.87068-0.22713,1.0221-0.30285,0.07573-0.56783-0.11355-0.79495-0.56782-0.15143-0.30282-0.30285-0.52995-0.45426-0.68139-0.22713-0.22711-0.45426-0.34067-0.68139-0.34069-0.22713,0.00002-0.45426,0.11358-0.68138,0.34069-0.30284,0.30286-0.45426,0.71926-0.45426,1.2492v3.7476h2.1577c0.30283,0.000014,0.45425,0.15143,0.45426,0.45426-0.00001,0.37856-0.15143,0.56783-0.45426,0.56782h-2.1577v11.697c0,0.45426-0.18928,0.68138-0.56782,0.68138-0.37855,0-0.56783-0.22712-0.56782-0.68138v-11.697h-1.817c-0.30284,0.00001-0.45426-0.18926-0.45426-0.56782,0-0.30282,0.15142-0.45424,0.45426-0.45426h1.817v-3.743c-0.00001-0.83279,0.26498-1.5142,0.79495-2.0442,0.37854-0.37853,0.87065-0.5678,1.4763-0.56782z"/>
   <path id="path70" d="m347.35,99.109,0-2.9527c0-0.45424,0.18927-0.68137,0.56782-0.68139,0.37855,0.000018,0.56782,0.22715,0.56782,0.68139v2.9527h1.9306c0.30283,0.000015,0.45425,0.15143,0.45426,0.45426-0.00001,0.37856-0.15143,0.56784-0.45426,0.56783h-1.9306v11.697c0,0.45426-0.18927,0.68139-0.56782,0.68139s-0.56782-0.22713-0.56782-0.68139v-11.697h-1.9306c-0.30284,0.00001-0.45426-0.18926-0.45426-0.56783,0-0.30282,0.15142-0.45424,0.45426-0.45426z"/>
   <path id="path72" d="m353.25,99.109c0.45426-0.07569,0.71924,0.15143,0.79495,0.68139l2.2713,10.902,2.7255-10.561c0.15142-0.68138,0.49211-1.0221,1.0221-1.0221,0.52996,0.000015,0.87065,0.34071,1.0221,1.0221l2.7256,10.561,2.2713-10.902c0.0757-0.52995,0.30283-0.75708,0.68139-0.68139,0.37853,0.07572,0.52995,0.34071,0.45426,0.79495l-2.612,11.811c-0.15143,0.52997-0.41642,0.79495-0.79495,0.79495-0.37856,0-0.64355-0.26498-0.79495-0.79495l-2.9527-11.243-3.0662,11.243c-0.15143,0.52997-0.37856,0.79495-0.68139,0.79495-0.37855,0-0.64353-0.26498-0.79495-0.79495l-2.612-11.811c-0.0757-0.37853,0.0378-0.64352,0.34069-0.79495z"/>
   <path id="path74" d="m374.03,100.13c-0.7571,0.00001-1.4763,0.3407-2.1577,1.0221-0.98423,0.98424-1.4763,2.4984-1.4763,4.5426,0,2.347,0.49211,4.0126,1.4763,4.9968,0.52996,0.52997,1.1356,0.79495,1.817,0.79495,0.8328,0,1.5899-0.34069,2.2713-1.0221,0.75709-0.75709,1.1735-1.4763,1.2492-2.1577v-5.224c-0.30284-0.75709-0.71925-1.4006-1.2492-1.9306-0.68139-0.68137-1.3249-1.0221-1.9306-1.0221zm-0.11356-1.0221c1.0599,0.000015,1.9306,0.37856,2.612,1.1356,0.22712,0.22714,0.45425,0.52998,0.68138,0.90851v-1.3628c-0.00001-0.45424,0.18927-0.68137,0.56782-0.68139,0.37854,0.000015,0.56782,0.22714,0.56783,0.68139v12.151c-0.00001,0.45426-0.18929,0.68138-0.56783,0.68138-0.37855,0-0.56783-0.22712-0.56782-0.68138v-1.4763c-0.0757,0.22713-0.26499,0.49212-0.56782,0.79495-0.90852,0.83281-1.9306,1.2492-3.0662,1.2492-0.98423,0-1.8549-0.37855-2.612-1.1356-1.1356-1.1356-1.7035-3.0284-1.7035-5.6782,0-2.2713,0.60567-4.0126,1.817-5.224,0.90851-0.9085,1.8549-1.3628,2.8391-1.3628z"/>
   <path id="path76" d="m381.42,99.79c0-0.45424,0.18927-0.68137,0.56782-0.68139,0.37854,0.000015,0.56782,0.22714,0.56782,0.68139v1.7035c0.37855-0.60567,0.71924-1.0599,1.0221-1.3628,0.68138-0.68138,1.4006-1.0221,2.1577-1.0221,0.8328,0.000015,1.5142,0.265,2.0442,0.79495,0.37854,0.37856,0.45425,0.71925,0.22713,1.0221-0.22714,0.30285-0.56783,0.26499-1.0221-0.11357-0.45426-0.37853-0.90852-0.56781-1.3628-0.56782-0.52997,0.00001-1.0599,0.265-1.5899,0.79495-0.83281,0.83282-1.3249,1.7035-1.4763,2.612v8.1766c0,0.45426-0.18928,0.68139-0.56782,0.68139-0.37855,0-0.56782-0.22713-0.56782-0.68139z"/>
   <path id="path78" d="m394.7,99.109c1.0599,0.000015,2.0063,0.41642,2.8391,1.2492,1.0599,1.06,1.5899,2.5363,1.5899,4.429-0.00001,0.75711-0.37856,1.1356-1.1356,1.1356h-6.7003c0,2.2713,0.45425,3.8233,1.3628,4.6561,0.60567,0.60567,1.2871,0.90851,2.0442,0.90851,0.75709,0,1.4385-0.30284,2.0442-0.90851,0.45425-0.45426,0.8328-1.1735,1.1356-2.1577,0.15141-0.30283,0.37854-0.41639,0.68139-0.34069,0.37854,0.15142,0.4921,0.45426,0.34069,0.90851-0.30285,1.0599-0.7571,1.8549-1.3628,2.3849-0.7571,0.75709-1.7035,1.1356-2.8391,1.1356-1.0599,0-2.0063-0.4164-2.8391-1.2492-1.1356-1.1356-1.7035-3.0284-1.7035-5.6782,0-2.4227,0.56782-4.2019,1.7035-5.3375,0.75709-0.75708,1.7035-1.1356,2.8391-1.1356zm-2.0442,1.9306c-0.83281,0.83282-1.2871,2.1199-1.3628,3.8612h6.3596c0.22712,0.00001,0.34069-0.15141,0.3407-0.45426-0.00001-1.4385-0.41641-2.5741-1.2492-3.4069-0.60568-0.60566-1.2492-0.9085-1.9306-0.90851-0.83281,0.00001-1.552,0.30285-2.1577,0.90851z"/>
  </g>
 </g>
</svg>
