<?xml version="1.0" encoding="UTF-8" standalone="no"?>
<!-- Created with Inkscape (http://www.inkscape.org/) -->
<svg xmlns:rdf="http://www.w3.org/1999/02/22-rdf-syntax-ns#" xmlns="http://www.w3.org/2000/svg" height="100%" width="100%" version="1.1" xmlns:cc="http://creativecommons.org/ns#" xmlns:dc="http://purl.org/dc/elements/1.1/" viewBox="0 0 149.01762 83.82236">
 <defs></defs>
 <metadata>
  <rdf:RDF>
   <cc:Work rdf:about="">
    <dc:format>image/svg+xml</dc:format>
    <dc:type rdf:resource="http://purl.org/dc/dcmitype/StillImage"/>
    <dc:title/>
   </cc:Work>
  </rdf:RDF>
 </metadata>
 <g transform="translate(-2.2292519e-6,0)">
  <g transform="translate(-522.57896,-832.53853)">
   <path opacity="0.73893804" d="m528.19,838.37,0,24,6,0,0-18,20,0,0-6-20,0-4,0-2,0z" fill="#FFF"/>
   <path opacity="0.73893804" d="m667.19,837.37-24,0,0,6,18,0,0,20,6,0,0-20,0-4,0-2z" fill="#FFF"/>
   <path opacity="0.73893804" d="m667.69,910.36,0-24-6,0,0,18-20,0,0,6,20,0,4,0,2,0z" fill="#FFF"/>
   <path opacity="0.73893804" d="m528.69,911.36,24,0,0-6-18,0,0-20-6,0,0,20,0,4,0,2z" fill="#FFF"/>
   <g transform="matrix(0.87484756,0,0,0.87484756,428.20235,691.84412)">
    <path opacity="0.85840676" fill="#000" d="m107.88,160.82,170.34,0,0,95.814-170.34,0z"/>
    <g style="letter-spacing:0px;word-spacing:0px;" font-weight="normal" transform="translate(0,-4.5938941)" font-stretch="normal" line-height="125%" font-size="78.20800018px" font-variant="normal" font-family="HGSKyokashotai" font-style="normal" fill="#f9f9f9">
     <g transform="scale(0.95848651,1.0433115)" font-size="10.33612919px" font-family="&apos;Rounded-L M+ 1c light&apos;" line-height="125%">
      <path style="" d="m125.24,174.09c0.50322-0.99235,0.89257-1.9846,1.168-2.9768,0.007-0.007,0.007-0.0173,0.00016-0.0311-0.007-0.0138-0.0172-0.0207-0.0311-0.0207h-2.1087c-0.062,0.00001-0.11372-0.0207-0.15504-0.062-0.0413-0.0413-0.062-0.093-0.062-0.15504,0-0.062,0.0207-0.11544,0.062-0.16024s0.093-0.0672,0.15504-0.0672h2.2222c0.0275,0.00001,0.0482-0.0138,0.0621-0.0413,0.0896-0.38587,0.17222-0.789,0.24793-1.2094,0.0139-0.069,0.0467-0.12585,0.0984-0.17065s0.11198-0.0637,0.18075-0.0568c0.062,0.007,0.11371,0.0362,0.15503,0.0878,0.0413,0.0516,0.0552,0.10846,0.0415,0.17049-0.0896,0.50302-0.16887,0.89584-0.23784,1.1785-0.0137,0.0276-0.003,0.0413,0.0309,0.0413h4.8892c0.062,0.00001,0.1137,0.0224,0.15503,0.0672,0.0413,0.0448,0.062,0.0982,0.062,0.16024-0.00001,0.062-0.0207,0.11372-0.062,0.15504-0.0413,0.0413-0.093,0.062-0.15503,0.062h-5.0028c-0.0276,0.00001-0.0483,0.0173-0.0621,0.0517-0.24793,0.89584-0.59239,1.802-1.0334,2.7184v0.0101c0,0.007,0.003,0.0104,0.0101,0.0104,0.41343-0.21365,0.89236-0.39282,1.4368-0.5375,0.54444-0.14467,1.0268-0.21701,1.4472-0.21702,0.9301,0.00001,1.6329,0.18264,2.1084,0.54791,0.47546,0.36528,0.71319,0.89931,0.7132,1.6021-0.00001,0.73727-0.33248,1.3299-0.9974,1.7778-0.66495,0.44792-1.5555,0.67188-2.6717,0.67188-0.74421,0-1.4816-0.062-2.2121-0.18611-0.062-0.0137-0.11025-0.0446-0.14463-0.0929-0.0344-0.0483-0.0482-0.10341-0.0415-0.16545,0.0139-0.062,0.045-0.1103,0.0932-0.14478,0.0483-0.0345,0.10341-0.0483,0.16545-0.0413,0.72339,0.12408,1.4366,0.18611,2.1396,0.18611,0.96459,0,1.7346-0.18264,2.3099-0.54791,0.57535-0.36527,0.86302-0.85451,0.86303-1.4677-0.00001-1.1301-0.78207-1.6951-2.3462-1.6951-0.45486,0-0.96481,0.081-1.5298,0.24288-0.56505,0.16193-1.0543,0.36349-1.4677,0.60469-0.14468,0.0827-0.27906,0.0896-0.40313,0.0208-0.13774-0.0759-0.16875-0.18274-0.093-0.32048z"/>
      <path style="" d="m137.23,175.32c-0.9646,0.00001-1.4469,0.33079-1.4469,0.99236,0,0.71666,0.4823,1.075,1.4469,1.075,0.37915,0,0.6531-0.10857,0.82186-0.32569,0.16875-0.21712,0.25313-0.56678,0.25314-1.049v-0.46527c-0.00001-0.0206-0.0138-0.0378-0.0413-0.0517-0.3514-0.11713-0.69596-0.17569-1.0337-0.1757zm0,2.491c-0.68891,0-1.1815-0.14294-1.4778-0.42883s-0.44445-0.64248-0.44444-1.0698c-0.00001-0.39282,0.14814-0.72876,0.44444-1.0078,0.2963-0.27905,0.7889-0.41858,1.4778-0.41858,0.33078,0,0.67534,0.0517,1.0337,0.15519,0.0275,0.0137,0.0413,0.003,0.0413-0.0312v-3.8966c-0.00001-0.069,0.0224-0.12759,0.0672-0.17585,0.0448-0.0483,0.10167-0.0724,0.17065-0.0724,0.069,0.00001,0.12586,0.0241,0.17065,0.0724,0.0448,0.0483,0.0672,0.10688,0.0672,0.17585v1.2507c0,0.0276,0.0138,0.0413,0.0413,0.0413h2.5115c0.0551,0,0.10334,0.0224,0.14478,0.0672,0.0414,0.0448,0.0621,0.0947,0.0621,0.14984-0.00001,0.0551-0.0207,0.10504-0.0621,0.14983-0.0414,0.0448-0.0897,0.0672-0.14478,0.0672h-2.5115c-0.0275,0.00001-0.0413,0.0138-0.0413,0.0413v2.2945c0,0.0208,0.0103,0.0381,0.0309,0.0517,0.75115,0.30324,1.6297,0.84074,2.6358,1.6125,0.0481,0.0345,0.0757,0.0845,0.0826,0.14999,0.007,0.0655-0.0103,0.12233-0.0517,0.17049-0.0965,0.11713-0.20683,0.12743-0.33089,0.0309-0.89563-0.69585-1.6742-1.1919-2.3358-1.4882-0.007-0.007-0.0138-0.007-0.0207-0.00015-0.007,0.007-0.0102,0.0172-0.0102,0.0311v0.27916c0,0.6132-0.12576,1.0662-0.37726,1.359-0.25151,0.29283-0.64265,0.43924-1.1734,0.43924z"/>
      <path style="" d="m146.22,177.61c-0.5375-0.6132-1.1163-1.2127-1.7365-1.7986-0.0553-0.0481-0.083-0.1084-0.083-0.18074-0.00001-0.0723,0.0276-0.13264,0.0828-0.1809,0.0552-0.0483,0.1207-0.0724,0.19651-0.0724,0.0758,0.00001,0.13779,0.0241,0.18595,0.0722,0.59259,0.55832,1.1782,1.1682,1.757,1.8295,0.11039,0.13795,0.10009,0.26202-0.0309,0.37222-0.0551,0.0481-0.11881,0.0671-0.19115,0.0568-0.0723-0.0103-0.13259-0.043-0.18074-0.0981z"/>
      <path style="" d="m157.84,173.54c-0.7787,0.17244-1.3799,0.4516-1.8036,0.83748-0.42373,0.38588-0.6356,0.81308-0.63559,1.2816-0.00001,0.37895,0.17396,0.72519,0.52188,1.0387,0.34792,0.31354,0.72513,0.47031,1.1316,0.47031,0.29629,0,0.50821-0.0654,0.63575-0.19636,0.12754-0.1309,0.19131-0.34797,0.19132-0.65121v-2.7493c-0.00001-0.0208-0.0138-0.0312-0.0413-0.0312zm-0.75451,4.0622c-0.56505,0-1.0681-0.19809-1.5092-0.59427-0.44108-0.39619-0.66162-0.84578-0.66162-1.3488,0-0.57892,0.25671-1.1061,0.77013-1.5816,0.51342-0.47546,1.2318-0.80961,2.1552-1.0024,0.0276-0.0139,0.0413-0.0346,0.0413-0.0621v-1.9948c-0.00001-0.0345-0.0138-0.0517-0.0413-0.0517h-2.367c-0.13774,0-0.20661-0.0723-0.20661-0.21702,0-0.13773,0.0689-0.2066,0.20661-0.20661h2.367c0.0276,0.00001,0.0413-0.0172,0.0413-0.0517v-1.1889c-0.00001-0.0688,0.0224-0.12727,0.0672-0.17554,0.0448-0.0482,0.10162-0.0724,0.17049-0.0724,0.0689,0.00001,0.12744,0.0241,0.1757,0.0724,0.0483,0.0483,0.0724,0.10678,0.0724,0.17554v1.1889c0,0.0345,0.0138,0.0517,0.0413,0.0517h2.615c0.14467,0.00001,0.21701,0.0689,0.21702,0.20661-0.00001,0.062-0.0207,0.11372-0.062,0.15503-0.0413,0.0413-0.093,0.062-0.15504,0.062h-2.615c-0.0275,0-0.0413,0.0172-0.0413,0.0517v1.9226c0,0.0275,0.0138,0.0413,0.0413,0.0413,0.32385-0.0414,0.67187-0.0621,1.0441-0.0621,1.0405,0,1.8691,0.22222,2.4858,0.66667,0.61667,0.44445,0.92501,0.96644,0.92501,1.566,0,0.74421-0.22738,1.3368-0.68212,1.7778-0.45476,0.44098-1.1232,0.72003-2.0054,0.83716-0.062,0.007-0.11714-0.009-0.16529-0.0464-0.0482-0.0378-0.0792-0.0878-0.0931-0.14983-0.0206-0.13774,0.0414-0.22049,0.18611-0.24824,1.509-0.20672,2.2635-0.92328,2.2636-2.1497-0.00001-0.47547-0.26187-0.89236-0.78559-1.2507-0.52373-0.35833-1.2334-0.53749-2.129-0.5375-0.37222,0.00001-0.72024,0.0206-1.0441,0.0618-0.0275,0-0.0413,0.0172-0.0413,0.0517v2.8323c0,0.44791-0.10162,0.77176-0.30486,0.97153-0.20325,0.19978-0.52883,0.29966-0.97674,0.29966zm5.075-7.3076c0.57198,0.572,1.0577,1.1508,1.4573,1.7365,0.0826,0.11713,0.0619,0.22049-0.0621,0.31007-0.12387,0.0829-0.22723,0.0656-0.31007-0.0517-0.41344-0.59932-0.88196-1.1609-1.4056-1.6847-0.0414-0.0412-0.0638-0.0928-0.0672-0.15487-0.003-0.062,0.019-0.11371,0.0672-0.15504,0.0481-0.0413,0.10324-0.062,0.16528-0.062,0.062,0.00001,0.11376,0.0206,0.1552,0.0618z"/>
      <path style="" d="m169.94,175.58,0-0.11355c-0.00001-0.0275-0.0138-0.0483-0.0413-0.0621-0.57872-0.27548-1.0955-0.41322-1.5504-0.41322-1.1095,0-1.6642,0.3617-1.6642,1.0851,0,0.39282,0.14641,0.70468,0.43924,0.93558,0.29283,0.23089,0.69085,0.34634,1.1941,0.34634,0.60625,0,1.0282-0.13095,1.266-0.39287,0.23772-0.26191,0.35659-0.72366,0.3566-1.3852zm0-3.2351,0-1.5299c-0.00001-0.0275-0.0172-0.0413-0.0517-0.0413h-4.0827c-0.062,0.00001-0.11545-0.0224-0.16024-0.0672-0.0448-0.0448-0.0672-0.0981-0.0672-0.16008,0-0.0619,0.0224-0.1136,0.0672-0.15503,0.0448-0.0414,0.0982-0.0621,0.16024-0.0621h4.0827c0.0345,0,0.0517-0.0172,0.0517-0.0517v-0.97153c-0.00001-0.0688,0.0224-0.12554,0.0672-0.17034s0.10162-0.0672,0.1705-0.0672c0.0689,0.00001,0.12569,0.0224,0.17049,0.0672s0.0672,0.10158,0.0672,0.17034v0.97153c0,0.0345,0.0172,0.0517,0.0517,0.0517h2.6358c0.062,0,0.11544,0.0207,0.16024,0.0621s0.0672,0.0931,0.0672,0.15503c-0.00001,0.0619-0.0224,0.1153-0.0672,0.16008-0.0448,0.0448-0.0982,0.0672-0.16024,0.0672h-2.6358c-0.0345,0.00001-0.0517,0.0138-0.0517,0.0413v1.5299c0,0.0345,0.0172,0.0517,0.0517,0.0517h2.3153c0.062,0,0.1137,0.0207,0.15503,0.062,0.0413,0.0413,0.062,0.093,0.062,0.15504-0.00001,0.062-0.0207,0.11545-0.062,0.16024-0.0413,0.0448-0.093,0.0672-0.15503,0.0672h-2.3153c-0.0345,0.00001-0.0517,0.0138-0.0517,0.0413v2.243c0,0.0275,0.0138,0.0482,0.0413,0.0618,0.73747,0.39976,1.5575,0.97522,2.4601,1.7264,0.0484,0.0412,0.0742,0.0946,0.0776,0.16008,0.003,0.0655-0.0156,0.12234-0.0568,0.17049-0.0896,0.11713-0.19989,0.12407-0.33089,0.0208-0.78544-0.65463-1.5055-1.1749-2.1601-1.5608-0.007-0.007-0.0139-0.007-0.0208-0.00015-0.007,0.007-0.0104,0.0137-0.0104,0.0207-0.0137,0.74421-0.18416,1.2766-0.51147,1.597-0.32732,0.32048-0.85615,0.48072-1.5865,0.48072-0.65464,0-1.1749-0.15677-1.5608-0.47031-0.38588-0.31354-0.57882-0.73223-0.57882-1.2561,0-0.18589,0.031-0.36154,0.0929-0.52693s0.16529-0.32737,0.31008-0.48593c0.14478-0.15855,0.36532-0.28604,0.66162-0.38246,0.29629-0.0964,0.65462-0.14462,1.075-0.14463,0.48218,0.00001,1.0093,0.12744,1.5813,0.38231,0.0275,0.0139,0.0413,0.007,0.0413-0.0205v-2.0156c-0.00001-0.0275-0.0172-0.0413-0.0517-0.0413h-3.7622c-0.062,0.00001-0.11372-0.0224-0.15504-0.0672-0.0413-0.0448-0.062-0.0982-0.062-0.16024,0-0.062,0.0207-0.11371,0.062-0.15504,0.0413-0.0413,0.093-0.062,0.15504-0.062h3.7622c0.0345,0,0.0517-0.0172,0.0517-0.0517z"/>
      <path style="" d="m177,177.34-0.083,0c-0.19284,0-0.31681-0.0931-0.3719-0.27915l-1.416-4.8372c-0.0208-0.062-0.0105-0.12059,0.0309-0.1757,0.0414-0.0551,0.0965-0.0826,0.16529-0.0826,0.0759,0.00001,0.14657,0.0241,0.21197,0.0722,0.0654,0.0482,0.10851,0.11019,0.12933,0.1861l1.2816,4.6615c0,0.007,0.003,0.0104,0.0103,0.0104,0.007,0,0.0102-0.003,0.0102-0.0104l1.2403-4.641c0.0208-0.0826,0.0657-0.14977,0.13453-0.2014,0.0689-0.0516,0.1481-0.0774,0.23768-0.0774h0.10347c0.0896,0.00001,0.16707,0.0258,0.23247,0.0774s0.10851,0.11877,0.12933,0.2014l1.2403,4.641c0,0.007,0.003,0.0104,0.0104,0.0104,0.0137,0,0.0205-0.003,0.0205-0.0104l1.2816-4.6719c0.0208-0.0757,0.0622-0.13595,0.12428-0.18074,0.062-0.0448,0.1309-0.0672,0.20661-0.0672,0.069,0.00001,0.12238,0.0258,0.16024,0.0774,0.0378,0.0516,0.0465,0.10846,0.0259,0.17049l-1.416,4.8476c-0.062,0.1861-0.18611,0.27915-0.37221,0.27915h-0.0827c-0.0896,0-0.16887-0.0259-0.23783-0.0776-0.069-0.0517-0.11378-0.11892-0.13438-0.20156l-1.2403-4.6098c-0.00001-0.007-0.003-0.0104-0.0104-0.0104-0.007,0-0.0104,0.003-0.0104,0.0104l-1.2403,4.6098c-0.0206,0.0826-0.0653,0.14983-0.13422,0.20156-0.0689,0.0517-0.14809,0.0776-0.23767,0.0776z"/>
      <path style="" d="m185,177.34-0.083,0c-0.19284,0-0.31681-0.0931-0.3719-0.27915l-1.416-4.8372c-0.0208-0.062-0.0105-0.12059,0.0309-0.1757,0.0414-0.0551,0.0965-0.0826,0.16529-0.0826,0.0759,0.00001,0.14657,0.0241,0.21197,0.0722,0.0654,0.0482,0.10851,0.11019,0.12933,0.1861l1.2816,4.6615c0,0.007,0.003,0.0104,0.0103,0.0104,0.007,0,0.0102-0.003,0.0102-0.0104l1.2403-4.641c0.0208-0.0826,0.0657-0.14977,0.13454-0.2014,0.0689-0.0516,0.14809-0.0774,0.23767-0.0774h0.10347c0.0896,0.00001,0.16707,0.0258,0.23247,0.0774s0.10851,0.11877,0.12933,0.2014l1.2403,4.641c0,0.007,0.003,0.0104,0.0104,0.0104,0.0137,0,0.0205-0.003,0.0205-0.0104l1.2816-4.6719c0.0208-0.0757,0.0622-0.13595,0.12428-0.18074,0.062-0.0448,0.1309-0.0672,0.20661-0.0672,0.069,0.00001,0.12238,0.0258,0.16024,0.0774,0.0379,0.0516,0.0465,0.10846,0.0259,0.17049l-1.416,4.8476c-0.062,0.1861-0.18611,0.27915-0.37221,0.27915h-0.0827c-0.0896,0-0.16887-0.0259-0.23783-0.0776-0.069-0.0517-0.11378-0.11892-0.13438-0.20156l-1.2403-4.6098c-0.00001-0.007-0.003-0.0104-0.0104-0.0104-0.007,0-0.0104,0.003-0.0104,0.0104l-1.2403,4.6098c-0.0206,0.0826-0.0653,0.14983-0.13421,0.20156-0.0689,0.0517-0.1481,0.0776-0.23768,0.0776z"/>
      <path style="" d="m192.99,177.34-0.083,0c-0.19283,0-0.3168-0.0931-0.37189-0.27915l-1.416-4.8372c-0.0208-0.062-0.0105-0.12059,0.0309-0.1757,0.0414-0.0551,0.0965-0.0826,0.16529-0.0826,0.0759,0.00001,0.14657,0.0241,0.21197,0.0722,0.0654,0.0482,0.1085,0.11019,0.12932,0.1861l1.2816,4.6615c0,0.007,0.003,0.0104,0.0103,0.0104,0.007,0,0.0102-0.003,0.0102-0.0104l1.2403-4.641c0.0208-0.0826,0.0657-0.14977,0.13453-0.2014,0.0689-0.0516,0.14809-0.0774,0.23768-0.0774h0.10346c0.0896,0.00001,0.16707,0.0258,0.23248,0.0774,0.0654,0.0516,0.1085,0.11877,0.12933,0.2014l1.2403,4.641c0,0.007,0.003,0.0104,0.0104,0.0104,0.0137,0,0.0205-0.003,0.0205-0.0104l1.2816-4.6719c0.0208-0.0757,0.0622-0.13595,0.12428-0.18074,0.062-0.0448,0.1309-0.0672,0.20661-0.0672,0.069,0.00001,0.12238,0.0258,0.16024,0.0774,0.0378,0.0516,0.0465,0.10846,0.0259,0.17049l-1.416,4.8476c-0.062,0.1861-0.18611,0.27915-0.37221,0.27915h-0.0826c-0.0896,0-0.16887-0.0259-0.23784-0.0776-0.069-0.0517-0.11377-0.11892-0.13437-0.20156l-1.2403-4.6098c0-0.007-0.003-0.0104-0.0104-0.0104-0.007,0-0.0104,0.003-0.0104,0.0104l-1.2403,4.6098c-0.0206,0.0826-0.0653,0.14983-0.13422,0.20156-0.0689,0.0517-0.1481,0.0776-0.23768,0.0776z"/>
      <path style="" d="m200.99,177.34-0.083,0c-0.19284,0-0.3168-0.0931-0.3719-0.27915l-1.416-4.8372c-0.0208-0.062-0.0105-0.12059,0.0309-0.1757,0.0414-0.0551,0.0965-0.0826,0.16529-0.0826,0.0759,0.00001,0.14657,0.0241,0.21197,0.0722,0.0654,0.0482,0.10851,0.11019,0.12933,0.1861l1.2816,4.6615c-0.00001,0.007,0.003,0.0104,0.0103,0.0104,0.007,0,0.0102-0.003,0.0102-0.0104l1.2403-4.641c0.0208-0.0826,0.0657-0.14977,0.13454-0.2014,0.0689-0.0516,0.14809-0.0774,0.23768-0.0774h0.10346c0.0896,0.00001,0.16707,0.0258,0.23247,0.0774s0.10851,0.11877,0.12933,0.2014l1.2403,4.641c-0.00001,0.007,0.003,0.0104,0.0104,0.0104,0.0137,0,0.0205-0.003,0.0205-0.0104l1.2816-4.6719c0.0208-0.0757,0.0622-0.13595,0.12429-0.18074,0.062-0.0448,0.13089-0.0672,0.2066-0.0672,0.069,0.00001,0.12239,0.0258,0.16024,0.0774,0.0379,0.0516,0.0465,0.10846,0.0259,0.17049l-1.416,4.8476c-0.062,0.1861-0.18611,0.27915-0.37221,0.27915h-0.0827c-0.0896,0-0.16886-0.0259-0.23783-0.0776-0.069-0.0517-0.11378-0.11892-0.13438-0.20156l-1.2403-4.6098c-0.00001-0.007-0.003-0.0104-0.0104-0.0104-0.007,0-0.0104,0.003-0.0104,0.0104l-1.2403,4.6098c-0.0206,0.0826-0.0653,0.14983-0.13421,0.20156-0.0689,0.0517-0.1481,0.0776-0.23768,0.0776z"/>
     </g>
    </g>
    <g style="letter-spacing:0px;word-spacing:0px;" font-weight="normal" transform="translate(65.569302,15.930612)" font-stretch="normal" line-height="125%" font-size="78.20800018px" font-variant="normal" font-family="HGSKyokashotai" font-style="normal" fill="#f9f9f9">
     <g transform="scale(0.95848651,1.0433115)" font-size="10.33612919px" font-family="&apos;Rounded-L M+ 1c light&apos;" line-height="125%">
      <path style="" d="m138.03,171.65,0,2.584c0,0.069-0.0241,0.1276-0.0724,0.17586-0.0483,0.0483-0.10683,0.0724-0.1757,0.0724-0.0689,0-0.12744-0.0241-0.1757-0.0724-0.0483-0.0483-0.0724-0.10688-0.0724-0.17586v-2.8115c0-0.0826,0.0276-0.15324,0.0827-0.21181,0.0551-0.0586,0.12406-0.0878,0.20692-0.0879h6.9045c0.0826,0.00001,0.15324,0.0293,0.21181,0.0879,0.0586,0.0586,0.0878,0.12918,0.0879,0.21181v1.3438c-0.00001,1.7847-0.47032,3.175-1.4109,4.1707-0.94063,0.99572-2.3343,1.5729-4.1811,1.7314-0.0688,0.007-0.13075-0.0106-0.18595-0.0519s-0.0862-0.0964-0.0929-0.16513c-0.0139-0.062-0.00016-0.11892,0.0412-0.17065,0.0413-0.0517,0.093-0.0811,0.15504-0.088,3.4454-0.30996,5.168-2.1188,5.1681-5.4264v-1.1163c-0.00001-0.0275-0.0173-0.0413-0.0517-0.0413h-6.3979c-0.0276,0-0.0413,0.0138-0.0413,0.0413z"/>
      <path style="" d="m148.28,171.64,0,6.1399c0,0.0275,0.0138,0.0413,0.0413,0.0413h6.491c0.0275,0,0.0413-0.0138,0.0413-0.0413v-6.1399c-0.00001-0.0275-0.0138-0.0413-0.0413-0.0413h-6.491c-0.0276,0.00001-0.0413,0.0138-0.0413,0.0413zm6.8011,6.6566-6.8011,0-0.22742,0c-0.0827,0-0.15157-0.0293-0.20677-0.0879s-0.0828-0.12917-0.0828-0.21182v-6.574c0-0.0826,0.0276-0.15324,0.0828-0.21181,0.0552-0.0586,0.12412-0.0878,0.20677-0.0879h7.0285c0.0826,0.00001,0.15156,0.0293,0.20677,0.0879,0.0552,0.0586,0.0828,0.12918,0.0828,0.21181v6.574c-0.00001,0.0827-0.0276,0.15325-0.0828,0.21182-0.0552,0.0586-0.12414,0.0879-0.20677,0.0879z"/>
      <path style="" d="m160.32,171.86c-0.35813,1.2128-0.9645,2.2428-1.8191,3.0903-0.0482,0.0484-0.10499,0.0726-0.17049,0.0726s-0.12234-0.0242-0.17049-0.0726c-0.11019-0.11019-0.11019-0.22038,0-0.33058,1.075-1.075,1.7227-2.429,1.9431-4.0622,0.007-0.069,0.0363-0.12238,0.088-0.16024,0.0517-0.0378,0.11202-0.0533,0.1809-0.0465,0.0689,0.007,0.12222,0.0344,0.16008,0.0827,0.0378,0.0483,0.0534,0.10688,0.0467,0.17585-0.0345,0.24794-0.0759,0.4822-0.12428,0.70279,0,0.0276,0.0139,0.0413,0.0416,0.0413h4.6098c0.0759,0,0.14314,0.0293,0.20172,0.0879,0.0585,0.0586,0.0878,0.1257,0.0879,0.2014-0.007,2.2257-0.53415,3.9019-1.5816,5.0286-1.0475,1.1267-2.6978,1.8038-4.951,2.0311-0.15162,0.0139-0.23773-0.055-0.25834-0.20661-0.0139-0.062-0.0001-0.11892,0.0413-0.17065,0.0414-0.0517,0.0932-0.0811,0.15519-0.088,1.3023-0.13774,2.3773-0.41506,3.2248-0.83196,0.84756-0.4169,1.4987-1.0043,1.9533-1.7622,0.0139-0.0276,0.007-0.0483-0.0205-0.0621-1.0956-0.56504-2.2498-1.1128-3.4625-1.6434-0.062-0.0275-0.10341-0.0723-0.12412-0.13438-0.0207-0.062-0.0173-0.12406,0.0102-0.1861,0.0759-0.14467,0.18957-0.186,0.34098-0.12397,1.2266,0.53057,2.3809,1.0784,3.4628,1.6434,0.0275,0.0139,0.0482,0.007,0.0618-0.0208,0.38587-0.84746,0.59605-1.9293,0.63055-3.2455-0.00001-0.0345-0.0138-0.0517-0.0413-0.0517h-4.4653c-0.0276,0-0.0448,0.0139-0.0517,0.0416z"/>
      <path style="" d="m169.45,178.44-0.083,0c-0.19284,0-0.3168-0.0931-0.37189-0.27916l-1.416-4.8372c-0.0208-0.062-0.0105-0.1206,0.0309-0.1757s0.0965-0.0826,0.16528-0.0826c0.0759,0,0.14657,0.0241,0.21198,0.0722,0.0654,0.0482,0.1085,0.1102,0.12932,0.18611l1.2816,4.6615c0,0.007,0.003,0.0104,0.0102,0.0104,0.007,0.00001,0.0103-0.003,0.0103-0.0104l1.2403-4.641c0.0208-0.0826,0.0657-0.14977,0.13453-0.2014,0.0689-0.0516,0.14809-0.0774,0.23768-0.0774h0.10346c0.0896,0,0.16707,0.0258,0.23248,0.0774,0.0654,0.0516,0.1085,0.11876,0.12932,0.2014l1.2403,4.641c-0.00001,0.007,0.003,0.0104,0.0104,0.0104,0.0137,0.00001,0.0205-0.003,0.0205-0.0104l1.2816-4.6719c0.0208-0.0757,0.0622-0.13595,0.12428-0.18075,0.062-0.0448,0.1309-0.0672,0.20661-0.0672,0.069,0,0.12238,0.0258,0.16024,0.0774,0.0378,0.0516,0.0465,0.10846,0.0259,0.17049l-1.416,4.8476c-0.062,0.18611-0.18611,0.27916-0.37221,0.27916h-0.0826c-0.0896,0-0.16887-0.0259-0.23784-0.0776-0.069-0.0517-0.11377-0.11891-0.13437-0.20156l-1.2403-4.6098c0-0.007-0.003-0.0104-0.0104-0.0104-0.007,0-0.0104,0.003-0.0104,0.0104l-1.2403,4.6098c-0.0206,0.0827-0.0653,0.14983-0.13422,0.20156-0.0689,0.0517-0.1481,0.0776-0.23768,0.0776z"/>
      <path style="" d="m177.44,178.44-0.083,0c-0.19283,0-0.3168-0.0931-0.37189-0.27916l-1.416-4.8372c-0.0208-0.062-0.0105-0.1206,0.0309-0.1757s0.0965-0.0826,0.16528-0.0826c0.0759,0,0.14658,0.0241,0.21198,0.0722,0.0654,0.0482,0.1085,0.1102,0.12932,0.18611l1.2816,4.6615c0,0.007,0.003,0.0104,0.0102,0.0104,0.007,0.00001,0.0103-0.003,0.0103-0.0104l1.2403-4.641c0.0208-0.0826,0.0657-0.14977,0.13453-0.2014,0.0689-0.0516,0.14809-0.0774,0.23768-0.0774h0.10346c0.0896,0,0.16707,0.0258,0.23248,0.0774,0.0654,0.0516,0.1085,0.11876,0.12932,0.2014l1.2403,4.641c-0.00001,0.007,0.003,0.0104,0.0104,0.0104,0.0137,0.00001,0.0205-0.003,0.0205-0.0104l1.2816-4.6719c0.0208-0.0757,0.0622-0.13595,0.12428-0.18075,0.062-0.0448,0.1309-0.0672,0.20661-0.0672,0.069,0,0.12238,0.0258,0.16024,0.0774,0.0378,0.0516,0.0465,0.10846,0.0259,0.17049l-1.416,4.8476c-0.062,0.18611-0.18611,0.27916-0.37221,0.27916h-0.0826c-0.0896,0-0.16887-0.0259-0.23784-0.0776-0.069-0.0517-0.11377-0.11891-0.13437-0.20156l-1.2403-4.6098c0-0.007-0.003-0.0104-0.0104-0.0104-0.007,0-0.0104,0.003-0.0104,0.0104l-1.2403,4.6098c-0.0206,0.0827-0.0653,0.14983-0.13422,0.20156-0.0689,0.0517-0.1481,0.0776-0.23768,0.0776z"/>
      <path style="" d="m185.44,178.44-0.083,0c-0.19284,0-0.3168-0.0931-0.3719-0.27916l-1.416-4.8372c-0.0208-0.062-0.0105-0.1206,0.0309-0.1757s0.0965-0.0826,0.16529-0.0826c0.0759,0,0.14657,0.0241,0.21197,0.0722,0.0654,0.0482,0.10851,0.1102,0.12933,0.18611l1.2816,4.6615c-0.00001,0.007,0.003,0.0104,0.0103,0.0104,0.007,0.00001,0.0102-0.003,0.0102-0.0104l1.2403-4.641c0.0208-0.0826,0.0656-0.14977,0.13453-0.2014,0.0689-0.0516,0.14809-0.0774,0.23768-0.0774h0.10346c0.0896,0,0.16707,0.0258,0.23247,0.0774s0.10851,0.11876,0.12933,0.2014l1.2403,4.641c-0.00001,0.007,0.003,0.0104,0.0104,0.0104,0.0137,0.00001,0.0205-0.003,0.0205-0.0104l1.2816-4.6719c0.0208-0.0757,0.0622-0.13595,0.12428-0.18075,0.062-0.0448,0.13089-0.0672,0.20661-0.0672,0.069,0,0.12238,0.0258,0.16024,0.0774,0.0378,0.0516,0.0465,0.10846,0.0259,0.17049l-1.416,4.8476c-0.062,0.18611-0.18611,0.27916-0.37221,0.27916h-0.0827c-0.0896,0-0.16886-0.0259-0.23783-0.0776-0.069-0.0517-0.11377-0.11891-0.13438-0.20156l-1.2403-4.6098c-0.00001-0.007-0.003-0.0104-0.0104-0.0104-0.007,0-0.0104,0.003-0.0104,0.0104l-1.2403,4.6098c-0.0206,0.0827-0.0653,0.14983-0.13421,0.20156-0.0689,0.0517-0.1481,0.0776-0.23768,0.0776z"/>
      <path style="" d="m193.43,178.44-0.083,0c-0.19284,0-0.3168-0.0931-0.3719-0.27916l-1.416-4.8372c-0.0208-0.062-0.0105-0.1206,0.0309-0.1757s0.0965-0.0826,0.16529-0.0826c0.0759,0,0.14657,0.0241,0.21197,0.0722,0.0654,0.0482,0.10851,0.1102,0.12933,0.18611l1.2816,4.6615c0,0.007,0.003,0.0104,0.0103,0.0104,0.007,0.00001,0.0102-0.003,0.0102-0.0104l1.2403-4.641c0.0208-0.0826,0.0656-0.14977,0.13453-0.2014,0.0689-0.0516,0.14809-0.0774,0.23768-0.0774h0.10346c0.0896,0,0.16707,0.0258,0.23247,0.0774s0.10851,0.11876,0.12933,0.2014l1.2403,4.641c-0.00001,0.007,0.003,0.0104,0.0104,0.0104,0.0137,0.00001,0.0205-0.003,0.0205-0.0104l1.2816-4.6719c0.0208-0.0757,0.0622-0.13595,0.12428-0.18075,0.062-0.0448,0.13089-0.0672,0.20661-0.0672,0.069,0,0.12238,0.0258,0.16024,0.0774,0.0378,0.0516,0.0465,0.10846,0.0259,0.17049l-1.416,4.8476c-0.062,0.18611-0.18611,0.27916-0.37221,0.27916h-0.0826c-0.0896,0-0.16887-0.0259-0.23784-0.0776-0.069-0.0517-0.11377-0.11891-0.13438-0.20156l-1.2403-4.6098c-0.00001-0.007-0.003-0.0104-0.0104-0.0104-0.007,0-0.0104,0.003-0.0104,0.0104l-1.2403,4.6098c-0.0206,0.0827-0.0653,0.14983-0.13421,0.20156-0.0689,0.0517-0.1481,0.0776-0.23768,0.0776z"/>
      <path style="" d="m201.43,178.44-0.083,0c-0.19284,0-0.3168-0.0931-0.3719-0.27916l-1.416-4.8372c-0.0208-0.062-0.0105-0.1206,0.0309-0.1757s0.0965-0.0826,0.16529-0.0826c0.0759,0,0.14657,0.0241,0.21197,0.0722,0.0654,0.0482,0.10851,0.1102,0.12933,0.18611l1.2816,4.6615c0,0.007,0.003,0.0104,0.0103,0.0104,0.007,0.00001,0.0102-0.003,0.0102-0.0104l1.2403-4.641c0.0208-0.0826,0.0657-0.14977,0.13453-0.2014,0.0689-0.0516,0.14809-0.0774,0.23768-0.0774h0.10346c0.0896,0,0.16707,0.0258,0.23247,0.0774s0.10851,0.11876,0.12933,0.2014l1.2403,4.641c-0.00001,0.007,0.003,0.0104,0.0104,0.0104,0.0137,0.00001,0.0205-0.003,0.0205-0.0104l1.2816-4.6719c0.0208-0.0757,0.0622-0.13595,0.12428-0.18075,0.062-0.0448,0.1309-0.0672,0.20661-0.0672,0.069,0,0.12238,0.0258,0.16024,0.0774,0.0378,0.0516,0.0465,0.10846,0.0259,0.17049l-1.416,4.8476c-0.062,0.18611-0.18611,0.27916-0.37221,0.27916h-0.0826c-0.0896,0-0.16887-0.0259-0.23784-0.0776-0.069-0.0517-0.11377-0.11891-0.13438-0.20156l-1.2403-4.6098c-0.00001-0.007-0.003-0.0104-0.0104-0.0104-0.007,0-0.0104,0.003-0.0104,0.0104l-1.2403,4.6098c-0.0206,0.0827-0.0653,0.14983-0.13422,0.20156-0.0689,0.0517-0.1481,0.0776-0.23768,0.0776z"/>
      <path style="" d="m209.42,178.44-0.083,0c-0.19283,0-0.3168-0.0931-0.37189-0.27916l-1.416-4.8372c-0.0208-0.062-0.0105-0.1206,0.0309-0.1757s0.0965-0.0826,0.16529-0.0826c0.0759,0,0.14657,0.0241,0.21197,0.0722,0.0654,0.0482,0.10851,0.1102,0.12933,0.18611l1.2816,4.6615c0,0.007,0.003,0.0104,0.0103,0.0104,0.007,0.00001,0.0102-0.003,0.0103-0.0104l1.2403-4.641c0.0208-0.0826,0.0657-0.14977,0.13453-0.2014,0.0689-0.0516,0.1481-0.0774,0.23768-0.0774h0.10346c0.0896,0,0.16707,0.0258,0.23248,0.0774,0.0654,0.0516,0.1085,0.11876,0.12933,0.2014l1.2403,4.641c0,0.007,0.003,0.0104,0.0104,0.0104,0.0137,0.00001,0.0205-0.003,0.0205-0.0104l1.2816-4.6719c0.0208-0.0757,0.0622-0.13595,0.12428-0.18075,0.062-0.0448,0.1309-0.0672,0.20661-0.0672,0.069,0,0.12238,0.0258,0.16024,0.0774,0.0379,0.0516,0.0465,0.10846,0.0259,0.17049l-1.416,4.8476c-0.062,0.18611-0.18612,0.27916-0.37222,0.27916h-0.0826c-0.0896,0-0.16887-0.0259-0.23784-0.0776-0.069-0.0517-0.11377-0.11891-0.13437-0.20156l-1.2403-4.6098c0-0.007-0.003-0.0104-0.0104-0.0104-0.007,0-0.0104,0.003-0.0104,0.0104l-1.2403,4.6098c-0.0206,0.0827-0.0653,0.14983-0.13422,0.20156-0.0689,0.0517-0.1481,0.0776-0.23768,0.0776z"/>
     </g>
    </g>
    <g style="letter-spacing:0px;word-spacing:0px;" font-weight="normal" transform="scale(0.95848651,1.0433115)" font-stretch="normal" line-height="125%" font-size="10.33612919px" font-variant="normal" font-family="&apos;Rounded-L M+ 1c light&apos;" font-style="normal" fill="#FFF">
     <path style="" d="m131.31,207.03-4.734,0.35139c-0.062,0.007-0.11545-0.0103-0.16024-0.0516-0.0448-0.0413-0.0707-0.093-0.0776-0.15504-0.007-0.062,0.0103-0.11544,0.0517-0.16024s0.0931-0.0706,0.15488-0.0776c1.6745-0.19283,3.6764-1.1713,6.0055-2.9354,0.007,0,0.0101-0.007,0.0101-0.0205-0.00001-0.007-0.003-0.0104-0.0101-0.0104h-4.3517c-0.062,0-0.11545-0.0207-0.16024-0.062-0.0448-0.0413-0.0672-0.093-0.0672-0.15503,0-0.062,0.0224-0.11544,0.0672-0.16024s0.0982-0.0672,0.16024-0.0672h4.9719c0.0551,0.00001,0.1033,0.0224,0.14463,0.0672,0.0413,0.0448,0.062,0.0947,0.062,0.14983,0,0.14468-0.0551,0.25834-0.16528,0.34098-1.7502,1.3162-3.3075,2.2155-4.6719,2.6979-0.007,0-0.0104,0.003-0.0104,0.0102,0,0.007,0.003,0.0103,0.0104,0.0103l6.0983-0.45454c0.062-0.007,0.11544,0.0103,0.16024,0.0516s0.0706,0.093,0.0774,0.15504c0.007,0.062-0.0104,0.11719-0.0517,0.16544-0.0413,0.0483-0.093,0.0758-0.15504,0.0825l-2.15,0.15519c-0.0343,0.00001-0.0618,0.003-0.0826,0.0104-0.94399,0.32385-1.6658,0.71662-2.1653,1.1783-0.49955,0.4617-0.74932,0.95782-0.74932,1.4884,0,1.0542,0.97153,1.5813,2.9146,1.5813,0.40669,0,0.80982-0.0275,1.2094-0.0827,0.13773-0.0206,0.22048,0.0449,0.24825,0.19652,0.007,0.062-0.009,0.11713-0.0467,0.16528-0.0379,0.0482-0.0878,0.0792-0.14984,0.0931-0.40649,0.0551-0.82686,0.0826-1.2611,0.0826-0.65464,0-1.2162-0.0568-1.6847-0.17049-0.46853-0.11366-0.82513-0.2687-1.0698-0.46511-0.24468-0.19641-0.41869-0.40486-0.52205-0.62534-0.10336-0.22049-0.15504-0.46511-0.15503-0.73386-0.00001-0.50995,0.19125-0.98888,0.57377-1.4368,0.38251-0.44791,0.95965-0.84073,1.7314-1.1785,0.007,0,0.0101-0.007,0.0101-0.0205,0-0.007-0.003-0.0104-0.0101-0.0104z"/>
     <path style="" d="m139.03,207.71c-0.64076,0.60627-1.3367,1.2953-2.0879,2.067-0.10325,0.1104-0.21003,0.11045-0.32032,0.00015-0.1103-0.11029-0.11372-0.22054-0.0103-0.33073,0.82685-0.84073,1.633-1.6332,2.4184-2.3774,0.0208-0.0206,0.0312-0.0481,0.0312-0.0827v-1.5917c0-0.0275-0.0139-0.0413-0.0416-0.0413h-2.2323c-0.062,0.00001-0.11376-0.0224-0.15519-0.0672-0.0414-0.0448-0.0621-0.0982-0.0621-0.16024,0-0.062,0.0207-0.11545,0.0621-0.16024,0.0414-0.0448,0.0932-0.0672,0.15519-0.0672h2.2323c0.0278,0.00001,0.0416-0.0138,0.0416-0.0413v-1.5712c0-0.069,0.0241-0.12753,0.0722-0.17569,0.0481-0.0481,0.10672-0.0722,0.17569-0.0722,0.069,0.00001,0.12586,0.0241,0.17065,0.0722,0.0448,0.0482,0.0672,0.10673,0.0672,0.17569v3.2559c0,0.007,0.005,0.0121,0.0155,0.0156,0.0103,0.003,0.0189,0.002,0.0259-0.005,1.6331-1.4815,2.7494-2.2222,3.349-2.2222,0.35139,0,0.60289,0.14295,0.75452,0.42883,0.15161,0.28589,0.22742,0.77003,0.22743,1.4524-0.00001,0.37201-0.0379,0.8991-0.11372,1.5813-0.0758,0.68218-0.11372,1.2059-0.11371,1.5712-0.00001,0.30997,0.0155,0.56489,0.0465,0.76477s0.0758,0.34461,0.13437,0.43419c0.0586,0.0896,0.11539,0.14815,0.17049,0.1757,0.0551,0.0275,0.12396,0.0413,0.20661,0.0413,0.33078,0,0.76839-0.28599,1.3128-0.85798,0.10324-0.10325,0.20313-0.10325,0.29966,0,0.0965,0.1104,0.0965,0.2207,0,0.33089-0.28937,0.30997-0.59082,0.558-0.90435,0.74411-0.31355,0.1861-0.58062,0.27916-0.8012,0.27916-0.34446,0-0.59076-0.143-0.7389-0.42899-0.14816-0.286-0.22223-0.77008-0.22223-1.4523,0-0.43403,0.0344-0.96112,0.10315-1.5813,0.0759-0.6685,0.11386-1.1922,0.11387-1.5712-0.00001-0.39976-0.0293-0.70988-0.0879-0.93038-0.0586-0.22048-0.12402-0.35485-0.19635-0.40312-0.0724-0.0482-0.16372-0.0724-0.27412-0.0724-0.47547,0-1.5676,0.78901-3.2764,2.367-0.0206,0.0208-0.0309,0.0415-0.0309,0.0621v4.3514c0,0.069-0.0224,0.12759-0.0672,0.17585-0.0448,0.0483-0.10167,0.0724-0.17065,0.0724-0.069,0-0.12754-0.0241-0.17569-0.0724-0.0482-0.0483-0.0722-0.10688-0.0722-0.17585v-3.8966c0-0.007-0.003-0.0121-0.0104-0.0156-0.007-0.003-0.0139-0.002-0.0208,0.005z"/>
     <path style="" d="m151.91,208.83c-1.1026,0-1.6538,0.36864-1.6538,1.1059-0.00001,0.42037,0.14299,0.7408,0.42899,0.96128,0.28599,0.22049,0.69426,0.33074,1.2248,0.33074,0.51688,0,0.89246-0.12402,1.1267-0.37206,0.23426-0.24803,0.35139-0.64774,0.3514-1.1991v-0.35139c-0.00001-0.0275-0.0138-0.0482-0.0413-0.0618-0.50302-0.27568-0.98196-0.41353-1.4368-0.41353zm0.0104,2.8424c-0.68218,0-1.211-0.15162-1.5866-0.45485-0.37558-0.30324-0.56336-0.73044-0.56336-1.2816,0-0.50301,0.18605-0.89063,0.55816-1.1628,0.3721-0.27221,0.90271-0.40832,1.5918-0.40833,0.46158,0.00001,0.93705,0.11714,1.4264,0.3514,0.0275,0.0139,0.0413,0.007,0.0413-0.0205v-3.2663c-0.00001-0.0275-0.0138-0.0413-0.0413-0.0413h-3.1111c-0.062,0-0.11371-0.0224-0.15503-0.0672-0.0413-0.0448-0.062-0.0982-0.062-0.16024-0.00001-0.062,0.0206-0.11371,0.062-0.15504,0.0413-0.0413,0.093-0.062,0.15503-0.062h3.1111c0.0275,0.00001,0.0413-0.0172,0.0413-0.0517v-1.4986c-0.00001-0.069,0.0224-0.12758,0.0672-0.17585,0.0448-0.0482,0.10161-0.0724,0.17049-0.0724,0.0689,0.00001,0.12742,0.0241,0.17569,0.0724,0.0483,0.0483,0.0724,0.10689,0.0724,0.17585v1.4986c-0.00001,0.0345,0.0138,0.0517,0.0413,0.0517h1.6229c0.062,0.00001,0.11544,0.0207,0.16024,0.062s0.0672,0.093,0.0672,0.15504c-0.00001,0.062-0.0224,0.11545-0.0672,0.16024-0.0448,0.0448-0.0982,0.0672-0.16024,0.0672h-1.6229c-0.0276,0-0.0413,0.0138-0.0413,0.0413v3.5351c-0.00001,0.0345,0.0103,0.0586,0.0309,0.0722,0.47545,0.31018,1.0371,0.77187,1.685,1.3851,0.11019,0.11019,0.11019,0.22049,0,0.33089-0.11714,0.11019-0.2309,0.11019-0.34129,0-0.49609-0.47547-0.94053-0.85798-1.3333-1.1476-0.0276-0.0137-0.0413-0.0102-0.0413,0.0104v0.0621c-0.00001,0.68218-0.1602,1.1852-0.48057,1.509-0.32038,0.32385-0.81135,0.48577-1.4729,0.48577zm-3.8864-0.0104c-0.15835,0.0208-0.25477-0.0412-0.28926-0.1861-0.31017-1.2403-0.46526-2.5633-0.46526-3.969s0.15509-2.7286,0.46526-3.9689c0.0345-0.14488,0.13091-0.20692,0.28926-0.18611,0.062,0.007,0.11029,0.0397,0.14478,0.0983,0.0345,0.0586,0.0448,0.11887,0.0309,0.1809-0.2963,1.1919-0.44444,2.4839-0.44444,3.8759s0.14814,2.6841,0.44444,3.8762c0.0139,0.0618,0.004,0.12202-0.0309,0.18058-0.0345,0.0586-0.0828,0.0913-0.14478,0.0983z"/>
     <path style="" d="m163.37,209.55,0-0.27916c0-0.0275-0.0138-0.0483-0.0413-0.0621-0.57893-0.25486-1.1199-0.3823-1.6229-0.3823-1.0681,0-1.6021,0.37558-1.6021,1.1267,0,0.38588,0.13952,0.68559,0.41858,0.89914,0.27905,0.21355,0.67355,0.32032,1.1835,0.32032,0.64095,0,1.0786-0.11371,1.3128-0.34114,0.23426-0.22742,0.35139-0.65457,0.35139-1.2814zm2.5632-4.4962c-0.60627-0.0896-1.2884-0.14131-2.0465-0.15519-0.0206,0.00001-0.0309,0.0138-0.0309,0.0413v3.9691c0,0.0345,0.0138,0.0586,0.0413,0.0722,0.62708,0.31017,1.3265,0.75809,2.0983,1.3437,0.0551,0.0345,0.0861,0.0845,0.0931,0.14999,0.007,0.0655-0.0103,0.12234-0.0517,0.17049-0.0965,0.11714-0.20683,0.13091-0.33089,0.0413-0.69585-0.51689-1.2988-0.91655-1.8087-1.199-0.0276-0.0139-0.0413-0.007-0.0413,0.0208v0.0413c0,0.75095-0.16193,1.2814-0.48577,1.5915-0.32385,0.31007-0.87859,0.46511-1.6642,0.46511-0.65464,0-1.1663-0.14641-1.5349-0.43924-0.36864-0.29283-0.55296-0.69758-0.55296-1.2143,0-0.49628,0.1809-0.88222,0.54271-1.1578,0.36179-0.27558,0.87684-0.41337,1.5452-0.41338,0.51688,0.00001,1.0578,0.11367,1.6229,0.34099,0.0275,0.0139,0.0413,0.004,0.0413-0.0309v-3.9587c0-0.0828,0.031-0.15182,0.0931-0.20692,0.062-0.0551,0.13437-0.0826,0.21702-0.0827,0.7993,0.007,1.5676,0.062,2.3049,0.16529,0.062,0.0139,0.11202,0.045,0.14999,0.0932,0.038,0.0483,0.0534,0.10342,0.0465,0.16545-0.0275,0.14468-0.1103,0.20672-0.24824,0.1861zm-6.2844-0.12428c-0.52362,1.5711-1.1816,3.2456-1.974,5.0236-0.0276,0.0618-0.0723,0.10656-0.13437,0.13421-0.062,0.0277-0.12408,0.0277-0.18611,0.00016-0.0551-0.0208-0.0964-0.0622-0.12397-0.12428-0.0275-0.062-0.0275-0.1206,0-0.1757,0.76482-1.6951,1.4057-3.3178,1.9226-4.8681,0.0137-0.0208,0.003-0.0312-0.0312-0.0312h-1.5608c-0.062,0.00001-0.11372-0.0224-0.15504-0.0672-0.0413-0.0448-0.062-0.0982-0.062-0.16024,0-0.062,0.0207-0.11544,0.062-0.16024s0.093-0.0672,0.15504-0.0672h1.716c0.0206,0.00001,0.0378-0.0138,0.0517-0.0413,0.17222-0.52361,0.31343-0.97489,0.42363-1.3538,0.0481-0.14467,0.14467-0.2067,0.28956-0.1861,0.0618,0.007,0.10825,0.038,0.13927,0.0931,0.031,0.0551,0.0397,0.11367,0.026,0.1757-0.1655,0.56505-0.29304,0.98878-0.38262,1.2712-0.0137,0.0276-0.003,0.0413,0.0312,0.0413h1.7882c0.062,0.00001,0.11545,0.0224,0.16024,0.0672,0.0448,0.0448,0.0672,0.0982,0.0672,0.16024-0.00001,0.062-0.0224,0.11546-0.0672,0.16024-0.0448,0.0448-0.0982,0.0672-0.16024,0.0672h-1.933c-0.0275,0.00001-0.0483,0.0138-0.0621,0.0413z"/>
     <path style="" d="m175.99,210.45c-0.0759,0-0.13801-0.0258-0.18626-0.0774-0.0483-0.0516-0.0724-0.11193-0.0724-0.1809-0.0343-2.2051-0.46149-4.1138-1.2816-5.7261-0.0345-0.0551-0.0396-0.11192-0.0155-0.17049,0.0242-0.0586,0.0673-0.0983,0.12933-0.11908,0.15834-0.062,0.272-0.0241,0.34099,0.11388,0.85439,1.6606,1.2988,3.6314,1.3333,5.9122-0.00001,0.069-0.0241,0.12754-0.0724,0.17569-0.0483,0.0482-0.10678,0.0722-0.17554,0.0722zm-5.7677,1.0545c-0.50995,0-0.982-0.38072-1.4161-1.1422-0.43414-0.76146-0.65121-1.6797-0.65121-2.7547,0-1.1438,0.12754-2.2256,0.38262-3.2455,0.0137-0.069,0.0515-0.12238,0.11355-0.16024,0.062-0.0378,0.12754-0.0499,0.19652-0.0363,0.062,0.0139,0.11029,0.0467,0.14478,0.0984,0.0345,0.0517,0.0448,0.10852,0.0309,0.17033-0.24121,0.98542-0.36181,2.0432-0.36181,3.1733,0,0.95787,0.1757,1.7624,0.52709,2.4135,0.35139,0.65116,0.70626,0.97674,1.0646,0.97674,0.23426,0,0.53576-0.21534,0.90451-0.64601,0.36874-0.43067,0.70809-1.0354,1.0181-1.8141,0.0275-0.062,0.0706-0.10856,0.12917-0.13958,0.0586-0.031,0.11886-0.0327,0.1809-0.005,0.062,0.0277,0.10856,0.0725,0.13958,0.13438,0.031,0.0619,0.0327,0.12391,0.005,0.18595-0.33773,0.86828-0.73224,1.5505-1.1835,2.0467-0.45129,0.49618-0.85956,0.74426-1.2248,0.74426z"/>
     <path style="" d="m180.36,207.4c-0.6132,0.69585-1.2436,1.4607-1.8913,2.2945-0.0414,0.0484-0.0932,0.076-0.15519,0.0828-0.062,0.007-0.11713-0.0104-0.16529-0.0516-0.12407-0.0965-0.13784-0.20682-0.0413-0.33089,0.81992-1.0542,1.571-1.95,2.2531-2.6875,0.0208-0.0206,0.0312-0.0447,0.0312-0.0722v-1.2611c0-0.0275-0.0172-0.0413-0.0517-0.0413h-2.026c-0.062,0-0.11372-0.0207-0.15504-0.062-0.0413-0.0413-0.062-0.093-0.062-0.15503,0-0.062,0.0207-0.11371,0.062-0.15504,0.0413-0.0413,0.093-0.062,0.15504-0.062h2.026c0.0345,0.00001,0.0517-0.0138,0.0517-0.0413v-1.4986c0-0.062,0.0224-0.11544,0.0672-0.16024s0.0982-0.0672,0.16024-0.0672c0.062,0.00001,0.11713,0.0224,0.16529,0.0672,0.0482,0.0448,0.0722,0.0982,0.0722,0.16024v2.7906c0,0.007,0.003,0.0121,0.0104,0.0155,0.007,0.003,0.0139,0.002,0.0208-0.005,0.69584-0.68911,1.2987-1.1663,1.8087-1.4316,0.50995-0.26528,1.0095-0.39792,1.4986-0.39792,1.64,0,2.4601,1.1887,2.4601,3.566-0.00001,1.0405-0.25494,1.864-0.76477,2.4703-0.50986,0.60637-1.1954,0.90956-2.0568,0.90956-0.47547,0-0.92002-0.0828-1.3336-0.24825-0.14469-0.062-0.18601-0.16539-0.12397-0.31007,0.0208-0.0551,0.0605-0.0964,0.11908-0.12397,0.0586-0.0275,0.11539-0.031,0.17049-0.0104,0.37894,0.14489,0.76829,0.21734,1.168,0.21734,0.70972,0,1.2764-0.26013,1.7002-0.78039,0.42372-0.52025,0.63559-1.2283,0.6356-2.1241-0.00001-2.0604-0.66494-3.0906-1.9948-3.0906-0.44793,0-0.92512,0.14642-1.4316,0.43924-0.50649,0.29283-1.1249,0.82176-1.8552,1.5868-0.0208,0.0206-0.0312,0.0482-0.0312,0.0826v4.6306c0,0.062-0.0241,0.11544-0.0722,0.16024-0.0482,0.0448-0.10326,0.0672-0.16529,0.0672-0.062,0-0.11545-0.0224-0.16024-0.0672-0.0448-0.0448-0.0672-0.0982-0.0672-0.16024v-4.1243c0-0.007-0.003-0.0136-0.0104-0.0205-0.007-0.007-0.0139-0.007-0.0208,0z"/>
     <path style="" d="m189.93,211.23-0.083,0c-0.19283,0-0.3168-0.0931-0.37189-0.27916l-1.416-4.8372c-0.0208-0.062-0.0105-0.12059,0.0309-0.17569s0.0965-0.0826,0.16529-0.0827c0.0759,0.00001,0.14657,0.0241,0.21197,0.0722,0.0654,0.0482,0.10851,0.11019,0.12933,0.1861l1.2816,4.6615c0,0.007,0.003,0.0104,0.0103,0.0104,0.007,0,0.0102-0.003,0.0103-0.0104l1.2403-4.641c0.0208-0.0826,0.0657-0.14977,0.13453-0.2014,0.0689-0.0516,0.1481-0.0774,0.23768-0.0774h0.10346c0.0896,0.00001,0.16707,0.0258,0.23248,0.0774,0.0654,0.0516,0.1085,0.11877,0.12933,0.2014l1.2403,4.641c0,0.007,0.003,0.0104,0.0104,0.0104,0.0137,0,0.0205-0.003,0.0205-0.0104l1.2816-4.6719c0.0208-0.0757,0.0622-0.13594,0.12428-0.18074,0.062-0.0448,0.1309-0.0672,0.20661-0.0672,0.069,0.00001,0.12238,0.0258,0.16024,0.0774,0.0378,0.0516,0.0465,0.10846,0.0259,0.17049l-1.416,4.8476c-0.062,0.1861-0.18612,0.27916-0.37222,0.27916h-0.0826c-0.0896,0-0.16887-0.0259-0.23784-0.0776-0.069-0.0517-0.11377-0.11892-0.13437-0.20156l-1.2403-4.6098c0-0.007-0.003-0.0104-0.0104-0.0104-0.007,0-0.0104,0.003-0.0104,0.0104l-1.2403,4.6098c-0.0206,0.0826-0.0653,0.14983-0.13422,0.20156-0.0689,0.0517-0.1481,0.0776-0.23768,0.0776z"/>
     <path style="" d="m197.93,211.23-0.083,0c-0.19284,0-0.3168-0.0931-0.3719-0.27916l-1.416-4.8372c-0.0208-0.062-0.0105-0.12059,0.0309-0.17569s0.0965-0.0826,0.16528-0.0827c0.0759,0.00001,0.14657,0.0241,0.21197,0.0722,0.0654,0.0482,0.10851,0.11019,0.12933,0.1861l1.2816,4.6615c0,0.007,0.003,0.0104,0.0103,0.0104,0.007,0,0.0102-0.003,0.0102-0.0104l1.2403-4.641c0.0208-0.0826,0.0657-0.14977,0.13453-0.2014,0.0689-0.0516,0.14809-0.0774,0.23768-0.0774h0.10346c0.0896,0.00001,0.16707,0.0258,0.23248,0.0774,0.0654,0.0516,0.1085,0.11877,0.12932,0.2014l1.2403,4.641c-0.00001,0.007,0.003,0.0104,0.0104,0.0104,0.0137,0,0.0205-0.003,0.0205-0.0104l1.2816-4.6719c0.0208-0.0757,0.0622-0.13594,0.12428-0.18074,0.062-0.0448,0.1309-0.0672,0.20661-0.0672,0.069,0.00001,0.12238,0.0258,0.16024,0.0774,0.0378,0.0516,0.0465,0.10846,0.0259,0.17049l-1.416,4.8476c-0.062,0.1861-0.18611,0.27916-0.37221,0.27916h-0.0826c-0.0896,0-0.16887-0.0259-0.23784-0.0776-0.069-0.0517-0.11377-0.11892-0.13438-0.20156l-1.2403-4.6098c0-0.007-0.003-0.0104-0.0104-0.0104-0.007,0-0.0104,0.003-0.0104,0.0104l-1.2403,4.6098c-0.0206,0.0826-0.0653,0.14983-0.13422,0.20156-0.0689,0.0517-0.1481,0.0776-0.23768,0.0776z"/>
     <path style="" d="m205.92,211.23-0.0829,0c-0.19284,0-0.31681-0.0931-0.3719-0.27916l-1.416-4.8372c-0.0208-0.062-0.0105-0.12059,0.0309-0.17569s0.0965-0.0826,0.16529-0.0827c0.0759,0.00001,0.14657,0.0241,0.21197,0.0722,0.0654,0.0482,0.10851,0.11019,0.12933,0.1861l1.2816,4.6615c0,0.007,0.003,0.0104,0.0103,0.0104,0.007,0,0.0102-0.003,0.0103-0.0104l1.2403-4.641c0.0208-0.0826,0.0657-0.14977,0.13453-0.2014,0.0689-0.0516,0.1481-0.0774,0.23768-0.0774h0.10347c0.0896,0.00001,0.16707,0.0258,0.23247,0.0774s0.1085,0.11877,0.12933,0.2014l1.2403,4.641c0,0.007,0.003,0.0104,0.0104,0.0104,0.0137,0,0.0205-0.003,0.0205-0.0104l1.2816-4.6719c0.0208-0.0757,0.0622-0.13594,0.12428-0.18074,0.062-0.0448,0.1309-0.0672,0.20661-0.0672,0.069,0.00001,0.12238,0.0258,0.16024,0.0774,0.0378,0.0516,0.0465,0.10846,0.0259,0.17049l-1.416,4.8476c-0.062,0.1861-0.18612,0.27916-0.37222,0.27916h-0.0826c-0.0896,0-0.16887-0.0259-0.23784-0.0776-0.069-0.0517-0.11377-0.11892-0.13437-0.20156l-1.2403-4.6098c0-0.007-0.003-0.0104-0.0104-0.0104-0.007,0-0.0104,0.003-0.0104,0.0104l-1.2403,4.6098c-0.0206,0.0826-0.0653,0.14983-0.13422,0.20156-0.0689,0.0517-0.1481,0.0776-0.23768,0.0776z"/>
    </g>
    <g style="letter-spacing:0px;word-spacing:0px;" font-weight="normal" transform="scale(0.95848651,1.0433115)" font-stretch="normal" line-height="125%" font-size="10.33612919px" font-variant="normal" font-family="&apos;Rounded-L M+ 1c light&apos;" font-style="normal" fill="#FFF">
     <path style="" d="m185.14,231.25c-0.0759,0-0.13801-0.0258-0.18626-0.0774-0.0483-0.0516-0.0724-0.11193-0.0724-0.1809-0.0343-2.2051-0.46149-4.1138-1.2816-5.7261-0.0345-0.0551-0.0396-0.11192-0.0155-0.17049,0.0242-0.0586,0.0673-0.0982,0.12933-0.11908,0.15834-0.062,0.272-0.0241,0.34098,0.11387,0.8544,1.6607,1.2988,3.6314,1.3333,5.9122-0.00001,0.069-0.0241,0.12754-0.0724,0.17569-0.0483,0.0482-0.10678,0.0722-0.17554,0.0722zm-5.7677,1.0545c-0.50996,0-0.982-0.38073-1.4161-1.1422-0.43415-0.76146-0.65122-1.6797-0.65121-2.7547-0.00001-1.1438,0.12753-2.2256,0.38262-3.2455,0.0137-0.069,0.0515-0.12238,0.11355-0.16024,0.062-0.0378,0.12754-0.0499,0.19652-0.0363,0.062,0.0139,0.11029,0.0467,0.14478,0.0984,0.0345,0.0517,0.0448,0.10851,0.0309,0.17033-0.2412,0.98542-0.3618,2.0432-0.3618,3.1733,0,0.95787,0.1757,1.7624,0.52709,2.4135,0.35139,0.65116,0.70625,0.97674,1.0646,0.97674,0.23426,0,0.53576-0.21533,0.90451-0.646,0.36873-0.43067,0.70809-1.0354,1.0181-1.8141,0.0275-0.062,0.0706-0.10856,0.12917-0.13958,0.0586-0.031,0.11886-0.0327,0.1809-0.005,0.062,0.0277,0.10856,0.0724,0.13958,0.13438,0.031,0.0619,0.0327,0.12391,0.005,0.18594-0.33773,0.86829-0.73223,1.5505-1.1835,2.0467-0.45129,0.49617-0.85956,0.74426-1.2248,0.74426z"/>
     <path style="" d="m195.47,231.25c-0.0759,0-0.13801-0.0258-0.18626-0.0774-0.0483-0.0516-0.0724-0.11193-0.0724-0.1809-0.0343-2.2051-0.46149-4.1138-1.2816-5.7261-0.0345-0.0551-0.0396-0.11192-0.0155-0.17049,0.0242-0.0586,0.0673-0.0982,0.12933-0.11908,0.15834-0.062,0.272-0.0241,0.34098,0.11387,0.8544,1.6607,1.2988,3.6314,1.3333,5.9122-0.00001,0.069-0.0241,0.12754-0.0724,0.17569-0.0483,0.0482-0.10678,0.0722-0.17554,0.0722zm-5.7677,1.0545c-0.50996,0-0.982-0.38073-1.4161-1.1422-0.43415-0.76146-0.65122-1.6797-0.65122-2.7547,0-1.1438,0.12754-2.2256,0.38263-3.2455,0.0137-0.069,0.0515-0.12238,0.11355-0.16024,0.062-0.0378,0.12754-0.0499,0.19652-0.0363,0.062,0.0139,0.11029,0.0467,0.14478,0.0984,0.0345,0.0517,0.0448,0.10851,0.0309,0.17033-0.2412,0.98542-0.3618,2.0432-0.3618,3.1733,0,0.95787,0.1757,1.7624,0.52709,2.4135,0.35139,0.65116,0.70625,0.97674,1.0646,0.97674,0.23426,0,0.53576-0.21533,0.90451-0.646,0.36873-0.43067,0.70809-1.0354,1.0181-1.8141,0.0275-0.062,0.0706-0.10856,0.12917-0.13958,0.0586-0.031,0.11886-0.0327,0.1809-0.005,0.062,0.0277,0.10855,0.0724,0.13958,0.13438,0.031,0.0619,0.0327,0.12391,0.005,0.18594-0.33773,0.86829-0.73223,1.5505-1.1835,2.0467-0.45129,0.49617-0.85956,0.74426-1.2248,0.74426z"/>
     <path style="" d="m197.23,228.13c-0.0448-0.0414-0.0707-0.0932-0.0776-0.15519-0.007-0.062,0.012-0.11545,0.0568-0.16024,0.0448-0.0448,0.0982-0.0707,0.16024-0.0776,1.5986-0.19283,3.566-1.1713,5.9021-2.9354,0.007-0.007,0.0101-0.0138,0.0101-0.0207,0-0.007-0.007-0.0102-0.0205-0.0102h-4.2483c-0.062,0.00001-0.11372-0.0207-0.15504-0.062-0.0413-0.0413-0.062-0.093-0.062-0.15504,0-0.062,0.0207-0.11544,0.062-0.16024s0.093-0.0672,0.15504-0.0672h4.8684c0.0551,0,0.10503,0.0224,0.14983,0.0672s0.0672,0.0948,0.0672,0.14983c-0.00001,0.13775-0.0551,0.25141-0.16529,0.34099-1.7986,1.3576-3.3215,2.2569-4.5687,2.6979-0.0137,0.00001-0.0205,0.003-0.0205,0.0103,0,0.007,0.007,0.0103,0.0205,0.0103l6.0983-0.45454c0.062-0.007,0.11544,0.0103,0.16024,0.0516s0.0707,0.093,0.0776,0.15503c0.007,0.062-0.0103,0.11719-0.0516,0.16545-0.0413,0.0483-0.093,0.0758-0.15503,0.0825l-2.15,0.15519c-0.0414,0-0.0725,0.003-0.0931,0.0104-0.94399,0.32385-1.6641,0.71661-2.1602,1.1783-0.49618,0.46169-0.74427,0.95782-0.74426,1.4884-0.00001,1.0542,0.96816,1.5813,2.9045,1.5813,0.40648,0,0.80961-0.0276,1.2094-0.0826,0.062-0.007,0.11718,0.009,0.16545,0.0465,0.0482,0.0379,0.0792,0.088,0.0929,0.14998,0.007,0.062-0.009,0.11713-0.0464,0.16529-0.0379,0.0482-0.0878,0.0792-0.14983,0.0931-0.4067,0.0551-0.83054,0.0827-1.2715,0.0827-0.65464,0-1.2162-0.0568-1.6847-0.17049-0.46853-0.11367-0.82339-0.2687-1.0646-0.46511-0.2412-0.19641-0.41348-0.40486-0.51684-0.62535s-0.15504-0.4651-0.15503-0.73385c-0.00001-1.075,0.76482-1.9468,2.2945-2.6153,0.0139,0,0.0208-0.007,0.0208-0.0205,0-0.007-0.007-0.0104-0.0208-0.0104l-4.7337,0.3514c-0.062,0.007-0.11545-0.0102-0.16024-0.0514zm7.6537-3.225c0.20692,0.38588,0.41374,0.78901,0.62046,1.2094,0.0618,0.12408,0.0273,0.21366-0.10346,0.26875-0.13102,0.0482-0.22754,0.007-0.28957-0.12428-0.10326-0.22038-0.30998-0.61656-0.62014-1.1886-0.062-0.13079-0.031-0.22037,0.0931-0.26875,0.12406-0.0551,0.22395-0.0206,0.29966,0.10347zm1.7986,1.3229c-0.14469,0.0484-0.24457,0.0105-0.29966-0.11356-0.24121-0.50301-0.45139-0.91307-0.63055-1.2302-0.0276-0.0481-0.031-0.10151-0.0102-0.16008,0.0207-0.0586,0.0551-0.0982,0.1033-0.11877,0.12406-0.0483,0.22395-0.0105,0.29966,0.11356,0.24814,0.44098,0.46179,0.85441,0.64097,1.2403,0.062,0.13101,0.0275,0.2206-0.10347,0.26875z"/>
     <path style="" d="m209.65,232.29c-0.5375-0.6132-1.1163-1.2127-1.7365-1.7986-0.0553-0.0482-0.083-0.1084-0.083-0.18074,0-0.0723,0.0276-0.13264,0.0828-0.18091,0.0552-0.0483,0.1207-0.0724,0.19651-0.0724,0.0758,0,0.13779,0.0241,0.18595,0.0722,0.59259,0.55832,1.1782,1.1682,1.757,1.8295,0.11039,0.13795,0.10009,0.26202-0.0309,0.37221-0.0551,0.0482-0.11881,0.0671-0.19115,0.0568-0.0723-0.0103-0.13259-0.043-0.18074-0.0981z"/>
     <path style="" d="m220.87,229.85c-0.00001-0.47546,0.0138-1.0026,0.0413-1.5816,0-0.0345-0.0138-0.0517-0.0413-0.0517h-2.1809c-0.062,0-0.11545-0.0207-0.16024-0.062-0.0448-0.0413-0.0672-0.093-0.0672-0.15504,0-0.062,0.0224-0.11545,0.0672-0.16024,0.0448-0.0448,0.0982-0.0672,0.16024-0.0672h2.2014c0.0345,0.00001,0.0517-0.0138,0.0517-0.0413,0.0137-0.21365,0.0326-0.5427,0.0568-0.98715,0.0242-0.44444,0.0431-0.76308,0.0568-0.95592-0.00001-0.0275-0.0138-0.0413-0.0413-0.0413h-2.1084c-0.062,0-0.11372-0.0207-0.15504-0.062-0.0413-0.0413-0.062-0.093-0.062-0.15503,0-0.062,0.0207-0.11544,0.062-0.16024s0.093-0.0672,0.15504-0.0672h2.1292c0.0345,0.00001,0.0517-0.0138,0.0517-0.0413,0.0137-0.20671,0.0412-0.603,0.0826-1.1889,0.007-0.0688,0.0345-0.12553,0.0826-0.17033,0.0482-0.0448,0.10672-0.0638,0.1757-0.0569,0.069,0.007,0.12754,0.0344,0.1757,0.0826,0.0481,0.0483,0.0689,0.10689,0.0621,0.17586-0.0414,0.57178-0.069,0.95766-0.0827,1.1576,0,0.0276,0.0138,0.0413,0.0413,0.0413h3.9896c0.062,0.00001,0.1137,0.0224,0.15504,0.0672,0.0413,0.0448,0.062,0.0982,0.062,0.16024-0.00001,0.062-0.0207,0.11372-0.062,0.15503-0.0413,0.0413-0.093,0.062-0.15504,0.062h-4.0208c-0.0276,0-0.0413,0.0138-0.0413,0.0413-0.0137,0.19284-0.0326,0.51148-0.0568,0.95592-0.0242,0.44445-0.0431,0.7735-0.0568,0.98715,0,0.0275,0.0138,0.0413,0.0413,0.0413h3.566c0.062,0.00001,0.1137,0.0224,0.15503,0.0672,0.0413,0.0448,0.062,0.0982,0.062,0.16024-0.00001,0.062-0.0207,0.11372-0.062,0.15504-0.0413,0.0413-0.093,0.062-0.15503,0.062h-3.5868c-0.0275,0-0.0413,0.0173-0.0413,0.0517-0.0276,0.57893-0.0413,1.1061-0.0413,1.5816-0.00001,0.90257,0.13437,1.49,0.40312,1.7622,0.26875,0.27222,0.84073,0.40833,1.716,0.40833,0.84746,0,1.4917-0.16019,1.9327-0.48056,0.44097-0.32038,0.66146-0.7838,0.66147-1.3903-0.00001-0.20672-0.0171-0.39619-0.0514-0.56842-0.0139-0.069-0.004-0.13274,0.0309-0.19131,0.0345-0.0586,0.0827-0.0947,0.14479-0.10851,0.062-0.0138,0.12401-0.003,0.18595,0.0311,0.0619,0.0345,0.0964,0.0828,0.1033,0.14479,0.0484,0.24099,0.0725,0.48209,0.0725,0.72329-0.00001,0.74421-0.26534,1.3145-0.796,1.7108-0.53067,0.39629-1.2921,0.59444-2.2842,0.59444-1.0338,0-1.7298-0.17917-2.088-0.5375-0.35823-0.35833-0.53735-1.0578-0.53734-2.0983z"/>
     <path style="" d="m233.11,226.95c-0.7581,0.00001-1.8469,0.18948-3.2663,0.56841-0.062,0.0139-0.12234,0.005-0.1809-0.0257-0.0586-0.031-0.0947-0.0775-0.10851-0.13958-0.0138-0.062-0.003-0.12233,0.0311-0.1809,0.0345-0.0586,0.0828-0.0948,0.14478-0.10866,1.509-0.39261,2.6494-0.58891,3.4212-0.58892,2.0671,0.00001,3.1007,0.86818,3.1007,2.6045-0.00001,0.97847-0.42206,1.7313-1.2662,2.2585-0.84411,0.5272-2.0827,0.80457-3.7158,0.83212-0.15162,0-0.23426-0.0758-0.24793-0.22743-0.007-0.062,0.0102-0.11719,0.0516-0.16545,0.0413-0.0483,0.093-0.0724,0.15504-0.0724,3.0113-0.0412,4.517-0.90603,4.517-2.5944-0.00001-0.73033-0.21535-1.2729-0.64601-1.6278-0.43068-0.35485-1.0939-0.53228-1.9898-0.53229z"/>
     <path style="" d="m243.56,232.39c-1.2678,0-2.236-0.19294-2.9044-0.57882-0.66841-0.38588-1.0026-0.94409-1.0026-1.6746,0-0.9095,0.64086-1.7191,1.9226-2.4288,0.0275-0.0139,0.0344-0.0346,0.0205-0.0621-0.30303-1.1782-0.54759-2.3049-0.73369-3.3799-0.007-0.0688,0.0102-0.13074,0.0516-0.18595,0.0413-0.0552,0.0965-0.0896,0.16544-0.10331,0.0757-0.0139,0.14289,0.002,0.20157,0.0464,0.0587,0.0448,0.0914,0.10168,0.0981,0.17065,0.20671,1.2058,0.43413,2.2773,0.68228,3.2146,0.0139,0.0276,0.0311,0.0344,0.0517,0.0205,1.0266-0.48913,2.4117-0.94041,4.1552-1.3538,0.0618-0.0139,0.12206-0.005,0.18074,0.0257,0.0587,0.031,0.0948,0.081,0.10851,0.14998,0.0345,0.14469-0.0241,0.23764-0.1757,0.27885-4.1414,0.97848-6.2122,2.1741-6.2122,3.5868,0,1.2058,1.1301,1.8087,3.3903,1.8087,0.85461,0,1.8055-0.0654,2.8528-0.1962,0.062-0.007,0.11717,0.0103,0.16544,0.0516,0.0482,0.0413,0.0759,0.093,0.0828,0.15504,0.007,0.062-0.009,0.11892-0.0465,0.17065-0.038,0.0517-0.088,0.081-0.14998,0.0877-1.0542,0.13101-2.0224,0.19651-2.9045,0.19651z"/>
     <path style="" d="m251.52,227.25c-0.78564,0.2963-1.4988,0.56852-2.1396,0.81666-0.13795,0.0482-0.23795-0.0001-0.29998-0.14478-0.0275-0.0551-0.0292-0.11366-0.005-0.1757,0.0242-0.062,0.0673-0.10335,0.12933-0.12397,0.31691-0.12406,0.72513-0.28083,1.2247-0.47031,0.49954-0.18946,0.81482-0.30838,0.94583-0.35675,0.0275-0.0137,0.0344-0.0343,0.0205-0.0618-0.36506-1.1784-0.57178-1.8366-0.62014-1.9743-0.0206-0.062-0.0137-0.12233,0.0208-0.1809,0.0345-0.0586,0.0828-0.0981,0.14478-0.11876,0.0688-0.0206,0.13243-0.0154,0.191,0.0155,0.0586,0.0309,0.0983,0.0809,0.11907,0.14983l0.62015,1.9535c0.0137,0.0275,0.0309,0.0345,0.0517,0.0208,0.88889-0.32384,1.6227-0.57535,2.2014-0.75452,0.0275-0.0139,0.0345-0.0346,0.0208-0.0621-0.0484-0.16528-0.11735-0.4202-0.20693-0.76477-0.0896-0.34455-0.15845-0.59958-0.20661-0.76508-0.0206-0.0688-0.0137-0.13243,0.0207-0.191,0.0344-0.0586,0.0861-0.0948,0.15503-0.10867,0.069-0.0206,0.13274-0.012,0.19131,0.0259,0.0586,0.0379,0.0982,0.0913,0.11876,0.16024l0.40313,1.5194c0.0139,0.0276,0.0311,0.0379,0.0517,0.0309,0.47545-0.11713,0.88888-0.17569,1.2403-0.1757,0.63402,0.00001,1.1371,0.18606,1.5092,0.55816,0.3721,0.37211,0.55815,0.87518,0.55816,1.5092-0.00001,0.65464-0.19641,1.1697-0.58923,1.5452-0.39282,0.37548-0.93032,0.56321-1.6125,0.56321-0.39956,0-0.80952-0.0448-1.2299-0.13437-0.062-0.0137-0.1103-0.0498-0.14478-0.10836-0.0345-0.0586-0.0448-0.11886-0.0309-0.1809,0.0275-0.14467,0.11365-0.19977,0.25834-0.16528,0.39954,0.0826,0.77164,0.12396,1.1163,0.12396,0.54422,0,0.96968-0.14299,1.2764-0.42899,0.3067-0.28599,0.46005-0.68396,0.46006-1.1939-0.00001-0.50995-0.14301-0.90787-0.42899-1.1938-0.286-0.28589-0.68398-0.42883-1.1939-0.42884-0.32385,0.00001-0.68218,0.0516-1.075,0.15488-0.0275,0.0139-0.0378,0.0311-0.0309,0.0517,0.0414,0.16551,0.0966,0.39293,0.16545,0.68229,0.0689,0.28936,0.11707,0.48577,0.14462,0.58923,0.0345,0.15835-0.0241,0.25824-0.17569,0.29966-0.15163,0.0345-0.24468-0.0206-0.27916-0.16529-0.1653-0.65462-0.27202-1.075-0.32017-1.2611-0.007-0.0345-0.0277-0.0448-0.0621-0.0309-0.70279,0.22038-1.4229,0.46842-2.1604,0.7441-0.0412,0.0206-0.055,0.0412-0.0413,0.0618,0.4618,1.5092,0.95103,3.2251,1.4677,5.1476,0.0139,0.069,0.005,0.13443-0.0257,0.19636-0.031,0.0619-0.081,0.0998-0.14983,0.11355-0.0689,0.0138-0.13433,0.005-0.19636-0.0257-0.062-0.0309-0.1-0.0809-0.11387-0.14984-0.50302-1.8882-0.98531-3.5936-1.4469-5.1163-0.0139-0.0208-0.0277-0.0277-0.0413-0.0208z"/>
     <path style="" d="m261.87,228.51c-0.64076,0.60626-1.3367,1.2953-2.0879,2.067-0.10325,0.11041-0.21003,0.11046-0.32032,0.00016-0.1103-0.11029-0.11372-0.22054-0.0102-0.33073,0.82685-0.84074,1.633-1.6332,2.4184-2.3774,0.0208-0.0206,0.0312-0.0481,0.0312-0.0826v-1.5917c0-0.0275-0.0139-0.0413-0.0416-0.0413h-2.2323c-0.062,0.00001-0.11377-0.0224-0.15519-0.0672-0.0414-0.0448-0.0621-0.0982-0.0621-0.16024,0-0.062,0.0207-0.11544,0.0621-0.16024s0.0932-0.0672,0.15519-0.0672h2.2323c0.0278,0,0.0416-0.0138,0.0416-0.0413v-1.5712c0-0.069,0.0241-0.12753,0.0722-0.1757,0.0481-0.0482,0.10672-0.0722,0.17569-0.0722,0.069,0.00001,0.12586,0.0241,0.17065,0.0722,0.0448,0.0482,0.0672,0.10673,0.0672,0.1757v3.2559c0,0.007,0.005,0.0121,0.0155,0.0156,0.0103,0.003,0.0189,0.002,0.0259-0.005,1.6331-1.4815,2.7494-2.2222,3.349-2.2222,0.35139,0.00001,0.60289,0.14296,0.75452,0.42884,0.15161,0.28589,0.22742,0.77003,0.22743,1.4524-0.00001,0.37201-0.0379,0.8991-0.11372,1.5813-0.0758,0.68218-0.11372,1.2059-0.11371,1.5712-0.00001,0.30997,0.0155,0.56489,0.0465,0.76477s0.0758,0.34462,0.13437,0.4342c0.0586,0.0896,0.11539,0.14815,0.17049,0.17569,0.0551,0.0275,0.12396,0.0413,0.20661,0.0413,0.33078,0,0.76839-0.286,1.3128-0.85798,0.10324-0.10325,0.20313-0.10325,0.29966,0,0.0965,0.1104,0.0965,0.2207,0,0.33089-0.28937,0.30996-0.59082,0.558-0.90435,0.7441-0.31355,0.18611-0.58062,0.27916-0.8012,0.27916-0.34446,0-0.59076-0.14299-0.73891-0.42899-0.14815-0.28599-0.22223-0.77007-0.22222-1.4522-0.00001-0.43404,0.0344-0.96113,0.10315-1.5813,0.0759-0.66851,0.11386-1.1922,0.11387-1.5712-0.00001-0.39975-0.0293-0.70987-0.0878-0.93037-0.0586-0.22048-0.12402-0.35485-0.19636-0.40312-0.0723-0.0483-0.16371-0.0724-0.27411-0.0724-0.47547,0-1.5676,0.78901-3.2764,2.367-0.0206,0.0208-0.0309,0.0415-0.0309,0.0621v4.3514c0,0.069-0.0224,0.12759-0.0672,0.17585-0.0448,0.0483-0.10167,0.0724-0.17065,0.0724-0.069,0-0.12754-0.0241-0.17569-0.0724-0.0482-0.0483-0.0722-0.10688-0.0722-0.17585v-3.8966c0-0.007-0.003-0.0121-0.0104-0.0156-0.007-0.003-0.0139-0.002-0.0208,0.005z"/>
    </g>
   </g>
  </g>
 </g>
</svg>
