<?xml version="1.0" encoding="UTF-8" standalone="no"?>
<!-- Created with Inkscape (http://www.inkscape.org/) -->
<svg xmlns:rdf="http://www.w3.org/1999/02/22-rdf-syntax-ns#" xmlns="http://www.w3.org/2000/svg" height="100%" width="100%" version="1.1" xmlns:cc="http://creativecommons.org/ns#" xmlns:dc="http://purl.org/dc/elements/1.1/" viewBox="0 0 679.10555 277.57272">
 <metadata>
  <rdf:RDF>
   <cc:Work rdf:about="">
    <dc:format>image/svg+xml</dc:format>
    <dc:type rdf:resource="http://purl.org/dc/dcmitype/StillImage"/>
    <dc:title/>
   </cc:Work>
  </rdf:RDF>
 </metadata>
 <g transform="translate(68.12411,54.252797)">
  <g transform="matrix(2.343588,0,0,2.343588,-162.68498,-174.95419)">
   <g font-size="53.61953735px" font-family="HGSKyokashotai" style="word-spacing:0px;letter-spacing:0px;" line-height="125%" font-stretch="normal" font-variant="normal" font-weight="normal" font-style="normal" fill="#000">
    <path d="m47.708,95.417,0-26.602,8.5053,0,0-2.3525-8.5053,0,0-1.4477c-0.07038-3.0198,0.38705-5.591,1.3723-7.7136,0.98524-2.1225,2.9205-3.2309,5.8059-3.3252,0.95633,0.0076,1.7581,0.09806,2.4053,0.27144,0.64718,0.17346,1.1926,0.38459,1.6362,0.63337l0.96514-2.2922c-0.46625-0.28271-1.1172-0.53154-1.9529-0.74648-0.83572-0.21485-1.7732-0.32795-2.8125-0.33931-1.3346,0.0026-2.5863,0.22374-3.755,0.66353-1.1687,0.43988-2.2093,1.0833-3.1216,1.9303-1.2278,1.1776-2.12,2.6831-2.6768,4.5166-0.55672,1.8335-0.83068,3.9875-0.82188,6.4619v1.3874h-4.4034v2.3525h4.4034v26.602z"/>
    <path d="m105.08,95.417,2.8954,0-2.8954-40.656-3.4986,0-10.255,24.309c-1.1436,2.6717-2.1289,5.0645-2.9557,7.1782-0.82693,2.1138-1.5106,4.0239-2.0509,5.7305h-0.12064c-0.598-1.833-1.297-3.821-2.094-5.964-0.796-2.142-1.706-4.477-2.729-7.005l-9.772-24.249h-3.378l-3.2573,40.656h2.8954l1.4477-18.579c0.26892-3.4194,0.48507-6.805,0.64845-10.157,0.16336-3.3516,0.28903-6.2394,0.37701-8.6636h0.12064c0.66101,2.1502,1.4653,4.4852,2.4128,7.0048,0.94753,2.5197,2.0534,5.3523,3.3177,8.4977l8.8069,21.897h2.2319l9.4101-22.198c1.2868-3.0537,2.4229-5.8134,3.4081-8.2791,0.98521-2.4656,1.88-4.7729,2.6843-6.9219h0.12064c0.0138,2.2822,0.12185,5.1072,0.32422,8.4751,0.20229,3.368,0.41593,6.6152,0.64092,9.7419z"/>
    <path d="m141.5,80.94c0.0578-0.22996,0.093-0.47878,0.10557-0.74648,0.0125-0.26766,0.0176-0.62205,0.0151-1.0632,0.0432-1.3807-0.251-3.1099-0.88248-5.1876-0.63154-2.0777-1.8596-3.941-3.6841-5.5898-1.8246-1.6488-4.5048-2.5201-8.0406-2.6139-4.1923,0.04904-7.6306,1.4741-10.315,4.2753-2.6843,2.8012-4.0717,6.6844-4.1622,11.65,0.0566,4.2715,1.4062,7.7324,4.0491,10.383,2.6428,2.6504,6.2395,4.0151,10.79,4.0943,3.0336-0.05278,5.3962-0.32423,7.0877-0.81434s2.7873-0.8822,3.2875-1.1763l-0.78418-2.3525c-0.89228,0.44487-2.0484,0.85204-3.4685,1.2215-1.4201,0.36947-3.3604,0.56551-5.821,0.58813-3.5188,0.000002-6.4192-1.0556-8.7013-3.1669-2.2822-2.1112-3.4634-5.2781-3.5439-9.5006zm-23.887-2.3525c0.2639-2.3613,1.2592-4.651,2.9859-6.8691,1.7267-2.218,4.411-3.4069,8.0529-3.5665,2.8578,0.07301,5.004,0.75144,6.4387,2.0353,1.4346,1.2839,2.3834,2.7353,2.8463,4.3543,0.46281,1.619,0.66537,2.9677,0.60768,4.046z"/>
    <path d="m172.87,66.463-0.18096,5.3686-0.12065,0c-0.64596-1.4678-1.8725-2.83-3.6796-4.0868-1.8071-1.2567-4.3004-1.9252-7.4798-2.0057-3.8229,0.0415-7.1556,1.4213-9.9982,4.1395s-4.3356,6.526-4.4788,11.423c0.0591,3.7814,1.3283,7.0463,3.8078,9.7947,2.4794,2.7484,5.8147,4.1886,10.006,4.3205,3.0135-0.06409,5.4766-0.705,7.3894-1.9227,1.9126-1.2177,3.29-2.6277,4.132-4.23h0.12064v4.2225c-0.0616,4.3657-1.175,7.5175-3.3403,9.4553s-5.013,2.8879-8.543,2.8502c-2.105-0.0176-3.9573-0.28402-5.5571-0.79926-1.5998-0.51525-2.9846-1.1738-4.1546-1.9755l-1.0858,2.3525c1.312,0.96262,2.8954,1.6764,4.7503,2.1414,1.8549,0.46497,3.7097,0.6962,5.5646,0.6937,1.7945,0.0213,3.6645-0.2325,5.6099-0.76156,1.9453-0.52908,3.6946-1.4615,5.2479-2.7974,1.3735-1.1775,2.4568-2.8489,3.2498-5.0142,0.79294-2.1653,1.1976-4.9979,1.214-8.4977v-17.674c-0.001-1.1737,0.0163-2.3399,0.0528-3.4986,0.0364-1.1586,0.0993-2.3249,0.1885-3.4986zm-0.48257,16.468c-0.003,0.54919-0.0578,1.0946-0.16588,1.6362-0.10811,0.54164-0.25388,1.0418-0.43733,1.5005-0.82442,2.0308-2.1465,3.6846-3.9661,4.9614-1.8197,1.2768-3.8958,1.9353-6.2282,1.9755-4.0239-0.14075-6.9847-1.4276-8.8823-3.8606-1.8976-2.4329-2.8376-5.1675-2.82-8.2037,0.0591-3.9108,1.1624-7.0073,3.3101-9.2895,2.1477-2.2821,4.9853-3.4483,8.5128-3.4986,2.6101,0.04778,4.7942,0.72137,6.5524,2.0208,1.7581,1.2994,2.9922,2.9382,3.7022,4.9162,0.14952,0.44992,0.25759,0.92243,0.32423,1.4175,0.0666,0.49516,0.0993,1.028,0.098,1.5985z"/>
    <path d="m206.2,95.417c-0.17848-1.1737-0.30415-2.34-0.37701-3.4986-0.0729-1.1587-0.1081-2.3249-0.10556-3.4986v-10.496c0.0473-1.5937-0.16796-3.3258-0.64566-5.1966-0.47776-1.8707-1.5017-3.4867-3.0719-4.848s-3.9704-2.0747-7.2006-2.1403c-1.4113-0.01631-2.947,0.18225-4.607,0.59567-1.6601,0.41348-3.3013,1.1398-4.9237,2.1791l0.96514,2.1112c1.2215-0.83944,2.5486-1.4527,3.9812-1.8398,1.4326-0.38703,2.8803-0.57805,4.3431-0.57305,2.532,0.04732,4.3848,0.62297,5.5585,1.727,1.1736,1.104,1.9183,2.3321,2.2341,3.6841,0.31573,1.352,0.45276,2.4237,0.41108,3.2149v0.66353c-6.7283-0.04522-11.685,0.88975-14.869,2.8049-3.1845,1.9152-4.7629,4.5392-4.7352,7.8719-0.0264,1.8624,0.68992,3.6268,2.1489,5.2932s3.8191,2.5561,7.0802,2.6692c2.6654-0.07666,4.8898-0.66228,6.673-1.7569s3.0575-2.2382,3.8229-3.4308h0.12064l0.48257,4.4638zm-3.4383-9.2895c-0.00002,0.24381-0.0302,0.51023-0.0905,0.79926-0.0603,0.28905-0.15083,0.58563-0.27145,0.88974-0.55799,1.3811-1.6287,2.6906-3.2121,3.9284s-3.7701,1.8989-6.5599,1.9831c-1.7418,0.0025-3.2197-0.50016-4.4336-1.508-1.214-1.0079-1.8473-2.536-1.9001-4.5844,0.0614-2.2069,0.9171-3.8788,2.567-5.0156s3.7254-1.8882,6.2265-2.2542c2.5011-0.36601,5.0591-0.49633,7.6742-0.39097z"/>
    <path d="m215.86,95.417,2.9557,0,0-17.674c0.005-0.46244,0.0553-0.92491,0.1508-1.3874,0.0955-0.46244,0.20609-0.86458,0.33177-1.2064,0.69996-1.8963,1.924-3.5024,3.672-4.8182,1.748-1.3157,3.8015-2.0019,6.1603-2.0585,3.2825,0.09051,5.63,1.1612,7.0425,3.2121s2.1012,4.5392,2.066,7.4647v16.468h2.9557v-16.468c-0.0901-3.9421-0.86835-6.8621-2.3346-8.76-1.4664-1.8979-3.0801-3.1289-4.8413-3.693-1.7612-0.56409-3.1293-0.81654-4.1041-0.75736-2.678,0.04904-4.9828,0.68995-6.9143,1.9227-1.9316,1.2328-3.3466,2.7635-4.2451,4.592h-0.12065l-0.24128-5.7908h-2.7748c0.0892,1.1738,0.15206,2.34,0.18851,3.4986,0.0364,1.1587,0.054,2.3249,0.0528,3.4986z"/>
    <path d="m275.81,80.94c0.0578-0.22996,0.093-0.47878,0.10556-0.74648,0.0125-0.26766,0.0176-0.62205,0.0151-1.0632,0.0432-1.3807-0.25099-3.1099-0.88248-5.1876-0.63154-2.0777-1.8596-3.941-3.6841-5.5898-1.8246-1.6488-4.5048-2.5201-8.0406-2.6139-4.1923,0.04904-7.6306,1.4741-10.315,4.2753-2.6843,2.8012-4.0717,6.6844-4.1622,11.65,0.0566,4.2715,1.4062,7.7324,4.0491,10.383,2.6428,2.6504,6.2395,4.0151,10.79,4.0943,3.0336-0.05278,5.3962-0.32423,7.0877-0.81434s2.7873-0.8822,3.2875-1.1763l-0.78417-2.3525c-0.89228,0.44487-2.0484,0.85204-3.4685,1.2215-1.4201,0.36947-3.3604,0.56551-5.821,0.58813-3.5188,0.000002-6.4192-1.0556-8.7013-3.1669-2.2822-2.1112-3.4634-5.2781-3.5439-9.5006zm-23.887-2.3525c0.2639-2.3613,1.2592-4.651,2.9859-6.8691,1.7267-2.218,4.411-3.4069,8.0529-3.5665,2.8578,0.07301,5.004,0.75144,6.4387,2.0353,1.4346,1.2839,2.3834,2.7353,2.8463,4.3543,0.46281,1.619,0.66537,2.9677,0.60768,4.046z"/>
   </g>
   <g transform="matrix(0.83703555,0,0,0.83703555,58.056563,11.502425)">
    <path stroke-linejoin="round" d="m284.24,52.961,28.199,0c6.4326,0,11.611,5.1786,11.611,11.611v28.199c0,6.4326-5.1786,11.611-11.611,11.611h-28.2c-6.4326,0-11.611-5.1786-11.611-11.611v-28.197c0-6.4326,5.1786-11.611,11.611-11.611z" stroke="#000" stroke-miterlimit="4" stroke-width="1.96543276" fill="none"/>
    <g font-size="50.6968956px" font-family="HGSKyokashotai" style="word-spacing:0px;letter-spacing:0px;" line-height="125%" font-stretch="normal" font-variant="normal" font-weight="normal" font-style="normal" fill="#000">
     <path d="m286.65,95.725c1.2226,0.86738,2.7697,1.5565,4.6411,2.0675,1.8714,0.51092,3.7464,0.77232,5.6249,0.78421,4.5614-0.11288,7.886-1.2274,9.9737-3.3436,2.0876-2.1162,3.1166-4.5567,3.0869-7.3216-0.0107-3.0453-0.93038-5.4098-2.759-7.0935s-4.5021-3.0643-8.0203-4.142c-3.081-0.96836-5.3029-2.1114-6.6658-3.4291s-2.0306-2.9883-2.0033-5.0118c-0.0535-1.6219,0.59528-3.1974,1.9463-4.7266s3.725-2.349,7.122-2.4596c1.8952,0.03687,3.4945,0.27689,4.7979,0.72005,1.3034,0.44323,2.2326,0.8686,2.7875,1.2761l1.0836-2.3384c-0.75216-0.50494-1.8572-0.94933-3.3151-1.3332-1.4579-0.38375-3.2046-0.58574-5.2399-0.60598-3.5907,0.05826-6.4614,0.99693-8.612,2.816-2.1506,1.8192-3.2533,4.1694-3.3079,7.0507-0.0321,2.4845,0.80203,4.5734,2.5023,6.2665,1.7003,1.6932,4.4593,3.1404,8.277,4.3417,3.1808,0.99691,5.4312,2.197,6.7513,3.6002,1.3201,1.4033,1.9593,3.1879,1.9178,5.354-0.0274,2.4061-0.91375,4.3381-2.6592,5.796-1.7455,1.4579-4.186,2.2065-7.3216,2.2457-1.8619-0.01188-3.599-0.27328-5.2114-0.78421-1.6124-0.51092-3.0501-1.2001-4.3131-2.0675z"/>
    </g>
   </g>
  </g>
  <g font-size="29.07247353px" font-family="HGSKyokashotai" style="word-spacing:0px;letter-spacing:0px;" line-height="125%" font-stretch="normal" font-variant="normal" font-weight="normal" font-style="normal" fill="#000">
   <path d="m152.81,92.863c0.30283,0.000021,0.45425,0.18929,0.45426,0.56782-0.00001,0.30286-0.15143,0.45428-0.45426,0.45426h-7.6088c-0.22713,0.00002-0.3407,0.15144-0.34069,0.45426v7.3817h7.041c0.30283,0.00001,0.45425,0.18928,0.45426,0.56782-0.00001,0.30285-0.15143,0.45427-0.45426,0.45426h-7.041v9.0851c-0.00001,0.45426-0.18928,0.68139-0.56783,0.68139s-0.56782-0.22713-0.56782-0.68139v-17.716c0-0.83278,0.30284-1.2492,0.90852-1.2492z"/>
   <path d="m155.76,99.79c0-0.45424,0.18927-0.68137,0.56782-0.68139,0.37855,0.000015,0.56782,0.22714,0.56783,0.68139v1.7035c0.37854-0.60567,0.71923-1.0599,1.0221-1.3628,0.68139-0.68138,1.4006-1.0221,2.1577-1.0221,0.8328,0.000015,1.5142,0.265,2.0442,0.79495,0.37854,0.37856,0.45425,0.71925,0.22712,1.0221s-0.56782,0.26499-1.0221-0.11357c-0.45427-0.37853-0.90853-0.56781-1.3628-0.56782-0.52997,0.00001-1.0599,0.265-1.5899,0.79495-0.83281,0.83282-1.3249,1.7035-1.4763,2.612v8.1766c-0.00001,0.45426-0.18928,0.68139-0.56783,0.68139s-0.56782-0.22713-0.56782-0.68139z"/>
   <path d="m169.39,100.02c-0.83281,0.00001-1.552,0.30285-2.1577,0.90852-1.0599,1.0599-1.5899,2.6877-1.5899,4.8833s0.52997,3.8233,1.5899,4.8833c0.60567,0.60568,1.3249,0.90852,2.1577,0.90851,0.8328,0.00001,1.552-0.30283,2.1577-0.90851,1.0599-1.0599,1.5899-2.6877,1.5899-4.8833-0.00001-2.1956-0.52998-3.8233-1.5899-4.8833-0.60569-0.60567-1.3249-0.90851-2.1577-0.90852zm0-1.0221c1.2114,0.000014,2.2334,0.41642,3.0662,1.2492,1.2113,1.2114,1.817,3.0662,1.817,5.5646-0.00001,2.4984-0.60569,4.3533-1.817,5.5647-0.83281,0.8328-1.8549,1.2492-3.0662,1.2492-1.2114,0-2.2334-0.4164-3.0662-1.2492-1.2114-1.2114-1.817-3.0662-1.817-5.5647,0-2.4984,0.60567-4.3533,1.817-5.5646,0.8328-0.83279,1.8549-1.2492,3.0662-1.2492z"/>
   <path d="m176.77,99.79c0-0.45424,0.15141-0.68137,0.45425-0.68139,0.45426,0.000015,0.68139,0.22714,0.68139,0.68139v2.1577c0.30284-0.60567,0.71924-1.1735,1.2492-1.7035,0.75709-0.75708,1.6278-1.1356,2.612-1.1356,0.98422,0.000015,1.817,0.34071,2.4984,1.0221,0.8328,0.83281,1.2492,2.1956,1.2492,4.0883v7.6088c-0.00001,0.45426-0.15143,0.68139-0.45425,0.68139-0.45427,0-0.6814-0.22713-0.68139-0.68139v-7.7224c-0.00001-1.5899-0.30285-2.6877-0.90852-3.2934-0.45426-0.45424-1.0599-0.68137-1.817-0.68138-0.7571,0.00001-1.4763,0.3407-2.1577,1.0221-1.0599,1.06-1.5899,2.1199-1.5899,3.1798v7.4952c0,0.45426-0.22713,0.68139-0.68139,0.68139-0.30284,0-0.45425-0.22713-0.45425-0.68139z"/>
   <path d="m190.06,99.109,0-2.9527c-0.00001-0.45424,0.18927-0.68137,0.56782-0.68139,0.37854,0.000018,0.56781,0.22715,0.56782,0.68139v2.9527h1.9306c0.30283,0.000015,0.45425,0.15143,0.45426,0.45426-0.00001,0.37856-0.15143,0.56784-0.45426,0.56783h-1.9306v11.697c-0.00001,0.45426-0.18928,0.68139-0.56782,0.68139-0.37855,0-0.56783-0.22713-0.56782-0.68139v-11.697h-1.9306c-0.30284,0.00001-0.45426-0.18926-0.45426-0.56783,0-0.30282,0.15142-0.45424,0.45426-0.45426z"/>
   <path d="m197.21,94.68c0.15142,0.15144,0.22713,0.34071,0.22713,0.56782,0,0.30286-0.0757,0.52998-0.22713,0.68139-0.15142,0.15144-0.3407,0.22714-0.56782,0.22713-0.22713,0.000017-0.41641-0.07569-0.56782-0.22713-0.15142-0.1514-0.22713-0.37853-0.22713-0.68139,0-0.22711,0.0757-0.41638,0.22713-0.56782,0.15141-0.1514,0.34069-0.22711,0.56782-0.22713,0.22712,0.000019,0.4164,0.07573,0.56782,0.22713zm-1.1356,5.1104c-0.00001-0.45424,0.18927-0.68137,0.56782-0.68139,0.37854,0.000015,0.56782,0.22714,0.56782,0.68139v12.038c0,0.45426-0.18928,0.68139-0.56782,0.68139-0.37855,0-0.56783-0.22713-0.56782-0.68139z"/>
   <path d="m204.26,99.109c1.0599,0.000015,2.0063,0.41642,2.8391,1.2492,1.0599,1.06,1.5899,2.5363,1.5899,4.429-0.00001,0.75711-0.37856,1.1356-1.1356,1.1356h-6.7003c0,2.2713,0.45425,3.8233,1.3628,4.6561,0.60567,0.60567,1.2871,0.90851,2.0442,0.90851,0.75709,0,1.4385-0.30284,2.0442-0.90851,0.45425-0.45426,0.8328-1.1735,1.1356-2.1577,0.15141-0.30283,0.37854-0.41639,0.68139-0.34069,0.37854,0.15142,0.4921,0.45426,0.34069,0.90851-0.30285,1.0599-0.7571,1.8549-1.3628,2.3849-0.7571,0.75709-1.7035,1.1356-2.8391,1.1356-1.0599,0-2.0063-0.4164-2.8391-1.2492-1.1356-1.1356-1.7035-3.0284-1.7035-5.6782-0.00001-2.4227,0.56782-4.2019,1.7035-5.3375,0.75709-0.75708,1.7035-1.1356,2.8391-1.1356zm-2.0442,1.9306c-0.83281,0.83282-1.2871,2.1199-1.3628,3.8612h6.3596c0.22712,0.00001,0.34069-0.15141,0.3407-0.45426-0.00001-1.4385-0.41641-2.5741-1.2492-3.4069-0.60569-0.60566-1.2492-0.9085-1.9306-0.90851-0.83281,0.00001-1.552,0.30285-2.1577,0.90851z"/>
   <path d="m211.18,99.79c0-0.45424,0.18928-0.68137,0.56783-0.68139,0.37854,0.000015,0.56781,0.22714,0.56782,0.68139v1.7035c0.37854-0.60567,0.71923-1.0599,1.0221-1.3628,0.68138-0.68138,1.4006-1.0221,2.1577-1.0221,0.8328,0.000015,1.5142,0.265,2.0442,0.79495,0.37854,0.37856,0.45425,0.71925,0.22713,1.0221-0.22714,0.30285-0.56783,0.26499-1.0221-0.11357-0.45427-0.37853-0.90852-0.56781-1.3628-0.56782-0.52997,0.00001-1.0599,0.265-1.5899,0.79495-0.8328,0.83282-1.3249,1.7035-1.4763,2.612v8.1766c-0.00001,0.45426-0.18928,0.68139-0.56782,0.68139-0.37855,0-0.56783-0.22713-0.56783-0.68139z"/>
   <path d="m231.17,92.863c0.60567,0.000021,0.98422,0.41642,1.1356,1.2492l4.429,17.148,4.3154-17.148c0.22712-0.83278,0.68137-1.2492,1.3628-1.2492,0.68137,0.000021,1.0221,0.45428,1.0221,1.3628v17.602c-0.00001,0.45426-0.15143,0.68139-0.45426,0.68139-0.45427,0-0.6814-0.22713-0.68138-0.68139v-17.148c-0.00002-0.22711-0.0379-0.26496-0.11357-0.11356l-4.3154,16.921c-0.15143,0.68139-0.52998,1.0221-1.1356,1.0221-0.60568,0-0.98423-0.34069-1.1356-1.0221l-4.3154-16.808c-0.0757-0.1514-0.11357-0.1514-0.11357,0v17.148c0,0.45426-0.18927,0.68139-0.56782,0.68139s-0.56782-0.22713-0.56782-0.68139v-17.375c0-1.0599,0.37854-1.5899,1.1356-1.5899z"/>
   <path d="m250.48,99.109c1.0599,0.000015,2.0063,0.41642,2.8391,1.2492,1.0599,1.06,1.5899,2.5363,1.5899,4.429-0.00001,0.75711-0.37856,1.1356-1.1356,1.1356h-6.7003c0,2.2713,0.45425,3.8233,1.3628,4.6561,0.60567,0.60567,1.2871,0.90851,2.0442,0.90851,0.75709,0,1.4385-0.30284,2.0442-0.90851,0.45425-0.45426,0.83279-1.1735,1.1356-2.1577,0.15141-0.30283,0.37854-0.41639,0.68139-0.34069,0.37853,0.15142,0.4921,0.45426,0.34069,0.90851-0.30285,1.0599-0.75711,1.8549-1.3628,2.3849-0.75711,0.75709-1.7035,1.1356-2.8391,1.1356-1.0599,0-2.0063-0.4164-2.8391-1.2492-1.1356-1.1356-1.7035-3.0284-1.7035-5.6782,0-2.4227,0.56782-4.2019,1.7035-5.3375,0.75709-0.75708,1.7035-1.1356,2.8391-1.1356zm-2.0442,1.9306c-0.83281,0.83282-1.2871,2.1199-1.3628,3.8612h6.3596c0.22712,0.00001,0.34069-0.15141,0.34069-0.45426,0-1.4385-0.41641-2.5741-1.2492-3.4069-0.60569-0.60566-1.2492-0.9085-1.9306-0.90851-0.83281,0.00001-1.552,0.30285-2.1577,0.90851z"/>
   <path d="m261.72,100.13c-0.68139,0.00001-1.3249,0.30285-1.9306,0.90851-1.1356,1.1356-1.7035,2.7634-1.7035,4.8833-0.00001,2.1199,0.4921,3.6719,1.4763,4.6561,0.60567,0.60567,1.3249,0.90851,2.1577,0.90851,0.75709,0,1.4763-0.34069,2.1577-1.0221,0.60566-0.60567,0.98421-1.2492,1.1356-1.9306v-5.224c-0.15143-0.8328-0.52998-1.552-1.1356-2.1577-0.6814-0.68137-1.4006-1.0221-2.1577-1.0221zm-0.22712-1.0221c1.2113,0.000015,2.1956,0.37856,2.9527,1.1356,0.22712,0.22714,0.41639,0.49212,0.56782,0.79495v-1.2492c-0.00001-0.45424,0.18927-0.68137,0.56782-0.68139,0.37854,0.000015,0.56781,0.22714,0.56782,0.68139v11.584c-0.00001,1.8927-0.45426,3.2934-1.3628,4.2019-0.90852,0.90851-1.9684,1.3628-3.1798,1.3628-1.4385,0-2.6877-0.52997-3.7476-1.5899-0.37855-0.37855-0.68139-0.7571-0.90852-1.1356-0.15142-0.30283-0.11356-0.56782,0.11357-0.79495,0.22712-0.22712,0.49211-0.18927,0.79495,0.11357,0.30283,0.45426,0.60567,0.8328,0.90851,1.1356,0.8328,0.83281,1.7792,1.2492,2.8391,1.2492,0.8328,0,1.552-0.30284,2.1577-0.90851,0.8328-0.83281,1.2492-2.0442,1.2492-3.6341v-0.90852c-0.15143,0.30284-0.37856,0.60568-0.68139,0.90852-0.7571,0.75709-1.7035,1.1356-2.8391,1.1356s-2.1199-0.4164-2.9527-1.2492c-1.0599-1.0599-1.5899-2.8391-1.5899-5.3375s0.64353-4.3912,1.9306-5.6782c0.75709-0.75708,1.6278-1.1356,2.612-1.1356z"/>
   <path d="m272.85,100.13c-0.7571,0.00001-1.4763,0.3407-2.1577,1.0221-0.98422,0.98424-1.4763,2.4984-1.4763,4.5426,0,2.347,0.49211,4.0126,1.4763,4.9968,0.52997,0.52997,1.1356,0.79495,1.817,0.79495,0.8328,0,1.5899-0.34069,2.2713-1.0221,0.75709-0.75709,1.1735-1.4763,1.2492-2.1577v-5.224c-0.30285-0.75709-0.71925-1.4006-1.2492-1.9306-0.68139-0.68137-1.3249-1.0221-1.9306-1.0221zm-0.11357-1.0221c1.0599,0.000015,1.9306,0.37856,2.612,1.1356,0.22712,0.22714,0.45425,0.52998,0.68139,0.90851v-1.3628c-0.00001-0.45424,0.18926-0.68137,0.56782-0.68139,0.37854,0.000015,0.56781,0.22714,0.56782,0.68139v12.151c-0.00001,0.45426-0.18928,0.68138-0.56782,0.68138-0.37856,0-0.56783-0.22712-0.56782-0.68138v-1.4763c-0.0757,0.22713-0.26499,0.49212-0.56782,0.79495-0.90853,0.83281-1.9306,1.2492-3.0662,1.2492-0.98423,0-1.8549-0.37855-2.612-1.1356-1.1356-1.1356-1.7035-3.0284-1.7035-5.6782,0-2.2713,0.60568-4.0126,1.817-5.224,0.90851-0.9085,1.8549-1.3628,2.8391-1.3628z"/>
   <path d="m280.23,99.79c0-0.45424,0.15142-0.68137,0.45426-0.68139,0.45425,0.000015,0.68138,0.22714,0.68138,0.68139v2.1577c0.30284-0.60567,0.71924-1.1735,1.2492-1.7035,0.75709-0.75708,1.6278-1.1356,2.612-1.1356,0.98422,0.000015,1.817,0.34071,2.4984,1.0221,0.83279,0.83281,1.2492,2.1956,1.2492,4.0883v7.6088c-0.00002,0.45426-0.15143,0.68139-0.45426,0.68139-0.45427,0-0.6814-0.22713-0.68139-0.68139v-7.7224c-0.00001-1.5899-0.30285-2.6877-0.90851-3.2934-0.45427-0.45424-1.0599-0.68137-1.817-0.68138-0.7571,0.00001-1.4763,0.3407-2.1577,1.0221-1.0599,1.06-1.5899,2.1199-1.5899,3.1798v7.4952c0,0.45426-0.22713,0.68139-0.68138,0.68139-0.30284,0-0.45426-0.22713-0.45426-0.68139z"/>
   <path d="m295.45,99.109c1.0599,0.000015,2.0063,0.41642,2.8391,1.2492,1.0599,1.06,1.5899,2.5363,1.5899,4.429-0.00001,0.75711-0.37856,1.1356-1.1356,1.1356h-6.7003c-0.00001,2.2713,0.45425,3.8233,1.3628,4.6561,0.60567,0.60567,1.2871,0.90851,2.0442,0.90851,0.75709,0,1.4385-0.30284,2.0442-0.90851,0.45425-0.45426,0.8328-1.1735,1.1356-2.1577,0.15141-0.30283,0.37854-0.41639,0.68138-0.34069,0.37854,0.15142,0.49211,0.45426,0.3407,0.90851-0.30285,1.0599-0.75711,1.8549-1.3628,2.3849-0.75711,0.75709-1.7035,1.1356-2.8391,1.1356-1.0599,0-2.0063-0.4164-2.8391-1.2492-1.1356-1.1356-1.7035-3.0284-1.7035-5.6782,0-2.4227,0.56782-4.2019,1.7035-5.3375,0.75709-0.75708,1.7035-1.1356,2.8391-1.1356zm-2.0442,1.9306c-0.83281,0.83282-1.2871,2.1199-1.3628,3.8612h6.3596c0.22712,0.00001,0.34068-0.15141,0.34069-0.45426-0.00001-1.4385-0.41641-2.5741-1.2492-3.4069-0.60568-0.60566-1.2492-0.9085-1.9306-0.90851-0.83281,0.00001-1.552,0.30285-2.1577,0.90851z"/>
   <path d="m316.68,92.863c1.5142,0.000021,2.7634,0.49213,3.7476,1.4763,0.68138,0.6814,1.1356,1.4764,1.3628,2.3849-0.00001,0.37856-0.11358,0.60569-0.3407,0.68139-0.30285,0.07573-0.56783-0.07569-0.79495-0.45426-0.30284-0.75708-0.71925-1.4006-1.2492-1.9306-0.75711-0.75708-1.6656-1.1356-2.7256-1.1356-1.1356,0.00002-2.0442,0.34071-2.7255,1.0221-0.7571,0.75711-1.1356,1.7413-1.1356,2.9527,0,0.98424,0.26498,1.7413,0.79495,2.2713,0.60568,0.60568,1.4006,1.0599,2.3849,1.3628,1.5142,0.45427,2.5741,0.79496,3.1798,1.0221,0.75708,0.30285,1.4006,0.71925,1.9306,1.2492,0.83279,0.83282,1.2492,1.9306,1.2492,3.2934-0.00001,1.7413-0.45427,3.0662-1.3628,3.9748-0.98424,0.98423-2.347,1.4763-4.0883,1.4763-1.5899,0-2.8391-0.45426-3.7476-1.3628-0.7571-0.7571-1.3249-1.8549-1.7035-3.2934-0.0757-0.52996,0.0378-0.8328,0.34069-0.90851,0.37855-0.0757,0.64353,0.11357,0.79495,0.56782,0.37855,1.2871,0.83281,2.1956,1.3628,2.7255,0.8328,0.83281,1.817,1.2492,2.9527,1.2492,1.3628,0,2.4227-0.37855,3.1798-1.1356,0.75709-0.7571,1.1356-1.8549,1.1356-3.2934-0.00002-0.98422-0.30285-1.7792-0.90852-2.3848-0.52998-0.52996-1.0221-0.87065-1.4763-1.0221-0.90852-0.37854-2.0063-0.75708-3.2934-1.1356-1.1356-0.37854-1.9684-0.8328-2.4984-1.3628-0.90851-0.9085-1.3628-2.0063-1.3628-3.2934,0-1.4385,0.45426-2.612,1.3628-3.5205,0.98422-0.9842,2.1956-1.4763,3.6341-1.4763z"/>
   <path d="m329.18,100.02c-0.83281,0.00001-1.552,0.30285-2.1577,0.90852-1.0599,1.0599-1.5899,2.6877-1.5899,4.8833-0.00001,2.1956,0.52996,3.8233,1.5899,4.8833,0.60567,0.60568,1.3249,0.90852,2.1577,0.90851,0.8328,0.00001,1.552-0.30283,2.1577-0.90851,1.0599-1.0599,1.5899-2.6877,1.5899-4.8833-0.00001-2.1956-0.52997-3.8233-1.5899-4.8833-0.60568-0.60567-1.3249-0.90851-2.1577-0.90852zm0-1.0221c1.2113,0.000014,2.2334,0.41642,3.0662,1.2492,1.2113,1.2114,1.817,3.0662,1.817,5.5646-0.00001,2.4984-0.60569,4.3533-1.817,5.5647-0.83282,0.8328-1.8549,1.2492-3.0662,1.2492-1.2114,0-2.2334-0.4164-3.0662-1.2492-1.2114-1.2114-1.817-3.0662-1.817-5.5647,0-2.4984,0.60568-4.3533,1.817-5.5646,0.8328-0.83279,1.8549-1.2492,3.0662-1.2492z"/>
   <path d="m340.53,92.863c0.60567,0.000021,1.1356,0.22715,1.5899,0.68139,0.22713,0.22715,0.4164,0.52999,0.56783,0.90852,0.22712,0.52998,0.15141,0.87068-0.22713,1.0221-0.30285,0.07573-0.56783-0.11355-0.79495-0.56782-0.15143-0.30282-0.30285-0.52995-0.45426-0.68139-0.22713-0.22711-0.45426-0.34067-0.68139-0.34069-0.22713,0.00002-0.45426,0.11358-0.68138,0.34069-0.30284,0.30286-0.45426,0.71926-0.45426,1.2492v3.7476h2.1577c0.30283,0.000014,0.45425,0.15143,0.45426,0.45426-0.00001,0.37856-0.15143,0.56783-0.45426,0.56782h-2.1577v11.697c0,0.45426-0.18928,0.68138-0.56782,0.68138-0.37855,0-0.56783-0.22712-0.56782-0.68138v-11.697h-1.817c-0.30284,0.00001-0.45426-0.18926-0.45426-0.56782,0-0.30282,0.15142-0.45424,0.45426-0.45426h1.817v-3.743c-0.00001-0.83279,0.26498-1.5142,0.79495-2.0442,0.37854-0.37853,0.87065-0.5678,1.4763-0.56782z"/>
   <path d="m347.35,99.109,0-2.9527c0-0.45424,0.18927-0.68137,0.56782-0.68139,0.37855,0.000018,0.56782,0.22715,0.56782,0.68139v2.9527h1.9306c0.30283,0.000015,0.45425,0.15143,0.45426,0.45426-0.00001,0.37856-0.15143,0.56784-0.45426,0.56783h-1.9306v11.697c0,0.45426-0.18927,0.68139-0.56782,0.68139s-0.56782-0.22713-0.56782-0.68139v-11.697h-1.9306c-0.30284,0.00001-0.45426-0.18926-0.45426-0.56783,0-0.30282,0.15142-0.45424,0.45426-0.45426z"/>
   <path d="m353.25,99.109c0.45426-0.07569,0.71924,0.15143,0.79495,0.68139l2.2713,10.902,2.7255-10.561c0.15142-0.68138,0.49211-1.0221,1.0221-1.0221,0.52996,0.000015,0.87065,0.34071,1.0221,1.0221l2.7256,10.561,2.2713-10.902c0.0757-0.52995,0.30283-0.75708,0.68139-0.68139,0.37853,0.07572,0.52995,0.34071,0.45426,0.79495l-2.612,11.811c-0.15143,0.52997-0.41642,0.79495-0.79495,0.79495-0.37856,0-0.64355-0.26498-0.79495-0.79495l-2.9527-11.243-3.0662,11.243c-0.15143,0.52997-0.37856,0.79495-0.68139,0.79495-0.37855,0-0.64353-0.26498-0.79495-0.79495l-2.612-11.811c-0.0757-0.37853,0.0378-0.64352,0.34069-0.79495z"/>
   <path d="m374.03,100.13c-0.7571,0.00001-1.4763,0.3407-2.1577,1.0221-0.98423,0.98424-1.4763,2.4984-1.4763,4.5426,0,2.347,0.49211,4.0126,1.4763,4.9968,0.52996,0.52997,1.1356,0.79495,1.817,0.79495,0.8328,0,1.5899-0.34069,2.2713-1.0221,0.75709-0.75709,1.1735-1.4763,1.2492-2.1577v-5.224c-0.30284-0.75709-0.71925-1.4006-1.2492-1.9306-0.68139-0.68137-1.3249-1.0221-1.9306-1.0221zm-0.11356-1.0221c1.0599,0.000015,1.9306,0.37856,2.612,1.1356,0.22712,0.22714,0.45425,0.52998,0.68138,0.90851v-1.3628c-0.00001-0.45424,0.18927-0.68137,0.56782-0.68139,0.37854,0.000015,0.56782,0.22714,0.56783,0.68139v12.151c-0.00001,0.45426-0.18929,0.68138-0.56783,0.68138-0.37855,0-0.56783-0.22712-0.56782-0.68138v-1.4763c-0.0757,0.22713-0.26499,0.49212-0.56782,0.79495-0.90852,0.83281-1.9306,1.2492-3.0662,1.2492-0.98423,0-1.8549-0.37855-2.612-1.1356-1.1356-1.1356-1.7035-3.0284-1.7035-5.6782,0-2.2713,0.60567-4.0126,1.817-5.224,0.90851-0.9085,1.8549-1.3628,2.8391-1.3628z"/>
   <path d="m381.42,99.79c0-0.45424,0.18927-0.68137,0.56782-0.68139,0.37854,0.000015,0.56782,0.22714,0.56782,0.68139v1.7035c0.37855-0.60567,0.71924-1.0599,1.0221-1.3628,0.68138-0.68138,1.4006-1.0221,2.1577-1.0221,0.8328,0.000015,1.5142,0.265,2.0442,0.79495,0.37854,0.37856,0.45425,0.71925,0.22713,1.0221-0.22714,0.30285-0.56783,0.26499-1.0221-0.11357-0.45426-0.37853-0.90852-0.56781-1.3628-0.56782-0.52997,0.00001-1.0599,0.265-1.5899,0.79495-0.83281,0.83282-1.3249,1.7035-1.4763,2.612v8.1766c0,0.45426-0.18928,0.68139-0.56782,0.68139-0.37855,0-0.56782-0.22713-0.56782-0.68139z"/>
   <path d="m394.7,99.109c1.0599,0.000015,2.0063,0.41642,2.8391,1.2492,1.0599,1.06,1.5899,2.5363,1.5899,4.429-0.00001,0.75711-0.37856,1.1356-1.1356,1.1356h-6.7003c0,2.2713,0.45425,3.8233,1.3628,4.6561,0.60567,0.60567,1.2871,0.90851,2.0442,0.90851,0.75709,0,1.4385-0.30284,2.0442-0.90851,0.45425-0.45426,0.8328-1.1735,1.1356-2.1577,0.15141-0.30283,0.37854-0.41639,0.68139-0.34069,0.37854,0.15142,0.4921,0.45426,0.34069,0.90851-0.30285,1.0599-0.7571,1.8549-1.3628,2.3849-0.7571,0.75709-1.7035,1.1356-2.8391,1.1356-1.0599,0-2.0063-0.4164-2.8391-1.2492-1.1356-1.1356-1.7035-3.0284-1.7035-5.6782,0-2.4227,0.56782-4.2019,1.7035-5.3375,0.75709-0.75708,1.7035-1.1356,2.8391-1.1356zm-2.0442,1.9306c-0.83281,0.83282-1.2871,2.1199-1.3628,3.8612h6.3596c0.22712,0.00001,0.34069-0.15141,0.3407-0.45426-0.00001-1.4385-0.41641-2.5741-1.2492-3.4069-0.60568-0.60566-1.2492-0.9085-1.9306-0.90851-0.83281,0.00001-1.552,0.30285-2.1577,0.90851z"/>
  </g>
  <g style="word-spacing:0px;letter-spacing:0px;" font-weight="normal" transform="translate(-28.27333,0)" line-height="125%" font-stretch="normal" font-size="28.13415909px" font-variant="normal" font-family="&apos;M+ 1p light&apos;" font-style="normal" fill="#000">
   <path d="m18.597,198.62,1.0131-0.56324c0.63762,0.99427,1.4627,2.4012,2.4753,4.2208l-1.0123,0.53404c-0.788-1.46-1.613-2.86-2.476-4.19zm3.6009-0.50657,1.0131-0.56237c1.0131,1.6313,1.8571,3.066,2.532,4.3041l-1.0123,0.5349c-0.82541-1.5008-1.6697-2.9263-2.5328-4.2766zm-18.821,4.614,0-1.2664,15.192,0,0,1.2664zm-3.151,6.3304,23.351,0,0,1.2656-9.9029,0c-0.0189,3.5076-0.72237,6.2086-2.1104,8.1029-1.3881,1.8943-3.6762,3.3103-6.8644,4.2478l-0.39409-1.2372c2.9072-0.88205,4.9516-2.1529,6.1333-3.8126,1.1817-1.6596,1.7911-4.0933,1.8284-7.301h-12.041z"/>
   <path d="m43.074,200.56,1.0973-0.59071c0.76927,1.1814,1.6696,2.7286,2.7011,4.6415l-1.0973,0.56323c-0.95648-1.8007-1.8569-3.3387-2.7011-4.614zm3.7142-1.1256,1.0973-0.61904c1.0686,1.6508,2.0062,3.2358,2.8127,4.7548l-1.0973,0.56238c-0.99369-1.8007-1.9313-3.3668-2.8127-4.6982zm-1.2381,8.0467,1.3222-0.45075c1.6508,4.0325,3.2168,8.8904,4.6982,14.574l-1.4347,0.30995c-1.4442-5.5522-2.9727-10.363-4.5857-14.433zm-9.6505-5.5705c-0.93758,6.9769-3.1413,13.579-6.6111,19.806l-1.2664-0.61904c3.3765-6.0771,5.5336-12.51,6.4712-19.3z"/>
   <path d="m57.282,211.19c4.0703-0.58154,8.0372-1.8429,11.901-3.7842,3.8636-1.9412,6.9491-4.2341,9.2564-6.8786l0.8998,0.92813c-2.1568,2.4573-4.9981,4.6424-8.524,6.5553v14.545h-1.4356v-13.814c-3.8825,1.9135-7.8495,3.1516-11.901,3.7142z"/>
   <path d="m88.005,202.73,0-1.2664,17.161,0,0,1.2664c-1.2753,3.3388-3.404,6.5553-6.3862,9.6497,3.0571,2.8889,5.9362,5.7869,8.6374,8.694l-0.9848,0.92813c-2.5512-2.7761-5.4114-5.6738-8.5807-8.6932-3.2266,3.1693-7.0999,5.9262-11.62,8.2708l-0.61904-1.1248c4.4269-2.3262,8.2016-5.0272,11.324-8.1029,3.1227-3.0757,5.3689-6.283,6.7386-9.6218z"/>
   <path d="m133.95,221.8c-2.1946,0.37491-4.5016,0.56237-6.9211,0.56237-3.3949,0-5.8566-0.38923-7.3851-1.1677-1.5286-0.77845-2.2929-2.0117-2.2928-3.6996-0.00001-2.9633,2.9258-5.2328,8.7773-6.8086-0.26217-1.0692-0.63251-1.81-1.111-2.2224-0.47854-0.41239-1.0927-0.61859-1.8425-0.61861-1.257,0.00002-2.6216,0.56268-4.0937,1.688-1.4722,1.1253-2.9678,2.7664-4.487,4.9231l-1.0698-0.70319c2.3073-3.2449,4.258-6.6772,5.8521-10.297h-5.8238v-1.1539h6.3304c0.63763-1.5752,1.0973-2.7755,1.3789-3.6009l1.2656,0.33742c-0.63766,1.688-1.0595,2.7758-1.2656,3.2635h12.463v1.1539h-12.97c-0.78819,1.8008-1.7355,3.7137-2.8419,5.7388l0.0283,0.0283c1.9507-1.7068,3.7606-2.5603,5.4297-2.5603,1.0503,0.00001,1.899,0.29079,2.5461,0.87232,0.64707,0.58156,1.1395,1.5194,1.4772,2.8136,1.9318-0.44989,4.1733-0.84369,6.7244-1.1814l0.13995,1.1814c-2.3628,0.31883-4.5666,0.72208-6.6111,1.2098,0.26271,1.463,0.39407,3.4698,0.39409,6.0204h-1.3506c-0.00002-2.4006-0.11249-4.3044-0.33742-5.7113-5.0834,1.4069-7.6251,3.2452-7.6251,5.5147-0.00001,0.56266,0.0986,1.0456,0.29578,1.4489,0.19718,0.40326,0.56766,0.79248,1.1114,1.1677,0.54376,0.3752,1.3925,0.66126,2.5461,0.85816s2.6025,0.29535,4.3466,0.29535c2.2506,0,4.5107-0.18774,6.7802-0.56323z"/>
   <path d="m160.73,203.65-11.929,0c-1.0504,3.3577-2.9258,6.2648-5.6263,8.7215l-0.92899-0.87233c3.4887-3.2071,5.5052-7.2582,6.0496-12.153l1.3497,0.11248c-0.1122,0.97537-0.28077,1.9507-0.50571,2.9261h12.997v0.36576c-0.00002,6.1143-1.4724,10.695-4.417,13.743-2.9447,3.048-7.6055,4.8439-13.983,5.3876l-0.19662-1.2664c5.9454-0.54377,10.264-2.1333,12.956-4.7686,2.6916-2.6353,4.103-6.7007,4.2341-12.196z"/>
   <path d="m187.74,200.64,1.4347,0,0,7.0052c-0.00003,4.6701-1.0082,8.1541-3.0244,10.452-2.0163,2.2979-5.3875,3.8126-10.114,4.5441l-0.28162-1.2948c4.408-0.71263,7.5075-2.1005,9.2985-4.1637s2.6865-5.2424,2.6865-9.5376zm-14.939,12.238,0-12.238,1.4064,0,0,12.238z"/>
   <path d="m217.9,205.51c-0.22555,5.4017-1.3792,9.3451-3.461,11.83-2.0818,2.4853-5.5797,4.1123-10.494,4.8811l-0.25328-1.2381c2.3634-0.3938,4.3187-0.93299,5.8659-1.6176,1.5472-0.68457,2.8366-1.6458,3.8684-2.8836,1.0317-1.2378,1.7867-2.7336,2.265-4.4874,0.47821-1.7538,0.77371-3.9343,0.88649-6.5416zm-17.444,1.0406,1.2664-0.30909c0.52545,1.7441,1.2006,4.2291,2.0254,7.4551l-1.2939,0.28161c-0.67543-2.7572-1.3414-5.2331-1.9979-7.4276zm6.2462-0.87232,1.2664-0.30909c0.69372,2.4384,1.3689,5.0548,2.0254,7.8492l-1.28,0.28c-0.67486-2.8322-1.35-5.4394-2.0254-7.8217z"/>
   <path d="m245.13,203.65-11.929,0c-1.0504,3.3577-2.9258,6.2648-5.6263,8.7215l-0.92899-0.87233c3.4887-3.2071,5.5052-7.2582,6.0496-12.153l1.3497,0.11248c-0.1122,0.97537-0.28077,1.9507-0.50571,2.9261h12.997v0.36576c-0.00002,6.1143-1.4724,10.695-4.417,13.743-2.9447,3.048-7.6055,4.8439-13.983,5.3876l-0.19661-1.2664c5.9454-0.54377,10.264-2.1333,12.956-4.7686,2.6916-2.6353,4.103-6.7007,4.2341-12.196z"/>
   <path d="m259.14,199.69c-0.18775,5.1578-0.28162,9.4342-0.28161,12.829-0.00001,1.8946,0.11719,3.4374,0.35159,4.6282,0.23438,1.1909,0.62361,2.1051,1.1677,2.7428,0.54405,0.63764,1.1724,1.0691,1.885,1.2943,0.71262,0.22523,1.641,0.33785,2.7853,0.33785,2.0818,0,3.9948-0.78775,5.7392-2.3633,1.7443-1.5755,3.1511-3.8074,4.2204-6.6957l1.2372,0.47823c-1.1626,3.1693-2.7239,5.6122-4.684,7.3285-1.9602,1.7163-4.1311,2.5745-6.5128,2.5745-2.8511,0-4.83-0.75026-5.9367-2.2508s-1.6601-4.192-1.6601-8.0746c0-3.6759,0.10331-7.9616,0.30995-12.857z"/>
   <path d="m288.24,213.56c-0.00001-2.4006,0.84398-4.5199,2.532-6.3578s4.0419-3.226,7.0619-4.1642v-0.0558c-5.2523,0.22496-10.467,0.33744-15.643,0.33742v-1.2664c7.3901,0.00001,14.94-0.18744,22.649-0.56238l0.0558,1.2664c-4.764,0.39382-8.4917,1.5566-11.183,3.4884-2.6914,1.9318-4.0371,4.3419-4.0371,7.2302-0.00001,2.2884,0.769,4.0985,2.307,5.4301,1.538,1.3317,3.6012,1.9975,6.1896,1.9975,1.2564,0,2.4472-0.0939,3.5726-0.28162l0.16914,1.2664c-1.2942,0.20606-2.5603,0.30909-3.7984,0.30909-3.0383,0-5.4436-0.77831-7.216-2.3349s-2.6586-3.6574-2.6586-6.3024z"/>
   <path d="m328.27,198.53,1.0131-0.56238c0.63762,0.99427,1.463,2.4009,2.4762,4.22l-1.0131,0.5349c-0.78763-1.463-1.613-2.8605-2.4762-4.1925zm3.6018-0.50571,1.0406-0.56323c1.0131,1.6319,1.8571,3.0669,2.532,4.305l-1.0406,0.53404c-0.82542-1.5002-1.6694-2.9255-2.532-4.2758zm-21.804,13.701c3.3382-3.076,5.2794-7.118,5.8238-12.126l1.3222,0.0841c-0.13166,1.1625-0.29107,2.1284-0.47823,2.8977h12.941v0.56238c-0.00002,6.171-1.4678,10.794-4.4033,13.87s-7.6009,4.8859-13.996,5.4297l-0.19747-1.2656c3.8075-0.33771,6.921-1.0927,9.3406-2.265,2.4195-1.1722,4.2672-2.8462,5.543-5.0219-3.1327-1.6319-6.4151-3.1793-9.8471-4.6424l0.5907-1.2098c3.7326,1.613,7.0241,3.1605,9.8746,4.6424,1.0692-2.3262,1.6319-5.2708,1.688-8.834h-11.873c-1.0126,3.4698-2.813,6.3956-5.4014,8.7773z"/>
   <path d="m339.47,203.46,9.3972,0,0-4.6424,1.3506,0,0,4.6424,9.9029,0,0,4.2766c-0.00003,4.3324-1.3552,7.7646-4.0654,10.297-2.7103,2.532-6.5882,3.9574-11.634,4.2762l-0.1408-1.2656c4.689-0.30051,8.2715-1.5948,10.747-3.883,2.4759-2.2881,3.7138-5.4296,3.7138-9.4243v-3.0111h-17.921v7.231h-1.3506z"/>
   <path d="m368.25,202.36,0.64651-1.2097c3.001,1.5569,5.8427,3.198,8.5249,4.9231l-0.70319,1.2098c-2.7944-1.819-5.6172-3.4601-8.4682-4.9231zm21.354,1.5755c-0.93818,5.2889-3.1327,9.4151-6.5836,12.379-3.451,2.9636-8.093,4.6986-13.926,5.2052l-0.19748-1.3222c11.085-0.99424,17.547-6.5086,19.385-16.543z"/>
   <path d="m397.11,221.01-1.4072,0,0-19.525,20.707,0,0,19.525zm0-1.2939,17.893,0,0-16.937-17.893,0z"/>
   <path d="m422.86,211.93,0-1.3506,22.677,0,0,1.3506z"/>
   <path d="m463.79,201.52,1.1531-0.61904c1.2009,1.8941,2.1951,3.582,2.9827,5.064l-1.1539,0.5907c-0.93759-1.7252-1.9316-3.4037-2.9819-5.0356zm3.9667-1.2097,1.1539-0.64738c1.1442,1.8008,2.1662,3.5262,3.066,5.1764l-1.1531,0.59157c-0.76932-1.4258-1.7916-3.1327-3.0669-5.1206zm-10.972-0.11248,0,8.3274c5.1017,1.2003,10.419,2.8508,15.952,4.9515l-0.4499,1.2664c-5.4206-2.0446-10.588-3.6484-15.502-4.8115v12.942h-1.4072v-22.676z"/>
   <path d="m495.67,207.45,1.0689-0.61904c0.82537,1.2753,1.7352,2.8319,2.7294,4.6698l-1.0973,0.5349c-0.9004-1.688-1.8008-3.2165-2.7011-4.5857zm3.7134-1.1256,1.0973-0.61904c1.0692,1.6508,2.0071,3.2357,2.8136,4.7548l-1.0973,0.56238c-0.80653-1.463-1.7444-3.0291-2.8136-4.6982zm-14.77,7.5684c-0.00001-2.5134,0.8394-4.7172,2.5182-6.6115s4.0468-3.3106,7.104-4.2487v-0.0558c-5.7583,0.24385-10.982,0.36577-15.671,0.36575v-1.2664c7.0146,0.00002,14.564-0.19688,22.648-0.59071l0.0567,1.2664c-4.764,0.39382-8.4919,1.5848-11.184,3.573-2.6917,1.9882-4.0375,4.4734-4.0375,7.4555-0.00001,2.3817,0.76441,4.2572,2.2933,5.6263,1.5288,1.3692,3.5966,2.0537,6.2033,2.0537,1.257,0,2.4481-0.0936,3.5734-0.28075l0.16914,1.2656c-1.2942,0.20663-2.5603,0.30995-3.7984,0.30995-3.0388,0-5.4444-0.79247-7.2168-2.3774-1.7724-1.585-2.6586-3.7466-2.6586-6.4849z"/>
   <path d="m520.03,202.47c-0.20608-1.1253-0.3466-2.3164-0.42157-3.5734l1.3222-0.0841c0.11217,1.3131,0.26214,2.5134,0.4499,3.6009,3.3759-0.11217,5.9268-0.2152,7.6526-0.30909l0.0558,1.1531c-2.5317,0.15056-5.0356,0.26332-7.5118,0.33829,0.30049,1.463,0.70374,2.8416,1.2098,4.1358,3.076-0.11275,5.3644-0.20662,6.8652-0.28162l0.0283,1.1814c-0.15057,0.00001-2.289,0.0844-6.4154,0.25328,0.76927,1.7441,1.7446,3.5165,2.9261,5.3172l-1.1248,0.87233c-2.7572-1.2564-5.3739-1.8846-7.85-1.8846-4.2386,0.00001-6.3578,1.2284-6.3578,3.685-0.00001,1.5191,0.69859,2.6539,2.0958,3.4043s3.5869,1.1256,6.569,1.1256c2.0257,0,4.1827-0.18775,6.4712-0.56324l0.19661,1.1823c-2.119,0.37491-4.3416,0.56237-6.6678,0.56237-6.7147,0-10.072-1.9038-10.072-5.7113,0-0.59986,0.11734-1.1624,0.35202-1.6876,0.23468-0.52516,0.61918-1.0363,1.1535-1.5334,0.53432-0.49712,1.3361-0.89106,2.4053-1.1818,1.0692-0.29076,2.354-0.43615,3.8542-0.43616,2.2323,0.00001,4.5393,0.47824,6.9211,1.4347l0.0567-0.0283c-0.91928-1.5191-1.6883-3.0194-2.307-4.5007-4.839,0.16829-9.6314,0.25243-14.377,0.25242v-1.1814c4.2769,0.00002,8.9193-0.075,13.927-0.22494-0.45049-1.1814-0.84458-2.5694-1.1823-4.1642-3.7887,0.13167-7.7178,0.19749-11.788,0.19748v-1.1539c3.0754,0.00001,6.9296-0.0655,11.563-0.19662z"/>
   <path d="m549.35,198.87,0,3.4318,7.9342,0,0,1.2098-7.9342,0,0,4.4174,7.0335,0,0,1.2098-7.0335,0,0,6.3304c2.0634,1.0876,4.4924,2.813,7.2868,5.1764l-0.84399,0.95646c-2.4384-2.1007-4.586-3.6762-6.4428-4.7265-0.0183,2.0635-0.47296,3.5407-1.3639,4.4316-0.89094,0.89092-2.3398,1.3364-4.3466,1.3364-1.7819,0-3.198-0.42672-4.2483-1.2802-1.0503-0.85343-1.5755-1.9931-1.5755-3.4189-0.00001-0.50599,0.0843-0.98408,0.25285-1.4343,0.16856-0.45019,0.44989-0.89107,0.84399-1.3227,0.39408-0.43157,0.99438-0.77859,1.8009-1.041,0.80649-0.26244,1.7818-0.39366,2.9261-0.39367,1.3125,0.00001,2.7847,0.36577,4.4166,1.0973v-5.7113h-10.972v-1.2098h10.972v-4.4174h-11.873v-1.2098h11.873v-3.4318zm-1.2939,17.302c-1.6319-0.80649-3.076-1.2097-4.3324-1.2098-3.0199,0.00001-4.5299,0.99397-4.5299,2.9819-0.00001,1.0692,0.39852,1.9181,1.1956,2.5466,0.79704,0.62849,1.8804,0.94273,3.2502,0.94273,1.6502,0,2.7988-0.35646,3.4459-1.0694,0.64708-0.71291,0.97062-1.9697,0.97064-3.7705z"/>
   <path d="m578.05,213.87c-0.3755,0.73152-0.96177,1.3082-1.7588,1.73-0.79707,0.42186-1.7113,0.63278-2.7428,0.63278-1.4819,0-2.7246-0.5017-3.728-1.5051s-1.5051-2.2366-1.5051-3.6996c-0.00001-1.463,0.50169-2.6962,1.5051-3.6996s2.246-1.5051,3.728-1.5051c1.613,0.00001,2.9727,0.55352,4.0791,1.6605l0.0567-0.0283v-3.7984h-14.714v-1.1814h14.714v-3.9392h1.3222v3.9392h7.765v1.1814h-7.765v6.7519c0.26271,1.0131,0.39407,2.0729,0.39409,3.1793-0.00002,2.7383-0.70807,4.8484-2.1241,6.3304-1.4161,1.4819-3.6905,2.4667-6.8232,2.9544l-0.19661-1.2381c2.5506-0.33772,4.4918-1.1209,5.8238-2.3495,1.3319-1.2286,2.0165-2.8275,2.0537-4.7965-0.00002-0.0561-0.005-0.14982-0.0142-0.28119-0.009-0.13135-0.0142-0.23453-0.0142-0.30952zm-7.231-5.6692c-0.78762,0.77847-1.1814,1.721-1.1814,2.8278,0,1.1067,0.39394,2.0446,1.1818,2.8136,0.78788,0.76901,1.7538,1.1535,2.8977,1.1535s2.1098-0.3845,2.8977-1.1535c0.78788-0.769,1.1818-1.7069,1.1818-2.8136-0.00002-1.1067-0.39396-2.0493-1.1818-2.8278-0.78791-0.77843-1.7538-1.1677-2.8977-1.1677-1.1439,0.00001-2.11,0.38924-2.8982,1.1677z"/>
   <path d="m592.13,222.12c-0.79677-0.79734-1.1952-1.7681-1.1952-2.9123s0.39853-2.1196,1.1956-2.9261c0.79705-0.8065,1.7677-1.2098,2.9119-1.2098s2.1196,0.40325,2.9261,1.2098c0.80649,0.8065,1.2097,1.7818,1.2098,2.9261-0.00001,1.1442-0.40326,2.1148-1.2098,2.9119-0.8065,0.79706-1.7819,1.1956-2.9261,1.1956-1.1442-0.00001-2.115-0.39839-2.9123-1.1952zm0.80192-5.0365c-0.58156,0.59071-0.87233,1.2988-0.87233,2.1241,0,0.82539,0.29077,1.5287,0.87233,2.11,0.58154,0.58127,1.2849,0.8719,2.11,0.8719s1.5331-0.29063,2.1242-0.8719c0.59098-0.58126,0.88648-1.2846,0.88649-2.11-0.00001-0.82539-0.29551-1.5334-0.88649-2.1241-0.59101-0.59071-1.299-0.88606-2.1242-0.88607-0.8251,0.00001-1.5284,0.29536-2.11,0.88607z"/>
  </g>
 </g>
 <g style="letter-spacing:0px;word-spacing:0px;" font-weight="normal" font-size="65.3350296px" font-style="normal" font-stretch="normal" line-height="125%" font-variant="normal" font-family="&apos;M+ 2m thin&apos;" fill="#000">
  <path style="" d="m37.705,195.04c9.9746,0.3483,19.949,0.0213,29.924-0.98099-1.3067-3.7458-2.5701-7.9269-3.7903-12.543l1.308-0.3928c1.393,5.3569,2.6558,9.6258,3.7883,12.807,5.8367-0.61008,11.935-1.5472,18.294-2.8114l0.2612,1.308c-5.8368,1.1764-11.869,2.0909-18.096,2.7436,2.0909,5.6626,5.2046,11.826,9.3413,18.489l-0.84939,0.84939c-5.4008-3.3962-11.39-5.0943-17.967-5.0943-4.7042,0.00003-8.3846,0.98001-11.041,2.94-2.6565,1.96-3.9848,4.682-3.9847,8.1659-0.000015,3.9638,1.7639,7.0237,5.2917,9.1798,3.5278,2.156,8.5151,3.2341,14.962,3.2341,3.1356,0,7.2297-0.43533,12.282-1.306l0.2612,1.306c-4.8345,0.87065-9.0156,1.306-12.543,1.306-6.839,0-12.142-1.1976-15.91-3.593-3.7678-2.3953-5.6516-5.7709-5.6516-10.127-0.000014-3.8335,1.4701-6.8609,4.4104-9.0821s6.9147-3.3317,11.923-3.3318c5.8805,0.00002,11.325,1.3505,16.334,4.0515l0.0658-0.0658c-3.484-5.7064-6.2282-11.303-8.2327-16.79-9.9308,1.0448-20.058,1.3931-30.381,1.0448z"/>
  <path style="" d="m118.07,180.67,1.306,0c-0.00003,4.5726,0.0219,7.9915,0.0658,10.256,8.2758-0.30435,17.836-1.1099,28.682-2.4166l0.1316,1.306c-10.933,1.3067-20.538,2.1129-28.813,2.4186,0.0864,5.313,0.17344,9.3632,0.26119,12.151,3.9199-1.4369,8.1668-2.1553,12.741-2.1554,6.1411,0.00003,11.052,1.3612,14.733,4.0834,3.6806,2.7223,5.521,6.3704,5.521,10.944-0.00006,4.4423-1.7208,8.2207-5.1621,11.335-3.4415,3.1144-8.2108,5.216-14.308,6.3046l-0.26119-1.306c5.7489-1.0022,10.257-2.9516,13.523-5.848,3.2666-2.8964,4.8999-6.3917,4.8999-10.486-0.00005-3.2673-1.0997-6.0444-3.2988-8.3314-2.1993-2.2869-5.2157-3.8657-9.0492-4.7364-3.5279,8.0579-8.1337,14.646-13.818,19.764-5.6839,5.1183-10.682,7.6774-14.994,7.6774-2.265,0-4.0293-0.69718-5.2927-2.0916s-1.8952-3.3112-1.8952-5.7503c-0.00001-3.7019,1.3937-7.2952,4.1811-10.78,2.7874-3.4846,6.5332-6.1846,11.237-8.1001-0.17415-5.8367-0.28248-10.062-0.325-12.675-3.9213,0.1303-8.0812,0.19544-12.48,0.1954v-1.308c4.3985,0.00004,8.5583-0.0651,12.48-0.1954-0.0439-2.265-0.0658-5.6838-0.0658-10.256zm19.666,23.258c-1.6111-0.26184-3.375-0.39277-5.2917-0.3928-4.4437,0.00003-8.6687,0.74109-12.675,2.2232,0.21797,6.9679,0.5011,13.719,0.84939,20.254,3.2659-2.3528,6.4126-5.4456,9.44-9.2785,3.0273-3.8329,5.5864-8.1014,7.6774-12.806zm-19.275,2.3528c-4.3546,1.8291-7.795,4.3443-10.321,7.5458-2.5262,3.2015-3.7894,6.5223-3.7893,9.9624-0.00001,2.0909,0.51175,3.7026,1.5353,4.8351,1.0235,1.1325,2.4717,1.6988,4.3446,1.6988,2.6997,0,5.7483-1.1325,9.1459-3.3976-0.43602-8.45-0.74108-15.331-0.91519-20.644z"/>
  <path style="" d="m165.3,221.37,0.91518-0.97899c4.9222,4.2682,9.5174,8.8634,13.786,13.786l-1.0448,0.84939c-4.2257-4.8783-8.7777-9.4303-13.656-13.656z"/>
  <path style="" d="m256.32,233.72,0,3.8561-1.306,0,0-26.853,29.465,0,0,26.853-1.306,0,0-3.8561zm-22.214-20.058c-0.0877,0.26188-0.6108,1.5905-1.5692,3.9857l-1.1744-0.45659c2.7874-6.9692,5.0737-14.897,6.8589-23.783h-8.8209v-1.306h9.0821c0.65397-3.3536,1.2641-7.2084,1.8304-11.564l1.2402,0.1316c-0.65267,4.9209-1.2402,8.7318-1.7626,11.433h10.779v0.65399c-0.00003,9.3207-2.0471,18.293-6.1411,26.917,2.3953,2.1348,4.9215,4.661,7.5787,7.5787l-0.97899,0.84939c-2.6133-2.8752-4.9874-5.2924-7.1221-7.2517-3.7458,7.4039-8.45,13.154-14.113,17.249l-0.78359-1.0468c5.6626-4.0941,10.28-9.7779,13.851-17.052-2.8752-2.483-5.7935-4.5958-8.7551-6.3385zm0.3908-1.2402c3.2234,1.8729,6.2076,3.9851,8.9525,6.3365,3.8322-8.1881,5.7702-16.638,5.8141-25.35h-9.7341c-1.4821,7.3175-3.1596,13.655-5.0325,19.014zm42.077-23.456,1.0448-0.71779c4.0076,6.1412,7.5574,12.565,10.649,19.273l-1.1744,0.5882c-0.52378-1.1764-1.6782-3.5065-3.4633-6.9905-11.325,1.7427-21.931,2.81-31.818,3.2022v-1.308c1.9167-0.0864,3.3756-0.1515,4.3765-0.1954,3.0492-6.7512,5.8805-14.221,8.4939-22.409l1.1764,0.3908c-2.3953,7.4478-5.1396,14.743-8.2327,21.887,8.8421-0.56623,17.314-1.4808,25.416-2.7436-2.0032-3.7458-4.1592-7.4045-6.4681-10.976zm6.5997,43.514,0-20.517-26.853,0,0,20.517z"/>
  <path style="" d="m305.58,183.41,1.306-0.2612c0.82811,3.8761,1.9174,8.4062,3.268,13.59,4.8783-2.8751,10.323-4.3127,16.334-4.3127,1.829,0.00004,3.7238,0.17417,5.6845,0.52239,0.95702-3.3975,1.8935-7.3174,2.8094-11.76l1.306,0.2612c-0.69657,3.7459-1.633,7.6658-2.8094,11.76,5.0524,1.2203,9.0704,3.6269,12.054,7.2198,2.9834,3.593,4.4752,7.8944,4.4752,12.904-0.00006,5.313-2.0361,9.8534-6.1082,13.621-4.0722,3.7677-9.6148,6.1959-16.628,7.2846l-0.2612-1.306c6.7073-1.0448,11.999-3.3204,15.876-6.827,3.8767-3.5065,5.815-7.7641,5.8151-12.773-0.00006-4.7919-1.4047-8.8647-4.214-12.218-2.8094-3.3536-6.61-5.5748-11.402-6.6635-3.266,10.932-7.371,19.643-12.315,26.133-4.9442,6.49-9.5722,9.7351-13.884,9.7351-2.3514,0-4.4636-1.2412-6.3365-3.7236s-2.8094-5.5964-2.8094-9.3423c-0.00001-4.0077,1.0016-7.7319,3.0048-11.173,2.0032-3.4407,4.7474-6.3155,8.2327-8.6245-1.1764-4.312-2.3089-8.9943-3.3976-14.047zm12.282,38.613c5.7928-6.7087,10.454-15.986,13.983-27.832-1.5686-0.30569-3.3544-0.45855-5.3575-0.45859-5.967,0.00004-11.303,1.4376-16.007,4.3127,1.9154,7.0131,4.3758,15.006,7.3813,23.978zm-0.97899,1.1106c-3.0932-9.1465-5.6194-17.27-7.5787-24.371-3.2234,2.1348-5.739,4.8139-7.5468,8.0373s-2.7117,6.708-2.7117,10.454c-0.00001,3.3976,0.80585,6.2069,2.4176,8.4281,1.6117,2.2212,3.4191,3.3318,5.4223,3.3318,3.0054,0.00001,6.3378-1.96,9.9972-5.8799z"/>
  <path style="" d="m370.91,225.1c-0.00001,2.6997,0.96901,4.7903,2.9071,6.2717,1.938,1.4814,4.6716,2.2222,8.2008,2.2222,3.7019,0,6.3694-0.86035,8.0024-2.5811,1.6329-1.7207,2.4494-4.563,2.4495-8.5268v-2.5482c-3.8761-1.7852-7.3601-2.6778-10.452-2.6778-3.5292,0.00001-6.2628,0.6859-8.2008,2.0577s-2.9071,3.2992-2.9071,5.7822zm22.868-6.0115c4.7467,2.3089,10.758,6.3159,18.033,12.021l-0.78358,1.0468c-6.7952-5.3143-12.545-9.1691-17.249-11.564v1.8942c-0.00003,4.2682-0.94745,7.4042-2.8422,9.4081-1.8949,2.0038-4.8674,3.0058-8.9176,3.0058-3.9638-0.00001-7.0238-0.86036-9.1798-2.5811s-3.2341-4.127-3.234-7.2188c-0.00001-2.8751,1.0996-5.1186,3.2988-6.7303s5.2375-2.4175,9.115-2.4176c3.1357,0.00002,6.5983,0.8494,10.388,2.5482-0.0439-2.2212-0.1097-5.0524-0.19739-8.4939-0.00004-0.52237-0.0216-1.2953-0.0648-2.3189-0.0432-1.0235-0.0648-1.7964-0.0648-2.3189-6.9254,0.52242-14.853,0.78362-23.783,0.78359v-1.306c8.3636,0.00003,16.291-0.2831,23.783-0.84939-0.13163-6.0985-0.1755-9.7792-0.1316-11.042-8.5364,0.52243-17.291,0.78363-26.263,0.78359v-1.306c8.9285,0.00004,17.683-0.26116,26.263-0.78359,0.0438-3.2672,0.21796-6.7299,0.5224-10.388l1.308,0.1296c-0.30576,3.6156-0.47989,7.0131-0.52239,10.193,5.2704-0.30569,11.739-0.89388,19.404-1.7646l0.1296,1.306c-6.5333,0.74176-13.045,1.33-19.534,1.7646-0.0439,1.2628-0.0007,4.9435,0.1296,11.042,4.748-0.34824,10.302-0.91449,16.661-1.6988l0.1316,1.306c-6.4908,0.78429-12.088,1.3506-16.792,1.6988-0.00004,0.52375,0.0109,1.319,0.0329,2.3857,0.0219,1.0667,0.0548,1.8613,0.0987,2.3837,0.0425,1.1325,0.0967,2.7117,0.1625,4.7374,0.0658,2.0258,0.0987,3.474,0.0987,4.3446z"/>
  <path style="" d="m439.52,183.93,1.308,0c-0.00002,4.138-0.21802,9.7786-0.65399,16.922-0.43601,7.1434-0.65401,12.392-0.65399,15.746-0.00002,11.76,4.3559,17.64,13.068,17.64,4.748,0,9.2891-1.7858,13.623-5.3575,4.334-3.5717,8.0907-8.6241,11.27-15.157l1.1744,0.5224c-3.3099,6.7512-7.2298,11.989-11.76,15.714-4.5301,3.7245-9.2994,5.5868-14.308,5.5868-1.8291,0-3.5169-0.27216-5.0634-0.81648-1.5466-0.54433-3.0603-1.4592-4.541-2.7446-1.4808-1.2854-2.6459-3.2347-3.4952-5.848-0.84941-2.6133-1.2741-5.7928-1.2741-9.5387-0.00002-3.4414,0.21764-8.7338,0.65299-15.877,0.43531-7.1433,0.65297-12.74,0.65299-16.79z"/>
  <path style="" d="m502.76,227.18c-0.00002,2.1348,0.75134,3.7794,2.2541,4.9338,1.5027,1.1544,3.6697,1.7317,6.501,1.7317,3.0054,0,5.1285-0.66429,6.3694-1.9929,1.2408-1.3286,1.8612-3.5826,1.8613-6.7622v-2.614c-2.6133-0.95837-5.3569-1.4376-8.2307-1.4376-2.7874,0.00002-4.9435,0.53371-6.4681,1.6011-1.5247,1.0674-2.287,2.5807-2.287,4.54zm18.228-5.5529c3.876,1.5685,9.2116,4.988,16.007,10.258l-0.78359,1.0448c-6.3153-4.9661-11.368-8.2765-15.157-9.9315v2.0916c-0.00004,3.5717-0.74042,6.1414-2.2212,7.7093-1.4808,1.5678-3.92,2.3518-7.3175,2.3518-3.2234,0-5.7065-0.69685-7.4491-2.0906-1.7426-1.3937-2.614-3.354-2.614-5.8809-0.00001-2.3076,0.89291-4.1256,2.6788-5.4542,1.7858-1.3286,4.2472-1.9929,7.3843-1.9929,2.8313,0.00001,5.5536,0.45727,8.1669,1.3718-0.0878-3.9199-0.17483-6.8602-0.2612-8.8209-0.34962-8.45-0.41542-15.005-0.19739-19.666l1.308,0.13159c-0.17416,3.2235-0.21802,6.9912-0.13159,11.303,4.966,0.00003,10.324-0.52303,16.073-1.5692l0.2612,1.306c-5.4885,1.0461-10.911,1.5692-16.268,1.5692-0.00004,0.74042,0.0325,1.8729,0.0977,3.3976,0.0651,1.5247,0.1196,2.6791,0.16349,3.4634,0.0877,2.0896,0.17477,5.2253,0.2612,9.4071z"/>
  <path style="" d="m571.17,203.21c10.801-2.3966,17.662-3.5949,20.581-3.5949,4.3984,0.00004,7.7847,1.0674,10.159,3.2022,2.374,2.1348,3.561,5.2054,3.561,9.2117-0.00005,5.1402-2.8749,9.9534-8.6245,14.44-5.7497,4.4862-12.653,7.2956-20.711,8.4281l-0.1296-1.306c7.7521-1.09,14.383-3.7365,19.894-7.9396,5.5103-4.2031,8.2655-8.7438,8.2656-13.622-0.00006-3.6155-1.0565-6.3704-3.1693-8.2646-2.1129-1.8941-5.1944-2.8412-9.2446-2.8413-3.0493,0.00003-9.8225,1.1758-20.32,3.5272l-7.6445,1.6988-0.2612-1.306zm1.4376-18.687,0.3908-1.1764c8.1894,2.7436,16.422,4.4643,24.698,5.1621l-0.13159,1.306c-8.0579-0.65262-16.377-2.4165-24.957-5.2917z"/>
  <path style="" d="m626.7,222.15c-1.5246,1.5246-2.287,3.376-2.287,5.5539-0.00001,2.178,0.76231,4.0293,2.287,5.5539,1.5246,1.5246,3.3756,2.287,5.5529,2.287s4.0283-0.76232,5.5529-2.287c1.5246-1.5246,2.2869-3.376,2.287-5.5539-0.00003-2.178-0.76235-4.0293-2.287-5.5539-1.5247-1.5246-3.3756-2.287-5.5529-2.287-2.1773,0.00002-4.0283,0.76234-5.5529,2.287zm-0.91718,12.023c-1.7852-1.7865-2.6778-3.9429-2.6778-6.4691s0.89291-4.6822,2.6788-6.4681c1.7858-1.7858,3.9422-2.6788,6.4691-2.6788,2.5269,0.00001,4.6829,0.89293,6.4681,2.6788,1.7852,1.7858,2.6777,3.9419,2.6778,6.4681-0.00002,2.5262-0.89261,4.6823-2.6778,6.4681s-3.9412,2.6788-6.4681,2.6788c-2.5269-0.00001-4.6836-0.89259-6.4701-2.6778z"/>
 </g>
</svg>
