<?xml version="1.0" encoding="UTF-8" standalone="no"?>
<!-- Created with Inkscape (http://www.inkscape.org/) -->
<svg xmlns:rdf="http://www.w3.org/1999/02/22-rdf-syntax-ns#" xmlns="http://www.w3.org/2000/svg" version="1.1" xmlns:cc="http://creativecommons.org/ns#" xmlns:dc="http://purl.org/dc/elements/1.1/" viewBox="0 0 475.92 101.25">
 <metadata>
  <rdf:RDF>
   <cc:Work rdf:about="">
    <dc:format>image/svg+xml</dc:format>
    <dc:type rdf:resource="http://purl.org/dc/dcmitype/StillImage"/>
    <dc:title/>
   </cc:Work>
  </rdf:RDF>
 </metadata>
 <g transform="translate(154.90922,-183.49693)">
  <g font-family="&apos;M+ 2m thin&apos;" transform="translate(-181.94523,-387.094)" font-stretch="normal" font-variant="normal" font-weight="normal" font-style="normal" fill="#000">
   <g style="letter-spacing:0px;word-spacing:0px;" font-size="29.5973835px" line-height="125%">
    <path d="m31.475,573.4c5.3273-0.0391,10.112-0.32515,14.354-0.85808l0.32607,1.3025c-4.1043,4.0056-8.0407,6.6792-11.809,8.0208l0.0289,0.0587c5.3472-0.23664,11.04-0.68043,17.078-1.3314l0.11832,1.213c-5.1696,0.53293-9.0517,1.5196-11.646,2.9599-2.5947,1.4404-3.8921,2.9401-3.8921,4.499-0.000011,3.1764,3.3841,4.8634,10.152,5.0609l-0.02981,1.3025c-3.828-0.0987-6.7136-0.67593-8.6571-1.7315s-2.9152-2.5502-2.9152-4.4837c-0.000011-1.3615,0.64114-2.6343,1.9234-3.8184s3.216-2.1806,5.8011-2.9893v-0.0596c-6.2155,0.51305-11.306,0.76957-15.272,0.76956v-1.2131c2.9994-0.0198,5.8309-0.65619,8.4945-1.909s5.5247-3.3198,8.583-6.2012l-0.02981-0.0587c-3.9267,0.45405-8.1295,0.70063-12.608,0.73975z"/>
    <path d="m71.314,593.71c2.3875-0.37515,4.3212-1.4654,5.8011-3.2706,1.4798-1.8053,2.2197-3.9706,2.2197-6.4961-0.000025-2.4863-0.86819-4.509-2.6045-6.068-1.7364-1.559-3.9859-2.3385-6.7486-2.3385h-0.29536c-0.75031,5.8012-1.811,10.206-3.1821,13.215s-2.9545,4.5135-4.7501,4.5135c-1.1839,0.00001-2.279-0.74968-3.2855-2.2491s-1.5098-3.2851-1.5098-5.3571c-0.000003-3.3739,1.2037-6.1214,3.6112-8.2425,2.4074-2.1211,5.5447-3.1816,9.4118-3.1817,3.177,0.00002,5.7669,0.90266,7.7697,2.7079,2.0028,1.8053,3.0042,4.1385,3.0042,6.9997-0.000027,2.8612-0.84365,5.3129-2.5309,7.3551-1.6873,2.0422-3.8824,3.2705-6.5855,3.6848zm-3.0782-18.084c-2.9795,0.33542-5.372,1.4058-7.1776,3.211-1.8056,1.8053-2.7084,4.0694-2.7084,6.7924-0.000005,1.7565,0.37981,3.2316,1.1394,4.4254,0.75962,1.1938,1.5242,1.7907,2.2938,1.7907,0.336,0,0.69142-0.11847,1.0663-0.35543,0.37484-0.23694,0.80884-0.71054,1.302-1.4208,0.49316-0.71025,0.97158-1.6376,1.4352-2.782,0.46365-1.1444,0.93228-2.723,1.4059-4.7357,0.47359-2.0127,0.88802-4.3212,1.2433-6.9256z"/>
    <path d="m86.971,580.39c2.0522-2.5844,3.522-5.613,4.4096-9.0857l1.3025,0.35497c-0.25653,1.046-0.60187,2.1311-1.036,3.2553h6.4229v-4.0844h1.4506v4.0844h9.5599v1.2438h-9.5599v6.0969h11.513v1.2727h-8.6124v9.4118c-0.00002,0.39441,0.0147,0.67065,0.0443,0.82872,0.0295,0.15807,0.0936,0.33074,0.19239,0.51801,0.0987,0.18727,0.30106,0.30063,0.60698,0.34007,0.30587,0.0394,0.67093,0.0741,1.0952,0.10387,0.4242,0.0298,1.0407,0.0447,1.8494,0.0447h1.1543c0.23663,0,0.52265-0.0346,0.85808-0.10387,0.33538-0.0692,0.56239-0.13835,0.68104-0.20729,0.1186-0.0689,0.26674-0.2219,0.4444-0.45885,0.17761-0.23695,0.29097-0.46878,0.34007-0.6955,0.049-0.22671,0.12296-0.59162,0.22174-1.0947,0.0987-0.50311,0.16783-0.99146,0.2073-1.4651,0.0394-0.47359,0.0886-1.1346,0.14768-1.9831l1.3025,0.11832c-0.059,0.9472-0.11323,1.7019-0.16258,2.264-0.0494,0.56212-0.12829,1.1294-0.23665,1.7017-0.10842,0.57235-0.20702,1.0015-0.29581,1.2876-0.0888,0.28602-0.2418,0.5722-0.45885,0.85853-0.21711,0.28632-0.4244,0.47871-0.62188,0.57717-0.19754,0.0984-0.49846,0.19705-0.90279,0.29581-0.40438,0.0987-0.79397,0.1531-1.1688,0.16303-0.37487,0.01-0.88806,0.0149-1.5396,0.0149-2.2888,0-3.7242-0.15792-4.3062-0.47375-0.582-0.31584-0.87299-1.125-0.87298-2.4275v-9.6186h-4.3211c-0.29628,3.3348-1.347,6.0874-3.1523,8.2579s-4.3064,3.6896-7.5032,4.5573l-0.5031-1.2429c2.9006-0.78943,5.1896-2.1706,6.8669-4.1436s2.6442-4.4492,2.9008-7.4287h-9.4118v-1.2727h12.194v-6.0969h-6.926c-0.84845,1.8547-1.8447,3.5121-2.9888,4.9723z"/>
    <path d="m139,593c-2.4267,0.61119-4.6562,0.91679-6.6885,0.91679-2.2888,0-4.1683-0.42422-5.6385-1.2727-1.4702-0.84844-2.2053-1.9335-2.2053-3.2553-0.00001-0.86831,0.3947-1.8599,1.1842-2.9748,0.78942-1.1149,1.8649-2.1854,3.2264-3.2115l0.9466,0.9475c-2.5851,2.0323-3.8776,3.7686-3.8776,5.209-0.00002,0.86832,0.57715,1.6182,1.7315,2.2495,1.1543,0.63137,2.6984,0.94705,4.6323,0.94705,1.9338,0,4.0746-0.28603,6.4225-0.85808zm-12.993-16.752c3.8279,0.00002,7.9124-0.29594,12.253-0.88789l0.11832,1.3314c-4.4397,0.59194-8.5636,0.8879-12.372,0.88789zm-5.8602-3.5515c-0.98635,3.6702-1.4795,7.4192-1.4795,11.247-0.00001,3.8279,0.49316,7.5767,1.4795,11.246l-1.4208,0.20774c-0.98634-3.6702-1.4795-7.4883-1.4795-11.454,0-3.9661,0.49317-7.7843,1.4795-11.454z"/>
    <path d="m154.81,587.49,0,3.2255,12.431,0,0-3.2255zm0-4.2028,0,3.0773,12.431,0,0-3.0773zm0-1.1254,12.431,0,0-2.9888-12.431,0zm-3.9065-5.1792-0.9764,0.85808c-1.5199-1.7559-3.0984-3.4329-4.7357-5.031l0.9764-0.85898c1.8155,1.8354,3.3941,3.5127,4.7357,5.032zm-6.0969,5.032,5.6525,0,0,8.9674c0.8093,1.4602,1.9391,2.4616,3.3894,3.0042,1.4503,0.54254,3.8329,0.81382,7.1478,0.81382h9.2934l-0.0596,1.2438h-9.2934c-3.236,0-5.6728-0.27143-7.3104-0.81427-1.6376-0.54285-2.8905-1.495-3.7588-2.8565-1.1248,1.4012-2.664,2.7925-4.6174,4.1739l-0.68014-1.1543c1.8938-1.3223,3.3932-2.6739,4.4981-4.0546v-8.0506h-4.2615zm6.5115-6.7192,0-1.213,5.5938,0c-0.53292-1.0062-1.1447-2.0127-1.8354-3.0195l1.2429-0.4733c0.65152,0.94722,1.3422,2.1115,2.072,3.4928h4.8838c0.76954-1.1838,1.4304-2.3382,1.9826-3.463l1.2727,0.38478c-0.57207,1.1248-1.1441,2.1509-1.7162,3.0782h5.4754v1.213h-8.5835c-0.27641,1.0062-0.56243,1.914-0.85807,2.7233h7.8139v13.851h-13.852-1.3612v-13.851h5.89c0.37453-1.0261,0.67049-1.9338,0.88789-2.7233z"/>
    <path d="m189.85,583.44c2.4068-0.88757,5.0112-1.5683,7.813-2.0422l0.17794,1.2727c-2.8217,0.49378-5.4164,1.1944-7.7841,2.1018,0.19749,1.4012,0.29624,3.2658,0.29626,5.5938h-1.4208c-0.00002-1.8348-0.0693-3.5118-0.20774-5.031-2.0714,0.92733-3.6991,1.9188-4.8829,2.9744-1.1839,1.0556-1.7758,2.0175-1.7758,2.8858-0.00001,2.1112,2.4959,3.1668,7.4879,3.1668,2.1702,0,4.39-0.20714,6.6596-0.62142l0.14813,1.3025c-2.072,0.39441-4.3413,0.59162-6.8077,0.59162-5.9987,0-8.9981-1.4503-8.9981-4.3509-0.00001-1.164,0.70542-2.407,2.1163-3.729,1.4108-1.322,3.3694-2.516,5.8756-3.5818-0.2174-1.2627-0.53323-2.1309-0.9475-2.6045-0.4143-0.47359-0.95685-0.71039-1.6276-0.7104-0.98635,0.00001-2.2935,0.59194-3.9214,1.7758-1.628,1.1839-3.241,2.8019-4.8391,4.854l-1.1254-0.73976c2.6838-3.4726,4.677-6.7382,5.9795-9.7965-2.1311,0.059-4.3708,0.0885-6.7192,0.0885v-1.2429c2.2497,0.00002,4.6571-0.0494,7.2223-0.14813,0.55217-1.4994,1.0258-2.9792,1.4208-4.4394l1.4199,0.32516c-0.4143,1.5193-0.84815,2.8711-1.3016,4.0556,3.9068-0.17762,7.6854-0.47358,11.336-0.88788l0.0885,1.2429c-4.0845,0.45344-8.0602,0.76897-11.927,0.94659-0.61181,1.4801-1.4801,3.1574-2.605,5.032l0.0298,0.0298c2.0522-1.5391,3.759-2.3087,5.1205-2.3087,0.98632,0.00001,1.7754,0.31073,2.3674,0.93214,0.59191,0.62145,1.036,1.6424,1.3323,3.0629z"/>
    <path d="m216.49,584,0,9.7667,10.921,0,0-9.7667zm-3.1379-7.636,0,1.2727-3.9661,0,0,6.9848c1.2236-0.41428,2.4372-0.88788,3.641-1.4208l0.20684,1.2727c-0.98634,0.43416-2.269,0.92763-3.8478,1.4804v7.2214c-0.00001,1.4012-0.11833,2.2745-0.35497,2.6198-0.23666,0.34533-0.84815,0.518-1.8345,0.518-0.59192,0-1.559-0.0494-2.9012-0.14813l-0.0289-1.214c1.0062,0.0789,1.9137,0.11832,2.7224,0.11832,0.51303,0,0.809-0.0739,0.88788-0.22174,0.0789-0.14783,0.11832-0.68541,0.11833-1.6127v-6.8077c-1.3615,0.41429-2.6736,0.76956-3.9363,1.0658l-0.17704-1.3025c1.5192-0.3354,2.8904-0.70061,4.1134-1.0956v-7.4581h-3.995v-1.2727h3.995v-5.2686h1.391v5.2686zm-1.036-2.5155,0-1.2727,17.522,0,0,1.2727-10.478,0c-0.53232,3.4528-1.3808,6.4124-2.5453,8.8788h11.987v13.941h-1.391v-1.6574h-10.921v1.6574h-1.391v-11.188c-1.0857,1.6975-2.3978,3.1972-3.9363,4.499l-0.71085-1.2727c2.0323-1.6969,3.6453-3.7292,4.8391-6.0969s2.0767-5.2878,2.6488-8.7605z"/>
    <path d="m245.82,570.98,1.4208-0.0885c0.21676,1.5391,0.54223,3.0584,0.9764,4.5578,2.6838-0.31551,5.0813-0.68042,7.1925-1.0947l0.14813,1.2131c-2.1509,0.39503-4.4795,0.75031-6.9857,1.0658,0.35525,1.1248,0.85836,2.4469,1.5093,3.9661,2.2894-0.25651,4.835-0.64129,7.6369-1.1543l0.14723,1.2429c-2.2292,0.39443-4.6463,0.7497-7.2512,1.0658,1.105,2.3087,2.3776,4.4397,3.818,6.3931l-1.5978,0.79846c-1.7366-0.90745-3.1475-1.5191-4.2326-1.8349-1.0851-0.31583-2.2789-0.47374-3.5814-0.47375-3.5913,0.00001-5.3869,1.1842-5.3869,3.5524-0.00001,1.4205,0.67095,2.5205,2.0129,3.3,1.3419,0.7795,3.2656,1.1692,5.7712,1.1692,1.8944,0,3.976-0.18758,6.245-0.56272l0.17794,1.2429c-2.4075,0.39501-4.5484,0.59252-6.423,0.59252-2.9398,0-5.2088-0.50325-6.8073-1.5098-1.5984-1.0065-2.3977-2.4076-2.3976-4.2032-0.00001-0.57205,0.0938-1.1146,0.28136-1.6276,0.18757-0.51304,0.51318-1.0211,0.97685-1.5242,0.46366-0.5031,1.1691-0.9076,2.1163-1.2135,0.94718-0.30589,2.0916-0.45884,3.4332-0.45885,2.3285,0.00001,4.7062,0.60187,7.1329,1.8056l0.0298-0.0298c-1.046-1.5391-2.0326-3.2854-2.9599-5.2388-5.0708,0.55279-9.8655,0.82918-14.384,0.82917v-1.2429c4.4397,0.00001,9.0568-0.25651,13.851-0.76956-0.65095-1.5198-1.1541-2.8419-1.5093-3.9661-3.7093,0.37456-7.1326,0.56183-10.27,0.56182v-1.213c3.1963,0.00001,6.5012-0.17762,9.9149-0.53292-0.4143-1.4602-0.7497-2.9993-1.0062-4.6174z"/>
    <path d="m277.13,588.97c-1.5584-0.71054-2.9888-1.0658-4.2913-1.0658-1.4602,0.00001-2.5751,0.27143-3.3447,0.81428-0.76956,0.54285-1.1543,1.2975-1.1543,2.264,0,1.0658,0.38974,1.8947,1.1692,2.4866,0.77949,0.59192,1.8894,0.88788,3.3298,0.88788,1.559,0,2.664-0.3503,3.3149-1.0509,0.65092-0.70061,0.97638-1.8696,0.9764-3.5068zm-0.0289-1.391c-0.0199-0.74968-0.0497-1.914-0.0894-3.4928-0.0193-0.17763-0.0339-0.45387-0.0438-0.82873-0.01-0.37483-0.0149-0.65107-0.0149-0.82872-3.4727,0.23726-6.9851,0.35589-10.537,0.35588v-1.2438c3.8478,0.00001,7.3503-0.10838,10.507-0.32517-0.0392-1.9335-0.0587-3.4037-0.0587-4.4105-4.0056,0.21739-7.8829,0.32608-11.632,0.32607v-1.2429c4.2422,0.00002,8.1292-0.10867,11.661-0.32607,0.0199-1.3416,0.0987-2.8115,0.23665-4.4096l1.3919,0.0298c-0.13851,1.5386-0.21769,2.969-0.23755,4.2913,2.723-0.15775,5.5645-0.41427,8.5248-0.76956l0.11833,1.2429c-2.9602,0.33542-5.8413,0.59194-8.6431,0.76956-0.00002,1.9534,0.01,3.4137,0.0298,4.3807,1.8745-0.13848,4.3114-0.38506,7.3108-0.73975l0.11832,1.2429c-2.3677,0.29567-4.8342,0.54226-7.3993,0.73975-0.00002,0.19752,0.005,0.48867,0.0149,0.87344,0.01,0.38479,0.0245,0.67563,0.0438,0.87253,0.0199,0.49378,0.0447,1.1994,0.0745,2.1167,0.0298,0.9174,0.0447,1.5832,0.0447,1.9975,2.0515,1.0261,4.6953,2.7823,7.9314,5.2686l-0.82827,1.036c-2.9205-2.2695-5.2882-3.8876-7.1031-4.854v0.14813c-0.00001,2.0516-0.45389,3.5362-1.3616,4.4539-0.90777,0.91769-2.3679,1.3765-4.3803,1.3765-1.8553,0-3.2959-0.40947-4.322-1.2284s-1.5391-1.9585-1.5391-3.4188c-0.00001-1.3416,0.518-2.3972,1.554-3.1668,1.036-0.76956,2.4717-1.1543,4.3071-1.1543,1.3416,0,2.782,0.3059,4.3211,0.91769z"/>
    <path d="m301.86,581.28c-0.77921,0.78885-1.1688,1.726-1.1688,2.8113-0.00001,1.0854,0.38958,2.0227,1.1688,2.8118,0.77918,0.78913,1.7213,1.1837,2.8262,1.1837,1.105,0.00001,2.0472-0.39456,2.8267-1.1837,0.77948-0.78913,1.1692-1.7265,1.1692-2.8122-0.00002-1.2031-0.3699-2.1697-1.1096-2.8999-0.73977-0.7301-1.7019-1.0952-2.8863-1.0952-1.105,0.00002-2.0471,0.39473-2.8262,1.1842zm-2.5896,2.782c-0.00001-1.5,0.49813-2.7481,1.4944-3.7444,0.99626-0.99626,2.2543-1.4944,3.7742-1.4944,1.5385,0.00001,2.8602,0.46368,3.9652,1.391h0.0596c-0.0199-0.80929-0.0593-1.9043-0.11832-3.2851-0.00002-0.0596-0.005-0.13863-0.0149-0.2371-0.01-0.0984-0.0149-0.17747-0.0149-0.2371-5.8012,0.25654-10.892,0.3848-15.272,0.38478v-1.2727c4.8143,0.00002,9.895-0.11831,15.242-0.35498-0.059-1.4403-0.0885-2.9006-0.0885-4.3807h1.391c-0.00002,1.9143,0.0199,3.3546,0.0596,4.3211,2.782-0.13788,5.5639-0.30558,8.3459-0.50311l0.0894,1.2438c-2.8416,0.19692-5.6338,0.36462-8.3766,0.5031-0.00002,0.0789,0.005,0.19723,0.0149,0.35498,0.01,0.15778,0.0149,0.2761,0.0149,0.35497,0.0789,2.6044,0.1183,4.5578,0.11832,5.8602,0.31551,1.0658,0.47328,2.309,0.4733,3.7295-0.00002,2.5652-0.82377,4.6765-2.4713,6.334-1.6475,1.6574-3.9905,2.7032-7.029,3.1374l-0.23665-1.3621c4.854-0.67081,7.5866-2.8807,8.1978-6.6298,0.0397-0.23664,0.0795-0.5326,0.11923-0.88788h-0.0596c-1.105,1.3814-2.5748,2.072-4.4096,2.072-1.5391,0-2.802-0.5031-3.7886-1.5093-0.98665-1.0062-1.48-2.2689-1.48-3.7882z"/>
    <path d="m323.79,595.38c-0.83821-0.83881-1.2573-1.8601-1.2573-3.0638s0.41925-2.2298,1.2578-3.0782c0.83851-0.84843,1.8596-1.2726,3.0633-1.2727,1.2037,0.00001,2.2298,0.42423,3.0782,1.2727,0.84843,0.84845,1.2726,1.8745,1.2727,3.0782-0.00001,1.2037-0.42423,2.2248-1.2727,3.0633-0.84846,0.8385-1.8745,1.2578-3.0782,1.2578s-2.225-0.41911-3.0638-1.2573zm0.84363-5.2984c-0.6118,0.62143-0.9177,1.3663-0.9177,2.2346,0,0.86831,0.3059,1.6082,0.9177,2.2197,0.61179,0.61149,1.3517,0.91724,2.2197,0.91724,0.86801,0,1.6129-0.30575,2.2346-0.91724,0.62172-0.61149,0.93258-1.3514,0.93259-2.2197-0.00001-0.86831-0.31087-1.6132-0.93259-2.2346-0.62174-0.62142-1.3666-0.93214-2.2346-0.93214-0.86802,0-1.6079,0.31072-2.2197,0.93214z"/>
   </g>
   <g style="letter-spacing:0px;word-spacing:0px;" font-size="19.99999809px" line-height="125%">
    <path d="m51.28,619.18,0.13977,0.9198c-2.253,0.39999-4.373,0.59998-6.3599,0.59998-1.96,0-3.5033-0.33336-4.6298-1.0001-1.1265-0.66671-1.6898-1.5734-1.6898-2.72-0.000003-1.5999,1.2931-3.0865,3.8794-4.4598-0.65308-2.5468-1.1664-4.9868-1.5399-7.32l0.98022-0.14038c0.33324,2.1204,0.8199,4.4538,1.46,7.0001,1.9466-0.91999,4.4533-1.7932,7.5201-2.6196l0.23987,0.87952c-7.6933,2.1204-11.54,4.3337-11.54,6.64-0.000004,0.86671,0.47994,1.5534,1.4398,2.0602,0.95987,0.5068,2.2799,0.7602,3.96,0.7602,1.9067,0,3.9534-0.19999,6.1401-0.59998zm-3.4399-14.2,0.78003-0.41992c0.54645,0.84027,1.1865,1.9403,1.9202,3.3002l-0.78003,0.39978c-0.67994-1.2797-1.32-2.373-1.9202-3.28zm2.6398-0.79956,0.78003-0.41992c0.76008,1.1731,1.4268,2.2996,2.0001,3.3795l-0.78003,0.40039c-0.76011-1.3603-1.4268-2.4802-2.0001-3.36z"/>
    <path d="m60.52,607.46,0.07996-0.90027c2.0133,0.32025,4.0867,0.48036,6.2201,0.48035,1.44,0.00001,2.76-0.06,3.96-0.18005l0.05981,0.89966c-1.2801,0.12004-2.62,0.18006-4.0198,0.18005-2.2001,0.00001-4.3001-0.1599-6.3-0.47974zm11.78,11.32,0.18005,0.90027c-2.3466,0.5599-4.3465,0.83984-5.9998,0.83984-2.5602,0-4.4604-0.33996-5.7004-1.0199-1.24-0.67993-1.86-1.5466-1.86-2.6001-0.000003-1.2931,1.1601-2.913,3.4802-4.8596l0.65979,0.63965c-2.0931,1.7867-3.1397,3.1801-3.1396,4.1803-0.000005,0.85327,0.57668,1.5232,1.73,2.0099,1.1534,0.48666,2.7634,0.72998,4.83,0.72998,1.6134,0,3.5532-0.27343,5.8197-0.82031z"/>
    <path d="m93.08,619.28c-1.6398,0.413-3.1464,0.61951-4.5197,0.61951-1.5466,0-2.8167-0.28666-3.8101-0.85999-0.99346-0.57332-1.4902-1.3066-1.4902-2.1997-0.000007-0.58674,0.26672-1.2568,0.80017-2.0102,0.53344-0.75337,1.2602-1.4767,2.1802-2.1701l0.63965,0.64026c-1.7468,1.3733-2.6202,2.5466-2.6202,3.5199-0.000009,0.58676,0.39001,1.0934,1.17,1.5201,0.78002,0.42664,1.8234,0.63996,3.1302,0.63996,1.3067,0,2.7534-0.19328,4.3399-0.57984zm-8.7799-11.32c2.5867,0.00001,5.3467-0.19998,8.28-0.59998l0.07996,0.89966c-3.0001,0.4-5.7868,0.59999-8.36,0.59998zm-3.96-2.3999c-0.66651,2.4801-0.99976,5.0134-0.99976,7.6001-0.000004,2.5867,0.33325,5.1198,0.99976,7.5995l-0.96008,0.14038c-0.66651-2.4801-0.99976-5.0601-0.99976-7.7402-0.000003-2.68,0.33325-5.2601,0.99976-7.7402z"/>
    <path d="m100.02,612.1,0,9.74-0.96008,0,0-8.9398c-0.69336,0.74667-1.4333,1.3999-2.2198,1.9598l-0.34058-0.93994c2.0536-1.4266,3.6538-3.1466,4.8004-5.1599l0.75988,0.43945c-0.58675,1.0803-1.2667,2.0471-2.0398,2.9004zm-2.9004-2.7002-0.39978-0.80017c2.0666-1.213,3.6466-2.6396,4.74-4.2798l0.73974,0.46021c-1.2,1.7997-2.8933,3.3396-5.08,4.6198zm6.4404-3.3197,0-0.88013,10.099,0,0,0.88013zm11.04,4.1998,0,0.88012-3.3801,0,0,8.28c-0.00002,0.94645-0.1167,1.5397-0.35004,1.7798-0.23337,0.24007-0.79683,0.3601-1.6904,0.3601-0.43987,0-1.4065-0.0334-2.8998-0.10009l-0.0201-0.88013c1.1601,0.0533,2.0935,0.08,2.8003,0.08,0.55989,0,0.8965-0.0567,1.0098-0.16999,0.11331-0.11332,0.16997-0.46987,0.16998-1.0696v-8.28h-7.6001v-0.88012z"/>
    <path d="m125.26,604.4,0.96008-0.0598c0.14647,1.04,0.3664,2.0667,0.65979,3.0798,1.8135-0.2132,3.4336-0.45979,4.8602-0.73975l0.1001,0.81971c-1.4535,0.26694-3.027,0.50701-4.7205,0.72021,0.24006,0.7601,0.58002,1.6534,1.0199,2.68,1.547-0.17333,3.2672-0.43334,5.1605-0.78003l0.0995,0.83985c-1.5064,0.26653-3.1397,0.5066-4.8999,0.72021,0.74665,1.5601,1.6066,3.0001,2.58,4.3201l-1.0797,0.53955c-1.1735-0.61319-2.1269-1.0265-2.8601-1.2399-0.73325-0.21341-1.5399-0.32012-2.42-0.32013-2.4268,0.00001-3.6402,0.80018-3.6401,2.4005-0.00001,0.95988,0.45338,1.7032,1.3602,2.2299,0.90677,0.52674,2.2067,0.7901,3.8998,0.7901,1.2801,0,2.6868-0.12674,4.22-0.38024l0.12024,0.83984c-1.6268,0.26693-3.0735,0.40039-4.3402,0.40039-1.9865,0-3.5198-0.34007-4.5999-1.0202-1.0801-0.68014-1.6202-1.6269-1.6202-2.8403-0.00001-0.38656,0.0634-0.75317,0.19012-1.0999,0.12675-0.34667,0.34678-0.68999,0.6601-1.03,0.3133-0.33997,0.78999-0.6133,1.43-0.82001,0.64005-0.2067,1.4134-0.31005,2.32-0.31006,1.5735,0.00001,3.1801,0.4067,4.8199,1.2201l0.0201-0.0201c-0.7068-1.04-1.3735-2.22-2.0001-3.54-3.4265,0.37355-6.6665,0.56031-9.7198,0.5603v-0.83984c3.0001,0.00001,6.12-0.17333,9.3597-0.52002-0.43987-1.027-0.77983-1.9204-1.0199-2.68-2.5065,0.2531-4.8198,0.37965-6.9397,0.37964v-0.81971c2.1598,0.00002,4.3931-0.12002,6.6998-0.3601-0.27996-0.98672-0.5066-2.0268-0.67993-3.1201z"/>
    <path d="m153.12,619.2,0.11963,0.85999c-1.5466,0.29337-2.8866,0.44006-4.0198,0.44006-3.2935,0-4.9402-0.81319-4.9402-2.4396-0.00001-1.1336,0.92671-2.4137,2.7802-3.8403l0.62012,0.62011c-1.6402,1.2801-2.4603,2.3334-2.4603,3.1598-0.00001,1.0803,1.3334,1.6205,4.0002,1.6205,1.0933,0,2.3934-0.14018,3.9001-0.42054zm-0.50049-7.6996c-2.3198,0.00001-4.7129,0.2533-7.1796,0.75989l-0.12024-0.85999c2.5602-0.52001,4.9935-0.78002,7.2998-0.78003zm-9.6198-3.62c2.0935-0.1599,4.1469-0.39997,6.1603-0.72021l0.11963,0.85998c-2.0134,0.32025-4.1799,0.56703-6.4996,0.74036-0.97332,3.9067-2.3401,8.0798-4.1003,12.52l-0.88013-0.27954c1.707-4.3066,3.0404-8.36,4.0002-12.16-1.4266,0.0932-2.6866,0.14649-3.7799,0.15991v-0.88013c1.5466-0.0268,2.8798-0.0801,3.9996-0.15991,0.32022-1.2532,0.60038-2.4866,0.84045-3.7l0.9198,0.11963c-0.22665,1.1601-0.48666,2.3269-0.78003,3.5004z"/>
    <path d="m169.74,607.8,0.85998-0.40039c1.8001,2.9203,2.8735,6.4004,3.2202,10.44l-0.96008,0.0604c-0.3467-3.9067-1.3867-7.2734-3.1201-10.1zm-10-0.72022c-0.27995,1.6268-0.41993,3.2735-0.41992,4.9402-0.00001,1.0266,0.0966,1.9999,0.28991,2.9199,0.19328,0.92001,0.43661,1.6766,0.72999,2.2699,0.29337,0.59326,0.61004,1.0632,0.95001,1.4099,0.33996,0.34668,0.65663,0.52002,0.95001,0.52002,0.1066,0,0.22653-0.0334,0.3598-0.1001,0.13325-0.0667,0.29663-0.22003,0.49011-0.4599,0.19348-0.23986,0.3835-0.54311,0.57007-0.90973,0.18656-0.36661,0.38655-0.88999,0.59998-1.5701,0.21341-0.68013,0.40679-1.4668,0.58014-2.3599l0.93994,0.15991c-0.4533,2.2933-0.99326,3.9-1.6199,4.82s-1.2667,1.38-1.9202,1.38c-0.94686,0-1.8336-0.75999-2.6602-2.28-0.82662-1.52-1.2399-3.4533-1.2399-5.7999,0-1.6532,0.14669-3.34,0.44007-5.0604z"/>
    <path d="m189.58,607.56,0.83984-0.39978c1.6666,2.7999,3.1067,5.9798,4.3201,9.5398l-0.88013,0.3003c-1.2-3.5201-2.6266-6.6669-4.2798-9.4403zm-7.4603,1.2201c0.3068-1.4665,0.52693-2.9531,0.6604-4.4598l0.93994,0.08c-0.1469,1.5202-0.3536,2.9602-0.62012,4.3201,0.9733-0.0667,1.7132-0.10009,2.2198-0.1001,0.52001,0.00001,0.94004,0.0167,1.2601,0.05,0.32002,0.0334,0.6134,0.10672,0.88013,0.22003,0.26671,0.11333,0.4667,0.25005,0.59998,0.41016,0.13324,0.16012,0.24657,0.40345,0.33996,0.72998,0.0934,0.32655,0.15339,0.68645,0.18006,1.0797,0.0266,0.39328,0.04,0.90994,0.04,1.55-0.00001,2.4402-0.38331,4.4169-1.1499,5.9302-0.76661,1.5133-1.6433,2.2699-2.63,2.2699-0.79998,0-1.7867-0.53324-2.9602-1.5997l0.49988-0.75989c1.0136,0.94645,1.8337,1.4197,2.4603,1.4197,0.67992,0,1.3199-0.66996,1.9199-2.0099,0.59996-1.3399,0.89995-3.1366,0.89996-5.39-0.00001-0.50659-0.007-0.90993-0.0201-1.21-0.0134-0.30008-0.0568-0.57677-0.13001-0.83007-0.0733-0.25329-0.15321-0.43324-0.23986-0.53986-0.0867-0.1066-0.23002-0.19988-0.43-0.27985-0.2-0.0799-0.40996-0.12663-0.62988-0.14007-0.21994-0.0134-0.52339-0.0201-0.91034-0.0201-0.52003,0.00001-1.3133,0.0334-2.3798,0.10009-0.85328,3.9201-2.2599,7.7067-4.22,11.36l-0.83984-0.38025c1.8933-3.5466,3.2532-7.1865,4.0796-10.92-1.2667,0.10662-2.6266,0.24659-4.0796,0.41992l-0.0604-0.85998c1.9067-0.21321,3.3468-0.3599,4.3201-0.44007z"/>
    <path d="m200.22,620.94,0,0.90026-0.97962,0,0-5.8203,12.88,0,0,5.8203-0.97962,0,0-0.90026zm-0.97962-15.08,0-0.83984,12.88,0,0,0.83984zm-1.9202,2.7203,0-0.85999,16.72,0,0,0.85999zm2.16,2.76,0-0.84046,12.4,0,0,0.84046zm0,2.76,0-0.84046,12.4,0,0,0.84046zm11.66,5.9796,0-3.2196-10.92,0,0,3.2196z"/>
    <path d="m218.84,611.72,2.42-0.54017c3.2267-0.70637,5.38-1.0596,6.46-1.0596,1.3867,0.00001,2.4534,0.33662,3.2001,1.0098,0.74665,0.67323,1.12,1.6367,1.12,2.8903-0.00001,1.5999-0.88004,3.0832-2.6401,4.4498s-3.9666,2.2431-6.6196,2.6297l-0.16052-0.85999c2.4402-0.37313,4.457-1.153,6.0504-2.3398,1.5934-1.1867,2.3901-2.46,2.3901-3.8199-0.00002-2.0532-1.1735-3.0798-3.5205-3.0798-0.93303,0.00001-2.8864,0.33998-5.86,1.0199-0.0399,0.0134-0.26653,0.0634-0.67993,0.14984-0.41342,0.0865-0.82337,0.1764-1.2299,0.26978-0.4065,0.0934-0.64983,0.14679-0.72998,0.16021zm3.0005-6.6602c2.5997,0.78696,5.2063,1.287,7.8198,1.5002l-0.12024,0.85999c-2.6131-0.2132-5.2531-0.71308-7.9199-1.4996z"/>
    <path d="m251.64,608.9,0.23987,0.88013c-7.6933,2.1733-11.54,4.4466-11.54,6.8201-0.00001,0.93302,0.47332,1.6629,1.42,2.1896,0.94665,0.52674,2.2667,0.7901,3.9603,0.7901,1.853,0,3.9062-0.19999,6.1597-0.59997l0.13977,0.9198c-2.2266,0.39998-4.3465,0.59997-6.3599,0.59997-1.9731,0-3.523-0.34658-4.6497-1.0397-1.1267-0.69316-1.6901-1.6399-1.6901-2.8403-0.00001-1.5999,1.2799-3.1065,3.8397-4.5197-0.58676-2.2803-1.0801-4.647-1.4801-7.1002l0.98022-0.13977c0.3601,2.2001,0.82682,4.4533,1.4002,6.7596,1.8534-0.92,4.3801-1.8266,7.58-2.7197z"/>
    <path d="m261.84,620.64-0.80017,0.63965c-1.2935-1.5198-2.6402-2.9264-4.0399-4.22l0.73975-0.70007c1.4001,1.2935,2.7669,2.7203,4.1003,4.2804z"/>
    <path d="m286.14,612c1.2931-0.73323,2.3197-1.6732,3.0798-2.8198h-5.3198c-0.56031,0.65309-1.2071,1.2864-1.9403,1.9,1.44,0.2531,2.8334,0.5597,4.1803,0.9198zm6.5399-4.14,0-1.5601-14,0,0,1.5601-0.96008,0,0-2.3401,7.4603,0,0-1.7999,0.97961,0,0,1.7999,7.4805,0,0,2.3401zm-15.26,1.3202,0-0.84045,5.9796,0c0.52001-0.66649,0.95336-1.3131,1.3-1.9397l0.93994,0.2002c-0.31983,0.59978-0.67974,1.1796-1.0797,1.7395h9.3799v0.84045h-3.7c-0.74668,1.2533-1.7399,2.2931-2.9797,3.1195,1.9063,0.54688,3.973,1.2803,6.2,2.2003l-0.41993,0.70007c-2.227-0.92-4.4804-1.6933-6.7602-2.32-1.8933,0.98675-4.6067,1.7068-8.1403,2.16l-0.19958-0.80017c3.0131-0.37353,5.3796-0.94014,7.0996-1.6998-0.95989-0.24007-2.2597-0.50679-3.8995-0.80017l-0.84045,0.59997-0.71961-0.54016c1.1865-0.78653,2.2266-1.6597,3.1201-2.6196zm7.76,4.9396,0.97961,0,0,1.5002,7.8601,0,0,0.83985-7.16,0c1.7468,1.5735,4.3001,3.0003,7.6599,4.2804l-0.33997,0.79956c-3.5466-1.3997-6.2199-2.9596-8.02-4.6796v4.9798h-0.97961v-4.9798c-1.8001,1.72-4.4668,3.2798-7.9999,4.6796l-0.33997-0.79956c3.3598-1.2801,5.9131-2.7069,7.6599-4.2804h-7.16v-0.83985h7.84z"/>
    <path d="m305.2,604.12,0.95947,0,0,1.8402c-0.00001,0.0533-0.003,0.12666-0.01,0.22003-0.007,0.0934-0.01,0.16003-0.01,0.19989h7.42v12.72c-0.00001,0.94645-0.11344,1.5364-0.34027,1.7697-0.22686,0.23336-0.81351,0.35004-1.76,0.35004-0.57333,0-1.58-0.0267-3.02-0.08v-0.88013c1.7598,0.0667,2.7264,0.1001,2.8998,0.1001,0.6136,0,0.97706-0.0567,1.0904-0.16998,0.1133-0.11332,0.16996-0.47658,0.16998-1.0898v-11.86h-6.5002c-0.0932,1.0002-0.30641,1.9535-0.63965,2.8601,2.5199,1.3599,4.6798,3.1466,6.4795,5.3601l-0.75989,0.55969c-1.7867-2.1997-3.8068-3.8995-6.0602-5.0995-0.97331,1.9999-2.6933,3.6666-5.1599,5l-0.52002-0.82031c1.8001-0.94685,3.1568-2.0503,4.0701-3.3102,0.91328-1.26,1.4566-2.7766,1.6299-4.5499h-6.38v14.08h-0.96008v-14.94h7.3804c-0.00001-0.0399,0.003-0.10649,0.0101-0.19989,0.007-0.0934,0.0101-0.16671,0.0101-0.22003z"/>
    <path d="m328.84,605.32,0.78003-0.41992c0.54686,0.84026,1.1869,1.9403,1.9202,3.3002l-0.78003,0.39978c-0.67995-1.2797-1.32-2.373-1.9202-3.28zm2.6404-0.79956,0.78002-0.44006c0.75967,1.1731,1.4262,2.2998,1.9995,3.3801l-0.77942,0.39978c-0.70681-1.2801-1.3735-2.3934-2.0001-3.3398zm-0.93995,5.86,0.83985-0.40039c1.4132,2.5204,2.6064,4.9337,3.5797,7.24l-0.85999,0.33997c-1.0132-2.3865-2.1997-4.7797-3.5596-7.1796zm-7.76-6.0602,0.93994,0.08c-0.1469,1.5202-0.35361,2.9602-0.62012,4.3201,0.9733-0.0667,1.7132-0.10009,2.2198-0.1001,0.52001,0.00001,0.94003,0.0167,1.2601,0.05,0.32001,0.0334,0.61339,0.10672,0.88013,0.22003,0.26671,0.11333,0.4667,0.25005,0.59997,0.41016,0.13325,0.16012,0.24657,0.40345,0.33997,0.72998,0.0934,0.32655,0.15339,0.68645,0.18005,1.0797,0.0266,0.39328,0.04,0.90994,0.04,1.55-0.00001,2.4402-0.38331,4.4169-1.1499,5.9302-0.76662,1.5133-1.6433,2.2699-2.63,2.2699-0.79997,0-1.7867-0.53324-2.9602-1.5997l0.49987-0.75989c1.0136,0.94645,1.8337,1.4197,2.4603,1.4197,0.67992,0,1.3199-0.66996,1.9199-2.0099,0.59997-1.3399,0.89995-3.1366,0.89997-5.39-0.00002-0.50659-0.007-0.90993-0.0202-1.21-0.0134-0.30008-0.0568-0.57677-0.13-0.83007-0.0733-0.25329-0.15321-0.43324-0.23987-0.53986-0.0867-0.1066-0.23001-0.19988-0.42999-0.27985-0.2-0.0799-0.40997-0.12663-0.62988-0.14007-0.21994-0.0134-0.52339-0.0201-0.91034-0.0201-0.52003,0.00001-1.3133,0.0334-2.3798,0.10009-0.85328,3.9201-2.2599,7.7067-4.22,11.36l-0.83985-0.38025c1.8933-3.5466,3.2532-7.1865,4.0796-10.92-1.2667,0.10662-2.6266,0.24659-4.0796,0.41992l-0.0604-0.85998c1.9067-0.21321,3.3468-0.3599,4.3201-0.44007,0.3068-1.4665,0.52693-2.9531,0.66041-4.4598z"/>
    <path d="m338.42,612.68,0,6.4203,3.1604,0,0-6.4203zm0-0.83985,3.1604,0,0-5.5798-3.1604,0zm9.8401-4.0204-3.5602,0,0,5.7404,3.5205,0c0.0264-0.32023,0.0397-0.56701,0.0397-0.74036zm0.9198,5c-0.00001,0.17335,0.0134,0.42013,0.0403,0.74036h3.4998v-5.7404h-3.54zm-0.9198-8.5394,0.9198,0,0,2.6794,4.48,0,0,6.6004,1.1401,0,0,0.83984-5.4596,0c0.26651,1.3599,0.86974,2.5865,1.8097,3.6798,0.93992,1.0933,2.1433,1.9668,3.6102,2.6202l-0.40039,0.83984c-1.3599-0.59977-2.5332-1.443-3.5199-2.5296-0.98675-1.0866-1.6933-2.2899-2.1198-3.6099-0.46673,1.32-1.2468,2.5233-2.3401,3.6099-1.0934,1.0866-2.3867,1.9298-3.88,2.5296l-0.39978-0.83984c1.6264-0.65349,2.9529-1.5269,3.9795-2.6202s1.6933-2.3199,2.0001-3.6798h-5.6201v5.5603h-4.0399v1.3h-0.9198v-15.88h4.9597v8.1799h1.3v-6.6004h4.5001z"/>
    <path d="m361.72,604.74c-0.14689,1.9466-0.26021,4.0601-0.33996,6.3403h0.0397c0.53344-1.6003,1.3102-2.8371,2.3303-3.7103s2.1433-1.3098,3.3698-1.3098c1.4534,0.00001,2.5835,0.53,3.3902,1.59,0.80667,1.06,1.21,2.5832,1.21,4.5697-0.00001,2.747-0.75339,4.8371-2.2601,6.2704-1.5068,1.4333-3.8668,2.2899-7.0801,2.5699l-0.0799-0.90026c2.9199-0.26652,5.0566-1.0365,6.4099-2.3099s2.03-3.1501,2.03-5.6302c-0.00002-1.7065-0.31669-3.0031-0.95001-3.8898-0.63336-0.88662-1.5433-1.3299-2.7298-1.33-1.4002,0.00001-2.6736,0.79001-3.8202,2.37s-1.78,3.63-1.9,6.1499h-0.93995c0-3.8668,0.12675-7.4668,0.38025-10.8z"/>
    <path d="m386.42,616.56c-1.0531-0.48014-2.0197-0.72021-2.8998-0.72021-0.98674,0-1.7401,0.18341-2.2601,0.55023-0.52003,0.36683-0.78003,0.87677-0.78003,1.5298,0,0.72021,0.26336,1.2803,0.7901,1.6803,0.52673,0.39999,1.2768,0.59998,2.2501,0.59998,1.0535,0,1.8001-0.23671,2.24-0.71014,0.43985-0.47343,0.65978-1.2633,0.65979-2.3697zm-0.0195-0.93994c-0.0134-0.50658-0.0336-1.2933-0.0604-2.3602-0.013-0.12003-0.0229-0.30669-0.0296-0.55999-0.007-0.25329-0.0101-0.43996-0.0101-0.56-2.3466,0.16032-4.7201,0.24048-7.1204,0.24048v-0.84046c2.6001,0.00001,4.9668-0.0732,7.1002-0.21972-0.0265-1.3066-0.0397-2.3-0.0397-2.9804-2.7067,0.1469-5.3268,0.22035-7.8601,0.22034v-0.83985c2.8666,0.00001,5.4932-0.0734,7.8796-0.22033,0.0134-0.90657,0.0667-1.8998,0.15991-2.9797l0.94055,0.0201c-0.0936,1.0396-0.1471,2.0062-0.16052,2.8998,1.84-0.10659,3.7602-0.27993,5.7605-0.52002l0.0799,0.83985c-2.0003,0.22665-3.9472,0.39999-5.8404,0.52001-0.00001,1.32,0.007,2.3067,0.0201,2.9602,1.2667-0.0936,2.9134-0.2602,4.9402-0.49988l0.0799,0.83985c-1.6,0.19979-3.2666,0.36642-5,0.49987-0.00001,0.13347,0.003,0.33021,0.0101,0.59021,0.007,0.26002,0.0166,0.45655,0.0296,0.5896,0.0134,0.33367,0.0302,0.81045,0.0503,1.4304,0.0201,0.61992,0.0302,1.0698,0.0302,1.3498,1.3863,0.69337,3.1728,1.8801,5.3595,3.5602l-0.55969,0.70008c-1.9735-1.5336-3.5734-2.627-4.7998-3.28v0.1001c-0.00001,1.3863-0.30671,2.3895-0.9201,3.0096-0.61342,0.62012-1.6,0.93017-2.9599,0.93017-1.2537,0-2.2272-0.27669-2.9205-0.83007-0.69337-0.55339-1.04-1.3234-1.04-2.3102-0.00001-0.90658,0.35003-1.6199,1.0501-2.1399,0.70006-0.52001,1.6702-0.78002,2.9105-0.78003,0.90657,0.00001,1.8799,0.20672,2.9199,0.62012z"/>
    <path d="m403.13,611.36c-0.52654,0.53305-0.7898,1.1663-0.7898,1.8997,0,0.73344,0.26326,1.3668,0.7898,1.9,0.52652,0.53325,1.1631,0.79987,1.9098,0.79987,0.74665,0,1.3834-0.26662,1.9101-0.79987,0.52672-0.53324,0.79009-1.1667,0.7901-1.9003-0.00001-0.81298-0.24995-1.4662-0.74982-1.9595-0.49988-0.49336-1.15-0.74004-1.9504-0.74005-0.74668,0.00001-1.3833,0.26673-1.9098,0.80017zm-1.7499,1.8799c-0.00001-1.0136,0.3366-1.857,1.0098-2.5302,0.67321-0.67321,1.5233-1.0098,2.5504-1.0098,1.0396,0.00001,1.9328,0.31333,2.6794,0.93994h0.0403c-0.0134-0.54686-0.0401-1.2868-0.08-2.2198-0.00001-0.0403-0.003-0.0937-0.0101-0.16022-0.007-0.0665-0.0101-0.11992-0.0101-0.16022-3.9201,0.17335-7.36,0.26002-10.32,0.26001v-0.85998c3.2532,0.00001,6.6864-0.08,10.3-0.23987-0.0399-0.9733-0.0598-1.96-0.0598-2.9602h0.93994c-0.00001,1.2936,0.0134,2.2669,0.0403,2.9199,1.8799-0.0932,3.7597-0.20648,5.6396-0.33996l0.0604,0.84045c-1.9202,0.13307-3.807,0.24639-5.6604,0.33997-0.00001,0.0533,0.003,0.13327,0.0101,0.23987,0.007,0.10662,0.0101,0.18657,0.0101,0.23986,0.0533,1.7599,0.0799,3.0798,0.08,3.96,0.2132,0.72023,0.31981,1.5603,0.31982,2.5202-0.00001,1.7334-0.55665,3.1601-1.6699,4.2801-1.1133,1.12-2.6965,1.8267-4.7498,2.12l-0.15991-0.92041c3.28-0.45329,5.1265-1.9466,5.5396-4.48,0.0269-0.15991,0.0537-0.3599,0.0806-0.59997h-0.0403c-0.74668,0.93343-1.7399,1.4002-2.9797,1.4001-1.04,0.00001-1.8934-0.33996-2.5601-1.0199-0.66671-0.67993-1.0001-1.5332-1.0001-2.5598z"/>
    <path d="m417.95,620.89c-0.5664-0.56682-0.84961-1.2569-0.84961-2.0703,0-0.81339,0.28331-1.5068,0.84992-2.0801,0.56661-0.57332,1.2566-0.85998,2.07-0.85999,0.81339,0.00001,1.5067,0.28667,2.0801,0.85999,0.57332,0.57332,0.85998,1.2667,0.85999,2.0801-0.00001,0.8134-0.28667,1.5034-0.85999,2.07-0.57333,0.56661-1.2667,0.84991-2.0801,0.84992-0.8134-0.00001-1.5035-0.28321-2.0703-0.84961zm0.57007-3.5803c-0.41341,0.41992-0.62012,0.92326-0.62012,1.51,0,0.58676,0.20671,1.0867,0.62012,1.4999,0.41341,0.41321,0.91339,0.61981,1.4999,0.61982,0.58654-0.00001,1.0899-0.20661,1.51-0.61982,0.42012-0.4132,0.63018-0.91318,0.63019-1.4999-0.00001-0.58674-0.21007-1.0901-0.63019-1.51-0.42013-0.41992-0.92347-0.62988-1.51-0.62989-0.58655,0.00001-1.0865,0.20997-1.4999,0.62989z"/>
    <path d="m37.92,632.48,0-0.87952,15.22,0,0,0.87952c-0.49318,1.5336-1.4397,3.0204-2.8397,4.4604s-3.1267,2.7-5.1804,3.7799c1.0136,1.3599,2.0003,2.8198,2.9602,4.3799l-0.78003,0.49988c-1.92-3.08-4-5.86-6.24-8.36l0.7196-0.59997c0.88012,0.97331,1.8001,2.0801,2.76,3.3203,1.96-1.04,3.5934-2.2067,4.9002-3.5001,1.3067-1.2933,2.2-2.6201,2.6797-3.9804z"/>
    <path d="m71.8,634.3c-0.4,3.547-1.31,6.1604-2.7301,7.8403s-3.7166,2.8864-6.8896,3.6197l-0.2002-0.79956c2.9468-0.69336,5.0801-1.8268,6.4001-3.4003s2.1665-4.0135,2.5397-7.3199zm-12.08,0.72021,0.83984-0.23986c0.41341,1.2134,0.86018,2.7867,1.3403,4.7198l-0.82031,0.21973c-0.45329-1.7863-0.90658-3.3528-1.3599-4.6997zm4.1199-0.82031,0.85998-0.23987c0.58674,1.9336,1.0402,3.607,1.3605,5.0201l-0.85999,0.2002c-0.32024-1.3603-0.77373-3.0204-1.3605-4.9805z"/>
    <path d="m90.34,630.76c-0.000015-0.64004,0.22998-1.19,0.69-1.6498,0.45999-0.45978,1.01-0.68968,1.6501-0.6897,0.64004,0.00002,1.1901,0.22992,1.6501,0.6897,0.45998,0.45981,0.68998,1.0097,0.69,1.6498-0.000019,0.64007-0.23002,1.1901-0.69,1.6501-0.46002,0.46001-1.01,0.69001-1.6501,0.69-0.26694,0.00001-0.54038-0.0533-0.82031-0.15991-0.52004,6.7733-4.4666,10.947-11.84,12.52l-0.22034-0.88013c7.0402-1.5601,10.74-5.58,11.1-12.06h-12.859v-0.90026h12.48c-0.12005-0.30639-0.18007-0.59305-0.18005-0.85999zm3.4399,1.1005c0.30678-0.30678,0.46019-0.6735,0.4602-1.1002-0.000019-0.42662-0.15342-0.79334-0.4602-1.1002-0.30682-0.30679-0.67354-0.46019-1.1002-0.46021-0.42665,0.00002-0.79327,0.15342-1.0999,0.46021-0.30662,0.30682-0.45992,0.67354-0.4599,1.1002-0.000016,0.42665,0.15328,0.79326,0.4599,1.0998,0.30658,0.30661,0.6732,0.45991,1.0999,0.4599,0.42662,0.00001,0.79334-0.15319,1.1002-0.4596z"/>
    <path d="m111.64,633.9,0.23987,0.88013c-7.6933,2.1733-11.54,4.4466-11.54,6.8201,0,0.93303,0.47333,1.6629,1.42,2.1896,0.94664,0.52673,2.2667,0.7901,3.9603,0.7901,1.853,0,3.9062-0.19999,6.1597-0.59998l0.13977,0.9198c-2.2266,0.39999-4.3465,0.59998-6.3599,0.59998-1.9731,0-3.523-0.34658-4.6497-1.0397-1.1267-0.69316-1.6901-1.6399-1.6901-2.8403-0.000003-1.5999,1.2799-3.1065,3.8397-4.5197-0.58676-2.2803-1.0801-4.647-1.4801-7.1002l0.98023-0.13977c0.3601,2.2001,0.82681,4.4533,1.4002,6.7596,1.8534-0.92,4.3801-1.8266,7.58-2.7197z"/>
    <path d="m122.48,644.14,0,1.0998-0.9198,0,0-6.6199,9.1199,0,0,5.52zm0-0.78003,7.2803,0,0-3.96-7.2803,0zm3.1799-12.54-6.2396,0,0,6.6998c0,2.24-0.18005,4.0566-0.54016,5.4498s-0.96008,2.6567-1.7999,3.7903l-0.75989-0.62012c0.78654-1.0535,1.3432-2.2436,1.6699-3.5702,0.32674-1.3267,0.49011-3.1033,0.49011-5.3299v-7.24h15.3v14.44c-0.00002,0.94645-0.11334,1.5364-0.33996,1.7697-0.22666,0.23336-0.8067,0.35004-1.7401,0.35004-0.24008,0-1.1934-0.0334-2.8601-0.1001l-0.0195-0.85998c1.6264,0.0667,2.5464,0.10009,2.76,0.10009,0.61318,0,0.97644-0.0567,1.0898-0.16998,0.1133-0.11332,0.16996-0.47658,0.16998-1.0898v-13.62h-6.2402v1.9196h4.6802v0.78003h-4.6802v2.7802h5.2002v0.78003h-11.34v-0.78003h5.1996v-2.7802h-4.6796v-0.78003h4.6796z"/>
    <path d="m141.72,629.74c-0.1469,1.9466-0.26022,4.0601-0.33997,6.3403h0.0397c0.53345-1.6003,1.3102-2.8371,2.3303-3.7103s2.1433-1.3098,3.3698-1.3098c1.4534,0.00002,2.5835,0.53001,3.3902,1.59,0.80667,1.06,1.21,2.5832,1.21,4.5697-0.00002,2.747-0.7534,4.8371-2.2601,6.2704-1.5068,1.4333-3.8668,2.2899-7.0801,2.5699l-0.08-0.90027c2.9199-0.26652,5.0566-1.0365,6.4099-2.3099s2.03-3.1501,2.03-5.6302c-0.00001-1.7065-0.31668-3.0031-0.95001-3.8898-0.63336-0.88662-1.5433-1.3299-2.7298-1.33-1.4002,0.00001-2.6736,0.79001-3.8202,2.37s-1.78,3.63-1.9,6.1499h-0.93994c-0.00001-3.8668,0.12674-7.4668,0.38025-10.8z"/>
    <path d="m167.44,637.82c1.6264-0.59977,3.3862-1.0598,5.2795-1.38l0.12024,0.85999c-1.9068,0.33366-3.6601,0.80709-5.26,1.4203,0.13346,0.94686,0.20019,2.2068,0.2002,3.7799h-0.96008c-0.00001-1.2398-0.0468-2.373-0.14038-3.3997-1.3998,0.62664-2.4996,1.2966-3.2996,2.0099-0.79998,0.7133-1.2,1.3633-1.2,1.9501,0,1.4266,1.6866,2.1399,5.0598,2.1399,1.4665,0,2.9665-0.13998,4.5001-0.41992l0.1001,0.88012c-1.4002,0.26652-2.9336,0.39978-4.6002,0.39978-4.0536,0-6.0803-0.98002-6.0803-2.9401-0.00001-0.78654,0.47668-1.6265,1.43-2.5198,0.95336-0.89334,2.2768-1.7001,3.9703-2.4204-0.1469-0.85326-0.36032-1.4399-0.64026-1.7599-0.27996-0.32002-0.64658-0.48004-1.0998-0.48005-0.66652,0.00001-1.5498,0.4-2.6498,1.2-1.1001,0.79997-2.19,1.8933-3.27,3.28l-0.7605-0.49987c1.8136-2.3466,3.1604-4.5532,4.0405-6.6199-1.44,0.0399-2.9535,0.0598-4.5404,0.0598v-0.83985c1.5202,0.00002,3.147-0.0334,4.8804-0.10009,0.37312-1.0132,0.69315-2.0131,0.96008-2.9999l0.95948,0.21973c-0.27996,1.0266-0.57313,1.9401-0.87952,2.7405,2.64-0.12002,5.1933-0.32001,7.6599-0.59997l0.0598,0.83984c-2.76,0.30641-5.4466,0.51963-8.0597,0.63965-0.41341,1.0002-1.0002,2.1336-1.7602,3.4003l0.0201,0.0201c1.3867-1.04,2.5401-1.56,3.4601-1.5601,0.6665,0.00001,1.1997,0.20997,1.5997,0.62988,0.39997,0.41994,0.70006,1.1098,0.90026,2.0697z"/>
    <path d="m181.56,637.36,0.85998-0.41992c0.92,2.0134,2.0066,3.5934,3.2599,4.74,1.2532-1.1466,2.3399-2.7266,3.2599-4.74l0.85998,0.39978c-0.89316,1.9999-2.0331,3.6466-3.4198,4.9402,1.72,1.3334,4.2867,2.4534,7.7002,3.36l-0.28015,0.88013c-3.5336-0.92001-6.2402-2.1334-8.1201-3.6401-1.8799,1.5068-4.5866,2.7201-8.1201,3.6401l-0.28015-0.88013c3.4135-0.90657,5.9802-2.0266,7.7002-3.36-1.3867-1.2667-2.5267-2.9067-3.4198-4.92zm-4.0399-5.9601,7.6599,0,0-2.4799,0.97962,0,0,2.4799,7.68,0,0,0.85998-16.32,0zm0.19959,6.12c2.36-1.3334,4.1801-2.8935,5.4602-4.6802l0.67993,0.54016c-1.32,1.8665-3.22,3.4998-5.7001,4.8999zm15.34,0.80017c-1.7066-1.72-3.6064-3.3201-5.6995-4.8004l0.55969-0.7196c2.1867,1.5466,4.1066,3.1665,5.7599,4.8596z"/>
    <path d="m209.06,640.28c0.39997-1.6402,0.69334-3.2269,0.88012-4.7601h-6.6803c-0.42685,1.5332-0.98023,3.1199-1.6602,4.7601zm-11.8,5.6598,0-0.85998,10.36,0c0.52-1.44,0.93342-2.7732,1.2402-3.9996h-7.6001c-0.12004,0.27996-0.31331,0.69988-0.57983,1.2598l-0.9198-0.26001c1.7334-3.5734,2.88-7.1867,3.4399-10.84h-5.7599v-0.85999h16.479v0.85999h-9.7595c-0.20021,1.2931-0.43357,2.453-0.70008,3.4796h7.5598c-0.38658,3.4135-1.1733,6.8669-2.3602,10.36h5.4401v0.85998z"/>
    <path d="m233.08,644.28c-1.6398,0.413-3.1464,0.6195-4.5196,0.6195-1.5466,0-2.8167-0.28666-3.8101-0.85998-0.99346-0.57332-1.4902-1.3066-1.4902-2.1997-0.00001-0.58675,0.26671-1.2568,0.80017-2.0102,0.53344-0.75337,1.2602-1.4767,2.1802-2.1701l0.63965,0.64026c-1.7468,1.3733-2.6202,2.5466-2.6202,3.5199-0.00001,0.58675,0.39001,1.0934,1.17,1.5201,0.78001,0.42664,1.8234,0.63996,3.1302,0.63995,1.3068,0.00001,2.7534-0.19327,4.3399-0.57983zm-8.7799-11.32c2.5866,0.00001,5.3467-0.19998,8.28-0.59998l0.08,0.89966c-3.0001,0.4-5.7868,0.59999-8.36,0.59998zm-3.96-2.3999c-0.66651,2.4801-0.99976,5.0134-0.99976,7.6001s0.33325,5.1198,0.99976,7.5995l-0.96009,0.14038c-0.6665-2.4801-0.99976-5.0601-0.99975-7.7402-0.00001-2.68,0.33325-5.2601,0.99975-7.7402z"/>
    <path d="m240.18,637.4,0,2.6202,11,0,0-2.6202zm0-3.2599,0,2.4799,11,0,0-2.4799zm0-0.78003,11,0,0-2.42-11,0zm8.4796,12.16c0.56029,0.0269,0.9737,0.0403,1.2402,0.0403,0.30679,0,0.74014-0.0134,1.3-0.0403,0.33324-0.0134,0.56985-0.0367,0.70984-0.0699,0.13996-0.0332,0.28329-0.10315,0.42999-0.20996,0.14667-0.10682,0.25002-0.31016,0.31006-0.61005,0.06-0.29989,0.1133-0.65989,0.15991-1.08,0.0466-0.42012,0.09-1.0234,0.13031-1.81l0.93994,0.08c-0.0533,0.90658-0.10998,1.5966-0.16998,2.07-0.06,0.47343-0.13674,0.89681-0.2301,1.2701-0.0934,0.37333-0.24345,0.62998-0.45014,0.76996-0.20672,0.13997-0.43672,0.24332-0.69,0.31006-0.25331,0.0667-0.61983,0.11332-1.0996,0.13977-0.30682,0.0134-0.78024,0.0201-1.4203,0.0201-0.58676,0-1.0268-0.007-1.3202-0.0201-0.67994-0.0265-1.1233-0.11973-1.33-0.27985-0.20672-0.16012-0.31007-0.48004-0.31006-0.95978v-4.2602h-2.7197c-0.0936,1.3468-0.69367,2.5236-1.8002,3.5303-1.1066,1.0067-2.6598,1.7698-4.6597,2.2894l-0.28015-0.85998c1.8001-0.46631,3.1902-1.1262,4.1702-1.9797,0.98001-0.85347,1.5166-1.8468,1.6098-2.98h-2.9999-0.96008v-10.78h12.92v10.78h-4.3201v3.9197c-0.00001,0.3068,0.04,0.50018,0.11994,0.58014,0.0799,0.0799,0.31991,0.12664,0.71991,0.14007z"/>
    <path d="m258.78,645.62,0,1.1401-0.93994,0,0-16.66,15.68,0,0,16.66-0.93995,0,0-1.1401zm4.0997-4.8798,5.6006,0,0-5.9204-5.6006,0zm0,0.83984-0.89966,0,0-7.6001,7.3999,0,0,7.6001zm9.7003,3.2001,0-13.84-13.8,0,0,13.84z"/>
    <path d="m283.13,636.36c-0.52654,0.53305-0.7898,1.1663-0.7898,1.8997,0,0.73344,0.26326,1.3668,0.7898,1.9,0.52652,0.53325,1.1631,0.79987,1.9098,0.79987,0.74665,0,1.3834-0.26662,1.9101-0.79987,0.52672-0.53324,0.79009-1.1667,0.7901-1.9003-0.00001-0.81298-0.24995-1.4662-0.74982-1.9595-0.49988-0.49336-1.15-0.74004-1.9504-0.74005-0.74668,0.00001-1.3833,0.26673-1.9098,0.80017zm-1.7499,1.8799c-0.00001-1.0136,0.3366-1.857,1.0098-2.5302,0.67321-0.67321,1.5233-1.0098,2.5504-1.0098,1.0396,0.00001,1.9328,0.31332,2.6794,0.93994h0.0403c-0.0134-0.54686-0.0401-1.2868-0.08-2.2198-0.00001-0.0403-0.003-0.0937-0.0101-0.16021-0.007-0.0665-0.0101-0.11993-0.0101-0.16022-3.9201,0.17335-7.36,0.26002-10.32,0.26001v-0.85999c3.2532,0.00002,6.6864-0.0799,10.3-0.23987-0.0399-0.97329-0.0598-1.96-0.0598-2.9602h0.93994c-0.00001,1.2936,0.0134,2.2669,0.0403,2.9199,1.8799-0.0932,3.7597-0.20649,5.6396-0.33996l0.0604,0.84045c-1.9202,0.13307-3.807,0.24639-5.6604,0.33997-0.00001,0.0533,0.003,0.13327,0.0101,0.23986,0.007,0.10662,0.0101,0.18658,0.0101,0.23987,0.0533,1.7599,0.0799,3.0798,0.08,3.96,0.2132,0.72022,0.31981,1.5603,0.31982,2.5201-0.00001,1.7334-0.55665,3.1601-1.6699,4.2801-1.1133,1.12-2.6965,1.8267-4.7498,2.1201l-0.15991-0.92041c3.28-0.45329,5.1265-1.9466,5.5396-4.48,0.0269-0.15991,0.0537-0.3599,0.0806-0.59998h-0.0403c-0.74668,0.93344-1.7399,1.4002-2.9797,1.4002-1.04,0-1.8934-0.33996-2.5601-1.0199-0.66671-0.67992-1.0001-1.5332-1.0001-2.5598z"/>
    <path d="m301.96,642.92,0-9.7595,1.0004,0,0,9.0796c1.9999-1.44,3.6965-3.11,5.0897-5.0101,1.3932-1.9,2.5899-4.1633,3.5901-6.7898l0.85998,0.31982c-1.0669,2.8133-2.3636,5.2334-3.8901,7.2601-1.5265,2.0268-3.4097,3.8068-5.6497,5.34v0.3601c-0.00001,0.48015,0.003,0.8135,0.01,1.0001,0.007,0.18656,0.0564,0.35319,0.14985,0.49987,0.0934,0.14669,0.19337,0.23,0.29998,0.24994,0.1066,0.0199,0.31331,0.0433,0.62012,0.0702,0.53344,0.0533,1.1934,0.08,1.98,0.08,0.74665,0,1.4066-0.0267,1.98-0.08,0.42683-0.0399,0.73017-0.0898,0.91004-0.14984,0.17983-0.06,0.35978-0.14343,0.53985-0.25024,0.18004-0.10681,0.30008-0.37018,0.36011-0.7901,0.06-0.41992,0.11005-0.85317,0.15015-1.2998,0.0401-0.44657,0.0933-1.1966,0.1596-2.2501l0.94055,0.12024c-0.0533,0.93303-0.0967,1.6363-0.13,2.1097-0.0334,0.47343-0.0968,0.95012-0.19013,1.4301-0.0934,0.47994-0.18342,0.80658-0.27008,0.97992-0.0867,0.17333-0.23998,0.34667-0.4599,0.52001-0.21994,0.17334-0.44658,0.28005-0.67993,0.32013-0.23337,0.0401-0.56347,0.0801-0.99029,0.11994-0.62664,0.0533-1.3865,0.08-2.2797,0.08-0.92001,0-1.6801-0.0267-2.2803-0.08-0.79997-0.0667-1.3-0.23011-1.4999-0.49011-0.2-0.26001-0.30671-0.8899-0.32013-1.8896-1.2801,0.81299-2.7802,1.6062-4.5001,2.3798l-0.47974-0.82031c1.8665-0.83985,3.5264-1.7265,4.9799-2.6599zm-0.55969-12.52,0.23987-0.85998c2.4532,0.4,4.9465,1.1467,7.4799,2.24l-0.36011,0.85998c-2.4931-1.0669-4.9463-1.8135-7.3596-2.24zm-4.8401,13.06c0.95988-2.2933,1.6266-5.0199,2.0001-8.1799l0.89966,0.12024c-0.36011,3.2263-1.0333,6.013-2.0196,8.36zm14.96-7.9797,0.90027-0.26001c0.98671,2.8532,1.78,5.7731,2.3798,8.7598l-0.89966,0.18006c-0.62665-3.1067-1.4201-6-2.3804-8.6798z"/>
    <path d="m322.86,636.98,0-3.4601-3.5004,0,0,3.4601zm4.6997,0,0-3.4601-3.7598,0,0,3.4601zm0.93994,0,3.5004,0,0-3.4601-3.5004,0zm-4.6997-5.9601,0,1.72,3.7598,0,0-1.72zm2.3596,12.34c1.6003-0.8667,2.8471-1.9334,3.7402-3.2001h-6.7999c-0.60019,0.67994-1.2868,1.3534-2.0599,2.0203,1.6134,0.27995,3.3199,0.67322,5.1196,1.1798zm-8.9795-3.2001,0-0.79956,5.3998,0c0.45328-0.53344,0.86669-1.0669,1.2402-1.6003h-4.4604-0.9198v-5.0201h4.4202v-1.72h-5.4999v-0.83984h16.639v0.83984h-5.4999v1.72h4.4202v5.0201h-7.9797c-0.41342,0.62664-0.80018,1.1601-1.1603,1.6003h10.4v0.79956h-3.2398c-0.83985,1.3603-2.06,2.5336-3.6603,3.5199,1.9734,0.61361,4.1136,1.3871,6.4203,2.3206l-0.4602,0.78003c-2.7865-1.1471-5.1064-1.9938-6.9598-2.5403-2.2799,1.1735-5.08,1.9535-8.4003,2.3401l-0.19958-0.82031c2.8532-0.29338,5.3131-0.91329,7.3798-1.8597-1.5068-0.42684-3.1-0.78023-4.7797-1.0602-0.30681,0.24007-0.63355,0.48686-0.98023,0.74035l-0.70007-0.5603c1.2667-0.94645,2.3468-1.8998,3.2404-2.8601z"/>
    <path d="m339.04,630.42,0.9198,0.14038c-0.66651,2.4801-0.99976,5.0134-0.99975,7.6001-0.00001,2.5867,0.33324,5.1198,0.99975,7.5995l-0.9198,0.14038c-0.67993-2.5334-1.0199-5.1134-1.0199-7.7402,0-2.6267,0.33997-5.2068,1.0199-7.7402zm9.8999,3.5004c-0.00001-1.3867,0.0533-2.6668,0.15991-3.8403l0.92041,0.0201c-0.0936,1.1735-0.14039,2.4136-0.14038,3.7201,1.2667-0.10659,2.5867-0.25999,3.96-0.4602l0.08,0.88013c-1.6667,0.22665-3.0133,0.38656-4.0399,0.47973-0.00001,0.25351,0.003,0.52695,0.0101,0.82031,0.007,0.29339,0.0168,0.61677,0.0302,0.97016,0.0134,0.3534,0.0201,0.6367,0.0201,0.84991,0.0533,1.6264,0.0799,2.9197,0.0799,3.88,1.0799,0.65308,2.3132,1.653,3.7,2.9999l-0.64026,0.62012c-1.1198-1.1068-2.1397-1.9668-3.0597-2.58-0.0533,1.2264-0.36998,2.1296-0.95001,2.7096-0.58005,0.58004-1.4501,0.87006-2.6102,0.87006-1.1202,0-2.0069-0.26998-2.6602-0.80994-0.65329-0.53996-0.97993-1.2699-0.97992-2.1899-0.00001-0.85327,0.32999-1.5399,0.98999-2.0599,0.65998-0.52001,1.5434-0.78002,2.6501-0.78003,0.79996,0.00001,1.6799,0.23337,2.6398,0.70008-0.0265-1.4799-0.0531-2.6066-0.0799-3.3801-0.00001-0.0667-0.01-0.42673-0.0299-1.08s-0.0299-1.14-0.0299-1.4603c-2.0402,0.16033-4.0401,0.24049-5.9998,0.24048v-0.88013c1.9466,0.00001,3.9398-0.0799,5.9796-0.23987zm0.15991,7.7795c-0.94646-0.53303-1.833-0.79955-2.6596-0.79956-0.82663,0.00001-1.4767,0.17334-1.9501,0.52002-0.47343,0.34668-0.71015,0.82662-0.71014,1.4398-0.00001,0.66651,0.23335,1.1898,0.70007,1.5698,0.46671,0.38005,1.12,0.57007,1.9598,0.57007,0.94685,0,1.6269-0.24994,2.0401-0.74982,0.4132-0.49987,0.6198-1.3099,0.61981-2.4301z"/>
    <path d="m363.08,629.52,0.98022,0c-0.00001,0.69337-0.0401,1.7867-0.12024,3.28,2.2001,0.013,4.5268-0.0671,6.98-0.24048l0.0201,0.86059c-2.4801,0.17295-4.8334,0.2529-7.0599,0.23987l-0.12024,1.7999c-0.0798,0.95989-0.13307,1.6799-0.15991,2.16,1.7468,0.00001,3.7534-0.0734,6.0199-0.22034l0.0202,0.85999c-1.9999,0.1469-4.0265,0.22034-6.0797,0.22034-0.0667,1.0934-0.1001,2.04-0.10009,2.84-0.00001,1.3733,0.28329,2.3599,0.84991,2.9599,0.5666,0.59998,1.5032,0.89997,2.8098,0.89997,3.4399,0,5.1599-1.2866,5.1599-3.8599-0.00002-0.85326-0.12657-1.7267-0.37964-2.6202l0.96008-0.19958c0.2665,0.95988,0.39976,1.9198,0.39978,2.8796-0.00002,0.62663-0.0967,1.2-0.28992,1.72-0.19329,0.52002-0.50661,1.0134-0.93994,1.4801-0.43336,0.46672-1.0667,0.83008-1.9,1.0901-0.83335,0.26001-1.8368,0.39001-3.0103,0.39001-1.6134,0-2.79-0.37669-3.53-1.1301-0.73996-0.75338-1.1099-1.9567-1.1099-3.6099,0-0.79996,0.0334-1.7466,0.1001-2.84-1.5068-0.0134-3.1134-0.0869-4.82-0.22034l0.0598-0.85999c1.4266,0.12005,3.0265,0.19349,4.7998,0.22034,0.0269-0.52001,0.0804-1.2467,0.16053-2.1802l0.11962-1.7999c-1.6931-0.0399-3.1396-0.11311-4.3396-0.21973l0.0397-0.86059c1.1999,0.0936,2.6534,0.16704,4.3604,0.22033,0.0797-1.4933,0.11962-2.5799,0.11963-3.2599z"/>
    <path d="m378.84,636.72,2.42-0.54016c3.2267-0.70637,5.38-1.0596,6.46-1.0596,1.3867,0.00001,2.4534,0.33662,3.2001,1.0098,0.74665,0.67322,1.12,1.6367,1.12,2.8903-0.00002,1.5999-0.88004,3.0832-2.6401,4.4498s-3.9666,2.2431-6.6196,2.6297l-0.16053-0.85999c2.4402-0.37313,4.457-1.153,6.0504-2.3398,1.5934-1.1867,2.3901-2.46,2.3901-3.8199-0.00001-2.0532-1.1735-3.0798-3.5205-3.0798-0.93304,0.00001-2.8864,0.33997-5.86,1.0199-0.0399,0.0134-0.26652,0.0634-0.67993,0.14984-0.41342,0.0865-0.82337,0.1764-1.2299,0.26977-0.4065,0.0934-0.64982,0.1468-0.72998,0.16022zm3.0005-6.6602c2.5997,0.78696,5.2063,1.287,7.8198,1.5002l-0.12024,0.85999c-2.6131-0.21321-5.2531-0.71308-7.9199-1.4996z"/>
    <path d="m402.48,629.32,0.96009,0c-0.00001,1.32,0.007,2.3,0.0201,2.9401,2.5867-0.0932,5.4398-0.31981,8.5596-0.67993l0.0806,0.83985c-3.3203,0.38657-6.1936,0.61992-8.62,0.70007,0.0399,2.1733,0.0598,3.2666,0.0598,3.28,1.1601-0.3601,2.3734-0.54015,3.6401-0.54016,1.9197,0.00001,3.4396,0.43,4.5596,1.29,1.12,0.85999,1.68,2.0167,1.68,3.4702-0.00002,1.4002-0.53336,2.5869-1.6,3.5602-1.0667,0.97331-2.5266,1.6132-4.3796,1.9196l-0.18005-0.83985c1.6398-0.27995,2.9197-0.83323,3.8397-1.6598,0.91998-0.82662,1.38-1.82,1.38-2.98-0.00002-0.90657-0.27671-1.6765-0.83008-2.3099-0.5534-0.63333-1.33-1.0835-2.3297-1.3504-1.0799,2.467-2.4633,4.4439-4.1501,5.9305s-3.2502,2.2299-4.6902,2.2299c-0.78654,0-1.4065-0.23671-1.8597-0.71014-0.45329-0.47343-0.67993-1.1234-0.67993-1.9498,0-1.1068,0.42002-2.1835,1.2601-3.2303,0.84004-1.0467,1.9666-1.87,3.3798-2.4698-0.0269-0.81339-0.0535-2.02-0.08-3.62-1.1735,0.0399-2.4135,0.0598-3.7201,0.0598v-0.85999c1.6935,0.00001,2.9336-0.0134,3.7201-0.0403-0.0134-0.65306-0.0201-1.6463-0.0201-2.9797zm5.9198,7.4603c-0.5066-0.0537-0.9131-0.0806-1.2195-0.0806-1.2801,0.00001-2.4803,0.2-3.6005,0.59998,0.0802,2.4935,0.15359,4.3536,0.22033,5.5804,1.9198-1.4799,3.453-3.5132,4.5996-6.0998zm-5.78,0.9198c-1.1466,0.54647-2.0566,1.2464-2.7298,2.0999-0.67323,0.85348-1.0098,1.7268-1.0098,2.6199,0,0.58675,0.14333,1.0401,0.42999,1.3602,0.28666,0.32003,0.69671,0.48005,1.2302,0.48005,0.69335,0,1.4667-0.2533,2.3199-0.75989-0.10661-2.1334-0.18677-4.0668-0.24048-5.8002z"/>
    <path d="m421.72,629.74c-0.14689,1.9466-0.26021,4.0601-0.33996,6.3403h0.0397c0.53344-1.6003,1.3102-2.8371,2.3303-3.7103s2.1433-1.3098,3.3698-1.3098c1.4534,0.00002,2.5835,0.53001,3.3902,1.59,0.80667,1.06,1.21,2.5832,1.21,4.5697-0.00001,2.747-0.75339,4.8371-2.2601,6.2704-1.5068,1.4333-3.8668,2.2899-7.0801,2.5699l-0.0799-0.90027c2.9199-0.26652,5.0566-1.0365,6.4099-2.3099s2.03-3.1501,2.03-5.6302c-0.00002-1.7065-0.31669-3.0031-0.95001-3.8898-0.63336-0.88662-1.5433-1.3299-2.7298-1.33-1.4002,0.00001-2.6736,0.79001-3.8202,2.37s-1.78,3.63-1.9,6.1499h-0.93995c0-3.8668,0.12675-7.4668,0.38025-10.8z"/>
    <path d="m446.42,641.56c-1.0531-0.48014-2.0197-0.72021-2.8998-0.72021-0.98674,0-1.7401,0.18341-2.2601,0.55023-0.52003,0.36682-0.78003,0.87677-0.78003,1.5298,0,0.72022,0.26336,1.2803,0.7901,1.6803,0.52673,0.39999,1.2768,0.59998,2.2501,0.59998,1.0535,0,1.8001-0.23672,2.24-0.71015,0.43985-0.47342,0.65978-1.2633,0.65979-2.3697zm-0.0195-0.93994c-0.0134-0.50659-0.0336-1.2933-0.0604-2.3602-0.013-0.12003-0.0229-0.30669-0.0296-0.56-0.007-0.25329-0.0101-0.43995-0.0101-0.55999-2.3466,0.16032-4.7201,0.24048-7.1204,0.24047v-0.84045c2.6001,0.00001,4.9668-0.0732,7.1002-0.21973-0.0265-1.3066-0.0397-2.3-0.0397-2.9803-2.7067,0.1469-5.3268,0.22035-7.8601,0.22033v-0.83984c2.8666,0.00001,5.4932-0.0734,7.8796-0.22034,0.0134-0.90656,0.0667-1.8998,0.15991-2.9797l0.94055,0.0201c-0.0936,1.0396-0.1471,2.0062-0.16052,2.8998,1.84-0.1066,3.7602-0.27994,5.7605-0.52002l0.0799,0.83984c-2.0003,0.22666-3.9472,0.4-5.8404,0.52002-0.00001,1.32,0.007,2.3067,0.0201,2.9602,1.2667-0.0936,2.9134-0.26021,4.9402-0.49988l0.0799,0.83984c-1.6,0.1998-3.2666,0.36643-5,0.49988-0.00001,0.13347,0.003,0.33021,0.0101,0.59021,0.007,0.26002,0.0166,0.45655,0.0296,0.5896,0.0134,0.33367,0.0302,0.81045,0.0503,1.4304,0.0201,0.61992,0.0302,1.0698,0.0302,1.3498,1.3863,0.69336,3.1728,1.8801,5.3595,3.5602l-0.55969,0.70007c-1.9735-1.5336-3.5734-2.627-4.7998-3.28v0.10009c-0.00001,1.3863-0.30671,2.3895-0.9201,3.0096-0.61342,0.62011-1.6,0.93017-2.9599,0.93017-1.2537,0-2.2272-0.27669-2.9205-0.83008-0.69337-0.55338-1.04-1.3234-1.04-2.3102-0.00001-0.90657,0.35003-1.6199,1.0501-2.1399,0.70006-0.52001,1.6702-0.78002,2.9105-0.78003,0.90657,0.00001,1.8799,0.20671,2.9199,0.62012z"/>
    <path d="m470.32,629.74c-0.0533,1.2402-0.0665,2.6803-0.0397,4.3201,2.1598-0.19978,3.4265-0.31981,3.8-0.36011l0.08,0.84046c-0.86672,0.0932-2.16,0.21974-3.88,0.37964-0.00001,0.0802,0.003,0.20692,0.01,0.38025,0.007,0.17335,0.01,0.30661,0.01,0.39978l0.0201,2.8198c-0.00002,1.3603-0.51332,2.0404-1.5399,2.0404-0.36012,0.00001-0.94351-0.0934-1.7502-0.28015-0.80669-0.18676-1.5766-0.40669-2.3099-0.65979l0.26001-0.90026c1.6935,0.60018,2.9136,0.90027,3.6603,0.90026,0.25308,0.00001,0.43964-0.0834,0.55969-0.25024,0.12002-0.16682,0.18004-0.51676,0.18006-1.0498l-0.0202-2.7203v-0.59998c-2.6131,0.20021-5.1398,0.35361-7.58,0.46021,0.0403,2.1733,0.0604,4.1732,0.0604,5.9998,0,0.7601,0.04,1.3302,0.11994,1.7102,0.0799,0.38005,0.28991,0.70668,0.62988,0.97992,0.33996,0.27323,0.79996,0.44657,1.38,0.52002,0.58002,0.0734,1.4167,0.11017,2.5101,0.11017,1.7733,0,3.5799-0.13347,5.4199-0.4004l0.10009,0.88013c-1.8669,0.26693-3.7203,0.40039-5.5603,0.40039-1.2,0-2.1433-0.0534-2.8299-0.16022-0.68665-0.10681-1.2433-0.32684-1.6699-0.66009-0.42665-0.33325-0.70995-0.75653-0.84992-1.2698-0.13998-0.5133-0.20996-1.2167-0.20996-2.1103,0-1.04-0.0267-3.0267-0.08-5.9601-1.7334,0.0533-2.9201,0.08-3.5602,0.08v-0.85999c1.0665,0.00001,2.2465-0.0199,3.54-0.0598-0.0134-0.39998-0.0301-1.0566-0.05-1.9699-0.0199-0.91328-0.0366-1.5833-0.05-2.0102h0.96008c0.0264,0.94688,0.0663,2.2604,0.11963,3.9404,2.067-0.0936,4.5939-0.25369,7.5806-0.48034-0.0134-1.2667-0.00021-2.7334,0.0397-4.4z"/>
    <path d="m485,630.5c-1.4002,3.147-2.6268,5.9872-3.6798,8.5205l0.0397,0.0195c0.67992-0.77311,1.2733-1.3064,1.7801-1.5997,0.50678-0.29337,1.0468-0.44006,1.6202-0.44007,0.66649,0.00001,1.1997,0.29339,1.5997,0.88013,0.39997,0.58676,0.73342,1.6534,1.0004,3.2001,0.23966,1.333,0.51289,2.2496,0.8197,2.7496,0.3068,0.50008,0.68684,0.75012,1.1401,0.75012,0.62661,0,1.2733-0.42999,1.94-1.29,0.66669-0.85998,1.22-2.1034,1.6598-3.7302l0.90027,0.26001c-0.49359,1.8669-1.1604,3.2836-2.0004,4.2502-0.84007,0.96659-1.7,1.4499-2.5796,1.4499-0.7068,0-1.2902-0.30996-1.7502-0.92987-0.46001-0.61991-0.82998-1.7032-1.1099-3.2498-0.25351-1.3334-0.51027-2.2335-0.77027-2.7002-0.26001-0.46671-0.59652-0.70007-1.0095-0.70007-0.8667,0-1.7868,0.5833-2.7603,1.7499-0.97352,1.1666-2.0468,3.1433-3.2199,5.9302l-0.88013-0.36011c2.1867-5.3731,4.3134-10.406,6.38-15.1z"/>
    <path d="m497.95,645.89c-0.5664-0.56681-0.84961-1.2569-0.84961-2.0703,0-0.81339,0.28331-1.5068,0.84992-2.0801,0.56661-0.57331,1.2566-0.85998,2.07-0.85998,0.81339,0,1.5067,0.28667,2.0801,0.85998,0.57332,0.57333,0.85998,1.2667,0.85999,2.0801-0.00001,0.8134-0.28667,1.5034-0.85999,2.07-0.57333,0.56661-1.2667,0.84991-2.0801,0.84991s-1.5035-0.2832-2.0703-0.84961zm0.57007-3.5803c-0.41341,0.41993-0.62012,0.92326-0.62012,1.51,0,0.58675,0.20671,1.0867,0.62012,1.4999,0.41341,0.41321,0.91339,0.61981,1.4999,0.61981,0.58654,0,1.0899-0.2066,1.51-0.61981,0.42012-0.41321,0.63018-0.91319,0.63019-1.4999-0.00001-0.58675-0.21007-1.0901-0.63019-1.51-0.42013-0.41992-0.92347-0.62988-1.51-0.62988-0.58655,0-1.0865,0.20996-1.4999,0.62988z"/>
    <path d="m40.52,657.46,0.07996-0.90027c2.0133,0.32024,4.0867,0.48036,6.2201,0.48035,1.44,0.00001,2.76-0.06,3.96-0.18006l0.05981,0.89966c-1.2801,0.12005-2.62,0.18007-4.0198,0.18005-2.2001,0.00002-4.3001-0.1599-6.3-0.47973zm11.78,11.32,0.18005,0.90027c-2.3466,0.55989-4.3465,0.83984-5.9998,0.83984-2.5602,0-4.4604-0.33997-5.7004-1.0199s-1.86-1.5466-1.86-2.6001c-0.000003-1.2931,1.1601-2.913,3.4802-4.8596l0.65979,0.63964c-2.0931,1.7867-3.1397,3.1801-3.1396,4.1803-0.000004,0.85328,0.57668,1.5232,1.73,2.0099,1.1534,0.48665,2.7634,0.72998,4.83,0.72998,1.6134,0,3.5532-0.27344,5.8197-0.82031z"/>
    <path d="m61.86,662.4c-0.000007-0.31981-0.0033-0.82976-0.0098-1.5298-0.0065-0.70007-0.0098-1.2434-0.0098-1.63-1.4933,0.24009-3.0267,0.36012-4.6002,0.36011l-0.02014-0.88013c1.5601,0.00001,3.0935-0.12002,4.6002-0.3601v-3.4601h0.9198c-0.000008,1.8002,0.01342,4.007,0.04028,6.6205,1.7598-1.6402,3.1097-2.7703,4.0497-3.3902,0.93993-0.6199,1.6833-0.92986,2.2302-0.92987,0.59976,0.00001,1.023,0.23327,1.2698,0.69977,0.24677,0.46652,0.37016,1.2798,0.37018,2.4399-0.000015,1.1466-0.03338,2.2268-0.1001,3.2404-0.06675,1.0266-0.10011,1.9531-0.1001,2.7795-0.000015,0.90699,0.04668,1.6004,0.14008,2.0804,0.09337,0.47994,0.20669,0.77992,0.33997,0.89996,0.13324,0.12004,0.31991,0.18005,0.56,0.18005,0.31981,0,0.78306-0.20334,1.3898-0.61004,0.60667-0.4067,1.1635-0.91014,1.6705-1.5103l0.67993,0.64026c-0.6535,0.76009-1.3269,1.3535-2.0203,1.7801-0.69338,0.42664-1.3001,0.63995-1.8201,0.63995-0.66652,0-1.1532-0.29337-1.46-0.88012-0.30682-0.58675-0.46022-1.5668-0.4602-2.9401-0.000014-0.83983,0.03335-1.7731,0.1001-2.7997,0.06672-0.9733,0.10008-2.0467,0.1001-3.2202-0.000014-1.04-0.06003-1.7201-0.18005-2.0401-0.12005-0.32002-0.33998-0.48003-0.65979-0.48004-0.78655,0.00001-2.8133,1.5534-6.0803,4.66,0.0533,4.3469,0.10009,7.1535,0.14038,8.4198l-0.92041,0.0201c-0.05331-1.9865-0.0999-4.5064-0.13977-7.5598-1.7599,1.72-3.2198,3.1866-4.3799,4.4l-0.67993-0.59997c1.3997-1.4669,3.0796-3.147,5.0397-5.0403z"/>
    <path d="m89.58,657.56,0.83984-0.39979c1.6666,2.7999,3.1067,5.9798,4.3201,9.5398l-0.88013,0.30029c-1.2-3.5201-2.6266-6.6669-4.2798-9.4403zm-7.4603,1.2201c0.3068-1.4665,0.52693-2.9531,0.6604-4.4598l0.93994,0.08c-0.1469,1.5202-0.3536,2.9602-0.62012,4.3201,0.9733-0.0667,1.7132-0.10008,2.2198-0.10009,0.52001,0.00001,0.94003,0.0167,1.2601,0.05,0.32002,0.0334,0.61339,0.10673,0.88013,0.22004,0.26671,0.11333,0.4667,0.25005,0.59998,0.41015,0.13325,0.16013,0.24657,0.40346,0.33996,0.72998,0.09337,0.32655,0.15339,0.68645,0.18005,1.0797,0.02664,0.39328,0.03996,0.90995,0.03998,1.55-0.000013,2.4402-0.38331,4.4169-1.1499,5.9302-0.76661,1.5133-1.6433,2.2699-2.63,2.2699-0.79998,0-1.7867-0.53324-2.9602-1.5997l0.49988-0.75988c1.0136,0.94645,1.8337,1.4197,2.4603,1.4197,0.67992,0,1.3199-0.66996,1.9199-2.0099,0.59996-1.3399,0.89995-3.1366,0.89996-5.39-0.000012-0.50658-0.0067-0.90992-0.02014-1.21s-0.05678-0.57677-0.13-0.83008c-0.07325-0.25328-0.15321-0.43324-0.23987-0.53985-0.08668-0.1066-0.23001-0.19988-0.42999-0.27985-0.2-0.0799-0.40996-0.12664-0.62988-0.14008-0.21994-0.0134-0.52339-0.0201-0.91034-0.0201-0.52003,0.00001-1.3133,0.0334-2.3798,0.1001-0.85328,3.9201-2.2599,7.7067-4.22,11.36l-0.83984-0.38025c1.8933-3.5465,3.2532-7.1865,4.0796-10.92-1.2667,0.10662-2.6266,0.2466-4.0796,0.41993l-0.06042-0.85999c1.9067-0.2132,3.3468-0.35989,4.3201-0.44006z"/>
    <path d="m107.34,661.94c1.5999,0.00001,2.8166,0.33997,3.6499,1.0199,0.83331,0.67993,1.25,1.6667,1.25,2.9602-0.00002,1.5198-0.63672,2.723-1.9101,3.6096-1.2734,0.88664-3.0234,1.33-5.2499,1.33-1.4799,0-2.9132-0.13326-4.2999-0.39978l0.13977-0.90026c1.3468,0.26692,2.7403,0.40039,4.1803,0.40039,1.9466,0,3.4599-0.36001,4.5398-1.08,1.0799-0.72001,1.6199-1.7066,1.6199-2.9599-0.00001-2.0536-1.3267-3.0804-3.9801-3.0804-2.4133,0-4.7465,0.96009-6.9995,2.8802l-1.0004-0.26001c0.58675-2.4666,1.0335-4.7933,1.3403-6.98l0.9198,0.0799c-0.27995,1.9735-0.65999,3.9669-1.1401,5.9802l0.0403,0.0195c0.99975-0.82641,2.0997-1.4696,3.2999-1.9296,1.2001-0.45999,2.4002-0.68999,3.6002-0.69zm-5.5804-5.6799,0.26001-0.82032c2.6269,0.97333,5.3737,1.5399,8.2404,1.6998l-0.0202,0.85999c-2.9867-0.1599-5.8134-0.73973-8.4802-1.7395z"/>
    <path d="m119.04,655.42,0.9198,0.14038c-0.6665,2.4801-0.99976,5.0134-0.99975,7.6001-0.00001,2.5867,0.33325,5.1198,0.99975,7.5995l-0.9198,0.14038c-0.67993-2.5334-1.0199-5.1134-1.0199-7.7402-0.00001-2.6267,0.33996-5.2068,1.0199-7.7402zm9.8999,3.5004c-0.00002-1.3867,0.0533-2.6668,0.15991-3.8403l0.92041,0.0201c-0.0936,1.1735-0.1404,2.4135-0.14038,3.7201,1.2667-0.1066,2.5866-0.26,3.96-0.4602l0.08,0.88012c-1.6667,0.22666-3.0133,0.38657-4.0399,0.47974-0.00002,0.25351,0.003,0.52695,0.0101,0.82031,0.007,0.29339,0.0168,0.61677,0.0302,0.97016,0.0134,0.3534,0.0201,0.6367,0.0201,0.84991,0.0533,1.6264,0.0799,2.9197,0.08,3.88,1.0799,0.65308,2.3132,1.653,3.7,2.9999l-0.64026,0.62012c-1.1198-1.1068-2.1397-1.9668-3.0597-2.58-0.0533,1.2264-0.36999,2.1296-0.95001,2.7097-0.58005,0.58004-1.4501,0.87005-2.6102,0.87005-1.1202,0-2.007-0.26997-2.6602-0.80993-0.65329-0.53996-0.97993-1.2699-0.97992-2.1899-0.00001-0.85327,0.32999-1.5399,0.98999-2.0599,0.65999-0.52001,1.5434-0.78002,2.6502-0.78003,0.79995,0.00001,1.6799,0.23336,2.6398,0.70007-0.0265-1.4799-0.0531-2.6066-0.08-3.3801-0.00001-0.0667-0.01-0.42673-0.0299-1.08-0.02-0.65327-0.0299-1.14-0.0299-1.4603-2.0402,0.16032-4.0401,0.24048-5.9998,0.24047v-0.88012c1.9466,0.00001,3.9398-0.0799,5.9796-0.23987zm0.15991,7.7795c-0.94647-0.53304-1.833-0.79956-2.6596-0.79956-0.82663,0-1.4766,0.17334-1.9501,0.52002-0.47344,0.34668-0.71015,0.82662-0.71015,1.4398,0,0.6665,0.23335,1.1898,0.70008,1.5698,0.4667,0.38005,1.12,0.57007,1.9598,0.57007,0.94684,0,1.6269-0.24994,2.0401-0.74982,0.41319-0.49987,0.61979-1.3099,0.61981-2.4301z"/>
    <path d="m137,663.22,0-0.93994,17.36,0,0,0.93994z"/>
    <path d="m172.48,657.08-3.3002,0,0,3.1,0.6604,0c0.99974-1.0132,1.8797-2.0465,2.6398-3.1zm-4.7601,6.1798,6.3,0,0,8.5004-0.93994,0,0-0.90027-6.5399,0,0,0.90027-0.9198,0,0-6.98c-0.50661,0.34669-1.1133,0.72673-1.8201,1.1401l-0.36011-0.84045c2.0532-1.1731,3.8999-2.5264,5.5402-4.0601h-4.92v-0.83985h4.1797v-3.1h-3.54v-0.8197h3.54v-2.16h0.93995v2.16h3.8605c0.37311-0.56029,0.64634-0.98713,0.8197-1.2805l0.80017,0.40039c-0.97332,1.6667-2.18,3.2666-3.62,4.7998h3.8202v0.83985h-4.6204c-0.83986,0.84026-1.6799,1.5869-2.5201,2.24zm-1.1798,3.3404,6.5399,0,0-2.5-6.46,0c-0.0134,0.013-0.0268,0.0195-0.04,0.0195-0.0132,0.00001-0.0266,0.007-0.04,0.0201zm0,0.79956,0,2.6404,6.5399,0,0-2.6404zm-4.3598-7.6398,0.81971-0.23987c0.61319,1.6264,1.0732,3.2131,1.38,4.7601l-0.83984,0.17944c-0.0936-0.43985-0.16033-0.73303-0.2002-0.87952l-2.3798,0.13977v8.1201h-0.92041v-8.0603l-3.3398,0.20019-0.0397-0.83984,1.46-0.08c0.46671-0.58674,0.85326-1.0801,1.1597-1.4801-0.49316-0.85326-1.3265-2.22-2.5-4.1003l0.64026-0.69946c0.21322,0.33326,0.47994,0.7599,0.80017,1.2799,0.82642-1.2935,1.5462-2.5336,2.1594-3.7201l0.82031,0.37964c-0.77352,1.44-1.6001,2.8335-2.4799,4.1803,0.12003,0.21322,0.49337,0.84657,1.12,1.9,1.1731-1.6402,2.1663-3.1669,2.9797-4.5801l0.78003,0.39978c-1.2931,2.24-2.7332,4.3667-4.3201,6.38,0.42684-0.0264,1.0702-0.0631,1.9302-0.10987,0.85998-0.0468,1.5032-0.0834,1.9296-0.10986-0.27996-1.04-0.59978-2.0467-0.95948-3.02zm-5.4401,10.74c0.58634-1.853,0.94625-3.6863,1.0797-5.4999l0.85999,0.0598c-0.14649,1.9068-0.51311,3.7868-1.0998,5.6403zm6.8396-0.52002-0.79956,0.08c-0.13347-1.6398-0.36011-3.3331-0.67993-5.08l0.77942-0.0995c0.34667,1.9198,0.58003,3.6196,0.70007,5.0995z"/>
    <path d="m193.08,669.28c-1.6398,0.413-3.1464,0.6195-4.5196,0.6195-1.5466,0-2.8167-0.28666-3.8101-0.85998-0.99346-0.57333-1.4902-1.3066-1.4902-2.1997-0.00001-0.58675,0.26671-1.2568,0.80017-2.0102,0.53344-0.75337,1.2602-1.4767,2.1802-2.1701l0.63965,0.64026c-1.7468,1.3733-2.6202,2.5466-2.6202,3.5199-0.00001,0.58675,0.39001,1.0934,1.17,1.5201,0.78001,0.42664,1.8234,0.63995,3.1302,0.63995s2.7534-0.19327,4.3399-0.57983zm-8.7799-11.32c2.5866,0.00001,5.3467-0.19998,8.28-0.59998l0.08,0.89966c-3.0001,0.39999-5.7868,0.59999-8.36,0.59997zm-3.96-2.3999c-0.66651,2.4801-0.99976,5.0134-0.99976,7.6001s0.33325,5.1198,0.99976,7.5995l-0.96009,0.14038c-0.6665-2.4801-0.99976-5.0601-0.99975-7.7402-0.00001-2.68,0.33325-5.2601,0.99975-7.7402z"/>
    <path d="m200.18,662.4,0,2.6202,11,0,0-2.6202zm0-3.2599,0,2.4798,11,0,0-2.4798zm0-0.78003,11,0,0-2.42-11,0zm8.4796,12.16c0.56029,0.0269,0.9737,0.0403,1.2402,0.0403,0.30679,0,0.74014-0.0134,1.3-0.0403,0.33324-0.0134,0.56985-0.0367,0.70984-0.0699,0.13996-0.0332,0.28329-0.10315,0.42999-0.20996,0.14667-0.10681,0.25002-0.31016,0.31006-0.61004,0.06-0.29989,0.1133-0.65989,0.15991-1.08,0.0466-0.42012,0.09-1.0235,0.13031-1.81l0.93994,0.08c-0.0533,0.90658-0.10998,1.5966-0.16998,2.07-0.06,0.47343-0.13674,0.89681-0.2301,1.2701-0.0934,0.37333-0.24345,0.62998-0.45014,0.76996-0.20672,0.13997-0.43672,0.24332-0.69,0.31005-0.25331,0.0667-0.61983,0.11332-1.0996,0.13977-0.30682,0.0134-0.78024,0.0201-1.4203,0.0201-0.58676-0.00001-1.0268-0.007-1.3202-0.0201-0.67994-0.0265-1.1233-0.11973-1.33-0.27984-0.20672-0.16012-0.31007-0.48004-0.31006-0.95978v-4.2602h-2.7197c-0.0936,1.3468-0.69367,2.5236-1.8002,3.5303-1.1066,1.0067-2.6598,1.7698-4.6597,2.2894l-0.28015-0.85999c1.8001-0.46631,3.1902-1.1262,4.1702-1.9797,0.98001-0.85347,1.5166-1.8468,1.6098-2.98h-2.9999-0.96008v-10.78h12.92v10.78h-4.3201v3.9197c-0.00001,0.30681,0.04,0.50019,0.11994,0.58014,0.0799,0.08,0.31991,0.12665,0.71991,0.14008z"/>
    <path d="m221.86,662.4c-0.00001-0.31981-0.003-0.82976-0.01-1.5298-0.007-0.70007-0.01-1.2434-0.01-1.63-1.4933,0.24009-3.0267,0.36012-4.6002,0.36011l-0.0201-0.88013c1.56,0.00001,3.0935-0.12002,4.6002-0.3601v-3.4601h0.9198c-0.00001,1.8002,0.0134,4.007,0.0403,6.6205,1.7598-1.6402,3.1097-2.7703,4.0497-3.3902,0.93993-0.6199,1.6833-0.92986,2.2302-0.92987,0.59976,0.00001,1.023,0.23327,1.2698,0.69977,0.24677,0.46652,0.37017,1.2798,0.37018,2.4399-0.00001,1.1466-0.0334,2.2268-0.1001,3.2404-0.0667,1.0266-0.10011,1.9531-0.10009,2.7795-0.00002,0.90699,0.0467,1.6004,0.14007,2.0804,0.0934,0.47994,0.20669,0.77992,0.33997,0.89996,0.13324,0.12004,0.31991,0.18005,0.56,0.18005,0.3198,0,0.78306-0.20334,1.3898-0.61004,0.60667-0.4067,1.1635-0.91014,1.6705-1.5103l0.67993,0.64026c-0.6535,0.76009-1.3269,1.3535-2.0203,1.7801-0.69338,0.42664-1.3001,0.63995-1.8201,0.63995-0.66652,0-1.1532-0.29337-1.46-0.88012-0.30682-0.58675-0.46022-1.5668-0.46021-2.9401-0.00001-0.83983,0.0334-1.7731,0.1001-2.7997,0.0667-0.9733,0.10008-2.0467,0.1001-3.2202-0.00002-1.04-0.06-1.7201-0.18006-2.0401-0.12005-0.32002-0.33998-0.48003-0.65979-0.48004-0.78655,0.00001-2.8133,1.5534-6.0803,4.66,0.0533,4.3469,0.10009,7.1535,0.14038,8.4198l-0.92041,0.0201c-0.0533-1.9865-0.0999-4.5064-0.13977-7.5598-1.7598,1.72-3.2198,3.1866-4.3799,4.4l-0.67993-0.59997c1.3997-1.4669,3.0796-3.147,5.0397-5.0403z"/>
    <path d="m246.42,666.56c-1.0531-0.48014-2.0197-0.72021-2.8998-0.72022-0.98675,0.00001-1.7401,0.18342-2.2601,0.55024-0.52002,0.36682-0.78003,0.87677-0.78002,1.5298-0.00001,0.72022,0.26336,1.2803,0.7901,1.6803,0.52672,0.39998,1.2767,0.59997,2.2501,0.59997,1.0534,0,1.8001-0.23671,2.24-0.71014,0.43985-0.47343,0.65978-1.2633,0.65979-2.3697zm-0.0195-0.93994c-0.0134-0.50659-0.0336-1.2933-0.0604-2.3602-0.013-0.12003-0.0229-0.3067-0.0296-0.56-0.007-0.25329-0.0101-0.43995-0.0101-0.56-2.3466,0.16033-4.7201,0.24049-7.1204,0.24048v-0.84045c2.6001,0.00001,4.9668-0.0732,7.1002-0.21973-0.0265-1.3066-0.0397-2.3-0.0397-2.9804-2.7067,0.14691-5.3267,0.22035-7.8601,0.22034v-0.83984c2.8666,0.00001,5.4932-0.0734,7.8796-0.22034,0.0134-0.90656,0.0667-1.8998,0.15992-2.9797l0.94055,0.0201c-0.0936,1.0396-0.14711,2.0062-0.16052,2.8998,1.84-0.1066,3.7602-0.27994,5.7605-0.52002l0.08,0.83984c-2.0003,0.22666-3.9472,0.4-5.8404,0.52002-0.00002,1.32,0.007,2.3067,0.0201,2.9602,1.2667-0.0936,2.9134-0.2602,4.9402-0.49987l0.08,0.83984c-1.6,0.1998-3.2666,0.36642-5,0.49988-0.00001,0.13347,0.003,0.33021,0.0101,0.59021,0.007,0.26002,0.0166,0.45655,0.0296,0.5896,0.0134,0.33366,0.0302,0.81045,0.0504,1.4304,0.0201,0.61992,0.0302,1.0698,0.0302,1.3498,1.3863,0.69336,3.1728,1.8801,5.3595,3.5602l-0.55969,0.70007c-1.9735-1.5336-3.5734-2.627-4.7998-3.28v0.1001c-0.00001,1.3863-0.30671,2.3895-0.92011,3.0096-0.61341,0.62012-1.6,0.93018-2.9599,0.93018-1.2537,0-2.2272-0.27669-2.9205-0.83008-0.69336-0.55338-1.04-1.3234-1.04-2.3102,0-0.90657,0.35004-1.6199,1.0501-2.1399,0.70007-0.52002,1.6702-0.78002,2.9105-0.78003,0.90657,0.00001,1.8799,0.20671,2.9199,0.62012z"/>
    <path d="m263.13,661.36c-0.52654,0.53305-0.7898,1.1663-0.78979,1.8997-0.00001,0.73345,0.26325,1.3668,0.78979,1.9,0.52652,0.53325,1.1631,0.79987,1.9098,0.79986,0.74665,0.00001,1.3834-0.26661,1.9101-0.79986,0.52672-0.53324,0.79008-1.1667,0.7901-1.9003-0.00002-0.81298-0.24995-1.4662-0.74982-1.9595-0.49989-0.49335-1.15-0.74004-1.9504-0.74005-0.74667,0.00001-1.3833,0.26674-1.9098,0.80017zm-1.7499,1.8799c0-1.0136,0.33661-1.857,1.0098-2.5302,0.67321-0.6732,1.5233-1.0098,2.5504-1.0098,1.0396,0.00001,1.9328,0.31332,2.6794,0.93994h0.0403c-0.0134-0.54687-0.0401-1.2868-0.08-2.2198-0.00001-0.0403-0.003-0.0937-0.0101-0.16022-0.007-0.0665-0.0101-0.11992-0.0101-0.16021-3.9201,0.17335-7.36,0.26002-10.32,0.26001v-0.85999c3.2532,0.00001,6.6864-0.0799,10.3-0.23987-0.0399-0.97329-0.0598-1.96-0.0598-2.9602h0.93994c-0.00001,1.2936,0.0134,2.2669,0.0403,2.9199,1.8799-0.0932,3.7598-0.20649,5.6396-0.33997l0.0604,0.84046c-1.9202,0.13307-3.807,0.24639-5.6604,0.33996-0.00001,0.0533,0.003,0.13328,0.0101,0.23987,0.007,0.10662,0.0101,0.18658,0.0101,0.23987,0.0533,1.7599,0.0799,3.0798,0.0799,3.96,0.2132,0.72022,0.31981,1.5603,0.31983,2.5201-0.00002,1.7334-0.55666,3.1601-1.6699,4.2801-1.1133,1.12-2.6965,1.8267-4.7498,2.1201l-0.15991-0.92041c3.28-0.45329,5.1265-1.9466,5.5396-4.48,0.0268-0.15991,0.0537-0.3599,0.0806-0.59998h-0.0403c-0.74667,0.93344-1.7399,1.4002-2.9797,1.4002-1.04,0-1.8934-0.33996-2.5601-1.0199-0.66671-0.67993-1.0001-1.5332-1.0001-2.5598z"/>
    <path d="m277.95,670.89c-0.5664-0.56681-0.84961-1.2569-0.84961-2.0703,0-0.81339,0.28331-1.5068,0.84992-2.0801,0.56661-0.57332,1.2566-0.85998,2.07-0.85998,0.81339,0,1.5067,0.28666,2.0801,0.85998,0.57332,0.57333,0.85998,1.2667,0.85999,2.0801-0.00001,0.8134-0.28667,1.5034-0.85999,2.07-0.57333,0.56661-1.2667,0.84991-2.0801,0.84991s-1.5035-0.2832-2.0703-0.84961zm0.57007-3.5803c-0.41341,0.41992-0.62012,0.92326-0.62012,1.51,0,0.58675,0.20671,1.0867,0.62012,1.4999,0.41341,0.41321,0.91339,0.61981,1.4999,0.61981,0.58654,0,1.0899-0.2066,1.51-0.61981,0.42012-0.41321,0.63018-0.91319,0.63019-1.4999-0.00001-0.58675-0.21007-1.0901-0.63019-1.51-0.42013-0.41992-0.92347-0.62988-1.51-0.62988-0.58655,0-1.0865,0.20996-1.4999,0.62988z"/>
   </g>
  </g>
 </g>
</svg>
