<?xml version="1.0" encoding="UTF-8" standalone="no"?>
<!-- Created with Inkscape (http://www.inkscape.org/) -->
<svg xmlns:rdf="http://www.w3.org/1999/02/22-rdf-syntax-ns#" xmlns="http://www.w3.org/2000/svg" version="1.1" xmlns:cc="http://creativecommons.org/ns#" xmlns:dc="http://purl.org/dc/elements/1.1/" viewBox="0 0 536.96 101.17">
 <metadata>
  <rdf:RDF>
   <cc:Work rdf:about="">
    <dc:format>image/svg+xml</dc:format>
    <dc:type rdf:resource="http://purl.org/dc/dcmitype/StillImage"/>
    <dc:title/>
   </cc:Work>
  </rdf:RDF>
 </metadata>
 <g transform="translate(268.48015,-56.061177)">
  <g font-family="&apos;M+ 2m thin&apos;" transform="translate(-294.48014,-514.70769)" font-stretch="normal" font-variant="normal" font-weight="normal" font-style="normal" fill="#000">
   <g style="letter-spacing:0px;word-spacing:0px;" font-size="29.5973835px" line-height="125%">
    <path d="m40.147,570.86c3.6111,3.177,7.735,6.0382,12.372,8.5835l-0.62143,1.213c-4.6373-2.5056-8.85-5.4456-12.638-8.8201-3.7882,3.3745-8.0009,6.3146-12.638,8.8201l-0.62143-1.213c4.6366-2.5453,8.7605-5.4065,12.372-8.5835zm-8.6124,9.1751,0-1.2727,15.449,0,0,1.2727zm-3.1677,5.2984,0-1.2727,21.784,0,0,1.2727c-3.2559,4.3801-7.459,8.1289-12.609,11.246l-0.76956-1.1245c4.7558-2.8807,8.653-6.2546,11.692-10.122z"/>
    <path d="m59.031,572.49,1.3612,0.20775c-0.98634,3.6702-1.4795,7.4192-1.4795,11.247-0.000004,3.8279,0.49316,7.5767,1.4795,11.246l-1.3612,0.20774c-1.0062-3.749-1.5093-7.5672-1.5093-11.454-0.000003-3.8872,0.5031-7.7054,1.5093-11.454zm14.651,5.1801c-0.000019-2.0522,0.07886-3.9465,0.23665-5.6832l1.3621,0.0298c-0.13852,1.7366-0.20777,3.5717-0.20774,5.5052,1.8745-0.15775,3.8279-0.38477,5.8602-0.68105l0.11832,1.3025c-2.4665,0.33541-4.4593,0.57206-5.9785,0.70994-0.000021,0.37516,0.0049,0.77982,0.0149,1.214,0.0099,0.43417,0.02482,0.91274,0.04471,1.4357,0.01985,0.52299,0.02979,0.94224,0.02981,1.2578,0.07886,2.4068,0.1183,4.3208,0.11832,5.7419,1.5981,0.96647,3.4233,2.4463,5.4754,4.4394l-0.9475,0.91769c-1.6572-1.6379-3.1665-2.9105-4.5279-3.818-0.0789,1.8149-0.54754,3.1516-1.4059,4.0099-0.8584,0.85838-2.146,1.2876-3.8627,1.2876-1.6578,0-2.97-0.39954-3.9368-1.1986-0.96678-0.79907-1.4502-1.8793-1.4502-3.2408-0.00001-1.2627,0.48834-2.2789,1.4651-3.0484,0.97669-0.76955,2.284-1.1543,3.9219-1.1543,1.1838,0.00001,2.486,0.34535,3.9065,1.036-0.03916-2.19-0.0786-3.8574-0.11832-5.0022-0.00002-0.0987-0.01477-0.6315-0.04426-1.5983-0.02953-0.96675-0.04428-1.6871-0.04426-2.161-3.0192,0.23726-5.9789,0.35589-8.8789,0.35587v-1.3025c2.8807,0.00002,5.8304-0.11831,8.849-0.35497zm0.23665,11.513c-1.4006-0.78882-2.7126-1.1832-3.9359-1.1832s-2.1853,0.25652-2.8859,0.76956c-0.70063,0.51304-1.0509,1.2233-1.0509,2.1307-0.000012,0.98634,0.34533,1.7607,1.036,2.3231,0.69066,0.56242,1.6574,0.84363,2.9003,0.84363,1.4012,0,2.4076-0.36987,3.0191-1.1096,0.61147-0.73975,0.91722-1.9385,0.91724-3.5962z"/>
    <path d="m93.719,570.86,1.4208,0c-0.000012,1.9534,0.0099,3.4037,0.02981,4.3509,3.8279-0.13787,8.0503-0.47327,12.667-1.0062l0.11923,1.2429c-4.9136,0.57207-9.1658,0.91741-12.756,1.036,0.059,3.2162,0.08851,4.8342,0.08852,4.854,1.7167-0.53289,3.5124-0.79935,5.3869-0.79936,2.841,0.00001,5.0902,0.63634,6.7476,1.909s2.4862,2.9845,2.4862,5.1354c-0.00002,2.072-0.7893,3.8282-2.3678,5.2686-1.5786,1.4404-3.739,2.3873-6.4812,2.8407l-0.26646-1.2429c2.4267-0.41428,4.3208-1.2331,5.6823-2.4564s2.0422-2.6933,2.0422-4.4101c-0.00002-1.3416-0.40949-2.481-1.2284-3.4183-0.81896-0.93725-1.9682-1.6034-3.4477-1.9984-1.5982,3.6509-3.6454,6.5764-6.1416,8.7763-2.4963,2.2-4.8099,3.3-6.941,3.3-1.164,0-2.0814-0.35031-2.7522-1.0509-0.67081-0.70061-1.0062-1.6624-1.0062-2.8854-0.000003-1.6379,0.62158-3.2313,1.8647-4.7804,1.2432-1.549,2.9104-2.7674,5.0017-3.655-0.03975-1.2037-0.07919-2.9894-0.11832-5.3571-1.7366,0.059-3.5717,0.0885-5.5053,0.0885v-1.2727c2.5062,0.00002,4.3413-0.0199,5.5053-0.0596-0.01988-0.96644-0.02982-2.4363-0.02981-4.4096zm8.7605,11.04c-0.74971-0.0795-1.3513-0.11921-1.8047-0.11923-1.8944,0.00002-3.6705,0.29598-5.3282,0.88789,0.11861,3.69,0.2273,6.4428,0.32607,8.2583,2.841-2.19,5.1099-5.199,6.8068-9.027zm-8.5537,1.3612c-1.6969,0.80871-3.0435,1.8446-4.0397,3.1076-0.99628,1.263-1.4944,2.5554-1.4944,3.8772-0.000004,0.86832,0.21211,1.5393,0.63633,2.0129s1.031,0.7104,1.8205,0.71039c1.0261,0.00001,2.1705-0.37484,3.4332-1.1245-0.15778-3.1571-0.2764-6.0183-0.35588-8.5835z"/>
    <path d="m133.47,579.91c-0.15839,1.4012-0.17826,3.7987-0.0596,7.1925l0.0298,0.14813c-0.00002,0.0982-0.00002,0.2213,0,0.36943-0.00002,0.14814-0.00002,0.29115,0,0.42904,1.4994,0.84845,3.5217,2.3581,6.0671,4.5288l-0.85808,1.0062c-2.1112-1.7758-3.8376-3.0978-5.1792-3.9661v0.62143c-0.00002,1.8944-0.41942,3.2658-1.2582,4.1143-0.83883,0.84845-2.1955,1.2727-4.07,1.2727-1.8149,0-3.2454-0.41444-4.2913-1.2433-1.046-0.82887-1.5689-1.9731-1.5689-3.4328-0.00001-1.3223,0.53275-2.393,1.5983-3.2119,1.0655-0.81893,2.4862-1.2284,4.2619-1.2284,1.3025,0.00001,2.5851,0.2764,3.8478,0.82918v-0.20775c-0.11804-3.4329-0.0885-5.8596,0.0885-7.2801zm-1.5391-3.3736,0.35497-1.2736c2.9397,0.65156,5.6922,1.5593,8.2574,2.7233l-0.50311,1.2429c-2.6441-1.1838-5.3472-2.0814-8.1093-2.6926zm0.11832,12.252c-1.3422-0.6708-2.6543-1.0062-3.9363-1.0062-1.3224,0.00001-2.388,0.29115-3.197,0.87343-0.80901,0.5823-1.2135,1.347-1.2135,2.2942-0.00001,1.0652,0.38973,1.8988,1.1692,2.5006,0.77949,0.60186,1.8599,0.90278,3.2413,0.90278,1.4596,0,2.4854-0.30589,3.0773-0.91769,0.59191-0.61179,0.88787-1.6773,0.88789-3.1966-0.00002-0.49316-0.01-0.97669-0.0289-1.4506zm-10.685-12.697c0.37514-1.3615,0.77979-3.0388,1.214-5.032l1.3612,0.20774c-0.29567,1.4603-0.68045,3.0289-1.1543,4.7059,1.8155-0.13787,3.6801-0.34501,5.5938-0.62143l0.0894,1.2727c-1.9932,0.27641-4.0059,0.49349-6.0382,0.65124-1.3218,4.5379-3.137,9.3621-5.4456,14.473l-1.3025-0.4733c2.3087-5.1497,4.0745-9.7767,5.2975-13.881-1.4404,0.0789-3.0584,0.11834-4.854,0.11833v-1.2727c2.0329,0.00002,3.7792-0.0494,5.2388-0.14813z"/>
    <path d="m168.66,592.88,0.17703,1.2727c-2.2888,0.43416-4.2717,0.65124-5.9487,0.65124-4.8739,0-7.3108-1.2034-7.3108-3.6103-0.00001-1.6776,1.3714-3.572,4.1143-5.6832l0.91769,0.9177c-2.4273,1.8944-3.641,3.4531-3.641,4.6761-0.00002,1.5987,1.9733,2.3981,5.9198,2.3981,1.618,0,3.5419-0.20745,5.7717-0.62234zm-0.74066-11.394c-3.4329,0.00002-6.9745,0.37486-10.625,1.1245l-0.17793-1.2727c3.7888-0.76954,7.3897-1.1543,10.803-1.1543zm-14.236-5.3571c3.0981-0.23663,6.1369-0.59191,9.1164-1.0658l0.17703,1.2727c-2.9795,0.47392-6.1857,0.83913-9.6186,1.0956-1.4404,5.7814-3.463,11.957-6.068,18.527l-1.3025-0.41369c2.5261-6.3733,4.4993-12.372,5.9198-17.995-2.1112,0.13791-3.9758,0.2168-5.5938,0.23665v-1.3025c2.2888-0.0397,4.2618-0.11861,5.9189-0.23665,0.47389-1.8546,0.88847-3.6798,1.2438-5.4754l1.3612,0.17703c-0.33541,1.7168-0.72019,3.4435-1.1543,5.1801z"/>
    <path d="m189.7,593.71c2.3876-0.37515,4.3212-1.4654,5.8011-3.2706,1.4798-1.8053,2.2197-3.9706,2.2197-6.4961-0.00003-2.4863-0.86819-4.509-2.6045-6.068-1.7364-1.559-3.9859-2.3385-6.7486-2.3385h-0.29536c-0.7503,5.8012-1.811,10.206-3.1821,13.215s-2.9545,4.5135-4.7502,4.5135c-1.1838,0.00001-2.279-0.74968-3.2855-2.2491s-1.5098-3.2851-1.5098-5.3571c0-3.3739,1.2037-6.1214,3.6112-8.2425,2.4074-2.1211,5.5447-3.1816,9.4118-3.1817,3.177,0.00002,5.7669,0.90266,7.7697,2.7079,2.0028,1.8053,3.0042,4.1385,3.0042,6.9997-0.00002,2.8612-0.84365,5.3129-2.5309,7.3551-1.6873,2.0422-3.8824,3.2705-6.5855,3.6848zm-3.0782-18.084c-2.9795,0.33542-5.372,1.4058-7.1776,3.211-1.8056,1.8053-2.7084,4.0694-2.7084,6.7924,0,1.7565,0.37981,3.2316,1.1394,4.4254,0.75962,1.1938,1.5242,1.7907,2.2938,1.7907,0.336,0,0.69142-0.11847,1.0663-0.35543,0.37484-0.23694,0.80885-0.71054,1.302-1.4208,0.49316-0.71025,0.97158-1.6376,1.4352-2.782,0.46366-1.1444,0.93229-2.723,1.4059-4.7357,0.47358-2.0127,0.88802-4.3212,1.2433-6.9256z"/>
    <path d="m204,584.03,0-1.391,25.69,0,0,1.391z"/>
    <path d="m259.05,578.76,0,1.2727-11.72,0,0,6.6298c-0.00002,1.4404-0.15297,2.3234-0.45885,2.6492-0.30591,0.32577-1.1098,0.48866-2.4116,0.48865-0.96708,0.00001-2.2795-0.0394-3.9372-0.11832v-1.2736c1.9733,0.0988,3.2264,0.14814,3.7593,0.14813,0.78942,0.00001,1.2531-0.0789,1.391-0.23665,0.13788-0.15776,0.20683-0.7003,0.20684-1.6276v-6.6596h-12.046v-1.2727h4.8838v-6.7779h1.4199v6.7779h5.7419v-7.9612h1.4506v2.9301h9.7965v1.213h-9.7965v3.818zm-18.617,2.6637c-1.2236,3.0782-3.0388,5.7913-5.4456,8.1391l-1.0062-0.85808c2.2888-2.2888,4.0251-4.8934,5.209-7.8139zm11.78,0.14813,1.036-0.79937c2.2689,2.2696,4.2025,4.5981,5.8006,6.9857l-1.0947,0.70994c-1.5392-2.3087-3.4531-4.6074-5.7419-6.8962zm-17.552,13.763c9.708-1.0652,16.525-3.6894,20.452-7.8726l0.91769,0.9177c-4.0255,4.3602-11.03,7.1028-21.014,8.2276z"/>
    <path d="m264.55,580.39c2.0522-2.5844,3.522-5.613,4.4096-9.0857l1.3025,0.35497c-0.25653,1.046-0.60187,2.1311-1.036,3.2553h6.4229v-4.0844h1.4506v4.0844h9.5599v1.2438h-9.5599v6.0969h11.513v1.2727h-8.6124v9.4118c-0.00002,0.39441,0.0147,0.67065,0.0443,0.82872,0.0295,0.15807,0.0936,0.33074,0.19239,0.51801,0.0987,0.18727,0.30106,0.30063,0.60698,0.34007,0.30588,0.0394,0.67093,0.0741,1.0952,0.10387,0.4242,0.0298,1.0407,0.0447,1.8494,0.0447h1.1543c0.23663,0,0.52265-0.0346,0.85808-0.10387,0.33538-0.0692,0.56239-0.13835,0.68104-0.20729,0.11861-0.0689,0.26674-0.2219,0.4444-0.45885,0.17761-0.23695,0.29097-0.46878,0.34007-0.6955,0.0491-0.22671,0.12296-0.59162,0.22174-1.0947,0.0987-0.50311,0.16783-0.99146,0.2073-1.4651,0.0394-0.47359,0.0886-1.1346,0.14768-1.9831l1.3025,0.11832c-0.059,0.9472-0.11323,1.7019-0.16258,2.264-0.0494,0.56212-0.12829,1.1294-0.23665,1.7017-0.10842,0.57235-0.20702,1.0015-0.29581,1.2876-0.0889,0.28602-0.2418,0.5722-0.45885,0.85853-0.2171,0.28632-0.4244,0.47871-0.62188,0.57717-0.19753,0.0984-0.49846,0.19705-0.90279,0.29581-0.40437,0.0987-0.79397,0.1531-1.1688,0.16303-0.37487,0.01-0.88806,0.0149-1.5396,0.0149-2.2888,0-3.7242-0.15792-4.3062-0.47375-0.58201-0.31584-0.873-1.125-0.87299-2.4275v-9.6186h-4.3211c-0.29627,3.3348-1.347,6.0874-3.1523,8.2579s-4.3064,3.6896-7.5032,4.5573l-0.5031-1.2429c2.9006-0.78943,5.1896-2.1706,6.8669-4.1436s2.6442-4.4492,2.9008-7.4287h-9.4118v-1.2727h12.194v-6.0969h-6.926c-0.84845,1.8547-1.8447,3.5121-2.9888,4.9723z"/>
    <path d="m293.35,575.42c6.7683,0.00001,14.345-0.58197,22.731-1.746l0.14813,1.3323c-4.2031,0.57207-7.5624,1.8348-10.078,3.7882-2.5155,1.9534-3.7733,4.2323-3.7733,6.8366-0.00001,2.4273,0.87297,4.3562,2.619,5.7866,1.7459,1.4304,4.2369,2.2838,7.473,2.5602l-0.14723,1.3612c-3.5913-0.27639-6.3933-1.2581-8.406-2.945-2.0127-1.687-3.0191-3.8919-3.0191-6.6149-0.00001-2.1509,0.70542-4.0995,2.1163-5.8458,1.4108-1.7462,3.4184-3.1321,6.0228-4.1576l-0.0289-0.0596c-5.5646,0.71057-10.784,1.0658-15.658,1.0658zm17.462,4.5288,1.1254-0.65123c0.86769,1.3416,1.8245,2.9792,2.8705,4.9127l-1.1544,0.56272c-0.94722-1.7758-1.8944-3.3838-2.8416-4.8242zm3.9074-1.1842,1.1543-0.65123c1.1248,1.7366,2.1114,3.404,2.9599,5.0021l-1.1543,0.59163c-1.046-1.8938-2.0326-3.5413-2.9599-4.9425z"/>
    <path d="m331.46,581.28c-0.7792,0.78885-1.1688,1.726-1.1688,2.8113-0.00001,1.0854,0.38959,2.0227,1.1688,2.8118,0.77919,0.78913,1.7213,1.1837,2.8262,1.1837,1.105,0.00001,2.0472-0.39456,2.8267-1.1837,0.77948-0.78913,1.1692-1.7265,1.1692-2.8122-0.00002-1.2031-0.3699-2.1697-1.1096-2.8999-0.73977-0.7301-1.7019-1.0952-2.8863-1.0952-1.105,0.00002-2.047,0.39473-2.8262,1.1842zm-2.5896,2.782c-0.00001-1.5,0.49813-2.7481,1.4944-3.7444,0.99627-0.99626,2.2543-1.4944,3.7742-1.4944,1.5385,0.00001,2.8602,0.46368,3.9652,1.391h0.0596c-0.0199-0.80929-0.0593-1.9043-0.11832-3.2851-0.00002-0.0596-0.005-0.13863-0.0149-0.2371-0.01-0.0984-0.0149-0.17747-0.0149-0.2371-5.8012,0.25654-10.892,0.3848-15.272,0.38478v-1.2727c4.8143,0.00002,9.895-0.11831,15.242-0.35498-0.059-1.4403-0.0885-2.9006-0.0885-4.3807h1.391c-0.00002,1.9143,0.0199,3.3546,0.0596,4.3211,2.782-0.13788,5.5639-0.30558,8.3459-0.50311l0.0894,1.2438c-2.8416,0.19692-5.6338,0.36462-8.3766,0.5031-0.00002,0.0789,0.005,0.19723,0.0149,0.35498,0.01,0.15778,0.0149,0.2761,0.0149,0.35497,0.0789,2.6044,0.1183,4.5578,0.11832,5.8602,0.31552,1.0658,0.47328,2.309,0.4733,3.7295-0.00002,2.5652-0.82377,4.6765-2.4713,6.334-1.6475,1.6574-3.9905,2.7032-7.029,3.1374l-0.23665-1.3621c4.854-0.67081,7.5866-2.8807,8.1978-6.6298,0.0397-0.23664,0.0795-0.5326,0.11923-0.88788h-0.0596c-1.105,1.3814-2.5748,2.072-4.4096,2.072-1.5391,0-2.802-0.5031-3.7886-1.5093-0.98665-1.0062-1.48-2.2689-1.48-3.7882z"/>
    <path d="m353.39,595.38c-0.83821-0.83881-1.2573-1.8601-1.2573-3.0638s0.41925-2.2298,1.2578-3.0782c0.83851-0.84843,1.8596-1.2726,3.0633-1.2727,1.2037,0.00001,2.2298,0.42423,3.0782,1.2727,0.84843,0.84845,1.2726,1.8745,1.2727,3.0782-0.00001,1.2037-0.42423,2.2248-1.2727,3.0633-0.84846,0.8385-1.8745,1.2578-3.0782,1.2578s-2.225-0.41911-3.0638-1.2573zm0.84363-5.2984c-0.6118,0.62143-0.9177,1.3663-0.91769,2.2346-0.00001,0.86831,0.30589,1.6082,0.91769,2.2197,0.61179,0.61149,1.3517,0.91724,2.2197,0.91724,0.86801,0,1.6129-0.30575,2.2346-0.91724,0.62172-0.61149,0.93259-1.3514,0.93259-2.2197,0-0.86831-0.31087-1.6132-0.93259-2.2346-0.62174-0.62142-1.3666-0.93214-2.2346-0.93214-0.86802,0-1.6079,0.31072-2.2197,0.93214z"/>
   </g>
   <g style="letter-spacing:0px;word-spacing:0px;" font-size="19.99999809px" line-height="125%">
    <path d="m36.28,620.36,3.7402-14.6,1.3196,0,3.7402,14.6-1.0602,0-1.12-4.6002-4.48,0-1.12,4.6002zm2.3602-5.4999,4.0399,0-2.0001-8.2001-0.04028,0z"/>
    <path d="m48.3,611.76,0.01953,0c0.26692-0.62662,0.6604-1.1166,1.1804-1.47,0.52002-0.35339,1.1133-0.53008,1.7798-0.53009,1.0665,0.00001,1.8265,0.31332,2.28,0.93994,0.45348,0.62663,0.68023,1.7133,0.68024,3.2599v6.4001h-0.98022v-6.2201c-0.000008-1.3997-0.16002-2.3296-0.48004-2.7896-0.32004-0.45999-0.88664-0.68999-1.6998-0.69-0.8132,0.00001-1.4765,0.38331-1.9901,1.1499-0.51351,0.76661-0.77027,1.8099-0.77026,3.1299v5.4199h-0.99976v-10.4h0.96008z"/>
    <path d="m64.04,605.36,0,15-0.96008,0,0-1.8201-0.03967,0c-0.64006,1.3468-1.5934,2.0203-2.8601,2.0203-1.0002,0-1.8269-0.42338-2.4802-1.2701-0.65328-0.84676-0.97992-2.2235-0.97992-4.1302-0.000001-3.5998,1.1534-5.3998,3.4601-5.3998,1.3066,0.00001,2.2465,0.67343,2.8198,2.0203h0.04028v-6.4203zm-6.3202,9.7998c-0.000002,1.4669,0.23,2.5736,0.69,3.3203,0.46,0.74666,1.1166,1.12,1.9699,1.12,0.81339,0,1.4602-0.36,1.9403-1.08,0.48014-0.72001,0.72021-1.74,0.72021-3.06v-0.59998c-0.000007-1.3066-0.24333-2.3232-0.72998-3.0499-0.48666-0.72672-1.1302-1.0901-1.9305-1.0901-1.7733,0.00001-2.6599,1.4799-2.6599,4.4397z"/>
    <path d="m69.04,609.96,0,2.3596,0.04028,0c0.82641-1.7065,2.0597-2.5598,3.7-2.5598,0.46671,0.00001,0.93322,0.06,1.3995,0.18005v0.9198c-0.41301-0.13305-0.87952-0.19957-1.3995-0.19958-1.04,0.00001-1.9167,0.42664-2.63,1.2799-0.7133,0.85328-1.0699,1.9265-1.0699,3.2196v5.2002h-1.0004v-10.4z"/>
    <path d="m77.82,611.07c0.62662-0.8736,1.58-1.3104,2.8601-1.3104,1.2801,0.00001,2.2335,0.43671,2.8601,1.3101,0.62662,0.87342,0.93993,2.2367,0.93994,4.09-0.000009,1.8532-0.31332,3.2166-0.93994,4.09-0.62663,0.87341-1.58,1.3101-2.8601,1.3101s-2.2335-0.43671-2.8601-1.3101c-0.62663-0.87341-0.93994-2.2367-0.93994-4.09-0.000001-1.8532,0.31331-3.2164,0.93994-4.0897zm0.75012,7.5397c0.44677,0.69987,1.1501,1.0498,2.11,1.0498,0.95987,0,1.6632-0.35004,2.11-1.0501,0.44677-0.70007,0.67016-1.8501,0.67017-3.45-0.000007-1.5999-0.2234-2.7498-0.67017-3.4497-0.44678-0.69986-1.1501-1.0498-2.11-1.0498-0.95988,0.00001-1.6632,0.34994-2.11,1.0498-0.44678,0.69988-0.67017,1.8498-0.67017,3.4497-0.000002,1.5999,0.22339,2.75,0.67017,3.4503z"/>
    <path d="m88.38,609.96,3.3997,0,0,9.5196,2.3004,0,0,0.88013-6.2006,0,0-0.88013,2.9004,0,0-8.6401-2.3999,0zm2.1796-2.5,0-2.3004,1.2201,0,0,2.3004z"/>
    <path d="m104.04,605.36,0,15-0.96008,0,0-1.8201-0.0397,0c-0.64006,1.3468-1.5934,2.0203-2.8601,2.0203-1.0002,0-1.8269-0.42338-2.4802-1.2701-0.65328-0.84676-0.97992-2.2235-0.97992-4.1302-0.000001-3.5998,1.1534-5.3998,3.4601-5.3998,1.3066,0.00001,2.2465,0.67343,2.8198,2.0203h0.0403v-6.4203zm-6.3202,9.7998c-0.000002,1.4669,0.23,2.5736,0.69,3.3203,0.46,0.74666,1.1166,1.12,1.9699,1.12,0.81339,0,1.4602-0.36,1.9403-1.08,0.48014-0.72001,0.72021-1.74,0.72022-3.06v-0.59998c-0.00001-1.3066-0.24334-2.3232-0.72998-3.0499-0.48666-0.72672-1.1302-1.0901-1.9305-1.0901-1.7733,0.00001-2.6599,1.4799-2.6599,4.4397z"/>
    <path d="m117.34,619.76c1.6134-0.2535,2.92-0.9902,3.92-2.2101,0.99994-1.2199,1.4999-2.6831,1.4999-4.3896-0.00002-1.6801-0.58667-3.0469-1.76-4.1004-1.1733-1.0534-2.6934-1.5802-4.5602-1.5802h-0.19959c-0.50701,3.9201-1.2238,6.8968-2.1503,8.9301-0.92652,2.0333-1.9965,3.0499-3.2098,3.0499-0.79997,0-1.54-0.50659-2.2202-1.5198-0.68014-1.0132-1.0202-2.2198-1.0202-3.62,0-2.2798,0.81339-4.1364,2.4402-5.5698,1.6268-1.4333,3.7467-2.15,6.3599-2.15,2.1468,0.00001,3.8969,0.60996,5.2502,1.8298,1.3533,1.2199,2.03,2.7965,2.03,4.7299-0.00002,1.9334-0.57009,3.5901-1.7102,4.9701-1.1402,1.38-2.6235,2.21-4.4501,2.4899zm-2.0801-12.22c-2.0134,0.22666-3.6301,0.94992-4.8502,2.1698s-1.8301,2.7498-1.8301,4.5898c0,1.1869,0.25665,2.1837,0.76996,2.9904,0.5133,0.80668,1.03,1.21,1.55,1.21,0.22704,0,0.46721-0.0801,0.72051-0.24017,0.25329-0.16012,0.54657-0.48014,0.87983-0.96009,0.33324-0.47993,0.65652-1.1066,0.96985-1.8799,0.3133-0.77331,0.62997-1.84,0.95001-3.2001,0.32002-1.3601,0.60007-2.92,0.84015-4.6799z"/>
    <path d="m136.16,612.46,3.3801,0,0-3.2202-3.3801,0zm0,0.79956,0,3.54,3.3801,0,0-3.54zm-4.3396,0,0,3.54,3.3801,0,0-3.54zm0-0.79956,3.3801,0,0-3.2202-3.3801,0zm0,5.1398-0.90027,0,0-9.1602,4.2804,0,0-2.3999-7.8802,0,0-0.85998,16.72,0,0,0.85998-7.8802,0,0,2.3999,4.2804,0,0,9.1602zm-3.02-8.5602,0,10.66,13.76,0,0-10.66,0.92041,0,0,12.62-0.92041,0,0-1.12-13.76,0,0,1.12-0.92041,0,0-12.62z"/>
    <path d="m159.22,609.58,0,10.46,3.3398,0,0-10.46zm-6.1603,2.8998,5.2405,0,0-2.8998-5.2405,0zm0,3.7402,5.2405,0,0-2.9797-5.2405,0zm0,3.8202,5.2405,0,0-3.0603-5.2405,0zm-4.2596,0,3.3398,0,0-10.46-3.3398,0zm-1.46-14.2,0-0.83984,16.66,0,0,0.83984-7.8595,0c-0.21363,1.027-0.47364,2.0005-0.78003,2.9205h8.1201v13h-0.92041v-0.92041h-13.76v0.92041h-0.92041v-13h6.4404c0.30639-0.88011,0.57291-1.8536,0.79957-2.9205z"/>
    <path d="m177.44,612.82c1.6264-0.59976,3.3862-1.0598,5.2795-1.38l0.12024,0.85999c-1.9068,0.33367-3.6601,0.8071-5.26,1.4203,0.13346,0.94686,0.20019,2.2068,0.2002,3.7799h-0.96008c-0.00001-1.2398-0.0468-2.373-0.14038-3.3996-1.3998,0.62663-2.4996,1.2966-3.2996,2.0099-0.79998,0.71331-1.2,1.3633-1.2,1.9501,0,1.4266,1.6866,2.1399,5.0598,2.1399,1.4665,0,2.9665-0.13997,4.5001-0.41992l0.1001,0.88012c-1.4002,0.26652-2.9336,0.39978-4.6002,0.39978-4.0536,0-6.0803-0.98002-6.0803-2.9401-0.00001-0.78654,0.47668-1.6265,1.43-2.5198,0.95336-0.89335,2.2768-1.7001,3.9703-2.4204-0.1469-0.85327-0.36032-1.4399-0.64026-1.76-0.27996-0.32002-0.64658-0.48003-1.0998-0.48004-0.66652,0.00001-1.5498,0.39999-2.6498,1.2-1.1001,0.79997-2.19,1.8933-3.27,3.28l-0.7605-0.49988c1.8136-2.3466,3.1604-4.5532,4.0405-6.6199-1.44,0.0399-2.9535,0.0598-4.5404,0.0598v-0.83984c1.5202,0.00001,3.147-0.0334,4.8804-0.1001,0.37312-1.0132,0.69315-2.0131,0.96008-2.9999l0.95948,0.21973c-0.27996,1.0266-0.57313,1.9401-0.87952,2.7405,2.64-0.12003,5.1933-0.32002,7.6599-0.59998l0.0598,0.83984c-2.76,0.30641-5.4466,0.51963-8.0597,0.63965-0.41341,1.0002-1.0002,2.1336-1.7602,3.4003l0.0201,0.0201c1.3867-1.04,2.5401-1.56,3.4601-1.5601,0.6665,0.00001,1.1997,0.20998,1.5997,0.62989,0.39997,0.41993,0.70006,1.1098,0.90026,2.0697z"/>
    <path d="m191.2,608.46-0.65979,0.57983c-1.027-1.1865-2.0937-2.3197-3.2001-3.3997l0.65979-0.58044c1.2268,1.2402,2.2935,2.3737,3.2001,3.4003zm-4.1998,3.4003,3.8196,0,0,6.04c0.54687,0.98632,1.3103,1.6629,2.2904,2.0297,0.98001,0.36682,2.59,0.55023,4.83,0.55023h6.2799l-0.0403,0.85999h-6.2799c-2.1867,0-3.8333-0.18342-4.9399-0.55024s-1.9532-1.0102-2.54-1.9302c-0.76009,0.94686-1.8001,1.887-3.1201,2.8204l-0.45959-0.78003c1.2797-0.89355,2.2929-1.8068,3.0396-2.7399v-5.4401h-2.8796zm14.1,1.0797-0.57983,2.2198,3.1396,0c-0.13308,1.6536-0.39634,2.7805-0.7898,3.3804-0.39349,0.59998-0.99672,0.89996-1.8097,0.89996-0.77353,0-1.7002-0.06-2.7802-0.18005l-0.0403-0.82031c0.96028,0.12003,1.8404,0.18005,2.6404,0.18005,0.52,0,0.91001-0.17995,1.17-0.53986,0.25999-0.3599,0.45653-1.0666,0.5896-2.12h-3.2001l0.58044-2.2198h-2.8601c-0.18678,1.3464-0.65013,2.5197-1.3901,3.5199-0.73996,1.0002-1.7034,1.7468-2.8903,2.24l-0.51941-0.70008c2.2131-0.92,3.5065-2.6066,3.88-5.0598h-3.28v-0.74036c-0.12004,0.0667-0.29674,0.16013-0.53009,0.28015-0.23336,0.12005-0.39012,0.2-0.47027,0.23987l-0.37964-0.75989c2.2799-1.1068,4.013-2.3401,5.1996-3.7h-4.8401v-0.80017h5.5402v-2.0398c-1.6268,0.10662-3.2001,0.15992-4.7198,0.15991l-0.0403-0.8197c3.8135,0.00001,7.3468-0.28665,10.6-0.85999l0.12024,0.79956c-1.6398,0.29339-3.3132,0.50681-5.0201,0.64026v2.1198h5.6604v0.80017h-4.9603c1.1999,1.3599,2.9333,2.5932,5.2002,3.7l-0.33997,0.80018c-2.4402-1.2134-4.3004-2.5867-5.5804-4.1199v3.1598h-0.89966v-3.1598c-1.0799,1.2931-2.5533,2.4597-4.4202,3.4998z"/>
    <path d="m216.96,610.54,0,1.9598c-0.00001,0.69337-0.0334,1.4067-0.1001,2.1399h5.7599v-4.0997zm0-0.82032,5.6598,0,0-3.7598-5.6598,0zm-8.2398,7.1405,0,1.3196-0.92041,0,0-12.72,6.2402,0,0,11.4zm0-5.4401,0,4.5996,4.4196,0,0-4.5996zm0-0.84045,4.4196,0,0-4.2395-4.4196,0zm13.28,10.941c-0.41343,0-1.3001-0.0334-2.6599-0.1001v-0.85998c1.2264,0.0667,2.0129,0.10009,2.3596,0.10009,0.45327,0,0.71989-0.0534,0.79986-0.16021,0.0799-0.10681,0.11992-0.47353,0.11994-1.1002v-3.9197h-5.86c-0.18637,1.32-0.52959,2.4732-1.0297,3.4598-0.50009,0.98653-1.2034,1.9132-2.11,2.7798l-0.70007-0.62011c1.1466-1.1064,1.9533-2.3262,2.42-3.6597,0.46671-1.3334,0.70007-3.0935,0.70008-5.2802v-7.0599h7.5201v14.3c-0.00002,0.97331-0.0767,1.57-0.2301,1.7902-0.15342,0.22013-0.59674,0.3302-1.33,0.3302z"/>
    <path d="m239.34,610.44c-0.10703,0.94687-0.12046,2.5669-0.0403,4.8602l0.0201,0.1001c-0.00002,0.0663-0.00002,0.14954,0,0.24963-0.00002,0.1001-0.00002,0.19674,0,0.28992,1.0132,0.57332,2.3797,1.5934,4.0997,3.0603l-0.57984,0.67993c-1.4266-1.2-2.5932-2.0933-3.4998-2.68v0.41992c-0.00002,1.2801-0.28342,2.2068-0.85022,2.7802-0.56683,0.57332-1.4836,0.85998-2.7502,0.85998-1.2264,0-2.193-0.28005-2.8998-0.84014-0.70679-0.5601-1.0602-1.3333-1.0602-2.3196,0-0.89356,0.36-1.617,1.08-2.1704,0.72-0.55339,1.68-0.83008,2.8799-0.83008,0.88012,0,1.7468,0.18677,2.6001,0.5603v-0.14038c-0.0798-2.3197-0.0598-3.9596,0.0598-4.9194zm-1.04-2.2797,0.23987-0.8606c1.9865,0.44028,3.8464,1.0537,5.5798,1.8402l-0.33996,0.83984c-1.7867-0.79995-3.6133-1.4064-5.4797-1.8194zm0.08,8.2794c-0.907-0.45328-1.7936-0.67992-2.6599-0.67993-0.89356,0.00001-1.6137,0.19674-2.1603,0.59021-0.54667,0.39348-0.82001,0.91024-0.82,1.5503-0.00001,0.7198,0.26336,1.2831,0.7901,1.6898,0.52672,0.4067,1.2568,0.61005,2.1902,0.61005,0.98632,0,1.6795-0.20671,2.0795-0.62012,0.39997-0.41341,0.59996-1.1334,0.59998-2.16-0.00002-0.33325-0.007-0.65999-0.0195-0.98023zm-7.2205-8.5797c0.25349-0.91999,0.52693-2.0534,0.82031-3.4003l0.9198,0.14039c-0.1998,0.98675-0.45981,2.0467-0.78003,3.1799,1.2268-0.0932,2.4868-0.23314,3.7799-0.41993l0.0604,0.85999c-1.3468,0.18678-2.7069,0.33347-4.0802,0.44006-0.89315,3.0664-2.1198,6.3263-3.6798,9.7797l-0.88012-0.31983c1.56-3.4798,2.7533-6.6064,3.5797-9.3799-0.97331,0.0533-2.0667,0.08-3.28,0.08v-0.85999c1.3737,0.00001,2.5537-0.0334,3.54-0.1001z"/>
    <path d="m260.34,605.76c-0.00001-0.64004,0.22999-1.19,0.69001-1.6498,0.45998-0.45978,1.01-0.68968,1.6501-0.68969,0.64004,0.00001,1.1901,0.22991,1.6501,0.68969,0.45998,0.45982,0.68998,1.0097,0.69,1.6498-0.00002,0.64007-0.23002,1.1901-0.69,1.6501-0.46002,0.46001-1.01,0.69001-1.6501,0.69-0.26694,0.00001-0.54038-0.0533-0.82031-0.15991-0.52004,6.7733-4.4666,10.947-11.84,12.52l-0.22034-0.88013c7.0402-1.56,10.74-5.58,11.1-12.06h-12.86v-0.90027h12.48c-0.12005-0.30638-0.18007-0.59305-0.18006-0.85999zm3.44,1.1005c0.30678-0.30679,0.46018-0.67351,0.4602-1.1002-0.00002-0.42662-0.15342-0.79334-0.4602-1.1002-0.30683-0.30679-0.67355-0.46019-1.1002-0.46021-0.42666,0.00002-0.79327,0.15342-1.0999,0.46021-0.30661,0.30682-0.45991,0.67354-0.4599,1.1002-0.00001,0.42665,0.15329,0.79327,0.4599,1.0998,0.30659,0.30661,0.6732,0.45991,1.0999,0.4599,0.42661,0.00001,0.79333-0.15318,1.1002-0.45959z"/>
    <path d="m268.26,611.74,0-0.85999,14.64,0,0,0.85999c-0.43988,2.64-1.5132,4.6866-3.2199,6.1398-1.7068,1.4532-4.2001,2.4466-7.4802,2.98l-0.18006-0.85999c3.0404-0.49316,5.3538-1.4031,6.9403-2.7298s2.5797-3.1701,2.9797-5.5301zm1.6199-4.6802,0-0.85998,11.6,0,0,0.85998z"/>
    <path d="m289.94,607.3,0-0.87952,11.3,0,0,0.87952c-0.8537,2.2669-2.1871,4.4204-4.0002,6.4606,1.4799,1.4799,3.4666,3.5398,5.9601,6.1798l-0.67994,0.63965c-2.12-2.2664-4.0867-4.3064-5.9003-6.12-2.4398,2.5602-5.1664,4.5003-8.1799,5.8203l-0.39978-0.82032c2.7197-1.2,5.193-2.9232,7.4197-5.1697,2.2268-2.2465,3.8001-4.5766,4.7202-6.9904z"/>
    <path d="m307.58,613.1,0-0.88013,8.36,0,0-0.39978,0-3.9801c-1.6398,0.25351-3.6932,0.38026-6.1603,0.38025v-0.85999c2.347,0.00002,4.3471-0.12663,6.0004-0.37994,1.6532-0.25328,3.5465-0.71338,5.6799-1.3803l0.28016,0.83984c-1.8534,0.57334-3.4601,0.98675-4.82,1.2402v4.14,0.39978h6.8597v0.88013h-6.9c-0.13348,2.2668-0.67679,4.0002-1.63,5.2002-0.95317,1.2-2.4631,2.0734-4.5297,2.6202l-0.26001-0.86059c1.8664-0.50659,3.213-1.2832,4.0396-2.3297,0.82661-1.0466,1.2999-2.5899,1.42-4.6301z"/>
    <path d="m341.8,609.3c-0.4,3.547-1.31,6.1604-2.7301,7.8403s-3.7166,2.8865-6.8896,3.6197l-0.2002-0.79956c2.9468-0.69336,5.0802-1.8268,6.4002-3.4003s2.1665-4.0135,2.5397-7.3199zm-12.08,0.72022,0.83985-0.23987c0.4134,1.2134,0.86018,2.7867,1.3403,4.7198l-0.82031,0.21972c-0.4533-1.7863-0.90658-3.3528-1.3599-4.6997zm4.1199-0.82032,0.85998-0.23986c0.58674,1.9336,1.0402,3.607,1.3605,5.0201l-0.85998,0.20019c-0.32024-1.3603-0.77373-3.0204-1.3605-4.9805z"/>
    <path d="m361.88,608.16c-0.59979,7.3999-4.7132,11.52-12.34,12.36l-0.16-0.88c7.1199-0.73324,10.96-4.5597,11.52-11.479h-7.8198c-0.7601,2.1733-2.0602,4.1064-3.9002,5.7996l-0.63965-0.62012c2.4801-2.3197,3.9134-5.133,4.2999-8.4399l0.93994,0.0799c-0.0667,0.73366-0.21343,1.507-0.44006,2.32h8.54z"/>
    <path d="m383.08,619.28c-1.6398,0.413-3.1464,0.61951-4.5197,0.61951-1.5466,0-2.8167-0.28666-3.8101-0.85999-0.99345-0.57332-1.4902-1.3066-1.4902-2.1997-0.00001-0.58674,0.26672-1.2568,0.80017-2.0102,0.53344-0.75337,1.2602-1.4767,2.1802-2.1701l0.63965,0.64026c-1.7468,1.3733-2.6202,2.5466-2.6202,3.5199-0.00001,0.58676,0.39,1.0934,1.17,1.5201,0.78002,0.42664,1.8234,0.63996,3.1302,0.63996s2.7534-0.19328,4.3399-0.57984zm-8.7799-11.32c2.5867,0.00001,5.3467-0.19998,8.28-0.59998l0.0799,0.89966c-3.0001,0.4-5.7868,0.59999-8.36,0.59998zm-3.96-2.3999c-0.66651,2.4801-0.99976,5.0134-0.99976,7.6001s0.33325,5.1198,0.99976,7.5995l-0.96008,0.14038c-0.66651-2.4801-0.99976-5.0601-0.99976-7.7402,0-2.68,0.33325-5.2601,0.99976-7.7402z"/>
    <path d="m389.12,611.02,0-5.8398,14.32,0,0,0.85998-13.38,0,0,3.5999,12.3,0,0,0.82031c-1.027,2.7466-2.6005,5.0533-4.7205,6.9202,1.7867,1.3863,3.9734,2.4862,6.5601,3.2996l-0.37964,0.84045c-2.6803-0.84025-4.9803-2.0203-6.9-3.54-1.9202,1.5198-4.2336,2.6998-6.9403,3.54l-0.3601-0.84045c2.5468-0.79997,4.7335-1.8998,6.56-3.2996-1.7464-1.547-3.1331-3.4406-4.1602-5.6806l0.85998-0.37963c0.98673,2.1468,2.3336,3.9669,4.0405,5.4602,1.9332-1.6801,3.4131-3.7868,4.4397-6.3202h-11.3v1.0199c-0.00001,3.9868-0.79997,7.3002-2.3999,9.9402l-0.73975-0.67993c1.4665-2.5334,2.1997-5.7735,2.1997-9.7205z"/>
    <path d="m408.86,610.08,0,2.2003,5.08,0,0-2.2003zm0-0.78003,5.08,0,0-2.0599-5.08,0zm0,6.0803c2.0532-0.22663,3.7465-0.49336,5.08-0.80017v-1.5198h-5.08zm15.92-7.6202,0,0.85998-1.6199,0,0,10.6c-0.00001,1.0535-0.10662,1.7136-0.31982,1.9803-0.21323,0.26672-0.77333,0.40008-1.6803,0.40009-0.74668-0.00001-1.7865-0.0334-3.1195-0.1001l-0.0201-0.85999c1.2931,0.0667,2.2998,0.1001,3.02,0.1001,0.55988,0,0.89313-0.0667,0.99976-0.20019,0.10659-0.13347,0.15989-0.57353,0.15991-1.3202v-10.6h-6.7596v-0.85998h6.7596v-3.28h0.96008v3.28zm-8.1195,3.1799,0.79956-0.41993c1.1068,1.8933,2.0534,3.8601,2.84,5.9003l-0.83985,0.31983c-0.81341-2.0801-1.7466-4.0135-2.7997-5.8002zm-3.3203,10.66c-0.41342-0.00001-1.3001-0.0334-2.6599-0.1001l-0.0202-0.83985c1.2,0.0663,1.9934,0.0995,2.3804,0.0995,0.42643,0,0.68298-0.0633,0.76966-0.18982,0.0867-0.12654,0.12999-0.5365,0.13-1.2299v-3.4003c-1.9067,2.0133-4.2334,3.76-6.98,5.2399l-0.44006-0.79956c2.5468-1.3334,4.7402-2.9401,6.5802-4.8199-1.9067,0.39999-4.0867,0.70659-6.5399,0.9198l-0.0403-0.85999c0.17334-0.0134,0.41341-0.0368,0.72021-0.0702,0.30681-0.0334,0.53345-0.0565,0.67994-0.0696v-9.0802h2.7399c0.21362-0.65347,0.4071-1.4402,0.58045-2.3602l0.93994,0.12024c-0.17335,0.83986-0.36011,1.5865-0.5603,2.24h3.2202v7.1002c0.39998-0.53344,0.68664-0.94014,0.85999-1.2201l0.7196,0.49988c-0.43987,0.67993-0.9664,1.3932-1.5796,2.1399v4.4c-0.00001,1.0002-0.0801,1.6302-0.24017,1.8903-0.16013,0.26001-0.58015,0.39001-1.2601,0.39002z"/>
    <path d="m428.02,608.52c3.0131,0.10662,5.9664,0.0134,8.8599-0.27954-0.34669-1.027-0.70009-2.2471-1.0602-3.6603l0.92041-0.12024c0.34666,1.3867,0.69985,2.6135,1.0596,3.6804,1.9067-0.20018,3.7268-0.48033,5.4602-0.84045l0.15991,0.84045c-1.7867,0.35972-3.56,0.63295-5.3198,0.81971,0.65347,1.707,1.5735,3.5004,2.76,5.3802l-1.1603,0.57984c-1.4799-0.99975-3.0998-1.4996-4.8596-1.4996-1.32,0.00001-2.3501,0.27325-3.0902,0.81971-0.74016,0.54647-1.1102,1.2998-1.1102,2.2601,0,1.1198,0.50669,1.983,1.5201,2.5897,1.0134,0.60669,2.4535,0.91003,4.3204,0.91003,1.0132,0,2.3065-0.14668,3.88-0.44006l0.13977,0.85999c-1.5735,0.29337-2.9134,0.44006-4.0198,0.44006-2.1867,0-3.8667-0.37994-5.04-1.1398-1.1733-0.75989-1.76-1.8332-1.76-3.2199,0-1.2,0.45664-2.1567,1.3699-2.8702,0.91329-0.71349,2.1432-1.0702,3.6899-1.0702,1.6667,0.00001,3.2133,0.37334,4.6399,1.12l0.0201-0.0195c-0.94687-1.6402-1.6868-3.1736-2.2198-4.6002-3.2003,0.30682-6.2604,0.41343-9.1803,0.31983z"/>
    <path d="m460.32,604.74c-0.0533,1.2402-0.0665,2.6803-0.0397,4.3201,2.1598-0.19977,3.4265-0.31981,3.8-0.3601l0.08,0.84045c-0.86672,0.0932-2.16,0.21974-3.88,0.37964-0.00001,0.0802,0.003,0.20692,0.01,0.38025,0.007,0.17335,0.01,0.30661,0.01,0.39978l0.0201,2.8198c-0.00002,1.3603-0.51332,2.0404-1.5399,2.0404-0.36012,0-0.94351-0.0934-1.7502-0.28015-0.80669-0.18677-1.5766-0.4067-2.3099-0.65979l0.26001-0.90027c1.6935,0.60018,2.9136,0.90027,3.6603,0.90027,0.25308,0,0.43964-0.0834,0.55969-0.25025,0.12002-0.16682,0.18004-0.51676,0.18006-1.0498l-0.0202-2.7203v-0.59997c-2.6131,0.2002-5.1398,0.3536-7.58,0.4602,0.0403,2.1733,0.0604,4.1732,0.0604,5.9998,0,0.76009,0.04,1.3302,0.11994,1.7102,0.0799,0.38005,0.28991,0.70669,0.62988,0.97992,0.33996,0.27323,0.79996,0.44657,1.38,0.52002,0.58002,0.0735,1.4167,0.11017,2.5101,0.11017,1.7733,0,3.5799-0.13347,5.4199-0.40039l0.10009,0.88012c-1.8669,0.26693-3.7203,0.40039-5.5603,0.40039-1.2,0-2.1433-0.0534-2.8299-0.16021-0.68665-0.10681-1.2433-0.32685-1.6699-0.6601-0.42665-0.33325-0.70995-0.75653-0.84992-1.2698-0.13998-0.51331-0.20996-1.2167-0.20996-2.1103,0-1.04-0.0267-3.0267-0.08-5.9601-1.7334,0.0533-2.9201,0.08-3.5602,0.08v-0.85999c1.0665,0.00001,2.2465-0.0199,3.54-0.0598-0.0134-0.39997-0.0301-1.0566-0.05-1.9699-0.0199-0.91328-0.0366-1.5833-0.05-2.0102h0.96008c0.0264,0.94687,0.0663,2.2603,0.11963,3.9404,2.067-0.0936,4.5939-0.2537,7.5806-0.48035-0.0134-1.2667-0.00021-2.7333,0.0397-4.4z"/>
    <path d="m470.44,606.2c3.2133,0.00001,6.5332-0.1599,9.9597-0.47974l0.2002,0.97961c-2.2534,1.827-4.7534,3.7404-7.5,5.7404l0.0201,0.0397c1.4266-0.45328,2.7799-0.67992,4.0601-0.67993,1.853,0.00001,3.1929,0.41006,4.0198,1.2302,0.82681,0.82011,1.2402,1.8434,1.2402,3.0698-0.00002,1.4933-0.64669,2.6934-1.94,3.6002-1.2934,0.90678-3.0401,1.3602-5.2402,1.3602-1.44,0-2.5567-0.24332-3.3499-0.72998-0.79326-0.48665-1.1899-1.17-1.1899-2.0502-0.00001-0.64005,0.31992-1.1967,0.95978-1.6699,0.63984-0.47322,1.4865-0.70983,2.54-0.70984,1.0132,0.00001,1.8098,0.22329,2.3898,0.66986,0.58002,0.44658,0.87004,1.0633,0.87005,1.8503-0.00001,0.49317-0.11333,1.0464-0.33996,1.6596,1.3733-0.21322,2.44-0.66986,3.2001-1.3699,0.76007-0.70007,1.1401-1.5634,1.1401-2.59-0.00002-2.3466-1.5668-3.5199-4.7003-3.5199-1.1467,0.00001-2.3432,0.22665-3.5898,0.67993-1.2466,0.4533-2.7432,1.2199-4.49,2.2998l-0.52002-0.78003c4.0934-2.6798,7.7866-5.3931,11.08-8.1396l-0.0195-0.0403c-3.3334,0.32024-6.2667,0.48036-8.8,0.48035zm5.7196,14c0.26692-0.6132,0.40038-1.1798,0.40039-1.6998-0.00001-0.5603-0.20336-1.0005-0.61004-1.3205-0.40671-0.32003-0.98339-0.48004-1.73-0.48005-0.78654,0.00001-1.4132,0.15677-1.8799,0.47028-0.46672,0.31352-0.70008,0.68349-0.70007,1.1099-0.00001,1.2935,1.2199,1.9403,3.6597,1.9403,0.38695,0,0.67361-0.007,0.85998-0.0201z"/>
    <path d="m487.95,620.89c-0.5664-0.56682-0.84961-1.2569-0.84961-2.0703,0-0.81339,0.28331-1.5068,0.84992-2.0801,0.56661-0.57332,1.2566-0.85998,2.07-0.85999,0.81339,0.00001,1.5067,0.28667,2.0801,0.85999,0.57332,0.57332,0.85998,1.2667,0.85999,2.0801-0.00001,0.8134-0.28667,1.5034-0.85999,2.07-0.57333,0.56661-1.2667,0.84991-2.0801,0.84992-0.8134-0.00001-1.5035-0.28321-2.0703-0.84961zm0.57007-3.5803c-0.41341,0.41992-0.62012,0.92326-0.62012,1.51,0,0.58676,0.20671,1.0867,0.62012,1.4999,0.41341,0.41321,0.91339,0.61981,1.4999,0.61982,0.58654-0.00001,1.0899-0.20661,1.51-0.61982,0.42012-0.4132,0.63018-0.91318,0.63019-1.4999-0.00001-0.58674-0.21007-1.0901-0.63019-1.51-0.42013-0.41992-0.92347-0.62988-1.51-0.62989-0.58655,0.00001-1.0865,0.20997-1.4999,0.62989z"/>
    <path d="m40.42,631.04c3.5998-0.0264,6.8331-0.21971,9.6997-0.57983l0.22034,0.88013c-2.7734,2.7067-5.4334,4.5134-7.9797,5.4199l0.01953,0.0397c3.6133-0.1599,7.4599-0.45979,11.54-0.89966l0.07996,0.8197c-3.4933,0.36012-6.1165,1.0268-7.8699,2.0001-1.7533,0.97331-2.63,1.9867-2.63,3.0402-0.000008,2.1464,2.2868,3.2863,6.8604,3.4198l-0.02014,0.88012c-2.5867-0.0667-4.5367-0.45674-5.8499-1.17-1.3133-0.7133-1.9699-1.7232-1.9699-3.0298-0.000007-0.92,0.43324-1.7801,1.2997-2.5803,0.86649-0.80016,2.1731-1.4735,3.92-2.02v-0.0403c-4.2,0.34669-7.64,0.52003-10.32,0.52002v-0.8197c2.0268-0.0134,3.9401-0.44341,5.74-1.29,1.7999-0.84655,3.7332-2.2433,5.7999-4.1904l-0.02014-0.0397c-2.6534,0.30682-5.4934,0.47344-8.5199,0.49988z"/>
    <path d="m61.86,637.4c-0.000007-0.31981-0.0033-0.82976-0.0098-1.5298-0.0065-0.70006-0.0098-1.2434-0.0098-1.6299-1.4933,0.24008-3.0267,0.36011-4.6002,0.3601l-0.02014-0.88012c1.5601,0.00001,3.0935-0.12003,4.6002-0.36011v-3.4601h0.9198c-0.000008,1.8001,0.01342,4.007,0.04028,6.6205,1.7598-1.6402,3.1097-2.7703,4.0497-3.3902,0.93993-0.6199,1.6833-0.92986,2.2302-0.92987,0.59976,0.00001,1.023,0.23327,1.2698,0.69977,0.24677,0.46652,0.37016,1.2798,0.37018,2.4399-0.000015,1.1466-0.03338,2.2268-0.1001,3.2404-0.06675,1.0266-0.10011,1.9531-0.1001,2.7796-0.000015,0.90698,0.04668,1.6004,0.14008,2.0804,0.09337,0.47994,0.20669,0.77993,0.33997,0.89996,0.13324,0.12004,0.31991,0.18006,0.56,0.18006,0.31981,0,0.78306-0.20335,1.3898-0.61005,0.60667-0.4067,1.1635-0.91013,1.6705-1.5103l0.67993,0.64026c-0.6535,0.7601-1.3269,1.3535-2.0203,1.7801-0.69338,0.42664-1.3001,0.63996-1.8201,0.63996-0.66652,0-1.1532-0.29338-1.46-0.88013-0.30682-0.58675-0.46022-1.5668-0.4602-2.9401-0.000014-0.83984,0.03335-1.7731,0.1001-2.7997,0.06672-0.9733,0.10008-2.0467,0.1001-3.2202-0.000014-1.04-0.06003-1.7201-0.18005-2.0401-0.12005-0.32002-0.33998-0.48003-0.65979-0.48004-0.78655,0.00001-2.8133,1.5534-6.0803,4.66,0.0533,4.3469,0.10009,7.1535,0.14038,8.4198l-0.92041,0.0201c-0.05331-1.9865-0.0999-4.5064-0.13977-7.5598-1.7599,1.72-3.2198,3.1866-4.3799,4.4l-0.67993-0.59997c1.3997-1.4669,3.0796-3.147,5.0397-5.0403z"/>
    <path d="m92.92,644.4,0.12024,0.85998c-1.5466,0.29338-2.8868,0.44006-4.0204,0.44006-3.2931,0-4.9396-0.81339-4.9396-2.4402-0.000009-1.1332,0.9265-2.4131,2.7795-3.8397l0.62012,0.62012c-1.6398,1.2797-2.4597,2.333-2.4597,3.1598-0.000009,1.0799,1.3332,1.6199,3.9996,1.6199,1.0933,0,2.3934-0.13998,3.9001-0.41992zm-3.5602-14.88,0.72022-0.40039c0.45327,0.7068,1.04,1.707,1.7603,3.0005l-0.72022,0.37964c-0.55991-1.04-1.1467-2.0333-1.7603-2.9797zm2.5604-0.36011,0.73975-0.39978c0.7202,1.1597,1.3202,2.1796,1.7999,3.0597l-0.73975,0.38025c-0.58677-1.0669-1.1867-2.0803-1.7999-3.0402zm-6.8005,7.4402c2.5602-0.52001,4.9937-0.78002,7.3004-0.78002v0.87951c-2.3202,0.00001-4.7136,0.25351-7.1802,0.7605zm-2.3199-3.5205c2.0935-0.1599,4.1469-0.39977,6.1603-0.71961l0.12024,0.85999c-2.0134,0.31983-4.1801,0.56642-6.5002,0.73974-0.97331,3.9067-2.3399,8.08-4.0997,12.52l-0.88013-0.28015c1.7065-4.3066,3.0397-8.36,3.9996-12.16-1.4266,0.0936-2.6866,0.1469-3.7799,0.15991v-0.87951c1.5466-0.0268,2.88-0.0802,4.0002-0.15992,0.31982-1.2536,0.59976-2.4872,0.83984-3.7006l0.9198,0.12024c-0.22665,1.1601-0.48666,2.3267-0.78003,3.4998z"/>
    <path d="m100.48,630.56c-0.6665,2.4801-0.99976,5.0134-0.99975,7.6001-0.000003,2.5867,0.33325,5.1198,0.99975,7.5995l-0.96008,0.14038c-0.66651-2.4801-0.99976-5.0601-0.99976-7.7402-0.000003-2.68,0.33325-5.2601,0.99976-7.7402zm9.0399-0.64026,0.94055,0c-0.00001,0.94687,0.0399,2.2868,0.11963,4.0198-0.00002,0.0134,0.003,0.0468,0.0101,0.1001,0.007,0.0533,0.0101,0.0867,0.0101,0.1001,0.83983-0.0667,1.9598-0.18004,3.36-0.33997l0.0799,0.85999c-1.3733,0.15992-2.5067,0.27324-3.4003,0.33996,0.0403,0.88014,0.0604,1.7536,0.0604,2.6202-0.00002,2.6933-0.35005,4.62-1.0501,5.78-0.70009,1.1601-2.1034,2.1134-4.2099,2.8601l-0.40039-0.84046c0.77351-0.27994,1.407-0.55328,1.9003-0.82,0.49335-0.26673,0.93667-0.59001,1.33-0.96985,0.39326-0.37984,0.68654-0.8431,0.87983-1.3898,0.19326-0.54667,0.33995-1.1867,0.44006-1.9202,0.10008-0.73343,0.15013-1.6334,0.15015-2.6999-0.00002-0.84024-0.02-1.687-0.0598-2.5403-2.0003,0.1469-4.2538,0.22035-6.7602,0.22034v-0.88013c2.48,0.00001,4.72-0.0734,6.72-0.22034v-0.27954c-0.0802-1.7334-0.12025-3.0668-0.12024-4.0002z"/>
    <path d="m127.34,644.76c1.6134-0.25349,2.92-0.99019,3.92-2.2101,0.99994-1.2199,1.4999-2.6831,1.4999-4.3896-0.00002-1.6801-0.58667-3.0469-1.76-4.1003s-2.6934-1.5802-4.5602-1.5802h-0.19959c-0.50701,3.9201-1.2238,6.8968-2.1503,8.93-0.92652,2.0333-1.9965,3.0499-3.2098,3.0499-0.79997,0-1.54-0.50659-2.2202-1.5198-0.68014-1.0132-1.0202-2.2198-1.0202-3.62,0-2.2799,0.81339-4.1364,2.4402-5.5698,1.6268-1.4333,3.7467-2.15,6.3599-2.15,2.1468,0.00002,3.8969,0.60996,5.2502,1.8298,1.3533,1.2199,2.03,2.7965,2.03,4.7299-0.00002,1.9334-0.57009,3.5901-1.7102,4.9701-1.1402,1.38-2.6235,2.21-4.4501,2.4899zm-2.0801-12.22c-2.0134,0.22665-3.6301,0.94992-4.8502,2.1698s-1.8301,2.7498-1.8301,4.5898c0,1.1869,0.25665,2.1837,0.76996,2.9904,0.5133,0.80668,1.03,1.21,1.55,1.21,0.22704,0,0.46721-0.0801,0.72051-0.24018,0.25329-0.16011,0.54657-0.48014,0.87983-0.96008,0.33324-0.47993,0.65652-1.1066,0.96985-1.8799,0.3133-0.77331,0.62997-1.84,0.95001-3.2001,0.32002-1.3601,0.60007-2.92,0.84015-4.6799z"/>
    <path d="m140.52,632.46,0.0799-0.90027c2.0133,0.32025,4.0867,0.48036,6.2201,0.48035,1.44,0.00001,2.76-0.06,3.96-0.18006l0.0598,0.89966c-1.2801,0.12005-2.62,0.18007-4.0198,0.18006-2.2001,0.00001-4.3001-0.1599-6.3-0.47974zm11.78,11.32,0.18005,0.90027c-2.3466,0.55989-4.3465,0.83984-5.9998,0.83984-2.5602,0-4.4604-0.33996-5.7004-1.0199-1.24-0.67993-1.86-1.5466-1.86-2.6001,0-1.2931,1.1601-2.913,3.4802-4.8596l0.65979,0.63965c-2.0931,1.7867-3.1396,3.1801-3.1396,4.1803,0,0.85328,0.57668,1.5232,1.73,2.0099,1.1534,0.48666,2.7634,0.72998,4.83,0.72998,1.6134,0,3.5532-0.27343,5.8197-0.82031z"/>
    <path d="m171.64,633.9,0.23987,0.88013c-7.6933,2.1733-11.54,4.4466-11.54,6.8201-0.00001,0.93303,0.47332,1.6629,1.42,2.1896,0.94665,0.52673,2.2667,0.7901,3.9603,0.7901,1.853,0,3.9062-0.19999,6.1597-0.59998l0.13977,0.9198c-2.2266,0.39999-4.3465,0.59998-6.3599,0.59998-1.9731,0-3.523-0.34658-4.6497-1.0397-1.1267-0.69316-1.6901-1.6399-1.6901-2.8403-0.00001-1.5999,1.2799-3.1065,3.8397-4.5197-0.58676-2.2803-1.0801-4.647-1.4801-7.1002l0.98022-0.13977c0.3601,2.2001,0.82682,4.4533,1.4002,6.7596,1.8534-0.92,4.3801-1.8266,7.58-2.7197z"/>
    <path d="m177.38,632.4c4.5736,0.00001,9.6936-0.39326,15.36-1.1798l0.10009,0.90026c-2.8402,0.38657-5.1102,1.2398-6.81,2.5598s-2.5498,2.8599-2.5498,4.6198c0,1.6402,0.5899,2.9436,1.7697,3.9102,1.1798,0.96659,2.863,1.5433,5.0497,1.73l-0.0995,0.9198c-2.4268-0.18677-4.3202-0.85012-5.6802-1.99-1.3601-1.1399-2.0401-2.6299-2.0401-4.4699-0.00001-1.4534,0.47667-2.7702,1.43-3.9502,0.95336-1.18,2.31-2.1165,4.0698-2.8094l-0.0195-0.0403c-3.7602,0.48016-7.287,0.72023-10.58,0.72022zm11.8,3.0603,0.76049-0.44007c0.58633,0.90659,1.2329,2.0132,1.9397,3.3197l-0.78003,0.38025c-0.64007-1.2-1.2801-2.2866-1.9202-3.2599zm2.6404-0.80017,0.78003-0.44007c0.76007,1.1735,1.4268,2.3002,2.0001,3.3801l-0.78003,0.39978c-0.70681-1.2797-1.3735-2.393-2.0001-3.3398z"/>
    <path d="m201.84,645.64-0.80017,0.63965c-1.2935-1.5198-2.6402-2.9264-4.0399-4.22l0.73975-0.70007c1.4001,1.2935,2.7669,2.7203,4.1003,4.2804z"/>
    <path d="m220.42,631.04c3.5998-0.0264,6.8331-0.21971,9.6997-0.57983l0.22033,0.88013c-2.7734,2.7067-5.4334,4.5134-7.9797,5.4199l0.0195,0.0397c3.6133-0.1599,7.4599-0.45979,11.54-0.89966l0.0799,0.8197c-3.4933,0.36012-6.1166,1.0268-7.8699,2.0001-1.7534,0.97331-2.63,1.9867-2.63,3.0402,0,2.1464,2.2868,3.2863,6.8604,3.4198l-0.0202,0.88012c-2.5867-0.0667-4.5366-0.45674-5.8499-1.17-1.3133-0.7133-1.9699-1.7232-1.9699-3.0298-0.00001-0.92,0.43324-1.7801,1.2997-2.5803,0.86649-0.80016,2.1732-1.4735,3.92-2.02v-0.0403c-4.2,0.34669-7.64,0.52003-10.32,0.52002v-0.8197c2.0268-0.0134,3.9401-0.44341,5.74-1.29,1.7999-0.84655,3.7332-2.2433,5.7999-4.1904l-0.0201-0.0397c-2.6534,0.30682-5.4934,0.47344-8.5199,0.49988z"/>
    <path d="m241.86,637.4c-0.00001-0.31981-0.003-0.82976-0.01-1.5298-0.007-0.70006-0.01-1.2434-0.01-1.6299-1.4933,0.24008-3.0267,0.36011-4.6002,0.3601l-0.0201-0.88012c1.56,0.00001,3.0935-0.12003,4.6002-0.36011v-3.4601h0.9198c-0.00001,1.8001,0.0134,4.007,0.0403,6.6205,1.7598-1.6402,3.1097-2.7703,4.0497-3.3902,0.93993-0.6199,1.6833-0.92986,2.2302-0.92987,0.59976,0.00001,1.023,0.23327,1.2698,0.69977,0.24677,0.46652,0.37017,1.2798,0.37018,2.4399-0.00001,1.1466-0.0334,2.2268-0.1001,3.2404-0.0667,1.0266-0.10011,1.9531-0.10009,2.7796-0.00002,0.90698,0.0467,1.6004,0.14007,2.0804,0.0934,0.47994,0.20669,0.77993,0.33997,0.89996,0.13324,0.12004,0.31991,0.18006,0.56,0.18006,0.3198,0,0.78306-0.20335,1.3898-0.61005,0.60667-0.4067,1.1635-0.91013,1.6705-1.5103l0.67993,0.64026c-0.6535,0.7601-1.3269,1.3535-2.0203,1.7801-0.69338,0.42664-1.3001,0.63996-1.8201,0.63996-0.66652,0-1.1532-0.29338-1.46-0.88013-0.30682-0.58675-0.46022-1.5668-0.46021-2.9401-0.00001-0.83984,0.0334-1.7731,0.1001-2.7997,0.0667-0.9733,0.10008-2.0467,0.1001-3.2202-0.00002-1.04-0.06-1.7201-0.18006-2.0401-0.12005-0.32002-0.33998-0.48003-0.65979-0.48004-0.78655,0.00001-2.8133,1.5534-6.0803,4.66,0.0533,4.3469,0.10009,7.1535,0.14038,8.4198l-0.92041,0.0201c-0.0533-1.9865-0.0999-4.5064-0.13977-7.5598-1.7598,1.72-3.2198,3.1866-4.3799,4.4l-0.67993-0.59997c1.3997-1.4669,3.0796-3.147,5.0397-5.0403z"/>
    <path d="m259.74,642.84c2.1598-0.59977,4.3398-1.3464,6.5399-2.24l0.26001,0.83984c-3.44,1.3867-6.7332,2.4135-9.8798,3.0804l-0.2002-0.85999c0.53345-0.10661,1.3068-0.29337,2.32-0.5603v-13.06h0.96008zm2.8796-11.06,0.70007-0.60059c1.56,1.6134,2.9801,3.4068,4.2602,5.3802l-0.73974,0.52002c-1.2667-1.9332-2.6736-3.6997-4.2206-5.2997zm9.4202-1.9403,0.96009,0c-0.00002,4.9467-0.68667,8.6267-2.0599,11.04,1.5332,1.6935,2.8932,3.4269,4.0802,5.2002l-0.7605,0.52002c-1.213-1.8001-2.4929-3.4401-3.8397-4.92-1.4665,2.1065-3.9398,3.7864-7.42,5.0397l-0.44007-0.79956c1.8534-0.68034,3.3668-1.4305,4.5401-2.2504,1.1733-0.81991,2.14-1.8632,2.9001-3.1299,0.76007-1.2667,1.2901-2.7433,1.59-4.4299,0.29987-1.6866,0.44982-3.7766,0.44983-6.2701z"/>
    <path d="m285.56,629.84,0,5.3802,7.5,0,0,0.85998-7.5,0,0,8.9795,8.6401,0,0,0.90026-17.04,0,0-0.90026,7.42,0,0-15.22z"/>
    <path d="m307.34,644.76c1.6134-0.25349,2.92-0.99019,3.92-2.2101,0.99995-1.2199,1.4999-2.6831,1.4999-4.3896-0.00001-1.6801-0.58666-3.0469-1.76-4.1003s-2.6934-1.5802-4.5602-1.5802h-0.19958c-0.50701,3.9201-1.2238,6.8968-2.1503,8.93-0.92652,2.0333-1.9965,3.0499-3.2098,3.0499-0.79997,0-1.54-0.50659-2.2202-1.5198-0.68014-1.0132-1.0202-2.2198-1.0202-3.62,0-2.2799,0.8134-4.1364,2.4402-5.5698,1.6268-1.4333,3.7467-2.15,6.3599-2.15,2.1468,0.00002,3.8969,0.60996,5.2502,1.8298,1.3533,1.2199,2.03,2.7965,2.03,4.7299-0.00002,1.9334-0.57009,3.5901-1.7102,4.9701-1.1402,1.38-2.6235,2.21-4.4501,2.4899zm-2.0801-12.22c-2.0134,0.22665-3.6301,0.94992-4.8502,2.1698s-1.8302,2.7498-1.8301,4.5898c-0.00001,1.1869,0.25665,2.1837,0.76995,2.9904,0.51331,0.80668,1.03,1.21,1.55,1.21,0.22705,0,0.46722-0.0801,0.72052-0.24018,0.25329-0.16011,0.54657-0.48014,0.87982-0.96008,0.33325-0.47993,0.65653-1.1066,0.96985-1.8799,0.31331-0.77331,0.62998-1.84,0.95001-3.2001,0.32002-1.3601,0.60007-2.92,0.84015-4.6799z"/>
    <path d="m330.32,639.64,0.72021-0.53955c1.2398,1.0266,2.4664,2.1332,3.6798,3.3197l-0.72021,0.54016c-0.11965-0.12004-0.31954-0.31006-0.59967-0.57007-0.28017-0.26001-0.44019-0.40995-0.48005-0.44983l-6.7602,0.15991v4.74h-0.97961v-4.7198l-8.02,0.19959-0.0201-0.8197,4.3402-0.1001c0.82641-0.38655,1.4064-0.65999,1.7401-0.82031-1.44-0.99975-2.7134-1.8597-3.8202-2.58l0.65979-0.65979c0.0268,0.0134,0.22359,0.14008,0.59021,0.37994,0.36661,0.23988,0.64981,0.42655,0.84961,0.56,1.0136-0.54646,1.9271-1.0797,2.7405-1.5997h-7.2803v-0.80017h8.2202v-1.8201h-6.6199v-0.78003h6.6199v-1.7999h-7.3804v-0.81971h7.3804v-1.38h0.99975v1.38h7.3804v0.81971h-7.3804v1.7999h6.6199v0.78003h-6.6199v1.8201h8.2202v0.80017h-8.5602c-1.2667,0.82642-2.4534,1.5397-3.5602,2.1399,0.88012,0.58676,1.507,1.0134,1.8805,1.2799,2.0532-1.04,4.013-2.1533,5.8795-3.3398l0.62011,0.63964c-2.12,1.3733-4.5066,2.6933-7.16,3.96l8.5602-0.19959c-0.48016-0.44026-1.0602-0.94706-1.7401-1.5204zm-12.96,5.7605c2.0797-0.85368,3.8328-1.7804,5.2594-2.7802l0.54016,0.67993c-1.4799,1.04-3.2731,1.9934-5.3796,2.8601zm10.56-2.1002,0.4602-0.72021c2.1598,1.0136,4.0265,2.007,5.6,2.9803l-0.48035,0.73975c-1.7997-1.1068-3.6597-2.1067-5.5798-2.9999z"/>
    <path d="m338.42,644.96,0,1.3-0.89965,0,0-15.88,4.5996,0,0,14.58zm0-7.3004,0,6.4801,2.8204,0,0-6.4801zm0-0.79956,2.8204,0,0-5.6402-2.8204,0zm6.2402,4.14,0,1.7395,7.8998,0,0-1.7395zm0-0.7605,7.8998,0,0-1.7395-7.8998,0zm4.5599-4.6796,5.3601,0,0,0.78002-11.88,0,0-0.78002,5.5396,0,0-1.6602-4.6399,0,0-0.78003,4.6399,0,0-1.6602-5.18,0,0-0.79956,5.18,0,0-1.38,0.98022,0,0,1.38,5,0,0,0.79956-5,0,0,1.6602,4.4397,0,0,0.78003-4.4397,0zm2.2998,10.88c-0.21323,0-0.99977-0.0332-2.3596-0.0995v-0.84045c1.2667,0.0667,2.0266,0.1001,2.2797,0.1001,0.54686,0,0.87025-0.03,0.97016-0.09,0.0999-0.06,0.14982-0.24994,0.14984-0.56976v-1.4398h-7.8998v3.02h-0.9198v-8.8202h9.7797v7.24c-0.00002,0.6665-0.11334,1.0831-0.33997,1.2497-0.22666,0.16663-0.78004,0.24994-1.6602,0.24994z"/>
    <path d="m367.34,636.94c1.5999,0.00001,2.8166,0.33997,3.6499,1.0199,0.83332,0.67994,1.25,1.6667,1.25,2.9602-0.00001,1.5198-0.63671,2.723-1.9101,3.6096-1.2734,0.88664-3.0234,1.33-5.2499,1.33-1.4799,0-2.9132-0.13326-4.2999-0.39978l0.13977-0.90027c1.3468,0.26693,2.7403,0.40039,4.1803,0.40039,1.9466,0,3.4599-0.36001,4.5398-1.08,1.0799-0.72001,1.6198-1.7066,1.6199-2.9599-0.00002-2.0536-1.3267-3.0804-3.9801-3.0804-2.4133,0.00001-4.7465,0.96009-6.9995,2.8802l-1.0004-0.26001c0.58675-2.4666,1.0335-4.7933,1.3403-6.98l0.9198,0.0799c-0.27995,1.9735-0.66,3.9669-1.1401,5.9802l0.0403,0.0195c0.99975-0.82641,2.0997-1.4696,3.2999-1.9296,1.2002-0.45999,2.4002-0.68999,3.6002-0.69zm-5.5804-5.6799,0.26001-0.82031c2.6269,0.97332,5.3737,1.5399,8.2404,1.6998l-0.0201,0.85998c-2.9867-0.1599-5.8134-0.73973-8.4802-1.7395z"/>
    <path d="m380.78,630.26,0.97962,0c-0.00001,1.44-0.0598,3.1535-0.17945,5.1404-0.12004,1.9731-0.18006,3.593-0.18005,4.8596-0.00001,3.3602,1.2398,5.0403,3.7195,5.0403,1.3737,0,2.6838-0.52673,3.9304-1.5802,1.2465-1.0535,2.3499-2.5869,3.3102-4.6002l0.85999,0.42053c-1.0002,2.1598-2.2002,3.8131-3.6002,4.9597s-2.9001,1.72-4.5004,1.72c-3.1331,0-4.6997-1.9867-4.6997-5.9601-0.00001-1.2398,0.06-2.8531,0.18005-4.8398,0.12003-1.9867,0.18005-3.7068,0.18005-5.1602z"/>
    <path d="m398.02,633.52c3.0131,0.10662,5.9664,0.0134,8.8599-0.27954-0.34669-1.027-0.70009-2.2471-1.0602-3.6603l0.92041-0.12024c0.34666,1.3867,0.69985,2.6135,1.0596,3.6804,1.9067-0.20018,3.7268-0.48033,5.4602-0.84045l0.15991,0.84045c-1.7867,0.35971-3.56,0.63295-5.3198,0.8197,0.65347,1.707,1.5735,3.5004,2.76,5.3802l-1.1603,0.57984c-1.4799-0.99975-3.0998-1.4996-4.8596-1.4996-1.32,0.00001-2.3501,0.27324-3.0902,0.8197-0.74016,0.54648-1.1102,1.2998-1.1102,2.2601,0,1.1198,0.50669,1.983,1.5201,2.5897,1.0134,0.60669,2.4535,0.91003,4.3204,0.91003,1.0132,0,2.3065-0.14669,3.88-0.44006l0.13977,0.85998c-1.5735,0.29338-2.9134,0.44007-4.0198,0.44007-2.1867,0-3.8667-0.37995-5.04-1.1398-1.1733-0.75989-1.76-1.8332-1.76-3.2199,0-1.2,0.45664-2.1567,1.3699-2.8702,0.91329-0.7135,2.1432-1.0702,3.6899-1.0702,1.6667,0,3.2133,0.37334,4.6399,1.12l0.0201-0.0195c-0.94687-1.6402-1.6868-3.1736-2.2198-4.6002-3.2003,0.30682-6.2604,0.41342-9.1803,0.31983z"/>
    <path d="m428.84,630.32,0.78003-0.41992c0.54686,0.84026,1.1869,1.9403,1.9202,3.3002l-0.78003,0.39978c-0.67995-1.2797-1.32-2.373-1.9202-3.28zm2.6404-0.79956,0.78002-0.44007c0.75967,1.1731,1.4262,2.2998,1.9995,3.3801l-0.77942,0.39978c-0.70681-1.2801-1.3735-2.3934-2.0001-3.3398zm-0.93995,5.86,0.83985-0.40039c1.4132,2.5204,2.6064,4.9337,3.5797,7.24l-0.85999,0.33997c-1.0132-2.3865-2.1997-4.7797-3.5596-7.1796zm-7.76-6.0602,0.93994,0.08c-0.1469,1.5202-0.35361,2.9602-0.62012,4.3201,0.9733-0.0667,1.7132-0.10009,2.2198-0.1001,0.52001,0.00001,0.94003,0.0167,1.2601,0.05,0.32001,0.0334,0.61339,0.10672,0.88013,0.22003,0.26671,0.11333,0.4667,0.25005,0.59997,0.41015,0.13325,0.16013,0.24657,0.40346,0.33997,0.72999,0.0934,0.32654,0.15339,0.68645,0.18005,1.0797,0.0266,0.39328,0.04,0.90994,0.04,1.55-0.00001,2.4402-0.38331,4.4169-1.1499,5.9302-0.76662,1.5133-1.6433,2.2699-2.63,2.2699-0.79997,0-1.7867-0.53325-2.9602-1.5997l0.49987-0.75989c1.0136,0.94645,1.8337,1.4197,2.4603,1.4197,0.67992,0,1.3199-0.66997,1.9199-2.0099,0.59997-1.3399,0.89995-3.1366,0.89997-5.39-0.00002-0.50658-0.007-0.90992-0.0202-1.21-0.0134-0.30008-0.0568-0.57677-0.13-0.83008-0.0733-0.25328-0.15321-0.43323-0.23987-0.53985-0.0867-0.1066-0.23001-0.19988-0.42999-0.27985-0.2-0.0799-0.40997-0.12663-0.62988-0.14007-0.21994-0.0134-0.52339-0.0201-0.91034-0.0202-0.52003,0.00002-1.3133,0.0334-2.3798,0.1001-0.85328,3.9201-2.2599,7.7067-4.22,11.36l-0.83985-0.38024c1.8933-3.5466,3.2532-7.1865,4.0796-10.92-1.2667,0.10662-2.6266,0.24659-4.0796,0.41992l-0.0604-0.85999c1.9067-0.2132,3.3468-0.35989,4.3201-0.44006,0.3068-1.4665,0.52693-2.9531,0.66041-4.4598z"/>
    <path d="m439.94,636.92,0,9.92-0.94055,0,0-9.0802c-0.67994,0.77353-1.3932,1.4335-2.1399,1.98l-0.36011-0.9198c1.96-1.44,3.4802-3.16,4.5605-5.1599l0.75989,0.44006c-0.53345,1.0266-1.1601,1.9666-1.8799,2.8198zm14.7-0.85999-2.2797,0,0,2.5598,2.2797,0,0,0.83984-2.2797,0,0,4.8602c-0.00001,1.0132-0.10011,1.6465-0.30029,1.9-0.20021,0.2535-0.74017,0.38025-1.6199,0.38025-0.36013,0-1.1735-0.0334-2.4402-0.10009v-0.83985c1.2268,0.0663,2.0001,0.0995,2.32,0.0995,0.52,0,0.8267-0.0599,0.9201-0.17975,0.0934-0.11983,0.14006-0.53314,0.14008-1.2399v-4.8804h-9.6204v-0.83984h9.6204v-2.5598h-9.4v-0.85998h5.6v-3.0603h-4.9402v-0.83985h4.9402v-2.2198h0.98022v2.2198h5.1196v0.83985h-5.1196v3.0603h6.0797zm-17.5-1.6998-0.39978-0.80017c1.9332-1.1999,3.4265-2.6265,4.48-4.2798l0.73974,0.45959c-1.1466,1.8002-2.7533,3.3403-4.8199,4.6204zm6.46,6.6596,0.62011-0.65979c1.2398,1.0266,2.4266,2.2198,3.5602,3.5797l-0.6604,0.60059c-1.0266-1.2402-2.1999-2.4137-3.5199-3.5205z"/>
    <path d="m459.3,636.66c0.69336-0.14688,1.4734-0.34016,2.3401-0.57984,2.1867-0.57331,3.9134-0.85997,5.18-0.85998,1.6264,0.00001,2.8862,0.34333,3.7796,1.03,0.89334,0.68665,1.34,1.6432,1.34,2.8696-0.00002,1.7867-0.72664,3.1734-2.1799,4.1602-1.4533,0.98674-3.7265,1.6268-6.8198,1.9202l-0.12024-0.9198c2.8536-0.2535,4.9237-0.79356,6.2103-1.6202,1.2866-0.82662,1.9299-1.9933,1.9299-3.5001-0.00002-0.9733-0.36002-1.7233-1.08-2.2501-0.72003-0.52673-1.7602-0.79009-3.1204-0.7901-1.213,0.00001-2.8729,0.28667-4.9799,0.85998-0.98674,0.26694-1.7533,0.46022-2.2998,0.57984z"/>
    <path d="m477.98,632.6c4.5736,0.00001,9.6936-0.39326,15.36-1.1798l0.10009,0.89966c-2.8268,0.38697-5.0934,1.2304-6.7999,2.5302-1.7066,1.2999-2.5598,2.7831-2.5598,4.4498,0,1.5466,0.59326,2.7966,1.7798,3.75,1.1865,0.95337,2.8664,1.5167,5.0397,1.6901l-0.0995,0.92041c-2.4133-0.18677-4.3034-0.83679-5.6702-1.9501s-2.0502-2.55-2.0502-4.3103c-0.00001-1.3599,0.47667-2.6198,1.43-3.7799,0.95336-1.1601,2.31-2.0868,4.0698-2.7802l-0.0195-0.0397c-3.7602,0.47974-7.287,0.71961-10.58,0.7196z"/>
    <path d="m509.74,632.8,0.85999-0.40039c1.8001,2.9203,2.8735,6.4004,3.2202,10.44l-0.96008,0.0604c-0.3467-3.9066-1.3867-7.2733-3.1201-10.1zm-10-0.72022c-0.27995,1.6268-0.41992,3.2735-0.41992,4.9402,0,1.0266,0.0966,1.9999,0.28992,2.9199,0.19327,0.92001,0.4366,1.6766,0.72998,2.2699,0.29337,0.59326,0.61004,1.0632,0.95001,1.4099,0.33996,0.34668,0.65663,0.52002,0.95001,0.52002,0.10661,0,0.22654-0.0334,0.35981-0.1001,0.13325-0.0667,0.29662-0.22003,0.49011-0.4599,0.19347-0.23987,0.38349-0.54311,0.57007-0.90973,0.18655-0.36661,0.38654-0.88999,0.59997-1.5701,0.21341-0.68013,0.40679-1.4668,0.58014-2.3599l0.93994,0.15991c-0.45329,2.2933-0.99325,3.8999-1.6199,4.8199-0.62664,0.92001-1.2667,1.38-1.9202,1.38-0.94686,0-1.8336-0.75999-2.6602-2.28-0.82663-1.52-1.2399-3.4533-1.2399-5.7999,0-1.6532,0.14668-3.34,0.44006-5.0604z"/>
    <path d="m526.42,641.56c-1.0531-0.48014-2.0197-0.72021-2.8998-0.72021-0.98674,0-1.7401,0.18341-2.2601,0.55023-0.52003,0.36682-0.78004,0.87677-0.78003,1.5298-0.00001,0.72022,0.26336,1.2803,0.7901,1.6803,0.52673,0.39999,1.2768,0.59998,2.2501,0.59998,1.0535,0,1.8001-0.23672,2.24-0.71015,0.43985-0.47342,0.65978-1.2633,0.65979-2.3697zm-0.0195-0.93994c-0.0134-0.50659-0.0336-1.2933-0.0604-2.3602-0.013-0.12003-0.0229-0.30669-0.0296-0.56-0.007-0.25329-0.0101-0.43995-0.0101-0.55999-2.3466,0.16032-4.7201,0.24048-7.1204,0.24047v-0.84045c2.6001,0.00001,4.9668-0.0732,7.1002-0.21973-0.0265-1.3066-0.0397-2.3-0.0397-2.9803-2.7067,0.1469-5.3268,0.22035-7.8601,0.22033v-0.83984c2.8666,0.00001,5.4932-0.0734,7.8796-0.22034,0.0134-0.90656,0.0667-1.8998,0.15991-2.9797l0.94055,0.0201c-0.0936,1.0396-0.1471,2.0062-0.16052,2.8998,1.84-0.1066,3.7602-0.27994,5.7605-0.52002l0.08,0.83984c-2.0003,0.22666-3.9472,0.4-5.8404,0.52002-0.00001,1.32,0.007,2.3067,0.0201,2.9602,1.2667-0.0936,2.9134-0.26021,4.9402-0.49988l0.0799,0.83984c-1.6,0.1998-3.2666,0.36643-5,0.49988-0.00001,0.13347,0.003,0.33021,0.0101,0.59021,0.007,0.26002,0.0166,0.45655,0.0296,0.5896,0.0134,0.33367,0.0302,0.81045,0.0503,1.4304,0.0201,0.61992,0.0302,1.0698,0.0302,1.3498,1.3863,0.69336,3.1728,1.8801,5.3595,3.5602l-0.55969,0.70007c-1.9735-1.5336-3.5734-2.627-4.7998-3.28v0.10009c-0.00001,1.3863-0.30671,2.3895-0.9201,3.0096-0.61342,0.62011-1.6,0.93017-2.9599,0.93017-1.2537,0-2.2272-0.27669-2.9205-0.83008-0.69337-0.55338-1.04-1.3234-1.04-2.3102-0.00001-0.90657,0.35003-1.6199,1.0501-2.1399,0.70006-0.52001,1.6702-0.78002,2.9105-0.78003,0.90656,0.00001,1.8799,0.20671,2.9199,0.62012z"/>
    <path d="m543.13,636.36c-0.52654,0.53305-0.78981,1.1663-0.7898,1.8997-0.00001,0.73344,0.26326,1.3668,0.7898,1.9,0.52652,0.53325,1.1631,0.79987,1.9098,0.79987,0.74665,0,1.3834-0.26662,1.9101-0.79987,0.52672-0.53324,0.79009-1.1667,0.7901-1.9003-0.00001-0.81298-0.24995-1.4662-0.74982-1.9595-0.49988-0.49336-1.15-0.74004-1.9504-0.74005-0.74668,0.00001-1.3833,0.26673-1.9098,0.80017zm-1.7499,1.8799c-0.00001-1.0136,0.3366-1.857,1.0098-2.5302,0.67322-0.67321,1.5233-1.0098,2.5504-1.0098,1.0396,0.00001,1.9328,0.31332,2.6794,0.93994h0.0403c-0.0134-0.54686-0.0401-1.2868-0.0799-2.2198-0.00001-0.0403-0.003-0.0937-0.0101-0.16021-0.007-0.0665-0.0101-0.11993-0.0101-0.16022-3.9201,0.17335-7.36,0.26002-10.32,0.26001v-0.85999c3.2532,0.00002,6.6864-0.0799,10.3-0.23987-0.0399-0.97329-0.0598-1.96-0.0598-2.9602h0.93994c-0.00001,1.2936,0.0134,2.2669,0.0403,2.9199,1.8799-0.0932,3.7597-0.20649,5.6396-0.33996l0.0604,0.84045c-1.9202,0.13307-3.807,0.24639-5.6604,0.33997-0.00001,0.0533,0.003,0.13327,0.0101,0.23986,0.007,0.10662,0.0101,0.18658,0.0101,0.23987,0.0533,1.7599,0.0799,3.0798,0.08,3.96,0.2132,0.72022,0.31981,1.5603,0.31982,2.5201-0.00001,1.7334-0.55665,3.1601-1.6699,4.2801-1.1133,1.12-2.6965,1.8267-4.7498,2.1201l-0.15991-0.92041c3.28-0.45329,5.1265-1.9466,5.5396-4.48,0.0268-0.15991,0.0537-0.3599,0.0806-0.59998h-0.0403c-0.74667,0.93344-1.7399,1.4002-2.9797,1.4002-1.04,0-1.8934-0.33996-2.5601-1.0199-0.66671-0.67992-1.0001-1.5332-1.0001-2.5598z"/>
    <path d="m557.95,645.89c-0.56641-0.56681-0.84961-1.2569-0.84961-2.0703,0-0.81339,0.28331-1.5068,0.84992-2.0801,0.5666-0.57331,1.2566-0.85998,2.07-0.85998,0.81339,0,1.5067,0.28667,2.0801,0.85998,0.57332,0.57333,0.85998,1.2667,0.85999,2.0801-0.00001,0.8134-0.28667,1.5034-0.85999,2.07-0.57333,0.56661-1.2667,0.84991-2.0801,0.84991s-1.5035-0.2832-2.0703-0.84961zm0.57007-3.5803c-0.41341,0.41993-0.62012,0.92326-0.62012,1.51,0,0.58675,0.20671,1.0867,0.62012,1.4999,0.41341,0.41321,0.91339,0.61981,1.4999,0.61981,0.58654,0,1.0899-0.2066,1.51-0.61981,0.42012-0.41321,0.63018-0.91319,0.63019-1.4999-0.00001-0.58675-0.21007-1.0901-0.63019-1.51-0.42013-0.41992-0.92347-0.62988-1.51-0.62988-0.58655,0-1.0865,0.20996-1.4999,0.62988z"/>
    <path d="m39.06,660,0,11.84-0.92041,0,0-10.02c-0.43986,0.98674-0.95968,1.9202-1.5594,2.8003l-0.48035-0.90027c1.72-2.6265,2.9134-5.7265,3.5803-9.2999l0.85999,0.0799c-0.34668,1.9999-0.84005,3.8332-1.4801,5.4999zm3.8196,3.2599,0.4602-0.75989c1.1202,0.62663,2.1403,1.2468,3.0603,1.8604,0.58633-1.4534,0.91958-3.0135,0.99976-4.6802h-3.7799c-0.73324,2.2664-1.6866,4.1797-2.8601,5.7397l-0.64026-0.62012c1.7204-2.3596,2.8538-5.2462,3.4003-8.6597h-2.58v-0.85999h8.0798v0.85999h-4.5599c-0.10662,0.73325-0.30661,1.6465-0.59998,2.7399h4.4403v0.80017c-0.10703,2.6001-0.79377,4.9701-2.0602,7.11-1.2665,2.1399-2.8999,3.7166-4.9002,4.7302l-0.49988-0.74036c1.1068-0.57332,2.1035-1.3433,2.9901-2.3099,0.88663-0.96659,1.6233-2.0633,2.2101-3.2901-1.0799-0.7198-2.1334-1.3598-3.1604-1.9202zm6.7206,4.7601,0-12.22,0.89966,0,0,12.22zm3.4998-13.18,0.9198,0,0,14.56c-0.000019,0.92001-0.07998,1.5034-0.23987,1.7502-0.15993,0.24678-0.55991,0.37017-1.2,0.37018-0.43988-0.00001-1.1798-0.0334-2.2198-0.1001l-0.02014-0.88013c0.97329,0.0667,1.6467,0.1001,2.0203,0.1001,0.34626,0,0.55612-0.0567,0.62958-0.16998,0.07343-0.11333,0.11015-0.47679,0.11017-1.0904z"/>
    <path d="m61.84,654.86c2.5997,0.78655,5.2063,1.2864,7.8198,1.4996l-0.12024,0.85999c-2.6131-0.2132-5.2531-0.71308-7.9199-1.4996zm-1.9202,4.8999c3.2532,0.00001,6.7464-0.26,10.48-0.78003l0.22034,0.96009c-0.78696,0.74667-1.8271,1.7033-3.1204,2.8699s-2.2598,2.05-2.8995,2.6501l0.01953,0.0397c0.62662-0.38655,1.2734-0.57983,1.9403-0.57984,0.65306,0.00001,1.1364,0.18667,1.4499,0.56,0.3135,0.37334,0.52357,1.0666,0.63019,2.0798,0.09317,1.027,0.28309,1.6871,0.56976,1.9803,0.28665,0.29317,0.87676,0.43976,1.7703,0.43976,0.78652,0,1.6732-0.12655,2.6599-0.37964l0.13977,0.88013c-1.0266,0.26652-2.0066,0.39978-2.9401,0.39978-1.0934,0-1.8466-0.19338-2.2598-0.58014-0.41322-0.38676-0.67984-1.1535-0.79987-2.3001-0.0936-0.93302-0.24374-1.5362-0.45044-1.8097-0.20672-0.27344-0.55665-0.41016-1.0498-0.41016-1.3066,0-3.8932,1.6933-7.76,5.08l-0.55969-0.67993c3.9998-3.5067,7.7598-6.8933,11.28-10.16l-0.02014-0.0403c-3.2267,0.4537-6.3267,0.68055-9.2999,0.68054z"/>
    <path d="m90.68,654.06,0.73975-0.29968c0.58674,1.0266,1.1202,2.0465,1.6003,3.0597l-0.78003,0.30029c-0.49359-1.0534-1.0136-2.0736-1.5601-3.0603zm2.42-0.36011,0.78003-0.31982c0.61318,1.1068,1.1531,2.16,1.6199,3.1598l-0.78003,0.28015c-0.52004-1.0933-1.06-2.1334-1.6199-3.1201zm-4.2603,1.5802,0.92041,0.0201c-0.0936,1.1731-0.1404,2.4131-0.14038,3.7201,1.2667-0.10701,2.5867-0.26041,3.96-0.46021l0.07996,0.88013c-1.6667,0.22665-3.0133,0.38656-4.0399,0.47973-0.000014,0.25351,0.0033,0.52685,0.01007,0.82001,0.0067,0.29318,0.01677,0.61647,0.03021,0.96985,0.01341,0.3534,0.02013,0.63671,0.02014,0.84991,0.05329,1.6268,0.07994,2.9201,0.07996,3.88,1.053,0.64006,2.2796,1.6402,3.6798,3.0005l-0.64026,0.6195c-1.1467-1.1332-2.1598-1.9932-3.0396-2.58-0.05332,1.2268-0.37335,2.1302-0.96008,2.7103-0.58676,0.58004-1.4535,0.87006-2.6001,0.87006-1.1202,0-2.0069-0.26998-2.6602-0.80994-0.65329-0.53995-0.97993-1.2699-0.97992-2.1899-0.000007-0.85327,0.32999-1.5399,0.98999-2.0599,0.65998-0.52002,1.5434-0.78003,2.6501-0.78003,0.78653,0,1.6599,0.23336,2.6202,0.70007-0.02687-1.4803-0.05352-2.607-0.07996-3.3801-0.000013-0.0667-0.01008-0.42673-0.03021-1.08-0.02016-0.65327-0.03023-1.14-0.03021-1.4603-2.0398,0.15992-4.033,0.23988-5.9796,0.23987v-0.87952c1.9466,0.00001,3.9398-0.0802,5.9796-0.24048-0.000013-1.3863,0.05329-2.6662,0.15991-3.8397zm-10,0.33997,0.92041,0.13977c-0.66692,2.4801-1.0004,5.0134-1.0004,7.6001-0.000003,2.5867,0.33345,5.12,1.0004,7.6001l-0.92041,0.13977c-0.66651-2.4796-0.99976-5.0595-0.99976-7.7396-0.000002-2.68,0.33325-5.2601,0.99976-7.7402zm9.9805,11.28c-0.94687-0.53344-1.8336-0.80016-2.6602-0.80017-0.82663,0.00001-1.4733,0.17335-1.94,0.52002-0.46672,0.34669-0.70008,0.82683-0.70007,1.4404-0.000008,0.66651,0.22999,1.1898,0.69,1.5698,0.45999,0.38004,1.1099,0.57006,1.9498,0.57006,0.94685,0,1.627-0.25004,2.0404-0.75012s0.6201-1.31,0.62012-2.4298z"/>
    <path d="m101.84,670.64-0.80017,0.63965c-1.2935-1.5198-2.6402-2.9264-4.0399-4.22l0.73975-0.70008c1.4001,1.2935,2.7669,2.7203,4.1003,4.2804z"/>
    <path d="m118.34,669.96,0,1.3-0.89966,0,0-15.88,5.08,0,0,14.58zm0-7.2803,0,6.4203,3.28,0,0-6.4203zm0-0.83984,3.28,0,0-5.5798-3.28,0zm16.14-0.78003-1.98,0,0,2.5598,1.98,0,0,0.83984-1.98,0,0,4.8602c-0.00002,1.0132-0.10002,1.6465-0.29999,1.9-0.20001,0.2535-0.72013,0.38025-1.5604,0.38025-0.37314,0-1.213-0.0334-2.5195-0.1001l-0.0201-0.83984c1.2667,0.0663,2.0801,0.0995,2.4402,0.0995,0.47972,0,0.76292-0.0599,0.84961-0.17975,0.0867-0.11983,0.12999-0.53314,0.13-1.2399v-4.8804h-8.4198v-0.83984h8.4198v-2.5598h-8.4198v-0.85998h5.34v-3.0603h-4.4v-0.83984h4.4v-2.2198h0.96008v2.2198h4.3402v0.83984h-4.3402v3.0603h5.08zm-10.02,4.9597,0.62011-0.65979c1.2268,1.0132,2.3934,2.1865,3.4998,3.5199l-0.65979,0.57984c-0.97332-1.1731-2.1267-2.3197-3.4601-3.4399z"/>
    <path d="m142.58,666.68,0,2.3199,6.2,0,0-2.3199zm0-0.75989,6.2,0,0-2.0203-6.2,0zm-4.14-7.2003,0,2.32,5.4401,0,0-2.32zm0-0.78003,5.4401,0,0-2.1399-5.4401,0zm14.48,0.78003-5.6403,0,0,2.32,5.6403,0zm0-0.78003,0-2.1399-5.6403,0,0,2.1399zm-11.26,5.1801,8.0396,0,0,6.64-7.1198,0,0,1.0998-0.9198,0zm-4.1602,8.4802,0-16.6,7.3199,0,0,6.8201-6.38,0,0,9.7803zm14.26-0.16052c-0.27996,0-1.2199-0.0332-2.8198-0.0995l-0.0202-0.84045c1.56,0.0667,2.4668,0.10009,2.7203,0.10009,0.61318,0,0.9798-0.06,1.0998-0.18005,0.12002-0.12003,0.18004-0.47994,0.18006-1.0797v-7.5201h-6.5802v-6.8201h7.5201v14.32c-0.00002,0.93343-0.1167,1.5201-0.35004,1.76-0.23337,0.23986-0.81677,0.3598-1.7502,0.3598z"/>
    <path d="m167.44,662.82c1.6264-0.59976,3.3862-1.0598,5.2795-1.38l0.12024,0.85998c-1.9068,0.33367-3.6601,0.8071-5.26,1.4203,0.13346,0.94687,0.20019,2.2068,0.2002,3.7799h-0.96008c-0.00001-1.2398-0.0468-2.373-0.14038-3.3997-1.3998,0.62663-2.4996,1.2966-3.2996,2.0099-0.79998,0.7133-1.2,1.3633-1.2,1.9501,0,1.4266,1.6866,2.1399,5.0598,2.1399,1.4665,0,2.9665-0.13997,4.5001-0.41992l0.1001,0.88013c-1.4002,0.26652-2.9336,0.39978-4.6002,0.39978-4.0536,0-6.0803-0.98002-6.0803-2.9401-0.00001-0.78654,0.47668-1.6265,1.43-2.5198,0.95336-0.89334,2.2768-1.7001,3.9703-2.4204-0.1469-0.85326-0.36032-1.4399-0.64026-1.76-0.27996-0.32002-0.64658-0.48003-1.0998-0.48004-0.66652,0.00001-1.5498,0.39999-2.6498,1.2-1.1001,0.79998-2.19,1.8933-3.27,3.28l-0.7605-0.49988c1.8136-2.3466,3.1604-4.5532,4.0405-6.6199-1.44,0.0399-2.9535,0.0598-4.5404,0.0598v-0.83985c1.5202,0.00002,3.147-0.0334,4.8804-0.1001,0.37312-1.0132,0.69315-2.0131,0.96008-2.9999l0.95948,0.21972c-0.27996,1.0266-0.57313,1.9401-0.87952,2.7405,2.64-0.12002,5.1933-0.32001,7.6599-0.59997l0.0598,0.83984c-2.76,0.30641-5.4466,0.51962-8.0597,0.63965-0.41341,1.0002-1.0002,2.1336-1.7602,3.4003l0.0201,0.0201c1.3867-1.04,2.5401-1.56,3.4601-1.5601,0.6665,0.00001,1.1997,0.20997,1.5997,0.62988,0.39997,0.41993,0.70006,1.1098,0.90026,2.0697z"/>
    <path d="m179.16,668.76,3.1598,0,0-6.6205-3.1598,0zm10.34-5.5804,0-2.4799-3.7799,0,0,2.4799zm0,3.3203,0-2.5604-3.7799,0,0,2.5604zm0,0.78003-3.7799,0,0,2.6398,3.7799,0zm-5.3003-10.6,0,2.4396-0.89966,0,0-3.0798-3.0804,0c-0.21322,1.9735-0.57313,3.7268-1.0797,5.26h4.0198v1.3403c1.44-1.7069,2.6133-3.6936,3.5199-5.9601zm1.5204,15-0.94055,0,0-9.6002c-0.3064,0.43987-0.71961,0.95317-1.2396,1.5399l-0.38025-0.44007v6.4203h-3.9996v1.6998h-0.88013v-7.9602c-0.48015,1.0136-1.0136,1.8937-1.6003,2.6404l-0.39978-0.96008c1.5865-2.0666,2.5999-5.06,3.0402-8.9801h-2.32v-0.85999h6.4801v0.65979h3.5199c0.26651-0.71979,0.47301-1.3531,0.61951-1.9l0.90027,0.14038c-0.24009,0.79998-0.42665,1.3865-0.5597,1.7596h6.4795v3.1604h-0.9198v-2.3199h-5.86c-0.42685,1.1198-0.92693,2.193-1.5002,3.2196h3.54c0.34666-0.74665,0.65346-1.5399,0.92041-2.3798l0.87951,0.18006c-0.1998,0.66651-0.47975,1.3998-0.83984,2.1997h3.4003v0.80017h-3.6401v2.4799h3.36v0.75989h-3.36v2.5604h3.36v0.78003h-3.36v2.6398h3.9203v0.82032h-8.62z"/>
    <path d="m198.5,671.04,0,0.90027-0.88013,0,0-5.8203,5.5005,0,0,4.92zm0-0.83985,3.7604,0,0-3.2599-3.7604,0zm6.3403-12.68,0.39978-0.72021c0.83983,0.36012,1.6931,0.79347,2.5598,1.3,0.28034-0.74665,0.4604-1.4333,0.54016-2.0599h-4.0802v-0.85999h9.8004c-0.00002,2.7999-0.17,4.7932-0.50995,5.9799-0.33999,1.1867-0.87679,1.7801-1.6104,1.7801-0.54649,0.00001-1.2665-0.0667-2.16-0.20019v-0.85999c0.80036,0.12005,1.4404,0.18007,1.9202,0.18006,0.91998,0.00001,1.3934-2.0066,1.4203-6.0199h-3.8202c-0.10663,0.79998-0.33998,1.6467-0.70008,2.5403,0.84024,0.52003,1.7403,1.14,2.7002,1.8597l-0.54016,0.70008c-0.92002-0.69335-1.7601-1.2866-2.5202-1.7798-1.0132,1.9731-2.5065,3.4398-4.48,4.4l-0.39978-0.82032c1.84-0.86669,3.2133-2.22,4.1199-4.06-0.85329-0.50658-1.7332-0.95987-2.6398-1.3599zm-1.5601,12.68c0.69335-1.4669,1.2266-3.1868,1.5997-5.1599l0.84045,0.19959c-0.36011,2.0134-0.90678,3.7933-1.64,5.34zm9.4202-2.2998c-0.0668,1.0933-0.15677,1.8667-0.27008,2.32-0.11334,0.45328-0.27335,0.76324-0.48004,0.92987-0.20672,0.16662-0.56337,0.26987-1.0699,0.30975-0.27997,0.0269-0.77333,0.0403-1.4801,0.0403-0.4533,0-0.94667-0.0134-1.4801-0.0403-0.5066-0.0399-0.82989-0.1532-0.96985-0.33997-0.13998-0.18676-0.20997-0.59997-0.20996-1.2396v-5.4205h0.96008v5.1605c-0.00001,0.46631,0.0266,0.74951,0.08,0.84961,0.0533,0.1001,0.22663,0.15686,0.52002,0.17029,0.42642,0.0264,0.81297,0.0397,1.1597,0.0397,0.34666,0,0.73342-0.0132,1.1603-0.0397,0.33323-0.0269,0.55988-0.0936,0.67993-0.2002,0.12002-0.10661,0.22001-0.34322,0.29998-0.70984,0.0799-0.36661,0.15329-1.0099,0.22004-1.9299zm-5.2405-4.7003,0.52001-0.64026c1.2536,0.92001,2.3871,1.9334,3.4003,3.0402l-0.57983,0.59997c-1.0934-1.1601-2.2068-2.16-3.3404-2.9999zm4.7003,2.0203,0.83985-0.32044c0.73321,1.6536,1.3733,3.4005,1.9202,5.2405l-0.85998,0.27954c-0.58677-1.9731-1.2201-3.7062-1.9-5.1996zm-14.54-9.2603,0-0.83984,5.4803,0,0,0.83984zm-0.57984,2.7002,0-0.84046,6.5802,0,0,0.84046zm0.67994,2.76,0-0.82031,5.3003,0,0,0.82031zm0,2.76,0-0.82031,5.3003,0,0,0.82031z"/>
    <path d="m223.13,661.36c-0.52654,0.53305-0.7898,1.1663-0.78979,1.8997-0.00001,0.73345,0.26325,1.3668,0.78979,1.9,0.52652,0.53325,1.1631,0.79987,1.9098,0.79986,0.74665,0.00001,1.3834-0.26661,1.9101-0.79986,0.52672-0.53324,0.79008-1.1667,0.7901-1.9003-0.00002-0.81298-0.24995-1.4662-0.74982-1.9595-0.49989-0.49335-1.15-0.74004-1.9504-0.74005-0.74667,0.00001-1.3833,0.26674-1.9098,0.80017zm-1.7499,1.8799c0-1.0136,0.33661-1.857,1.0098-2.5302,0.67321-0.6732,1.5233-1.0098,2.5504-1.0098,1.0396,0.00001,1.9328,0.31332,2.6794,0.93994h0.0403c-0.0134-0.54687-0.0401-1.2868-0.08-2.2198-0.00001-0.0403-0.003-0.0937-0.0101-0.16022-0.007-0.0665-0.0101-0.11992-0.0101-0.16021-3.9201,0.17335-7.36,0.26002-10.32,0.26001v-0.85999c3.2532,0.00001,6.6864-0.0799,10.3-0.23987-0.0399-0.97329-0.0598-1.96-0.0598-2.9602h0.93994c-0.00001,1.2936,0.0134,2.2669,0.0403,2.9199,1.8799-0.0932,3.7598-0.20649,5.6396-0.33997l0.0604,0.84046c-1.9202,0.13307-3.807,0.24639-5.6604,0.33996-0.00001,0.0533,0.003,0.13328,0.0101,0.23987,0.007,0.10662,0.0101,0.18658,0.0101,0.23987,0.0533,1.7599,0.0799,3.0798,0.0799,3.96,0.2132,0.72022,0.31981,1.5603,0.31983,2.5201-0.00002,1.7334-0.55666,3.1601-1.6699,4.2801-1.1133,1.12-2.6965,1.8267-4.7498,2.1201l-0.15991-0.92041c3.28-0.45329,5.1265-1.9466,5.5396-4.48,0.0268-0.15991,0.0537-0.3599,0.0806-0.59998h-0.0403c-0.74667,0.93344-1.7399,1.4002-2.9797,1.4002-1.04,0-1.8934-0.33996-2.5601-1.0199-0.66671-0.67993-1.0001-1.5332-1.0001-2.5598z"/>
    <path d="m240.44,656.2c3.2133,0.00002,6.5332-0.1599,9.9597-0.47973l0.20019,0.97961c-2.2534,1.827-4.7534,3.7404-7.5,5.7404l0.0202,0.0397c1.4266-0.45328,2.7799-0.67992,4.06-0.67993,1.853,0.00001,3.1929,0.41006,4.0198,1.2302,0.82681,0.82012,1.2402,1.8434,1.2402,3.0698-0.00001,1.4933-0.64668,2.6934-1.94,3.6002-1.2934,0.90678-3.0401,1.3602-5.2402,1.3602-1.44,0-2.5567-0.24333-3.3499-0.72998-0.79325-0.48665-1.1899-1.17-1.1899-2.0502,0-0.64005,0.31992-1.1967,0.95978-1.6699,0.63985-0.47322,1.4865-0.70984,2.54-0.70984,1.0132,0,1.8098,0.22329,2.3898,0.66986,0.58003,0.44658,0.87005,1.0633,0.87006,1.8503-0.00001,0.49317-0.11334,1.0464-0.33997,1.6596,1.3733-0.21322,2.44-0.66986,3.2001-1.3699,0.76008-0.70007,1.1401-1.5634,1.1401-2.59-0.00002-2.3466-1.5668-3.5199-4.7003-3.5199-1.1466,0.00001-2.3432,0.22665-3.5898,0.67993-1.2466,0.45329-2.7432,1.2199-4.49,2.2998l-0.52002-0.78003c4.0934-2.6798,7.7866-5.393,11.08-8.1396l-0.0195-0.0403c-3.3333,0.32025-6.2667,0.48036-8.8,0.48035zm5.7196,14c0.26691-0.61319,0.40038-1.1798,0.40039-1.6998-0.00001-0.5603-0.20336-1.0005-0.61005-1.3205-0.40671-0.32002-0.98339-0.48004-1.73-0.48004-0.78655,0-1.4132,0.15676-1.8799,0.47027-0.46672,0.31352-0.70008,0.6835-0.70008,1.1099,0,1.2935,1.2199,1.9403,3.6597,1.9403,0.38695,0,0.67362-0.007,0.85999-0.0202z"/>
    <path d="m273.08,669.28c-1.6398,0.413-3.1464,0.6195-4.5196,0.6195-1.5466,0-2.8167-0.28666-3.8101-0.85998-0.99346-0.57333-1.4902-1.3066-1.4902-2.1997-0.00001-0.58675,0.26671-1.2568,0.80017-2.0102,0.53344-0.75337,1.2602-1.4767,2.1802-2.1701l0.63965,0.64026c-1.7468,1.3733-2.6202,2.5466-2.6202,3.5199-0.00001,0.58675,0.39001,1.0934,1.17,1.5201,0.78001,0.42664,1.8234,0.63995,3.1302,0.63995s2.7534-0.19327,4.3399-0.57983zm-8.7799-11.32c2.5866,0.00001,5.3467-0.19998,8.28-0.59998l0.08,0.89966c-3.0001,0.39999-5.7868,0.59999-8.36,0.59997zm-3.96-2.3999c-0.66651,2.4801-0.99976,5.0134-0.99976,7.6001s0.33325,5.1198,0.99976,7.5995l-0.96009,0.14038c-0.6665-2.4801-0.99976-5.0601-0.99975-7.7402-0.00001-2.68,0.33325-5.2601,0.99975-7.7402z"/>
    <path d="m279.04,655.42,0.9198,0.14038c-0.66651,2.4801-0.99976,5.0134-0.99975,7.6001-0.00001,2.5867,0.33324,5.1198,0.99975,7.5995l-0.9198,0.14038c-0.67993-2.5334-1.0199-5.1134-1.0199-7.7402,0-2.6267,0.33997-5.2068,1.0199-7.7402zm9.8999,3.5004c-0.00001-1.3867,0.0533-2.6668,0.15991-3.8403l0.92041,0.0201c-0.0936,1.1735-0.14039,2.4135-0.14038,3.7201,1.2667-0.1066,2.5867-0.26,3.96-0.4602l0.08,0.88012c-1.6667,0.22666-3.0133,0.38657-4.0399,0.47974-0.00001,0.25351,0.003,0.52695,0.0101,0.82031,0.007,0.29339,0.0168,0.61677,0.0302,0.97016,0.0134,0.3534,0.0201,0.6367,0.0201,0.84991,0.0533,1.6264,0.0799,2.9197,0.0799,3.88,1.0799,0.65308,2.3132,1.653,3.7,2.9999l-0.64026,0.62012c-1.1198-1.1068-2.1397-1.9668-3.0597-2.58-0.0533,1.2264-0.36998,2.1296-0.95001,2.7097-0.58005,0.58004-1.4501,0.87005-2.6102,0.87005-1.1202,0-2.0069-0.26997-2.6602-0.80993-0.65329-0.53996-0.97993-1.2699-0.97992-2.1899-0.00001-0.85327,0.32999-1.5399,0.98999-2.0599,0.65998-0.52001,1.5434-0.78002,2.6501-0.78003,0.79996,0.00001,1.6799,0.23336,2.6398,0.70007-0.0265-1.4799-0.0531-2.6066-0.0799-3.3801-0.00001-0.0667-0.01-0.42673-0.0299-1.08s-0.0299-1.14-0.0299-1.4603c-2.0402,0.16032-4.0401,0.24048-5.9998,0.24047v-0.88012c1.9466,0.00001,3.9398-0.0799,5.9796-0.23987zm0.15991,7.7795c-0.94646-0.53304-1.833-0.79956-2.6596-0.79956-0.82663,0-1.4767,0.17334-1.9501,0.52002-0.47343,0.34668-0.71015,0.82662-0.71014,1.4398-0.00001,0.6665,0.23335,1.1898,0.70007,1.5698,0.46671,0.38005,1.12,0.57007,1.9598,0.57007,0.94685,0,1.6269-0.24994,2.0401-0.74982,0.4132-0.49987,0.6198-1.3099,0.61981-2.4301z"/>
    <path d="m300.52,657.46,0.08-0.90027c2.0133,0.32024,4.0867,0.48036,6.2201,0.48035,1.44,0.00001,2.76-0.06,3.96-0.18006l0.0598,0.89966c-1.2801,0.12005-2.62,0.18007-4.0198,0.18005-2.2001,0.00002-4.3001-0.1599-6.3-0.47973zm11.78,11.32,0.18005,0.90027c-2.3466,0.55989-4.3465,0.83984-5.9998,0.83984-2.5602,0-4.4604-0.33997-5.7004-1.0199s-1.86-1.5466-1.86-2.6001c0-1.2931,1.1601-2.913,3.4802-4.8596l0.65979,0.63964c-2.0931,1.7867-3.1397,3.1801-3.1396,4.1803-0.00001,0.85328,0.57667,1.5232,1.73,2.0099,1.1534,0.48665,2.7634,0.72998,4.83,0.72998,1.6134,0,3.5532-0.27344,5.8197-0.82031z"/>
    <path d="m327.34,669.76c1.6134-0.2535,2.92-0.99019,3.92-2.2101,0.99995-1.2199,1.4999-2.6831,1.4999-4.3896-0.00001-1.6801-0.58666-3.0469-1.76-4.1003-1.1733-1.0535-2.6934-1.5802-4.5602-1.5802h-0.19958c-0.50701,3.9201-1.2238,6.8968-2.1503,8.93-0.92652,2.0333-1.9965,3.0499-3.2098,3.0499-0.79997,0-1.54-0.50659-2.2202-1.5198-0.68014-1.0132-1.0202-2.2198-1.0202-3.62,0-2.2799,0.8134-4.1364,2.4402-5.5698,1.6268-1.4333,3.7467-2.15,6.3599-2.15,2.1468,0.00002,3.8969,0.60996,5.2502,1.8298,1.3533,1.2199,2.03,2.7965,2.03,4.7299-0.00002,1.9334-0.57009,3.5901-1.7102,4.9701-1.1402,1.38-2.6235,2.21-4.4501,2.4899zm-2.0801-12.22c-2.0134,0.22666-3.6301,0.94993-4.8502,2.1698s-1.8302,2.7498-1.8301,4.5898c-0.00001,1.1869,0.25665,2.1837,0.76995,2.9904,0.51331,0.80669,1.03,1.21,1.55,1.21,0.22705,0,0.46722-0.0801,0.72052-0.24018,0.25329-0.16011,0.54657-0.48014,0.87982-0.96008s0.65653-1.1066,0.96985-1.8799c0.31331-0.77331,0.62998-1.84,0.95001-3.2001,0.32002-1.36,0.60007-2.92,0.84015-4.6799z"/>
    <path d="m337.92,660.76c1.3867-1.7464,2.38-3.7929,2.9797-6.1395l0.88013,0.23987c-0.17335,0.7068-0.4067,1.44-0.70007,2.1997h4.3402v-2.76h0.98022v2.76h6.46v0.84045h-6.46v4.1199h7.7795v0.85999h-5.8197v6.3599c-0.00001,0.26652,0.01,0.45319,0.0299,0.56s0.0633,0.22349,0.13,0.35004c0.0667,0.12654,0.20344,0.20314,0.41016,0.22979,0.20669,0.0267,0.45337,0.0501,0.74005,0.0702,0.28665,0.0202,0.70321,0.0302,1.2497,0.0302h0.78003c0.1599,0,0.35318-0.0234,0.57984-0.0702,0.22662-0.0468,0.38002-0.0935,0.4602-0.14008,0.0801-0.0466,0.18024-0.14994,0.30029-0.31006,0.12002-0.16011,0.19662-0.31677,0.2298-0.46997,0.0332-0.1532,0.0831-0.39978,0.14984-0.73975,0.0667-0.33996,0.11341-0.66996,0.14008-0.98999,0.0266-0.32002,0.0599-0.7667,0.0998-1.34l0.88013,0.08c-0.0399,0.64006-0.0765,1.15-0.10987,1.5298-0.0334,0.37984-0.0867,0.76314-0.15991,1.1499-0.0733,0.38676-0.13989,0.67678-0.19989,0.87006s-0.16339,0.38666-0.31006,0.58014c-0.1467,0.19348-0.28678,0.32348-0.42022,0.39001-0.13348,0.0665-0.33683,0.13316-0.61005,0.19989-0.27325,0.0667-0.53652,0.10346-0.78979,0.11017-0.25332,0.007-0.6001,0.0101-1.0404,0.0101-1.5466,0-2.5166-0.10671-2.9098-0.32013-0.39328-0.21342-0.58992-0.76019-0.5899-1.6403v-6.4996h-2.9199c-0.2002,2.2534-0.91024,4.1135-2.1301,5.5801-1.2199,1.4667-2.91,2.4932-5.0702,3.0795l-0.33997-0.83985c1.96-0.53344,3.5068-1.4668,4.6402-2.8s1.7868-3.0065,1.9601-5.0198h-6.3599v-0.85999h8.2398v-4.1199h-4.6802c-0.57333,1.2533-1.2465,2.3733-2.0196,3.36z"/>
    <path d="m367.44,662.82c1.6264-0.59976,3.3862-1.0598,5.2795-1.38l0.12024,0.85998c-1.9068,0.33367-3.6601,0.8071-5.26,1.4203,0.13345,0.94687,0.20018,2.2068,0.20019,3.7799h-0.96008c-0.00001-1.2398-0.0468-2.373-0.14038-3.3997-1.3998,0.62663-2.4996,1.2966-3.2996,2.0099-0.79997,0.7133-1.2,1.3633-1.2,1.9501-0.00001,1.4266,1.6866,2.1399,5.0598,2.1399,1.4665,0,2.9665-0.13997,4.5001-0.41992l0.10009,0.88013c-1.4002,0.26652-2.9336,0.39978-4.6002,0.39978-4.0536,0-6.0803-0.98002-6.0803-2.9401,0-0.78654,0.47668-1.6265,1.4301-2.5198,0.95336-0.89334,2.2768-1.7001,3.9703-2.4204-0.1469-0.85326-0.36032-1.4399-0.64026-1.76-0.27995-0.32002-0.64657-0.48003-1.0998-0.48004-0.66651,0.00001-1.5498,0.39999-2.6498,1.2-1.1001,0.79998-2.19,1.8933-3.27,3.28l-0.7605-0.49988c1.8136-2.3466,3.1604-4.5532,4.0405-6.6199-1.44,0.0399-2.9535,0.0598-4.5404,0.0598v-0.83985c1.5202,0.00002,3.147-0.0334,4.8804-0.1001,0.37312-1.0132,0.69314-2.0131,0.96008-2.9999l0.95947,0.21972c-0.27996,1.0266-0.57313,1.9401-0.87952,2.7405,2.64-0.12002,5.1933-0.32001,7.6599-0.59997l0.0598,0.83984c-2.76,0.30641-5.4466,0.51962-8.0597,0.63965-0.41342,1.0002-1.0002,2.1336-1.7603,3.4003l0.0202,0.0201c1.3867-1.04,2.5401-1.56,3.4601-1.5601,0.66649,0.00001,1.1997,0.20997,1.5997,0.62988,0.39997,0.41993,0.70006,1.1098,0.90027,2.0697z"/>
    <path d="m380.18,662.4,0,2.6202,11,0,0-2.6202zm0-3.2599,0,2.4798,11,0,0-2.4798zm0-0.78003,11,0,0-2.42-11,0zm8.4796,12.16c0.56029,0.0269,0.9737,0.0403,1.2402,0.0403,0.30678,0,0.74013-0.0134,1.3-0.0403,0.33324-0.0134,0.56985-0.0367,0.70984-0.0699,0.13996-0.0332,0.28329-0.10315,0.43-0.20996,0.14667-0.10681,0.25002-0.31016,0.31005-0.61004,0.06-0.29989,0.11331-0.65989,0.15992-1.08,0.0466-0.42012,0.09-1.0235,0.13031-1.81l0.93994,0.08c-0.0533,0.90658-0.10999,1.5966-0.16999,2.07-0.06,0.47343-0.13673,0.89681-0.2301,1.2701-0.0934,0.37333-0.24344,0.62998-0.45013,0.76996-0.20672,0.13997-0.43673,0.24332-0.69,0.31005-0.25332,0.0667-0.61983,0.11332-1.0996,0.13977-0.30682,0.0134-0.78025,0.0201-1.4203,0.0201-0.58677-0.00001-1.0268-0.007-1.3202-0.0201-0.67994-0.0265-1.1233-0.11973-1.33-0.27984-0.20671-0.16012-0.31007-0.48004-0.31006-0.95978v-4.2602h-2.7197c-0.0936,1.3468-0.69367,2.5236-1.8002,3.5303-1.1066,1.0067-2.6598,1.7698-4.6597,2.2894l-0.28015-0.85999c1.8001-0.46631,3.1902-1.1262,4.1702-1.9797,0.98002-0.85347,1.5166-1.8468,1.6098-2.98h-2.9999-0.96009v-10.78h12.92v10.78h-4.3201v3.9197c-0.00001,0.30681,0.04,0.50019,0.11993,0.58014,0.0799,0.08,0.31991,0.12665,0.71991,0.14008z"/>
    <path d="m403.6,655.84,0,2.5806,9.4403,0,0-2.5806zm0,5.6806,4.9603,0,0-2.3004-4.9603,0zm1.5399,8.3398,7.7203,0,0-4.1199-7.7203,0zm-0.93994-4.92,4.3604,0,0-2.5598-4.9603,0c-0.0798,3.5466-0.69968,6.5664-1.8597,9.0594l-0.78003-0.63965c0.59976-1.3066,1.033-2.7132,1.2997-4.22,0.26672-1.5068,0.40008-3.34,0.40009-5.4999v-6.0602h0.93994,10.4v4.1998h-4.4995v2.3004h5.1398v0.85998h-5.1398v2.5598h4.3201v6.8201h-0.96008v-1.0998h-7.7203v1.0998h-0.93994zm-2.0801-6.8402,0,0.83984-1.9196,0,0,5.1001c0.74666-0.30639,1.3531-0.57963,1.8195-0.81971l0.18005,0.81971c-0.49317,0.2535-1.1597,0.55359-1.9995,0.90027v4.4598c-0.00001,0.94686-0.0767,1.537-0.2301,1.7703-0.15341,0.23336-0.55014,0.35003-1.1902,0.35004-0.27995-0.00001-0.89986-0.0334-1.8597-0.1001l-0.0201-0.82032c0.52002,0.0533,1.0799,0.08,1.6797,0.08,0.34667,0,0.54666-0.05,0.59997-0.14984,0.0533-0.0999,0.0799-0.46316,0.08-1.0898v-4.14c-0.99976,0.35971-1.8264,0.61972-2.4799,0.78003l-0.1001-0.88012c0.90698-0.24007,1.767-0.50679,2.58-0.80018v-5.4602h-2.5397v-0.83984h2.5397v-3.62h0.94055v3.62z"/>
    <path d="m421.84,654.86c2.5997,0.78655,5.2063,1.2864,7.8198,1.4996l-0.12024,0.85999c-2.6131-0.2132-5.2531-0.71308-7.9199-1.4996zm-1.9202,4.8999c3.2532,0.00001,6.7464-0.26,10.48-0.78003l0.22034,0.96009c-0.78696,0.74667-1.8271,1.7033-3.1204,2.8699-1.2934,1.1666-2.2598,2.05-2.8995,2.6501l0.0195,0.0397c0.62662-0.38655,1.2734-0.57983,1.9403-0.57984,0.65307,0.00001,1.1364,0.18667,1.4499,0.56,0.31351,0.37334,0.52357,1.0666,0.63019,2.0798,0.0932,1.027,0.28309,1.6871,0.56976,1.9803,0.28665,0.29317,0.87676,0.43976,1.7703,0.43976,0.78652,0,1.6732-0.12655,2.6599-0.37964l0.13977,0.88013c-1.0266,0.26652-2.0066,0.39978-2.9401,0.39978-1.0934,0-1.8466-0.19338-2.2598-0.58014-0.41322-0.38676-0.67984-1.1535-0.79987-2.3001-0.0936-0.93302-0.24374-1.5362-0.45043-1.8097-0.20672-0.27344-0.55666-0.41016-1.0498-0.41016-1.3066,0-3.8932,1.6933-7.76,5.08l-0.55969-0.67993c3.9998-3.5067,7.7598-6.8933,11.28-10.16l-0.0202-0.0403c-3.2267,0.4537-6.3267,0.68055-9.2999,0.68054z"/>
    <path d="m440.44,656.2c3.2133,0.00002,6.5332-0.1599,9.9597-0.47973l0.2002,0.97961c-2.2534,1.827-4.7534,3.7404-7.5,5.7404l0.0201,0.0397c1.4266-0.45328,2.7799-0.67992,4.0601-0.67993,1.853,0.00001,3.1929,0.41006,4.0198,1.2302,0.82681,0.82012,1.2402,1.8434,1.2402,3.0698-0.00002,1.4933-0.64669,2.6934-1.94,3.6002-1.2934,0.90678-3.0401,1.3602-5.2402,1.3602-1.44,0-2.5567-0.24333-3.3499-0.72998-0.79326-0.48665-1.1899-1.17-1.1899-2.0502-0.00001-0.64005,0.31992-1.1967,0.95978-1.6699,0.63984-0.47322,1.4865-0.70984,2.54-0.70984,1.0132,0,1.8098,0.22329,2.3898,0.66986,0.58002,0.44658,0.87004,1.0633,0.87005,1.8503-0.00001,0.49317-0.11333,1.0464-0.33996,1.6596,1.3733-0.21322,2.44-0.66986,3.2001-1.3699,0.76007-0.70007,1.1401-1.5634,1.1401-2.59-0.00002-2.3466-1.5668-3.5199-4.7003-3.5199-1.1467,0.00001-2.3432,0.22665-3.5898,0.67993-1.2466,0.45329-2.7432,1.2199-4.49,2.2998l-0.52002-0.78003c4.0934-2.6798,7.7866-5.393,11.08-8.1396l-0.0195-0.0403c-3.3334,0.32025-6.2667,0.48036-8.8,0.48035zm5.7196,14c0.26692-0.61319,0.40038-1.1798,0.40039-1.6998-0.00001-0.5603-0.20336-1.0005-0.61004-1.3205-0.40671-0.32002-0.98339-0.48004-1.73-0.48004-0.78654,0-1.4132,0.15676-1.8799,0.47027-0.46672,0.31352-0.70008,0.6835-0.70007,1.1099-0.00001,1.2935,1.2199,1.9403,3.6597,1.9403,0.38695,0,0.67361-0.007,0.85998-0.0202z"/>
    <path d="m472.92,669.4,0.12024,0.85999c-1.5466,0.29337-2.8868,0.44006-4.0204,0.44006-3.2931,0-4.9396-0.81339-4.9396-2.4402,0-1.1332,0.92651-2.4131,2.7795-3.8397l0.62012,0.62011c-1.6398,1.2797-2.4597,2.333-2.4597,3.1598-0.00001,1.0799,1.3332,1.6199,3.9996,1.6199,1.0933,0,2.3934-0.13998,3.9001-0.41993zm-3.5602-14.88,0.72022-0.40039c0.45327,0.70681,1.04,1.707,1.7602,3.0005l-0.72021,0.37964c-0.55991-1.04-1.1467-2.0333-1.7603-2.9797zm2.5604-0.3601,0.73974-0.39978c0.7202,1.1597,1.3202,2.1796,1.7999,3.0597l-0.73974,0.38025c-0.58677-1.0669-1.1868-2.0803-1.7999-3.0402zm-6.8005,7.4402c2.5602-0.52001,4.9937-0.78002,7.3004-0.78003v0.87952c-2.3202,0.00001-4.7136,0.25351-7.1802,0.7605zm-2.3199-3.5205c2.0935-0.1599,4.1469-0.39976,6.1603-0.7196l0.12024,0.85999c-2.0134,0.31983-4.1801,0.56641-6.5002,0.73974-0.97331,3.9067-2.3399,8.08-4.0997,12.52l-0.88013-0.28015c1.7065-4.3066,3.0398-8.36,3.9996-12.16-1.4266,0.0936-2.6866,0.1469-3.7799,0.15991v-0.87952c1.5466-0.0268,2.88-0.0801,4.0002-0.15991,0.31982-1.2536,0.59977-2.4872,0.83985-3.7006l0.9198,0.12024c-0.22666,1.1601-0.48667,2.3267-0.78003,3.4998z"/>
    <path d="m480.48,655.56c-0.66651,2.4801-0.99976,5.0134-0.99976,7.6001s0.33325,5.1198,0.99976,7.5995l-0.96008,0.14038c-0.66651-2.4801-0.99976-5.0601-0.99976-7.7402,0-2.68,0.33325-5.2601,0.99976-7.7402zm9.0399-0.64026,0.94055,0c-0.00002,0.94688,0.0399,2.2868,0.11963,4.0198-0.00002,0.0134,0.003,0.0468,0.0101,0.1001,0.007,0.0533,0.0101,0.0867,0.0101,0.1001,0.83983-0.0667,1.9598-0.18005,3.36-0.33997l0.08,0.85998c-1.3733,0.15993-2.5067,0.27325-3.4003,0.33997,0.0403,0.88014,0.0604,1.7536,0.0604,2.6202-0.00002,2.6933-0.35006,4.62-1.0501,5.78-0.70009,1.1601-2.1034,2.1134-4.2099,2.8601l-0.40039-0.84046c0.77351-0.27995,1.407-0.55328,1.9003-0.82001,0.49335-0.26672,0.93667-0.59,1.33-0.96984,0.39326-0.37984,0.68653-0.8431,0.87982-1.3898,0.19327-0.54667,0.33996-1.1867,0.44007-1.9202,0.10008-0.73343,0.15013-1.6334,0.15014-2.6999-0.00001-0.84024-0.0199-1.687-0.0598-2.5403-2.0003,0.1469-4.2538,0.22034-6.7602,0.22033v-0.88012c2.48,0.00001,4.72-0.0734,6.72-0.22034v-0.27954c-0.0802-1.7334-0.12026-3.0668-0.12024-4.0002z"/>
    <path d="m497.38,657.4c4.5736,0.00002,9.6936-0.39325,15.36-1.1798l0.1001,0.90027c-2.8402,0.38657-5.1102,1.2398-6.81,2.5598s-2.5498,2.8599-2.5497,4.6198c-0.00001,1.6402,0.58989,2.9436,1.7697,3.9102s2.863,1.5433,5.0498,1.73l-0.0995,0.9198c-2.4268-0.18676-4.3202-0.85011-5.6802-1.99-1.3601-1.1399-2.0401-2.6299-2.0401-4.4699,0-1.4534,0.47668-2.7702,1.4301-3.9502,0.95336-1.18,2.31-2.1165,4.0698-2.8094l-0.0195-0.0403c-3.7602,0.48015-7.287,0.72023-10.58,0.72021zm11.8,3.0603,0.7605-0.44007c0.58633,0.90659,1.2329,2.0132,1.9397,3.3197l-0.78003,0.38025c-0.64007-1.1999-1.2801-2.2866-1.9202-3.2599zm2.6404-0.80018,0.78003-0.44006c0.76007,1.1735,1.4268,2.3002,2.0001,3.3801l-0.78003,0.39978c-0.7068-1.2797-1.3735-2.393-2.0001-3.3398z"/>
    <path d="m523.13,661.36c-0.52654,0.53305-0.78981,1.1663-0.7898,1.8997-0.00001,0.73345,0.26326,1.3668,0.7898,1.9,0.52652,0.53325,1.1631,0.79987,1.9098,0.79986,0.74665,0.00001,1.3834-0.26661,1.9101-0.79986,0.52672-0.53324,0.79009-1.1667,0.7901-1.9003-0.00001-0.81298-0.24995-1.4662-0.74982-1.9595-0.49988-0.49335-1.15-0.74004-1.9504-0.74005-0.74668,0.00001-1.3833,0.26674-1.9098,0.80017zm-1.7499,1.8799c-0.00001-1.0136,0.3366-1.857,1.0098-2.5302,0.67322-0.6732,1.5233-1.0098,2.5504-1.0098,1.0396,0.00001,1.9328,0.31332,2.6794,0.93994h0.0403c-0.0134-0.54687-0.0401-1.2868-0.0799-2.2198-0.00001-0.0403-0.003-0.0937-0.0101-0.16022-0.007-0.0665-0.0101-0.11992-0.0101-0.16021-3.9201,0.17335-7.36,0.26002-10.32,0.26001v-0.85999c3.2532,0.00001,6.6864-0.0799,10.3-0.23987-0.0399-0.97329-0.0598-1.96-0.0598-2.9602h0.93994c-0.00001,1.2936,0.0134,2.2669,0.0403,2.9199,1.8799-0.0932,3.7597-0.20649,5.6396-0.33997l0.0604,0.84046c-1.9202,0.13307-3.807,0.24639-5.6604,0.33996-0.00001,0.0533,0.003,0.13328,0.0101,0.23987,0.007,0.10662,0.0101,0.18658,0.0101,0.23987,0.0533,1.7599,0.0799,3.0798,0.08,3.96,0.2132,0.72022,0.31981,1.5603,0.31982,2.5201-0.00001,1.7334-0.55665,3.1601-1.6699,4.2801-1.1133,1.12-2.6965,1.8267-4.7498,2.1201l-0.15991-0.92041c3.28-0.45329,5.1265-1.9466,5.5396-4.48,0.0268-0.15991,0.0537-0.3599,0.0806-0.59998h-0.0403c-0.74667,0.93344-1.7399,1.4002-2.9797,1.4002-1.04,0-1.8934-0.33996-2.5601-1.0199-0.66671-0.67993-1.0001-1.5332-1.0001-2.5598z"/>
    <path d="m537.95,670.89c-0.56641-0.56681-0.84961-1.2569-0.84961-2.0703,0-0.81339,0.28331-1.5068,0.84992-2.0801,0.5666-0.57332,1.2566-0.85998,2.07-0.85998,0.81339,0,1.5067,0.28666,2.0801,0.85998,0.57332,0.57333,0.85998,1.2667,0.85999,2.0801-0.00001,0.8134-0.28667,1.5034-0.85999,2.07-0.57333,0.56661-1.2667,0.84991-2.0801,0.84991s-1.5035-0.2832-2.0703-0.84961zm0.57007-3.5803c-0.41341,0.41992-0.62012,0.92326-0.62012,1.51,0,0.58675,0.20671,1.0867,0.62012,1.4999,0.41341,0.41321,0.91339,0.61981,1.4999,0.61981,0.58654,0,1.0899-0.2066,1.51-0.61981,0.42012-0.41321,0.63018-0.91319,0.63019-1.4999-0.00001-0.58675-0.21007-1.0901-0.63019-1.51-0.42013-0.41992-0.92347-0.62988-1.51-0.62988-0.58655,0-1.0865,0.20996-1.4999,0.62988z"/>
   </g>
  </g>
 </g>
</svg>
