<?xml version="1.0" encoding="UTF-8" standalone="no"?>
<!-- Created with Inkscape (http://www.inkscape.org/) -->
<svg xmlns:rdf="http://www.w3.org/1999/02/22-rdf-syntax-ns#" xmlns="http://www.w3.org/2000/svg" version="1.1" xmlns:cc="http://creativecommons.org/ns#" xmlns:dc="http://purl.org/dc/elements/1.1/" viewBox="0 0 456.4 101.79">
 <metadata>
  <rdf:RDF>
   <cc:Work rdf:about="">
    <dc:format>image/svg+xml</dc:format>
    <dc:type rdf:resource="http://purl.org/dc/dcmitype/StillImage"/>
    <dc:title/>
   </cc:Work>
  </rdf:RDF>
 </metadata>
 <g transform="translate(268.48015,-56.061177)">
  <g font-family="&apos;M+ 2m thin&apos;" transform="translate(-295.04286,-514.08626)" font-stretch="normal" font-variant="normal" font-weight="normal" font-style="normal" fill="#000">
   <g style="letter-spacing:0px;word-spacing:0px;" font-size="29.5973835px" line-height="125%">
    <path d="m28.101,582.43,0-1.2727,10.419,0c-0.000014-0.0789,0.005-0.19223,0.0149-0.34007,0.0099-0.14782,0.01489-0.26118,0.0149-0.34007v-6.6298h-11.573v-1.3025h24.566v1.3025h-11.573v6.6298c-0.000015,0.0789,0.005,0.19225,0.0149,0.34007,0.0099,0.14784,0.01489,0.2612,0.0149,0.34007h10.419v1.2727h-10.271c0.41427,2.6838,1.6475,5.111,3.6997,7.2815,2.0521,2.1705,4.7552,3.8871,8.1093,5.1498l-0.62143,1.1842c-3.0187-1.1248-5.5738-2.6837-7.6654-4.6765s-3.5418-4.2225-4.3505-6.689c-0.80932,2.4466-2.2745,4.6713-4.3956,6.674-2.1211,2.0028-4.7009,3.5666-7.7394,4.6914l-0.62143-1.1842c3.354-1.2627,6.0571-2.9793,8.1093-5.1498s3.2854-4.5976,3.6997-7.2815z"/>
    <path d="m80.932,587.31,1.2727,0.17794c-0.15779,2.6634-0.355,4.666-0.59162,6.0079-0.23668,1.3419-0.48823,2.1855-0.75466,2.5309-0.26648,0.34534-0.6463,0.51801-1.1394,0.51801-0.47393,0-0.97221-0.34037-1.4949-1.0211-0.5227-0.68074-1.0111-1.5933-1.4651-2.7377-0.45405-1.1444-0.83386-2.565-1.1394-4.2619-0.30562-1.6969-0.47829-3.463-0.51801-5.2984h-16.071v-1.213h17.492v0.47329c-0.000023,2.269,0.21209,4.4196,0.63633,6.4518,0.4242,2.0323,0.87808,3.5517,1.3616,4.5582,0.48351,1.0065,0.88304,1.5098,1.1986,1.5098,0.454,0,0.85835-2.5652,1.2131-7.6956zm-19.771-8.7307,0-1.214,16.93,0,0,1.214zm-5.2388,1.7758c2.5652-2.9602,4.4497-6.3639,5.6534-10.211l1.3323,0.29536c-0.17765,0.5528-0.48354,1.3817-0.91769,2.4866h17.847v1.2429h-18.38c-1.2037,2.5851-2.6935,4.9037-4.4692,6.9558zm3.6112,5.5342,0.68104-1.0649c2.2689,1.1839,4.4789,2.5848,6.6298,4.2028,1.7559-1.4602,3.3739-3.0686,4.854-4.8251l1.0062,0.82918c-1.4801,1.7758-3.0786,3.3838-4.7953,4.8242,1.8155,1.4404,3.7689,3.1273,5.8602,5.0609l-0.88789,0.91769c-2.0516-1.9137-4.0541-3.6301-6.0075-5.1494-2.9994,2.3677-6.2354,4.2717-9.708,5.7121l-0.59253-1.1245c3.2559-1.3422,6.3341-3.1478,9.2347-5.4167-1.9932-1.4795-4.0848-2.8015-6.2748-3.9661z"/>
    <path d="m101.06,583.44c2.4068-0.88757,5.0112-1.5683,7.813-2.0422l0.17794,1.2727c-2.8218,0.49378-5.4165,1.1944-7.7841,2.1018,0.19749,1.4012,0.29624,3.2658,0.29626,5.5938h-1.4208c-0.00001-1.8348-0.0693-3.5118-0.20774-5.031-2.0714,0.92733-3.6991,1.9188-4.8829,2.9744-1.1839,1.0556-1.7758,2.0175-1.7758,2.8858-0.00001,2.1112,2.4959,3.1668,7.4879,3.1668,2.1702,0,4.39-0.20714,6.6596-0.62142l0.14813,1.3025c-2.0721,0.39441-4.3413,0.59162-6.8077,0.59162-5.9987,0-8.9981-1.4503-8.9981-4.3509-0.000009-1.164,0.70542-2.407,2.1163-3.729,1.4108-1.322,3.3694-2.516,5.8756-3.5818-0.2174-1.2627-0.53323-2.1309-0.9475-2.6045-0.4143-0.47359-0.95685-0.71039-1.6276-0.7104-0.98635,0.00001-2.2935,0.59194-3.9214,1.7758s-3.241,2.8019-4.8391,4.854l-1.1254-0.73976c2.6838-3.4726,4.677-6.7382,5.9795-9.7965-2.1311,0.059-4.3708,0.0885-6.7192,0.0885v-1.2429c2.2497,0.00002,4.6571-0.0494,7.2223-0.14813,0.55217-1.4994,1.0258-2.9792,1.4208-4.4394l1.4199,0.32516c-0.4143,1.5193-0.84816,2.8711-1.3016,4.0556,3.9068-0.17762,7.6854-0.47358,11.336-0.88788l0.0885,1.2429c-4.0845,0.45344-8.0602,0.76897-11.927,0.94659-0.6118,1.4801-1.4801,3.1574-2.6049,5.032l0.02981,0.0298c2.0522-1.5391,3.759-2.3087,5.1205-2.3087,0.98632,0.00001,1.7755,0.31073,2.3674,0.93214,0.5919,0.62145,1.036,1.6424,1.3323,3.0629z"/>
    <path d="m117.16,595.6,0,1.3323-1.3016,0,0-8.6133,8.1391,0,0,7.281zm0-1.2429,5.5649,0,0-4.8242-5.5649,0zm8.3468-9.3829-0.14814-1.2727c0.57204-0.0981,1.8053-0.3643,3.6997-0.79847,0.13788-1.7956,0.20682-4.0254,0.20684-6.6894v-3.108h-3.8469v-1.2429h13.023c-0.00003,12.984,0.44377,20.541,1.3314,22.671,0.0789,0.21738,0.1481,0.32607,0.20774,0.32607,0.37452,0,0.68011-1.8546,0.91679-5.564l1.1842,0.26555c-0.11866,1.8745-0.28154,3.3446-0.48866,4.4101-0.20717,1.0655-0.439,1.771-0.69549,2.1163-0.25655,0.34534-0.58202,0.51801-0.9764,0.51801-1.0658,0-1.8059-1.6919-2.2202-5.0758-0.41431-3.3838-0.62145-9.5254-0.62143-18.425h-6.4518v3.108c-0.00002,2.5062-0.0693,4.6273-0.20775,6.3633,1.5788-0.41427,3.3155-0.90744,5.2099-1.4795l0.17704,1.2727c-1.8746,0.59194-3.7096,1.105-5.5052,1.5391-0.27581,2.9199-0.7887,5.3368-1.5387,7.2508-0.75001,1.914-1.8253,3.621-3.2259,5.1209l-0.9475-1.0062c1.2434-1.3615,2.2056-2.8858,2.8863-4.5731,0.68073-1.6872,1.159-3.833,1.4348-6.4374-1.0652,0.23665-2.1997,0.4733-3.4034,0.70994zm-9.6484-11.691,0-1.2429,8.1093,0,0,1.2429zm-0.85898,3.9959,0-1.2438,9.4714,0,0,1.2438zm1.0062,4.0844,0-1.214,7.8437,0,0,1.214zm0,4.0844,0-1.214,7.8437,0,0,1.214z"/>
    <path d="m163.66,576.01,1.2727-0.59252c2.6639,4.3217,4.2524,9.4717,4.7655,15.45l-1.4208,0.0894c-0.51307-5.7813-2.0522-10.764-4.6174-14.947zm-14.799-1.0658c-0.41429,2.4074-0.62143,4.8444-0.62143,7.3108,0,1.5193,0.14301,2.9596,0.42904,4.3211,0.28602,1.3615,0.64611,2.4812,1.0803,3.3592,0.43415,0.87795,0.90278,1.5734,1.4059,2.0865,0.5031,0.51305,0.97173,0.76957,1.4059,0.76957,0.15775,0,0.33524-0.0494,0.53246-0.14814,0.19719-0.0987,0.43896-0.32561,0.7253-0.68059,0.28631-0.35497,0.56752-0.80373,0.84362-1.3463,0.27608-0.54254,0.57204-1.3171,0.88789-2.3236,0.31582-1.0065,0.602-2.1706,0.85853-3.4924l1.391,0.23665c-0.67082,3.3938-1.4699,5.7714-2.3972,7.1329-0.92734,1.3615-1.8745,2.0422-2.8416,2.0422-1.4012,0-2.7135-1.1247-3.9368-3.374-1.2233-2.2494-1.8349-5.1104-1.8349-8.583-0.00001-2.4466,0.21707-4.9428,0.65123-7.4888z"/>
    <path d="m175.85,575.71c6.7683,0.00002,14.345-0.58197,22.731-1.746l0.14813,1.3314c-4.1832,0.57267-7.5376,1.8208-10.063,3.7444-2.5255,1.9236-3.7882,4.1186-3.7882,6.5851-0.00001,2.2888,0.87794,4.1386,2.6338,5.5495s4.2419,2.2446,7.4581,2.5011l-0.14723,1.3621c-3.5714-0.27639-6.3685-1.2383-8.3911-2.8859-2.0227-1.6475-3.034-3.7737-3.034-6.3787-0.00001-2.0124,0.70542-3.877,2.1163-5.5938,1.4108-1.7167,3.4184-3.0882,6.0228-4.1143l-0.0289-0.0587c-5.5646,0.70997-10.784,1.0649-15.658,1.0649z"/>
    <path d="m211.16,595.01-1.1841,0.9466c-1.9143-2.2491-3.9071-4.3307-5.9786-6.245l1.0947-1.036c2.072,1.9143,4.0947,4.0257,6.068,6.3344z"/>
    <path d="m238.3,582.81,0,3.8776,16.278,0,0-3.8776zm0-4.8242,0,3.6699,16.278,0,0-3.6699zm0-1.1543,16.278,0,0-3.5814-16.278,0zm12.549,17.995c0.82916,0.0397,1.441,0.0596,1.8354,0.0596,0.454,0,1.0953-0.0199,1.9239-0.0596,0.49314-0.0199,0.8433-0.0543,1.0505-0.10342,0.20712-0.0491,0.41923-0.15265,0.63633-0.31071,0.21705-0.15807,0.37-0.459,0.45885-0.90279,0.0888-0.44379,0.16767-0.97655,0.23664-1.5983,0.0689-0.62172,0.13321-1.5146,0.19285-2.6786l1.391,0.11833c-0.0789,1.3416-0.16276,2.3627-0.25156,3.0633-0.0888,0.70061-0.20235,1.3272-0.34052,1.8796-0.13822,0.55248-0.36027,0.9323-0.66614,1.1394-0.30592,0.20714-0.64629,0.36009-1.0211,0.45885-0.37487,0.0987-0.91727,0.1677-1.6272,0.20684-0.45405,0.0199-1.1547,0.0298-2.1018,0.0298-0.86833-0.00001-1.5196-0.01-1.9537-0.0298-1.0062-0.0391-1.6623-0.17719-1.9682-0.41414-0.30591-0.23695-0.45886-0.7104-0.45885-1.4203v-6.3046h-4.0248c-0.13851,1.9932-1.0266,3.7346-2.6641,5.2243-1.6376,1.4898-3.9362,2.6191-6.8958,3.3881l-0.41459-1.2727c2.664-0.69008,4.7211-1.6666,6.1714-2.9297,1.4503-1.263,2.2444-2.733,2.3823-4.4101h-4.4394-1.4208v-15.953h19.12v15.953h-6.3931v5.8006c-0.00002,0.45403,0.0591,0.7402,0.17749,0.85853,0.1183,0.11832,0.47343,0.18742,1.0654,0.20729z"/>
    <path d="m268.28,573.64c4.7552,0.00003,9.6683-0.23662,14.739-0.70994l0.29626,1.4497c-3.3348,2.7037-7.0344,5.5354-11.099,8.495l0.0298,0.0587c2.1112-0.6708,4.114-1.0062,6.0084-1.0062,2.7422,0.00001,4.7251,0.60684,5.9487,1.8205s1.8354,2.7279,1.8354,4.5428c-0.00002,2.2099-0.957,3.9858-2.871,5.3278-1.914,1.3419-4.4989,2.0129-7.7548,2.0129-2.131,0-3.7835-0.36009-4.9574-1.0803-1.1739-0.72018-1.7609-1.7315-1.7609-3.034-0.00001-0.94719,0.47344-1.771,1.4204-2.4713,0.94688-0.7003,2.1998-1.0505,3.7588-1.0505,1.4994,0,2.6782,0.33044,3.5366,0.9913,0.85836,0.66088,1.2876,1.5736,1.2876,2.7382-0.00002,0.72982-0.16772,1.5484-0.50311,2.4559,2.0323-0.31554,3.6108-0.99131,4.7357-2.0273,1.1248-1.036,1.6872-2.3136,1.6873-3.8329-0.00003-3.4726-2.3186-5.209-6.9559-5.209-1.6969,0.00002-3.4677,0.33542-5.3124,1.0062-1.8447,0.67082-4.0596,1.8053-6.6447,3.4034l-0.76956-1.1543c6.0577-3.9658,11.523-7.981,16.397-12.046l-0.0289-0.0596c-4.9329,0.47392-9.2739,0.71087-13.023,0.71085zm8.4643,20.719c0.395-0.90745,0.59251-1.746,0.59253-2.5155-0.00002-0.82917-0.30095-1.4806-0.90279-1.9542-0.60188-0.47359-1.4553-0.71039-2.5602-0.7104-1.164,0.00001-2.0913,0.23199-2.782,0.69595-0.69069,0.46397-1.036,1.0115-1.036,1.6425-0.00001,1.9143,1.8053,2.8714,5.4158,2.8714,0.57264,0,0.99686-0.01,1.2727-0.0298z"/>
    <path d="m294.2,595.38c-0.83821-0.83881-1.2573-1.8601-1.2573-3.0638s0.41925-2.2298,1.2578-3.0782c0.8385-0.84843,1.8596-1.2726,3.0633-1.2727,1.2037,0.00001,2.2298,0.42423,3.0782,1.2727,0.84844,0.84845,1.2727,1.8745,1.2727,3.0782-0.00001,1.2037-0.42423,2.2248-1.2727,3.0633-0.84845,0.8385-1.8745,1.2578-3.0782,1.2578s-2.225-0.41911-3.0638-1.2573zm0.84363-5.2984c-0.6118,0.62143-0.9177,1.3663-0.9177,2.2346,0,0.86831,0.3059,1.6082,0.9177,2.2197,0.61179,0.61149,1.3517,0.91724,2.2197,0.91724,0.86801,0,1.6129-0.30575,2.2346-0.91724,0.62172-0.61149,0.93258-1.3514,0.93259-2.2197-0.00001-0.86831-0.31087-1.6132-0.93259-2.2346-0.62174-0.62142-1.3666-0.93214-2.2346-0.93214-0.86802,0-1.6079,0.31072-2.2197,0.93214z"/>
   </g>
   <g style="letter-spacing:0px;word-spacing:0px;" font-size="19.99999809px" line-height="125%">
    <path d="m38.14,612.14,0-0.85999,7.0404,0c-0.00001-0.0533,0.0033-0.12989,0.01007-0.2298,0.0067-0.0999,0.01006-0.17648,0.01007-0.22979v-4.48h-7.8204v-0.88013h16.6v0.88013h-7.8204v4.48c-0.000011,0.0533,0.0033,0.12991,0.01007,0.22979,0.0067,0.0999,0.01006,0.17651,0.01007,0.2298h7.0404v0.85999h-6.9403c0.27994,1.8136,1.1133,3.4537,2.5,4.9204s3.2133,2.6266,5.4797,3.4799l-0.41992,0.80017c-2.0398-0.7601-3.7664-1.8135-5.1797-3.1601-1.4134-1.3466-2.3933-2.8533-2.9398-4.52-0.54688,1.6532-1.537,3.1565-2.9703,4.5099s-3.1766,2.4101-5.2298,3.1702l-0.41992-0.80017c2.2664-0.85328,4.093-2.0132,5.4797-3.4799s2.22-3.1068,2.5-4.9204z"/>
    <path d="m73.84,615.44,0.85998,0.12024c-0.10663,1.7997-0.23989,3.153-0.39978,4.0598-0.15993,0.90678-0.32991,1.4768-0.50995,1.7102-0.18007,0.23335-0.43672,0.35003-0.76996,0.35003-0.32025,0-0.65696-0.23-1.0101-0.69-0.35321-0.46-0.6832-1.0767-0.98999-1.85-0.30682-0.77331-0.56347-1.7333-0.76996-2.8799-0.20652-1.1466-0.3232-2.3401-0.35004-3.5803h-10.86v-0.8197h11.82v0.31982c-0.000015,1.5332,0.14332,2.9865,0.42999,4.3597,0.28664,1.3733,0.59335,2.4,0.9201,3.0801,0.32672,0.68014,0.5967,1.0202,0.80994,1.0202,0.30679,0,0.58002-1.7334,0.8197-5.2002zm-13.36-5.8997,0-0.82031,11.44,0,0,0.82031zm-3.54,1.2c1.7334-2.0003,3.0068-4.3003,3.8202-6.9l0.90027,0.19958c-0.12004,0.37355-0.32675,0.93365-0.62012,1.6803h12.06v0.83984h-12.42c-0.8134,1.7468-1.8201,3.3136-3.02,4.7003zm2.4402,3.7396,0.4602-0.71961c1.5332,0.79997,3.0265,1.7466,4.48,2.84,1.1865-0.98673,2.2799-2.0736,3.28-3.2605l0.67993,0.5603c-1.0002,1.2-2.0803,2.2866-3.2404,3.2599,1.2268,0.97331,2.5468,2.1132,3.96,3.4198l-0.59998,0.62012c-1.3863-1.2931-2.7395-2.453-4.0594-3.4796-2.0268,1.5999-4.2135,2.8866-6.5601,3.8599l-0.40039-0.75988c2.2001-0.90699,4.2802-2.1271,6.2402-3.6603-1.3468-0.99975-2.7602-1.8931-4.2401-2.68z"/>
    <path d="m79.04,605.42,0.9198,0.14038c-0.66651,2.4801-0.99976,5.0134-0.99976,7.6001-0.000004,2.5867,0.33325,5.1198,0.99976,7.5995l-0.9198,0.14038c-0.67993-2.5334-1.0199-5.1134-1.0199-7.7402-0.000002-2.6267,0.33996-5.2068,1.0199-7.7402zm9.8999,3.5004c-0.000013-1.3867,0.05329-2.6668,0.15991-3.8403l0.92041,0.0201c-0.0936,1.1735-0.1404,2.4136-0.14038,3.7201,1.2667-0.1066,2.5867-0.26,3.96-0.46021l0.07996,0.88013c-1.6667,0.22665-3.0133,0.38656-4.0399,0.47973-0.000015,0.25351,0.0033,0.52695,0.01007,0.82032,0.0067,0.29338,0.01677,0.61677,0.03021,0.97015,0.01341,0.3534,0.02013,0.63671,0.02014,0.84991,0.05329,1.6264,0.07994,2.9197,0.07996,3.88,1.0799,0.65308,2.3132,1.653,3.7,2.9999l-0.64026,0.62011c-1.1198-1.1068-2.1397-1.9668-3.0597-2.58-0.05332,1.2264-0.36999,2.1296-0.95001,2.7096-0.58005,0.58004-1.4501,0.87006-2.6102,0.87006-1.1202,0-2.0069-0.26998-2.6602-0.80994-0.65329-0.53995-0.97993-1.2699-0.97992-2.1899-0.000007-0.85327,0.32999-1.5399,0.98999-2.0599,0.65998-0.52002,1.5434-0.78003,2.6501-0.78003,0.79996,0,1.6799,0.23336,2.6398,0.70007-0.02646-1.4799-0.05311-2.6066-0.07996-3.3801-0.000013-0.0667-0.01-0.42673-0.02991-1.08-0.01995-0.65327-0.02992-1.14-0.02991-1.4603-2.0402,0.16033-4.0401,0.24049-5.9998,0.24048v-0.88013c1.9466,0.00001,3.9398-0.0799,5.9796-0.23987zm0.15991,7.7795c-0.94646-0.53303-1.833-0.79955-2.6596-0.79956-0.82663,0.00001-1.4767,0.17335-1.9501,0.52002-0.47344,0.34669-0.71015,0.82663-0.71014,1.4398-0.000009,0.66651,0.23335,1.1898,0.70007,1.5698,0.46671,0.38004,1.12,0.57006,1.9598,0.57006,0.94685,0,1.6269-0.24993,2.0401-0.74981s0.6198-1.3099,0.61981-2.4301z"/>
    <path d="m111.28,619.18,0.13977,0.9198c-2.253,0.39999-4.373,0.59998-6.3599,0.59998-1.96,0-3.5033-0.33336-4.6298-1.0001-1.1265-0.66671-1.6898-1.5734-1.6898-2.72-0.000003-1.5999,1.2931-3.0865,3.8794-4.4598-0.65309-2.5468-1.1664-4.9868-1.5399-7.32l0.98022-0.14038c0.33325,2.1204,0.8199,4.4538,1.46,7.0001,1.9466-0.91999,4.4533-1.7932,7.5201-2.6196l0.23987,0.87952c-7.6933,2.1204-11.54,4.3337-11.54,6.64-0.000004,0.86671,0.47993,1.5534,1.4398,2.0602s2.2798,0.7602,3.96,0.7602c1.9067,0,3.9534-0.19999,6.1401-0.59998zm-3.4399-14.2,0.78003-0.41992c0.54646,0.84027,1.1865,1.9403,1.9202,3.3002l-0.78003,0.39978c-0.67995-1.2797-1.32-2.373-1.9202-3.28zm2.6398-0.79956,0.78003-0.41992c0.76008,1.1731,1.4268,2.2996,2.0001,3.3795l-0.78003,0.40039c-0.7601-1.3603-1.4268-2.4802-2.0001-3.36z"/>
    <path d="m118.84,611.72,2.42-0.54017c3.2267-0.70637,5.38-1.0596,6.46-1.0596,1.3867,0.00001,2.4534,0.33662,3.2001,1.0098,0.74664,0.67323,1.12,1.6367,1.12,2.8903-0.00002,1.5999-0.88004,3.0832-2.6401,4.4498s-3.9666,2.2431-6.6196,2.6297l-0.16052-0.85999c2.4402-0.37313,4.457-1.153,6.0504-2.3398,1.5934-1.1867,2.3901-2.46,2.3901-3.8199-0.00002-2.0532-1.1735-3.0798-3.5205-3.0798-0.93304,0.00001-2.8864,0.33998-5.86,1.0199-0.0399,0.0134-0.26652,0.0634-0.67993,0.14984-0.41341,0.0865-0.82337,0.1764-1.2299,0.26978-0.40649,0.0934-0.64982,0.14679-0.72998,0.16021zm3.0005-6.6602c2.5997,0.78696,5.2063,1.287,7.8198,1.5002l-0.12024,0.85999c-2.6131-0.2132-5.2531-0.71308-7.9199-1.4996z"/>
    <path d="m149.34,610.44c-0.10703,0.94687-0.12046,2.5669-0.0403,4.8602l0.0201,0.1001c-0.00001,0.0663-0.00001,0.14954,0,0.24963-0.00001,0.1001-0.00001,0.19674,0,0.28992,1.0132,0.57332,2.3798,1.5934,4.0997,3.0603l-0.57984,0.67993c-1.4266-1.2-2.5932-2.0933-3.4998-2.68v0.41992c-0.00002,1.2801-0.28342,2.2068-0.85022,2.7802-0.56683,0.57332-1.4836,0.85998-2.7502,0.85998-1.2264,0-2.193-0.28005-2.8998-0.84014-0.70679-0.5601-1.0602-1.3333-1.0602-2.3196,0-0.89356,0.36-1.617,1.08-2.1704,0.72-0.55339,1.68-0.83008,2.8799-0.83008,0.88012,0,1.7468,0.18677,2.6001,0.5603v-0.14038c-0.0798-2.3197-0.0598-3.9596,0.0598-4.9194zm-1.04-2.2797,0.23987-0.8606c1.9865,0.44028,3.8464,1.0537,5.5798,1.8402l-0.33997,0.83984c-1.7867-0.79995-3.6133-1.4064-5.4797-1.8194zm0.0799,8.2794c-0.90699-0.45328-1.7936-0.67992-2.6599-0.67993-0.89356,0.00001-1.6137,0.19674-2.1603,0.59021-0.54668,0.39348-0.82001,0.91024-0.82001,1.5503,0,0.7198,0.26336,1.2831,0.7901,1.6898,0.52673,0.4067,1.2568,0.61005,2.1902,0.61005,0.98632,0,1.6795-0.20671,2.0795-0.62012,0.39997-0.41341,0.59996-1.1334,0.59997-2.16-0.00001-0.33325-0.007-0.65999-0.0195-0.98023zm-7.2205-8.5797c0.2535-0.91999,0.52694-2.0534,0.82032-3.4003l0.9198,0.14039c-0.1998,0.98675-0.45981,2.0467-0.78003,3.1799,1.2268-0.0932,2.4868-0.23314,3.7799-0.41993l0.0604,0.85999c-1.3468,0.18678-2.7069,0.33347-4.0802,0.44006-0.89315,3.0664-2.1198,6.3263-3.6798,9.7797l-0.88013-0.31983c1.5601-3.4798,2.7533-6.6064,3.5797-9.3799-0.97332,0.0533-2.0667,0.08-3.28,0.08v-0.85999c1.3737,0.00001,2.5537-0.0334,3.54-0.1001z"/>
    <path d="m167.34,619.76c1.6134-0.2535,2.92-0.9902,3.92-2.2101,0.99994-1.2199,1.4999-2.6831,1.4999-4.3896-0.00002-1.6801-0.58667-3.0469-1.76-4.1004-1.1733-1.0534-2.6934-1.5802-4.5602-1.5802h-0.19959c-0.50701,3.9201-1.2238,6.8968-2.1503,8.9301-0.92652,2.0333-1.9965,3.0499-3.2098,3.0499-0.79998,0-1.54-0.50659-2.2202-1.5198-0.68013-1.0132-1.0202-2.2198-1.0202-3.62,0-2.2798,0.81339-4.1364,2.4402-5.5698,1.6268-1.4333,3.7467-2.15,6.3599-2.15,2.1468,0.00001,3.8969,0.60996,5.2502,1.8298,1.3533,1.2199,2.03,2.7965,2.03,4.7299-0.00002,1.9334-0.57009,3.5901-1.7102,4.9701-1.1402,1.38-2.6235,2.21-4.4501,2.4899zm-2.0801-12.22c-2.0134,0.22666-3.6301,0.94992-4.8502,2.1698s-1.8301,2.7498-1.8301,4.5898c0,1.1869,0.25665,2.1837,0.76996,2.9904,0.5133,0.80668,1.03,1.21,1.55,1.21,0.22704,0,0.46722-0.0801,0.72052-0.24017,0.25329-0.16012,0.54656-0.48014,0.87982-0.96009,0.33324-0.47993,0.65653-1.1066,0.96985-1.8799,0.3133-0.77331,0.62997-1.84,0.95001-3.2001,0.32002-1.3601,0.60007-2.92,0.84015-4.6799z"/>
    <path d="m189.58,607.56,0.83984-0.39978c1.6666,2.7999,3.1067,5.9798,4.3201,9.5398l-0.88013,0.3003c-1.2-3.5201-2.6266-6.6669-4.2798-9.4403zm-7.4603,1.2201c0.3068-1.4665,0.52693-2.9531,0.6604-4.4598l0.93994,0.08c-0.1469,1.5202-0.3536,2.9602-0.62012,4.3201,0.9733-0.0667,1.7132-0.10009,2.2198-0.1001,0.52001,0.00001,0.94004,0.0167,1.2601,0.05,0.32002,0.0334,0.6134,0.10672,0.88013,0.22003,0.26671,0.11333,0.4667,0.25005,0.59998,0.41016,0.13324,0.16012,0.24657,0.40345,0.33996,0.72998,0.0934,0.32655,0.15339,0.68645,0.18006,1.0797,0.0266,0.39328,0.04,0.90994,0.04,1.55-0.00001,2.4402-0.38331,4.4169-1.1499,5.9302-0.76661,1.5133-1.6433,2.2699-2.63,2.2699-0.79998,0-1.7867-0.53324-2.9602-1.5997l0.49988-0.75989c1.0136,0.94645,1.8337,1.4197,2.4603,1.4197,0.67992,0,1.3199-0.66996,1.9199-2.0099,0.59996-1.3399,0.89995-3.1366,0.89996-5.39-0.00001-0.50659-0.007-0.90993-0.0201-1.21-0.0134-0.30008-0.0568-0.57677-0.13001-0.83007-0.0733-0.25329-0.15321-0.43324-0.23986-0.53986-0.0867-0.1066-0.23002-0.19988-0.43-0.27985-0.2-0.0799-0.40996-0.12663-0.62988-0.14007-0.21994-0.0134-0.52339-0.0201-0.91034-0.0201-0.52003,0.00001-1.3133,0.0334-2.3798,0.10009-0.85328,3.9201-2.2599,7.7067-4.22,11.36l-0.83984-0.38025c1.8933-3.5466,3.2532-7.1865,4.0796-10.92-1.2667,0.10662-2.6266,0.24659-4.0796,0.41992l-0.0604-0.85998c1.9067-0.21321,3.3468-0.3599,4.3201-0.44007z"/>
    <path d="m201.84,620.64-0.80017,0.63965c-1.2935-1.5198-2.6402-2.9264-4.0399-4.22l0.73975-0.70007c1.4001,1.2935,2.7669,2.7203,4.1003,4.2804z"/>
    <path d="m233.84,615.44,0.85998,0.12024c-0.10662,1.7997-0.23988,3.153-0.39978,4.0598-0.15993,0.90678-0.32991,1.4768-0.50994,1.7102-0.18008,0.23335-0.43673,0.35003-0.76996,0.35003-0.32025,0-0.65696-0.23-1.0101-0.69-0.35321-0.46-0.68321-1.0767-0.98999-1.85-0.30682-0.77331-0.56348-1.7333-0.76996-2.8799-0.20652-1.1466-0.3232-2.3401-0.35004-3.5803h-10.86v-0.8197h11.82v0.31982c-0.00001,1.5332,0.14332,2.9865,0.43,4.3597,0.28664,1.3733,0.59334,2.4,0.9201,3.0801,0.32673,0.68014,0.5967,1.0202,0.80994,1.0202,0.30678,0,0.58002-1.7334,0.8197-5.2002zm-13.36-5.8997,0-0.82031,11.44,0,0,0.82031zm-3.54,1.2c1.7334-2.0003,3.0068-4.3003,3.8202-6.9l0.90027,0.19958c-0.12005,0.37355-0.32675,0.93365-0.62012,1.6803h12.06v0.83984h-12.42c-0.8134,1.7468-1.8201,3.3136-3.02,4.7003zm2.4402,3.7396,0.46021-0.71961c1.5332,0.79997,3.0265,1.7466,4.48,2.84,1.1865-0.98673,2.2798-2.0736,3.28-3.2605l0.67993,0.5603c-1.0002,1.2-2.0803,2.2866-3.2404,3.2599,1.2268,0.97331,2.5468,2.1132,3.96,3.4198l-0.59997,0.62012c-1.3863-1.2931-2.7395-2.453-4.0594-3.4796-2.0268,1.5999-4.2135,2.8866-6.5601,3.8599l-0.40039-0.75988c2.2001-0.90699,4.2802-2.1271,6.2402-3.6603-1.3468-0.99975-2.7602-1.8931-4.2401-2.68z"/>
    <path d="m253.08,619.28c-1.6398,0.413-3.1464,0.61951-4.5196,0.61951-1.5466,0-2.8167-0.28666-3.8101-0.85999-0.99346-0.57332-1.4902-1.3066-1.4902-2.1997-0.00001-0.58674,0.26671-1.2568,0.80017-2.0102,0.53344-0.75337,1.2602-1.4767,2.1802-2.1701l0.63965,0.64026c-1.7468,1.3733-2.6202,2.5466-2.6202,3.5199-0.00001,0.58676,0.39001,1.0934,1.17,1.5201,0.78001,0.42664,1.8234,0.63996,3.1302,0.63996s2.7534-0.19328,4.3399-0.57984zm-8.7799-11.32c2.5866,0.00001,5.3467-0.19998,8.28-0.59998l0.08,0.89966c-3.0001,0.4-5.7868,0.59999-8.36,0.59998zm-3.96-2.3999c-0.66651,2.4801-0.99976,5.0134-0.99976,7.6001s0.33325,5.1198,0.99976,7.5995l-0.96009,0.14038c-0.6665-2.4801-0.99976-5.0601-0.99975-7.7402-0.00001-2.68,0.33325-5.2601,0.99975-7.7402z"/>
    <path d="m269.34,610.44c-0.10703,0.94687-0.12046,2.5669-0.0403,4.8602l0.0201,0.1001c-0.00002,0.0663-0.00002,0.14954,0,0.24963-0.00002,0.1001-0.00002,0.19674,0,0.28992,1.0132,0.57332,2.3797,1.5934,4.0997,3.0603l-0.57984,0.67993c-1.4266-1.2-2.5932-2.0933-3.4998-2.68v0.41992c-0.00002,1.2801-0.28342,2.2068-0.85022,2.7802-0.56683,0.57332-1.4836,0.85998-2.7502,0.85998-1.2264,0-2.193-0.28005-2.8998-0.84014-0.70679-0.5601-1.0602-1.3333-1.0602-2.3196,0-0.89356,0.36-1.617,1.08-2.1704,0.72-0.55339,1.68-0.83008,2.8799-0.83008,0.88012,0,1.7468,0.18677,2.6001,0.5603v-0.14038c-0.0798-2.3197-0.0598-3.9596,0.0598-4.9194zm-1.04-2.2797,0.23987-0.8606c1.9865,0.44028,3.8464,1.0537,5.5798,1.8402l-0.33996,0.83984c-1.7867-0.79995-3.6133-1.4064-5.4797-1.8194zm0.08,8.2794c-0.907-0.45328-1.7936-0.67992-2.6599-0.67993-0.89356,0.00001-1.6137,0.19674-2.1603,0.59021-0.54667,0.39348-0.82001,0.91024-0.82,1.5503-0.00001,0.7198,0.26336,1.2831,0.7901,1.6898,0.52672,0.4067,1.2568,0.61005,2.1902,0.61005,0.98632,0,1.6795-0.20671,2.0795-0.62012,0.39997-0.41341,0.59996-1.1334,0.59998-2.16-0.00002-0.33325-0.007-0.65999-0.0195-0.98023zm-7.2205-8.5797c0.25349-0.91999,0.52693-2.0534,0.82031-3.4003l0.9198,0.14039c-0.1998,0.98675-0.45981,2.0467-0.78003,3.1799,1.2268-0.0932,2.4868-0.23314,3.7799-0.41993l0.0604,0.85999c-1.3468,0.18678-2.7069,0.33347-4.0802,0.44006-0.89315,3.0664-2.1198,6.3263-3.6798,9.7797l-0.88012-0.31983c1.56-3.4798,2.7533-6.6064,3.5797-9.3799-0.97331,0.0533-2.0667,0.08-3.28,0.08v-0.85999c1.3737,0.00001,2.5537-0.0334,3.54-0.1001z"/>
    <path d="m279.3,611.66c0.69336-0.14688,1.4734-0.34016,2.3401-0.57983,2.1867-0.57332,3.9134-0.85998,5.18-0.85999,1.6264,0.00001,2.8862,0.34333,3.7796,1.03,0.89334,0.68665,1.34,1.6432,1.34,2.8696-0.00002,1.7867-0.72664,3.1734-2.1799,4.1602-1.4533,0.98674-3.7265,1.6268-6.8198,1.9202l-0.12024-0.9198c2.8536-0.2535,4.9237-0.79356,6.2103-1.6202,1.2866-0.82661,1.9299-1.9933,1.9299-3.5001-0.00002-0.9733-0.36002-1.7233-1.08-2.2501-0.72003-0.52672-1.7602-0.79009-3.1204-0.7901-1.213,0.00001-2.8729,0.28667-4.9799,0.85999-0.98674,0.26693-1.7533,0.46021-2.2998,0.57983z"/>
    <path d="m313.12,619.2,0.11963,0.85999c-1.5466,0.29337-2.8866,0.44006-4.0198,0.44006-3.2935,0-4.9402-0.81319-4.9402-2.4396-0.00001-1.1336,0.92671-2.4137,2.7802-3.8403l0.62012,0.62011c-1.6402,1.2801-2.4603,2.3334-2.4603,3.1598-0.00001,1.0803,1.3334,1.6205,4.0002,1.6205,1.0933,0,2.3934-0.14018,3.9002-0.42054zm-0.50049-7.6996c-2.3198,0.00001-4.7129,0.2533-7.1796,0.75989l-0.12024-0.85999c2.5602-0.52001,4.9935-0.78002,7.2998-0.78003zm-9.6198-3.62c2.0935-0.1599,4.1469-0.39997,6.1603-0.72021l0.11963,0.85998c-2.0134,0.32025-4.1799,0.56703-6.4996,0.74036-0.97332,3.9067-2.3401,8.0798-4.1004,12.52l-0.88012-0.27954c1.7069-4.3066,3.0404-8.36,4.0002-12.16-1.4266,0.0932-2.6866,0.14649-3.7799,0.15991v-0.88013c1.5466-0.0268,2.8798-0.0801,3.9996-0.15991,0.32022-1.2532,0.60037-2.4866,0.84045-3.7l0.9198,0.11963c-0.22665,1.1601-0.48666,2.3269-0.78003,3.5004z"/>
    <path d="m327.34,611.94c1.5999,0.00001,2.8166,0.33998,3.6499,1.0199,0.83332,0.67994,1.25,1.6667,1.25,2.9602-0.00001,1.5198-0.63671,2.723-1.9101,3.6096-1.2734,0.88664-3.0234,1.33-5.2499,1.33-1.4799,0-2.9132-0.13326-4.2999-0.39978l0.13977-0.90027c1.3468,0.26693,2.7403,0.40039,4.1803,0.40039,1.9466,0,3.4599-0.36,4.5398-1.08s1.6198-1.7066,1.6199-2.9599c-0.00002-2.0536-1.3267-3.0804-3.9801-3.0804-2.4133,0.00001-4.7465,0.96009-6.9995,2.8802l-1.0004-0.26001c0.58675-2.4666,1.0335-4.7933,1.3403-6.98l0.9198,0.08c-0.27995,1.9735-0.66,3.9669-1.1401,5.9802l0.0403,0.0195c0.99975-0.82641,2.0997-1.4696,3.2999-1.9296,1.2002-0.45999,2.4002-0.68999,3.6002-0.69zm-5.5804-5.6799,0.26001-0.82031c2.6269,0.97332,5.3737,1.5399,8.2404,1.6998l-0.0201,0.85998c-2.9867-0.1599-5.8134-0.73973-8.4802-1.7395z"/>
    <path d="m338.32,621.04,0,0.90027-0.87952,0,0-5.8203,5.4999,0,0,4.92zm0-0.83984,3.7604,0,0-3.2599-3.7604,0zm5.6402-6.3403-0.10009-0.85999c0.38654-0.0663,1.2199-0.24616,2.5-0.53955,0.0932-1.2134,0.13976-2.7201,0.13977-4.5203v-2.1002h-2.5995v-0.83984h8.8c-0.00002,8.7736,0.29987,13.88,0.89966,15.32,0.0533,0.14689,0.10008,0.22034,0.14038,0.22034,0.25307,0,0.45957-1.2533,0.6195-3.7598l0.80017,0.17944c-0.0802,1.2667-0.19024,2.26-0.3302,2.98-0.13999,0.72002-0.29665,1.1967-0.46997,1.4301-0.17335,0.23335-0.39328,0.35003-0.65979,0.35003-0.72023,0-1.2203-1.1433-1.5002-3.4299-0.27996-2.2866-0.41994-6.4366-0.41992-12.45h-4.3597v2.1002c-0.00001,1.6935-0.0468,3.1268-0.14038,4.2999,1.0669-0.27994,2.2404-0.6132,3.5205-0.99976l0.11963,0.85998c-1.2667,0.4-2.5067,0.74668-3.7201,1.04-0.18637,1.9731-0.53295,3.6063-1.0397,4.8996-0.50681,1.2933-1.2334,2.4468-2.1799,3.4604l-0.64026-0.67993c0.84024-0.92001,1.4904-1.9501,1.9504-3.0902,0.45999-1.1401,0.78317-2.5901,0.96954-4.35-0.71982,0.15992-1.4864,0.31983-2.2998,0.47974zm-6.5198-7.8998,0-0.83985,5.4797,0,0,0.83985zm-0.58044,2.7002,0-0.84045,6.4001,0,0,0.84045zm0.67993,2.76,0-0.82031,5.3003,0,0,0.82031zm0,2.76,0-0.82031,5.3003,0,0,0.82031z"/>
    <path d="m365.26,604.4,0.96009-0.0598c0.14647,1.04,0.3664,2.0667,0.65979,3.0798,1.8135-0.2132,3.4336-0.45979,4.8602-0.73975l0.10009,0.81971c-1.4535,0.26694-3.027,0.50701-4.7205,0.72021,0.24006,0.7601,0.58003,1.6534,1.0199,2.68,1.547-0.17333,3.2672-0.43334,5.1605-0.78003l0.0995,0.83985c-1.5064,0.26653-3.1397,0.5066-4.8999,0.72021,0.74665,1.5601,1.6066,3.0001,2.58,4.3201l-1.0797,0.53955c-1.1735-0.61319-2.1269-1.0265-2.8601-1.2399-0.73325-0.21341-1.5399-0.32012-2.42-0.32013-2.4268,0.00001-3.6401,0.80018-3.6401,2.4005-0.00001,0.95988,0.45338,1.7032,1.3602,2.2299,0.90678,0.52674,2.2067,0.7901,3.8998,0.7901,1.2801,0,2.6868-0.12674,4.22-0.38024l0.12023,0.83984c-1.6268,0.26693-3.0735,0.40039-4.3402,0.40039-1.9865,0-3.5198-0.34007-4.5999-1.0202-1.0801-0.68014-1.6202-1.6269-1.6202-2.8403,0-0.38656,0.0634-0.75317,0.19013-1.0999,0.12674-0.34667,0.34677-0.68999,0.66009-1.03,0.31331-0.33997,0.78999-0.6133,1.4301-0.82001,0.64004-0.2067,1.4134-0.31005,2.3199-0.31006,1.5735,0.00001,3.1801,0.4067,4.82,1.2201l0.0201-0.0201c-0.7068-1.04-1.3735-2.22-2.0001-3.54-3.4265,0.37355-6.6665,0.56031-9.7198,0.5603v-0.83984c3.0001,0.00001,6.12-0.17333,9.3597-0.52002-0.43987-1.027-0.77984-1.9204-1.0199-2.68-2.5065,0.2531-4.8198,0.37965-6.9397,0.37964v-0.81971c2.1598,0.00002,4.3931-0.12002,6.6998-0.3601-0.27995-0.98672-0.5066-2.0268-0.67993-3.1201z"/>
    <path d="m386.42,616.56c-1.0531-0.48014-2.0197-0.72021-2.8998-0.72021-0.98674,0-1.7401,0.18341-2.2601,0.55023-0.52003,0.36683-0.78003,0.87677-0.78003,1.5298,0,0.72021,0.26336,1.2803,0.7901,1.6803,0.52673,0.39999,1.2768,0.59998,2.2501,0.59998,1.0535,0,1.8001-0.23671,2.24-0.71014,0.43985-0.47343,0.65978-1.2633,0.65979-2.3697zm-0.0195-0.93994c-0.0134-0.50658-0.0336-1.2933-0.0604-2.3602-0.013-0.12003-0.0229-0.30669-0.0296-0.55999-0.007-0.25329-0.0101-0.43996-0.0101-0.56-2.3466,0.16032-4.7201,0.24048-7.1204,0.24048v-0.84046c2.6001,0.00001,4.9668-0.0732,7.1002-0.21972-0.0265-1.3066-0.0397-2.3-0.0397-2.9804-2.7067,0.1469-5.3268,0.22035-7.8601,0.22034v-0.83985c2.8666,0.00001,5.4932-0.0734,7.8796-0.22033,0.0134-0.90657,0.0667-1.8998,0.15991-2.9797l0.94055,0.0201c-0.0936,1.0396-0.1471,2.0062-0.16052,2.8998,1.84-0.10659,3.7602-0.27993,5.7605-0.52002l0.0799,0.83985c-2.0003,0.22665-3.9472,0.39999-5.8404,0.52001-0.00001,1.32,0.007,2.3067,0.0201,2.9602,1.2667-0.0936,2.9134-0.2602,4.9402-0.49988l0.0799,0.83985c-1.6,0.19979-3.2666,0.36642-5,0.49987-0.00001,0.13347,0.003,0.33021,0.0101,0.59021,0.007,0.26002,0.0166,0.45655,0.0296,0.5896,0.0134,0.33367,0.0302,0.81045,0.0503,1.4304,0.0201,0.61992,0.0302,1.0698,0.0302,1.3498,1.3863,0.69337,3.1728,1.8801,5.3595,3.5602l-0.55969,0.70008c-1.9735-1.5336-3.5734-2.627-4.7998-3.28v0.1001c-0.00001,1.3863-0.30671,2.3895-0.9201,3.0096-0.61342,0.62012-1.6,0.93017-2.9599,0.93017-1.2537,0-2.2272-0.27669-2.9205-0.83007-0.69337-0.55339-1.04-1.3234-1.04-2.3102-0.00001-0.90658,0.35003-1.6199,1.0501-2.1399,0.70006-0.52001,1.6702-0.78002,2.9105-0.78003,0.90657,0.00001,1.8799,0.20672,2.9199,0.62012z"/>
    <path d="m400.78,605.26,0.97962,0c-0.00001,1.44-0.0598,3.1535-0.17945,5.1404-0.12004,1.9731-0.18006,3.5929-0.18005,4.8596-0.00001,3.3602,1.2398,5.0403,3.7195,5.0403,1.3737,0,2.6838-0.52674,3.9304-1.5802,1.2465-1.0535,2.3499-2.5869,3.3102-4.6002l0.85999,0.42053c-1.0002,2.1598-2.2002,3.8131-3.6002,4.9597s-2.9001,1.72-4.5004,1.72c-3.1331,0-4.6997-1.9867-4.6997-5.9601-0.00001-1.2398,0.06-2.8531,0.18005-4.8398,0.12003-1.9867,0.18005-3.7068,0.18005-5.1602z"/>
    <path d="m426.16,608.02c-0.0533,0.9599-0.0665,2.06-0.0397,3.3002,1.4799-0.0134,3.0464-0.18005,4.6997-0.49988l0.14038,0.83984c-1.5466,0.31983-3.1533,0.48646-4.82,0.49988-0.00001,0.21322,0.01,0.52654,0.0299,0.93994,0.0199,0.41342,0.0366,0.72022,0.05,0.92041,0.0264,0.57333,0.0531,1.46,0.0799,2.6599,1.1999,0.53305,2.8066,1.5796,4.82,3.1396l-0.52002,0.6604c-1.7468-1.3603-3.1734-2.3136-4.2798-2.8601v0.29969c-0.00001,1.1336-0.25005,1.9504-0.75012,2.4502-0.50009,0.49988-1.3167,0.74982-2.45,0.74982-1.0136,0-1.807-0.23336-2.3804-0.70007-0.57333-0.46672-0.85999-1.1066-0.85999-1.9196,0-0.76009,0.29002-1.3668,0.87006-1.8201,0.58003-0.45328,1.3701-0.67992,2.3703-0.67993,0.7731,0.00001,1.5198,0.11333,2.24,0.33997-0.0269-1.0136-0.0535-1.7804-0.08-2.3004-0.10702-2.5867-0.12045-4.6-0.0403-6.04zm-0.78003,9.1998c-0.71981-0.25309-1.453-0.37963-2.1997-0.37964-0.7601,0.00001-1.3501,0.1467-1.77,0.44007-0.41993,0.29338-0.62989,0.70007-0.62989,1.2201,0,0.58635,0.2066,1.0329,0.61982,1.3397,0.4132,0.30681,1.0066,0.46021,1.7801,0.46021,0.81338,0,1.3867-0.18006,1.72-0.54016,0.33324-0.36011,0.49986-0.97351,0.49987-1.8402-0.00001-0.0797-0.003-0.19633-0.0101-0.34974-0.007-0.15339-0.0101-0.27017-0.0101-0.35034z"/>
    <path d="m438.84,611.72,2.42-0.54017c3.2267-0.70637,5.38-1.0596,6.46-1.0596,1.3867,0.00001,2.4534,0.33662,3.2001,1.0098,0.74665,0.67323,1.12,1.6367,1.12,2.8903-0.00002,1.5999-0.88004,3.0832-2.6401,4.4498s-3.9666,2.2431-6.6196,2.6297l-0.16053-0.85999c2.4402-0.37313,4.457-1.153,6.0504-2.3398,1.5934-1.1867,2.3901-2.46,2.3901-3.8199-0.00001-2.0532-1.1735-3.0798-3.5205-3.0798-0.93304,0.00001-2.8864,0.33998-5.86,1.0199-0.0399,0.0134-0.26652,0.0634-0.67993,0.14984-0.41342,0.0865-0.82337,0.1764-1.2299,0.26978-0.4065,0.0934-0.64982,0.14679-0.72998,0.16021zm3.0005-6.6602c2.5997,0.78696,5.2063,1.287,7.8198,1.5002l-0.12024,0.85999c-2.6131-0.2132-5.2531-0.71308-7.9199-1.4996z"/>
    <path d="m457.95,620.89c-0.5664-0.56682-0.84961-1.2569-0.84961-2.0703,0-0.81339,0.28331-1.5068,0.84992-2.0801,0.56661-0.57332,1.2566-0.85998,2.07-0.85999,0.81339,0.00001,1.5067,0.28667,2.0801,0.85999,0.57332,0.57332,0.85998,1.2667,0.85999,2.0801-0.00001,0.8134-0.28667,1.5034-0.85999,2.07-0.57333,0.56661-1.2667,0.84991-2.0801,0.84992-0.8134-0.00001-1.5035-0.28321-2.0703-0.84961zm0.57007-3.5803c-0.41341,0.41992-0.62012,0.92326-0.62012,1.51,0,0.58676,0.20671,1.0867,0.62012,1.4999,0.41341,0.41321,0.91339,0.61981,1.4999,0.61982,0.58654-0.00001,1.0899-0.20661,1.51-0.61982,0.42012-0.4132,0.63018-0.91318,0.63019-1.4999-0.00001-0.58674-0.21007-1.0901-0.63019-1.51-0.42013-0.41992-0.92347-0.62988-1.51-0.62989-0.58655,0.00001-1.0865,0.20997-1.4999,0.62989z"/>
    <path d="m40.56,642.18,0,2.7802,10.24,0,0-2.7802zm0-0.80017,10.24,0,0-2.6398-10.24,0zm6.9604-5.8398c0.81338-1.1332,1.4667-2.3865,1.9598-3.7598h-7.6398c0.65307,1.1467,1.2797,2.3999,1.8799,3.7598zm-7.9401,2.3798,12.2,0,0,8.7604-0.97962,0,0-0.90027-10.24,0,0,0.90027-0.97961,0zm-2.6202-1.56,0-0.81971,5.7202,0c-0.57333-1.3065-1.2134-2.5598-1.9202-3.7598h-3.2202v-0.82031h7.6404v-2.0398h0.97961v2.0398h7.6605v0.82031h-3.3405c-0.46673,1.3998-1.0799,2.653-1.8396,3.7598h5.7599v0.81971z"/>
    <path d="m65.2,636.52-5.2405,0,0,2.5995c-0.000004,0.52002-0.0065,0.90678-0.01953,1.1603h5.26zm0.93994,0,0,3.7598,5.4199,0,0-3.7598zm-6.2799,4.5795c-0.22706,2.1602-0.94056,3.9536-2.1405,5.3802l-0.73975-0.57983c1.3599-1.6667,2.0398-4.02,2.0398-7.0599v-3.1h13.48v6.4996h-0.93994v-1.1401zm14.5-10.34,0,0.82031-8.2001,0,0,1.8799,7.0801,0,0,0.80017-15.16,0,0-0.80017,7.1002,0,0-1.8799-8.2001,0,0-0.82031,8.2001,0,0-1.4996,0.97961,0,0,1.4996z"/>
    <path d="m78.5,646.04,0,0.90027-0.88013,0,0-5.8203,5.5005,0,0,4.92zm0-0.83984,3.7604,0,0-3.2599-3.7604,0zm6.3403-12.68,0.39978-0.72021c0.83983,0.36012,1.6931,0.79347,2.5598,1.3,0.28034-0.74665,0.4604-1.4333,0.54016-2.0599h-4.0802v-0.85998h9.8004c-0.000018,2.7999-0.17,4.7932-0.50995,5.9799-0.33998,1.1867-0.87679,1.7801-1.6104,1.7801-0.54648,0-1.2665-0.0667-2.16-0.2002v-0.85998c0.80036,0.12004,1.4404,0.18006,1.9202,0.18005,0.91999,0.00001,1.3934-2.0066,1.4203-6.0199h-3.8202c-0.10662,0.79998-0.33998,1.6467-0.70007,2.5403,0.84024,0.52003,1.7403,1.1399,2.7002,1.8597l-0.54016,0.70007c-0.92002-0.69335-1.7601-1.2866-2.5201-1.7798-1.0132,1.9731-2.5065,3.4398-4.48,4.4l-0.39978-0.82031c1.84-0.86669,3.2133-2.22,4.1199-4.0601-0.85328-0.50658-1.7332-0.95987-2.6398-1.3599zm-1.5601,12.68c0.69335-1.4669,1.2266-3.1868,1.5997-5.1599l0.84045,0.19958c-0.36012,2.0134-0.90679,3.7933-1.64,5.34zm9.4202-2.2998c-0.06675,1.0934-0.15678,1.8667-0.27008,2.32-0.11334,0.45329-0.27335,0.76324-0.48004,0.92987-0.20672,0.16662-0.56337,0.26988-1.0699,0.30975-0.27996,0.0269-0.77333,0.0403-1.4801,0.0403-0.4533-0.00001-0.94667-0.0134-1.4801-0.0403-0.5066-0.0399-0.82989-0.1532-0.96985-0.33996-0.13998-0.18677-0.20997-0.59998-0.20996-1.2396v-5.4205h0.96008v5.1605c-0.000012,0.46631,0.02664,0.74951,0.07996,0.84961,0.05329,0.1001,0.22663,0.15686,0.52002,0.17029,0.42642,0.0264,0.81298,0.0397,1.1597,0.0397,0.34666,0,0.73342-0.0132,1.1603-0.0397,0.33324-0.0269,0.55988-0.0936,0.67993-0.20019,0.12002-0.10661,0.22002-0.34323,0.29999-0.70984,0.07994-0.36662,0.15328-1.0099,0.22003-1.9299zm-5.2405-4.7003,0.52002-0.64026c1.2536,0.92001,2.3871,1.9334,3.4003,3.0402l-0.57983,0.59997c-1.0934-1.1601-2.2068-2.16-3.3405-2.9999zm4.7003,2.0203,0.83984-0.32044c0.73322,1.6536,1.3733,3.4005,1.9202,5.2405l-0.85998,0.27954c-0.58677-1.9731-1.2201-3.7062-1.9-5.1996zm-14.54-9.2602,0-0.83985,5.4803,0,0,0.83985zm-0.57983,2.7002,0-0.84045,6.5802,0,0,0.84045zm0.67993,2.76,0-0.82031,5.3003,0,0,0.82031zm0,2.76,0-0.82031,5.3003,0,0,0.82031z"/>
    <path d="m98.04,646.04,0,0.90027-0.88013,0,0-5.8203,4.6399,0,0,4.92zm0-0.83984,2.9401,0,0-3.2599-2.9401,0zm8.7-9.7998c0.38654-0.98672,0.70657-2.1468,0.96008-3.4802h-3.4204c0.37353,1.2533,0.68684,2.4133,0.93994,3.4802zm-2.6599,6.1395,0,2.58,3.8995,0,0-2.58zm0-0.75989,3.8995,0,0-2.42-3.8995,0zm-6.9202-9.8199,0-0.83985,4.6399,0,0,0.83985zm-0.30029,2.7002,0-0.84045,5.2002,0,0,0.84045zm0.40039,2.76,0-0.82031,4.4598,0,0,0.82031zm0,2.76,0-0.82031,4.4598,0,0,0.82031zm12.74-9.9603,0.9198,0c-0.00002,2.24,0.0734,4.3002,0.22033,6.1804h3.4601v0.81971h-3.3801c0.17332,1.8266,0.39997,3.4666,0.67993,4.92,0.66649-1.1466,1.2199-2.5401,1.6602-4.1803l0.78003,0.32044c-0.58677,2.0801-1.3135,3.7667-2.1802,5.0598,0.1599,0.66651,0.32652,1.2464,0.49988,1.7398,0.17332,0.49337,0.32337,0.85012,0.45013,1.0702,0.12673,0.22013,0.22999,0.34342,0.30976,0.36987,0.36008,0,0.64003-1.3133,0.83984-3.9398l0.78003,0.23987c-0.0932,1.2533-0.22646,2.2432-0.39978,2.97-0.17336,0.72673-0.3467,1.2-0.52002,1.42-0.17336,0.21993-0.38006,0.3299-0.62012,0.3299-0.31984,0-0.65981-0.26998-1.0199-0.80994-0.36012-0.53996-0.70009-1.3499-1.0199-2.4298-1.0132,1.2533-2.3666,2.3598-4.0601,3.3197l-0.49988-0.67993c0.50658-0.29337,1.0266-0.62662,1.5601-0.99975h-4.3799v1.12h-0.92041v-8.54h5.7202v7.1002c0.90656-0.70678,1.6732-1.5002,2.2998-2.3804-0.38658-1.5466-0.68646-3.5532-0.89966-6.0199h-7.9804v-0.81971h2.0203c-0.33326-1.4136-0.64657-2.5736-0.93994-3.4802h-1.04v-0.83984h3.1799v-1.9604h0.93994v1.9604h3.1201v0.83984h-1.0199c-0.24009,1.32-0.54018,2.4801-0.90027,3.4802h2.5598c-0.1465-1.9067-0.21974-3.9669-0.21972-6.1804zm3.7799,5.0403c-0.64007-1.1999-1.3601-2.3732-2.16-3.5199l0.72021-0.46021c0.70637,0.98675,1.4329,2.18,2.1796,3.5797z"/>
    <path d="m129.34,635.44c-0.10703,0.94686-0.12046,2.5669-0.0403,4.8602l0.0201,0.10009c-0.00001,0.0663-0.00001,0.14954,0,0.24964-0.00001,0.1001-0.00001,0.19674,0,0.28991,1.0132,0.57333,2.3798,1.5934,4.0997,3.0603l-0.57984,0.67993c-1.4266-1.2-2.5932-2.0933-3.4998-2.6801v0.41993c-0.00002,1.2801-0.28342,2.2068-0.85022,2.7802-0.56683,0.57332-1.4836,0.85998-2.7502,0.85998-1.2264,0-2.193-0.28005-2.8998-0.84015-0.70679-0.5601-1.0602-1.3333-1.0602-2.3196,0-0.89355,0.36-1.617,1.08-2.1704,0.72-0.55338,1.68-0.83007,2.8799-0.83008,0.88012,0.00001,1.7468,0.18678,2.6001,0.56031v-0.14038c-0.0798-2.3197-0.0598-3.9596,0.0598-4.9194zm-1.04-2.2797,0.23987-0.86059c1.9865,0.44028,3.8464,1.0537,5.5798,1.8402l-0.33997,0.83984c-1.7867-0.79996-3.6133-1.4064-5.4797-1.8195zm0.0799,8.2794c-0.90699-0.45328-1.7936-0.67993-2.6599-0.67993-0.89356,0-1.6137,0.19674-2.1603,0.59021-0.54668,0.39348-0.82001,0.91024-0.82001,1.5503,0,0.71981,0.26336,1.2831,0.7901,1.6898,0.52673,0.4067,1.2568,0.61005,2.1902,0.61005,0.98632,0,1.6795-0.20671,2.0795-0.62012,0.39997-0.41341,0.59996-1.1334,0.59997-2.16-0.00001-0.33325-0.007-0.65999-0.0195-0.98023zm-7.2205-8.5797c0.2535-0.91999,0.52694-2.0534,0.82032-3.4003l0.9198,0.14038c-0.1998,0.98675-0.45981,2.0467-0.78003,3.1799,1.2268-0.0932,2.4868-0.23314,3.7799-0.41992l0.0604,0.85999c-1.3468,0.18678-2.7069,0.33346-4.0802,0.44006-0.89315,3.0664-2.1198,6.3263-3.6798,9.7797l-0.88013-0.31982c1.5601-3.4798,2.7533-6.6064,3.5797-9.3799-0.97332,0.0533-2.0667,0.08-3.28,0.0799v-0.85998c1.3737,0.00001,2.5537-0.0334,3.54-0.1001z"/>
    <path d="m147.34,644.76c1.6134-0.25349,2.92-0.99019,3.92-2.2101,0.99994-1.2199,1.4999-2.6831,1.4999-4.3896-0.00002-1.6801-0.58667-3.0469-1.76-4.1003s-2.6934-1.5802-4.5602-1.5802h-0.19959c-0.50701,3.9201-1.2238,6.8968-2.1503,8.93-0.92652,2.0333-1.9965,3.0499-3.2098,3.0499-0.79997,0-1.54-0.50659-2.2202-1.5198-0.68014-1.0132-1.0202-2.2198-1.0202-3.62,0-2.2799,0.81339-4.1364,2.4402-5.5698,1.6268-1.4333,3.7467-2.15,6.3599-2.15,2.1468,0.00002,3.8969,0.60996,5.2502,1.8298,1.3533,1.2199,2.03,2.7965,2.03,4.7299-0.00002,1.9334-0.57009,3.5901-1.7102,4.9701-1.1402,1.38-2.6235,2.21-4.4501,2.4899zm-2.0801-12.22c-2.0134,0.22665-3.6301,0.94992-4.8502,2.1698s-1.8301,2.7498-1.8301,4.5898c0,1.1869,0.25665,2.1837,0.76996,2.9904,0.5133,0.80668,1.03,1.21,1.55,1.21,0.22704,0,0.46721-0.0801,0.72051-0.24018,0.25329-0.16011,0.54657-0.48014,0.87983-0.96008,0.33324-0.47993,0.65652-1.1066,0.96985-1.8799,0.3133-0.77331,0.62997-1.84,0.95001-3.2001,0.32002-1.3601,0.60007-2.92,0.84015-4.6799z"/>
    <path d="m157.38,632.4c4.5736,0.00001,9.6936-0.39326,15.36-1.1798l0.10009,0.90026c-2.8402,0.38657-5.1102,1.2398-6.81,2.5598s-2.5498,2.8599-2.5498,4.6198c0,1.6402,0.5899,2.9436,1.7697,3.9102,1.1798,0.96659,2.863,1.5433,5.0497,1.73l-0.0995,0.9198c-2.4268-0.18677-4.3202-0.85012-5.6802-1.99-1.3601-1.1399-2.0401-2.6299-2.0401-4.4699-0.00001-1.4534,0.47667-2.7702,1.43-3.9502,0.95336-1.18,2.31-2.1165,4.0698-2.8094l-0.0195-0.0403c-3.7602,0.48016-7.287,0.72023-10.58,0.72022zm11.8,3.0603,0.76049-0.44007c0.58633,0.90659,1.2329,2.0132,1.9397,3.3197l-0.78003,0.38025c-0.64007-1.2-1.2801-2.2866-1.9202-3.2599zm2.6404-0.80017,0.78003-0.44007c0.76007,1.1735,1.4268,2.3002,2.0001,3.3801l-0.78003,0.39978c-0.70681-1.2797-1.3735-2.393-2.0001-3.3398z"/>
    <path d="m181.84,645.64-0.80017,0.63965c-1.2935-1.5198-2.6402-2.9264-4.0399-4.22l0.73975-0.70007c1.4001,1.2935,2.7669,2.7203,4.1003,4.2804z"/>
    <path d="m198.6,646.04,0,0.90027-0.89966,0,0-5.8203,6.0596,0,0,4.92zm0-0.83984,4.2798,0,0-3.2599-4.2798,0zm15.08-15.42,0.22033,0.83984c-1.2801,0.38657-2.5936,0.69988-3.9404,0.93994v3.4399h4.4403v0.83985h-4.4403v3.0603h3.8605v7.76h-0.96008v-1.0999h-6.7804v1.0999h-0.9198v-7.76h3.8599v-3.0603h-4.5801v-0.83985h4.5801v-3.28c-1.2398,0.18678-2.6198,0.33347-4.14,0.44007l-0.0598-0.83985c3.0798-0.20018,6.0331-0.71348,8.8599-1.5399zm-0.8197,14.98,0-5.0598-6.7804,0,0,5.0598zm-15.16-13.8,0-0.83985,6.04,0,0,0.83985zm-0.58044,2.7002,0-0.85998,7.0599,0,0,0.85998zm0.67993,2.76,0-0.82031,5.86,0,0,0.82031zm0,2.76,0-0.82031,5.86,0,0,0.82031z"/>
    <path d="m223.13,636.36c-0.52654,0.53305-0.7898,1.1663-0.78979,1.8997-0.00001,0.73344,0.26325,1.3668,0.78979,1.9,0.52652,0.53325,1.1631,0.79987,1.9098,0.79987,0.74665,0,1.3834-0.26662,1.9101-0.79987,0.52672-0.53324,0.79008-1.1667,0.7901-1.9003-0.00002-0.81298-0.24995-1.4662-0.74982-1.9595-0.49989-0.49336-1.15-0.74004-1.9504-0.74005-0.74667,0.00001-1.3833,0.26673-1.9098,0.80017zm-1.7499,1.8799c0-1.0136,0.33661-1.857,1.0098-2.5302,0.67321-0.67321,1.5233-1.0098,2.5504-1.0098,1.0396,0.00001,1.9328,0.31332,2.6794,0.93994h0.0403c-0.0134-0.54686-0.0401-1.2868-0.08-2.2198-0.00001-0.0403-0.003-0.0937-0.0101-0.16021-0.007-0.0665-0.0101-0.11993-0.0101-0.16022-3.9201,0.17335-7.36,0.26002-10.32,0.26001v-0.85999c3.2532,0.00002,6.6864-0.0799,10.3-0.23987-0.0399-0.97329-0.0598-1.96-0.0598-2.9602h0.93994c-0.00001,1.2936,0.0134,2.2669,0.0403,2.9199,1.8799-0.0932,3.7598-0.20649,5.6396-0.33996l0.0604,0.84045c-1.9202,0.13307-3.807,0.24639-5.6604,0.33997-0.00001,0.0533,0.003,0.13327,0.0101,0.23986,0.007,0.10662,0.0101,0.18658,0.0101,0.23987,0.0533,1.7599,0.0799,3.0798,0.0799,3.96,0.2132,0.72022,0.31981,1.5603,0.31983,2.5201-0.00002,1.7334-0.55666,3.1601-1.6699,4.2801-1.1133,1.12-2.6965,1.8267-4.7498,2.1201l-0.15991-0.92041c3.28-0.45329,5.1265-1.9466,5.5396-4.48,0.0268-0.15991,0.0537-0.3599,0.0806-0.59998h-0.0403c-0.74667,0.93344-1.7399,1.4002-2.9797,1.4002-1.04,0-1.8934-0.33996-2.5601-1.0199-0.66671-0.67992-1.0001-1.5332-1.0001-2.5598z"/>
    <path d="m252.92,644.4,0.12024,0.85998c-1.5466,0.29338-2.8868,0.44006-4.0204,0.44006-3.2931,0-4.9396-0.81339-4.9396-2.4402-0.00001-1.1332,0.9265-2.4131,2.7795-3.8397l0.62012,0.62012c-1.6398,1.2797-2.4597,2.333-2.4597,3.1598-0.00001,1.0799,1.3332,1.6199,3.9996,1.6199,1.0933,0,2.3934-0.13998,3.9002-0.41992zm-3.5602-14.88,0.72021-0.40039c0.45328,0.7068,1.04,1.707,1.7603,3.0005l-0.72022,0.37964c-0.55991-1.04-1.1467-2.0333-1.7602-2.9797zm2.5604-0.36011,0.73975-0.39978c0.7202,1.1597,1.3202,2.1796,1.7999,3.0597l-0.73975,0.38025c-0.58677-1.0669-1.1867-2.0803-1.7999-3.0402zm-6.8005,7.4402c2.5602-0.52001,4.9937-0.78002,7.3004-0.78002v0.87951c-2.3202,0.00001-4.7136,0.25351-7.1802,0.7605zm-2.32-3.5205c2.0935-0.1599,4.1469-0.39977,6.1603-0.71961l0.12024,0.85999c-2.0134,0.31983-4.1801,0.56642-6.5002,0.73974-0.97332,3.9067-2.3399,8.08-4.0997,12.52l-0.88012-0.28015c1.7065-4.3066,3.0398-8.36,3.9996-12.16-1.4266,0.0936-2.6866,0.1469-3.7799,0.15991v-0.87951c1.5466-0.0268,2.88-0.0802,4.0002-0.15992,0.31982-1.2536,0.59976-2.4872,0.83984-3.7006l0.9198,0.12024c-0.22665,1.1601-0.48666,2.3267-0.78003,3.4998z"/>
    <path d="m260.48,630.56c-0.66651,2.4801-0.99976,5.0134-0.99976,7.6001s0.33325,5.1198,0.99976,7.5995l-0.96009,0.14038c-0.6665-2.4801-0.99976-5.0601-0.99975-7.7402-0.00001-2.68,0.33325-5.2601,0.99975-7.7402zm9.0399-0.64026,0.94055,0c-0.00001,0.94687,0.0399,2.2868,0.11963,4.0198-0.00001,0.0134,0.003,0.0468,0.0101,0.1001,0.007,0.0533,0.0101,0.0867,0.0101,0.1001,0.83983-0.0667,1.9598-0.18004,3.36-0.33997l0.0799,0.85999c-1.3733,0.15992-2.5067,0.27324-3.4003,0.33996,0.0403,0.88014,0.0604,1.7536,0.0604,2.6202-0.00001,2.6933-0.35005,4.62-1.0501,5.78-0.70008,1.1601-2.1034,2.1134-4.2099,2.8601l-0.40039-0.84046c0.77351-0.27994,1.407-0.55328,1.9003-0.82,0.49336-0.26673,0.93667-0.59001,1.33-0.96985,0.39325-0.37984,0.68653-0.8431,0.87982-1.3898,0.19326-0.54667,0.33995-1.1867,0.44006-1.9202,0.10009-0.73343,0.15013-1.6334,0.15015-2.6999-0.00002-0.84024-0.0199-1.687-0.0598-2.5403-2.0003,0.1469-4.2538,0.22035-6.7602,0.22034v-0.88013c2.48,0.00001,4.72-0.0734,6.72-0.22034v-0.27954c-0.0802-1.7334-0.12025-3.0668-0.12024-4.0002z"/>
    <path d="m277.38,632.4c4.5736,0.00001,9.6936-0.39326,15.36-1.1798l0.1001,0.90026c-2.8402,0.38657-5.1102,1.2398-6.81,2.5598s-2.5498,2.8599-2.5497,4.6198c-0.00001,1.6402,0.58989,2.9436,1.7697,3.9102,1.1798,0.96659,2.863,1.5433,5.0498,1.73l-0.0995,0.9198c-2.4268-0.18677-4.3202-0.85012-5.6802-1.99-1.3601-1.1399-2.0401-2.6299-2.0401-4.4699,0-1.4534,0.47668-2.7702,1.4301-3.9502,0.95336-1.18,2.31-2.1165,4.0698-2.8094l-0.0195-0.0403c-3.7602,0.48016-7.287,0.72023-10.58,0.72022zm11.8,3.0603,0.7605-0.44007c0.58633,0.90659,1.2329,2.0132,1.9397,3.3197l-0.78003,0.38025c-0.64007-1.2-1.2801-2.2866-1.9202-3.2599zm2.6404-0.80017,0.78003-0.44007c0.76007,1.1735,1.4268,2.3002,2.0001,3.3801l-0.78003,0.39978c-0.7068-1.2797-1.3735-2.393-2.0001-3.3398z"/>
    <path d="m300.38,645.14,10.601,0,0-4.0204-10.601,0zm0,0.79956,0,0.90027-0.97961,0,0-6.5399,12.56,0,0,6.5399-0.97961,0,0-0.90027zm-3.5797-11.64c0.73323-0.70637,1.3833-1.5196,1.9501-2.4396,0.56681-0.91998,0.98348-1.8335,1.25-2.7405l0.88013,0.22033c-0.1469,0.52004-0.36031,1.0799-0.64026,1.6797h5.4804v0.84045h-3.9002c0.22664,0.54649,0.58654,1.4531,1.0797,2.7197l-0.85998,0.31983c-0.45329-1.1731-0.85999-2.1863-1.2201-3.0396h-1.0199c-0.65308,1.1467-1.4463,2.1666-2.3798,3.0597zm7.8003-1.0998c0.85326-0.57331,1.6199-1.2233,2.2998-1.9501,0.67992-0.72671,1.1932-1.4433,1.5399-2.1496l0.85999,0.26c-0.25351,0.53306-0.60691,1.0862-1.0602,1.6596h6.12v0.84045h-4.14c0.36009,0.81301,0.73342,1.7395,1.12,2.7796l-0.85998,0.32043c-0.38657-1.0002-0.80649-2.0335-1.2598-3.1h-1.6803c-0.71982,0.7597-1.5131,1.4262-2.3798,1.9995zm1.6998,0.96008c2.36,1.7468,5.0401,3.2802,8.0402,4.6002l-0.3601,0.85998c-3.1067-1.3867-5.8734-3.0068-8.3002-4.8602-2.4268,1.8534-5.1935,3.4735-8.3002,4.8602l-0.36011-0.85998c3.0001-1.32,5.6801-2.8534,8.0402-4.6002zm-5.1202,4.5599,0-0.81971,9.0002,0,0,0.81971z"/>
    <path d="m321.84,629.86c2.5997,0.78656,5.2063,1.2864,7.8198,1.4996l-0.12024,0.85998c-2.6131-0.2132-5.2531-0.71308-7.9199-1.4996zm-1.9202,4.8999c3.2532,0.00002,6.7464-0.25999,10.48-0.78002l0.22034,0.96008c-0.78696,0.74667-1.8271,1.7033-3.1204,2.8699-1.2934,1.1666-2.2598,2.05-2.8995,2.6502l0.0195,0.0397c0.62662-0.38655,1.2734-0.57983,1.9403-0.57983,0.65307,0,1.1364,0.18667,1.4499,0.55999,0.31351,0.37334,0.52357,1.0666,0.63019,2.0798,0.0932,1.027,0.28309,1.6871,0.56976,1.9803,0.28665,0.29317,0.87676,0.43976,1.7703,0.43976,0.78652,0,1.6732-0.12655,2.6599-0.37964l0.13977,0.88013c-1.0266,0.26652-2.0066,0.39978-2.9401,0.39978-1.0934,0-1.8466-0.19338-2.2598-0.58014-0.41322-0.38676-0.67984-1.1535-0.79987-2.3001-0.0936-0.93302-0.24374-1.5362-0.45043-1.8097-0.20672-0.27344-0.55666-0.41015-1.0498-0.41016-1.3066,0.00001-3.8932,1.6933-7.76,5.08l-0.55969-0.67993c3.9998-3.5067,7.7598-6.8933,11.28-10.16l-0.0202-0.0403c-3.2267,0.45371-6.3267,0.68055-9.2999,0.68054z"/>
    <path d="m348.84,630.32,0.78003-0.41992c0.54686,0.84026,1.1869,1.9403,1.9202,3.3002l-0.78003,0.39978c-0.67995-1.2797-1.32-2.373-1.9202-3.28zm2.6404-0.79956,0.78002-0.44007c0.75967,1.1731,1.4262,2.2998,1.9995,3.3801l-0.77942,0.39978c-0.70681-1.2801-1.3735-2.3934-2.0001-3.3398zm-0.93995,5.86,0.83985-0.40039c1.4132,2.5204,2.6064,4.9337,3.5797,7.24l-0.85999,0.33997c-1.0132-2.3865-2.1997-4.7797-3.5596-7.1796zm-7.76-6.0602,0.93994,0.08c-0.1469,1.5202-0.35361,2.9602-0.62012,4.3201,0.9733-0.0667,1.7132-0.10009,2.2198-0.1001,0.52001,0.00001,0.94003,0.0167,1.2601,0.05,0.32001,0.0334,0.61339,0.10672,0.88013,0.22003,0.26671,0.11333,0.4667,0.25005,0.59997,0.41015,0.13325,0.16013,0.24657,0.40346,0.33997,0.72999,0.0934,0.32654,0.15339,0.68645,0.18005,1.0797,0.0266,0.39328,0.04,0.90994,0.04,1.55-0.00001,2.4402-0.38331,4.4169-1.1499,5.9302-0.76662,1.5133-1.6433,2.2699-2.63,2.2699-0.79997,0-1.7867-0.53325-2.9602-1.5997l0.49987-0.75989c1.0136,0.94645,1.8337,1.4197,2.4603,1.4197,0.67992,0,1.3199-0.66997,1.9199-2.0099,0.59997-1.3399,0.89995-3.1366,0.89997-5.39-0.00002-0.50658-0.007-0.90992-0.0202-1.21-0.0134-0.30008-0.0568-0.57677-0.13-0.83008-0.0733-0.25328-0.15321-0.43323-0.23987-0.53985-0.0867-0.1066-0.23001-0.19988-0.42999-0.27985-0.2-0.0799-0.40997-0.12663-0.62988-0.14007-0.21994-0.0134-0.52339-0.0201-0.91034-0.0202-0.52003,0.00002-1.3133,0.0334-2.3798,0.1001-0.85328,3.9201-2.2599,7.7067-4.22,11.36l-0.83985-0.38024c1.8933-3.5466,3.2532-7.1865,4.0796-10.92-1.2667,0.10662-2.6266,0.24659-4.0796,0.41992l-0.0604-0.85999c1.9067-0.2132,3.3468-0.35989,4.3201-0.44006,0.3068-1.4665,0.52693-2.9531,0.66041-4.4598z"/>
    <path d="m361.24,633.46-0.64026,0.57983c-1.0266-1.1865-2.0933-2.3197-3.2001-3.3997l0.65979-0.58044c1.1336,1.1336,2.1938,2.2671,3.1805,3.4003zm-4.2401,3.4003,3.8196,0,0,6.0596c0.54687,0.98674,1.3103,1.6634,2.2903,2.03,0.98001,0.36662,2.59,0.54993,4.83,0.54993h6.2799l-0.0403,0.84045h-6.2799c-2.1867,0-3.8333-0.18341-4.9399-0.55023s-1.9532-1.0102-2.54-1.9302c-0.7601,0.94685-1.8001,1.887-3.1201,2.8204l-0.4596-0.78003c1.2797-0.89355,2.2929-1.8068,3.0396-2.7399v-5.4401h-2.8796zm16.64-6.6803,0,0.83984-9.7003,0,0,2.8601,8.9398,0,0,0.82031c-0.79998,2.3067-1.9531,4.2334-3.4595,5.78,1.2797,1.1332,2.8597,2.0664,4.74,2.7997l-0.38025,0.80017c-1.9999-0.77351-3.6733-1.767-5.0201-2.9803-1.3867,1.2537-3.02,2.2471-4.8999,2.9803l-0.44007-0.80017c1.8001-0.6665,3.3602-1.5997,4.6802-2.7997-1.2533-1.2935-2.2599-2.8536-3.02-4.6802l0.8197-0.38025c0.73363,1.7468,1.6805,3.2202,2.8406,4.4202,1.4266-1.4665,2.4866-3.1797,3.1799-5.1398h-7.9804v0.63965c-0.00001,3.2666-0.56661,5.9932-1.6998,8.1799l-0.85998-0.4596c1.0799-2.1069,1.6199-4.8069,1.6199-8.1v-4.7803z"/>
    <path d="m379.3,636.66c0.69336-0.14688,1.4734-0.34016,2.3401-0.57984,2.1867-0.57331,3.9134-0.85997,5.18-0.85998,1.6264,0.00001,2.8862,0.34333,3.7796,1.03,0.89334,0.68665,1.34,1.6432,1.34,2.8696-0.00002,1.7867-0.72664,3.1734-2.1799,4.1602-1.4533,0.98674-3.7265,1.6268-6.8198,1.9202l-0.12024-0.9198c2.8536-0.2535,4.9237-0.79356,6.2103-1.6202,1.2866-0.82662,1.9299-1.9933,1.9299-3.5001-0.00002-0.9733-0.36002-1.7233-1.08-2.2501-0.72003-0.52673-1.7602-0.79009-3.1204-0.7901-1.213,0.00001-2.8729,0.28667-4.9799,0.85998-0.98674,0.26694-1.7533,0.46022-2.2998,0.57984z"/>
    <path d="m397.98,632.6c4.5736,0.00001,9.6936-0.39326,15.36-1.1798l0.10009,0.89966c-2.8268,0.38697-5.0934,1.2304-6.7999,2.5302-1.7066,1.2999-2.5598,2.7831-2.5598,4.4498,0,1.5466,0.59326,2.7966,1.7798,3.75,1.1865,0.95337,2.8664,1.5167,5.0397,1.6901l-0.0995,0.92041c-2.4133-0.18677-4.3034-0.83679-5.6702-1.9501s-2.0502-2.55-2.0502-4.3103c-0.00001-1.3599,0.47667-2.6198,1.43-3.7799,0.95336-1.1601,2.31-2.0868,4.0698-2.7802l-0.0195-0.0397c-3.7602,0.47974-7.287,0.71961-10.58,0.7196z"/>
    <path d="m425.26,629.4,0.96009-0.0598c0.14647,1.0401,0.3664,2.0667,0.65979,3.0798,1.8135-0.21321,3.4336-0.45979,4.8602-0.73975l0.10009,0.8197c-1.4535,0.26694-3.027,0.50701-4.7205,0.72022,0.24006,0.7601,0.58003,1.6534,1.0199,2.68,1.547-0.17333,3.2672-0.43334,5.1605-0.78003l0.0995,0.83985c-1.5064,0.26652-3.1397,0.5066-4.8999,0.72021,0.74665,1.5601,1.6066,3.0001,2.58,4.3201l-1.0797,0.53955c-1.1735-0.6132-2.1269-1.0265-2.8601-1.2399-0.73325-0.21341-1.5399-0.32012-2.42-0.32013-2.4268,0.00001-3.6401,0.80018-3.6401,2.4005-0.00001,0.95988,0.45338,1.7032,1.3602,2.2299,0.90678,0.52674,2.2067,0.7901,3.8998,0.7901,1.2801,0,2.6868-0.12675,4.22-0.38025l0.12023,0.83985c-1.6268,0.26692-3.0735,0.40039-4.3402,0.40039-1.9865,0-3.5198-0.34007-4.5999-1.0202-1.0801-0.68014-1.6202-1.6269-1.6202-2.8403,0-0.38655,0.0634-0.75317,0.19013-1.0998,0.12674-0.34667,0.34677-0.69,0.66009-1.03,0.31331-0.33996,0.78999-0.61329,1.4301-0.82,0.64004-0.2067,1.4134-0.31006,2.3199-0.31006,1.5735,0,3.1801,0.4067,4.82,1.2201l0.0201-0.0201c-0.7068-1.04-1.3735-2.22-2.0001-3.54-3.4265,0.37354-6.6665,0.56031-9.7198,0.5603v-0.83984c3.0001,0.00001,6.12-0.17333,9.3597-0.52002-0.43987-1.027-0.77984-1.9204-1.0199-2.68-2.5065,0.2531-4.8198,0.37965-6.9397,0.37963v-0.8197c2.1598,0.00001,4.3931-0.12002,6.6998-0.36011-0.27995-0.98672-0.5066-2.0268-0.67993-3.1201z"/>
    <path d="m446.42,641.56c-1.0531-0.48014-2.0197-0.72021-2.8998-0.72021-0.98674,0-1.7401,0.18341-2.2601,0.55023-0.52003,0.36682-0.78003,0.87677-0.78003,1.5298,0,0.72022,0.26336,1.2803,0.7901,1.6803,0.52673,0.39999,1.2768,0.59998,2.2501,0.59998,1.0535,0,1.8001-0.23672,2.24-0.71015,0.43985-0.47342,0.65978-1.2633,0.65979-2.3697zm-0.0195-0.93994c-0.0134-0.50659-0.0336-1.2933-0.0604-2.3602-0.013-0.12003-0.0229-0.30669-0.0296-0.56-0.007-0.25329-0.0101-0.43995-0.0101-0.55999-2.3466,0.16032-4.7201,0.24048-7.1204,0.24047v-0.84045c2.6001,0.00001,4.9668-0.0732,7.1002-0.21973-0.0265-1.3066-0.0397-2.3-0.0397-2.9803-2.7067,0.1469-5.3268,0.22035-7.8601,0.22033v-0.83984c2.8666,0.00001,5.4932-0.0734,7.8796-0.22034,0.0134-0.90656,0.0667-1.8998,0.15991-2.9797l0.94055,0.0201c-0.0936,1.0396-0.1471,2.0062-0.16052,2.8998,1.84-0.1066,3.7602-0.27994,5.7605-0.52002l0.0799,0.83984c-2.0003,0.22666-3.9472,0.4-5.8404,0.52002-0.00001,1.32,0.007,2.3067,0.0201,2.9602,1.2667-0.0936,2.9134-0.26021,4.9402-0.49988l0.0799,0.83984c-1.6,0.1998-3.2666,0.36643-5,0.49988-0.00001,0.13347,0.003,0.33021,0.0101,0.59021,0.007,0.26002,0.0166,0.45655,0.0296,0.5896,0.0134,0.33367,0.0302,0.81045,0.0503,1.4304,0.0201,0.61992,0.0302,1.0698,0.0302,1.3498,1.3863,0.69336,3.1728,1.8801,5.3595,3.5602l-0.55969,0.70007c-1.9735-1.5336-3.5734-2.627-4.7998-3.28v0.10009c-0.00001,1.3863-0.30671,2.3895-0.9201,3.0096-0.61342,0.62011-1.6,0.93017-2.9599,0.93017-1.2537,0-2.2272-0.27669-2.9205-0.83008-0.69337-0.55338-1.04-1.3234-1.04-2.3102-0.00001-0.90657,0.35003-1.6199,1.0501-2.1399,0.70006-0.52001,1.6702-0.78002,2.9105-0.78003,0.90657,0.00001,1.8799,0.20671,2.9199,0.62012z"/>
    <path d="m463.13,636.36c-0.52654,0.53305-0.7898,1.1663-0.7898,1.8997,0,0.73344,0.26326,1.3668,0.7898,1.9,0.52652,0.53325,1.1631,0.79987,1.9098,0.79987,0.74665,0,1.3834-0.26662,1.9101-0.79987,0.52672-0.53324,0.79009-1.1667,0.7901-1.9003-0.00001-0.81298-0.24995-1.4662-0.74982-1.9595-0.49988-0.49336-1.15-0.74004-1.9504-0.74005-0.74668,0.00001-1.3833,0.26673-1.9098,0.80017zm-1.7499,1.8799c-0.00001-1.0136,0.3366-1.857,1.0098-2.5302,0.67321-0.67321,1.5233-1.0098,2.5504-1.0098,1.0396,0.00001,1.9328,0.31332,2.6794,0.93994h0.0403c-0.0134-0.54686-0.0401-1.2868-0.08-2.2198-0.00001-0.0403-0.003-0.0937-0.0101-0.16021-0.007-0.0665-0.0101-0.11993-0.0101-0.16022-3.9201,0.17335-7.36,0.26002-10.32,0.26001v-0.85999c3.2532,0.00002,6.6864-0.0799,10.3-0.23987-0.0399-0.97329-0.0598-1.96-0.0598-2.9602h0.93994c-0.00001,1.2936,0.0134,2.2669,0.0403,2.9199,1.8799-0.0932,3.7597-0.20649,5.6396-0.33996l0.0604,0.84045c-1.9202,0.13307-3.807,0.24639-5.6604,0.33997-0.00001,0.0533,0.003,0.13327,0.0101,0.23986,0.007,0.10662,0.0101,0.18658,0.0101,0.23987,0.0533,1.7599,0.0799,3.0798,0.08,3.96,0.2132,0.72022,0.31981,1.5603,0.31982,2.5201-0.00001,1.7334-0.55665,3.1601-1.6699,4.2801-1.1133,1.12-2.6965,1.8267-4.7498,2.1201l-0.15991-0.92041c3.28-0.45329,5.1265-1.9466,5.5396-4.48,0.0269-0.15991,0.0537-0.3599,0.0806-0.59998h-0.0403c-0.74668,0.93344-1.7399,1.4002-2.9797,1.4002-1.04,0-1.8934-0.33996-2.5601-1.0199-0.66671-0.67992-1.0001-1.5332-1.0001-2.5598z"/>
    <path d="m477.95,645.89c-0.5664-0.56681-0.84961-1.2569-0.84961-2.0703,0-0.81339,0.28331-1.5068,0.84992-2.0801,0.56661-0.57331,1.2566-0.85998,2.07-0.85998,0.81339,0,1.5067,0.28667,2.0801,0.85998,0.57332,0.57333,0.85998,1.2667,0.85999,2.0801-0.00001,0.8134-0.28667,1.5034-0.85999,2.07-0.57333,0.56661-1.2667,0.84991-2.0801,0.84991s-1.5035-0.2832-2.0703-0.84961zm0.57007-3.5803c-0.41341,0.41993-0.62012,0.92326-0.62012,1.51,0,0.58675,0.20671,1.0867,0.62012,1.4999,0.41341,0.41321,0.91339,0.61981,1.4999,0.61981,0.58654,0,1.0899-0.2066,1.51-0.61981,0.42012-0.41321,0.63018-0.91319,0.63019-1.4999-0.00001-0.58675-0.21007-1.0901-0.63019-1.51-0.42013-0.41992-0.92347-0.62988-1.51-0.62988-0.58655,0-1.0865,0.20996-1.4999,0.62988z"/>
    <path d="m42.48,654.32,0.96008,0c-0.000008,1.32,0.0067,2.3,0.02014,2.9401,2.5867-0.0932,5.4398-0.31981,8.5596-0.67993l0.08057,0.83984c-3.3203,0.38657-6.1937,0.61993-8.62,0.70008,0.03987,2.1733,0.05981,3.2666,0.05981,3.28,1.1601-0.3601,2.3734-0.54015,3.6401-0.54016,1.9197,0.00001,3.4396,0.43,4.5596,1.29s1.68,2.0167,1.68,3.4702c-0.000018,1.4002-0.53336,2.5869-1.6,3.5602-1.0667,0.9733-2.5266,1.6132-4.3796,1.9196l-0.18005-0.83984c1.6398-0.27995,2.9197-0.83323,3.8397-1.6598,0.91999-0.82662,1.38-1.82,1.38-2.98-0.000017-0.90657-0.27671-1.6765-0.83008-2.3099-0.5534-0.63333-1.33-1.0835-2.3297-1.3504-1.0799,2.467-2.4633,4.4439-4.1501,5.9305s-3.2502,2.2299-4.6902,2.2299c-0.78654,0-1.4065-0.23672-1.8597-0.71015-0.45329-0.47342-0.67993-1.1234-0.67993-1.9498-0.000002-1.1068,0.42002-2.1835,1.2601-3.2303,0.84004-1.0467,1.9666-1.87,3.3798-2.4698-0.02686-0.81338-0.05351-2.02-0.07996-3.62-1.1735,0.0399-2.4135,0.0598-3.7201,0.0598v-0.85998c1.6935,0.00001,2.9335-0.0134,3.7201-0.0403-0.01343-0.65307-0.02015-1.6463-0.02014-2.9797zm5.9198,7.4603c-0.5066-0.0537-0.9131-0.0806-1.2195-0.0806-1.2801,0.00001-2.4803,0.2-3.6005,0.59997,0.08015,2.4935,0.1536,4.3536,0.22034,5.5804,1.9197-1.4799,3.453-3.5132,4.5996-6.0998zm-5.78,0.9198c-1.1467,0.54647-2.0566,1.2464-2.7298,2.0999-0.67322,0.85348-1.0098,1.7268-1.0098,2.6199-0.000004,0.58676,0.14333,1.0402,0.42999,1.3602,0.28666,0.32003,0.69671,0.48004,1.2302,0.48004,0.69335,0,1.4667-0.25329,2.3199-0.75988-0.10662-2.1334-0.18678-4.0668-0.24048-5.8002z"/>
    <path d="m69.34,660.44c-0.10703,0.94687-0.12046,2.567-0.04028,4.8602l0.02014,0.1001c-0.000014,0.0663-0.000014,0.14954,0,0.24963-0.000014,0.10011-0.000014,0.19675,0,0.28992,1.0132,0.57333,2.3797,1.5934,4.0997,3.0603l-0.57983,0.67994c-1.4266-1.2-2.5932-2.0933-3.4998-2.6801v0.41992c-0.000014,1.2801-0.28342,2.2068-0.85022,2.7802-0.56682,0.57333-1.4836,0.85999-2.7502,0.85999-1.2264,0-2.193-0.28005-2.8998-0.84015-0.70679-0.5601-1.0602-1.3333-1.0602-2.3196-0.000006-0.89355,0.36-1.617,1.08-2.1704,0.72-0.55338,1.68-0.83007,2.8799-0.83008,0.88012,0.00001,1.7468,0.18678,2.6001,0.5603v-0.14038c-0.07977-2.3197-0.05983-3.9595,0.05981-4.9194zm-1.04-2.2797,0.23987-0.86059c1.9865,0.44027,3.8464,1.0537,5.5798,1.8402l-0.33996,0.83984c-1.7867-0.79996-3.6133-1.4064-5.4797-1.8195zm0.07996,8.2794c-0.90699-0.45328-1.7936-0.67993-2.6599-0.67993-0.89356,0-1.6137,0.19674-2.1603,0.59021-0.54668,0.39347-0.82002,0.91024-0.82001,1.5503-0.000008,0.71981,0.26336,1.2831,0.7901,1.6898,0.52672,0.4067,1.2568,0.61004,2.1902,0.61004,0.98632,0,1.6795-0.2067,2.0795-0.62011,0.39997-0.41341,0.59996-1.1334,0.59998-2.16-0.000013-0.33325-0.0065-0.65999-0.01953-0.98022zm-7.2205-8.5797c0.25349-0.91999,0.52693-2.0534,0.82031-3.4003l0.9198,0.14038c-0.1998,0.98675-0.4598,2.0467-0.78003,3.1799,1.2268-0.0932,2.4868-0.23314,3.7799-0.41992l0.06042,0.85999c-1.3469,0.18677-2.7069,0.33346-4.0802,0.44006-0.89315,3.0664-2.1198,6.3263-3.6798,9.7797l-0.88013-0.31982c1.5601-3.4798,2.7533-6.6064,3.5797-9.3799-0.97331,0.0533-2.0667,0.08-3.28,0.08v-0.85998c1.3737,0.00001,2.5537-0.0334,3.54-0.1001z"/>
    <path d="m93.12,669.2,0.11963,0.85998c-1.5466,0.29338-2.8866,0.44007-4.0198,0.44007-3.2935,0-4.9402-0.81319-4.9402-2.4396-0.000008-1.1336,0.92671-2.4137,2.7802-3.8403l0.62012,0.62012c-1.6402,1.2801-2.4603,2.3334-2.4603,3.1598-0.00001,1.0803,1.3334,1.6205,4.0002,1.6205,1.0933,0,2.3934-0.14018,3.9001-0.42053zm-0.50049-7.6996c-2.3198,0.00001-4.7129,0.25331-7.1796,0.75989l-0.12024-0.85998c2.5602-0.52001,4.9935-0.78002,7.2998-0.78003zm-9.6198-3.62c2.0935-0.1599,4.1469-0.39997,6.1603-0.72022l0.11963,0.85999c-2.0134,0.32024-4.1799,0.56703-6.4996,0.74036-0.97331,3.9067-2.3401,8.0798-4.1003,12.52l-0.88013-0.27954c1.7069-4.3066,3.0404-8.36,4.0002-12.16-1.4266,0.0932-2.6866,0.1465-3.7799,0.15991v-0.88012c1.5466-0.0268,2.8798-0.0802,3.9996-0.15991,0.32022-1.2532,0.60038-2.4866,0.84045-3.7l0.9198,0.11963c-0.22665,1.1601-0.48666,2.3269-0.78003,3.5004z"/>
    <path d="m99.04,655.42,0.9198,0.14038c-0.66651,2.4801-0.99976,5.0134-0.99976,7.6001-0.000003,2.5867,0.33325,5.1198,0.99976,7.5995l-0.9198,0.14038c-0.67993-2.5334-1.0199-5.1134-1.0199-7.7402-0.000003-2.6267,0.33996-5.2068,1.0199-7.7402zm9.8999,3.5004c-0.00002-1.3867,0.0533-2.6668,0.15991-3.8403l0.92041,0.0201c-0.0936,1.1735-0.1404,2.4135-0.14038,3.7201,1.2667-0.1066,2.5866-0.26,3.96-0.4602l0.0799,0.88012c-1.6667,0.22666-3.0133,0.38657-4.0399,0.47974-0.00002,0.25351,0.003,0.52695,0.0101,0.82031,0.007,0.29339,0.0168,0.61677,0.0302,0.97016,0.0134,0.3534,0.0201,0.6367,0.0201,0.84991,0.0533,1.6264,0.0799,2.9197,0.08,3.88,1.0799,0.65308,2.3132,1.653,3.7,2.9999l-0.64026,0.62012c-1.1198-1.1068-2.1397-1.9668-3.0597-2.58-0.0533,1.2264-0.36999,2.1296-0.95001,2.7097-0.58005,0.58004-1.4501,0.87005-2.6102,0.87005-1.1202,0-2.007-0.26997-2.6602-0.80993-0.65329-0.53996-0.97993-1.2699-0.97992-2.1899-0.00001-0.85327,0.32999-1.5399,0.98999-2.0599,0.65999-0.52001,1.5434-0.78002,2.6502-0.78003,0.79995,0.00001,1.6799,0.23336,2.6398,0.70007-0.0265-1.4799-0.0531-2.6066-0.08-3.3801-0.00001-0.0667-0.01-0.42673-0.0299-1.08s-0.0299-1.14-0.0299-1.4603c-2.0402,0.16032-4.0401,0.24048-5.9998,0.24047v-0.88012c1.9466,0.00001,3.9398-0.0799,5.9796-0.23987zm0.15991,7.7795c-0.94647-0.53304-1.833-0.79956-2.6596-0.79956-0.82663,0-1.4766,0.17334-1.9501,0.52002-0.47344,0.34668-0.71015,0.82662-0.71015,1.4398,0,0.6665,0.23335,1.1898,0.70008,1.5698,0.4667,0.38005,1.12,0.57007,1.9598,0.57007,0.94684,0,1.6269-0.24994,2.0401-0.74982,0.41319-0.49987,0.61979-1.3099,0.61981-2.4301z"/>
    <path d="m133.12,669.2,0.11963,0.85998c-1.5466,0.29338-2.8866,0.44007-4.0198,0.44007-3.2935,0-4.9402-0.81319-4.9402-2.4396-0.00001-1.1336,0.92671-2.4137,2.7802-3.8403l0.62012,0.62012c-1.6402,1.2801-2.4603,2.3334-2.4603,3.1598-0.00001,1.0803,1.3334,1.6205,4.0002,1.6205,1.0933,0,2.3934-0.14018,3.9001-0.42053zm-0.50049-7.6996c-2.3198,0.00001-4.7129,0.25331-7.1796,0.75989l-0.12024-0.85998c2.5602-0.52001,4.9935-0.78002,7.2998-0.78003zm-9.6198-3.62c2.0935-0.1599,4.1469-0.39997,6.1603-0.72022l0.11963,0.85999c-2.0134,0.32024-4.1799,0.56703-6.4996,0.74036-0.97332,3.9067-2.3401,8.0798-4.1003,12.52l-0.88013-0.27954c1.707-4.3066,3.0404-8.36,4.0002-12.16-1.4266,0.0932-2.6866,0.1465-3.7799,0.15991v-0.88012c1.5466-0.0268,2.8798-0.0802,3.9996-0.15991,0.32022-1.2532,0.60038-2.4866,0.84045-3.7l0.9198,0.11963c-0.22665,1.1601-0.48666,2.3269-0.78003,3.5004z"/>
    <path d="m152.92,669.4,0.12024,0.85999c-1.5466,0.29337-2.8868,0.44006-4.0204,0.44006-3.2931,0-4.9396-0.81339-4.9396-2.4402-0.00001-1.1332,0.9265-2.4131,2.7795-3.8397l0.62011,0.62011c-1.6398,1.2797-2.4597,2.333-2.4597,3.1598-0.00001,1.0799,1.3332,1.6199,3.9996,1.6199,1.0933,0,2.3934-0.13998,3.9002-0.41993zm-3.5602-14.88,0.72021-0.40039c0.45327,0.70681,1.04,1.707,1.7603,3.0005l-0.72022,0.37964c-0.55991-1.04-1.1467-2.0333-1.7602-2.9797zm2.5604-0.3601,0.73975-0.39978c0.72019,1.1597,1.3202,2.1796,1.7999,3.0597l-0.73974,0.38025c-0.58677-1.0669-1.1868-2.0803-1.7999-3.0402zm-6.8005,7.4402c2.5602-0.52001,4.9937-0.78002,7.3004-0.78003v0.87952c-2.3202,0.00001-4.7136,0.25351-7.1802,0.7605zm-2.32-3.5205c2.0935-0.1599,4.1469-0.39976,6.1603-0.7196l0.12024,0.85999c-2.0134,0.31983-4.1801,0.56641-6.5002,0.73974-0.97331,3.9067-2.3399,8.08-4.0997,12.52l-0.88013-0.28015c1.7065-4.3066,3.0398-8.36,3.9996-12.16-1.4266,0.0936-2.6866,0.1469-3.7799,0.15991v-0.87952c1.5466-0.0268,2.88-0.0801,4.0002-0.15991,0.31981-1.2536,0.59976-2.4872,0.83984-3.7006l0.9198,0.12024c-0.22665,1.1601-0.48666,2.3267-0.78003,3.4998z"/>
    <path d="m159.08,663.3,0,2.9199,5.34,0,0-2.9199zm0-0.80017,5.34,0,0-2.7802-5.34,0zm-2.0801-5.18,0-0.81971,5.5798,0c-0.43987-0.84023-0.86651-1.5936-1.2799-2.2601l0.88012-0.28015c0.42643,0.67995,0.89966,1.5267,1.4197,2.5403h4.1998c0.52001-0.85325,0.98001-1.6933,1.38-2.5201l0.90026,0.23987c-0.33326,0.7068-0.73996,1.4669-1.2201,2.2803h5.4999v0.81971zm1.1597,1.5601,7.1802,0,0,10.48c-0.00001,0.94645-0.0867,1.5296-0.26001,1.7496-0.17334,0.21993-0.65328,0.3299-1.4398,0.3299-0.21364,0-0.92042-0.0332-2.1204-0.0995v-0.84045c1.2268,0.0667,1.9002,0.10009,2.0203,0.10009,0.43985,0,0.6965-0.0533,0.76996-0.15991,0.0734-0.10661,0.11016-0.47322,0.11016-1.0998v-2.32h-5.34v4.5001h-0.92041zm9.48,9.3402,0-8.9801,0.92041,0,0,8.9801zm4.8004-9.66,0.93994,0,0,10.84c-0.00001,0.92001-0.11008,1.5034-0.3302,1.7502-0.22015,0.24678-0.72348,0.37017-1.51,0.37018-0.57334-0.00001-1.4-0.0334-2.4799-0.1001l-0.0201-0.90027c1.04,0.0667,1.84,0.1001,2.3999,0.1001,0.4667,0,0.7501-0.06,0.85022-0.18006,0.10008-0.12003,0.15013-0.47994,0.15014-1.0797z"/>
    <path d="m187.44,662.82c1.6264-0.59976,3.3862-1.0598,5.2795-1.38l0.12024,0.85998c-1.9068,0.33367-3.6601,0.8071-5.26,1.4203,0.13346,0.94687,0.20019,2.2068,0.2002,3.7799h-0.96008c-0.00001-1.2398-0.0468-2.373-0.14038-3.3997-1.3998,0.62663-2.4996,1.2966-3.2996,2.0099-0.79998,0.7133-1.2,1.3633-1.2,1.9501,0,1.4266,1.6866,2.1399,5.0598,2.1399,1.4665,0,2.9665-0.13997,4.5001-0.41992l0.1001,0.88013c-1.4002,0.26652-2.9336,0.39978-4.6002,0.39978-4.0536,0-6.0803-0.98002-6.0803-2.9401-0.00001-0.78654,0.47668-1.6265,1.43-2.5198,0.95336-0.89334,2.2768-1.7001,3.9703-2.4204-0.1469-0.85326-0.36032-1.4399-0.64026-1.76-0.27996-0.32002-0.64658-0.48003-1.0998-0.48004-0.66652,0.00001-1.5498,0.39999-2.6498,1.2-1.1001,0.79998-2.19,1.8933-3.27,3.28l-0.7605-0.49988c1.8136-2.3466,3.1604-4.5532,4.0405-6.6199-1.44,0.0399-2.9535,0.0598-4.5404,0.0598v-0.83985c1.5202,0.00002,3.147-0.0334,4.8804-0.1001,0.37312-1.0132,0.69315-2.0131,0.96008-2.9999l0.95948,0.21972c-0.27996,1.0266-0.57313,1.9401-0.87952,2.7405,2.64-0.12002,5.1933-0.32001,7.6599-0.59997l0.0598,0.83984c-2.76,0.30641-5.4466,0.51962-8.0597,0.63965-0.41341,1.0002-1.0002,2.1336-1.7602,3.4003l0.0201,0.0201c1.3867-1.04,2.5401-1.56,3.4601-1.5601,0.6665,0.00001,1.1997,0.20997,1.5997,0.62988,0.39997,0.41993,0.70006,1.1098,0.90026,2.0697z"/>
    <path d="m200.18,662.4,0,2.6202,11,0,0-2.6202zm0-3.2599,0,2.4798,11,0,0-2.4798zm0-0.78003,11,0,0-2.42-11,0zm8.4796,12.16c0.56029,0.0269,0.9737,0.0403,1.2402,0.0403,0.30679,0,0.74014-0.0134,1.3-0.0403,0.33324-0.0134,0.56985-0.0367,0.70984-0.0699,0.13996-0.0332,0.28329-0.10315,0.42999-0.20996,0.14667-0.10681,0.25002-0.31016,0.31006-0.61004,0.06-0.29989,0.1133-0.65989,0.15991-1.08,0.0466-0.42012,0.09-1.0235,0.13031-1.81l0.93994,0.08c-0.0533,0.90658-0.10998,1.5966-0.16998,2.07-0.06,0.47343-0.13674,0.89681-0.2301,1.2701-0.0934,0.37333-0.24345,0.62998-0.45014,0.76996-0.20672,0.13997-0.43672,0.24332-0.69,0.31005-0.25331,0.0667-0.61983,0.11332-1.0996,0.13977-0.30682,0.0134-0.78024,0.0201-1.4203,0.0201-0.58676-0.00001-1.0268-0.007-1.3202-0.0201-0.67994-0.0265-1.1233-0.11973-1.33-0.27984-0.20672-0.16012-0.31007-0.48004-0.31006-0.95978v-4.2602h-2.7197c-0.0936,1.3468-0.69367,2.5236-1.8002,3.5303-1.1066,1.0067-2.6598,1.7698-4.6597,2.2894l-0.28015-0.85999c1.8001-0.46631,3.1902-1.1262,4.1702-1.9797,0.98001-0.85347,1.5166-1.8468,1.6098-2.98h-2.9999-0.96008v-10.78h12.92v10.78h-4.3201v3.9197c-0.00001,0.30681,0.04,0.50019,0.11994,0.58014,0.0799,0.08,0.31991,0.12665,0.71991,0.14008z"/>
    <path d="m217.98,657.6c4.5736,0.00001,9.6936-0.39326,15.36-1.1798l0.1001,0.89966c-2.8268,0.38697-5.0934,1.2304-6.7999,2.5302-1.7066,1.2998-2.5598,2.7831-2.5598,4.4498-0.00001,1.5466,0.59325,2.7966,1.7798,3.75,1.1865,0.95337,2.8664,1.5167,5.0397,1.6901l-0.0995,0.92041c-2.4133-0.18677-4.3034-0.83679-5.6702-1.9501s-2.0502-2.55-2.0502-4.3103c0-1.3598,0.47668-2.6198,1.4301-3.7799,0.95336-1.1601,2.31-2.0868,4.0698-2.7802l-0.0195-0.0397c-3.7602,0.47975-7.287,0.71962-10.58,0.71961z"/>
    <path d="m238.6,671.04,0,0.90027-0.89966,0,0-5.8203,6.0596,0,0,4.92zm0-0.83985,4.2798,0,0-3.2599-4.2798,0zm15.08-15.42,0.22033,0.83985c-1.2801,0.38657-2.5936,0.69988-3.9404,0.93994v3.4399h4.4403v0.83984h-4.4403v3.0603h3.8605v7.76h-0.96008v-1.0999h-6.7804v1.0999h-0.9198v-7.76h3.8599v-3.0603h-4.5801v-0.83984h4.5801v-3.28c-1.2398,0.18678-2.6198,0.33347-4.14,0.44006l-0.0598-0.83984c3.0798-0.20018,6.0331-0.71348,8.8599-1.5399zm-0.8197,14.98,0-5.0598-6.7804,0,0,5.0598zm-15.16-13.8,0-0.83984,6.04,0,0,0.83984zm-0.58044,2.7002,0-0.85999,7.0599,0,0,0.85999zm0.67993,2.76,0-0.82031,5.86,0,0,0.82031zm0,2.76,0-0.82031,5.86,0,0,0.82031z"/>
    <path d="m270.32,654.74c-0.0533,1.2402-0.0665,2.6803-0.0397,4.3201,2.1598-0.19978,3.4265-0.31981,3.8-0.36011l0.0799,0.84046c-0.86671,0.0932-2.16,0.21973-3.88,0.37963-0.00001,0.0802,0.003,0.20692,0.01,0.38025,0.006,0.17335,0.01,0.30661,0.01,0.39978l0.0201,2.8198c-0.00001,1.3603-0.51332,2.0404-1.5399,2.0404-0.36012,0.00001-0.94352-0.0934-1.7502-0.28015-0.80669-0.18676-1.5766-0.40669-2.3099-0.65979l0.26001-0.90027c1.6935,0.60019,2.9136,0.90028,3.6603,0.90027,0.25307,0.00001,0.43964-0.0834,0.55969-0.25024,0.12002-0.16683,0.18004-0.51676,0.18005-1.0498l-0.0201-2.7203v-0.59998c-2.6131,0.20021-5.1398,0.35361-7.58,0.46021,0.0403,2.1733,0.0604,4.1732,0.0604,5.9998-0.00001,0.76009,0.04,1.3302,0.11993,1.7102,0.0799,0.38004,0.28991,0.70668,0.62989,0.97991,0.33995,0.27324,0.79996,0.44658,1.38,0.52002,0.58003,0.0734,1.4167,0.11017,2.5101,0.11017,1.7733,0,3.5799-0.13346,5.4199-0.40039l0.1001,0.88013c-1.8669,0.26693-3.7203,0.40039-5.5603,0.40039-1.2,0-2.1433-0.0534-2.8299-0.16022-0.68665-0.10681-1.2433-0.32684-1.6699-0.66009-0.42664-0.33325-0.70994-0.75653-0.84991-1.2698-0.13998-0.5133-0.20997-1.2167-0.20996-2.1103-0.00001-1.04-0.0267-3.0267-0.08-5.9601-1.7334,0.0533-2.9201,0.08-3.5602,0.08v-0.85998c1.0665,0.00001,2.2465-0.0199,3.54-0.0598-0.0134-0.39997-0.0301-1.0566-0.05-1.9699-0.0199-0.91328-0.0366-1.5833-0.05-2.0102h0.96008c0.0265,0.94687,0.0663,2.2604,0.11963,3.9404,2.067-0.0936,4.5939-0.25369,7.5806-0.48034-0.0134-1.2667-0.00022-2.7334,0.0397-4.4z"/>
    <path d="m290.68,654.06,0.73975-0.29968c0.58674,1.0266,1.1202,2.0465,1.6003,3.0597l-0.78003,0.30029c-0.49358-1.0534-1.0136-2.0736-1.5601-3.0603zm2.42-0.36011,0.78003-0.31982c0.61318,1.1068,1.1531,2.16,1.6199,3.1598l-0.78003,0.28015c-0.52004-1.0933-1.06-2.1334-1.6199-3.1201zm-4.2603,1.5802,0.92041,0.0201c-0.0936,1.1731-0.14039,2.4131-0.14038,3.7201,1.2667-0.10701,2.5867-0.26041,3.96-0.46021l0.08,0.88013c-1.6667,0.22665-3.0133,0.38656-4.0399,0.47973-0.00001,0.25351,0.003,0.52685,0.0101,0.82001,0.007,0.29318,0.0168,0.61647,0.0302,0.96985,0.0134,0.3534,0.0201,0.63671,0.0201,0.84991,0.0533,1.6268,0.0799,2.9201,0.0799,3.88,1.053,0.64006,2.2796,1.6402,3.6798,3.0005l-0.64025,0.6195c-1.1467-1.1332-2.1598-1.9932-3.0396-2.58-0.0533,1.2268-0.37334,2.1302-0.96008,2.7103-0.58676,0.58004-1.4535,0.87006-2.6001,0.87006-1.1202,0-2.0069-0.26998-2.6602-0.80994-0.65329-0.53995-0.97993-1.2699-0.97992-2.1899-0.00001-0.85327,0.32999-1.5399,0.98999-2.0599,0.65998-0.52002,1.5434-0.78003,2.6501-0.78003,0.78653,0,1.66,0.23336,2.6202,0.70007-0.0269-1.4803-0.0535-2.607-0.0799-3.3801-0.00002-0.0667-0.0101-0.42673-0.0302-1.08-0.0202-0.65327-0.0302-1.14-0.0302-1.4603-2.0398,0.15992-4.033,0.23988-5.9796,0.23987v-0.87952c1.9466,0.00001,3.9398-0.0802,5.9796-0.24048-0.00001-1.3863,0.0533-2.6662,0.15991-3.8397zm-10,0.33997,0.92041,0.13977c-0.66692,2.4801-1.0004,5.0134-1.0004,7.6001s0.33345,5.12,1.0004,7.6001l-0.92041,0.13977c-0.66651-2.4796-0.99976-5.0595-0.99976-7.7396,0-2.68,0.33325-5.2601,0.99976-7.7402zm9.9805,11.28c-0.94687-0.53344-1.8336-0.80016-2.6602-0.80017-0.82663,0.00001-1.4733,0.17335-1.94,0.52002-0.46672,0.34669-0.70008,0.82683-0.70007,1.4404-0.00001,0.66651,0.22999,1.1898,0.69,1.5698,0.46,0.38004,1.1099,0.57006,1.9498,0.57006,0.94685,0,1.627-0.25004,2.0404-0.75012,0.41339-0.50008,0.6201-1.31,0.62011-2.4298z"/>
    <path d="m309.74,657.8,0.85999-0.40039c1.8001,2.9203,2.8735,6.4004,3.2202,10.44l-0.96008,0.0604c-0.3467-3.9066-1.3867-7.2734-3.1201-10.1zm-10-0.72021c-0.27995,1.6268-0.41992,3.2735-0.41992,4.9402,0,1.0266,0.0966,1.9999,0.28992,2.9199,0.19327,0.92,0.4366,1.6766,0.72998,2.2699,0.29337,0.59327,0.61004,1.0632,0.95001,1.4099,0.33996,0.34669,0.65663,0.52003,0.95001,0.52002,0.10661,0.00001,0.22654-0.0334,0.35981-0.10009,0.13325-0.0667,0.29662-0.22003,0.49011-0.4599,0.19347-0.23987,0.38349-0.54311,0.57007-0.90973,0.18655-0.36662,0.38654-0.88999,0.59997-1.5701,0.21341-0.68013,0.40679-1.4668,0.58014-2.3599l0.93994,0.15992c-0.45329,2.2933-0.99325,3.8999-1.6199,4.8199-0.62664,0.92001-1.2667,1.38-1.9202,1.38-0.94686,0-1.8336-0.75999-2.6602-2.28-0.82663-1.52-1.2399-3.4533-1.2399-5.7999,0-1.6532,0.14668-3.34,0.44006-5.0604z"/>
    <path d="m329.74,657.8,0.85999-0.40039c1.8001,2.9203,2.8735,6.4004,3.2202,10.44l-0.96008,0.0604c-0.3467-3.9066-1.3867-7.2734-3.1201-10.1zm-10-0.72021c-0.27995,1.6268-0.41992,3.2735-0.41992,4.9402,0,1.0266,0.0966,1.9999,0.28992,2.9199,0.19327,0.92,0.4366,1.6766,0.72998,2.2699,0.29337,0.59327,0.61004,1.0632,0.95001,1.4099,0.33996,0.34669,0.65663,0.52003,0.95001,0.52002,0.10661,0.00001,0.22654-0.0334,0.35981-0.10009,0.13325-0.0667,0.29662-0.22003,0.49011-0.4599,0.19347-0.23987,0.38349-0.54311,0.57007-0.90973,0.18655-0.36662,0.38654-0.88999,0.59997-1.5701,0.21341-0.68013,0.40679-1.4668,0.58014-2.3599l0.93994,0.15992c-0.45329,2.2933-0.99325,3.8999-1.6199,4.8199-0.62664,0.92001-1.2667,1.38-1.9202,1.38-0.94686,0-1.8336-0.75999-2.6602-2.28-0.82663-1.52-1.2399-3.4533-1.2399-5.7999,0-1.6532,0.14668-3.34,0.44006-5.0604z"/>
    <path d="m347.34,669.76c1.6134-0.2535,2.92-0.99019,3.92-2.2101,0.99995-1.2199,1.4999-2.6831,1.4999-4.3896-0.00001-1.6801-0.58666-3.0469-1.76-4.1003-1.1733-1.0535-2.6934-1.5802-4.5602-1.5802h-0.19958c-0.50701,3.9201-1.2238,6.8968-2.1503,8.93-0.92652,2.0333-1.9965,3.0499-3.2098,3.0499-0.79997,0-1.54-0.50659-2.2202-1.5198-0.68014-1.0132-1.0202-2.2198-1.0202-3.62,0-2.2799,0.8134-4.1364,2.4402-5.5698,1.6268-1.4333,3.7467-2.15,6.3599-2.15,2.1468,0.00002,3.8969,0.60996,5.2502,1.8298,1.3533,1.2199,2.03,2.7965,2.03,4.7299-0.00002,1.9334-0.57009,3.5901-1.7102,4.9701-1.1402,1.38-2.6235,2.21-4.4501,2.4899zm-2.0801-12.22c-2.0134,0.22666-3.6301,0.94993-4.8502,2.1698s-1.8302,2.7498-1.8301,4.5898c-0.00001,1.1869,0.25665,2.1837,0.76995,2.9904,0.51331,0.80669,1.03,1.21,1.55,1.21,0.22705,0,0.46722-0.0801,0.72052-0.24018,0.25329-0.16011,0.54657-0.48014,0.87982-0.96008s0.65653-1.1066,0.96985-1.8799c0.31331-0.77331,0.62998-1.84,0.95001-3.2001,0.32002-1.36,0.60007-2.92,0.84015-4.6799z"/>
    <path d="m357.38,657.4c4.5736,0.00002,9.6936-0.39325,15.36-1.1798l0.1001,0.90027c-2.8402,0.38657-5.1102,1.2398-6.81,2.5598s-2.5498,2.8599-2.5497,4.6198c-0.00001,1.6402,0.58989,2.9436,1.7697,3.9102s2.863,1.5433,5.0498,1.73l-0.0995,0.9198c-2.4268-0.18676-4.3202-0.85011-5.6802-1.99-1.3601-1.1399-2.0401-2.6299-2.0401-4.4699,0-1.4534,0.47668-2.7702,1.4301-3.9502,0.95336-1.18,2.31-2.1165,4.0698-2.8094l-0.0195-0.0403c-3.7602,0.48015-7.287,0.72023-10.58,0.72021zm11.8,3.0603,0.7605-0.44007c0.58633,0.90659,1.2329,2.0132,1.9397,3.3197l-0.78003,0.38025c-0.64007-1.1999-1.2801-2.2866-1.9202-3.2599zm2.6404-0.80018,0.78003-0.44006c0.76007,1.1735,1.4268,2.3002,2.0001,3.3801l-0.78003,0.39978c-0.7068-1.2797-1.3735-2.393-2.0001-3.3398z"/>
    <path d="m383.13,661.36c-0.52654,0.53305-0.7898,1.1663-0.7898,1.8997,0,0.73345,0.26326,1.3668,0.7898,1.9,0.52652,0.53325,1.1631,0.79987,1.9098,0.79986,0.74665,0.00001,1.3834-0.26661,1.9101-0.79986,0.52672-0.53324,0.79009-1.1667,0.7901-1.9003-0.00001-0.81298-0.24995-1.4662-0.74982-1.9595-0.49988-0.49335-1.15-0.74004-1.9504-0.74005-0.74668,0.00001-1.3833,0.26674-1.9098,0.80017zm-1.7499,1.8799c-0.00001-1.0136,0.3366-1.857,1.0098-2.5302,0.67321-0.6732,1.5233-1.0098,2.5504-1.0098,1.0396,0.00001,1.9328,0.31332,2.6794,0.93994h0.0403c-0.0134-0.54687-0.0401-1.2868-0.08-2.2198-0.00001-0.0403-0.003-0.0937-0.0101-0.16022-0.007-0.0665-0.0101-0.11992-0.0101-0.16021-3.9201,0.17335-7.36,0.26002-10.32,0.26001v-0.85999c3.2532,0.00001,6.6864-0.0799,10.3-0.23987-0.0399-0.97329-0.0598-1.96-0.0598-2.9602h0.93994c-0.00001,1.2936,0.0134,2.2669,0.0403,2.9199,1.8799-0.0932,3.7597-0.20649,5.6396-0.33997l0.0604,0.84046c-1.9202,0.13307-3.807,0.24639-5.6604,0.33996-0.00001,0.0533,0.003,0.13328,0.0101,0.23987,0.007,0.10662,0.0101,0.18658,0.0101,0.23987,0.0533,1.7599,0.0799,3.0798,0.08,3.96,0.2132,0.72022,0.31981,1.5603,0.31982,2.5201-0.00001,1.7334-0.55665,3.1601-1.6699,4.2801-1.1133,1.12-2.6965,1.8267-4.7498,2.1201l-0.15991-0.92041c3.28-0.45329,5.1265-1.9466,5.5396-4.48,0.0269-0.15991,0.0537-0.3599,0.0806-0.59998h-0.0403c-0.74668,0.93344-1.7399,1.4002-2.9797,1.4002-1.04,0-1.8934-0.33996-2.5601-1.0199-0.66671-0.67993-1.0001-1.5332-1.0001-2.5598z"/>
    <path d="m397.95,670.89c-0.5664-0.56681-0.84961-1.2569-0.84961-2.0703,0-0.81339,0.28331-1.5068,0.84992-2.0801,0.56661-0.57332,1.2566-0.85998,2.07-0.85998,0.81339,0,1.5067,0.28666,2.0801,0.85998,0.57332,0.57333,0.85998,1.2667,0.85999,2.0801-0.00001,0.8134-0.28667,1.5034-0.85999,2.07-0.57333,0.56661-1.2667,0.84991-2.0801,0.84991s-1.5035-0.2832-2.0703-0.84961zm0.57007-3.5803c-0.41341,0.41992-0.62012,0.92326-0.62012,1.51,0,0.58675,0.20671,1.0867,0.62012,1.4999,0.41341,0.41321,0.91339,0.61981,1.4999,0.61981,0.58654,0,1.0899-0.2066,1.51-0.61981,0.42012-0.41321,0.63018-0.91319,0.63019-1.4999-0.00001-0.58675-0.21007-1.0901-0.63019-1.51-0.42013-0.41992-0.92347-0.62988-1.51-0.62988-0.58655,0-1.0865,0.20996-1.4999,0.62988z"/>
   </g>
  </g>
 </g>
</svg>
