<?xml version="1.0" encoding="UTF-8" standalone="no"?>
<!-- Created with Inkscape (http://www.inkscape.org/) -->
<svg xmlns:rdf="http://www.w3.org/1999/02/22-rdf-syntax-ns#" xmlns="http://www.w3.org/2000/svg" version="1.1" xmlns:cc="http://creativecommons.org/ns#" xmlns:dc="http://purl.org/dc/elements/1.1/" viewBox="0 0 468.46 76.915">
 <metadata>
  <rdf:RDF>
   <cc:Work rdf:about="">
    <dc:format>image/svg+xml</dc:format>
    <dc:type rdf:resource="http://purl.org/dc/dcmitype/StillImage"/>
    <dc:title/>
   </cc:Work>
  </rdf:RDF>
 </metadata>
 <g transform="translate(-140.77139,-473.90493)">
  <g font-family="&apos;M+ 2m thin&apos;" transform="translate(114.26829,-96.24251)" font-stretch="normal" font-variant="normal" font-weight="normal" font-style="normal" fill="#000">
   <g style="letter-spacing:0px;word-spacing:0px;" font-size="29.5973835px" line-height="125%">
    <path d="m27.864,580.15,0,5.4465,3.5813,0,0-5.4465zm0-1.2131,3.5813,0,0-5.3571-3.5813,0zm0,14.621,0,1.9239-1.3612,0,0-23.146,6.2748,0,0,21.222zm15.273-15.48c-0.41491-1.3217-0.94782-2.8015-1.5987-4.4394-1.6379,0.11865-2.9205,0.1879-3.8478,0.20775,0.59191,1.4006,1.1149,2.8112,1.5689,4.2317zm5.2975,7.104-3.137,0,0,5.8006,3.137,0zm-16.989,7.1329,0-5.5351-3.5813,0,0,5.5351zm19.476-13.053-15.687,0,0,4.5288-1.3621,0,0-5.713,3.9959,0c-0.53292-1.5782-1.0658-2.9792-1.5987-4.2028h-1.9528l-0.08942-1.213c6.3739,0.00002,12.185-0.50308,17.433-1.5093l0.20684,1.213c-2.6044,0.51306-5.5839,0.90778-8.9385,1.1842,0.51302,1.2826,1.0459,2.7919,1.5987,4.5279h2.5155c0.69065-1.7161,1.263-3.3338,1.7171-4.8531l1.3016,0.32517c-0.45345,1.4994-0.97613,3.0087-1.568,4.5279h3.818v4.7953h-1.391zm-14.385,8.1391,0.79937-1.0649c0.98632,0.72982,1.9435,1.5485,2.8714,2.4559,0.74967-1.736,1.1835-3.5118,1.3016-5.3273h-3.4621c-0.96708,2.3876-2.2696,4.4891-3.9074,6.3046l-0.91769-0.97731c2.1118-2.3478,3.6015-5.2286,4.4692-8.6422l1.3621,0.23664c-0.19752,0.75031-0.3851,1.382-0.56272,1.895h4.2913v1.1832c-0.15778,3.0192-0.98636,5.7127-2.4857,8.0804-1.4994,2.3677-3.4727,4.1335-5.9198,5.2975l-0.76956-1.1245c2.5453-1.2037,4.5382-3.0882,5.9785-5.6534-1.0851-1.0454-2.1013-1.9332-3.0484-2.6637zm11.898-3.4034,0-3.7295,1.3612,0,0,3.7295,2.7829,0,0,1.1842-2.7829,0,0,5.8006,3.3149,0,0,1.2438-3.3149,0,0,4.5578-1.3612,0,0-4.5578-6.926,0,0-1.2438,2.427,0,0-5.8006-0.85808,0,0-1.1842z"/>
    <path d="m74.066,572.43c-4.2814,4.1435-7.8922,7.2314-10.833,9.2636-0.71056,0.51305-1.1497,0.84845-1.3174,1.0062-0.16771,0.15777-0.25156,0.37485-0.25155,0.65123-0.000008,0.25653,0.07406,0.45886,0.2222,0.60698,0.14812,0.14814,0.54766,0.44892,1.1986,0.90234,3.2161,2.2298,7.2906,5.7618,12.224,10.596l-1.0351,0.97731c-5.0317-4.9528-9.0965-8.4847-12.195-10.596-0.84845-0.57264-1.391-0.99701-1.6276-1.2731-0.23666-0.27608-0.35498-0.68058-0.35497-1.2135-0.000006-0.5329,0.12329-0.94237,0.36988-1.2284,0.24658-0.28602,0.84347-0.76443,1.7907-1.4352,2.9795-2.0913,6.5804-5.1792,10.803-9.2636z"/>
    <path d="m93.867,589.15,0,3.4332,9.1751,0,0-3.4332zm0-1.1245,9.1751,0,0-2.9897-9.1751,0zm-6.1267-10.656,0,3.4332,8.0506,0,0-3.4332zm0-1.1543,8.0506,0,0-3.1668-8.0506,0zm21.428,1.1543-8.3468,0,0,3.4332,8.3468,0zm0-1.1543,0-3.1668-8.3468,0,0,3.1668zm-16.663,7.6658,11.897,0,0,9.8264-10.536,0,0,1.6276-1.3612,0zm-6.1565,12.55,0-24.566,10.833,0,0,10.093-9.4416,0,0,14.474zm21.102-0.23755c-0.41431-0.00001-1.8053-0.0491-4.173-0.14723l-0.0298-1.2438c2.3087,0.0987,3.6506,0.14813,4.0257,0.14813,0.90744,0,1.45-0.0888,1.6276-0.26646,0.17762-0.17764,0.26643-0.71025,0.26646-1.5978v-11.129h-9.7378v-10.093h11.129v21.192c-0.00003,1.3814-0.1727,2.2495-0.51801,2.6045-0.34536,0.35497-1.2087,0.53245-2.59,0.53246z"/>
    <path d="m130.66,583.44c2.4068-0.88757,5.0112-1.5683,7.813-2.0422l0.17794,1.2727c-2.8218,0.49378-5.4164,1.1944-7.7841,2.1018,0.1975,1.4012,0.29625,3.2658,0.29627,5.5938h-1.4208c-0.00002-1.8348-0.0693-3.5118-0.20775-5.031-2.0714,0.92733-3.6991,1.9188-4.8829,2.9744-1.1839,1.0556-1.7758,2.0175-1.7758,2.8858-0.00001,2.1112,2.4959,3.1668,7.4879,3.1668,2.1702,0,4.39-0.20714,6.6596-0.62142l0.14813,1.3025c-2.072,0.39441-4.3413,0.59162-6.8077,0.59162-5.9987,0-8.9981-1.4503-8.9981-4.3509-0.00001-1.164,0.70542-2.407,2.1163-3.729,1.4108-1.322,3.3694-2.516,5.8756-3.5818-0.2174-1.2627-0.53323-2.1309-0.9475-2.6045-0.4143-0.47359-0.95685-0.71039-1.6276-0.7104-0.98635,0.00001-2.2935,0.59194-3.9214,1.7758-1.628,1.1839-3.241,2.8019-4.8391,4.854l-1.1254-0.73976c2.6838-3.4726,4.677-6.7382,5.9795-9.7965-2.1311,0.059-4.3708,0.0885-6.7192,0.0885v-1.2429c2.2497,0.00002,4.6571-0.0494,7.2223-0.14813,0.55217-1.4994,1.0258-2.9792,1.4208-4.4394l1.4199,0.32516c-0.4143,1.5193-0.84815,2.8711-1.3016,4.0556,3.9068-0.17762,7.6854-0.47358,11.336-0.88788l0.0885,1.2429c-4.0845,0.45344-8.0602,0.76897-11.927,0.94659-0.61181,1.4801-1.4801,3.1574-2.605,5.032l0.0298,0.0298c2.0522-1.5391,3.759-2.3087,5.1205-2.3087,0.98632,0.00001,1.7754,0.31073,2.3674,0.93214,0.59191,0.62145,1.036,1.6424,1.3323,3.0629z"/>
    <path d="m158.74,588.97c-1.5584-0.71054-2.9888-1.0658-4.2913-1.0658-1.4602,0.00001-2.5752,0.27143-3.3447,0.81428-0.76957,0.54285-1.1544,1.2975-1.1543,2.264-0.00001,1.0658,0.38974,1.8947,1.1692,2.4866,0.77949,0.59192,1.8894,0.88788,3.3298,0.88788,1.559,0,2.6639-0.3503,3.3149-1.0509,0.65092-0.70061,0.97639-1.8696,0.97641-3.5068zm-0.0289-1.391c-0.0199-0.74968-0.0497-1.914-0.0894-3.4928-0.0193-0.17763-0.0339-0.45387-0.0438-0.82873-0.01-0.37483-0.0149-0.65107-0.0149-0.82872-3.4727,0.23726-6.9851,0.35589-10.537,0.35588v-1.2438c3.8478,0.00001,7.3502-0.10838,10.507-0.32517-0.0392-1.9335-0.0587-3.4037-0.0587-4.4105-4.0056,0.21739-7.8829,0.32608-11.632,0.32607v-1.2429c4.2422,0.00002,8.1292-0.10867,11.661-0.32607,0.0198-1.3416,0.0987-2.8115,0.23665-4.4096l1.3919,0.0298c-0.13851,1.5386-0.2177,2.969-0.23755,4.2913,2.723-0.15775,5.5645-0.41427,8.5248-0.76956l0.11833,1.2429c-2.9602,0.33542-5.8413,0.59194-8.6431,0.76956-0.00002,1.9534,0.01,3.4137,0.0298,4.3807,1.8745-0.13848,4.3114-0.38506,7.3108-0.73975l0.11833,1.2429c-2.3677,0.29567-4.8342,0.54226-7.3994,0.73975-0.00002,0.19752,0.005,0.48867,0.0149,0.87344,0.01,0.38479,0.0245,0.67563,0.0438,0.87253,0.0199,0.49378,0.0447,1.1994,0.0745,2.1167,0.0298,0.9174,0.0447,1.5832,0.0447,1.9975,2.0515,1.0261,4.6953,2.7823,7.9314,5.2686l-0.82827,1.036c-2.9205-2.2695-5.2882-3.8876-7.1031-4.854v0.14813c-0.00002,2.0516-0.4539,3.5362-1.3616,4.4539-0.90777,0.91769-2.3678,1.3765-4.3803,1.3765-1.8553,0-3.2959-0.40947-4.322-1.2284s-1.5391-1.9585-1.5391-3.4188c0-1.3416,0.518-2.3972,1.554-3.1668,1.036-0.76956,2.4717-1.1543,4.3071-1.1543,1.3416,0,2.782,0.3059,4.3211,0.91769z"/>
    <path d="m198.26,592.88,0.17703,1.2727c-2.2888,0.43416-4.2717,0.65124-5.9487,0.65124-4.8739,0-7.3108-1.2034-7.3108-3.6103-0.00001-1.6776,1.3714-3.572,4.1143-5.6832l0.9177,0.9177c-2.4273,1.8944-3.641,3.4531-3.641,4.6761-0.00001,1.5987,1.9733,2.3981,5.9198,2.3981,1.618,0,3.5419-0.20745,5.7717-0.62234zm-0.74066-11.394c-3.4329,0.00002-6.9745,0.37486-10.625,1.1245l-0.17793-1.2727c3.7888-0.76954,7.3897-1.1543,10.803-1.1543zm-14.236-5.3571c3.0981-0.23663,6.1369-0.59191,9.1164-1.0658l0.17704,1.2727c-2.9795,0.47392-6.1857,0.83913-9.6186,1.0956-1.4404,5.7814-3.463,11.957-6.068,18.527l-1.3025-0.41369c2.5261-6.3733,4.4993-12.372,5.9198-17.995-2.1112,0.13791-3.9758,0.2168-5.5938,0.23665v-1.3025c2.2888-0.0397,4.2618-0.11861,5.9189-0.23665,0.47389-1.8546,0.88848-3.6798,1.2438-5.4754l1.3612,0.17703c-0.33541,1.7168-0.72019,3.4435-1.1543,5.1801z"/>
    <path d="m227.85,592.88,0.17704,1.2727c-2.2888,0.43416-4.2718,0.65124-5.9488,0.65124-4.8739,0-7.3108-1.2034-7.3108-3.6103-0.00002-1.6776,1.3714-3.572,4.1143-5.6832l0.91769,0.9177c-2.4273,1.8944-3.641,3.4531-3.641,4.6761-0.00002,1.5987,1.9733,2.3981,5.9198,2.3981,1.618,0,3.5419-0.20745,5.7717-0.62234zm-0.74066-11.394c-3.4329,0.00002-6.9745,0.37486-10.625,1.1245l-0.17794-1.2727c3.7888-0.76954,7.3897-1.1543,10.803-1.1543zm-14.236-5.3571c3.0981-0.23663,6.1369-0.59191,9.1164-1.0658l0.17703,1.2727c-2.9795,0.47392-6.1857,0.83913-9.6186,1.0956-1.4404,5.7814-3.463,11.957-6.068,18.527l-1.3025-0.41369c2.5261-6.3733,4.4993-12.372,5.9198-17.995-2.1112,0.13791-3.9758,0.2168-5.5938,0.23665v-1.3025c2.2888-0.0397,4.2618-0.11861,5.9189-0.23665,0.47389-1.8546,0.88847-3.6798,1.2438-5.4754l1.3612,0.17703c-0.33541,1.7168-0.72019,3.4435-1.1543,5.1801z"/>
    <path d="m252.45,576.01,1.2727-0.59252c2.6639,4.3217,4.2524,9.4717,4.7655,15.45l-1.4208,0.0894c-0.51306-5.7813-2.0522-10.764-4.6174-14.947zm-14.799-1.0658c-0.41429,2.4074-0.62143,4.8444-0.62142,7.3108-0.00001,1.5193,0.143,2.9596,0.42903,4.3211,0.28602,1.3615,0.64612,2.4812,1.0803,3.3592,0.43415,0.87795,0.90278,1.5734,1.4059,2.0865,0.5031,0.51305,0.97173,0.76957,1.4059,0.76957,0.15775,0,0.33524-0.0494,0.53246-0.14814,0.19719-0.0987,0.43896-0.32561,0.7253-0.68059,0.28632-0.35497,0.56752-0.80373,0.84363-1.3463,0.27607-0.54254,0.57204-1.3171,0.88788-2.3236,0.31582-1.0065,0.602-2.1706,0.85853-3.4924l1.391,0.23665c-0.67082,3.3938-1.4699,5.7714-2.3972,7.1329-0.92734,1.3615-1.8745,2.0422-2.8416,2.0422-1.4012,0-2.7135-1.1247-3.9368-3.374-1.2233-2.2494-1.8349-5.1104-1.8349-8.583,0-2.4466,0.21708-4.9428,0.65124-7.4888z"/>
    <path d="m264.64,575.71c6.7683,0.00002,14.345-0.58197,22.731-1.746l0.14813,1.3314c-4.1832,0.57267-7.5376,1.8208-10.063,3.7444-2.5255,1.9236-3.7882,4.1186-3.7882,6.5851-0.00001,2.2888,0.87794,4.1386,2.6338,5.5495s4.2419,2.2446,7.458,2.5011l-0.14722,1.3621c-3.5714-0.27639-6.3685-1.2383-8.3911-2.8859-2.0227-1.6475-3.034-3.7737-3.034-6.3787-0.00001-2.0124,0.70542-3.877,2.1163-5.5938,1.4108-1.7167,3.4184-3.0882,6.0228-4.1143l-0.0289-0.0587c-5.5646,0.70997-10.784,1.0649-15.658,1.0649z"/>
    <path d="m296.88,578.02,0,18.765-1.391,0,0-15.953c-0.98694,2.0522-2.0919,3.8478-3.3149,5.3869l-0.68105-1.4208c2.8807-3.8478,4.913-8.4453,6.0969-13.792l1.3612,0.26645c-0.47331,2.328-1.1637,4.5773-2.0711,6.7481zm5.2975,1.8941,13.556,0,0-6.6885-13.556,0zm5.1205,5.2686-8.1689,0,0-1.214,8.9683,0,0-2.8407-5.9198,0-1.391,0,0-9.1164,16.368,0,0,9.1164-7.636,0,0,2.8407,9.0857,0,0,1.214-8.2574,0c1.8745,3.1764,4.8046,6.1559,8.7903,8.9385l-0.65124,1.1832c-4.0447-2.8609-7.0338-5.9093-8.9674-9.1453v10.507h-1.4208v-10.478c-2.072,3.295-5.0714,6.3239-8.9981,9.0866l-0.70995-1.1543c3.9857-2.7627,6.9552-5.7422,8.9087-8.9385z"/>
    <path d="m339.38,593.56,0-6.1267-10.004,0,0-1.2429,10.004,0,0-2.6338,0.68014,0c2.0323-1.2633,3.8279-2.6152,5.3869-4.0556h-13.26v-1.2727h15.035v1.2727c-1.9137,1.9143-4.0447,3.6015-6.3931,5.0618v1.6276h7.2512v1.2429h-7.2512v6.3633c-0.00002,1.046-0.15297,1.7022-0.45885,1.9686-0.30591,0.26645-1.0704,0.39968-2.2933,0.39968-0.57268,0-1.7469-0.0494-3.5226-0.14813v-1.2429c1.7366,0.0982,2.8614,0.14723,3.3745,0.14723,0.71053,0,1.1299-0.0641,1.2582-0.19239,0.12824-0.12826,0.19237-0.51786,0.19239-1.1688zm-16.723-19.06,0-1.2727,9.1453,0c0.55217-1.0459,1.0158-2.072,1.391-3.0782l1.391,0.26645c-0.37455,1.0255-0.7789,1.9628-1.213,2.8118h14.443v1.2727h-15.124c-1.4404,2.6242-3.2162,5.0314-5.3273,7.2214v14.828h-1.4208v-13.615c-1.0261,1.0261-2.1904,2.0028-3.4928,2.9301l-0.59162-1.3314c1.5192-1.0459,2.8807-2.1708,4.0844-3.3745v-2.7224h1.4208v1.213c1.3615-1.5391,2.6043-3.2556,3.7286-5.1494z"/>
    <path d="m353.39,595.38c-0.83821-0.83881-1.2573-1.8601-1.2573-3.0638s0.41925-2.2298,1.2578-3.0782c0.83851-0.84843,1.8596-1.2726,3.0633-1.2727,1.2037,0.00001,2.2298,0.42423,3.0782,1.2727,0.84843,0.84845,1.2726,1.8745,1.2727,3.0782-0.00001,1.2037-0.42423,2.2248-1.2727,3.0633-0.84846,0.8385-1.8745,1.2578-3.0782,1.2578s-2.225-0.41911-3.0638-1.2573zm0.84363-5.2984c-0.6118,0.62143-0.9177,1.3663-0.91769,2.2346-0.00001,0.86831,0.30589,1.6082,0.91769,2.2197,0.61179,0.61149,1.3517,0.91724,2.2197,0.91724,0.86801,0,1.6129-0.30575,2.2346-0.91724,0.62172-0.61149,0.93259-1.3514,0.93259-2.2197,0-0.86831-0.31087-1.6132-0.93259-2.2346-0.62174-0.62142-1.3666-0.93214-2.2346-0.93214-0.86802,0-1.6079,0.31072-2.2197,0.93214z"/>
   </g>
   <g style="letter-spacing:0px;word-spacing:0px;" font-size="19.99999809px" line-height="125%">
    <path d="m38.28,620.36,3.7402-14.6,1.3196,0,3.7402,14.6-1.0602,0-1.12-4.6002-4.48,0-1.12,4.6002zm2.3602-5.4999,4.0399,0-2.0001-8.2001-0.04028,0z"/>
    <path d="m51.04,609.96,0,2.3596,0.04028,0c0.82641-1.7065,2.0597-2.5598,3.7-2.5598,0.46671,0.00001,0.93322,0.06,1.3995,0.18005v0.9198c-0.41301-0.13305-0.87952-0.19957-1.3995-0.19958-1.04,0.00001-1.9167,0.42664-2.63,1.2799-0.7133,0.85328-1.07,1.9265-1.0699,3.2196v5.2002h-1.0004v-10.4z"/>
    <path d="m66.04,605.36,0,15-0.96008,0,0-1.8201-0.03967,0c-0.64006,1.3468-1.5934,2.0203-2.8601,2.0203-1.0002,0-1.8269-0.42338-2.4802-1.2701-0.65328-0.84676-0.97992-2.2235-0.97992-4.1302-0.000001-3.5998,1.1534-5.3998,3.4601-5.3998,1.3066,0.00001,2.2465,0.67343,2.8198,2.0203h0.04028v-6.4203zm-6.3202,9.7998c-0.000002,1.4669,0.23,2.5736,0.69,3.3203,0.46,0.74666,1.1166,1.12,1.9699,1.12,0.81339,0,1.4602-0.36,1.9403-1.08,0.48014-0.72001,0.72021-1.74,0.72021-3.06v-0.59998c-0.000007-1.3066-0.24333-2.3232-0.72998-3.0499-0.48666-0.72672-1.1302-1.0901-1.9305-1.0901-1.7733,0.00001-2.6599,1.4799-2.6599,4.4397z"/>
    <path d="m74.96,618.58-0.04028,0c-0.5599,1.32-1.5066,1.98-2.84,1.98-1.04,0-1.7734-0.29674-2.2-0.8902-0.42664-0.59346-0.63996-1.6302-0.63995-3.11v-6.5997h0.96008v6.4197c-0.000002,1.32,0.1533,2.1967,0.4599,2.63,0.3066,0.43335,0.84666,0.65003,1.6202,0.65003,0.79996,0,1.4433-0.37669,1.9299-1.1301,0.48665-0.75337,0.72997-1.8033,0.72998-3.1497v-5.4199h0.97961v10.4h-0.93994z"/>
    <path d="m80.38,609.96,3.3997,0,0,9.5196,2.3004,0,0,0.88013-6.2006,0,0-0.88013,2.9004,0,0-8.6401-2.3999,0zm2.1796-2.5,0-2.3004,1.2201,0,0,2.3004z"/>
    <path d="m90.3,611.76,0.01953,0c0.26692-0.62662,0.6604-1.1166,1.1804-1.47,0.52002-0.35339,1.1133-0.53008,1.7798-0.53009,1.0665,0.00001,1.8265,0.31332,2.28,0.93994,0.45348,0.62663,0.68023,1.7133,0.68024,3.2599v6.4001h-0.98022v-6.2201c-0.000007-1.3997-0.16002-2.3296-0.48004-2.7896-0.32004-0.45999-0.88664-0.68999-1.6998-0.69-0.8132,0.00001-1.4765,0.38331-1.9901,1.1499-0.51351,0.76661-0.77027,1.8099-0.77026,3.1299v5.4199h-0.99976v-10.4h0.96008z"/>
    <path d="m99.82,611.07c0.62663-0.8736,1.58-1.3104,2.8601-1.3104,1.2801,0.00001,2.2335,0.43671,2.8601,1.3101,0.62661,0.87342,0.93993,2.2367,0.93994,4.09-0.00001,1.8532-0.31333,3.2166-0.93994,4.09-0.62664,0.87341-1.58,1.3101-2.8601,1.3101s-2.2335-0.43671-2.8601-1.3101c-0.62663-0.87341-0.93994-2.2367-0.93994-4.09-0.000001-1.8532,0.31331-3.2164,0.93994-4.0897zm0.75012,7.5397c0.44678,0.69987,1.1501,1.0498,2.11,1.0498,0.95987,0,1.6632-0.35004,2.11-1.0501,0.44677-0.70007,0.67016-1.8501,0.67017-3.45-0.00001-1.5999-0.2234-2.7498-0.67017-3.4497-0.44678-0.69986-1.1501-1.0498-2.11-1.0498-0.95989,0.00001-1.6632,0.34994-2.11,1.0498-0.44678,0.69988-0.67016,1.8498-0.67016,3.4497-0.000002,1.5999,0.22338,2.75,0.67016,3.4503z"/>
    <path d="m119.44,612.82c1.6264-0.59976,3.3862-1.0598,5.2795-1.38l0.12024,0.85999c-1.9068,0.33367-3.6601,0.8071-5.26,1.4203,0.13345,0.94686,0.20019,2.2068,0.2002,3.7799h-0.96009c-0.00001-1.2398-0.0468-2.373-0.14038-3.3996-1.3998,0.62663-2.4996,1.2966-3.2996,2.0099-0.79997,0.71331-1.2,1.3633-1.2,1.9501,0,1.4266,1.6866,2.1399,5.0598,2.1399,1.4664,0,2.9665-0.13997,4.5001-0.41992l0.1001,0.88012c-1.4002,0.26652-2.9336,0.39978-4.6002,0.39978-4.0536,0-6.0803-0.98002-6.0803-2.9401,0-0.78654,0.47668-1.6265,1.4301-2.5198,0.95336-0.89335,2.2768-1.7001,3.9703-2.4204-0.1469-0.85327-0.36032-1.4399-0.64025-1.76-0.27996-0.32002-0.64658-0.48003-1.0999-0.48004-0.66651,0.00001-1.5498,0.39999-2.6498,1.2-1.1001,0.79997-2.19,1.8933-3.27,3.28l-0.76049-0.49988c1.8136-2.3466,3.1604-4.5532,4.0405-6.6199-1.44,0.0399-2.9535,0.0598-4.5404,0.0598v-0.83984c1.5202,0.00001,3.147-0.0334,4.8804-0.1001,0.37312-1.0132,0.69315-2.0131,0.96008-2.9999l0.95947,0.21973c-0.27995,1.0266-0.57312,1.9401-0.87951,2.7405,2.64-0.12003,5.1933-0.32002,7.6599-0.59998l0.0598,0.83984c-2.76,0.30641-5.4466,0.51963-8.0597,0.63965-0.41342,1.0002-1.0002,2.1336-1.7602,3.4003l0.0201,0.0201c1.3867-1.04,2.5401-1.56,3.4601-1.5601,0.6665,0.00001,1.1997,0.20998,1.5997,0.62989,0.39998,0.41993,0.70006,1.1098,0.90027,2.0697z"/>
    <path d="m139.66,611.96-4.0802,0,0,2.4402,4.0802,0zm0.90027,0,0,2.4402,4.1199,0,0-2.4402zm-0.90027-0.75988,0-2.2797-4.0802,0,0,2.2797zm0.90027,0,4.1199,0,0-2.2797-4.1199,0zm-7.32-2.7399-0.64026,0.57983c-1.0266-1.1865-2.0933-2.3197-3.2001-3.3997l0.65979-0.58044c1.1336,1.1336,2.1938,2.2671,3.1805,3.4003zm-4.2401,3.4003,3.8196,0,0,6.0596c0.54687,0.98673,1.3103,1.6634,2.2903,2.03,0.98002,0.36661,2.59,0.54992,4.83,0.54992h6.2799l-0.0403,0.84046h-6.2799c-2.1867,0-3.8333-0.18342-4.9399-0.55024s-1.9532-1.0102-2.54-1.9302c-0.7601,0.94686-1.8001,1.887-3.1201,2.8204l-0.45959-0.78003c1.2797-0.89355,2.2929-1.8068,3.0396-2.7399v-5.4401h-2.8796zm7.3401-5.1605,0.52002-0.6195c1.1999,0.65309,2.2664,1.2663,3.1995,1.8396,1.427-0.61319,2.787-1.3198,4.0802-2.1198h-9.8602v-0.80017h11.34v0.80017c-0.85329,0.65349-2.2467,1.4268-4.1803,2.3199h4.1803v8.96c-0.00002,0.8134-0.09,1.3234-0.27008,1.5302-0.18007,0.20671-0.62349,0.31006-1.3303,0.31006-0.58636,0-1.2795-0.0266-2.0795-0.0799l-0.0201-0.80017c0.78652,0.0533,1.4532,0.0799,2.0001,0.0799,0.37311,0,0.59304-0.0467,0.65979-0.14007,0.0667-0.0934,0.10008-0.39337,0.1001-0.89997v-1.9202h-4.1199v3.6804h-0.90027v-3.6804h-4.0802v3.8403h-0.9198v-10.88h4.1803c-0.34669-0.20018-1.18-0.67361-2.5-1.4203z"/>
    <path d="m158.66,605.94,0.8197-0.44007c0.93342,1.4803,1.6467,2.6805,2.1399,3.6005l-0.83985,0.41992c-0.66651-1.2268-1.3731-2.4202-2.1198-3.5803zm2.84-0.85999,0.8197-0.45959c0.81338,1.2797,1.5401,2.5063,2.1802,3.6798l-0.83985,0.41992c-0.62664-1.1466-1.3466-2.36-2.16-3.6401zm-9.2804,0.18006,0.98023,0c-0.00001,1.2134-0.0667,2.9268-0.2002,5.1404-0.10661,1.7464-0.15991,3.3663-0.15991,4.8596,0,3.3602,1.2333,5.0403,3.7,5.0403,1.3733,0,2.6867-0.52674,3.9401-1.5802s2.3601-2.5869,3.32-4.6002l0.83985,0.42053c-0.99978,2.1598-2.1997,3.8131-3.5999,4.9597s-2.9002,1.72-4.5001,1.72c-3.1331,0-4.6997-1.9867-4.6997-5.9601,0-1.2398,0.06-2.8532,0.18006-4.8401,0.13305-2.2131,0.19958-3.9331,0.19958-5.1599z"/>
    <path d="m169.98,607.6c4.5736,0.00002,9.6936-0.39325,15.36-1.1798l0.1001,0.89966c-2.8268,0.38698-5.0934,1.2304-6.7999,2.5302-1.7066,1.2999-2.5598,2.7831-2.5598,4.4498-0.00001,1.5466,0.59325,2.7966,1.7798,3.75,1.1865,0.95337,2.8664,1.5167,5.0397,1.6901l-0.0995,0.92041c-2.4133-0.18676-4.3034-0.83679-5.6702-1.9501s-2.0502-2.55-2.0502-4.3103c0-1.3599,0.47668-2.6198,1.4301-3.7799,0.95336-1.1601,2.31-2.0868,4.0698-2.7802l-0.0195-0.0397c-3.7602,0.47975-7.287,0.71961-10.58,0.7196z"/>
    <path d="m190.78,607.3,0-0.87952,13.84,0,0,0.87952c-0.4,7.0268-4.3532,11.347-11.86,12.96l-0.23987-0.88012c7.0532-1.5596,10.76-5.5863,11.12-12.08z"/>
    <path d="m211.54,610.58,7.9401,0,0-2.58,0.9198,0,0,2.58,3.7402,0,0,0.84045-3.7402,0,0,7.2797c-0.00002,0.76009-0.11334,1.2568-0.33997,1.4902-0.22666,0.23336-0.71982,0.35004-1.4795,0.35004-0.86671,0-1.7802-0.08-2.7405-0.23987l0.1001-0.82032c0.90656,0.1469,1.7598,0.22034,2.5598,0.22034,0.42683,0,0.69691-0.0567,0.81024-0.16998,0.11331-0.11332,0.16998-0.3834,0.16999-0.81024v-6.2c-2.2664,2.5199-4.753,4.5666-7.4597,6.1401l-0.4602-0.72021c1.3867-0.79997,2.7634-1.7699,4.1299-2.9098,1.3666-1.1399,2.5833-2.3432,3.6502-3.6099h-7.8003z"/>
    <path d="m234.12,605.3,0.98022,0,0,5.7599c3.2133,0.88013,6.3267,2.0268,9.3402,3.4399l-0.3601,0.83984c-2.9602-1.3867-5.9536-2.5-8.9801-3.3398v9.0198h-0.98022z"/>
    <path d="m261.86,605.82,0.97961,0,0,5.8197c-0.00001,2.9334-0.63671,5.1133-1.9101,6.5399s-3.4366,2.3732-6.4896,2.84l-0.16052-0.85998c2.8402-0.45329,4.8136-1.3066,5.9204-2.5598s1.6601-3.2399,1.6602-5.9601zm-9.3201,8.1,0-8.1,0.97961,0,0,8.1z"/>
    <path d="m270.78,607.3,0-0.87952,13.84,0,0,0.87952c-0.4,7.0268-4.3532,11.347-11.86,12.96l-0.23987-0.88012c7.0532-1.5596,10.76-5.5863,11.12-12.08z"/>
    <path d="m292.46,620.82,0-15.1,0.99975,0,0,14.14c2.3734-0.22664,4.5301-0.98002,6.47-2.2601s3.3631-2.9002,4.2697-4.8602l0.84045,0.40039c-0.93344,2.0801-2.4368,3.8068-4.5102,5.1801s-4.43,2.2066-7.07,2.5z"/>
    <path d="m323.88,608.16c-0.59979,7.3999-4.7132,11.52-12.34,12.36l-0.16-0.88c7.1199-0.73324,10.96-4.5597,11.52-11.479h-7.8198c-0.7601,2.1733-2.0602,4.1064-3.9002,5.7996l-0.63965-0.62012c2.4801-2.3197,3.9134-5.133,4.2999-8.4399l0.93994,0.0799c-0.0667,0.73366-0.21343,1.507-0.44006,2.32h8.54z"/>
    <path d="m334.8,611.14,0.44006-0.75989c1.8803,1.04,3.8804,2.2933,6.0004,3.7598,0.98672-1.7464,1.58-3.8798,1.7798-6.4002h-7.9199c-0.74667,2.24-2.0734,4.2468-3.9801,6.0205l-0.59998-0.62012c2.4935-2.3336,3.9335-5.1469,4.3201-8.4399l0.88013,0.08c-0.0936,0.78655-0.22035,1.4931-0.38025,2.1198h8.6401v0.83984c-0.60019,7.7734-4.7136,12.1-12.34,12.98l-0.18006-0.88013c4.2932-0.48014,7.3999-2.1269,9.3201-4.9402-1.96-1.3733-3.9535-2.6265-5.9802-3.7598z"/>
    <path d="m359.44,612.82c1.6264-0.59976,3.3862-1.0598,5.2795-1.38l0.12024,0.85999c-1.9068,0.33367-3.6601,0.8071-5.26,1.4203,0.13345,0.94686,0.20018,2.2068,0.20019,3.7799h-0.96008c-0.00001-1.2398-0.0468-2.373-0.14038-3.3996-1.3998,0.62663-2.4996,1.2966-3.2996,2.0099-0.79997,0.71331-1.2,1.3633-1.2,1.9501-0.00001,1.4266,1.6866,2.1399,5.0598,2.1399,1.4665,0,2.9665-0.13997,4.5001-0.41992l0.10009,0.88012c-1.4002,0.26652-2.9336,0.39978-4.6002,0.39978-4.0536,0-6.0803-0.98002-6.0803-2.9401,0-0.78654,0.47668-1.6265,1.4301-2.5198,0.95336-0.89335,2.2768-1.7001,3.9703-2.4204-0.1469-0.85327-0.36032-1.4399-0.64026-1.76-0.27995-0.32002-0.64657-0.48003-1.0998-0.48004-0.66651,0.00001-1.5498,0.39999-2.6498,1.2-1.1001,0.79997-2.19,1.8933-3.27,3.28l-0.7605-0.49988c1.8136-2.3466,3.1604-4.5532,4.0405-6.6199-1.44,0.0399-2.9535,0.0598-4.5404,0.0598v-0.83984c1.5202,0.00001,3.147-0.0334,4.8804-0.1001,0.37312-1.0132,0.69314-2.0131,0.96008-2.9999l0.95947,0.21973c-0.27996,1.0266-0.57313,1.9401-0.87952,2.7405,2.64-0.12003,5.1933-0.32002,7.6599-0.59998l0.0598,0.83984c-2.76,0.30641-5.4466,0.51963-8.0597,0.63965-0.41342,1.0002-1.0002,2.1336-1.7603,3.4003l0.0202,0.0201c1.3867-1.04,2.5401-1.56,3.4601-1.5601,0.66649,0.00001,1.1997,0.20998,1.5997,0.62989,0.39997,0.41993,0.70006,1.1098,0.90027,2.0697z"/>
    <path d="m372.86,609.2-2.58,0,0,0.90027,2.58,0zm0.96008,0,0,0.90027,2.58,0,0-0.90027zm-0.96008-0.69946,0-0.90027-2.58,0,0,0.90027zm0.96008,0,2.58,0,0-0.90027-2.58,0zm3.96-3.2202,0,0.80017-3.96,0,0,0.78003,3.4399,0,0,3.9795-3.4399,0,0,0.78003,3.9801,0,0,0.78003-3.9801,0,0,1.0803-0.96008,0,0-1.0803-4.0601,0,0-0.78003,4.0601,0,0-0.78003-2.58,0-0.83984,0,0-3.9795,3.4198,0,0-0.78003-4.0601,0,0-0.80017,4.0601,0,0-0.98023,0.96008,0,0,0.98023zm2.2198,0.15991,0,0.22034c-0.00001,1.2931-0.56662,2.2597-1.6998,2.8998l-0.64026-0.64026c0.9733-0.53303,1.46-1.3664,1.46-2.5v-0.78003h5.2405v2.5c-0.00001,0.12005,0.0299,0.19339,0.0897,0.22003,0.0598,0.0267,0.24982,0.04,0.57007,0.04,0.50658,0.00001,0.80656-0.0499,0.89997-0.14984,0.0934-0.0999,0.15999-0.44992,0.19989-1.0501l0.83984,0.08c-0.0399,0.50701-0.0765,0.86712-0.10986,1.0803-0.0334,0.21323-0.13003,0.39654-0.28992,0.54993-0.15993,0.15342-0.34995,0.24009-0.57007,0.26001-0.22015,0.0199-0.58351,0.0299-1.0901,0.0299-0.57334,0.00001-0.96335-0.0467-1.17-0.14008-0.20672-0.0934-0.31008-0.28675-0.31006-0.58014v-2.0398zm-1.3,4.6399,0.70008-0.52002c0.66649,0.7068,1.5065,1.3536,2.5201,1.9403,1.1731-0.54687,2.1264-1.227,2.8601-2.0404h-6.9604v-0.78003h8.1201v0.78003c-0.83986,1.04-1.8799,1.8868-3.1201,2.5403,1.1735,0.60018,2.487,1.0936,3.9404,1.4801l-0.28015,0.8197c-1.6268-0.42642-3.1667-1.0396-4.6198-1.8396-1.1336,0.46672-2.4003,0.85328-3.8,1.1597l-0.32043-0.8197c1.2935-0.27994,2.3602-0.57332,3.2001-0.88013-0.82643-0.53344-1.5731-1.1468-2.24-1.8402zm3.7402,5.6201,0.65979-0.57984c1.3867,1.1601,2.5934,2.2534,3.62,3.28l-0.67993,0.57984c-0.0399-0.0399-0.21323-0.20986-0.52002-0.50995-0.30682-0.30009-0.5534-0.53009-0.73975-0.69l-6.6205,0.18005v3.7396h-0.97961v-3.7195l-8.02,0.21973-0.0201-0.80017,4.8401-0.11963c0.0932-0.0403,0.23976-0.10701,0.43976-0.2002,0.19999-0.0932,0.34678-0.15991,0.44037-0.20019-1.0799-0.71981-2.36-1.533-3.8403-2.4396l0.62012-0.67993c0.27994,0.15992,0.71329,0.42644,1.3,0.79956,1.0665-0.54646,2.2266-1.2064,3.4802-1.98l0.59998,0.6604c-0.85328,0.53305-1.9401,1.1462-3.2605,1.8396,0.96028,0.61361,1.6471,1.0604,2.0605,1.3403,2.2664-1.0803,4.3264-2.1938,6.1798-3.3404l0.62012,0.64026c-2.0134,1.2398-4.1933,2.4064-6.5399,3.4998l7.8796-0.17944c-0.94647-0.84025-1.4531-1.287-1.5198-1.3403zm-13.08,5.3003c2.1065-0.81339,3.8597-1.6868,5.2594-2.6202l0.52002,0.64026c-1.453,0.95988-3.2463,1.8597-5.3796,2.6996zm10.6-2.0404,0.41992-0.70008c2.0797,0.90699,3.9463,1.8471,5.6,2.8204l-0.44007,0.7196c-1.6134-0.94645-3.4733-1.8931-5.5798-2.84z"/>
    <path d="m402.78,604.04,0.73975-0.31982c0.65346,1.1601,1.1869,2.1802,1.6003,3.0603l-0.74036,0.27954c-0.52003-1.0799-1.0533-2.0866-1.5997-3.02zm4.0399,2.7002c-0.46674-1.0002-1.0134-2.0335-1.64-3.1l0.73975-0.31982c0.66689,1.1597,1.2136,2.2062,1.64,3.1396zm-15.7-1.12,0.96008,0.13977c-0.66651,2.4801-0.99976,5.0134-0.99976,7.6001s0.33325,5.12,0.99976,7.6001l-0.96008,0.13977c-0.66651-2.4797-0.99976-5.0595-0.99976-7.7396,0-2.68,0.33325-5.2601,0.99976-7.7402zm9.92-0.49988,0.96008,0c-0.00001,0.94647,0.0399,2.2864,0.11963,4.0198v0.2002c0.89354-0.0667,2.0404-0.18005,3.4406-0.33997l0.08,0.85998c-0.72023,0.0798-1.8803,0.19309-3.4802,0.33997,0.0533,1.1731,0.0799,2.0463,0.0799,2.6196-0.00001,2.6937-0.3533,4.6205-1.0599,5.7803-0.7066,1.1599-2.1134,2.1131-4.2203,2.8598l-0.37964-0.83984c0.7731-0.27995,1.4063-0.55328,1.8997-0.82001,0.49336-0.26672,0.93668-0.5901,1.33-0.97015,0.39325-0.38004,0.68663-0.8434,0.88012-1.3901,0.19347-0.54666,0.34016-1.1866,0.44007-1.9199,0.0999-0.73323,0.14982-1.6333,0.14984-2.7002-0.00002-0.83984-0.0199-1.6864-0.0598-2.5397-1.9865,0.14649-4.2198,0.21973-6.6998,0.21972v-0.87951c2.4532,0.00001,4.673-0.0734,6.6595-0.22034-0.00001-0.0264-0.003-0.073-0.01-0.13977-0.007-0.0667-0.01-0.11352-0.01-0.14038-0.0802-1.733-0.12025-3.0662-0.12024-3.9996z"/>
    <path d="m418.42,616.56c-1.0531-0.48014-2.0197-0.72021-2.8998-0.72021-0.98674,0-1.7401,0.18341-2.2601,0.55023-0.52003,0.36683-0.78003,0.87677-0.78003,1.5298,0,0.72021,0.26336,1.2803,0.7901,1.6803,0.52673,0.39999,1.2768,0.59998,2.2501,0.59998,1.0535,0,1.8001-0.23671,2.24-0.71014,0.43985-0.47343,0.65978-1.2633,0.65979-2.3697zm-0.0195-0.93994c-0.0134-0.50658-0.0336-1.2933-0.0604-2.3602-0.013-0.12003-0.0229-0.30669-0.0296-0.55999-0.007-0.25329-0.0101-0.43996-0.0101-0.56-2.3466,0.16032-4.7201,0.24048-7.1204,0.24048v-0.84046c2.6001,0.00001,4.9668-0.0732,7.1002-0.21972-0.0265-1.3066-0.0397-2.3-0.0397-2.9804-2.7067,0.1469-5.3268,0.22035-7.8601,0.22034v-0.83985c2.8666,0.00001,5.4932-0.0734,7.8796-0.22033,0.0134-0.90657,0.0667-1.8998,0.15991-2.9797l0.94055,0.0201c-0.0936,1.0396-0.1471,2.0062-0.16052,2.8998,1.84-0.10659,3.7602-0.27993,5.7605-0.52002l0.0799,0.83985c-2.0003,0.22665-3.9472,0.39999-5.8404,0.52001-0.00001,1.32,0.007,2.3067,0.0201,2.9602,1.2667-0.0936,2.9134-0.2602,4.9402-0.49988l0.0799,0.83985c-1.6,0.19979-3.2666,0.36642-5,0.49987-0.00001,0.13347,0.003,0.33021,0.0101,0.59021,0.007,0.26002,0.0166,0.45655,0.0296,0.5896,0.0134,0.33367,0.0302,0.81045,0.0503,1.4304,0.0201,0.61992,0.0302,1.0698,0.0302,1.3498,1.3863,0.69337,3.1728,1.8801,5.3595,3.5602l-0.55969,0.70008c-1.9735-1.5336-3.5734-2.627-4.7998-3.28v0.1001c-0.00001,1.3863-0.30671,2.3895-0.9201,3.0096-0.61342,0.62012-1.6,0.93017-2.9599,0.93017-1.2537,0-2.2272-0.27669-2.9205-0.83007-0.69337-0.55339-1.04-1.3234-1.04-2.3102-0.00001-0.90658,0.35003-1.6199,1.0501-2.1399,0.70006-0.52001,1.6702-0.78002,2.9105-0.78003,0.90657,0.00001,1.8799,0.20672,2.9199,0.62012z"/>
    <path d="m432.78,605.26,0.97962,0c-0.00001,1.44-0.0598,3.1535-0.17945,5.1404-0.12004,1.9731-0.18006,3.5929-0.18005,4.8596-0.00001,3.3602,1.2398,5.0403,3.7195,5.0403,1.3737,0,2.6838-0.52674,3.9304-1.5802,1.2465-1.0535,2.3499-2.5869,3.3102-4.6002l0.85999,0.42053c-1.0002,2.1598-2.2002,3.8131-3.6002,4.9597s-2.9001,1.72-4.5004,1.72c-3.1331,0-4.6997-1.9867-4.6997-5.9601-0.00001-1.2398,0.06-2.8531,0.18005-4.8398,0.12003-1.9867,0.18005-3.7068,0.18005-5.1602z"/>
    <path d="m458.16,608.02c-0.0533,0.9599-0.0665,2.06-0.0397,3.3002,1.4799-0.0134,3.0464-0.18005,4.6997-0.49988l0.14038,0.83984c-1.5466,0.31983-3.1533,0.48646-4.82,0.49988-0.00001,0.21322,0.01,0.52654,0.0299,0.93994,0.0199,0.41342,0.0366,0.72022,0.05,0.92041,0.0264,0.57333,0.0531,1.46,0.0799,2.6599,1.1999,0.53305,2.8066,1.5796,4.82,3.1396l-0.52002,0.6604c-1.7468-1.3603-3.1734-2.3136-4.2798-2.8601v0.29969c-0.00001,1.1336-0.25005,1.9504-0.75012,2.4502-0.50009,0.49988-1.3167,0.74982-2.45,0.74982-1.0136,0-1.807-0.23336-2.3804-0.70007-0.57333-0.46672-0.85999-1.1066-0.85999-1.9196,0-0.76009,0.29002-1.3668,0.87006-1.8201,0.58003-0.45328,1.3701-0.67992,2.3703-0.67993,0.7731,0.00001,1.5198,0.11333,2.24,0.33997-0.0269-1.0136-0.0535-1.7804-0.08-2.3004-0.10702-2.5867-0.12045-4.6-0.0403-6.04zm-0.78003,9.1998c-0.71981-0.25309-1.453-0.37963-2.1997-0.37964-0.7601,0.00001-1.3501,0.1467-1.77,0.44007-0.41993,0.29338-0.62989,0.70007-0.62989,1.2201,0,0.58635,0.2066,1.0329,0.61982,1.3397,0.4132,0.30681,1.0066,0.46021,1.7801,0.46021,0.81338,0,1.3867-0.18006,1.72-0.54016,0.33324-0.36011,0.49986-0.97351,0.49987-1.8402-0.00001-0.0797-0.003-0.19633-0.0101-0.34974-0.007-0.15339-0.0101-0.27017-0.0101-0.35034z"/>
    <path d="m470.84,611.72,2.42-0.54017c3.2267-0.70637,5.38-1.0596,6.46-1.0596,1.3867,0.00001,2.4534,0.33662,3.2001,1.0098,0.74665,0.67323,1.12,1.6367,1.12,2.8903-0.00002,1.5999-0.88004,3.0832-2.6401,4.4498s-3.9666,2.2431-6.6196,2.6297l-0.16053-0.85999c2.4402-0.37313,4.457-1.153,6.0504-2.3398,1.5934-1.1867,2.3901-2.46,2.3901-3.8199-0.00001-2.0532-1.1735-3.0798-3.5205-3.0798-0.93304,0.00001-2.8864,0.33998-5.86,1.0199-0.0399,0.0134-0.26652,0.0634-0.67993,0.14984-0.41342,0.0865-0.82337,0.1764-1.2299,0.26978-0.4065,0.0934-0.64982,0.14679-0.72998,0.16021zm3.0005-6.6602c2.5997,0.78696,5.2063,1.287,7.8198,1.5002l-0.12024,0.85999c-2.6131-0.2132-5.2531-0.71308-7.9199-1.4996z"/>
    <path d="m489.95,620.89c-0.5664-0.56682-0.84961-1.2569-0.84961-2.0703,0-0.81339,0.28331-1.5068,0.84992-2.0801,0.56661-0.57332,1.2566-0.85998,2.07-0.85999,0.81339,0.00001,1.5067,0.28667,2.0801,0.85999,0.57332,0.57332,0.85998,1.2667,0.85999,2.0801-0.00001,0.8134-0.28667,1.5034-0.85999,2.07-0.57333,0.56661-1.2667,0.84991-2.0801,0.84992-0.8134-0.00001-1.5035-0.28321-2.0703-0.84961zm0.57007-3.5803c-0.41341,0.41992-0.62012,0.92326-0.62012,1.51,0,0.58676,0.20671,1.0867,0.62012,1.4999,0.41341,0.41321,0.91339,0.61981,1.4999,0.61982,0.58654-0.00001,1.0899-0.20661,1.51-0.61982,0.42012-0.4132,0.63018-0.91318,0.63019-1.4999-0.00001-0.58674-0.21007-1.0901-0.63019-1.51-0.42013-0.41992-0.92347-0.62988-1.51-0.62989-0.58655,0.00001-1.0865,0.20997-1.4999,0.62989z"/>
    <path d="m48.16,629.36,0,3.4998,6.6602,0,0,2.0398c-0.000018,6.3334-3.5732,9.9868-10.72,10.96l-0.16052-0.88013c6.6003-0.90657,9.9005-4.2464,9.9005-10.02v-1.2402h-12.141v4.6002h-0.95947v-5.4602h6.46v-3.4998z"/>
    <path d="m59.92,639.02c2.76-0.62703,5.3934-1.6838,7.9001-3.1705,2.5067-1.4866,4.62-3.2565,6.34-5.3098l0.70007,0.62012c-1.6,1.9068-3.5134,3.5667-5.7404,4.9799v9.66h-0.97961v-9.0601c-2.5069,1.4799-5.1738,2.5332-8.0005,3.1598z"/>
    <path d="m81.22,644.36c3.6267-0.33365,6.61-1.4905,8.9499-3.4705s3.8231-4.61,4.4498-7.89l0.90027,0.22034c-0.6535,3.4798-2.2235,6.2764-4.7101,8.3899-2.4866,2.1134-5.6498,3.3368-9.4897,3.67zm-0.15991-12.38,0.49988-0.78003c1.6801,1.0136,3.4334,2.2203,5.26,3.62l-0.5603,0.75989c-1.6532-1.2797-3.3864-2.4796-5.1996-3.5999z"/>
    <path d="m113.88,633.16c-0.59979,7.3999-4.7132,11.52-12.34,12.36l-0.15991-0.88013c7.1199-0.73323,10.96-4.5597,11.52-11.479h-7.8198c-0.7601,2.1733-2.0601,4.1065-3.9002,5.7996l-0.63964-0.62011c2.48-2.3197,3.9134-5.133,4.2999-8.4399l0.93994,0.0799c-0.0667,0.73366-0.21342,1.507-0.44006,2.32h8.54z"/>
    <path d="m119.72,631.8c2.1334,0.00001,4.3534-0.19326,6.6602-0.57983l0.20019,0.88012c-1.5466,1.2264-2.73,2.5397-3.5501,3.9398-0.82012,1.4002-1.2302,2.8069-1.2302,4.2203s0.42999,2.5567,1.29,3.4299c0.85998,0.87321,1.9766,1.3098,3.3499,1.3098,3.4668,0,5.2002-2.0532,5.2002-6.1597-0.00002-1.9202-0.4533-4.3668-1.3599-7.3401l0.78002-0.41992c0.62662,1.1467,1.49,2.3999,2.59,3.7598s2.1367,2.4532,3.11,3.28l-0.59998,0.70007c-0.73366-0.62662-1.5038-1.4233-2.3105-2.3901-0.8067-0.96679-1.5166-1.9234-2.1298-2.8699l-0.0397,0.0202c0.61319,2.253,0.91979,4.0664,0.9198,5.4401-0.00001,2.2266-0.52664,3.9231-1.5799,5.0897s-2.5801,1.7499-4.5804,1.7499c-1.6797,0-3.0362-0.50995-4.0695-1.5298-1.0333-1.0199-1.55-2.3632-1.55-4.0298-0.00001-1.3867,0.38329-2.7734,1.1499-4.1602,0.7666-1.3867,1.8632-2.6868,3.2898-3.9002l-0.0201-0.0397c-1.96,0.30641-3.8,0.45961-5.52,0.4596z"/>
    <path d="m153.64,633.9,0.23987,0.88013c-7.6933,2.1733-11.54,4.4466-11.54,6.8201,0,0.93303,0.47333,1.6629,1.42,2.1896,0.94664,0.52673,2.2667,0.7901,3.9603,0.7901,1.853,0,3.9062-0.19999,6.1597-0.59998l0.13977,0.9198c-2.2266,0.39999-4.3465,0.59998-6.3599,0.59998-1.9731,0-3.523-0.34658-4.6497-1.0397-1.1267-0.69316-1.6901-1.6399-1.6901-2.8403-0.00001-1.5999,1.2799-3.1065,3.8397-4.5197-0.58676-2.2803-1.0801-4.647-1.4801-7.1002l0.98023-0.13977c0.3601,2.2001,0.82681,4.4533,1.4002,6.7596,1.8534-0.92,4.3801-1.8266,7.58-2.7197z"/>
    <path d="m159.72,634.36c0.46671-0.0936,1.4467-0.33364,2.9401-0.72021,0.89355-0.24006,1.6003-0.42337,2.1204-0.54993,0.52001-0.12653,1.1834-0.24657,1.99-0.3601,0.80667-0.11352,1.5833-0.17028,2.33-0.17029,2.0129,0.00001,3.5728,0.42003,4.6796,1.2601,1.1068,0.84006,1.6601,2.0202,1.6602,3.5403-0.00002,2.2131-0.90669,3.9364-2.72,5.1697-1.8134,1.2333-4.6333,2.0233-8.4598,2.37l-0.12024-0.96008c3.5868-0.33325,6.1969-1.0232,7.8302-2.0697,1.6333-1.0466,2.4499-2.5366,2.45-4.4702-0.00001-1.2532-0.46337-2.2165-1.3901-2.8897-0.92673-0.67321-2.2568-1.0098-3.9902-1.0098-0.71981,0.00001-1.4831,0.0633-2.2897,0.18982-0.80669,0.12656-1.4267,0.24313-1.86,0.34973-0.43335,0.10662-1.13,0.28667-2.0898,0.54016-0.98674,0.27996-1.9468,0.52003-2.8802,0.72022z"/>
    <path d="m179.38,632.4c4.5736,0.00001,9.6936-0.39326,15.36-1.1798l0.10009,0.90026c-2.8402,0.38657-5.1102,1.2398-6.81,2.5598s-2.5498,2.8599-2.5498,4.6198c0,1.6402,0.5899,2.9436,1.7697,3.9102,1.1798,0.96659,2.863,1.5433,5.0497,1.73l-0.0995,0.9198c-2.4268-0.18677-4.3202-0.85012-5.6802-1.99-1.3601-1.1399-2.0401-2.6299-2.0401-4.4699-0.00001-1.4534,0.47667-2.7702,1.43-3.9502,0.95336-1.18,2.31-2.1165,4.0698-2.8094l-0.0195-0.0403c-3.7602,0.48016-7.287,0.72023-10.58,0.72022zm11.8,3.0603,0.76049-0.44007c0.58633,0.90659,1.2329,2.0132,1.9397,3.3197l-0.78003,0.38025c-0.64007-1.2-1.2801-2.2866-1.9202-3.2599zm2.6404-0.80017,0.78003-0.44007c0.76007,1.1735,1.4268,2.3002,2.0001,3.3801l-0.78003,0.39978c-0.70681-1.2797-1.3735-2.393-2.0001-3.3398z"/>
    <path d="m199.7,630.18,15.959,0,0,3.8403-0.89966,0,0-3.0005-14.16,0,0,3.2001-0.89966,0zm-0.90026,11.52,0-0.83984,13.08,0c0.0533-0.42643,0.1601-1.3863,0.32043-2.8796h-9.3805c-0.0663,0.21322-0.16287,0.51311-0.28961,0.89966-0.12675,0.38656-0.21678,0.65328-0.27008,0.80017l-0.96008-0.2002c0.85326-2.5598,1.5399-5.2531,2.0599-8.0798l0.96009,0.1001c-0.0932,0.54648-0.22645,1.2398-0.39978,2.0801h9.9396v0.8197h-10.12c-0.27995,1.2134-0.51331,2.1468-0.70007,2.8003h10.22c-0.0798,0.98634-0.20631,2.2062-0.37963,3.6597h3.6798v0.83984h-3.7799c-0.18678,1.4136-0.41017,2.4504-0.67017,3.1104-0.26002,0.66-0.56001,1.08-0.89996,1.2601-0.33998,0.18006-0.84993,0.27008-1.5298,0.27008-1.2268,0-2.8135-0.06-4.7601-0.18005l0.0201-0.84045c1.8266,0.12003,3.3466,0.18005,4.5599,0.18005,0.37311,0,0.64635-0.0233,0.8197-0.0699,0.17333-0.0466,0.36335-0.18656,0.57007-0.41992,0.20669-0.23335,0.37006-0.61004,0.49011-1.1301,0.12002-0.52002,0.24677-1.2468,0.38025-2.1802z"/>
    <path d="m222.08,638.22,0,1.6797,11.2,0,0-1.6797zm0-2.3401,0,1.6199,11.2,0,0-1.6199zm0-0.72022,11.2,0,0-1.5399-11.2,0zm0,5.52-0.96009,0,0-7.84,6.0602,0,0-1.2799-7.84,0,0-0.83984,7.84,0,0-1.4398,0.97962,0,0,1.4398,7.84,0,0,0.83984-7.84,0,0,1.2799,6.0803,0,0,7.84zm-3.1201,2.0203,0-0.83985,17.44,0,0,0.83985zm0.48035,3.2001c2.5867-0.76009,4.6132-1.6801,6.0797-2.76l0.49987,0.70007c-1.4799,1.1198-3.5732,2.0797-6.2799,2.8796zm9.9396-1.9202,0.33997-0.75988c2.3734,0.85327,4.4535,1.8199,6.2402,2.8998l-0.44006,0.75988c-1.6268-1.0132-3.6735-1.9798-6.1401-2.8998z"/>
    <path d="m250.84,630.32,0.78003-0.41992c0.54686,0.84026,1.1869,1.9403,1.9202,3.3002l-0.78003,0.39978c-0.67995-1.2797-1.32-2.373-1.9202-3.28zm2.6404-0.79956,0.78003-0.44007c0.75967,1.1731,1.4262,2.2998,1.9995,3.3801l-0.77942,0.39978c-0.7068-1.2801-1.3735-2.3934-2.0001-3.3398zm-0.93994,5.86,0.83984-0.40039c1.4132,2.5204,2.6064,4.9337,3.5797,7.24l-0.85998,0.33997c-1.0132-2.3865-2.1997-4.7797-3.5596-7.1796zm-7.76-6.0602,0.93994,0.08c-0.1469,1.5202-0.3536,2.9602-0.62012,4.3201,0.9733-0.0667,1.7132-0.10009,2.2198-0.1001,0.52001,0.00001,0.94004,0.0167,1.2601,0.05,0.32002,0.0334,0.6134,0.10672,0.88013,0.22003,0.26671,0.11333,0.4667,0.25005,0.59998,0.41015,0.13324,0.16013,0.24657,0.40346,0.33996,0.72999,0.0934,0.32654,0.15339,0.68645,0.18006,1.0797,0.0266,0.39328,0.04,0.90994,0.04,1.55-0.00001,2.4402-0.38331,4.4169-1.1499,5.9302-0.76661,1.5133-1.6433,2.2699-2.63,2.2699-0.79998,0-1.7867-0.53325-2.9602-1.5997l0.49988-0.75989c1.0136,0.94645,1.8337,1.4197,2.4603,1.4197,0.67992,0,1.3199-0.66997,1.9199-2.0099,0.59996-1.3399,0.89995-3.1366,0.89996-5.39-0.00001-0.50658-0.007-0.90992-0.0201-1.21-0.0134-0.30008-0.0568-0.57677-0.13001-0.83008-0.0733-0.25328-0.15321-0.43323-0.23986-0.53985-0.0867-0.1066-0.23002-0.19988-0.43-0.27985-0.2-0.0799-0.40996-0.12663-0.62988-0.14007-0.21994-0.0134-0.52339-0.0201-0.91034-0.0202-0.52003,0.00002-1.3133,0.0334-2.3798,0.1001-0.85328,3.9201-2.2599,7.7067-4.22,11.36l-0.83984-0.38024c1.8933-3.5466,3.2532-7.1865,4.0796-10.92-1.2667,0.10662-2.6266,0.24659-4.0796,0.41992l-0.0604-0.85999c1.9067-0.2132,3.3468-0.35989,4.3201-0.44006,0.3068-1.4665,0.52693-2.9531,0.6604-4.4598z"/>
    <path d="m259.98,635.6,0,3.6804,2.42,0,0-3.6804zm0-0.8197,2.42,0,0-3.62-2.42,0zm0,9.8798,0,1.3-0.9198,0,0-15.64,4.2401,0,0,14.34zm10.32-10.46c-0.28037-0.89313-0.64047-1.8931-1.0803-2.9999-1.1068,0.0802-1.9735,0.12697-2.6001,0.14039,0.39997,0.94646,0.75337,1.8996,1.0602,2.8595zm3.5797,4.8004-2.1198,0,0,3.9197,2.1198,0zm-11.48,4.8199,0-3.7402-2.42,0,0,3.7402zm13.16-8.8202-10.6,0,0,3.0603-0.92041,0,0-3.8605,2.7002,0c-0.36012-1.0665-0.72022-2.0131-1.0803-2.84h-1.3196l-0.0604-0.81971c4.307,0.00002,8.2338-0.33995,11.78-1.0199l0.13977,0.8197c-1.7599,0.34669-3.7732,0.61342-6.04,0.80017,0.34667,0.86671,0.70677,1.8866,1.0803,3.0597h1.6998c0.4667-1.1596,0.85346-2.2528,1.1603-3.2794l0.87951,0.21973c-0.30641,1.0132-0.6596,2.0331-1.0596,3.0597h2.58v3.2404h-0.93994zm-9.7205,5.4999,0.54016-0.7196c0.6665,0.49316,1.3133,1.0464,1.9403,1.6595,0.50658-1.1731,0.79975-2.373,0.87952-3.5998h-2.3395c-0.65349,1.6134-1.5336,3.0334-2.6404,4.2602l-0.62012-0.6604c1.427-1.5865,2.4337-3.5331,3.02-5.8398l0.92041,0.15991c-0.13347,0.50701-0.26022,0.93385-0.38025,1.2805h2.8998v0.79956c-0.10662,2.0402-0.66651,3.8603-1.6797,5.4602s-2.3466,2.7932-4.0002,3.5797l-0.52002-0.75988c1.72-0.8134,3.0666-2.0868,4.0399-3.8202-0.73325-0.70638-1.4199-1.3064-2.0599-1.7999zm8.0402-2.2998,0-2.5202,0.9198,0,0,2.5202,1.8805,0,0,0.80017-1.8805,0,0,3.9197,2.24,0,0,0.84046-2.24,0,0,3.0798-0.9198,0,0-3.0798-4.6802,0,0-0.84046,1.64,0,0-3.9197-0.57983,0,0-0.80017z"/>
    <path d="m291.2,630.38c-2.8931,2.7999-5.333,4.8865-7.3199,6.2598-0.48015,0.34669-0.77688,0.57333-0.8902,0.67993-0.11333,0.10661-0.16999,0.2533-0.16998,0.44006-0.00001,0.17335,0.05,0.31007,0.15014,0.41016,0.10009,0.1001,0.37007,0.30335,0.80994,0.60974,2.1732,1.5068,4.9265,3.8934,8.2599,7.16l-0.69947,0.6604c-3.4001-3.3468-6.1468-5.7334-8.2404-7.16-0.57333-0.38696-0.93995-0.67372-1.0999-0.86029-0.15991-0.18656-0.23987-0.45989-0.23986-0.82001-0.00001-0.3601,0.0833-0.63679,0.24993-0.83008,0.16663-0.19327,0.56997-0.51655,1.21-0.96984,2.0133-1.4132,4.4466-3.4998,7.2998-6.2598z"/>
    <path d="m304.58,641.68,0,2.32,6.2,0,0-2.32zm0-0.75989,6.2,0,0-2.0203-6.2,0zm-4.14-7.2003,0,2.3199,5.4401,0,0-2.3199zm0-0.78003,5.4401,0,0-2.1399-5.4401,0zm14.48,0.78003-5.6402,0,0,2.3199,5.6402,0zm0-0.78003,0-2.1399-5.6402,0,0,2.1399zm-11.26,5.18,8.0396,0,0,6.64-7.1198,0,0,1.0999-0.9198,0zm-4.1602,8.4802,0-16.6,7.32,0,0,6.8201-6.38,0,0,9.7803zm14.26-0.16052c-0.27997,0-1.2199-0.0332-2.8198-0.0995l-0.0201-0.84045c1.56,0.0667,2.4668,0.1001,2.7203,0.1001,0.61318,0,0.9798-0.06,1.0998-0.18006,0.12002-0.12003,0.18004-0.47994,0.18005-1.0797v-7.5201h-6.5802v-6.8201h7.5201v14.32c-0.00002,0.93343-0.1167,1.5201-0.35004,1.76-0.23338,0.23987-0.81677,0.3598-1.7502,0.3598z"/>
    <path d="m335.08,644.28c-1.6398,0.413-3.1464,0.6195-4.5197,0.6195-1.5466,0-2.8167-0.28666-3.8101-0.85998-0.99345-0.57332-1.4902-1.3066-1.4902-2.1997-0.00001-0.58675,0.26672-1.2568,0.80017-2.0102,0.53344-0.75337,1.2602-1.4767,2.1802-2.1701l0.63965,0.64026c-1.7468,1.3733-2.6202,2.5466-2.6202,3.5199-0.00001,0.58675,0.39,1.0934,1.17,1.5201,0.78002,0.42664,1.8234,0.63996,3.1302,0.63995,1.3068,0.00001,2.7534-0.19327,4.3399-0.57983zm-8.7799-11.32c2.5867,0.00001,5.3467-0.19998,8.28-0.59998l0.0799,0.89966c-3.0001,0.4-5.7868,0.59999-8.36,0.59998zm-3.96-2.3999c-0.66651,2.4801-0.99976,5.0134-0.99976,7.6001s0.33325,5.1198,0.99976,7.5995l-0.96008,0.14038c-0.66651-2.4801-0.99976-5.0601-0.99976-7.7402,0-2.68,0.33325-5.2601,0.99976-7.7402z"/>
    <path d="m345.04,635.14-0.96008,0,0-5.2405,11.66,0,0,5.2405zm0-2.2601,0,1.4996,9.7595,0,0-1.4996zm0-0.72021,9.7595,0,0-1.4801-9.7595,0zm-0.26,9.5001,3.6798,0,0-1.98-3.6798,0zm3.6798,2.9999c-2.12,0.53344-4.0999,0.92671-5.9399,1.1798l-0.0799-0.85999c0.24006-0.0264,0.70678-0.0997,1.4001-0.21973v-7.6398h-1.1804v-0.85998h14.28v0.85998h-7.5403v9.9396h-0.93995zm0-0.85999,0-1.38-3.6798,0,0,2.1802c1.0665-0.18677,2.2931-0.45349,3.6798-0.80017zm-5.18-10.76,0,0.85999-1.7999,0,0,4.8798c0.49316-0.23966,0.98653-0.50618,1.4801-0.79956l0.15991,0.85998c-0.66692,0.38657-1.2136,0.67974-1.64,0.87952v4.8401c0,0.93343-0.0634,1.5202-0.19012,1.7602-0.12675,0.24007-0.45014,0.36011-0.97015,0.36011-0.31983,0-0.85979-0.0334-1.6199-0.1001v-0.82031c0.70679,0.0667,1.1802,0.1001,1.4203,0.1001,0.21321,0,0.33986-0.0533,0.37995-0.15992,0.0401-0.1066,0.0601-0.47322,0.0601-1.0998v-4.4598c-0.70678,0.29298-1.3336,0.52613-1.8805,0.69947l-0.13977-0.85999c0.79997-0.26651,1.4734-0.51981,2.0203-0.75989v-5.3198h-1.9604v-0.85999h1.9604v-3.5602h0.9198v3.5602zm5.18,4.0802-3.6798,0,0,1.7999,3.6798,0zm1.98,3.1598,0.81971-0.41992c0.61359,1.32,1.3004,2.42,2.0605,3.3002,0.87971-1.0136,1.5397-2.227,1.98-3.6401h-5.3601v-0.85999h6.2598v0.85999c-0.50661,1.7065-1.26,3.1398-2.2601,4.2999,0.81338,0.79997,1.8001,1.4732,2.9602,2.0197l-0.39978,0.78002c-1.2134-0.55989-2.2669-1.2799-3.1604-2.16-0.85328,0.84025-1.9466,1.5603-3.28,2.16l-0.3595-0.78002c1.1596-0.5066,2.1663-1.1798,3.02-2.0197-0.84027-0.95987-1.6004-2.1399-2.2803-3.54z"/>
    <path d="m363.86,637.4c-0.00001-0.31981-0.003-0.82976-0.01-1.5298-0.007-0.70006-0.01-1.2434-0.01-1.6299-1.4933,0.24008-3.0267,0.36011-4.6002,0.3601l-0.0201-0.88012c1.5601,0.00001,3.0935-0.12003,4.6002-0.36011v-3.4601h0.9198c-0.00001,1.8001,0.0134,4.007,0.0403,6.6205,1.7598-1.6402,3.1097-2.7703,4.0497-3.3902,0.93993-0.6199,1.6833-0.92986,2.2302-0.92987,0.59976,0.00001,1.023,0.23327,1.2698,0.69977,0.24677,0.46652,0.37016,1.2798,0.37018,2.4399-0.00002,1.1466-0.0334,2.2268-0.1001,3.2404-0.0668,1.0266-0.10011,1.9531-0.1001,2.7796-0.00001,0.90698,0.0467,1.6004,0.14008,2.0804,0.0934,0.47994,0.20669,0.77993,0.33996,0.89996,0.13325,0.12004,0.31991,0.18006,0.56,0.18006,0.31981,0,0.78306-0.20335,1.3898-0.61005,0.60667-0.4067,1.1635-0.91013,1.6705-1.5103l0.67993,0.64026c-0.6535,0.7601-1.3269,1.3535-2.0203,1.7801-0.69338,0.42664-1.3001,0.63996-1.8201,0.63996-0.66652,0-1.1532-0.29338-1.46-0.88013-0.30682-0.58675-0.46022-1.5668-0.4602-2.9401-0.00002-0.83984,0.0333-1.7731,0.10009-2.7997,0.0667-0.9733,0.10009-2.0467,0.1001-3.2202-0.00001-1.04-0.06-1.7201-0.18005-2.0401-0.12005-0.32002-0.33998-0.48003-0.65979-0.48004-0.78655,0.00001-2.8133,1.5534-6.0803,4.66,0.0533,4.3469,0.10009,7.1535,0.14038,8.4198l-0.92041,0.0201c-0.0533-1.9865-0.0999-4.5064-0.13977-7.5598-1.7598,1.72-3.2198,3.1866-4.3799,4.4l-0.67993-0.59997c1.3997-1.4669,3.0796-3.147,5.0397-5.0403z"/>
    <path d="m388.42,641.56c-1.0531-0.48014-2.0197-0.72021-2.8998-0.72021-0.98674,0-1.7401,0.18341-2.2601,0.55023-0.52003,0.36682-0.78003,0.87677-0.78003,1.5298,0,0.72022,0.26336,1.2803,0.7901,1.6803,0.52673,0.39999,1.2768,0.59998,2.2501,0.59998,1.0535,0,1.8001-0.23672,2.24-0.71015,0.43985-0.47342,0.65978-1.2633,0.65979-2.3697zm-0.0195-0.93994c-0.0134-0.50659-0.0336-1.2933-0.0604-2.3602-0.013-0.12003-0.0229-0.30669-0.0296-0.56-0.007-0.25329-0.0101-0.43995-0.0101-0.55999-2.3466,0.16032-4.7201,0.24048-7.1204,0.24047v-0.84045c2.6001,0.00001,4.9668-0.0732,7.1002-0.21973-0.0265-1.3066-0.0397-2.3-0.0397-2.9803-2.7067,0.1469-5.3268,0.22035-7.8601,0.22033v-0.83984c2.8666,0.00001,5.4932-0.0734,7.8796-0.22034,0.0134-0.90656,0.0667-1.8998,0.15991-2.9797l0.94055,0.0201c-0.0936,1.0396-0.1471,2.0062-0.16052,2.8998,1.84-0.1066,3.7602-0.27994,5.7605-0.52002l0.0799,0.83984c-2.0003,0.22666-3.9472,0.4-5.8404,0.52002-0.00001,1.32,0.007,2.3067,0.0201,2.9602,1.2667-0.0936,2.9134-0.26021,4.9402-0.49988l0.0799,0.83984c-1.6,0.1998-3.2666,0.36643-5,0.49988-0.00001,0.13347,0.003,0.33021,0.0101,0.59021,0.007,0.26002,0.0166,0.45655,0.0296,0.5896,0.0134,0.33367,0.0302,0.81045,0.0503,1.4304,0.0201,0.61992,0.0302,1.0698,0.0302,1.3498,1.3863,0.69336,3.1728,1.8801,5.3595,3.5602l-0.55969,0.70007c-1.9735-1.5336-3.5734-2.627-4.7998-3.28v0.10009c-0.00001,1.3863-0.30671,2.3895-0.9201,3.0096-0.61342,0.62011-1.6,0.93017-2.9599,0.93017-1.2537,0-2.2272-0.27669-2.9205-0.83008-0.69337-0.55338-1.04-1.3234-1.04-2.3102-0.00001-0.90657,0.35003-1.6199,1.0501-2.1399,0.70006-0.52001,1.6702-0.78002,2.9105-0.78003,0.90657,0.00001,1.8799,0.20671,2.9199,0.62012z"/>
    <path d="m405.13,636.36c-0.52654,0.53305-0.7898,1.1663-0.7898,1.8997,0,0.73344,0.26326,1.3668,0.7898,1.9,0.52652,0.53325,1.1631,0.79987,1.9098,0.79987,0.74665,0,1.3834-0.26662,1.9101-0.79987,0.52672-0.53324,0.79009-1.1667,0.7901-1.9003-0.00001-0.81298-0.24995-1.4662-0.74982-1.9595-0.49988-0.49336-1.15-0.74004-1.9504-0.74005-0.74668,0.00001-1.3833,0.26673-1.9098,0.80017zm-1.7499,1.8799c-0.00001-1.0136,0.3366-1.857,1.0098-2.5302,0.67321-0.67321,1.5233-1.0098,2.5504-1.0098,1.0396,0.00001,1.9328,0.31332,2.6794,0.93994h0.0403c-0.0134-0.54686-0.0401-1.2868-0.08-2.2198-0.00001-0.0403-0.003-0.0937-0.0101-0.16021-0.007-0.0665-0.0101-0.11993-0.0101-0.16022-3.9201,0.17335-7.36,0.26002-10.32,0.26001v-0.85999c3.2532,0.00002,6.6864-0.0799,10.3-0.23987-0.0399-0.97329-0.0598-1.96-0.0598-2.9602h0.93994c-0.00001,1.2936,0.0134,2.2669,0.0403,2.9199,1.8799-0.0932,3.7597-0.20649,5.6396-0.33996l0.0604,0.84045c-1.9202,0.13307-3.807,0.24639-5.6604,0.33997-0.00001,0.0533,0.003,0.13327,0.0101,0.23986,0.007,0.10662,0.0101,0.18658,0.0101,0.23987,0.0533,1.7599,0.0799,3.0798,0.08,3.96,0.2132,0.72022,0.31981,1.5603,0.31982,2.5201-0.00001,1.7334-0.55665,3.1601-1.6699,4.2801-1.1133,1.12-2.6965,1.8267-4.7498,2.1201l-0.15991-0.92041c3.28-0.45329,5.1265-1.9466,5.5396-4.48,0.0269-0.15991,0.0537-0.3599,0.0806-0.59998h-0.0403c-0.74668,0.93344-1.7399,1.4002-2.9797,1.4002-1.04,0-1.8934-0.33996-2.5601-1.0199-0.66671-0.67992-1.0001-1.5332-1.0001-2.5598z"/>
    <path d="m419.95,645.89c-0.5664-0.56681-0.84961-1.2569-0.84961-2.0703,0-0.81339,0.28331-1.5068,0.84992-2.0801,0.56661-0.57331,1.2566-0.85998,2.07-0.85998,0.81339,0,1.5067,0.28667,2.0801,0.85998,0.57332,0.57333,0.85998,1.2667,0.85999,2.0801-0.00001,0.8134-0.28667,1.5034-0.85999,2.07-0.57333,0.56661-1.2667,0.84991-2.0801,0.84991s-1.5035-0.2832-2.0703-0.84961zm0.57007-3.5803c-0.41341,0.41993-0.62012,0.92326-0.62012,1.51,0,0.58675,0.20671,1.0867,0.62012,1.4999,0.41341,0.41321,0.91339,0.61981,1.4999,0.61981,0.58654,0,1.0899-0.2066,1.51-0.61981,0.42012-0.41321,0.63018-0.91319,0.63019-1.4999-0.00001-0.58675-0.21007-1.0901-0.63019-1.51-0.42013-0.41992-0.92347-0.62988-1.51-0.62988-0.58655,0-1.0865,0.20996-1.4999,0.62988z"/>
   </g>
  </g>
 </g>
</svg>
