<?xml version="1.0" encoding="UTF-8" standalone="no"?>
<!-- Created with Inkscape (http://www.inkscape.org/) -->
<svg xmlns:rdf="http://www.w3.org/1999/02/22-rdf-syntax-ns#" xmlns="http://www.w3.org/2000/svg" version="1.1" xmlns:cc="http://creativecommons.org/ns#" xmlns:dc="http://purl.org/dc/elements/1.1/" viewBox="0 0 467.81 76.408">
 <metadata>
  <rdf:RDF>
   <cc:Work rdf:about="">
    <dc:format>image/svg+xml</dc:format>
    <dc:type rdf:resource="http://purl.org/dc/dcmitype/StillImage"/>
    <dc:title/>
   </cc:Work>
  </rdf:RDF>
 </metadata>
 <g transform="translate(-675.43983,-726.90116)">
  <g font-family="&apos;M+ 2m thin&apos;" transform="translate(648.28549,156.54688)" font-stretch="normal" font-variant="normal" font-weight="normal" font-style="normal" fill="#000">
   <g style="letter-spacing:0px;word-spacing:0px;" font-size="29.5973835px" line-height="125%">
    <path d="m28.545,577.37,0,3.4332,8.0506,0,0-3.4332zm0-1.1543,8.0506,0,0-3.1668-8.0506,0zm21.428,1.1543-8.3468,0,0,3.4332,8.3468,0zm0-1.1543,0-3.1668-8.3468,0,0,3.1668zm-11.395,6.6,1.3621,0,0,2.1904,7.0435,0,0,1.1842-6.3633,0c1.4404,2.3677,3.6997,4.6369,6.7779,6.8077l-0.73975,1.0947c-2.9205-2.0913-5.1599-4.3605-6.7183-6.8077v8.0208h-1.3621v-8.0208c-1.5981,2.4863-3.887,4.795-6.8664,6.926l-0.82827-1.036c3.1571-2.2099,5.4953-4.5382,7.0146-6.9848h-6.3633v-1.1842h7.0435zm-11.424,13.615,0-24.566,10.833,0,0,10.093-9.4416,0,0,14.474zm21.102-0.23755c-0.49319-0.00001-1.6572-0.0491-3.4919-0.14723l-0.02981-1.2438c1.7366,0.0987,2.8515,0.14813,3.3447,0.14813,0.90743,0,1.45-0.0888,1.6276-0.26646,0.17761-0.17764,0.26643-0.71025,0.26646-1.5978v-11.129h-9.7378v-10.093h11.129v21.192c-0.000027,1.3814-0.1727,2.2495-0.51801,2.6045-0.34536,0.35497-1.2087,0.53245-2.59,0.53246z"/>
    <path d="m58.113,587.91,0,2.427,8.0506,0,0-2.427zm0-1.1245,8.0506,0,0-2.4559-8.0506,0zm16.841-9.5003c1.1646-1.1248,2.2105-2.2792,3.1379-3.463h-5.032c-0.76958,1.2628-1.618,2.4171-2.5453,3.463zm1.1841,10.625,3.7882,0,0-4.173-3.7882,0zm-13.408-7.813,5.7717,0,0,1.1544-12.816,0,0-1.1544,5.6236,0,0-2.4568-4.7646,0,0-1.1543,4.7646,0,0-2.4568-5.3273,0,0-1.1832,5.3273,0,0-2.0422,1.4208,0,0,2.0422,5.5351,0,0,1.1832-5.5351,0,0,2.4568,4.9136,0,0,1.1543-4.9136,0zm2.3385,16.1c-0.69069-0.00001-1.6773-0.0491-2.9599-0.14723v-1.2438c1.5391,0.0987,2.4469,0.14813,2.7233,0.14813,0.6708,0,1.0604-0.0444,1.1688-0.13323,0.10838-0.0888,0.16257-0.36988,0.16258-0.84318v-2.4866h-8.0506v4.8251h-1.3314v-13.171h10.714v10.833c-0.000014,1.0062-0.13821,1.6276-0.41459,1.8643-0.2764,0.23665-0.94721,0.35497-2.0124,0.35498zm3.1966-16.693-0.91769-0.91679c2.6043-2.2894,4.6366-5.0223,6.0969-8.1987l1.2429,0.29536c-0.29568,0.75031-0.60158,1.3916-0.91769,1.9239h5.9496v1.214c-0.8286,1.1441-1.8252,2.2985-2.9897,3.463h4.5288v5.2388h1.4497v1.213h-1.4497v6.5711h-1.3323v-1.214h-3.7882v4.0845c-0.000022,1.3416-0.13822,2.2-0.41459,2.5751-0.27641,0.37515-0.93728,0.56272-1.9826,0.56272-0.73044,0-1.8652-0.0494-3.4043-0.14813v-1.2727c1.3813,0.0987,2.3978,0.14813,3.0493,0.14813,0.61117,0,0.98587-0.084,1.1241-0.25201,0.13818-0.168,0.20727-0.70573,0.20729-1.6132v-4.0845h-5.6534v-1.1842h5.6534v-4.173h-6.5413v-1.213h6.5413v-4.0556h-4.499v-0.85808c-0.57207,0.63169-1.223,1.263-1.9528,1.8941zm11.661-1.036-3.7882,0,0,4.0556,3.7882,0z"/>
    <path d="m103.87,579.91c-0.15838,1.4012-0.17826,3.7987-0.0596,7.1925l0.0298,0.14813c-0.00002,0.0982-0.00002,0.2213,0,0.36943-0.00002,0.14814-0.00002,0.29115,0,0.42904,1.4994,0.84845,3.5217,2.3581,6.0671,4.5288l-0.85807,1.0062c-2.1112-1.7758-3.8376-3.0978-5.1792-3.9661v0.62143c-0.00002,1.8944-0.41942,3.2658-1.2582,4.1143-0.83883,0.84845-2.1955,1.2727-4.07,1.2727-1.8149,0-3.2454-0.41444-4.2913-1.2433-1.046-0.82887-1.5689-1.9731-1.5689-3.4328-0.000009-1.3223,0.53275-2.393,1.5983-3.2119,1.0655-0.81893,2.4862-1.2284,4.2619-1.2284,1.3025,0.00001,2.5851,0.2764,3.8478,0.82918v-0.20775c-0.11804-3.4329-0.0885-5.8596,0.0885-7.2801zm-1.5391-3.3736,0.35498-1.2736c2.9397,0.65156,5.6922,1.5593,8.2574,2.7233l-0.5031,1.2429c-2.6441-1.1838-5.3472-2.0814-8.1093-2.6926zm0.11833,12.252c-1.3422-0.6708-2.6543-1.0062-3.9363-1.0062-1.3224,0.00001-2.388,0.29115-3.197,0.87343-0.80901,0.5823-1.2135,1.347-1.2135,2.2942-0.00001,1.0652,0.38974,1.8988,1.1692,2.5006,0.77948,0.60186,1.8599,0.90278,3.2413,0.90278,1.4596,0,2.4854-0.30589,3.0773-0.91769,0.5919-0.61179,0.88786-1.6773,0.88788-3.1966-0.00002-0.49316-0.01-0.97669-0.0289-1.4506zm-10.685-12.69c0.37514-1.3615,0.77979-3.0388,1.214-5.032l1.3612,0.20774c-0.29567,1.4603-0.68045,3.0289-1.1543,4.7059,1.8155-0.13787,3.6801-0.34501,5.5938-0.62143l0.08942,1.2727c-1.9932,0.27641-4.0059,0.49349-6.0382,0.65124-1.3217,4.5379-3.137,9.3621-5.4456,14.473l-1.3025-0.4733c2.3087-5.1497,4.0745-9.7767,5.2975-13.881-1.4404,0.0789-3.0584,0.11834-4.854,0.11833v-1.2727c2.0329,0.00002,3.7792-0.0494,5.2388-0.14813z"/>
    <path d="m128.76,585.72,9.5897,0,0-8.5537-9.5897,0zm-11.01,1.2429,0,1.9239-1.3621,0,0-13.023,10.922,0,0-5.0609,1.4497,0,0,5.0609,10.952,0,0,13.023-1.3621,0,0-1.9239-9.5897,0,0,10.123-1.4497,0,0-10.123zm0-1.2429,9.5599,0,0-8.5537-9.5599,0z"/>
    <path d="m145.37,575.42c6.7683,0.00001,14.345-0.58197,22.731-1.746l0.14813,1.3323c-4.2031,0.57207-7.5624,1.8348-10.078,3.7882-2.5155,1.9534-3.7733,4.2323-3.7733,6.8366-0.00001,2.4273,0.87297,4.3562,2.619,5.7866,1.7459,1.4304,4.2369,2.2838,7.473,2.5602l-0.14723,1.3612c-3.5913-0.27639-6.3933-1.2581-8.406-2.945-2.0127-1.687-3.0191-3.8919-3.0191-6.6149-0.00001-2.1509,0.70542-4.0995,2.1163-5.8458,1.4108-1.7462,3.4184-3.1321,6.0228-4.1576l-0.0289-0.0596c-5.5646,0.71057-10.784,1.0658-15.658,1.0658zm17.462,4.5288,1.1254-0.65123c0.86769,1.3416,1.8245,2.9792,2.8705,4.9127l-1.1544,0.56272c-0.94722-1.7758-1.8944-3.3838-2.8416-4.8242zm3.9074-1.1842,1.1543-0.65123c1.1248,1.7366,2.1114,3.404,2.9599,5.0021l-1.1543,0.59163c-1.046-1.8938-2.0326-3.5413-2.9599-4.9425z"/>
    <path d="m183.4,571.15,1.4506,0c-0.00001,1.0261-0.0593,2.6441-0.17794,4.854,3.2559,0.0193,6.699-0.0993,10.329-0.35588l0.0298,1.2736c-3.6702,0.25594-7.1528,0.37426-10.448,0.35498l-0.17794,2.6636c-0.11803,1.4205-0.19692,2.486-0.23665,3.1966,2.5851,0.00001,5.5546-0.10868,8.9087-0.32607l0.0298,1.2727c-2.9596,0.21739-5.9587,0.32608-8.9972,0.32607-0.0988,1.618-0.14814,3.0189-0.14813,4.2028-0.00001,2.0323,0.41924,3.4924,1.2578,4.3803,0.8385,0.88789,2.2245,1.3318,4.1581,1.3318,5.0906,0,7.636-1.904,7.636-5.7121-0.00003-1.2627-0.1873-2.5552-0.56182-3.8776l1.4208-0.29536c0.39439,1.4205,0.59159,2.841,0.59162,4.2615-0.00003,0.92733-0.14304,1.7758-0.42904,2.5453-0.28605,0.76957-0.74971,1.4997-1.391,2.1904-0.64132,0.69068-1.5786,1.2284-2.8118,1.6132-1.2332,0.38478-2.7182,0.57717-4.4548,0.57717-2.3876,0-4.1289-0.55745-5.2239-1.6724-1.095-1.1149-1.6426-2.8956-1.6425-5.3422-0.00001-1.1838,0.0494-2.5848,0.14813-4.2028-2.2298-0.0199-4.6074-0.12855-7.1329-0.32607l0.0885-1.2727c2.1112,0.17765,4.4789,0.28634,7.1031,0.32607,0.0397-0.76955,0.11892-1.845,0.23755-3.2264l0.17704-2.6637c-2.5056-0.059-4.6463-0.16738-6.422-0.32517l0.0587-1.2736c1.7758,0.13852,3.9267,0.24721,6.4528,0.32607,0.11801-2.2099,0.17702-3.818,0.17703-4.8242z"/>
    <path d="m204.56,578.2,0-1.3025,11.573,0,0-5.8015,1.4199,0,0,5.8015,11.573,0,0,1.3025-11.543,0c0.13848,3.6106,1.2633,6.8859,3.3745,9.8259s4.982,5.2386,8.6124,6.8958l-0.70995,1.1254c-2.9994-1.3422-5.5399-3.207-7.6215-5.5942-2.0817-2.3873-3.5269-5.061-4.3356-8.0212-0.80931,2.9602-2.2745,5.634-4.3956,8.0212-2.1211,2.3873-4.6814,4.252-7.6807,5.5942l-0.70995-1.1254c3.6304-1.6571,6.5012-3.9557,8.6124-6.8958,2.1112-2.94,3.236-6.2153,3.3745-9.8259z"/>
    <path d="m240.58,587.28-4.3509,0,0,2.5164,4.3509,0zm-4.3509-3.5814,0,2.4568,4.3509,0,0-2.4568zm0,9.9158,4.3509,0,0-2.6935-4.3509,0zm14.029-22.879,1.3323,0.17794c-0.27641,1.4994-0.51336,2.6044-0.71085,3.3149h8.9981v1.2727c-0.51307,2.9199-1.2631,5.4752-2.25,7.6658l-1.2429-0.50401c0.90743-2.0323,1.6276-4.4195,2.1606-7.1618h-8.0506c-0.80872,2.7422-1.8249,5.1888-3.0484,7.3397l-1.1543-0.73976c1.8354-3.2161,3.1574-7.0046,3.9661-11.365zm10.033,23.974-0.47329,1.3323c-1.4603-0.75029-2.8168-2.0281-4.0696-3.8334s-2.1851-3.7933-2.7969-5.9641c-0.63169,2.2298-1.6036,4.2425-2.9157,6.0382-1.3121,1.7956-2.6983,3.0487-4.1585,3.7593l-0.4733-1.2727h-9.1751v1.7758h-1.391v-11.662c-0.74969,0.82859-1.3516,1.46-1.8056,1.8941l-0.62143-1.2429c2.1112-2.0522,3.7487-4.2326,4.9127-6.5413h-4.1134v-1.1832h4.6761c0.51304-1.2236,0.90775-2.4077,1.1842-3.5524h-2.6935c-0.53292,0.90808-1.2137,1.8258-2.0422,2.7531l-1.1245-0.65124c1.4994-1.677,2.6832-3.6798,3.5515-6.0084l1.2727,0.32517c-0.33541,0.92795-0.67082,1.7174-1.0062,2.3683h9.2934v1.213h-5.89c-0.25653,1.046-0.64131,2.2301-1.1544,3.5524h7.281v1.1832h-7.7841c-0.49318,1.046-1.1739,2.2102-2.0422,3.4928h4.0258c0.57204-0.98692,1.0258-1.9537,1.3612-2.9003l1.213,0.32517c-0.33541,0.8882-0.72019,1.7466-1.1543,2.5751h4.1441v1.2131h-4.4394v2.4568h4.1432v1.1245h-4.1432v2.5164h4.1432v1.1245h-4.1432v2.6935h4.2913v0.59162c1.6969-1.1248,3.1324-2.8366,4.3067-5.1354,1.1742-2.2987,1.7613-4.7702,1.7613-7.4142v-4.2615h1.391v4.2615c-0.00002,2.664,0.64113,5.2539,1.9235,7.7697,1.2823,2.5158,2.8607,4.2768,4.7352,5.2831z"/>
    <path d="m275.33,581.51-7.7552,0,0,3.8469c0,0.76957-0.01,1.3419-0.0289,1.7171h7.7841zm1.391,0,0,5.564,8.0208,0,0-5.564zm-9.2934,6.777c-0.33601,3.1969-1.3919,5.8509-3.1677,7.9621l-1.0947-0.85808c2.0124-2.4664,3.0186-5.949,3.0186-10.448v-4.5876h19.949v9.6186h-1.391v-1.6872zm21.457-15.302,0,1.214-12.135,0,0,2.782,10.478,0,0,1.1842-22.435,0,0-1.1842,10.507,0,0-2.782-12.135,0,0-1.214,12.135,0,0-2.2193,1.4497,0,0,2.2193z"/>
    <path d="m294.2,595.38c-0.83821-0.83881-1.2573-1.8601-1.2573-3.0638s0.41925-2.2298,1.2578-3.0782c0.8385-0.84843,1.8596-1.2726,3.0633-1.2727,1.2037,0.00001,2.2298,0.42423,3.0782,1.2727,0.84844,0.84845,1.2727,1.8745,1.2727,3.0782-0.00001,1.2037-0.42423,2.2248-1.2727,3.0633-0.84845,0.8385-1.8745,1.2578-3.0782,1.2578s-2.225-0.41911-3.0638-1.2573zm0.84363-5.2984c-0.6118,0.62143-0.9177,1.3663-0.9177,2.2346,0,0.86831,0.3059,1.6082,0.9177,2.2197,0.61179,0.61149,1.3517,0.91724,2.2197,0.91724,0.86801,0,1.6129-0.30575,2.2346-0.91724,0.62172-0.61149,0.93258-1.3514,0.93259-2.2197-0.00001-0.86831-0.31087-1.6132-0.93259-2.2346-0.62174-0.62142-1.3666-0.93214-2.2346-0.93214-0.86802,0-1.6079,0.31072-2.2197,0.93214z"/>
   </g>
   <g style="letter-spacing:0px;word-spacing:0px;" font-size="19.99999809px" line-height="125%">
    <path d="m49.64,608.14-4.1998,0,0,5.2399,4.1998,0zm0.96008,0,0,5.2399,4.3604,0,0-5.2399zm-9.3402,12.54c0.16032,0,0.31382-0.0833,0.46051-0.24994,0.14668-0.16663,0.28666-0.42328,0.41992-0.76996s0.23651-0.83669,0.30975-1.47c0.07324-0.63334,0.10986-1.3766,0.10986-2.2299-0.000005-1.04-0.0466-1.98-0.13977-2.8198-1.0132,1.1865-2.1798,2.1531-3.4998,2.8998l-0.38025-0.80017c1.4534-0.85326,2.6935-1.9265,3.7201-3.2196-0.17334-1.2402-0.45329-2.4202-0.83984-3.54-0.76009,0.64007-1.5869,1.2266-2.4805,1.7596l-0.39978-0.79956c0.92-0.54686,1.7733-1.1536,2.5598-1.8201-0.3064-0.76007-0.7131-1.5867-1.2201-2.4798l0.82031-0.42054c0.45328,0.77354,0.82662,1.5202,1.12,2.24,0.88012-0.81297,1.6602-1.6929,2.3401-2.6398l0.67993,0.49988c-0.77352,1.0669-1.6669,2.0669-2.6801,2.9999,0.85327,2.3869,1.2799,5.1003,1.2799,8.1403-0.000006,3.7069-0.67994,5.5603-2.0398,5.5603-0.6132,0-1.3532-0.12675-2.2198-0.38025l0.05981-0.83984c0.89314,0.25309,1.5664,0.37964,2.0197,0.37964zm12.7-4.74,0.82031-0.27955c0.8797,1.9596,1.6329,3.9262,2.2595,5.8997l-0.85998,0.23987c-0.18638-0.6132-0.3996-1.253-0.63965-1.9196-4.1069,0.78653-7.9669,1.2598-11.58,1.4197l-0.03967-0.88012c2.0264-0.0932,3.9329-0.24638,5.7196-0.4596v-5.7404h-4.1998v1.3h-0.9198v-8.2202h5.1196v-2.9199h0.96008v2.9199h5.2802v6.9202h-5.2802v5.6201c1.3334-0.17334,2.88-0.41992,4.6399-0.73974-0.52004-1.3468-0.94667-2.4003-1.2799-3.1604z"/>
    <path d="m63.72,604.74c-0.1469,1.9466-0.26022,4.0601-0.33997,6.3403h0.03967c0.53344-1.6003,1.3102-2.8371,2.3303-3.7103s2.1433-1.3098,3.3698-1.3098c1.4534,0.00001,2.5835,0.53,3.3902,1.59,0.80667,1.06,1.21,2.5832,1.21,4.5697-0.000016,2.747-0.75339,4.8371-2.2601,6.2704-1.5068,1.4333-3.8668,2.2899-7.0801,2.5699l-0.07996-0.90026c2.9199-0.26652,5.0565-1.0365,6.4099-2.3099,1.3533-1.2734,2.03-3.1501,2.03-5.6302-0.000015-1.7065-0.31669-3.0031-0.95001-3.8898-0.63336-0.88662-1.5433-1.3299-2.7298-1.33-1.4002,0.00001-2.6736,0.79001-3.8202,2.37-1.1467,1.58-1.78,3.63-1.9,6.1499h-0.93994c-0.000005-3.8668,0.12674-7.4668,0.38025-10.8z"/>
    <path d="m79.38,607.4c4.5736,0.00001,9.6936-0.39326,15.36-1.1798l0.1001,0.90027c-2.8402,0.38657-5.1102,1.2398-6.81,2.5598s-2.5498,2.8599-2.5497,4.6198c-0.000008,1.6402,0.5899,2.9436,1.7697,3.9102,1.1798,0.96659,2.863,1.5433,5.0497,1.73l-0.09949,0.9198c-2.4268-0.18677-4.3202-0.85012-5.6802-1.99-1.3601-1.1399-2.0401-2.6299-2.0401-4.4699-0.000007-1.4534,0.47668-2.7702,1.4301-3.9502,0.95336-1.18,2.31-2.1165,4.0698-2.8094l-0.01953-0.0403c-3.7602,0.48016-7.287,0.72023-10.58,0.72022zm11.8,3.0603,0.7605-0.44006c0.58633,0.90658,1.2329,2.0132,1.9397,3.3197l-0.78003,0.38025c-0.64007-1.2-1.2801-2.2866-1.9202-3.2599zm2.6404-0.80017,0.78003-0.44006c0.76007,1.1735,1.4268,2.3002,2.0001,3.3801l-0.78003,0.39978c-0.7068-1.2797-1.3735-2.393-2.0001-3.3398z"/>
    <path d="m101.94,607.3,0-0.87952,11.3,0,0,0.87952c-0.85369,2.2669-2.1871,4.4204-4.0002,6.4606,1.4799,1.4799,3.4666,3.5398,5.9601,6.1798l-0.67993,0.63965c-2.12-2.2664-4.0867-4.3064-5.9003-6.12-2.4398,2.5602-5.1664,4.5003-8.1799,5.8203l-0.39978-0.82032c2.7197-1.2,5.193-2.9232,7.4197-5.1697,2.2268-2.2465,3.8001-4.5766,4.7202-6.9904z"/>
    <path d="m128.18,604.9,0,3.1201,5.7599,0c-0.41302-0.19977-0.74291-0.49304-0.98968-0.87982-0.2468-0.38674-0.3702-0.81348-0.37018-1.2802-0.00002-0.65306,0.2367-1.2163,0.71014-1.6898,0.47342-0.47341,1.0368-0.71012,1.6901-0.71014,0.65326,0.00002,1.2165,0.23673,1.6898,0.71014,0.4732,0.47345,0.70981,1.0367,0.70983,1.6898-0.00002,0.60019-0.19329,1.1236-0.57983,1.5701-0.38657,0.44659-0.87323,0.71667-1.46,0.81024v0.65979h-7.16v9.5001c-0.00001,0.89315-0.12666,1.4764-0.37995,1.7499-0.2533,0.27344-0.79336,0.41016-1.6202,0.41016-1.0132,0-1.9997-0.0934-2.9596-0.28015l0.1001-0.88013c0.93301,0.18677,1.8595,0.28015,2.7795,0.28015,0.48013,0,0.78358-0.07,0.91034-0.20996,0.12674-0.13997,0.19011-0.49662,0.19012-1.07v-9.5001h-7.5806v-0.88013h7.5806v-3.1201zm-4.6997,7.1002c-1.1466,2.4402-2.3067,4.6134-3.4802,6.5198l-0.81971-0.44006c1.1466-1.84,2.2933-3.9799,3.4399-6.4197zm8.0396,0.0201,0.82031-0.40039c1.3598,2.3869,2.5132,4.6069,3.4601,6.6602l-0.83984,0.38025c-1.1068-2.3466-2.2536-4.5599-3.4406-6.64zm4.6198-5c0.32021-0.32022,0.48033-0.70698,0.48035-1.1603-0.00002-0.45327-0.16004-0.83993-0.48004-1.16-0.32005-0.32001-0.70671-0.48003-1.16-0.48004-0.4533,0.00001-0.83996,0.16003-1.16,0.48004-0.32004,0.32004-0.48006,0.7067-0.48004,1.16-0.00002,0.4533,0.16,0.83996,0.48004,1.16,0.32001,0.32004,0.70667,0.48006,1.16,0.48005,0.45327,0.00001,0.83983-0.1599,1.1597-0.47974z"/>
    <path d="m139.84,613.64,0-0.96008,15.68,0,0,0.96008z"/>
    <path d="m174.34,606.28,0.9198,0.0604c-0.49319,4.3998-1.6232,7.6497-3.3899,9.7498-1.7668,2.1-4.6234,3.61-8.5699,4.53l-0.22034-0.85998c3.7069-0.8667,6.3903-2.2934,8.0502-4.2801s2.73-5.0534,3.2102-9.2001zm-14.04,0.93994,0.87952-0.23986c0.60017,1.7603,1.167,3.7203,1.7004,5.8801l-0.88013,0.23987c-0.53345-2.1334-1.1001-4.0934-1.6998-5.8801zm5.18-1.0199,0.87952-0.23987c0.69335,2.3067,1.2602,4.3868,1.7004,6.2402l-0.90027,0.21973c-0.39999-1.7598-0.95989-3.8332-1.6797-6.2201z"/>
    <path d="m183.58,615.42-2.8003,0,0,1.7004,2.8003,0zm-2.8003-2.42,0,1.6602,2.8003,0,0-1.6602zm8.2001-0.67993,0,2.6599,5.9399,0,0-2.6599zm0-3.28,0,2.5,5.9399,0,0-2.5zm0-0.78003,5.9399,0,0-2.42-5.9399,0zm-10.24,1.5601,0-0.79956,3.1598,0c0.34668-0.82681,0.6134-1.627,0.80017-2.4005h-1.8201c-0.36011,0.61362-0.82011,1.2337-1.38,1.8604l-0.75989-0.44006c1.0132-1.1332,1.8132-2.4866,2.3999-4.0601l0.85999,0.21972c-0.22665,0.62705-0.45329,1.1605-0.67993,1.6004h5.78v0.8197h-3.4802c-0.17334,0.7068-0.43335,1.507-0.78003,2.4005h4.6204v0.79956h-4.9603c-0.33326,0.7068-0.79326,1.4935-1.38,2.3602h2.6398c0.38696-0.6669,0.69376-1.3202,0.92041-1.9598l0.80017,0.21973c-0.2535,0.67994-0.507,1.26-0.76049,1.7401h2.5604v0.8197h-2.8003v1.6602h2.6202v0.75989h-2.6202v1.7004h2.6202v0.75988h-2.6202v1.8201h2.8003v0.70007c1.6398-1.027,2.5264-2.5472,2.6599-4.5605h-0.96008-0.90027v-10.84h7.76v10.84h-2.42v4.22c-0.00002,0.20019,0.0133,0.34363,0.04,0.4303,0.0266,0.0867,0.0667,0.14333,0.12024,0.16998,0.0535,0.0267,0.15349,0.0467,0.29999,0.0601,0.2665,0.0265,0.48643,0.0397,0.65979,0.0397,0.14688,0,0.36701-0.0132,0.6604-0.0397,0.17332-0.0134,0.29-0.0402,0.35004-0.0803,0.06-0.0401,0.12327-0.18341,0.18982-0.42999,0.0665-0.24659,0.1131-0.59316,0.13977-1.0397,0.0266-0.44657,0.0534-1.1234,0.0803-2.0303l0.85998,0.0799c-0.0269,0.88013-0.0569,1.5402-0.09,1.9803-0.0332,0.44006-0.0765,0.84676-0.13001,1.2201-0.0535,0.37333-0.14355,0.62327-0.27008,0.74982-0.12656,0.12654-0.26318,0.21983-0.40985,0.27984-0.14671,0.06-0.36674,0.10346-0.66009,0.13031-0.17336,0.0134-0.4466,0.0201-0.81971,0.0201-0.38698-0.00001-0.66041-0.007-0.82031-0.0201-0.4533-0.0269-0.74993-0.12359-0.88989-0.29022-0.13999-0.16662-0.20998-0.4833-0.20996-0.95001v-4.5001h-1.6803c-0.15992,2.88-1.6732,4.8934-4.5398,6.04l-0.46021-0.78003c0.48014-0.17334,0.91348-0.37984,1.3-0.61951h-6.3599v1.2h-0.93994v-7.8802c-0.5066,0.55991-0.9133,0.98654-1.2201,1.2799l-0.41992-0.83984c1.4266-1.3867,2.5332-2.8601,3.3197-4.4202zm2.0398,9.8804,2.8003,0,0-1.8201-2.8003,0z"/>
    <path d="m200.4,611.88,0,2.7203,3.0005,0,0-2.7203zm3.0005-3.3197-3.0005,0,0,2.5397,3.0005,0zm3.96,2.5397,0-2.5397-2.9999,0,0,2.5397zm0,0.78003-2.9999,0,0,2.7203,2.9999,0zm7.9199-3.6395c-0.64007-1.0933-1.3068-2.0868-2.0001-2.9803l0.75988-0.46021c0.78693,1.027,1.4604,2.0337,2.0203,3.02zm-12.78-3.6804,0.78003-0.29968c0.57331,1.1731,1.0667,2.3397,1.4801,3.4998h1.3397c0.60017-1.0535,1.1536-2.2068,1.6602-3.4601l0.83984,0.26001c-0.46673,1.1467-0.97332,2.2134-1.5198,3.2001h1.1603v1.9403l2.9596-0.32043c-0.12005-1.7997-0.18007-3.4664-0.18006-5h0.96009c-0.00002,1.7867,0.06,3.4202,0.18005,4.9005l4.2999-0.44006,0.0598,0.85998-4.2999,0.44007c0.18676,1.9731,0.45348,3.7063,0.80018,5.1996,0.81337-1.1332,1.5401-2.5065,2.1802-4.1199l0.8197,0.30029c-0.74668,1.9332-1.6532,3.573-2.7197,4.9194,0.22663,0.85369,0.47331,1.5972,0.74005,2.2305,0.26671,0.63335,0.48999,1.0866,0.66986,1.3599,0.17983,0.27323,0.32306,0.41656,0.42969,0.42999,0.38694,0,0.68703-1.32,0.90026-3.96l0.85999,0.23987c-0.24009,3.1868-0.79999,4.7803-1.6797,4.7803-0.38698,0-0.82714-0.35339-1.3205-1.0602-0.49339-0.70679-0.95329-1.7468-1.3797-3.1201-1.4799,1.6134-3.44,3.0001-5.8801,4.1602l-0.4602-0.74036c2.5602-1.2,4.5803-2.6731,6.0602-4.4196-0.43988-1.6801-0.76662-3.7136-0.98023-6.1005-0.33326,0.0403-0.8365,0.0971-1.5097,0.17029-0.67323,0.0733-1.1765,0.1233-1.5097,0.15015v4.8199h-3.88v1.8799h4.48v0.83984h-4.48v3.7402h-0.96008v-3.7402h-4.74v-0.83984h4.74v-1.8799h-3.0005-0.89966v-7.6202h1.0797c-0.43986-1.1198-0.88643-2.1197-1.3397-2.9999l0.75989-0.3003c0.54687,1.0669,1.0402,2.167,1.4801,3.3002h2.3798c-0.47974-1.2801-0.93303-2.3468-1.3599-3.2001z"/>
    <path d="m227.94,604.86,0.90027-0.23987c0.29296,1.1064,0.60627,2.313,0.93994,3.62,0.87971-0.22663,1.6264-0.33995,2.24-0.33996,1.2797,0.00001,2.2763,0.32665,2.9898,0.97992,0.71348,0.65329,1.0702,1.5665,1.0702,2.7396-0.00002,1.1869-0.38342,2.1337-1.1502,2.8403-0.76682,0.70659-1.7968,1.0599-3.0899,1.0599-1.0535,0.00001-2.0868-0.26-3.1-0.78003l0.29968-0.83984c0.9733,0.46672,1.9067,0.70008,2.8003,0.70007,0.99974,0.00001,1.7964-0.26671,2.3898-0.80017,0.59345-0.53344,0.89018-1.2602,0.8902-2.1802-0.00002-0.90657-0.2701-1.5965-0.81025-2.0697-0.54017-0.47322-1.3168-0.70983-2.33-0.70984-0.53346,0.00001-1.1867,0.0932-1.9598,0.27954,0.0932,0.37354,0.21981,0.90028,0.37994,1.5802,0.1601,0.67994,0.2601,1.1066,0.29999,1.2799l-0.88013,0.23986c-0.0134-0.0533-0.24679-1.0065-0.70007-2.8595-0.70639,0.21322-1.793,0.57313-3.2599,1.0797-0.10661,0.0399-0.28657,0.10316-0.53985,0.18982-0.25331,0.0867-0.4534,0.15666-0.60028,0.20996,0.96027,3.16,1.947,6.6335,2.9602,10.421l-0.9198,0.23987c-0.98674-3.7069-1.9668-7.1602-2.9401-10.36-1.2134,0.41342-2.7067,0.90008-4.48,1.46l-0.28015-0.88012c1.5068-0.46671,3.0068-0.95336,4.5001-1.46-0.52003-1.6532-0.98674-3.1266-1.4002-4.4202l0.90027-0.26001c0.14648,0.42685,0.29642,0.8836,0.44983,1.3702,0.15339,0.48667,0.32002,1.03,0.49988,1.6299,0.17984,0.59999,0.32327,1.0601,0.43029,1.3803,0.10661-0.0403,0.25655-0.0937,0.44983-0.16021,0.19327-0.0665,0.32999-0.11321,0.41016-0.14008,1.5731-0.54646,2.773-0.93973,3.5998-1.1798-0.17335-0.67992-0.49338-1.8866-0.96008-3.62z"/>
    <path d="m240.36,607.3,0-0.89966,15.04,0,0,0.89966c-0.89317,2.6668-2.6864,4.7337-5.3796,6.2006l-0.54016-0.80017c2.4133-1.32,4.0401-3.1201,4.8804-5.4004zm1.2402,12.401c1.32-0.73364,2.3166-1.5004,2.9898-2.3004,0.67321-0.79997,1.1498-1.7999,1.4297-2.9999,0.27994-1.1999,0.41992-2.8265,0.41993-4.8798h0.98022c-0.00001,3.1734-0.36337,5.5034-1.0901,6.99s-2.1501,2.81-4.27,3.97z"/>
    <path d="m261.78,607.94,0-0.9198,11.801,0,0,0.9198zm-1.7596,11.36,0-0.9198,15.32,0,0,0.9198z"/>
    <path d="m282.72,609,0.55969-0.74036c1.8799,1.2537,3.6999,2.6003,5.4602,4.0399,1.4266-2.1464,2.4731-4.4529,3.1396-6.9196l0.92041,0.26001c-0.7068,2.64-1.8068,5.0665-3.3002,7.2797,1.7464,1.4669,3.4464,3.0404,5.1001,4.7205l-0.6604,0.67993c-1.5865-1.6268-3.2465-3.1669-4.9799-4.6204-2.1867,3.0001-4.9801,5.3735-8.3801,7.1204l-0.49988-0.78003c3.2666-1.6801,5.9733-4.0068,8.1201-6.98-1.8534-1.5202-3.68-2.8735-5.4797-4.0601z"/>
    <path d="m306.06,610.32,3.7201,0,0-1.8195-3.7201,0zm2.0001,2.68,0-1.9-2.0001,0,0,1.9zm-2.3804,7.5,0-5,9.92,0,0,5,1.1603,0,0,0.82031-12.64,0,0-0.82031zm3.0402,0,0-4.1797-2.1198,0,0,4.1797zm2.9797,0,0-4.1797-2.1198,0,0,4.1797zm0.84045,0,2.1399,0,0-4.1797-2.1399,0zm-7.7802-12.16c-1.0266-0.91999-1.9399-1.9399-2.7399-3.0597-0.98674,1.6-2.0801,2.9665-3.28,4.0997l-0.33997-0.87952c1.2-1.1735,2.2465-2.4802,3.1396-3.9203h0.92041c0.77311,1.0535,1.6797,2.0402,2.7197,2.9602v-2.4402h5.7599v0.80017h-2.0599v1.8201h1.72v2.0599c1.0002-1.56,1.7401-3.3535,2.2198-5.3802l0.85998,0.14038c-0.1465,0.67995-0.32635,1.3332-0.53955,1.9598h3.54v0.83984h-3.8403c-0.41343,1.0799-0.92002,2.0799-1.5198,2.9999l-0.72021-0.37964v1.1395h-1.72v1.9h2.24v0.78003h-5.0598v1.0803h-0.88012v-7.16zm-4.8804,5.7605c0.40039,1.3066,0.7605,2.6398,1.0803,3.9996l-0.78003,0.22034c-0.30681-1.2935-0.66671-2.6202-1.0797-3.9801zm4.0405-0.18006,0.78003,0.19959c-0.28036,1.1601-0.62704,2.3535-1.04,3.5803l-0.78003-0.22034c0.39998-1.1865,0.74666-2.373,1.04-3.5596zm1.04,5.3198c-2.0003,0.89314-4.0538,1.5598-6.1603,2.0001l-0.13977-0.83985c1.0799-0.24007,2.0398-0.48685,2.8796-0.74035v-6.64h-2.7197v-0.83984h2.7197v-2.8601h-1.8597v-0.8197h4.9396v0.8197h-2.1594v2.8601h2.1997v0.83984h-2.1997v6.3403c0.81298-0.26693,1.5995-0.57373,2.3596-0.92041zm3.1-13.34-2.0001,0,0,1.8201,2.0001,0zm3.7195,6.2,0-0.85998,4.5801,0,0,0.85998z"/>
    <path d="m322.92,610.02,9.5203,0,0-1.5997-9.5203,0zm0,0.78003-0.9198,0,0-3.1598,11.36,0,0,3.1598zm-1.0998,8.2001-0.98022,0,0-7.3602,13.68,0,0,7.3602-4.1602,0c2.2933,0.69336,4.2332,1.4333,5.8197,2.2198l-0.39978,0.78003c-1.72-0.8667-3.76-1.66-6.12-2.3798l0.21972-0.62012h-4.3994l0.26001,0.47973c-1.5336,0.93344-3.6137,1.7135-6.2402,2.3401l-0.28015-0.80017c2.3466-0.55989,4.2533-1.2331,5.7202-2.0196zm0-2.2198,0,1.4197,11.72,0,0-1.4197zm0-2.1802,0,1.4197,11.72,0,0-1.4197zm0-0.75988,11.72,0,0-1.4203-11.72,0zm9.6802-7.84c0.47972-0.68032,0.89964-1.3403,1.2598-1.98l0.82031,0.27954c-0.30682,0.56032-0.66021,1.1271-1.0602,1.7004h3.4198v3.7994h-0.93994v-3.0194h-14.64v3.0194h-0.93994v-3.7994h3.4998c-0.33325-0.48013-0.7133-0.98692-1.1401-1.5204l0.82031-0.33997c0.42683,0.52004,0.88012,1.1402,1.3599,1.8604h3.2202v-2.0605h0.97961v2.0605z"/>
    <path d="m341.04,605.42,0.9198,0.14038c-0.66651,2.4801-0.99976,5.0134-0.99975,7.6001-0.00001,2.5867,0.33324,5.1198,0.99975,7.5995l-0.9198,0.14038c-0.67993-2.5334-1.0199-5.1134-1.0199-7.7402,0-2.6267,0.33997-5.2068,1.0199-7.7402zm9.8999,3.5004c-0.00001-1.3867,0.0533-2.6668,0.15991-3.8403l0.92041,0.0201c-0.0936,1.1735-0.14039,2.4136-0.14038,3.7201,1.2667-0.1066,2.5867-0.26,3.96-0.46021l0.08,0.88013c-1.6667,0.22665-3.0133,0.38656-4.0399,0.47973-0.00001,0.25351,0.003,0.52695,0.0101,0.82032,0.007,0.29338,0.0168,0.61677,0.0302,0.97015,0.0134,0.3534,0.0201,0.63671,0.0201,0.84991,0.0533,1.6264,0.0799,2.9197,0.0799,3.88,1.0799,0.65308,2.3132,1.653,3.7,2.9999l-0.64026,0.62011c-1.1198-1.1068-2.1397-1.9668-3.0597-2.58-0.0533,1.2264-0.36998,2.1296-0.95001,2.7096-0.58005,0.58004-1.4501,0.87006-2.6102,0.87006-1.1202,0-2.0069-0.26998-2.6602-0.80994-0.65329-0.53995-0.97993-1.2699-0.97992-2.1899-0.00001-0.85327,0.32999-1.5399,0.98999-2.0599,0.65998-0.52002,1.5434-0.78003,2.6501-0.78003,0.79996,0,1.6799,0.23336,2.6398,0.70007-0.0265-1.4799-0.0531-2.6066-0.0799-3.3801-0.00001-0.0667-0.01-0.42673-0.0299-1.08s-0.0299-1.14-0.0299-1.4603c-2.0402,0.16033-4.0401,0.24049-5.9998,0.24048v-0.88013c1.9466,0.00001,3.9398-0.0799,5.9796-0.23987zm0.15991,7.7795c-0.94646-0.53303-1.833-0.79955-2.6596-0.79956-0.82663,0.00001-1.4767,0.17335-1.9501,0.52002-0.47343,0.34669-0.71015,0.82663-0.71014,1.4398-0.00001,0.66651,0.23335,1.1898,0.70007,1.5698,0.46671,0.38004,1.12,0.57006,1.9598,0.57006,0.94685,0,1.6269-0.24993,2.0401-0.74981s0.6198-1.3099,0.61981-2.4301z"/>
    <path d="m363.84,620.64-0.80017,0.63965c-1.2935-1.5198-2.6402-2.9264-4.0399-4.22l0.73974-0.70007c1.4002,1.2935,2.7669,2.7203,4.1003,4.2804z"/>
    <path d="m380.42,615.84,0,1.64,5.4401,0,0-1.64zm0-0.75989,5.4401,0,0-1.6596-5.4401,0zm11.38-6.4197c0.78693-0.76008,1.4937-1.5401,2.1204-2.3401h-3.4003c-0.52003,0.85328-1.0934,1.6333-1.72,2.3401zm0.80017,7.1796,2.5598,0,0-2.8198-2.5598,0zm-9.0601-5.2795,3.9002,0,0,0.78003-8.6603,0,0-0.78003,3.8,0,0-1.6602-3.2196,0,0-0.78003,3.2196,0,0-1.6602-3.5999,0,0-0.79956,3.5999,0,0-1.38,0.96008,0,0,1.38,3.7402,0,0,0.79956-3.7402,0,0,1.6602,3.3203,0,0,0.78003-3.3203,0zm1.5802,10.88c-0.46672,0-1.1334-0.0332-2.0001-0.0995v-0.84046c1.04,0.0667,1.6534,0.1001,1.8402,0.1001,0.45328,0,0.71654-0.03,0.78979-0.09,0.0732-0.06,0.10986-0.24994,0.10987-0.56976v-1.6803h-5.4401v3.2605h-0.89965v-8.9002h7.24v7.32c-0.00001,0.67993-0.0934,1.0998-0.28016,1.2598-0.18677,0.15991-0.64006,0.23986-1.3599,0.23986zm2.16-11.28-0.62011-0.61951c1.7598-1.547,3.1331-3.3937,4.1199-5.5402l0.83984,0.19958c-0.1998,0.50702-0.4065,0.94037-0.62011,1.3h4.0204v0.82032c-0.55991,0.77312-1.2333,1.5532-2.0203,2.3401h3.0603v3.54h0.97962v0.8197h-0.97962v4.4403h-0.90027v-0.82031h-2.5598v2.76c-0.00002,0.90657-0.0934,1.4866-0.28015,1.7401-0.18678,0.2535-0.63336,0.38025-1.3397,0.38025-0.49359,0-1.2604-0.0334-2.3004-0.1001v-0.85998c0.93342,0.0667,1.6203,0.10009,2.0606,0.10009,0.41299,0,0.66618-0.0568,0.75958-0.17028,0.0934-0.11353,0.14006-0.47689,0.14008-1.0901v-2.76h-3.8202v-0.80017h3.8202v-2.8198h-4.4202v-0.8197h4.4202v-2.7405h-3.0402v-0.57983c-0.38656,0.42685-0.82642,0.85349-1.3196,1.2799zm7.8796-0.70008-2.5598,0,0,2.7405,2.5598,0z"/>
    <path d="m411.58,607.56,0.83984-0.39978c1.6667,2.7999,3.1067,5.9798,4.3201,9.5398l-0.88012,0.3003c-1.2-3.5201-2.6266-6.6669-4.2798-9.4403zm-7.4603,1.2201c0.3068-1.4665,0.52693-2.9531,0.66041-4.4598l0.93994,0.08c-0.1469,1.5202-0.35361,2.9602-0.62012,4.3201,0.9733-0.0667,1.7132-0.10009,2.2198-0.1001,0.52001,0.00001,0.94003,0.0167,1.2601,0.05,0.32001,0.0334,0.61339,0.10672,0.88013,0.22003,0.26671,0.11333,0.4667,0.25005,0.59997,0.41016,0.13325,0.16012,0.24657,0.40345,0.33997,0.72998,0.0934,0.32655,0.15339,0.68645,0.18005,1.0797,0.0266,0.39328,0.04,0.90994,0.04,1.55-0.00001,2.4402-0.38331,4.4169-1.1499,5.9302-0.76662,1.5133-1.6433,2.2699-2.63,2.2699-0.79997,0-1.7867-0.53324-2.9602-1.5997l0.49987-0.75989c1.0136,0.94645,1.8337,1.4197,2.4603,1.4197,0.67992,0,1.3199-0.66996,1.9199-2.0099,0.59997-1.3399,0.89995-3.1366,0.89997-5.39-0.00002-0.50659-0.007-0.90993-0.0202-1.21-0.0134-0.30008-0.0568-0.57677-0.13-0.83007-0.0733-0.25329-0.15321-0.43324-0.23987-0.53986-0.0867-0.1066-0.23001-0.19988-0.42999-0.27985-0.2-0.0799-0.40997-0.12663-0.62988-0.14007-0.21994-0.0134-0.52339-0.0201-0.91034-0.0201-0.52003,0.00001-1.3133,0.0334-2.3798,0.10009-0.85328,3.9201-2.2599,7.7067-4.22,11.36l-0.83985-0.38025c1.8933-3.5466,3.2532-7.1865,4.0796-10.92-1.2667,0.10662-2.6266,0.24659-4.0796,0.41992l-0.0604-0.85998c1.9067-0.21321,3.3468-0.3599,4.3201-0.44007z"/>
    <path d="m419.38,607.4c4.5736,0.00001,9.6936-0.39326,15.36-1.1798l0.1001,0.90027c-2.8402,0.38657-5.1102,1.2398-6.81,2.5598s-2.5498,2.8599-2.5497,4.6198c-0.00001,1.6402,0.58989,2.9436,1.7697,3.9102,1.1798,0.96659,2.863,1.5433,5.0498,1.73l-0.0995,0.9198c-2.4268-0.18677-4.3202-0.85012-5.6802-1.99-1.3601-1.1399-2.0401-2.6299-2.0401-4.4699,0-1.4534,0.47668-2.7702,1.4301-3.9502,0.95336-1.18,2.31-2.1165,4.0698-2.8094l-0.0195-0.0403c-3.7602,0.48016-7.287,0.72023-10.58,0.72022zm11.8,3.0603,0.7605-0.44006c0.58633,0.90658,1.2329,2.0132,1.9397,3.3197l-0.78003,0.38025c-0.64007-1.2-1.2801-2.2866-1.9202-3.2599zm2.6404-0.80017,0.78003-0.44006c0.76007,1.1735,1.4268,2.3002,2.0001,3.3801l-0.78003,0.39978c-0.7068-1.2797-1.3735-2.393-2.0001-3.3398z"/>
    <path d="m445.13,611.36c-0.52654,0.53305-0.7898,1.1663-0.7898,1.8997,0,0.73344,0.26326,1.3668,0.7898,1.9,0.52652,0.53325,1.1631,0.79987,1.9098,0.79987,0.74665,0,1.3834-0.26662,1.9101-0.79987,0.52672-0.53324,0.79009-1.1667,0.7901-1.9003-0.00001-0.81298-0.24995-1.4662-0.74982-1.9595-0.49988-0.49336-1.15-0.74004-1.9504-0.74005-0.74668,0.00001-1.3833,0.26673-1.9098,0.80017zm-1.7499,1.8799c-0.00001-1.0136,0.3366-1.857,1.0098-2.5302,0.67321-0.67321,1.5233-1.0098,2.5504-1.0098,1.0396,0.00001,1.9328,0.31333,2.6794,0.93994h0.0403c-0.0134-0.54686-0.0401-1.2868-0.08-2.2198-0.00001-0.0403-0.003-0.0937-0.0101-0.16022-0.007-0.0665-0.0101-0.11992-0.0101-0.16022-3.9201,0.17335-7.36,0.26002-10.32,0.26001v-0.85998c3.2532,0.00001,6.6864-0.08,10.3-0.23987-0.0399-0.9733-0.0598-1.96-0.0598-2.9602h0.93994c-0.00001,1.2936,0.0134,2.2669,0.0403,2.9199,1.8799-0.0932,3.7597-0.20648,5.6396-0.33996l0.0604,0.84045c-1.9202,0.13307-3.807,0.24639-5.6604,0.33997-0.00001,0.0533,0.003,0.13327,0.0101,0.23987,0.007,0.10662,0.0101,0.18657,0.0101,0.23986,0.0533,1.7599,0.0799,3.0798,0.08,3.96,0.2132,0.72023,0.31981,1.5603,0.31982,2.5202-0.00001,1.7334-0.55665,3.1601-1.6699,4.2801-1.1133,1.12-2.6965,1.8267-4.7498,2.12l-0.15991-0.92041c3.28-0.45329,5.1265-1.9466,5.5396-4.48,0.0269-0.15991,0.0537-0.3599,0.0806-0.59997h-0.0403c-0.74668,0.93343-1.7399,1.4002-2.9797,1.4001-1.04,0.00001-1.8934-0.33996-2.5601-1.0199-0.66671-0.67993-1.0001-1.5332-1.0001-2.5598z"/>
    <path d="m459.95,620.89c-0.5664-0.56682-0.84961-1.2569-0.84961-2.0703,0-0.81339,0.28331-1.5068,0.84992-2.0801,0.56661-0.57332,1.2566-0.85998,2.07-0.85999,0.81339,0.00001,1.5067,0.28667,2.0801,0.85999,0.57332,0.57332,0.85998,1.2667,0.85999,2.0801-0.00001,0.8134-0.28667,1.5034-0.85999,2.07-0.57333,0.56661-1.2667,0.84991-2.0801,0.84992-0.8134-0.00001-1.5035-0.28321-2.0703-0.84961zm0.57007-3.5803c-0.41341,0.41992-0.62012,0.92326-0.62012,1.51,0,0.58676,0.20671,1.0867,0.62012,1.4999,0.41341,0.41321,0.91339,0.61981,1.4999,0.61982,0.58654-0.00001,1.0899-0.20661,1.51-0.61982,0.42012-0.4132,0.63018-0.91318,0.63019-1.4999-0.00001-0.58674-0.21007-1.0901-0.63019-1.51-0.42013-0.41992-0.92347-0.62988-1.51-0.62989-0.58655,0.00001-1.0865,0.20997-1.4999,0.62989z"/>
    <path d="m38.88,630.76,7.6001,0,0,0.93994-3.3002,0,0,13.66-0.99976,0,0-13.66-3.3002,0z"/>
    <path d="m49.26,634.96,1.38,9.2596,0.03967,0,1.3599-9.2596,1.3202,0,1.3599,9.2596,0.06043,0,1.3599-9.2596,0.97961,0-1.7395,10.4-1.3,0-1.4203-9.2602-0.03967,0-1.38,9.2602-1.2604,0-1.7395-10.4z"/>
    <path d="m60.38,634.96,3.3997,0,0,9.5196,2.3004,0,0,0.88013-6.2006,0,0-0.88013,2.9004,0,0-8.6401-2.3999,0zm2.1796-2.5,0-2.3004,1.2201,0,0,2.3004z"/>
    <path d="m69.04,635.36,2.2003,0,0-3.8,0.97961,0,0,3.8,3.8202,0,0,0.90027-3.8202,0,0,6.2994c-0.000004,0.85368,0.12674,1.4205,0.38025,1.7004,0.25349,0.27994,0.76009,0.41992,1.5198,0.41992,0.64005,0,1.2134-0.1001,1.72-0.3003v0.90027c-0.58635,0.18677-1.1863,0.28015-1.7999,0.28015-1.0665,0-1.7997-0.2067-2.1997-0.62011-0.39999-0.41341-0.59998-1.1735-0.59998-2.2803v-6.3995h-2.2003z"/>
    <path d="m79.04,635.36,2.2003,0,0-3.8,0.97961,0,0,3.8,3.8202,0,0,0.90027-3.8202,0,0,6.2994c-0.000004,0.85368,0.12674,1.4205,0.38025,1.7004,0.25349,0.27994,0.76009,0.41992,1.5198,0.41992,0.64005,0,1.2134-0.1001,1.72-0.3003v0.90027c-0.58635,0.18677-1.1863,0.28015-1.7999,0.28015-1.0665,0-1.7997-0.2067-2.1997-0.62011-0.39999-0.41341-0.59998-1.1735-0.59998-2.2803v-6.3995h-2.2003z"/>
    <path d="m92.78,634.76c1.1731,0.00002,2.043,0.41332,2.6099,1.2399,0.5668,0.82663,0.85021,2.1599,0.85022,3.9999-0.000009,0.0269-0.0034,0.0936-0.01007,0.2002-0.0067,0.10661-0.01008,0.17985-0.01007,0.21972h-6.1603c0.02685,1.4803,0.29032,2.5571,0.7904,3.2303,0.50008,0.67322,1.2567,1.0098,2.2699,1.0098,0.86669,0,1.7533-0.21993,2.6599-0.65979v1.0199c-0.94646,0.36011-1.8465,0.54016-2.7002,0.54016-2.6933,0-4.0399-1.8001-4.0399-5.4004-0.000001-1.8664,0.3067-3.233,0.9201-4.0997,0.6134-0.86669,1.5534-1.3,2.8201-1.3zm-2.7203,4.7998,5.1801,0c-0.01303-1.453-0.23957-2.4662-0.67963-3.0396-0.44007-0.57332-1.0334-0.85998-1.7801-0.85999-0.90658,0.00001-1.5733,0.3-2.0001,0.89997-0.42684,0.59998-0.66691,1.5998-0.72022,2.9996z"/>
    <path d="m101.04,634.96,0,2.3596,0.0403,0c0.82641-1.7065,2.0597-2.5598,3.7-2.5598,0.46671,0.00002,0.93322,0.06,1.3995,0.18006v0.9198c-0.41301-0.13305-0.87952-0.19958-1.3995-0.19959-1.04,0.00001-1.9167,0.42665-2.63,1.2799-0.7133,0.85328-1.07,1.9265-1.0699,3.2196v5.2002h-1.0004v-10.4z"/>
    <path d="m117.94,629.86,0.90027-0.23987c0.29295,1.1064,0.60627,2.313,0.93994,3.62,0.8797-0.22663,1.6264-0.33995,2.24-0.33997,1.2797,0.00002,2.2763,0.32666,2.9898,0.97992,0.71349,0.65329,1.0702,1.5665,1.0703,2.7396-0.00002,1.1869-0.38342,2.1337-1.1502,2.8403-0.76682,0.70659-1.7968,1.0599-3.0899,1.0599-1.0535,0.00001-2.0868-0.26-3.1-0.78003l0.29968-0.83984c0.9733,0.46672,1.9067,0.70008,2.8003,0.70007,0.99974,0.00001,1.7964-0.26672,2.3898-0.80017,0.59344-0.53344,0.89018-1.2602,0.89019-2.1802-0.00001-0.90657-0.27009-1.5965-0.81024-2.0697-0.54018-0.47321-1.3168-0.70982-2.33-0.70984-0.53346,0.00002-1.1867,0.0932-1.9598,0.27955,0.0932,0.37354,0.21981,0.90027,0.37994,1.5802,0.1601,0.67994,0.2601,1.1066,0.29999,1.2799l-0.88013,0.23987c-0.0134-0.0533-0.2468-1.0065-0.70007-2.8595-0.70639,0.21323-1.793,0.57313-3.2599,1.0797-0.10662,0.0399-0.28657,0.10316-0.53986,0.18982-0.2533,0.0867-0.45339,0.15666-0.60028,0.20996,0.96028,3.16,1.947,6.6335,2.9602,10.421l-0.9198,0.23987c-0.98674-3.7069-1.9668-7.1602-2.9401-10.36-1.2134,0.41342-2.7067,0.90007-4.48,1.46l-0.28016-0.88013c1.5068-0.4667,3.0068-0.95336,4.5001-1.46-0.52003-1.6532-0.98674-3.1266-1.4002-4.4202l0.90027-0.26001c0.14648,0.42685,0.29642,0.8836,0.44983,1.3702,0.15339,0.48666,0.32002,1.03,0.49987,1.6299,0.17985,0.59999,0.32328,1.0601,0.4303,1.3803,0.1066-0.0403,0.25655-0.0937,0.44983-0.16022,0.19327-0.0665,0.32999-0.11321,0.41016-0.14007,1.5731-0.54646,2.773-0.93973,3.5998-1.1798-0.17335-0.67992-0.49338-1.8866-0.96008-3.62z"/>
    <path d="m131.78,632.94,0-0.9198,11.801,0,0,0.9198zm-1.7596,11.36,0-0.9198,15.32,0,0,0.9198z"/>
    <path d="m150.94,632.02,13.4,0,0,13.24-0.96008,0,0-1.2-12.44,0,0-0.88013,12.44,0,0-10.28-12.44,0z"/>
    <path d="m171.78,632.94,0-0.9198,11.801,0,0,0.9198zm-1.7596,11.36,0-0.9198,15.32,0,0,0.9198z"/>
    <path d="m190.94,632.02,13.4,0,0,13.24-0.96009,0,0-1.2-12.44,0,0-0.88013,12.44,0,0-10.28-12.44,0z"/>
    <path d="m226.18,640.1,0,0.83984-7.76,0c0.4134,1.0535,1.2902,2.0035,2.6303,2.85,1.3401,0.84656,2.97,1.4633,4.8898,1.8503l-0.29969,0.88013c-1.8803-0.38697-3.5304-1.0437-4.9502-1.9702-1.4199-0.92651-2.4098-1.9499-2.9697-3.0701-0.56031,1.1202-1.5571,2.1436-2.9904,3.0701-1.4333,0.92652-3.1033,1.5832-5.0101,1.9702l-0.29969-0.88013c1.9067-0.38696,3.5334-1.0071,4.8801-1.8604,1.3466-0.85327,2.2266-1.7999,2.6401-2.84h-7.76v-0.83984h7.9797c0.0134-0.0932,0.0201-0.23315,0.0201-0.41992v-2.0203h-5.9601v-0.79956h5.9601v-2.2601h-6.1603v-0.82031h6.1603v-2.0801h-6.5802v2.4805h-0.9198v-3.3203h7.5v-1.7401h0.97962v1.7401h7.5201v3.3203h-0.9198v-2.4805h-6.6003v2.0801h6.1804v0.82031h-6.1804v2.2601h5.9802v0.79956h-5.9802v2.0203c-0.00001,0.0932,0.0134,0.23316,0.0403,0.41992z"/>
    <path d="m235.94,636.86,8.7604,0,0-5.8203-8.7604,0zm-6.3599-6.4203,0.54016-0.70008c1.3599,0.93345,2.5332,1.8402,3.5199,2.7203l-0.57983,0.70007c-0.98674-0.86668-2.1468-1.7735-3.4802-2.7203zm2.7997,7.2601c-1.1865-1.0535-2.4331-2.0402-3.7396-2.9602l0.5597-0.67993c1.44,1.0132,2.6935,1.9932,3.7604,2.9401zm-3.0798,8.3002c1.4669-1.8136,2.6402-3.807,3.5199-5.9802l0.82031,0.33997c-0.88013,2.2534-2.0736,4.3134-3.5803,6.1798zm3.8202,0.52002-0.4602-0.80017c1.9466-0.77352,3.3133-1.7503,4.1-2.9303,0.78673-1.18,1.2068-2.8833,1.2601-5.1099h-2.0801-0.93994v-7.5h10.66v7.5h-3.2196v6.6602c-0.00001,0.52002,0.07,0.82337,0.20996,0.91004,0.13996,0.0867,0.60993,0.13,1.4099,0.13,0.85326,0,1.3532-0.2067,1.4999-0.62012,0.14667-0.41341,0.24667-1.8601,0.29999-4.3402l0.93994,0.0403c-0.0667,2.7865-0.22005,4.443-0.4599,4.9698-0.23988,0.52674-0.99987,0.7901-2.28,0.7901-1.1467,0-1.8567-0.0933-2.1301-0.27984-0.27345-0.18657-0.41017-0.68003-0.41016-1.4804v-6.7798h-2.5598c-0.0399,2.3735-0.5065,4.2335-1.3998,5.5801-0.89336,1.3466-2.3734,2.4334-4.44,3.2602z"/>
    <path d="m263.64,633.9,0.23987,0.88013c-7.6933,2.1733-11.54,4.4466-11.54,6.8201-0.00001,0.93303,0.47332,1.6629,1.42,2.1896,0.94665,0.52673,2.2667,0.7901,3.9603,0.7901,1.853,0,3.9062-0.19999,6.1597-0.59998l0.13977,0.9198c-2.2266,0.39999-4.3465,0.59998-6.3599,0.59998-1.9731,0-3.523-0.34658-4.6497-1.0397-1.1267-0.69316-1.6901-1.6399-1.6901-2.8403-0.00001-1.5999,1.2799-3.1065,3.8397-4.5197-0.58676-2.2803-1.0801-4.647-1.4801-7.1002l0.98022-0.13977c0.3601,2.2001,0.82682,4.4533,1.4002,6.7596,1.8534-0.92,4.3801-1.8266,7.58-2.7197z"/>
    <path d="m275.5,636.08,4.0002,0,0-2.16-4.0002,0zm0,3.2001,4.0002,0,0-2.42-4.0002,0zm0,0.77942-0.91979,0,0-6.9196,4.92,0,0-1.6003-6.0004,0,0-0.8197,6.0004,0,0-1.4398,0.98022,0,0,1.4398,5.6995,0,0,0.8197-5.6995,0,0,1.6003,4.82,0,0,6.9196-4.82,0,0,1.6803,5.6995,0,0,0.80018-5.6995,0,0,2.2797-0.98022,0,0-2.2797-5.8801,0,0-0.80018,5.8801,0,0-1.6803zm8.9002-3.9795,0-2.16-3.9197,0,0,2.16zm0,0.78003-3.9197,0,0,2.42,3.9197,0zm-11.2-3.4003-0.65979,0.57983c-1.027-1.1865-2.0937-2.3197-3.2001-3.3997l0.65979-0.58044c1.2268,1.2402,2.2935,2.3737,3.2001,3.4003zm-4.1998,3.4003,3.8196,0,0,6.04c0.54687,0.98633,1.3103,1.6629,2.2904,2.0297,0.98001,0.36682,2.59,0.55023,4.83,0.55023h6.2799l-0.0403,0.85998h-6.2799c-2.1867,0-3.8333-0.18341-4.9399-0.55023s-1.9532-1.0102-2.54-1.9302c-0.76009,0.94685-1.8001,1.887-3.1201,2.8204l-0.45959-0.78003c1.2797-0.89355,2.2929-1.8068,3.0396-2.7399v-5.4401h-2.8796z"/>
    <path d="m301.16,634.08-4.3402,0,0,1.5601,4.3402,0zm-4.3402-2.3199,0,1.5601,4.3402,0,0-1.5601zm5.26,1.5601,3.7598,0,0,0.75988-3.7598,0,0,1.5601,3.7598,0,0,0.75989-3.7598,0,0,1.5601,4.48,0,0,0.78003-10.7,0,0-5.6799c-0.43987,0.83985-0.99326,1.6331-1.6602,2.3798l-0.63965-0.70008c1.3867-1.4534,2.44-3.36,3.1598-5.7196l0.9198,0.15991c-0.21322,0.66652-0.43315,1.2531-0.65979,1.7596h4.3604c0.30639-0.54645,0.58633-1.1863,0.83985-1.9196l0.89965,0.17944c-0.1998,0.57334-0.45309,1.1534-0.75988,1.7401h3.88v0.82032h-4.1199zm-5.26,4.6399,4.3402,0,0-1.5601-4.3402,0zm6.5399,3.88,3.2202,0c-0.14691,1.7464-0.43703,2.9631-0.87036,3.6499-0.43337,0.68685-1.0565,1.0303-1.8695,1.0303-0.85369,0-1.8471-0.06-2.9803-0.18006l-0.0202-0.84045c1.0933,0.12004,2.02,0.18005,2.7802,0.18005,0.50657,0,0.91988-0.23,1.2399-0.69,0.32001-0.46,0.54004-1.2432,0.66009-2.3496h-3.4003l0.64026-1.9202h-3.3398c-0.22666,1.5198-0.79337,2.7664-1.7001,3.7399-0.90678,0.97351-2.1868,1.7268-3.84,2.2598l-0.46021-0.75989c1.5202-0.46671,2.687-1.1201,3.5004-1.9601,0.81338-0.84004,1.3334-1.9333,1.5601-3.2797h-4.0002v-0.82032h9.5203zm-9.4-8.8,0,0.85999-1.8201,0,0,4.7601c0.60018-0.22664,1.3536-0.53995,2.2601-0.93994l0.20019,0.83984c-0.67994,0.31983-1.5,0.65309-2.4603,0.99976v4.8401c0,0.94685-0.08,1.537-0.23986,1.7703-0.15992,0.23336-0.57984,0.35004-1.2598,0.35004-0.27995,0-0.88664-0.0334-1.8201-0.1001l-0.0201-0.82031c0.73323,0.0533,1.32,0.08,1.7602,0.08,0.31983,0,0.50639-0.0499,0.5597-0.14984,0.0533-0.0999,0.08-0.46315,0.08-1.0898v-4.5599c-0.6665,0.22665-1.4998,0.45981-2.5,0.69947l-0.10009-0.85999c0.67993-0.15991,1.5466-0.40649,2.6001-0.73975v-5.08h-2.5598v-0.85999h2.5598v-3.5602h0.93994v3.5602z"/>
    <path d="m315.13,636.36c-0.52654,0.53305-0.7898,1.1663-0.7898,1.8997,0,0.73344,0.26326,1.3668,0.7898,1.9,0.52652,0.53325,1.1631,0.79987,1.9098,0.79987,0.74665,0,1.3834-0.26662,1.9101-0.79987,0.52672-0.53324,0.79009-1.1667,0.7901-1.9003-0.00001-0.81298-0.24995-1.4662-0.74982-1.9595-0.49988-0.49336-1.15-0.74004-1.9504-0.74005-0.74668,0.00001-1.3833,0.26673-1.9098,0.80017zm-1.7499,1.8799c-0.00001-1.0136,0.3366-1.857,1.0098-2.5302,0.67321-0.67321,1.5233-1.0098,2.5504-1.0098,1.0396,0.00001,1.9328,0.31332,2.6794,0.93994h0.0403c-0.0134-0.54686-0.0401-1.2868-0.08-2.2198-0.00001-0.0403-0.003-0.0937-0.0101-0.16021-0.007-0.0665-0.0101-0.11993-0.0101-0.16022-3.9201,0.17335-7.36,0.26002-10.32,0.26001v-0.85999c3.2532,0.00002,6.6864-0.0799,10.3-0.23987-0.0399-0.97329-0.0598-1.96-0.0598-2.9602h0.93994c-0.00001,1.2936,0.0134,2.2669,0.0403,2.9199,1.8799-0.0932,3.7597-0.20649,5.6396-0.33996l0.0604,0.84045c-1.9202,0.13307-3.807,0.24639-5.6604,0.33997-0.00001,0.0533,0.003,0.13327,0.0101,0.23986,0.007,0.10662,0.0101,0.18658,0.0101,0.23987,0.0533,1.7599,0.0799,3.0798,0.08,3.96,0.2132,0.72022,0.31981,1.5603,0.31982,2.5201-0.00001,1.7334-0.55665,3.1601-1.6699,4.2801-1.1133,1.12-2.6965,1.8267-4.7498,2.1201l-0.15991-0.92041c3.28-0.45329,5.1265-1.9466,5.5396-4.48,0.0269-0.15991,0.0537-0.3599,0.0806-0.59998h-0.0403c-0.74668,0.93344-1.7399,1.4002-2.9797,1.4002-1.04,0-1.8934-0.33996-2.5601-1.0199-0.66671-0.67992-1.0001-1.5332-1.0001-2.5598z"/>
    <path d="m333.86,637.4c-0.00001-0.31981-0.003-0.82976-0.01-1.5298-0.007-0.70006-0.01-1.2434-0.01-1.6299-1.4933,0.24008-3.0267,0.36011-4.6002,0.3601l-0.0201-0.88012c1.5601,0.00001,3.0935-0.12003,4.6002-0.36011v-3.4601h0.9198c-0.00001,1.8001,0.0134,4.007,0.0403,6.6205,1.7598-1.6402,3.1097-2.7703,4.0497-3.3902,0.93993-0.6199,1.6833-0.92986,2.2302-0.92987,0.59976,0.00001,1.023,0.23327,1.2698,0.69977,0.24677,0.46652,0.37016,1.2798,0.37018,2.4399-0.00002,1.1466-0.0334,2.2268-0.1001,3.2404-0.0668,1.0266-0.10011,1.9531-0.1001,2.7796-0.00001,0.90698,0.0467,1.6004,0.14008,2.0804,0.0934,0.47994,0.20669,0.77993,0.33996,0.89996,0.13325,0.12004,0.31991,0.18006,0.56,0.18006,0.31981,0,0.78306-0.20335,1.3898-0.61005,0.60667-0.4067,1.1635-0.91013,1.6705-1.5103l0.67993,0.64026c-0.6535,0.7601-1.3269,1.3535-2.0203,1.7801-0.69338,0.42664-1.3001,0.63996-1.8201,0.63996-0.66652,0-1.1532-0.29338-1.46-0.88013-0.30682-0.58675-0.46022-1.5668-0.4602-2.9401-0.00002-0.83984,0.0333-1.7731,0.10009-2.7997,0.0667-0.9733,0.10009-2.0467,0.1001-3.2202-0.00001-1.04-0.06-1.7201-0.18005-2.0401-0.12005-0.32002-0.33998-0.48003-0.65979-0.48004-0.78655,0.00001-2.8133,1.5534-6.0803,4.66,0.0533,4.3469,0.10009,7.1535,0.14038,8.4198l-0.92041,0.0201c-0.0533-1.9865-0.0999-4.5064-0.13977-7.5598-1.7598,1.72-3.2198,3.1866-4.3799,4.4l-0.67993-0.59997c1.3997-1.4669,3.0796-3.147,5.0397-5.0403z"/>
    <path d="m362.68,629.06,0.73975-0.29968c0.58674,1.0266,1.1202,2.0465,1.6003,3.0597l-0.78003,0.30029c-0.49358-1.0534-1.0136-2.0736-1.5601-3.0603zm2.42-0.36011,0.78003-0.31982c0.61318,1.1068,1.1531,2.16,1.6199,3.1598l-0.78003,0.28015c-0.52004-1.0933-1.06-2.1334-1.6199-3.1201zm-4.2603,1.5802,0.92041,0.0202c-0.0936,1.1731-0.14039,2.4131-0.14038,3.7201,1.2667-0.107,2.5867-0.26041,3.96-0.46021l0.08,0.88013c-1.6667,0.22665-3.0133,0.38657-4.0399,0.47974-0.00001,0.25351,0.003,0.52684,0.0101,0.82,0.007,0.29319,0.0168,0.61647,0.0302,0.96985,0.0134,0.3534,0.0201,0.63671,0.0201,0.84992,0.0533,1.6268,0.0799,2.9201,0.0799,3.88,1.053,0.64006,2.2796,1.6402,3.6798,3.0005l-0.64025,0.61951c-1.1467-1.1332-2.1598-1.9932-3.0396-2.58-0.0533,1.2268-0.37334,2.1302-0.96008,2.7103-0.58676,0.58003-1.4535,0.87005-2.6001,0.87005-1.1202,0-2.0069-0.26998-2.6602-0.80993-0.65329-0.53996-0.97993-1.2699-0.97992-2.19-0.00001-0.85326,0.32999-1.5399,0.98999-2.0599,0.65998-0.52002,1.5434-0.78003,2.6501-0.78003,0.78653,0,1.66,0.23336,2.6202,0.70007-0.0269-1.4803-0.0535-2.607-0.0799-3.3801-0.00002-0.0667-0.0101-0.42673-0.0302-1.08-0.0202-0.65327-0.0302-1.14-0.0302-1.4603-2.0398,0.15993-4.033,0.23988-5.9796,0.23987v-0.87952c1.9466,0.00002,3.9398-0.0801,5.9796-0.24047-0.00001-1.3863,0.0533-2.6662,0.15991-3.8397zm-10,0.33997,0.92041,0.13977c-0.66692,2.4801-1.0004,5.0134-1.0004,7.6001s0.33345,5.12,1.0004,7.6001l-0.92041,0.13978c-0.66651-2.4797-0.99976-5.0595-0.99976-7.7396,0-2.68,0.33325-5.2601,0.99976-7.7402zm9.9805,11.28c-0.94687-0.53345-1.8336-0.80017-2.6602-0.80017-0.82663,0-1.4733,0.17334-1.94,0.52002-0.46672,0.34668-0.70008,0.82682-0.70007,1.4404-0.00001,0.66651,0.22999,1.1898,0.69,1.5698,0.46,0.38004,1.1099,0.57007,1.9498,0.57007,0.94685,0,1.627-0.25004,2.0404-0.75012,0.41339-0.50008,0.6201-1.31,0.62011-2.4298z"/>
    <path d="m373.84,645.64-0.80017,0.63965c-1.2935-1.5198-2.6402-2.9264-4.0399-4.22l0.73974-0.70007c1.4002,1.2935,2.7669,2.7203,4.1003,4.2804z"/>
    <path d="m390.12,641.78-0.90027,0,0-11.68,5,0,0,11.68zm0-3.7201,0,2.8796,3.2196,0,0-2.8796zm0-3.6005,0,2.8204,3.2196,0,0-2.8204zm0-0.78003,3.2196,0,0-2.7399-3.2196,0zm7.3401,0.54016,0-0.8197,8.2599,0,0,0.8197zm-8.9801,11.98c0.86669-1.0266,1.5533-2.2266,2.0599-3.5998l0.80017,0.31982c-0.53345,1.5068-1.247,2.7667-2.1405,3.7799zm3.62-3.0396,0.62012-0.58044c0.62662,0.46672,1.2331,1.0201,1.8195,1.6602,0.70678-2.2001,1.0602-4.92,1.0602-8.1598v-6.0602h10.6v0.85999h-9.6802v5.6403,0.27954h9.9603v0.85998h-4.6002c0.26692,1.3603,0.68033,2.627,1.2402,3.8,0.97329-0.86669,1.8933-1.9132,2.76-3.1396l0.70007,0.49988c-0.98675,1.3733-2.0136,2.5132-3.0804,3.4198,0.84023,1.5601,1.9069,2.7934,3.2001,3.7l-0.44006,0.82032c-1.2663-0.85328-2.3628-2.0733-3.2895-3.66-0.92673-1.5867-1.5968-3.4002-2.0102-5.4404h-1.7999v7.3999c1.0266-0.29297,2.1732-0.68624,3.4399-1.1798l0.15991,0.82031c-2.2266,0.87972-4.4999,1.5397-6.8201,1.98l-0.11963-0.84045c0.85327-0.15992,1.6665-0.33977,2.4396-0.53956v-7.6404h-1.7596c-0.0936,3.3736-0.68035,6.3003-1.7603,8.7799l-0.8197-0.55969c0.0264-0.0802,0.073-0.20355,0.13977-0.37018,0.0667-0.16663,0.12003-0.28981,0.15991-0.36957-0.59978-0.69336-1.3064-1.3534-2.1198-1.98z"/>
    <path d="m417.94,629.86,0.90027-0.23987c0.29296,1.1064,0.60627,2.313,0.93994,3.62,0.87971-0.22663,1.6264-0.33995,2.24-0.33997,1.2797,0.00002,2.2763,0.32666,2.9898,0.97992,0.71348,0.65329,1.0702,1.5665,1.0702,2.7396-0.00002,1.1869-0.38342,2.1337-1.1502,2.8403-0.76683,0.70659-1.7968,1.0599-3.0899,1.0599-1.0535,0.00001-2.0868-0.26-3.1-0.78003l0.29968-0.83984c0.97329,0.46672,1.9067,0.70008,2.8003,0.70007,0.99974,0.00001,1.7964-0.26672,2.3898-0.80017,0.59345-0.53344,0.89018-1.2602,0.8902-2.1802-0.00002-0.90657-0.2701-1.5965-0.81024-2.0697-0.54018-0.47321-1.3168-0.70982-2.33-0.70984-0.53346,0.00002-1.1867,0.0932-1.9598,0.27955,0.0932,0.37354,0.21982,0.90027,0.37995,1.5802,0.1601,0.67994,0.2601,1.1066,0.29998,1.2799l-0.88012,0.23987c-0.0134-0.0533-0.2468-1.0065-0.70008-2.8595-0.70639,0.21323-1.793,0.57313-3.2599,1.0797-0.10662,0.0399-0.28657,0.10316-0.53986,0.18982-0.2533,0.0867-0.4534,0.15666-0.60028,0.20996,0.96028,3.16,1.947,6.6335,2.9602,10.421l-0.9198,0.23987c-0.98675-3.7069-1.9668-7.1602-2.9401-10.36-1.2134,0.41342-2.7067,0.90007-4.48,1.46l-0.28015-0.88013c1.5068-0.4667,3.0068-0.95336,4.5001-1.46-0.52002-1.6532-0.98674-3.1266-1.4001-4.4202l0.90026-0.26001c0.14648,0.42685,0.29643,0.8836,0.44983,1.3702,0.1534,0.48666,0.32003,1.03,0.49988,1.6299,0.17985,0.59999,0.32328,1.0601,0.4303,1.3803,0.1066-0.0403,0.25654-0.0937,0.44983-0.16022,0.19327-0.0665,0.32999-0.11321,0.41015-0.14007,1.5731-0.54646,2.773-0.93973,3.5999-1.1798-0.17335-0.67992-0.49338-1.8866-0.96009-3.62z"/>
    <path d="m441.58,632.56,0.83984-0.39978c1.6667,2.7999,3.1067,5.9798,4.3201,9.5398l-0.88012,0.30029c-1.2-3.5201-2.6266-6.6669-4.2798-9.4403zm-7.4603,1.2201c0.3068-1.4665,0.52693-2.9531,0.66041-4.4598l0.93994,0.08c-0.1469,1.5202-0.35361,2.9602-0.62012,4.3201,0.9733-0.0667,1.7132-0.10009,2.2198-0.1001,0.52001,0.00001,0.94003,0.0167,1.2601,0.05,0.32001,0.0334,0.61339,0.10672,0.88013,0.22003,0.26671,0.11333,0.4667,0.25005,0.59997,0.41015,0.13325,0.16013,0.24657,0.40346,0.33997,0.72999,0.0934,0.32654,0.15339,0.68645,0.18005,1.0797,0.0266,0.39328,0.04,0.90994,0.04,1.55-0.00001,2.4402-0.38331,4.4169-1.1499,5.9302-0.76662,1.5133-1.6433,2.2699-2.63,2.2699-0.79997,0-1.7867-0.53325-2.9602-1.5997l0.49987-0.75989c1.0136,0.94645,1.8337,1.4197,2.4603,1.4197,0.67992,0,1.3199-0.66997,1.9199-2.0099,0.59997-1.3399,0.89995-3.1366,0.89997-5.39-0.00002-0.50658-0.007-0.90992-0.0202-1.21-0.0134-0.30008-0.0568-0.57677-0.13-0.83008-0.0733-0.25328-0.15321-0.43323-0.23987-0.53985-0.0867-0.1066-0.23001-0.19988-0.42999-0.27985-0.2-0.0799-0.40997-0.12663-0.62988-0.14007-0.21994-0.0134-0.52339-0.0201-0.91034-0.0202-0.52003,0.00002-1.3133,0.0334-2.3798,0.1001-0.85328,3.9201-2.2599,7.7067-4.22,11.36l-0.83985-0.38024c1.8933-3.5466,3.2532-7.1865,4.0796-10.92-1.2667,0.10662-2.6266,0.24659-4.0796,0.41992l-0.0604-0.85999c1.9067-0.2132,3.3468-0.35989,4.3201-0.44006z"/>
    <path d="m449.38,632.4c4.5736,0.00001,9.6936-0.39326,15.36-1.1798l0.1001,0.90026c-2.8402,0.38657-5.1102,1.2398-6.81,2.5598s-2.5498,2.8599-2.5497,4.6198c-0.00001,1.6402,0.58989,2.9436,1.7697,3.9102,1.1798,0.96659,2.863,1.5433,5.0498,1.73l-0.0995,0.9198c-2.4268-0.18677-4.3202-0.85012-5.6802-1.99-1.3601-1.1399-2.0401-2.6299-2.0401-4.4699,0-1.4534,0.47668-2.7702,1.4301-3.9502,0.95336-1.18,2.31-2.1165,4.0698-2.8094l-0.0195-0.0403c-3.7602,0.48016-7.287,0.72023-10.58,0.72022zm11.8,3.0603,0.7605-0.44007c0.58633,0.90659,1.2329,2.0132,1.9397,3.3197l-0.78003,0.38025c-0.64007-1.2-1.2801-2.2866-1.9202-3.2599zm2.6404-0.80017,0.78003-0.44007c0.76007,1.1735,1.4268,2.3002,2.0001,3.3801l-0.78003,0.39978c-0.7068-1.2797-1.3735-2.393-2.0001-3.3398z"/>
    <path d="m475.13,636.36c-0.52654,0.53305-0.7898,1.1663-0.7898,1.8997,0,0.73344,0.26326,1.3668,0.7898,1.9,0.52652,0.53325,1.1631,0.79987,1.9098,0.79987,0.74665,0,1.3834-0.26662,1.9101-0.79987,0.52672-0.53324,0.79009-1.1667,0.7901-1.9003-0.00001-0.81298-0.24995-1.4662-0.74982-1.9595-0.49988-0.49336-1.15-0.74004-1.9504-0.74005-0.74668,0.00001-1.3833,0.26673-1.9098,0.80017zm-1.7499,1.8799c-0.00001-1.0136,0.3366-1.857,1.0098-2.5302,0.67321-0.67321,1.5233-1.0098,2.5504-1.0098,1.0396,0.00001,1.9328,0.31332,2.6794,0.93994h0.0403c-0.0134-0.54686-0.0401-1.2868-0.08-2.2198-0.00001-0.0403-0.003-0.0937-0.0101-0.16021-0.007-0.0665-0.0101-0.11993-0.0101-0.16022-3.9201,0.17335-7.36,0.26002-10.32,0.26001v-0.85999c3.2532,0.00002,6.6864-0.0799,10.3-0.23987-0.0399-0.97329-0.0598-1.96-0.0598-2.9602h0.93994c-0.00001,1.2936,0.0134,2.2669,0.0403,2.9199,1.8799-0.0932,3.7597-0.20649,5.6396-0.33996l0.0604,0.84045c-1.9202,0.13307-3.807,0.24639-5.6604,0.33997-0.00001,0.0533,0.003,0.13327,0.0101,0.23986,0.007,0.10662,0.0101,0.18658,0.0101,0.23987,0.0533,1.7599,0.0799,3.0798,0.08,3.96,0.2132,0.72022,0.31981,1.5603,0.31982,2.5201-0.00001,1.7334-0.55665,3.1601-1.6699,4.2801-1.1133,1.12-2.6965,1.8267-4.7498,2.1201l-0.15991-0.92041c3.28-0.45329,5.1265-1.9466,5.5396-4.48,0.0269-0.15991,0.0537-0.3599,0.0806-0.59998h-0.0403c-0.74668,0.93344-1.7399,1.4002-2.9797,1.4002-1.04,0-1.8934-0.33996-2.5601-1.0199-0.66671-0.67992-1.0001-1.5332-1.0001-2.5598z"/>
    <path d="m489.95,645.89c-0.5664-0.56681-0.84961-1.2569-0.84961-2.0703,0-0.81339,0.28331-1.5068,0.84992-2.0801,0.56661-0.57331,1.2566-0.85998,2.07-0.85998,0.81339,0,1.5067,0.28667,2.0801,0.85998,0.57332,0.57333,0.85998,1.2667,0.85999,2.0801-0.00001,0.8134-0.28667,1.5034-0.85999,2.07-0.57333,0.56661-1.2667,0.84991-2.0801,0.84991s-1.5035-0.2832-2.0703-0.84961zm0.57007-3.5803c-0.41341,0.41993-0.62012,0.92326-0.62012,1.51,0,0.58675,0.20671,1.0867,0.62012,1.4999,0.41341,0.41321,0.91339,0.61981,1.4999,0.61981,0.58654,0,1.0899-0.2066,1.51-0.61981,0.42012-0.41321,0.63018-0.91319,0.63019-1.4999-0.00001-0.58675-0.21007-1.0901-0.63019-1.51-0.42013-0.41992-0.92347-0.62988-1.51-0.62988-0.58655,0-1.0865,0.20996-1.4999,0.62988z"/>
   </g>
  </g>
 </g>
</svg>
