<?xml version="1.0" encoding="UTF-8" standalone="no"?>
<!-- Created with Inkscape (http://www.inkscape.org/) -->

<svg
   xmlns:dc="http://purl.org/dc/elements/1.1/"
   xmlns:cc="http://creativecommons.org/ns#"
   xmlns:rdf="http://www.w3.org/1999/02/22-rdf-syntax-ns#"
   xmlns:svg="http://www.w3.org/2000/svg"
   xmlns="http://www.w3.org/2000/svg"
   xmlns:sodipodi="http://sodipodi.sourceforge.net/DTD/sodipodi-0.dtd"
   xmlns:inkscape="http://www.inkscape.org/namespaces/inkscape"
   version="1.1"
   viewBox="0 0 296.5811 166.82309"
   id="svg2"
   inkscape:version="0.48.2 r9819"
   width="100%"
   height="100%"
   sodipodi:docname="screen01.svg">
  <defs
     id="defs30" />
  <sodipodi:namedview
     pagecolor="#ffffff"
     bordercolor="#666666"
     borderopacity="1"
     objecttolerance="10"
     gridtolerance="10"
     guidetolerance="10"
     inkscape:pageopacity="0"
     inkscape:pageshadow="2"
     inkscape:window-width="678"
     inkscape:window-height="480"
     id="namedview28"
     showgrid="false"
     fit-margin-top="0"
     fit-margin-left="0"
     fit-margin-right="0"
     fit-margin-bottom="0"
     inkscape:zoom="0.93217996"
     inkscape:cx="148.29323"
     inkscape:cy="83.406013"
     inkscape:window-x="0"
     inkscape:window-y="0"
     inkscape:window-maximized="0"
     inkscape:current-layer="g8" />
  <metadata
     id="metadata4">
    <rdf:RDF>
      <cc:Work
         rdf:about="">
        <dc:format>image/svg+xml</dc:format>
        <dc:type
           rdf:resource="http://purl.org/dc/dcmitype/StillImage" />
        <dc:title />
      </cc:Work>
    </rdf:RDF>
  </metadata>
  <g
     transform="translate(-868.85106,-557.51861)"
     id="g6">
    <g
       transform="matrix(2.3255791,0,0,2.3255791,568.20019,155.51901)"
       id="g8">
      <path
         d="m 129.28,172.86 127.53,0 0,71.734 -127.53,0 z"
         id="path12"
         inkscape:connector-curvature="0"
         style="opacity:0.73360656;fill:#999999" />
      <g
         style="font-size:78.20800018px;font-style:normal;font-variant:normal;font-weight:normal;font-stretch:normal;line-height:125%;letter-spacing:0px;word-spacing:0px;fill:#f9f9f9;font-family:HGSKyokashotai"
         font-weight="normal"
         transform="matrix(0.74867877,0,0,0.74867877,48.516442,47.306985)"
         font-stretch="normal"
         line-height="125%"
         font-size="78.20800018px"
         font-variant="normal"
         font-style="normal"
         id="g14">
        <g
           font-size="59.28982544px"
           line-height="125%"
           id="g16"
           style="font-size:59.28982544px;line-height:125%;font-family:'Rounded-L M+ 1c light'">
          <path
             d="m 129.19,197.41 c -2e-5,0.0399 -0.0193,0.0597 -0.0579,0.0597 l -11.207,9.1301 c -0.27624,0.19786 -0.56273,0.21776 -0.85946,0.0597 -0.29675,-0.15798 -0.44512,-0.39562 -0.44511,-0.71289 -1e-5,-1.1857 0.43485,-2.1145 1.3046,-2.7864 l 10.198,-8.2399 c 0.83109,-0.63324 1.7008,-0.94988 2.6091,-0.94992 0.39563,4e-5 0.74152,0.13846 1.0377,0.41525 0.29611,0.27688 0.44418,0.63303 0.4442,1.0684 v 40.317 c -2e-5,0.43425 -0.14809,0.7898 -0.4442,1.0666 -0.29616,0.27684 -0.64175,0.41525 -1.0368,0.41525 -0.39507,0 -0.74097,-0.13841 -1.0377,-0.41525 -0.29675,-0.27683 -0.44512,-0.63238 -0.4451,-1.0666 v -38.301 c -2e-5,-0.0398 -0.0199,-0.0597 -0.0597,-0.0597 z"
             id="path18"
             inkscape:connector-curvature="0" />
          <path
             d="m 176.58,215.61 c -3e-5,-13.123 -4.091,-19.684 -12.273,-19.684 -8.182,4e-5 -12.273,6.5615 -12.273,19.684 0,13.123 4.091,19.684 12.273,19.684 8.182,0 12.273,-6.5614 12.273,-19.684 z m 2.9656,0 c -3e-5,14.822 -5.0793,22.234 -15.238,22.234 -10.158,0 -15.238,-7.4112 -15.238,-22.234 0,-14.822 5.0792,-22.234 15.238,-22.234 10.158,5e-5 15.238,7.4113 15.238,22.234 z"
             id="path20"
             inkscape:connector-curvature="0" />
          <path
             d="m 193.86,203.45 0,3.9716 c -2e-5,0.47408 -0.15804,0.86913 -0.47406,1.1852 -0.31605,0.31606 -0.7114,0.47408 -1.186,0.47405 -0.47467,3e-5 -0.87002,-0.15799 -1.186,-0.47405 -0.31605,-0.31602 -0.47407,-0.71107 -0.47406,-1.1852 V 203.45 c -1e-5,-0.47524 0.15801,-0.87089 0.47406,-1.187 0.31603,-0.31601 0.71138,-0.47402 1.186,-0.47405 0.47465,3e-5 0.87,0.15804 1.186,0.47405 0.31602,0.31607 0.47404,0.71172 0.47406,1.187 z m 0,23.122 0,3.9716 c -2e-5,0.47527 -0.15804,0.87092 -0.47406,1.187 -0.31605,0.31604 -0.7114,0.47405 -1.186,0.47405 -0.47467,0 -0.87002,-0.15801 -1.186,-0.47405 -0.31605,-0.31604 -0.47407,-0.71169 -0.47406,-1.187 v -3.9716 c -1e-5,-0.47405 0.15801,-0.8691 0.47406,-1.1852 0.31603,-0.31603 0.71138,-0.47405 1.186,-0.47405 0.47465,0 0.87,0.15802 1.186,0.47405 0.31602,0.31605 0.47404,0.7111 0.47406,1.1852 z"
             id="path22"
             inkscape:connector-curvature="0" />
          <path
             d="m 229.25,196.55 c 2.2533,2.1146 3.3799,5.069 3.3799,8.8632 -3e-5,3.7943 -1.5513,7.816 -4.6537,12.065 -3.1025,4.249 -8.7249,9.9314 -16.867,17.047 -0.0398,0.0386 -0.0597,0.0778 -0.0597,0.11761 -1e-5,0.0398 0.0199,0.0597 0.0597,0.0597 h 20.573 c 0.35582,1e-5 0.6622,0.11852 0.91917,0.35555 0.2569,0.23703 0.38536,0.53347 0.3854,0.88931 -4e-5,0.35584 -0.1285,0.66223 -0.3854,0.91916 -0.25697,0.25694 -0.56335,0.3854 -0.91917,0.3854 h -23.538 c -0.35585,0 -0.65229,-0.12846 -0.88931,-0.3854 -0.23703,-0.25693 -0.35555,-0.56332 -0.35554,-0.91916 -1e-5,-0.8299 0.31603,-1.5217 0.94811,-2.0754 8.4196,-7.2725 14.151,-12.935 17.195,-16.986 3.0434,-4.0518 4.565,-7.7966 4.5651,-11.234 -3e-5,-3.0832 -0.86943,-5.4649 -2.6082,-7.1452 -1.73877,-1.6803 -4.2288,-2.5204 -7.47,-2.5205 -3.5187,4e-5 -6.9975,0.90956 -10.437,2.7286 -0.31605,0.15806 -0.61248,0.1481 -0.88931,-0.0299 -0.27684,-0.17788 -0.41526,-0.42486 -0.41526,-0.74094 0,-0.98788 0.45476,-1.7195 1.3643,-2.1948 3.3992,-1.5802 6.9564,-2.3702 10.672,-2.3703 4.0325,5e-5 7.1748,1.0573 9.4269,3.1718 z"
             id="path24"
             inkscape:connector-curvature="0" />
          <path
             d="m 269.48,223.32 c -3e-5,4.7032 -1.2946,8.2999 -3.8838,10.79 -2.5892,2.4903 -6.3543,3.7355 -11.295,3.7355 -3.1628,0 -6.2062,-0.61278 -9.1301,-1.8383 -0.90953,-0.39565 -1.3643,-1.0874 -1.3643,-2.0754 0,-0.31604 0.13841,-0.57297 0.41525,-0.7708 0.27683,-0.19782 0.55337,-0.21772 0.82961,-0.0597 3.1628,1.4632 6.246,2.1948 9.2496,2.1948 3.9915,0 7.0249,-1.0081 9.1003,-3.0244 2.0753,-2.0162 3.113,-5.0002 3.113,-8.9519 -2e-5,-3.4004 -0.93879,-5.9899 -2.8163,-7.7686 -1.8776,-1.7786 -4.6148,-2.6679 -8.2119,-2.6679 -2.7672,2e-5 -5.2177,0.67191 -7.3515,2.0156 -0.90952,0.55369 -1.7394,0.83053 -2.4897,0.83051 -0.35585,2e-5 -0.66224,-0.1384 -0.91916,-0.41526 -0.25694,-0.27681 -0.3655,-0.59255 -0.32569,-0.94721 l 1.1851,-18.736 c 0.0398,-0.47401 0.23763,-0.86936 0.59348,-1.186 0.35584,-0.3166 0.77079,-0.47492 1.2449,-0.47496 h 19.031 c 0.35582,4e-5 0.65226,0.12851 0.88932,0.3854 0.237,0.25697 0.35551,0.56336 0.35554,0.91916 -3e-5,0.35589 -0.11854,0.65233 -0.35554,0.88931 -0.23706,0.23707 -0.5335,0.35559 -0.88932,0.35555 h -17.786 c -0.15803,4e-5 -0.23704,0.099 -0.23703,0.29674 l -1.1272,15.89 c -1e-5,0.0398 0.0199,0.0597 0.0597,0.0597 0.0398,2e-5 0.0597,-0.01 0.0597,-0.0299 -1e-5,-0.0199 0.0199,-0.0298 0.0597,-0.0299 2.4101,-1.5416 5.1965,-2.3124 8.3593,-2.3124 4.3473,3e-5 7.707,1.1267 10.079,3.3799 2.3721,2.2533 3.5581,5.4354 3.5582,9.5463 z"
             id="path26"
             inkscape:connector-curvature="0" />
        </g>
      </g>
    </g>
  </g>
</svg>
