<?xml version="1.0" encoding="UTF-8" standalone="no"?>
<!-- Created with Inkscape (http://www.inkscape.org/) -->
<svg xmlns:rdf="http://www.w3.org/1999/02/22-rdf-syntax-ns#" xmlns="http://www.w3.org/2000/svg" height="100%" width="100%" version="1.1" xmlns:cc="http://creativecommons.org/ns#" xmlns:dc="http://purl.org/dc/elements/1.1/" viewBox="0 0 149.02 83.822">
 <defs></defs>
 <metadata>
  <rdf:RDF>
   <cc:Work rdf:about="">
    <dc:format>image/svg+xml</dc:format>
    <dc:type rdf:resource="http://purl.org/dc/dcmitype/StillImage"/>
    <dc:title/>
   </cc:Work>
  </rdf:RDF>
 </metadata>
 <g transform="translate(-918.59622,-570.30668)">
  <g transform="matrix(2.3255791,0,0,2.3255791,568.20019,155.51901)">
   <g transform="matrix(0.37618481,0,0,0.37618481,110.08846,117.86022)">
    <path opacity="0.85840676" d="m107.88,160.82,170.34,0,0,95.814-170.34,0z" fill="#000"/>
    <g style="word-spacing:0px;letter-spacing:0px;" font-family="&apos;Rounded-L M+ 1c light&apos;" transform="translate(0,-6.8800067)" font-style="normal" font-stretch="normal" font-variant="normal" font-weight="normal" line-height="125%" fill="#f9f9f9">
     <g font-size="38.15288544px" transform="scale(0.95848652,1.0433115)" line-height="125%">
      <path style="" d="m126.56,220.55,0,1.488c0,0.2546-0.0827,0.46457-0.248,0.62991-0.16534,0.16533-0.37531,0.248-0.6299,0.248-0.25461,0-0.47079-0.0827-0.64854-0.248-0.17775-0.16534-0.26663-0.37531-0.26663-0.62991v-28.92c0-0.30503,0.10809-0.56564,0.32427-0.78185,0.21617-0.21615,0.47679-0.32424,0.78185-0.32427h6.7916c0.30504,0.00003,0.55925,0.10812,0.76263,0.32427,0.20336,0.21621,0.30505,0.47682,0.30506,0.78185v26.173c-0.00001,0.30505-0.1017,0.56567-0.30506,0.78185-0.20338,0.21618-0.45759,0.32427-0.76263,0.32426h-5.9521c-0.10169,0.00001-0.15253,0.0508-0.15253,0.15253zm0-26.745,0,10.644c0,0.1017,0.0508,0.15254,0.15253,0.15252h5.151c0.10168,0.00002,0.15252-0.0508,0.15253-0.15252v-10.644c-0.00001-0.10166-0.0508-0.1525-0.15253-0.15253h-5.151c-0.10169,0.00003-0.15253,0.0509-0.15253,0.15253zm0,12.552,0,12.286c0,0.10169,0.0508,0.15253,0.15253,0.15253h5.151c0.10168,0,0.15252-0.0508,0.15253-0.15253v-12.286c-0.00001-0.10167-0.0508-0.15251-0.15253-0.15252h-5.151c-0.10169,0.00001-0.15253,0.0508-0.15253,0.15252zm21.022-7.3248,0,2.8992c-0.00003,0.10171,0.0508,0.15255,0.15253,0.15253h9.4998c0.20334,0.00002,0.38148,0.0765,0.53443,0.22937,0.15288,0.15294,0.22934,0.33108,0.22938,0.53443-0.00004,0.20339-0.0765,0.38134-0.22938,0.53385-0.15295,0.15255-0.33109,0.22881-0.53443,0.22879h-21.594c-0.20416,0.00002-0.38249-0.0762-0.53501-0.22879-0.15254-0.15251-0.2288-0.33046-0.22879-0.53385-0.00001-0.20335,0.0762-0.38149,0.22879-0.53443,0.15252-0.15289,0.33085-0.22935,0.53501-0.22937h9.8817c0.10166,0.00002,0.15251-0.0508,0.15253-0.15253v-2.8992c-0.00002-0.12728-0.0509-0.19093-0.15253-0.19095h-8.127c-0.20338,0.00002-0.38133-0.0698-0.53384-0.20958-0.15255-0.1397-0.22881-0.31144-0.22879-0.51522-0.00002-0.20373,0.0762-0.38187,0.22879-0.53443,0.15251-0.1525,0.33046-0.22876,0.53384-0.22879h8.127c0.10166,0.00003,0.15251-0.0508,0.15253-0.15252v-2.8992c-0.00002-0.12727-0.0509-0.19092-0.15253-0.19095h-9.1959c-0.20339,0.00003-0.38134-0.0762-0.53385-0.22879-0.15254-0.1525-0.22881-0.33064-0.22879-0.53443-0.00002-0.20373,0.0762-0.38827,0.22879-0.55364,0.15251-0.1653,0.33046-0.24797,0.53385-0.248h9.1959c0.10166,0.00003,0.15251-0.0508,0.15253-0.15253v-1.5637c-0.00002-0.25457,0.0953-0.47715,0.28584-0.66774,0.19054-0.19054,0.41293-0.28582,0.66717-0.28585,0.25419,0.00003,0.47677,0.0953,0.66774,0.28585,0.19093,0.19059,0.2864,0.41317,0.28643,0.66774v1.5637c-0.00003,0.10171,0.0508,0.15256,0.15253,0.15253h8.7756c0.20333,0.00003,0.38769,0.0827,0.55306,0.248,0.1653,0.16537,0.24797,0.34991,0.248,0.55364-0.00003,0.20379-0.0827,0.38193-0.248,0.53443-0.16537,0.15256-0.34973,0.22882-0.55306,0.22879h-8.7756c-0.10171,0.00003-0.15256,0.0637-0.15253,0.19095v2.8992c-0.00003,0.1017,0.0508,0.15255,0.15253,0.15252h7.7451c0.20334,0.00003,0.38129,0.0763,0.53385,0.22879,0.15249,0.15256,0.22876,0.3307,0.22879,0.53443-0.00003,0.20378-0.0763,0.37552-0.22879,0.51522-0.15256,0.13974-0.33051,0.2096-0.53385,0.20958h-7.7451c-0.10171,0.00002-0.15256,0.0637-0.15253,0.19095zm4.3115,22.587c1.068,0,1.6976-0.0573,1.8886-0.17174,0.19091-0.11449,0.28639-0.47718,0.28642-1.0881v-2.6326c-0.00003-0.12729-0.0513-0.19094-0.15369-0.19095h-15.032c-0.12732,0.00001-0.19097,0.0637-0.19095,0.19095v4.8075c-0.00002,0.2546-0.0827,0.47077-0.248,0.64853-0.16535,0.17775-0.37513,0.26663-0.62932,0.26663-0.25423,0-0.47041-0.0889-0.64854-0.26663-0.17816-0.17776-0.26723-0.39393-0.26721-0.64853v-15.185c-0.00002-0.30504,0.10167-0.55926,0.30505-0.76264,0.20336-0.20336,0.45757-0.30504,0.76264-0.30506h16.903c0.30503,0.00002,0.55924,0.1017,0.76264,0.30506,0.20334,0.20338,0.30502,0.4576,0.30506,0.76264v13.01c-0.00004,1.3227-0.22262,2.1368-0.66775,2.4422-0.44519,0.30544-1.5325,0.45816-3.2619,0.45817-1.2466-0.00001-2.4929-0.0384-3.7387-0.11527-0.22902-0.0248-0.42618-0.11993-0.59149-0.28526-0.16536-0.16534-0.24802-0.3625-0.248-0.59149-0.00002-0.22898,0.0762-0.42614,0.22879-0.59148,0.1525-0.16533,0.34326-0.23519,0.57227-0.20958,1.5516,0.10169,2.7726,0.15253,3.663,0.15253zm-13.201-13.622,0,3.0529c-0.00002,0.1017,0.0636,0.15254,0.19095,0.15253h15.032c0.10243,0.00001,0.15366-0.0508,0.15369-0.15253v-3.0529c-0.00003-0.10167-0.0513-0.15251-0.15369-0.15253h-15.032c-0.12732,0.00002-0.19097,0.0509-0.19095,0.15253zm0.19095,8.0502,15.032,0c0.10243,0.00001,0.15366-0.0508,0.15369-0.15252v-3.0517c-0.00003-0.10168-0.0513-0.15252-0.15369-0.15253h-15.032c-0.12732,0.00001-0.19097,0.0508-0.19095,0.15253v3.0517c-0.00002,0.10169,0.0636,0.15253,0.19095,0.15252z"/>
      <path style="" d="m171.39,207.92c-2.3652,2.2379-4.9341,4.7812-7.7067,7.6299-0.38112,0.40752-0.77525,0.40771-1.1824,0.00058-0.40713-0.40712-0.41974-0.81406-0.0378-1.2208,3.0521-3.1033,6.0278-6.0285,8.927-8.7756,0.0768-0.0761,0.11526-0.17774,0.11527-0.30505v-5.8752c-0.00001-0.10166-0.0512-0.15251-0.15369-0.15253h-8.24c-0.22899,0.00002-0.41994-0.0826-0.57286-0.248-0.15291-0.16531-0.22937-0.36247-0.22937-0.59148,0-0.22896,0.0765-0.42613,0.22937-0.59148,0.15292-0.16532,0.34387-0.24798,0.57286-0.24801h8.24c0.10245,0.00003,0.15368-0.0508,0.15369-0.15252v-5.7996c-0.00001-0.25457,0.0889-0.47075,0.26663-0.64853,0.17774-0.17773,0.39392-0.26661,0.64853-0.26664,0.25459,0.00003,0.46456,0.0889,0.62991,0.26664,0.16532,0.17778,0.24799,0.39396,0.248,0.64853v12.018c-0.00001,0.0256,0.019,0.0449,0.057,0.0576,0.038,0.0128,0.0699,0.006,0.0955-0.0192,6.0281-5.4685,10.149-8.2027,12.362-8.2027,1.297,0.00003,2.2254,0.52767,2.7851,1.5829,0.55962,1.0553,0.83945,2.8424,0.83948,5.3612-0.00003,1.3732-0.13994,3.3188-0.41974,5.8368-0.27986,2.5181-0.41977,4.4513-0.41974,5.7996-0.00003,1.1442,0.0572,2.0851,0.17174,2.8229,0.11446,0.7378,0.27979,1.272,0.496,1.6027,0.21615,0.33068,0.42592,0.54685,0.62932,0.64854,0.20334,0.10168,0.45756,0.15253,0.76264,0.15252,1.221,0.00001,2.8363-1.0557,4.846-3.167,0.38109-0.38112,0.74979-0.38112,1.1061,0,0.35625,0.40752,0.35625,0.81465,0,1.2214-1.0681,1.1442-2.1808,2.0597-3.3382,2.7467-1.1574,0.68695-2.1432,1.0304-2.9574,1.0304-1.2715,0-2.1806-0.52783-2.7274-1.5835-0.54687-1.0557-0.8203-2.8425-0.82027-5.3606-0.00003-1.6021,0.12688-3.5477,0.38074-5.8368,0.28019-2.4676,0.42029-4.4008,0.42032-5.7996-0.00003-1.4756-0.10812-2.6203-0.32427-3.4342-0.2162-0.81384-0.4578-1.3098-0.72479-1.488-0.26705-0.17812-0.60432-0.26719-1.0118-0.26721-1.7551,0.00002-5.7864,2.9124-12.094,8.7372-0.0761,0.0769-0.11412,0.15332-0.11411,0.22937v16.062c-0.00001,0.2546-0.0827,0.47097-0.248,0.64911-0.16535,0.17814-0.37532,0.26721-0.62991,0.26722-0.25461-0.00001-0.47079-0.0891-0.64853-0.26722-0.17777-0.17814-0.26664-0.39451-0.26663-0.64911v-14.383c-0.00001-0.0256-0.0128-0.0448-0.0384-0.0576s-0.0513-0.006-0.0769,0.0192z"/>
     </g>
     <g font-size="10.33612919px" transform="matrix(0.88904392,0,0,0.96772332,19.824386,17.240016)" line-height="125%">
      <path d="m195.01,231.11,0-2.1705c0-0.0828,0.0275-0.15355,0.0827-0.21213,0.0551-0.0585,0.12396-0.0878,0.20661-0.0878h6.9976c0.0826,0,0.15155,0.0293,0.20676,0.0878,0.0552,0.0586,0.0828,0.12929,0.0828,0.21213v2.1705c-0.00001,0.0827-0.0276,0.15152-0.0828,0.20661-0.0552,0.0551-0.12413,0.0827-0.20676,0.0827h-6.9976c-0.0827,0-0.15152-0.0275-0.20661-0.0827-0.0551-0.0551-0.0827-0.12396-0.0827-0.20661zm0.50627-2.0052,0,0.66147c0,0.0345,0.0138,0.0517,0.0413,0.0517h6.4705c0.0345,0,0.0517-0.0172,0.0517-0.0517v-0.66147c-0.00001-0.0345-0.0172-0.0517-0.0517-0.0517h-6.4705c-0.0275,0.00001-0.0413,0.0172-0.0413,0.0517zm0,1.168,0,0.67188c0,0.0276,0.0138,0.0413,0.0413,0.0413h6.4705c0.0345,0,0.0517-0.0138,0.0517-0.0413v-0.67188c-0.00001-0.0275-0.0172-0.0413-0.0517-0.0413h-6.4705c-0.0275,0.00001-0.0413,0.0138-0.0413,0.0413zm2.4292,6.15c-1.2887,0.26181-2.5118,0.46159-3.6694,0.59933-0.062,0.007-0.11718-0.009-0.16545-0.0465-0.0483-0.038-0.0758-0.0879-0.0826-0.14983-0.007-0.0619,0.0104-0.11703,0.0517-0.16529,0.0413-0.0483,0.093-0.0759,0.15504-0.0828,0.30323-0.0414,0.53413-0.0725,0.69269-0.0931,0.0275,0,0.0413-0.0172,0.0413-0.0517v-3.9379c0-0.0275-0.0138-0.0413-0.0413-0.0413h-0.58923c-0.062,0-0.11371-0.0224-0.15504-0.0672-0.0413-0.0448-0.062-0.0982-0.062-0.16024,0-0.062,0.0207-0.11544,0.062-0.16024s0.093-0.0672,0.15504-0.0672h8.9097c0.062,0.00001,0.11544,0.0224,0.16024,0.0672s0.0672,0.0982,0.0672,0.16024c-0.00001,0.062-0.0224,0.11546-0.0672,0.16024-0.0448,0.0448-0.0982,0.0672-0.16024,0.0672h-4.7236c-0.0345,0-0.0517,0.0138-0.0517,0.0413v4.858c-0.00001,0.0688-0.0224,0.12554-0.0672,0.17033-0.0448,0.0448-0.10163,0.0672-0.17049,0.0672-0.0689,0-0.12571-0.0224-0.17049-0.0672-0.0448-0.0448-0.0672-0.10157-0.0672-0.17033v-0.89931c0-0.0206-0.0172-0.0309-0.0517-0.0309zm-2.5118-3.9278,0,0.85767c0,0.0278,0.0138,0.0416,0.0413,0.0416h2.4809c0.0275,0.00001,0.0413-0.0139,0.0413-0.0416v-0.85767c0-0.0275-0.0138-0.0413-0.0413-0.0413h-2.4809c-0.0275,0-0.0413,0.0138-0.0413,0.0413zm0,1.3538,0,0.95104c0,0.0275,0.0138,0.0413,0.0413,0.0413h2.4809c0.0275,0,0.0413-0.0138,0.0413-0.0413v-0.95104c0-0.0345-0.0138-0.0517-0.0413-0.0517h-2.4809c-0.0275,0-0.0413,0.0173-0.0413,0.0517zm0,1.4472,0,1.075c0,0.0206,0.0138,0.0309,0.0413,0.0309,0.8544-0.13101,1.6814-0.27569,2.4809-0.43403,0.0275,0,0.0413-0.0172,0.0413-0.0517v-0.62014c0-0.0345-0.0138-0.0517-0.0413-0.0517h-2.4809c-0.0275,0-0.0413,0.0172-0.0413,0.0517zm7.9228,1.6901c0.0242,0.0585,0.0259,0.11523,0.005,0.17033-0.0207,0.0551-0.0604,0.0964-0.11892,0.12397-0.0586,0.0275-0.1154,0.031-0.17049,0.0104-0.703-0.24814-1.3404-0.59606-1.9122-1.0438-0.0276-0.0208-0.0517-0.0208-0.0726,0-0.55811,0.43404-1.2023,0.78196-1.9327,1.0438-0.14468,0.0482-0.24468,0.003-0.29998-0.13437-0.0206-0.0551-0.0189-0.11193,0.005-0.17049,0.0241-0.0586,0.0638-0.0982,0.11907-0.11876,0.64075-0.22754,1.2229-0.53771,1.7466-0.93053,0.0275-0.0206,0.031-0.0412,0.0104-0.0618-0.50996-0.47546-0.94063-1.0267-1.292-1.6538-0.0757-0.13773-0.0447-0.24456,0.0931-0.32048,0.131-0.0757,0.23436-0.0447,0.31007,0.0931,0.34466,0.62014,0.76155,1.1542,1.2507,1.6021,0.0139,0.0139,0.0311,0.0139,0.0517,0,0.57871-0.53055,1.0162-1.1782,1.3125-1.9431,0.0139-0.0275,0.004-0.0413-0.0309-0.0413h-3.3386c-0.062,0-0.11545-0.0224-0.16024-0.0672-0.0448-0.0448-0.0672-0.0982-0.0672-0.16024,0-0.062,0.0224-0.11371,0.0672-0.15503,0.0448-0.0413,0.0982-0.062,0.16024-0.062h3.6486c0.062,0,0.11544,0.0207,0.16024,0.062s0.0672,0.093,0.0672,0.15503c-0.00001,0.14469-0.0276,0.28936-0.0826,0.43404-0.31692,0.82686-0.77514,1.5193-1.3747,2.0774-0.0208,0.0208-0.0174,0.0381,0.0104,0.0517,0.50973,0.37894,1.0816,0.68564,1.7156,0.92012,0.0551,0.0206,0.0947,0.0602,0.11892,0.11892z"/>
      <path d="m207.09,234.19,4.0521,0c0.0826,0,0.1515,0.0275,0.20661,0.0827,0.0551,0.0551,0.0826,0.12396,0.0826,0.2066v1.5504c-0.00001,0.0829-0.0275,0.15357-0.0826,0.21213-0.0551,0.0586-0.12397,0.0879-0.20661,0.0879h-3.8142c-0.0345,0-0.0517,0.0138-0.0517,0.0413v0.1962c0,0.069-0.0224,0.12586-0.0672,0.17065-0.0448,0.0448-0.10163,0.0672-0.17049,0.0672-0.0689,0-0.12571-0.0224-0.1705-0.0672-0.0448-0.0448-0.0672-0.10168-0.0672-0.17065v-2.0879c-0.00001-0.0826,0.0275-0.15151,0.0826-0.2066,0.0551-0.0551,0.12396-0.0827,0.20661-0.0827zm3.866,1.6743,0-1.199c0-0.0275-0.0173-0.0413-0.0517-0.0413h-3.5764c-0.0345,0-0.0517,0.0138-0.0517,0.0413v1.199c0,0.0275,0.0172,0.0413,0.0517,0.0413h3.5764c0.0345,0,0.0517-0.0138,0.0517-0.0413zm1.3747,1.4472c-0.27569,0-0.64433-0.0138-1.1059-0.0413-0.062-0.007-0.11545-0.0328-0.16024-0.0776-0.0448-0.0448-0.0672-0.0982-0.0672-0.16024,0-0.062,0.0207-0.11544,0.062-0.16024s0.0895-0.0637,0.14462-0.0568c0.57892,0.0275,0.92695,0.0413,1.0441,0.0413,0.27547,0,0.43907-0.0275,0.49081-0.0827,0.0517-0.0551,0.0776-0.2412,0.0776-0.55831v-2.6872c-0.00001-0.0278-0.0138-0.0416-0.0413-0.0416h-7.3181c-0.0275,0-0.0413,0.0139-0.0413,0.0416v3.5761c0,0.069-0.0241,0.12759-0.0724,0.17585-0.0483,0.0483-0.10682,0.0724-0.17569,0.0724-0.0689-0.00001-0.12917-0.0241-0.1809-0.0724-0.0517-0.0483-0.0776-0.10688-0.0776-0.17585v-3.7622c0-0.0828,0.0293-0.15182,0.0879-0.20692s0.12927-0.0826,0.21213-0.0827h7.8139c0.0828,0.00001,0.15355,0.0276,0.21213,0.0827,0.0585,0.0551,0.0878,0.12407,0.0879,0.20692v2.8424c-0.00001,0.49608-0.0552,0.80788-0.16545,0.93542-0.1103,0.12754-0.38594,0.19131-0.82691,0.19131zm1.2195-8.1139c0.0414,0.0412,0.0621,0.0928,0.0621,0.15488-0.00001,0.062-0.0207,0.11372-0.062,0.15504-0.0413,0.0413-0.093,0.062-0.15504,0.062h-8.5583c-0.062,0.00001-0.11372-0.0206-0.15504-0.062-0.0413-0.0413-0.062-0.093-0.062-0.15504,0-0.062,0.0207-0.1137,0.062-0.15503,0.0413-0.0413,0.093-0.062,0.15504-0.062h3.9795c0.0275,0.00001,0.0413-0.0138,0.0413-0.0413v-0.67187c-0.00001-0.069,0.0258-0.12927,0.0774-0.1809,0.0516-0.0516,0.11192-0.0774,0.1809-0.0774,0.069,0.00001,0.12927,0.0258,0.1809,0.0774,0.0516,0.0516,0.0774,0.11193,0.0774,0.1809v0.67187c-0.00001,0.0276,0.0138,0.0413,0.0413,0.0413h3.9795c0.062,0.00001,0.11365,0.0207,0.15488,0.0621zm-1.4573,1.3747,0,1.4781c-0.00001,0.0826-0.0276,0.15325-0.0827,0.21181-0.0551,0.0586-0.12397,0.0879-0.20661,0.0879h-5.375c-0.0826,0-0.15151-0.0293-0.2066-0.0879-0.0551-0.0586-0.0827-0.12917-0.0827-0.21181v-1.4781c0-0.0826,0.0276-0.15156,0.0827-0.20676s0.12396-0.0828,0.2066-0.0828h5.375c0.0826,0,0.15151,0.0276,0.20661,0.0828s0.0826,0.12413,0.0827,0.20676zm-0.50628,1.3125,0-1.1264c0-0.0345-0.0139-0.0517-0.0416-0.0517h-4.8577c-0.0278,0-0.0416,0.0172-0.0416,0.0517v1.1264c0,0.0276,0.0139,0.0413,0.0416,0.0413h4.8577c0.0277,0.00001,0.0416-0.0138,0.0416-0.0413z"/>
      <path d="m216.29,231.65,0,0.69238c0,0.0827-0.0275,0.15152-0.0826,0.20661-0.0551,0.0551-0.12402,0.0826-0.20677,0.0826-0.0828,0-0.15167-0.0275-0.20676-0.0826-0.0551-0.0551-0.0827-0.12396-0.0827-0.20661v-0.69238c0-0.0829,0.0275-0.15182,0.0827-0.20692,0.0551-0.0551,0.12401-0.0826,0.20676-0.0827,0.0828,0.00001,0.15167,0.0276,0.20677,0.0827s0.0826,0.12407,0.0826,0.20692zm0,4.0309,0,0.69237c0,0.0829-0.0275,0.15183-0.0826,0.20693s-0.12402,0.0826-0.20677,0.0826c-0.0828,0-0.15167-0.0276-0.20676-0.0826-0.0551-0.0551-0.0827-0.12407-0.0827-0.20693v-0.69237c0-0.0827,0.0275-0.15151,0.0827-0.20661,0.0551-0.0551,0.12401-0.0826,0.20676-0.0827,0.0828,0.00001,0.15167,0.0275,0.20677,0.0827,0.0551,0.0551,0.0826,0.12396,0.0826,0.20661z"/>
      <path d="m221.05,229.72c0,0.007-0.003,0.0104-0.0101,0.0104l-1.9538,1.5917c-0.0482,0.0345-0.0981,0.038-0.14983,0.0104-0.0517-0.0275-0.0776-0.069-0.0776-0.12428,0-0.20671,0.0758-0.36863,0.22743-0.48577l1.7778-1.4365c0.14489-0.1104,0.29651-0.1656,0.45486-0.16561,0.069,0.00001,0.12927,0.0241,0.1809,0.0724,0.0516,0.0483,0.0774,0.11035,0.0774,0.18626v7.0285c0,0.0757-0.0258,0.13769-0.0774,0.18595-0.0516,0.0483-0.11188,0.0724-0.18074,0.0724-0.0689,0-0.12918-0.0241-0.1809-0.0724-0.0517-0.0483-0.0776-0.11024-0.0776-0.18595v-6.6771c0-0.007-0.003-0.0104-0.0104-0.0104z"/>
      <path d="m229.31,232.89c0-2.2877-0.7132-3.4316-2.1396-3.4316-1.4264,0.00001-2.1396,1.1439-2.1396,3.4316s0.71319,3.4316,2.1396,3.4316,2.1396-1.1439,2.1396-3.4316zm0.517,0c-0.00001,2.584-0.88548,3.876-2.6564,3.876-1.771,0-2.6564-1.292-2.6564-3.876s0.88547-3.876,2.6564-3.876c1.771,0.00001,2.6564,1.292,2.6564,3.876z"/>
      <path d="m232.16,237.14c-0.0139-0.0551-0.007-0.11019,0.0205-0.16529s0.0689-0.0861,0.12397-0.0931c1.2266-0.22732,2.2948-0.54086,3.2045-0.94062,0.0275-0.0137,0.0309-0.0274,0.0101-0.0413-0.73727-0.42037-1.3402-0.90614-1.8087-1.4573-0.0414-0.0482-0.0569-0.10498-0.0465-0.17049,0.0104-0.0655,0.0432-0.11203,0.0983-0.13958,0.13079-0.0826,0.2514-0.0654,0.3618,0.0517,0.50974,0.58566,1.1402,1.0784,1.8913,1.4781,0.0345,0.007,0.0655,0.007,0.0931,0,0.95786-0.49628,1.7262-1.0958,2.3049-1.7986-0.00001-0.0139-0.003-0.0242-0.0101-0.0309h-5.5507c-0.062,0-0.11372-0.0207-0.15504-0.0621-0.0413-0.0414-0.062-0.0931-0.062-0.15504,0-0.0619,0.0207-0.1136,0.062-0.15503,0.0413-0.0414,0.093-0.0621,0.15504-0.0621h5.9639c0.062,0,0.11371,0.0207,0.15504,0.0621,0.0413,0.0414,0.062,0.0931,0.062,0.15488-0.00001,0.14489-0.0413,0.27243-0.12397,0.38262-0.55117,0.73033-1.3195,1.3642-2.3049,1.9018-0.0275,0.0139-0.0275,0.0277,0,0.0413,0.86134,0.37894,1.9122,0.69248,3.1524,0.94062,0.0551,0.007,0.0982,0.038,0.12917,0.0931,0.031,0.0551,0.0397,0.11019,0.026,0.16529-0.0484,0.13795-0.1449,0.19315-0.28957,0.1656-1.3644-0.27569-2.5358-0.64443-3.5142-1.1062-0.0276-0.007-0.0586-0.007-0.0931,0-1.0474,0.49628-2.2361,0.86839-3.566,1.1163-0.14468,0.0275-0.24109-0.031-0.28925-0.1757zm-0.15519-4.9198c0,1.9639-0.286,3.6073-0.85798,4.9302-0.0275,0.0551-0.074,0.0879-0.13942,0.0983-0.0654,0.0104-0.12229-0.005-0.17065-0.0465-0.1308-0.11713-0.16182-0.25497-0.0931-0.41353,0.51689-1.2884,0.77534-2.8974,0.77534-4.8268v-2.6566c0-0.0826,0.0276-0.15151,0.0826-0.20661,0.0551-0.0551,0.12407-0.0826,0.20693-0.0826h3.5969c0.0345,0.00001,0.0517-0.0172,0.0517-0.0517v-0.63056c-0.00001-0.069,0.0258-0.12926,0.0774-0.1809,0.0516-0.0516,0.11192-0.0774,0.1809-0.0774,0.069,0.00001,0.12927,0.0258,0.1809,0.0774,0.0516,0.0516,0.0774,0.11194,0.0774,0.1809v0.63056c-0.00001,0.0345,0.0138,0.0517,0.0413,0.0517h3.659c0.062,0.00001,0.11544,0.0207,0.16024,0.062s0.0672,0.093,0.0672,0.15504c-0.00001,0.062-0.0224,0.11372-0.0672,0.15503-0.0448,0.0413-0.0982,0.062-0.16024,0.062h-1.5194c-0.0276,0.00001-0.0413,0.0138-0.0413,0.0413v0.97153c-0.00001,0.0276,0.0138,0.0413,0.0413,0.0413h1.5194c0.062,0.00001,0.11371,0.0207,0.15504,0.062,0.0413,0.0413,0.062,0.093,0.062,0.15503-0.00001,0.062-0.0207,0.11377-0.062,0.15519-0.0413,0.0414-0.093,0.0621-0.15504,0.0621h-1.5194c-0.0276,0-0.0413,0.0138-0.0413,0.0413v1.4882c-0.00001,0.0827-0.0293,0.15157-0.0879,0.20677s-0.12918,0.0828-0.21182,0.0828h-3.6899c-0.0829,0.00001-0.15357-0.0276-0.21213-0.0828-0.0586-0.0552-0.0879-0.12412-0.0879-0.20677v-1.4882c0-0.0275-0.0138-0.0413-0.0413-0.0413h-1.726c-0.0345,0-0.0517,0.0138-0.0517,0.0413zm5.592,0.0827,0-1.3229c-0.00001-0.0275-0.0138-0.0413-0.0413-0.0413h-3.1837c-0.0275,0-0.0413,0.0138-0.0413,0.0413v1.3229c0,0.0275,0.0138,0.0413,0.0413,0.0413h3.1837c0.0275,0,0.0413-0.0138,0.0413-0.0413zm-0.0413-2.8528-3.1837,0c-0.0275,0.00001-0.0413,0.0138-0.0413,0.0413v0.97153c0,0.0276,0.0138,0.0413,0.0413,0.0413h3.1837c0.0275,0.00001,0.0413-0.0138,0.0413-0.0413v-0.97153c-0.00001-0.0275-0.0138-0.0413-0.0413-0.0413zm-3.7729,0-1.726,0c-0.0345,0.00001-0.0517,0.0138-0.0517,0.0413v0.97153c0,0.0276,0.0172,0.0413,0.0517,0.0413h1.726c0.0275,0.00001,0.0413-0.0138,0.0413-0.0413v-0.97153c0-0.0275-0.0138-0.0413-0.0413-0.0413z"/>
      <path d="m244.91,229.36-3.3386,7.4834c-0.0688,0.15856-0.18936,0.23784-0.3618,0.23784-0.0618,0-0.10825-0.0259-0.13926-0.0776-0.031-0.0517-0.0328-0.10515-0.005-0.16024l3.3386-7.4834c0.062-0.15855,0.18263-0.23783,0.3618-0.23784,0.062,0.00001,0.10683,0.0259,0.13438,0.0776,0.0275,0.0517,0.0309,0.10515,0.0101,0.16024z"/>
      <path d="m246.87,231.11,0-2.1705c0-0.0828,0.0275-0.15355,0.0826-0.21213,0.0551-0.0585,0.12397-0.0878,0.20661-0.0878h6.9976c0.0826,0,0.15156,0.0293,0.20677,0.0878,0.0552,0.0586,0.0828,0.12929,0.0828,0.21213v2.1705c-0.00001,0.0827-0.0276,0.15152-0.0828,0.20661-0.0552,0.0551-0.12413,0.0827-0.20677,0.0827h-6.9976c-0.0826,0-0.15151-0.0275-0.20661-0.0827-0.0551-0.0551-0.0826-0.12396-0.0826-0.20661zm0.50627-2.0052,0,0.66147c0,0.0345,0.0138,0.0517,0.0413,0.0517h6.4705c0.0345,0,0.0517-0.0172,0.0517-0.0517v-0.66147c-0.00001-0.0345-0.0173-0.0517-0.0517-0.0517h-6.4705c-0.0275,0.00001-0.0413,0.0172-0.0413,0.0517zm0,1.168,0,0.67188c0,0.0276,0.0138,0.0413,0.0413,0.0413h6.4705c0.0345,0,0.0517-0.0138,0.0517-0.0413v-0.67188c-0.00001-0.0275-0.0173-0.0413-0.0517-0.0413h-6.4705c-0.0275,0.00001-0.0413,0.0138-0.0413,0.0413zm2.4292,6.15c-1.2886,0.26181-2.5118,0.46159-3.6694,0.59933-0.062,0.007-0.11718-0.009-0.16544-0.0465-0.0483-0.038-0.0758-0.0879-0.0826-0.14983-0.007-0.0619,0.0104-0.11703,0.0517-0.16529,0.0413-0.0483,0.093-0.0759,0.15503-0.0828,0.30324-0.0414,0.53414-0.0725,0.69269-0.0931,0.0276,0,0.0413-0.0172,0.0413-0.0517v-3.9379c0-0.0275-0.0138-0.0413-0.0413-0.0413h-0.58923c-0.062,0-0.11371-0.0224-0.15503-0.0672-0.0413-0.0448-0.062-0.0982-0.062-0.16024,0-0.062,0.0207-0.11544,0.062-0.16024s0.093-0.0672,0.15503-0.0672h8.9097c0.062,0.00001,0.11544,0.0224,0.16024,0.0672s0.0672,0.0982,0.0672,0.16024c-0.00001,0.062-0.0224,0.11546-0.0672,0.16024-0.0448,0.0448-0.0982,0.0672-0.16024,0.0672h-4.7236c-0.0345,0-0.0517,0.0138-0.0517,0.0413v4.858c0,0.0688-0.0224,0.12554-0.0672,0.17033-0.0448,0.0448-0.10163,0.0672-0.1705,0.0672-0.0689,0-0.1257-0.0224-0.17049-0.0672-0.0448-0.0448-0.0672-0.10157-0.0672-0.17033v-0.89931c0-0.0206-0.0172-0.0309-0.0517-0.0309zm-2.5118-3.9278,0,0.85767c-0.00001,0.0278,0.0138,0.0416,0.0413,0.0416h2.4809c0.0276,0.00001,0.0413-0.0139,0.0413-0.0416v-0.85767c0-0.0275-0.0138-0.0413-0.0413-0.0413h-2.4809c-0.0275,0-0.0413,0.0138-0.0413,0.0413zm0,1.3538,0,0.95104c-0.00001,0.0275,0.0138,0.0413,0.0413,0.0413h2.4809c0.0276,0,0.0413-0.0138,0.0413-0.0413v-0.95104c0-0.0345-0.0138-0.0517-0.0413-0.0517h-2.4809c-0.0275,0-0.0413,0.0173-0.0413,0.0517zm0,1.4472,0,1.075c-0.00001,0.0206,0.0138,0.0309,0.0413,0.0309,0.8544-0.13101,1.6814-0.27569,2.4809-0.43403,0.0276,0,0.0413-0.0172,0.0413-0.0517v-0.62014c0-0.0345-0.0138-0.0517-0.0413-0.0517h-2.4809c-0.0275,0-0.0413,0.0172-0.0413,0.0517zm7.9227,1.6901c0.0242,0.0585,0.0259,0.11523,0.005,0.17033-0.0207,0.0551-0.0604,0.0964-0.11892,0.12397-0.0586,0.0275-0.11541,0.031-0.17049,0.0104-0.70301-0.24814-1.3404-0.59606-1.9122-1.0438-0.0276-0.0208-0.0517-0.0208-0.0726,0-0.55812,0.43404-1.2023,0.78196-1.9327,1.0438-0.14469,0.0482-0.24468,0.003-0.29998-0.13437-0.0206-0.0551-0.0189-0.11193,0.005-0.17049,0.0241-0.0586,0.0638-0.0982,0.11908-0.11876,0.64074-0.22754,1.2229-0.53771,1.7466-0.93053,0.0275-0.0206,0.031-0.0412,0.0104-0.0618-0.50996-0.47546-0.94063-1.0267-1.292-1.6538-0.0757-0.13773-0.0447-0.24456,0.0931-0.32048,0.13101-0.0757,0.23436-0.0447,0.31007,0.0931,0.34466,0.62014,0.76156,1.1542,1.2507,1.6021,0.0139,0.0139,0.0311,0.0139,0.0517,0,0.57871-0.53055,1.0162-1.1782,1.3125-1.9431,0.0139-0.0275,0.004-0.0413-0.0309-0.0413h-3.3386c-0.062,0-0.11546-0.0224-0.16024-0.0672-0.0448-0.0448-0.0672-0.0982-0.0672-0.16024-0.00001-0.062,0.0224-0.11371,0.0672-0.15503,0.0448-0.0413,0.0982-0.062,0.16024-0.062h3.6486c0.062,0,0.11544,0.0207,0.16024,0.062s0.0672,0.093,0.0672,0.15503c0,0.14469-0.0276,0.28936-0.0826,0.43404-0.31691,0.82686-0.77513,1.5193-1.3747,2.0774-0.0208,0.0208-0.0174,0.0381,0.0104,0.0517,0.50973,0.37894,1.0816,0.68564,1.7156,0.92012,0.0551,0.0206,0.0947,0.0602,0.11892,0.11892z"/>
      <path d="m257.3,231.98c-0.26875,0.5375-0.57893,1.0474-0.93053,1.5298-0.0343,0.0482-0.0842,0.0722-0.14967,0.0722-0.0655,0.00001-0.1155-0.0241-0.14999-0.0722-0.0965-0.14468-0.0931-0.28599,0.0104-0.42394,0.94398-1.3023,1.6296-2.8321,2.0569-4.5892,0.0137-0.0688,0.0498-0.12212,0.10835-0.16008,0.0586-0.0379,0.12234-0.05,0.19131-0.0361,0.069,0.007,0.12065,0.0394,0.15504,0.0981,0.0344,0.0587,0.0447,0.1224,0.0311,0.19115-0.17917,0.79932-0.44445,1.6193-0.79584,2.4601-0.0139,0.0414-0.0208,0.069-0.0208,0.0827v6.15c0,0.069-0.0224,0.12586-0.0672,0.17065-0.0448,0.0448-0.10162,0.0672-0.17049,0.0672-0.0689,0-0.12744-0.0224-0.1757-0.0672-0.0483-0.0448-0.0724-0.10167-0.0724-0.17065v-5.3024c0-0.0137-0.007-0.0137-0.0205,0zm7.5969,4.2688c0.20671,0,0.37557-0.56158,0.50659-1.6847,0.007-0.062,0.036-0.11024,0.0877-0.14463,0.0517-0.0344,0.10513-0.0447,0.16024-0.0311,0.14467,0.0345,0.21017,0.13101,0.19652,0.28957-0.16551,1.3919-0.45844,2.0878-0.8788,2.0878-0.49608,0-0.98874-0.41348-1.478-1.2404-0.48924-0.82696-0.84405-1.9708-1.0644-3.4314,0-0.0278-0.0172-0.0416-0.0517-0.0416h-2.5635c-0.0345,0-0.0517,0.0139-0.0517,0.0416v3.0285c0,0.0206,0.0138,0.0309,0.0413,0.0309,0.89583-0.22732,1.6952-0.46505,2.3982-0.7132,0.0551-0.0206,0.10845-0.0155,0.16009,0.0155,0.0516,0.0309,0.0844,0.074,0.0983,0.12933,0.0206,0.15162-0.038,0.2515-0.17569,0.29966-1.1921,0.42037-2.4083,0.74768-3.6486,0.98194-0.062,0.0137-0.11892,0.003-0.17065-0.0311-0.0517-0.0344-0.081-0.0826-0.0879-0.14462-0.007-0.062,0.009-0.11892,0.0465-0.17065,0.0378-0.0517,0.0878-0.0844,0.14983-0.0981,0.28935-0.0551,0.50637-0.0999,0.65105-0.13438,0.0278-0.0139,0.0416-0.0311,0.0416-0.0517v-5.8399c0-0.0826,0.0293-0.15324,0.0879-0.21181,0.0586-0.0586,0.12916-0.0878,0.21181-0.0879,1.7914-0.0206,3.4486-0.22384,4.9716-0.60973,0.062-0.0139,0.12233-0.005,0.1809,0.0257,0.0586,0.031,0.0948,0.0776,0.10867,0.13958,0.0345,0.15162-0.0172,0.24467-0.15519,0.27915-0.58567,0.15142-1.2265,0.27538-1.9226,0.3719-0.0276,0.00001-0.0413,0.0138-0.0413,0.0413,0.0139,0.80626,0.0656,1.5436,0.15519,2.2121-0.00001,0.0343,0.0172,0.0514,0.0517,0.0514h2.1188c0.062,0.00001,0.1137,0.0207,0.15503,0.0621,0.0413,0.0414,0.062,0.0931,0.062,0.15504-0.00001,0.0619-0.0207,0.1153-0.062,0.16008-0.0413,0.0448-0.093,0.0672-0.15503,0.0672h-2.0465c-0.0276,0-0.0413,0.0172-0.0413,0.0517,0.20671,1.2405,0.50474,2.2414,0.8941,3.0028,0.38934,0.76135,0.74247,1.142,1.0594,1.142zm-5.0854-4.641,2.5014,0c0.0275,0.00001,0.0413-0.0171,0.0413-0.0514-0.0757-0.62035-0.1205-1.337-0.13437-2.15-0.00001-0.0206-0.0138-0.0309-0.0413-0.0309-0.84075,0.10326-1.6332,0.15835-2.3774,0.16529-0.0276,0-0.0413,0.0138-0.0413,0.0413v1.9844c0,0.0275,0.0172,0.0413,0.0517,0.0413zm-0.77502,5.0028,4.858,0c0.0618,0,0.11512,0.0224,0.15992,0.0672s0.0672,0.0982,0.0672,0.16024c-0.00001,0.062-0.0224,0.11371-0.0672,0.15503-0.0448,0.0413-0.0981,0.062-0.15992,0.062h-4.858c-0.062,0-0.11377-0.0207-0.15519-0.062-0.0414-0.0413-0.0622-0.093-0.0621-0.15503-0.00001-0.062,0.0207-0.11545,0.0621-0.16024,0.0414-0.0448,0.0931-0.0672,0.15519-0.0672z"/>
      <path d="m268.16,231.65,0,0.69238c0,0.0827-0.0276,0.15152-0.0827,0.20661-0.0551,0.0551-0.12402,0.0826-0.20676,0.0826-0.0827,0-0.15167-0.0275-0.20677-0.0826s-0.0826-0.12396-0.0826-0.20661v-0.69238c0-0.0829,0.0275-0.15182,0.0826-0.20692s0.12402-0.0826,0.20677-0.0827c0.0827,0.00001,0.15167,0.0276,0.20676,0.0827,0.0551,0.0551,0.0827,0.12407,0.0827,0.20692zm0,4.0309,0,0.69237c0,0.0829-0.0276,0.15183-0.0827,0.20693s-0.12402,0.0826-0.20676,0.0826c-0.0827,0-0.15167-0.0276-0.20677-0.0826-0.0551-0.0551-0.0826-0.12407-0.0826-0.20693v-0.69237c0-0.0827,0.0275-0.15151,0.0826-0.20661s0.12402-0.0826,0.20677-0.0827c0.0827,0.00001,0.15167,0.0275,0.20676,0.0827,0.0551,0.0551,0.0827,0.12396,0.0827,0.20661z"/>
      <path d="m272.89,232.1c-0.62015,0-1.13,0.18258-1.5297,0.54775-0.39965,0.36517-0.59948,0.81997-0.59948,1.3644,0,0.15162,0.012,0.3118,0.0361,0.48056s0.0809,0.36685,0.17049,0.59428c0.0896,0.22742,0.20498,0.42899,0.34619,0.60468,0.1412,0.1757,0.34277,0.32558,0.60468,0.44965,0.26192,0.12407,0.56163,0.18611,0.89915,0.18611,0.64789,0,1.1527-0.18779,1.5144-0.56337,0.3617-0.37557,0.54254-0.91139,0.54255-1.6074-0.00001-0.62014-0.18259-1.1179-0.54775-1.4934-0.36517-0.37546-0.84405-0.5632-1.4366-0.5632zm-0.0725,4.6719c-1.757,0-2.6354-1.137-2.6354-3.4111,0-1.4539,0.25839-2.5409,0.77518-3.261,0.51678-0.72002,1.2472-1.08,2.1912-1.08,0.50994,0.00001,0.96469,0.0654,1.3642,0.1962,0.14467,0.0414,0.21701,0.14826,0.21702,0.32048-0.00001,0.0551-0.0241,0.0999-0.0722,0.13437-0.0482,0.0345-0.0964,0.0414-0.14478,0.0208-0.45465-0.15161-0.9094-0.22742-1.3642-0.22743-0.72361,0.00001-1.3059,0.28422-1.7469,0.85262-0.44098,0.56842-0.67524,1.3936-0.70279,2.4755,0,0.007,0.003,0.0104,0.0104,0.0104,0.0137,0.00001,0.0205-0.003,0.0205-0.0104,0.19999-0.35139,0.4946-0.62529,0.88385-0.8217,0.38924-0.19641,0.84231-0.29461,1.3592-0.29462,0.73033,0.00001,1.316,0.22738,1.7571,0.68213,0.44108,0.45475,0.66162,1.0542,0.66163,1.7984-0.00001,0.82013-0.23086,1.461-0.69254,1.9227-0.46169,0.46169-1.0888,0.69253-1.8814,0.69253z"/>
      <path d="m277.72,237.14c-0.0139-0.0551-0.007-0.11019,0.0205-0.16529,0.0276-0.0551,0.0689-0.0861,0.12397-0.0931,1.2266-0.22732,2.2948-0.54086,3.2045-0.94062,0.0275-0.0137,0.0309-0.0274,0.0101-0.0413-0.73728-0.42037-1.3402-0.90614-1.8087-1.4573-0.0414-0.0482-0.0569-0.10498-0.0465-0.17049,0.0104-0.0655,0.0432-0.11203,0.0983-0.13958,0.13079-0.0826,0.25139-0.0654,0.3618,0.0517,0.50974,0.58566,1.1402,1.0784,1.8913,1.4781,0.0345,0.007,0.0655,0.007,0.0931,0,0.95786-0.49628,1.7262-1.0958,2.3049-1.7986-0.00001-0.0139-0.003-0.0242-0.0101-0.0309h-5.5507c-0.062,0-0.11372-0.0207-0.15504-0.0621-0.0413-0.0414-0.062-0.0931-0.062-0.15504,0-0.0619,0.0207-0.1136,0.062-0.15503,0.0413-0.0414,0.093-0.0621,0.15504-0.0621h5.9639c0.062,0,0.11371,0.0207,0.15504,0.0621,0.0413,0.0414,0.062,0.0931,0.062,0.15488-0.00001,0.14489-0.0413,0.27243-0.12397,0.38262-0.55117,0.73033-1.3195,1.3642-2.3049,1.9018-0.0276,0.0139-0.0276,0.0277,0,0.0413,0.86134,0.37894,1.9122,0.69248,3.1524,0.94062,0.0551,0.007,0.0981,0.038,0.12917,0.0931,0.031,0.0551,0.0397,0.11019,0.026,0.16529-0.0484,0.13795-0.1449,0.19315-0.28957,0.1656-1.3644-0.27569-2.5358-0.64443-3.5142-1.1062-0.0276-0.007-0.0586-0.007-0.0931,0-1.0474,0.49628-2.2361,0.86839-3.566,1.1163-0.14468,0.0275-0.2411-0.031-0.28925-0.1757zm-0.15519-4.9198c0,1.9639-0.286,3.6073-0.85798,4.9302-0.0276,0.0551-0.074,0.0879-0.13942,0.0983-0.0654,0.0104-0.12229-0.005-0.17065-0.0465-0.1308-0.11713-0.16182-0.25497-0.0931-0.41353,0.51689-1.2884,0.77534-2.8974,0.77534-4.8268v-2.6566c0-0.0826,0.0276-0.15151,0.0826-0.20661,0.0551-0.0551,0.12407-0.0826,0.20693-0.0826h3.5969c0.0345,0.00001,0.0517-0.0172,0.0517-0.0517v-0.63056c-0.00001-0.069,0.0258-0.12926,0.0774-0.1809,0.0516-0.0516,0.11192-0.0774,0.1809-0.0774,0.069,0.00001,0.12927,0.0258,0.1809,0.0774,0.0516,0.0516,0.0774,0.11194,0.0774,0.1809v0.63056c-0.00001,0.0345,0.0138,0.0517,0.0413,0.0517h3.659c0.062,0.00001,0.11544,0.0207,0.16024,0.062s0.0672,0.093,0.0672,0.15504c-0.00001,0.062-0.0224,0.11372-0.0672,0.15503-0.0448,0.0413-0.0982,0.062-0.16024,0.062h-1.5194c-0.0276,0.00001-0.0413,0.0138-0.0413,0.0413v0.97153c0,0.0276,0.0138,0.0413,0.0413,0.0413h1.5194c0.062,0.00001,0.1137,0.0207,0.15504,0.062,0.0413,0.0413,0.062,0.093,0.062,0.15503-0.00001,0.062-0.0207,0.11377-0.062,0.15519-0.0413,0.0414-0.093,0.0621-0.15504,0.0621h-1.5194c-0.0276,0-0.0413,0.0138-0.0413,0.0413v1.4882c0,0.0827-0.0293,0.15157-0.0878,0.20677-0.0586,0.0552-0.12918,0.0828-0.21182,0.0828h-3.6899c-0.0829,0.00001-0.15357-0.0276-0.21213-0.0828-0.0586-0.0552-0.0879-0.12412-0.0879-0.20677v-1.4882c0-0.0275-0.0138-0.0413-0.0413-0.0413h-1.726c-0.0345,0-0.0517,0.0138-0.0517,0.0413zm5.592,0.0827,0-1.3229c0-0.0275-0.0138-0.0413-0.0413-0.0413h-3.1837c-0.0276,0-0.0413,0.0138-0.0413,0.0413v1.3229c-0.00001,0.0275,0.0138,0.0413,0.0413,0.0413h3.1837c0.0275,0,0.0413-0.0138,0.0413-0.0413zm-0.0413-2.8528-3.1837,0c-0.0276,0.00001-0.0413,0.0138-0.0413,0.0413v0.97153c-0.00001,0.0276,0.0138,0.0413,0.0413,0.0413h3.1837c0.0275,0.00001,0.0413-0.0138,0.0413-0.0413v-0.97153c0-0.0275-0.0138-0.0413-0.0413-0.0413zm-3.7729,0-1.726,0c-0.0345,0.00001-0.0517,0.0138-0.0517,0.0413v0.97153c0,0.0276,0.0172,0.0413,0.0517,0.0413h1.726c0.0276,0.00001,0.0413-0.0138,0.0413-0.0413v-0.97153c0-0.0275-0.0138-0.0413-0.0413-0.0413z"/>
     </g>
    </g>
   </g>
  </g>
 </g>
 <g transform="translate(86.463346,6.5483057)">
  <path d="m23.997,13.663c5.707,0,10.334,4.6271,10.334,10.334,0,5.7057-4.6284,10.334-10.334,10.334-5.7057,0-10.334-4.6284-10.334-10.334,0-5.707,4.6271-10.334,10.334-10.334z" stroke="#FFF" stroke-dasharray="none" stroke-miterlimit="4" stroke-width="3.84556198" fill="none"/>
  <path fill="#FFF" d="m45.994,25.996h-3.998c-1.105,0-2-0.895-2-1.999s0.895-2,2-2h3.998c1.105,0,2,0.896,2,2s-0.894,1.999-2,1.999z"/>
  <path fill="#FFF" d="m38.139,12.685c-0.781,0.781-2.049,0.781-2.828,0-0.781-0.781-0.781-2.047,0-2.828l2.828-2.828c0.779-0.781,2.047-0.781,2.828,0,0.779,0.781,0.779,2.047,0,2.828l-2.828,2.828z"/>
  <path fill="#FFF" d="m23.998,7.999c-1.105,0-2-0.896-2-2v-3.999c0-1.104,0.895-2,2-2,1.104,0,2,0.896,2,2v3.999c0,1.104-0.897,2-2,2z"/>
  <path fill="#FFF" d="M9.857,12.685,7.029,9.857c-0.781-0.781-0.781-2.047,0-2.828s2.047-0.781,2.828,0l2.828,2.828c0.781,0.781,0.781,2.047,0,2.828s-2.047,0.781-2.828,0z"/>
  <path fill="#FFF" d="m7.999,23.997c0,1.104-0.896,1.999-2,1.999h-4c-1.104,0-1.999-0.895-1.999-1.999s0.896-2,1.999-2h4c1.105,0,2,0.896,2,2z"/>
  <path fill="#FFF" d="m9.857,35.309c0.781-0.78,2.047-0.78,2.828,0,0.781,0.781,0.781,2.048,0,2.828l-2.828,2.828c-0.781,0.781-2.047,0.781-2.828,0-0.781-0.78-0.781-2.047,0-2.828l2.828-2.828z"/>
  <path fill="#FFF" d="m23.998,39.995c1.104,0,2,0.895,2,1.999v4c0,1.104-0.896,2-2,2-1.105,0-2-0.896-2-2v-4c0-1.104,0.895-1.999,2-1.999z"/>
  <path fill="#FFF" d="m38.139,35.309,2.828,2.828c0.779,0.781,0.779,2.048,0,2.828-0.781,0.781-2.049,0.781-2.828,0l-2.828-2.828c-0.781-0.78-0.781-2.047,0-2.828,0.779-0.781,2.046-0.781,2.828,0z"/>
 </g>
</svg>
