<?xml version="1.0" encoding="UTF-8" standalone="no"?>
<!-- Created with Inkscape (http://www.inkscape.org/) -->

<svg
   xmlns:dc="http://purl.org/dc/elements/1.1/"
   xmlns:cc="http://creativecommons.org/ns#"
   xmlns:rdf="http://www.w3.org/1999/02/22-rdf-syntax-ns#"
   xmlns:svg="http://www.w3.org/2000/svg"
   xmlns="http://www.w3.org/2000/svg"
   xmlns:sodipodi="http://sodipodi.sourceforge.net/DTD/sodipodi-0.dtd"
   xmlns:inkscape="http://www.inkscape.org/namespaces/inkscape"
   height="100%"
   width="100%"
   version="1.1"
   viewBox="0 0 149.02 97.778"
   id="svg2"
   inkscape:version="0.48.2 r9819"
   sodipodi:docname="screen03.svg">
  <defs
     id="defs78" />
  <sodipodi:namedview
     pagecolor="#ffffff"
     bordercolor="#666666"
     borderopacity="1"
     objecttolerance="10"
     gridtolerance="10"
     guidetolerance="10"
     inkscape:pageopacity="0"
     inkscape:pageshadow="2"
     inkscape:window-width="678"
     inkscape:window-height="480"
     id="namedview76"
     showgrid="false"
     inkscape:zoom="2.4136309"
     inkscape:cx="67.259513"
     inkscape:cy="48.889"
     inkscape:window-x="0"
     inkscape:window-y="0"
     inkscape:window-maximized="0"
     inkscape:current-layer="g10" />
  <metadata
     id="metadata4">
    <rdf:RDF>
      <cc:Work
         rdf:about="">
        <dc:format>image/svg+xml</dc:format>
        <dc:type
           rdf:resource="http://purl.org/dc/dcmitype/StillImage" />
        <dc:title />
      </cc:Work>
    </rdf:RDF>
  </metadata>
  <g
     transform="translate(-1001.1661,-607.51301)"
     id="g6">
    <g
       transform="matrix(2.3255791,0,0,2.3255791,568.20019,155.51901)"
       id="g8">
      <g
         transform="matrix(0.37618481,0,0,0.37618481,110.08846,117.86022)"
         id="g10">
        <g
           transform="translate(94.382063,43.184153)"
           id="g12">
          <path
             opacity="0.85840676"
             fill="#000"
             d="m107.88,160.17,170.34,0,0,95.814-170.34,0z"
             id="path14" />
          <g
             font-size="17.90544701px"
             line-height="125%"
             font-weight="normal"
             transform="translate(-3.5348499,-12.952233)"
             font-stretch="normal"
             font-variant="normal"
             style="font-size:17.90544701px;font-style:normal;font-variant:normal;font-weight:normal;font-stretch:normal;line-height:125%;letter-spacing:0px;word-spacing:0px;fill:#f9f9f9;font-family:'M+ 1p light'"
             font-style="normal"
             id="g16">
            <g
               line-height="125%"
               id="g18"
               style="line-height:125%">
              <path
                 d="m 211.6,212.59 c -1.5398,1.5756 -3.778,3.0318 -6.7145,4.3687 -0.0954,0.0477 -0.19681,0.0507 -0.30409,0.009 -0.10728,-0.0417 -0.18497,-0.11029 -0.23305,-0.20574 -0.1071,-0.23897 -0.0474,-0.41219 0.17923,-0.51965 2.9008,-1.2892 5.1033,-2.6857 6.6074,-4.1895 -10e-6,-0.024 -0.006,-0.0421 -0.018,-0.0541 h -4.3152 -0.34042 c -0.13115,0 -0.24745,-0.0507 -0.3489,-0.15219 -0.10146,-0.10144 -0.15218,-0.21774 -0.15218,-0.34889 v -5.4436 c 0,-0.13113 0.0507,-0.24743 0.15218,-0.34889 0.10145,-0.10145 0.21775,-0.15217 0.3489,-0.15218 h 5.1212 c 0.0597,10e-6 0.0896,-0.0238 0.0896,-0.0716 v -1.2355 c -1e-5,-0.0477 -0.0299,-0.0716 -0.0896,-0.0716 h -6.8938 c -0.0954,1e-5 -0.17895,-0.0388 -0.25053,-0.11639 -0.0716,-0.0776 -0.10738,-0.16419 -0.10738,-0.25983 0,-0.0956 0.0358,-0.17921 0.10738,-0.25081 0.0716,-0.0716 0.15509,-0.10736 0.25053,-0.10737 h 6.8938 c 0.0597,1e-5 0.0896,-0.0239 0.0896,-0.0716 v -1.1459 c -1e-5,-0.11947 0.0417,-0.22092 0.12513,-0.30436 0.0834,-0.0834 0.18487,-0.12512 0.30437,-0.12513 0.11947,1e-5 0.22093,0.0417 0.30436,0.12513 0.0834,0.0834 0.12512,0.18489 0.12513,0.30436 v 1.1459 c -1e-5,0.0477 0.0299,0.0716 0.0896,0.0716 h 6.8938 c 0.0954,1e-5 0.17894,0.0358 0.25054,0.10737 0.0716,0.0716 0.10735,0.1552 0.10737,0.25081 -2e-5,0.0956 -0.0358,0.18225 -0.10737,0.25983 -0.0716,0.0776 -0.15512,0.1164 -0.25054,0.11639 h -6.8938 c -0.0598,1e-5 -0.0896,0.0239 -0.0896,0.0716 v 1.2355 c -1e-5,0.0477 0.0299,0.0716 0.0896,0.0716 h 5.1212 c 0.13112,10e-6 0.24742,0.0507 0.34889,0.15218 0.10144,0.10146 0.15217,0.21776 0.15218,0.34889 v 5.4436 c -1e-5,0.13115 -0.0507,0.24745 -0.15218,0.34889 -0.10147,0.10146 -0.21777,0.15219 -0.34889,0.15219 h -4.6556 c -0.012,0 -0.0209,0.006 -0.0268,0.018 -0.006,0.012 -0.003,0.0241 0.009,0.0361 1.5162,1.5158 3.7126,2.9123 6.5894,4.1895 0.23859,0.10746 0.30435,0.28068 0.19726,0.51965 -0.0481,0.0954 -0.12578,0.16402 -0.23305,0.20574 -0.1073,0.0417 -0.20866,0.0387 -0.30409,-0.009 -2.9365,-1.3369 -5.1747,-2.7932 -6.7145,-4.3687 -0.024,-0.012 -0.0481,-0.006 -0.0721,0.0175 v 4.4764 c -10e-6,0.11949 -0.0417,0.22103 -0.12513,0.30464 -0.0834,0.0836 -0.18489,0.1254 -0.30436,0.1254 -0.1195,0 -0.22095,-0.0418 -0.30437,-0.1254 -0.0834,-0.0836 -0.12514,-0.18515 -0.12513,-0.30464 v -4.4764 c -1e-5,-0.0116 -0.009,-0.0205 -0.0271,-0.0265 -0.018,-0.006 -0.0331,-0.003 -0.0451,0.009 z m 5.8015,-1.3792 0,-2.0945 c -2e-5,-0.0477 -0.0239,-0.0716 -0.0716,-0.0716 h -4.7091 c -0.0598,1e-5 -0.0896,0.0239 -0.0896,0.0716 v 2.0945 c -1e-5,0.0597 0.0299,0.0896 0.0896,0.0896 h 4.7091 c 0.0477,0 0.0716,-0.0299 0.0716,-0.0896 z m -0.0716,-4.9414 -4.7091,0 c -0.0598,1e-5 -0.0896,0.0239 -0.0896,0.0716 v 1.9513 c -1e-5,0.0477 0.0299,0.0716 0.0896,0.0716 h 4.7091 c 0.0477,1e-5 0.0716,-0.0239 0.0716,-0.0716 v -1.9513 c -2e-5,-0.0477 -0.0239,-0.0716 -0.0716,-0.0716 z m -10.528,0.0716 0,1.9513 c 0,0.0477 0.0239,0.0716 0.0716,0.0716 h 4.7091 c 0.0597,1e-5 0.0896,-0.0239 0.0896,-0.0716 v -1.9513 c -1e-5,-0.0477 -0.0299,-0.0716 -0.0896,-0.0716 h -4.7091 c -0.0477,1e-5 -0.0716,0.0239 -0.0716,0.0716 z m 0,2.7753 0,2.0945 c 0,0.0597 0.0239,0.0896 0.0716,0.0896 h 4.7091 c 0.0597,0 0.0896,-0.0299 0.0896,-0.0896 v -2.0945 c -1e-5,-0.0477 -0.0299,-0.0716 -0.0896,-0.0716 h -4.7091 c -0.0477,1e-5 -0.0716,0.0239 -0.0716,0.0716 z"
                 id="path20"
                 inkscape:connector-curvature="0" />
              <path
                 d="m 232.59,215.78 c -1.3847,0 -2.5217,-0.25664 -3.4111,-0.76992 -0.88942,-0.51328 -1.3341,-1.1697 -1.3341,-1.9693 0,-0.4896 0.20892,-1.0477 0.62676,-1.6743 0.41783,-0.62657 0.99085,-1.2324 1.7191,-1.8174 0.21492,-0.1672 0.41783,-0.15518 0.60873,0.0361 0.17885,0.20292 0.17284,0.38779 -0.018,0.55463 -1.361,1.1224 -2.0415,2.0834 -2.0415,2.883 -1e-5,0.5253 0.34916,0.97893 1.0475,1.3609 0.69833,0.38196 1.6325,0.57294 2.8026,0.57294 1.0382,0 2.2019,-0.14317 3.4912,-0.4295 0.10745,-0.024 0.20599,-0.006 0.29562,0.0536 0.0896,0.0598 0.14633,0.14335 0.17021,0.25082 0.0238,0.10746 0.006,0.21192 -0.0538,0.31337 -0.0598,0.10146 -0.14337,0.16402 -0.25082,0.1877 -1.3009,0.29835 -2.5183,0.44753 -3.6523,0.44753 z m -3.8141,-10.295 c -1e-5,-0.10745 0.0388,-0.19998 0.11639,-0.27758 0.0776,-0.0776 0.17012,-0.11638 0.27759,-0.11639 2.1606,-0.024 4.3689,-0.18523 6.6249,-0.48359 0.10745,-0.012 0.20298,0.0179 0.2866,0.0896 0.0836,0.0718 0.13122,0.16121 0.14289,0.2683 0.012,0.1195 -0.0178,0.21804 -0.0893,0.29562 -0.0716,0.0776 -0.16713,0.12842 -0.2866,0.15245 -2.3158,0.29836 -4.5359,0.45938 -6.6604,0.48305 -0.11949,1e-5 -0.21803,-0.0388 -0.29562,-0.11639 -0.0776,-0.0776 -0.1164,-0.17594 -0.11639,-0.29508 z m -3.9747,11.119 c -0.13151,0.0237 -0.24799,0.003 -0.34944,-0.0628 -0.10146,-0.0656 -0.1642,-0.1581 -0.18824,-0.27759 -0.52494,-2.1008 -0.78741,-4.2734 -0.78741,-6.5176 0,-2.2442 0.26247,-4.4167 0.78741,-6.5176 0.024,-0.11947 0.0868,-0.212 0.18824,-0.27759 0.10145,-0.0656 0.21793,-0.0865 0.34944,-0.0628 0.11912,0.012 0.20855,0.0688 0.2683,0.17021 0.0597,0.10147 0.0776,0.21194 0.0536,0.33141 -0.52494,2.1008 -0.78741,4.2196 -0.7874,6.3564 -1e-5,2.1367 0.26246,4.2555 0.7874,6.3564 0.024,0.11949 0.006,0.22996 -0.0536,0.33141 -0.0597,0.10146 -0.14918,0.15819 -0.2683,0.17022 z"
                 id="path22"
                 inkscape:connector-curvature="0" />
              <path
                 d="m 255.01,214.16 -8.8096,0 c -0.13115,1e-5 -0.24445,-0.0477 -0.33988,-0.14316 -0.0954,-0.0954 -0.14317,-0.20892 -0.14317,-0.34043 v -7.7888 c 0,-0.0116 -0.006,-0.0175 -0.018,-0.0175 -0.012,10e-6 -0.018,0.006 -0.018,0.0175 -0.34608,0.74024 -0.74006,1.4087 -1.1819,2.0054 -0.0598,0.0958 -0.14627,0.14663 -0.25956,0.15245 -0.11329,0.006 -0.21165,-0.033 -0.29507,-0.11639 -0.20328,-0.2029 -0.22131,-0.41783 -0.0541,-0.64479 1.0983,-1.4921 1.9398,-3.217 2.5245,-5.1747 0.0838,-0.25061 0.25098,-0.35206 0.50162,-0.30436 0.10746,0.012 0.18805,0.0658 0.24179,0.1612 0.0537,0.0955 0.0686,0.19691 0.0445,0.30436 -0.1909,0.6805 -0.35792,1.2118 -0.50108,1.5939 -0.0241,0.0477 -0.006,0.0716 0.0535,0.0716 h 3.5813 c 0.0357,1e-5 0.0656,-0.018 0.0896,-0.0541 0.32202,-0.68012 0.56063,-1.265 0.71583,-1.7546 0.0838,-0.25062 0.25699,-0.35808 0.51965,-0.3224 0.10709,0.012 0.18751,0.0688 0.24125,0.17022 0.0537,0.10146 0.0627,0.19991 0.027,0.29534 -0.1195,0.37013 -0.33443,0.90144 -0.64479,1.5939 -0.0237,0.0477 -0.006,0.0716 0.0541,0.0716 h 3.4021 c 0.0954,1e-5 0.18194,0.0358 0.25955,0.10738 0.0776,0.0716 0.11638,0.1551 0.11639,0.25053 -10e-6,0.0955 -0.0388,0.18198 -0.11639,0.25956 -0.0776,0.0776 -0.16412,0.1164 -0.25955,0.11639 h -3.6174 c -0.0477,1e-5 -0.0716,0.0239 -0.0716,0.0716 v 2.2382 c -1e-5,0.0477 0.0239,0.0716 0.0716,0.0716 h 3.295 c 0.22657,0 0.33986,0.11348 0.33988,0.34042 -2e-5,0.0954 -0.0328,0.17897 -0.0984,0.25054 -0.0656,0.0716 -0.1461,0.10738 -0.24152,0.10737 h -3.295 c -0.0477,1e-5 -0.0716,0.0239 -0.0716,0.0716 v 2.3098 c -1e-5,0.0477 0.0239,0.0716 0.0716,0.0716 h 3.295 c 0.0954,1e-5 0.17593,0.0359 0.24152,0.10765 0.0656,0.0718 0.0983,0.15537 0.0984,0.25081 -2e-5,0.22659 -0.11331,0.33989 -0.33988,0.33988 h -3.295 c -0.0477,1e-5 -0.0716,0.024 -0.0716,0.0721 v 2.3814 c -1e-5,0.0594 0.0239,0.0891 0.0716,0.0891 h 3.8857 c 0.0954,1e-5 0.17894,0.0359 0.25054,0.10765 0.0716,0.0718 0.10735,0.15537 0.10737,0.25081 -2e-5,0.0954 -0.0358,0.17896 -0.10737,0.25054 -0.0716,0.0716 -0.15512,0.10738 -0.25054,0.10737 z m -4.7807,-0.80543 0,-2.3814 c -1e-5,-0.0481 -0.0239,-0.0721 -0.0716,-0.0721 h -3.5272 c -0.0477,1e-5 -0.0716,0.024 -0.0716,0.0721 v 2.3814 c -1e-5,0.0594 0.0239,0.0891 0.0716,0.0891 h 3.5272 c 0.0477,1e-5 0.0716,-0.0297 0.0716,-0.0891 z m 0,-3.2234 0,-2.3098 c -1e-5,-0.0477 -0.0239,-0.0716 -0.0716,-0.0716 h -3.5272 c -0.0477,10e-6 -0.0716,0.0239 -0.0716,0.0716 v 2.3098 c -1e-5,0.0477 0.0239,0.0716 0.0716,0.0716 h 3.5272 c 0.0477,1e-5 0.0716,-0.0239 0.0716,-0.0716 z m 0,-3.1513 0,-2.2382 c -1e-5,-0.0477 -0.0239,-0.0716 -0.0716,-0.0716 h -3.5272 c -0.0477,1e-5 -0.0716,0.0239 -0.0716,0.0716 v 2.2382 c -1e-5,0.0477 0.0239,0.0716 0.0716,0.0716 h 3.5272 c 0.0477,0 0.0716,-0.0239 0.0716,-0.0716 z m -8.8811,-4.2256 c 0.68049,0.6805 1.4564,1.5162 2.3278,2.507 0.1672,0.17887 0.14935,0.35792 -0.0536,0.53714 -0.19126,0.16685 -0.37632,0.14882 -0.55518,-0.0541 -0.68049,-0.77592 -1.4504,-1.5936 -2.3098,-2.4529 -0.17923,-0.17885 -0.17322,-0.35789 0.018,-0.53714 0.20291,-0.17921 0.39379,-0.17921 0.57266,0 z m 1.8087,12.158 c -0.65682,0.79998 -1.4626,1.546 -2.4174,2.2382 -0.0954,0.0598 -0.1939,0.0777 -0.29535,0.0538 -0.10145,-0.0239 -0.18205,-0.0835 -0.24179,-0.17896 -0.14317,-0.22659 -0.0954,-0.42348 0.14316,-0.59069 0.93112,-0.68049 1.707,-1.4027 2.3278,-2.1666 0.0357,-0.0357 0.0535,-0.0834 0.0536,-0.14316 v -4.6556 c -1e-5,-0.0477 -0.0239,-0.0716 -0.0716,-0.0716 h -2.1305 c -0.10747,1e-5 -0.19699,-0.0358 -0.26857,-0.10737 -0.0716,-0.0716 -0.10737,-0.1611 -0.10737,-0.26857 0,-0.10746 0.0358,-0.19698 0.10737,-0.26857 0.0716,-0.0716 0.1611,-0.10737 0.26857,-0.10738 h 2.5425 c 0.13114,1e-5 0.24744,0.0507 0.3489,0.15218 0.10145,0.10147 0.15218,0.21776 0.15218,0.3489 v 4.7807 c 0,0.0361 0.012,0.078 0.0361,0.12568 0.48923,0.85936 1.1755,1.4501 2.059,1.7724 0.88339,0.32221 2.3099,0.48332 4.2796,0.48332 h 5.2463 c 0.23859,0 0.35789,0.1255 0.35791,0.37649 -2e-5,0.1071 -0.0388,0.19653 -0.11639,0.2683 -0.0776,0.0718 -0.17014,0.10765 -0.27759,0.10765 h -5.2463 c -1.9336,0 -3.3929,-0.1582 -4.3777,-0.47458 -0.98486,-0.31638 -1.7399,-0.86855 -2.2652,-1.6565 -0.0117,-0.0237 -0.0295,-0.0355 -0.0536,-0.0355 -0.0241,0 -0.0419,0.006 -0.0536,0.0175 z"
                 id="path24"
                 inkscape:connector-curvature="0" />
              <path
                 d="m 261.02,207.59 c -0.56101,1e-5 -0.99669,0.19699 -1.3071,0.59096 -0.31038,0.39399 -0.46557,0.95508 -0.46556,1.6833 -1e-5,0.7162 0.15518,1.2713 0.46556,1.6652 0.31037,0.39398 0.74605,0.59097 1.3071,0.59097 1.1697,0 1.7546,-0.75207 1.7546,-2.2562 -1e-5,-0.65644 -0.16412,-1.1996 -0.49234,-1.6294 -0.32822,-0.42986 -0.74897,-0.64478 -1.2622,-0.64479 z m -0.12513,5.2463 c -0.75226,0 -1.3432,-0.26256 -1.7729,-0.78768 -0.42968,-0.52512 -0.64452,-1.2532 -0.64451,-2.1844 -1e-5,-0.94313 0.21483,-1.6773 0.64451,-2.2024 0.42968,-0.52511 1.0206,-0.78767 1.7729,-0.78768 0.69214,10e-6 1.2948,0.22678 1.8081,0.68031 h 0.018 v -0.018 c -1e-5,-0.19088 -0.006,-0.46537 -0.0178,-0.82347 -0.0119,-0.35809 -0.0238,-0.68048 -0.0358,-0.96719 -1e-5,-0.0357 -0.003,-0.0953 -0.009,-0.17895 -0.006,-0.0836 -0.009,-0.14325 -0.009,-0.17896 -10e-6,-0.0477 -0.0299,-0.0716 -0.0896,-0.0716 -1.3606,0.0834 -2.4946,0.12514 -3.4021,0.12513 -0.10746,1e-5 -0.19699,-0.0388 -0.26857,-0.11639 -0.0716,-0.0776 -0.10737,-0.17011 -0.10737,-0.27759 0,-0.10745 0.0388,-0.19697 0.11639,-0.26857 0.0776,-0.0716 0.17012,-0.10736 0.27758,-0.10737 0.9191,1e-5 2.0471,-0.0417 3.384,-0.12513 0.0361,1e-5 0.0541,-0.0299 0.0541,-0.0896 -1e-5,-0.0954 -0.009,-0.42365 -0.0271,-0.98467 -0.018,-0.56099 -0.027,-0.97281 -0.027,-1.2355 0,-0.11947 0.0418,-0.21801 0.12541,-0.29562 0.0836,-0.0776 0.18505,-0.11637 0.30436,-0.11639 0.1193,2e-5 0.21775,0.0418 0.29534,0.12541 0.0776,0.0836 0.11639,0.18498 0.11639,0.30409 0,0.42987 0.012,1.1462 0.0361,2.1491 -10e-6,0.0477 0.0299,0.0716 0.0896,0.0716 1.1934,-0.0838 2.2079,-0.1794 3.0436,-0.28687 0.26265,-0.0237 0.40599,0.0838 0.43004,0.32239 0.0117,0.10748 -0.0183,0.20602 -0.0899,0.29562 -0.0716,0.0896 -0.16112,0.14026 -0.26857,0.15191 -1.0743,0.13152 -2.1009,0.23315 -3.0797,0.30491 -0.0598,1e-5 -0.0896,0.0239 -0.0896,0.0716 -1e-5,0.0714 0.003,0.1847 0.009,0.33988 0.006,0.1552 0.009,0.26867 0.009,0.34043 0.0597,2.4469 0.0896,3.7361 0.0896,3.8676 0,0.82366 -0.0925,1.5786 -0.27758,2.265 -0.18507,0.68632 -0.37012,1.2473 -0.55518,1.683 -0.18506,0.43569 -0.27759,0.76701 -0.27758,0.99396 -1e-5,0.29835 0.0776,0.52211 0.23278,0.67129 0.15518,0.14917 0.54915,0.27449 1.1819,0.37594 0.63276,0.10145 1.5757,0.15218 2.8289,0.15218 1.1817,0 2.0801,-0.0657 2.695,-0.19699 0.6149,-0.13132 1.0297,-0.33123 1.2445,-0.59971 0.21474,-0.26847 0.32211,-0.65353 0.32212,-1.1552 -1e-5,-0.89505 -0.32222,-2.1843 -0.96663,-3.8676 -0.0477,-0.10709 -0.0477,-0.21137 0,-0.31283 0.0477,-0.10145 0.1253,-0.17012 0.23278,-0.206 0.10745,-0.0359 0.21482,-0.0269 0.32212,0.0268 0.10727,0.0537 0.18495,0.13434 0.23305,0.2418 0.68011,1.7428 1.0202,3.1513 1.0202,4.2256 -2e-5,1.0025 -0.36112,1.6948 -1.0833,2.077 -0.72222,0.38214 -2.0622,0.57321 -4.0198,0.57321 -2.0531,0 -3.4259,-0.1194 -4.1182,-0.35819 -0.69233,-0.23879 -1.0385,-0.70444 -1.0385,-1.397 0,-0.16684 0.0149,-0.32194 0.0448,-0.46529 0.0299,-0.14334 0.0717,-0.28068 0.1254,-0.412 0.0537,-0.13133 0.14025,-0.3581 0.25956,-0.68031 0.1193,-0.32221 0.23869,-0.65635 0.35818,-1.0024 l -0.018,-0.018 h -0.018 c -0.40582,0.22659 -0.87721,0.33988 -1.4142,0.33988 z m 8.4336,-8.2003 c 0.13113,-0.21492 0.31018,-0.25681 0.53714,-0.12568 1.2295,0.76392 2.3753,1.5697 3.4376,2.4174 0.20289,0.16722 0.22675,0.35829 0.0716,0.57321 -0.14318,0.21457 -0.31622,0.24426 -0.51911,0.0891 -1.1581,-0.90707 -2.2921,-1.7069 -3.4021,-2.3994 -0.22696,-0.15518 -0.26867,-0.34005 -0.12513,-0.55463 z"
                 id="path26"
                 inkscape:connector-curvature="0" />
            </g>
            <g
               line-height="125%"
               id="g28"
               transform="translate(-1.7993737,0)"
               style="line-height:125%">
              <path
                 d="m 222.69,246.42 -3.384,3.2048 c -0.0718,0.0718 -0.15537,0.0987 -0.25081,0.0809 -0.0954,-0.0178 -0.17304,-0.0745 -0.23278,-0.16994 -0.14317,-0.23896 -0.1133,-0.44788 0.0896,-0.62675 l 3.4917,-3.295 c 0.22658,-0.2029 0.48322,-0.30435 0.76992,-0.30436 0.13113,1e-5 0.23851,0.0418 0.32212,0.1254 0.0836,0.0836 0.1254,0.19117 0.1254,0.32267 v 12.176 c 0,0.13115 -0.0418,0.23852 -0.1254,0.32212 -0.0836,0.0836 -0.18807,0.12541 -0.31338,0.12541 -0.12532,0 -0.23279,-0.0418 -0.32239,-0.12541 -0.0896,-0.0836 -0.13443,-0.19097 -0.13443,-0.32212 v -11.495 c 0,-0.012 -0.006,-0.018 -0.0175,-0.018 z"
                 id="path30"
                 inkscape:connector-curvature="0" />
              <path
                 d="m 237.13,251.84 c -1e-5,-3.9631 -1.2355,-5.9446 -3.7064,-5.9446 -2.471,2e-5 -3.7064,1.9816 -3.7064,5.9446 0,3.9631 1.2355,5.9446 3.7064,5.9446 2.471,0 3.7064,-1.9815 3.7064,-5.9446 z m 0.8956,0 c -1e-5,4.4764 -1.5339,6.7145 -4.6018,6.7145 -3.0678,0 -4.6018,-2.2382 -4.6018,-6.7145 0,-4.4764 1.5339,-6.7145 4.6018,-6.7146 3.0678,2e-5 4.6018,2.2382 4.6018,6.7146 z"
                 id="path32"
                 inkscape:connector-curvature="0" />
              <path
                 d="m 248.04,251.84 c -1e-5,-3.9631 -1.2355,-5.9446 -3.7064,-5.9446 -2.471,2e-5 -3.7064,1.9816 -3.7064,5.9446 0,3.9631 1.2355,5.9446 3.7064,5.9446 2.471,0 3.7064,-1.9815 3.7064,-5.9446 z m 0.8956,0 c -1e-5,4.4764 -1.5339,6.7145 -4.6018,6.7145 -3.0678,0 -4.6018,-2.2382 -4.6018,-6.7145 0,-4.4764 1.5339,-6.7145 4.6018,-6.7146 3.0678,2e-5 4.6018,2.2382 4.6018,6.7146 z"
                 id="path34"
                 inkscape:connector-curvature="0" />
              <path
                 d="m 252.02,253.31 0,4.655 c 0,0.11949 -0.0418,0.21803 -0.1254,0.29562 -0.0836,0.0776 -0.18506,0.11639 -0.30437,0.11639 -0.1193,0 -0.21775,-0.0388 -0.29534,-0.11639 -0.0776,-0.0776 -0.11639,-0.17613 -0.11639,-0.29562 v -8.5046 c 0,-0.10746 0.0388,-0.19998 0.11639,-0.27759 0.0776,-0.0776 0.17012,-0.11638 0.27759,-0.11639 0.10746,1e-5 0.2029,0.0388 0.28632,0.11639 0.0834,0.0776 0.12514,0.17013 0.12514,0.27759 l 0.018,1.3961 c 0,0.012 0.006,0.018 0.018,0.018 0.012,10e-6 0.018,-0.006 0.018,-0.018 0.28633,-0.62037 0.65035,-1.1037 1.092,-1.45 0.44169,-0.34625 0.92519,-0.51938 1.4505,-0.51939 1.2772,1e-5 2.1127,0.64462 2.5065,1.9338 -1e-5,0.012 0.0119,0.018 0.0358,0.018 0.0238,0 0.0358,-0.006 0.0358,-0.018 0.26264,-0.60871 0.63276,-1.0832 1.1104,-1.4234 0.47757,-0.34023 1.0207,-0.51036 1.6294,-0.51037 0.93111,1e-5 1.6204,0.28653 2.068,0.85954 0.44751,0.57303 0.67128,1.4803 0.67129,2.7218 v 5.4966 c -10e-6,0.11949 -0.0388,0.21803 -0.11639,0.29562 -0.0776,0.0776 -0.17605,0.11639 -0.29535,0.11639 -0.11931,0 -0.21776,-0.0388 -0.29534,-0.11639 -0.0776,-0.0776 -0.1164,-0.17613 -0.11639,-0.29562 v -5.3179 c -1e-5,-1.11 -0.16112,-1.8948 -0.48332,-2.3543 -0.32222,-0.45954 -0.85344,-0.68932 -1.5937,-0.68932 -0.65646,0 -1.2235,0.30737 -1.701,0.9221 -0.47759,0.61474 -0.71638,1.3816 -0.71637,2.3007 v 5.1386 c -1e-5,0.11949 -0.0388,0.21803 -0.11639,0.29562 -0.0776,0.0776 -0.17605,0.11639 -0.29535,0.11639 -0.11931,0 -0.21776,-0.0388 -0.29535,-0.11639 -0.0776,-0.0776 -0.11639,-0.17613 -0.11639,-0.29562 v -5.3179 c 0,-1.11 -0.15819,-1.8948 -0.47457,-2.3543 -0.31639,-0.45954 -0.84452,-0.68932 -1.5844,-0.68932 -0.59707,0 -1.1492,0.3611 -1.6565,1.0833 -0.50728,0.72221 -0.76091,1.5966 -0.76091,2.6232 z"
                 id="path36"
                 inkscape:connector-curvature="0" />
            </g>
          </g>
          <g
             font-size="12.00595379px"
             font-weight="normal"
             style="word-spacing:0px;letter-spacing:0px;"
             font-stretch="normal"
             font-variant="normal"
             font-style="normal"
             font-family="'M+ 2m thin'"
             line-height="125%"
             fill="#000"
             id="g38">
            <path
               d="m159.95,262.64-0.26417,0.58842c-0.44822-0.26428-0.90451-0.39643-1.3688-0.39643-0.60822,0-1.0864,0.1741-1.4346,0.52229-0.3482,0.3482-0.5223,0.82652-0.52229,1.435-0.00001,0.60015,0.18007,1.0763,0.54024,1.4286,0.36016,0.35223,0.83238,0.52834,1.4167,0.52834,0.46433,0,0.92062-0.13202,1.3688-0.39607l0.26417,0.58806c-0.47241,0.30411-1.0407,0.45616-1.7048,0.45616-0.83245,0-1.5008-0.23413-2.0051-0.70238-0.50428-0.46824-0.75642-1.1025-0.75642-1.9027,0-0.80851,0.24616-1.4449,0.73847-1.9091,0.4923-0.46422,1.1666-0.69633,2.023-0.69633,0.66414,0,1.2324,0.15206,1.7048,0.45616zm-4.6166,4.8265c0.7406,0.73645,1.6311,1.1047,2.6716,1.1047,1.0404,0,1.9308-0.36822,2.6712-1.1047,0.74035-0.73645,1.1105-1.6289,1.1105-2.6774-0.00001-1.0485-0.37019-1.9409-1.1105-2.6772-0.74036-0.73632-1.6308-1.1045-2.6712-1.1045-1.0404,0.00001-1.9309,0.36817-2.6714,1.1045-0.74048,0.73633-1.1107,1.6287-1.1107,2.6772s0.37017,1.941,1.1105,2.6774zm5.793,0.44406c-0.86445,0.86445-1.9049,1.2967-3.1215,1.2967s-2.257-0.43222-3.1215-1.2967c-0.86444-0.86444-1.2967-1.9049-1.2967-3.1215,0-1.2165,0.43222-2.257,1.2967-3.1215,0.86444-0.86443,1.9049-1.2966,3.1215-1.2967,1.2165,0.00001,2.257,0.43223,3.1215,1.2967,0.86443,0.86445,1.2966,1.9049,1.2967,3.1215-0.00001,1.2166-0.43223,2.257-1.2967,3.1215z"
               id="path40" />
            <path
               d="m166.45,261.1c-0.79239,0-1.5849,0.27614-2.3775,0.82841l-0.28798-0.76833c0.81632-0.58426,1.7448-0.8764,2.7853-0.87641,0.85638,0.00001,1.5207,0.21808,1.993,0.6542,0.47227,0.43613,0.70841,1.0464,0.70842,1.8309-0.00001,0.78445-0.28415,1.5769-0.85242,2.3773-0.56828,0.80045-1.6328,1.8649-3.1937,3.1935v0.0242h4.082v0.80423h-5.4025v-0.80423c1.7047-1.4089,2.8612-2.5075,3.4696-3.2959,0.60833-0.78835,0.91249-1.5307,0.9125-2.2271-0.00001-0.56815-0.15609-1.0003-0.46825-1.2965-0.31217-0.29616-0.76833-0.44425-1.3685-0.44425z"
               id="path42" />
            <path
               d="m171.74,261.33c0.55227-0.69638,1.3287-1.0446,2.3292-1.0446,1.0005,0.00001,1.7769,0.34815,2.3292,1.0444,0.55227,0.69628,0.82841,1.8488,0.82842,3.4576-0.00001,1.6088-0.27615,2.7614-0.82842,3.4578-0.55228,0.69639-1.3287,1.0446-2.3292,1.0446s-1.7769-0.3482-2.3292-1.0446c-0.55228-0.69639-0.82842-1.849-0.82842-3.4578s0.27614-2.7613,0.82842-3.4575zm0.67819,6.2972c0.36419,0.58818,0.91451,0.88227,1.651,0.88227,0.73645,0,1.2868-0.29415,1.651-0.88245,0.36419-0.58831,0.54629-1.5348,0.54629-2.8396,0-1.3047-0.1821-2.2512-0.54629-2.8394-0.3642-0.58817-0.91452-0.88226-1.651-0.88227-0.73645,0.00001-1.2867,0.2941-1.6508,0.88227-0.36407,0.58819-0.54611,1.5346-0.54611,2.8394,0,1.3047,0.18198,2.2513,0.54593,2.8397z"
               id="path44" />
            <path
               d="m181.53,269.17,0-7.6118-0.0242,0-2.3651,2.1852-0.37225-0.78042,2.7615-2.5574,0.96032,0,0,8.7645z"
               id="path46" />
            <path
               d="m189.6,266.35,0-4.5385-0.0238,0-3.1938,4.5143,0,0.0242zm0.94859,0,1.4887,0,0,0.78005-1.4887,0,0,2.0412-0.94859,0,0-2.0412-4.2018,0,0-0.78005,4.2018-5.9433,0.94859,0z"
               id="path48" />
            <path
               d="m197.72,261.07c-1.1285,0.00001-2.0149,0.33617-2.6593,1.0085-0.64436,0.67234-0.96654,1.5768-0.96654,2.7133,0,1.1446,0.33415,2.0511,1.0024,2.7194,0.6683,0.6683,1.5707,1.0024,2.7073,1.0024,0.71251,0,1.3648-0.13214,1.9569-0.39644v-3.2774h-3.0374v-0.76832h3.9622v4.562c-0.90451,0.44041-1.893,0.66061-2.9656,0.66061-1.3928,0-2.5074-0.40822-3.3437-1.2247-0.83635-0.81644-1.2545-1.909-1.2545-3.2778,0-1.3687,0.40816-2.4612,1.2245-3.2776,0.81632-0.81632,1.9168-1.2245,3.3016-1.2245,1.0166,0.00001,1.9211,0.24012,2.7135,0.72033l-0.32425,0.70824c-0.72034-0.43209-1.4927-0.64814-2.3171-0.64815z"
               id="path50" />
            <path
               d="m206.5,264.19c-0.36395-0.44431-0.86212-0.66647-1.4945-0.66647-0.6324,0-1.1307,0.2221-1.4949,0.66628-0.3642,0.4442-0.5463,1.0625-0.54629,1.8549-0.00001,0.79238,0.18209,1.4107,0.54629,1.855,0.36419,0.44431,0.86248,0.66647,1.4949,0.66647,0.63239,0,1.1306-0.22216,1.4947-0.66647,0.36406-0.44431,0.5461-1.0627,0.54611-1.855-0.00001-0.79239-0.18211-1.4106-0.5463-1.8547zm0.64229,4.2201c-0.53616,0.58427-1.2484,0.87641-2.1368,0.87641-0.88838,0-1.6007-0.29214-2.137-0.87641-0.53627-0.58428-0.80441-1.3727-0.80441-2.3652,0-0.99255,0.26814-1.781,0.80441-2.3652,0.53628-0.58427,1.2486-0.8764,2.137-0.87641,0.88837,0.00001,1.6007,0.29214,2.137,0.87641,0.53627,0.58428,0.80441,1.3727,0.80442,2.3652-0.00001,0.99256-0.26821,1.781-0.8046,2.3652z"
               id="path52" />
            <path
               d="m213.34,264.19c-0.36395-0.44431-0.86213-0.66647-1.4945-0.66647-0.63239,0-1.1307,0.2221-1.4949,0.66628-0.36419,0.4442-0.54629,1.0625-0.54629,1.8549,0,0.79238,0.1821,1.4107,0.54629,1.855,0.36419,0.44431,0.86249,0.66647,1.4949,0.66647,0.63239,0,1.1306-0.22216,1.4947-0.66647,0.36407-0.44431,0.54611-1.0627,0.54611-1.855,0-0.79239-0.1821-1.4106-0.54629-1.8547zm0.64229,4.2201c-0.53616,0.58427-1.2484,0.87641-2.1368,0.87641-0.88838,0-1.6007-0.29214-2.137-0.87641-0.53628-0.58428-0.80442-1.3727-0.80442-2.3652,0-0.99255,0.26814-1.781,0.80442-2.3652,0.53627-0.58427,1.2486-0.8764,2.137-0.87641,0.88838,0.00001,1.6007,0.29214,2.137,0.87641,0.53627,0.58428,0.80441,1.3727,0.80441,2.3652,0,0.99256-0.2682,1.781-0.80459,2.3652z"
               id="path54" />
            <path
               d="m216.68,265.93c0,0.74426,0.16805,1.3305,0.50416,1.7587,0.3361,0.42819,0.77638,0.64229,1.3208,0.64229,0.55228,0,1.0024-0.20811,1.3505-0.62434,0.34806-0.41622,0.5221-0.98852,0.52211-1.7169v-0.11981c-0.00001-0.72033-0.17606-1.2906-0.52816-1.7109-0.35211-0.42025-0.80027-0.63038-1.3445-0.63038-0.5684,0-1.0147,0.2061-1.3388,0.61829-0.32413,0.41219-0.4862,1.0065-0.4862,1.783zm-0.86432,0c0-1.0005,0.22008-1.7709,0.66024-2.3112s1.0485-0.81045,1.825-0.81046c0.93625,0.00001,1.6285,0.38814,2.0767,1.1644h0.0242l0.0238-1.0442h0.84051v5.7267c-0.00001,2.1852-0.97644,3.2778-2.9293,3.2778-0.67246,0-1.3168-0.12812-1.9331-0.38434l0.19199-0.70824c0.5684,0.24817,1.1488,0.37225,1.7411,0.37225,0.7042,0,1.2204-0.19614,1.5486-0.58842,0.32816-0.39229,0.49224-1.0366,0.49225-1.9331v-0.76832h-0.0238c-0.43235,0.75232-1.1166,1.1285-2.0529,1.1285-0.72839,0-1.3247-0.28212-1.7889-0.84636-0.46422-0.56425-0.69633-1.3226-0.69633-2.2749z"
               id="path56" />
            <path
               d="m223.55,269.17,0-9.0045,0.9365,0,0,9.0045z"
               id="path58" />
            <path
               d="m227.24,266.39c0.0159,0.68028,0.22393,1.2165,0.62415,1.6086,0.40022,0.39216,0.92044,0.58825,1.5606,0.58824,0.62433,0.00001,1.2407-0.15999,1.8492-0.47997l0.23999,0.68406c-0.67246,0.33634-1.3928,0.50452-2.161,0.50452-0.89645,0-1.6208-0.29214-2.1731-0.87641-0.55227-0.58428-0.82841-1.3728-0.82841-2.3654,0-1.0083,0.25812-1.8006,0.77437-2.377,0.51625-0.57633,1.2186-0.86449,2.1069-0.8645,0.86444,0.00001,1.5328,0.27211,2.0051,0.81632,0.47228,0.54422,0.70842,1.3326,0.70843,2.3651-0.00001,0.18417-0.004,0.31632-0.0121,0.39643zm0-0.69651,3.8537,0c-0.008-0.69638-0.17618-1.2327-0.50434-1.6088-0.32817-0.37616-0.78036-0.56424-1.3566-0.56424-0.6004,0-1.0766,0.1901-1.4288,0.57029-0.3521,0.3802-0.54012,0.91446-0.56406,1.6028z"
               id="path60" />
            <path
               d="m234.08,267.53,1.2128,0-1.2007,2.9652-0.8885,0z"
               id="path62" />
            <path
               d="m237.05,260.41,5.8348,0,0,0.8046-4.7184,7.1315,0,0.0242,4.7184,0,0,0.80423-5.8348,0,0-0.80423,4.718-7.1318,0-0.0238-4.718,0z"
               id="path64" />
            <path
               d="m245.77,261.21,0,2.8575,3.9259,0,0,0.76832-3.9259,0,0,3.5298,4.1659,0,0,0.80423-5.1266,0,0-8.7645,5.1266,0,0,0.8046z"
               id="path66" />
            <path
               d="m251.87,269.17,0-8.7645,0.99659,0,4.5623,7.2036,0.0238,0,0-7.2036,0.94859,0,0,8.7645-0.99659,0-4.5623-7.2036-0.0238,0,0,7.2036z"
               id="path68" />
            <path
               d="m260.45,269.17,0-8.7044c0.69639-0.11992,1.4448-0.17989,2.2453-0.1799,1.1204,0.00001,1.9668,0.20611,2.5391,0.61829,0.5723,0.4122,0.85845,0.99849,0.85846,1.7589-0.00001,0.60822-0.16409,1.1164-0.49225,1.5246-0.32817,0.40816-0.79233,0.68833-1.3925,0.8405v0.0242c0.36004,0.192,0.71617,0.71215,1.0684,1.5605l1.0567,2.5574h-0.99659l-1.0325-2.5332c-0.24012-0.57621-0.46624-0.93436-0.67838-1.0744-0.21214-0.14008-0.63038-0.21013-1.2547-0.21013h-0.96031v3.8178zm0.96069-4.5861,0.96031,0c0.95262,0.00001,1.653-0.15412,2.1013-0.46238,0.44822-0.30826,0.67233-0.76649,0.67233-1.3747,0-1.1204-0.84441-1.6806-2.5332-1.6806-0.42428,0.00001-0.8245,0.036-1.2007,0.10808z"
               id="path70" />
            <path
               d="m268.24,269.17,0-8.7645,1.0325,0,0,8.7645z"
               id="path72" />
            <path
               d="m271.68,269.17,0-8.7645,0.99658,0,4.5623,7.2036,0.0238,0,0-7.2036,0.94859,0,0,8.7645-0.99659,0-4.5623-7.2036-0.0238,0,0,7.2036z"
               id="path74" />
          </g>
        </g>
      </g>
    </g>
  </g>
</svg>
